<?xml version="1.0" standalone="no"?>
<!DOCTYPE svg PUBLIC "-//W3C//DTD SVG 1.1//EN" "http://www.w3.org/Graphics/SVG/1.1/DTD/svg11.dtd" >
<svg xmlns="http://www.w3.org/2000/svg" xmlns:xlink="http://www.w3.org/1999/xlink" version="1.1">
<metadata>
Created by FontForge 20170731 at Sat May 19 15:52:05 2018
 By Aleksey,,,
Copyright (c) 2018 by Optimo SARL. All rights reserved.
</metadata>
<defs>
<font id="TheinhardtPanMedium-Regular" horiz-adv-x="590" >
  <font-face 
    font-family="Theinhardt Pan Medium"
    font-weight="500"
    font-stretch="normal"
    units-per-em="1000"
    panose-1="2 11 6 4 2 1 1 2 1 2"
    ascent="724"
    descent="-276"
    x-height="476"
    cap-height="680"
    bbox="-339 -267 1497 1077"
    underline-thickness="50"
    underline-position="-200"
    unicode-range="U+000D-FEFF"
  />
<missing-glyph horiz-adv-x="671" 
d="M63 240v49l309 309q14 -8 26 -23zM63 142v49l347 347v-15q0 -20 -13.5 -37.5t-41.5 -39.5t-37 -31q-22 -23 -36 -54zM117 0h-49l261 261h49l-93 -93h-23v-23zM334 168l273 273v-49l-224 -224h-49zM411 0h-49l33 33h2v2l210 210v-49zM63 338v49l148 148l39 -2q0 29 20 52
t55 23h8zM397 133l210 210v-49l-210 -210v49zM63 44v49l206 206v-38h11zM63 583l196 196h49l-44 -44q-54 -14 -93 -53.5t-54 -93.5l-54 -54v49zM550 482l57 57v-49l-216 -216v7q0 12 2.5 21t11 18.5t12.5 13.5t21 16t23 16q1 1 10 7.5t14 10.5t14.5 12.5t15.5 16.5
t13.5 18.5t13 23.5t8.5 27zM63 681l98 98h49l-147 -147v49zM509 0h-49l147 147v-49zM472 698l81 81h49l-104 -104q-25 22 -26 23zM63 436v49l56 56l46 -3zM519 647l88 88v-49l-70 -70q-6 13 -18 31zM215 0h-49l96 96v-49zM549 579l58 58v-49l-52 -52q0 13 -6 43zM408 732
l47 47h49l-62 -62q-15 8 -34 15zM320 742l37 37h49l-38 -38q-18 2 -28 2q-2 0 -6.5 -0.5t-6.5 -0.5h-7zM313 0h-49l33 33h49zM607 49v-49h-49zM63 779h49l-49 -49v49z" />
    <glyph glyph-name="f_f" unicode="ff" horiz-adv-x="646" 
d="M631 476v-89h-114v-387h-114v387h-187v-387h-114v387h-84v89h84v59q0 53 14 89q28 66 139 66q47 0 75 -5v-92q-26 2 -41 2q-49 0 -63 -19q-10 -13 -10 -50v-50h187v59q0 53 14 89q28 66 139 66q47 0 75 -5v-92q-26 2 -41 2q-49 0 -63 -19q-10 -13 -10 -50v-50h114z" />
    <glyph glyph-name="f_f_i" unicode="ffi" horiz-adv-x="881" 
d="M813 476v-476h-114v476h114zM813 680v-116h-114v116h114zM631 476v-89h-114v-387h-114v387h-187v-387h-114v387h-84v89h84v59q0 53 14 89q28 66 139 66q47 0 75 -5v-92q-26 2 -41 2q-49 0 -63 -19q-10 -13 -10 -50v-50h187v59q0 53 14 89q28 66 139 66q47 0 75 -5v-92
q-26 2 -41 2q-49 0 -63 -19q-10 -13 -10 -50v-50h114z" />
    <glyph glyph-name="f_f_l" unicode="ffl" horiz-adv-x="869" 
d="M801 680v-680h-114v680h114zM631 476v-89h-114v-387h-114v387h-187v-387h-114v387h-84v89h84v59q0 53 14 89q28 66 139 66q47 0 75 -5v-92q-26 2 -41 2q-49 0 -63 -19q-10 -13 -10 -50v-50h187v59q0 53 14 89q28 66 139 66q47 0 75 -5v-92q-26 2 -41 2q-49 0 -63 -19
q-10 -13 -10 -50v-50h114z" />
    <glyph glyph-name="f_i" unicode="fi" horiz-adv-x="581" 
d="M330 476v-89h-114v-387h-114v387h-84v89h84v59q0 53 14 89q28 66 139 66q47 0 75 -5v-92q-26 2 -41 2q-49 0 -63 -19q-10 -13 -10 -50v-50h114zM513 476v-476h-114v476h114zM513 680v-116h-114v116h114z" />
    <glyph glyph-name="f_l" unicode="fl" horiz-adv-x="581" 
d="M330 476v-89h-114v-387h-114v387h-84v89h84v59q0 53 14 89q28 66 139 66q47 0 75 -5v-92q-26 2 -41 2q-49 0 -63 -19q-10 -13 -10 -50v-50h114zM513 680v-680h-114v680h114z" />
    <glyph glyph-name=".notdef" horiz-adv-x="671" 
d="M63 240v49l309 309q14 -8 26 -23zM63 142v49l347 347v-15q0 -20 -13.5 -37.5t-41.5 -39.5t-37 -31q-22 -23 -36 -54zM117 0h-49l261 261h49l-93 -93h-23v-23zM334 168l273 273v-49l-224 -224h-49zM411 0h-49l33 33h2v2l210 210v-49zM63 338v49l148 148l39 -2q0 29 20 52
t55 23h8zM397 133l210 210v-49l-210 -210v49zM63 44v49l206 206v-38h11zM63 583l196 196h49l-44 -44q-54 -14 -93 -53.5t-54 -93.5l-54 -54v49zM550 482l57 57v-49l-216 -216v7q0 12 2.5 21t11 18.5t12.5 13.5t21 16t23 16q1 1 10 7.5t14 10.5t14.5 12.5t15.5 16.5
t13.5 18.5t13 23.5t8.5 27zM63 681l98 98h49l-147 -147v49zM509 0h-49l147 147v-49zM472 698l81 81h49l-104 -104q-25 22 -26 23zM63 436v49l56 56l46 -3zM519 647l88 88v-49l-70 -70q-6 13 -18 31zM215 0h-49l96 96v-49zM549 579l58 58v-49l-52 -52q0 13 -6 43zM408 732
l47 47h49l-62 -62q-15 8 -34 15zM320 742l37 37h49l-38 -38q-18 2 -28 2q-2 0 -6.5 -0.5t-6.5 -0.5h-7zM313 0h-49l33 33h49zM607 49v-49h-49zM63 779h49l-49 -49v49z" />
    <glyph glyph-name=".null" horiz-adv-x="0" 
 />
    <glyph glyph-name=".null" horiz-adv-x="0" 
 />
    <glyph glyph-name="nonmarkingreturn" horiz-adv-x="333" 
 />
    <glyph glyph-name="CR" unicode="&#xd;" horiz-adv-x="220" 
 />
    <glyph glyph-name="space" unicode=" " horiz-adv-x="220" 
 />
    <glyph glyph-name="exclam" unicode="!" horiz-adv-x="268" 
d="M190 370l-12 -196h-87l-14 196v310h113v-310zM72 127h122v-127h-122v127z" />
    <glyph glyph-name="quotedbl" unicode="&#x22;" horiz-adv-x="400" 
d="M169 600l-22 -213h-75l-19 213v80h116v-80zM348 600l-22 -213h-75l-19 213v80h116v-80z" />
    <glyph glyph-name="numbersign" unicode="#" 
d="M598 473v-101h-153l-15 -94h146v-100h-161l-29 -178h-101l29 178h-92l-29 -178h-101l29 178h-130v100h146l14 94h-138v101h155l33 207h101l-34 -207h93l33 207h101l-34 -207h137zM252 372l-15 -94h93l14 94h-92z" />
    <glyph glyph-name="dollar" unicode="$" 
d="M552 572l-89 -72q-45 53 -110 71v-181h3q108 -26 161 -65t53 -122q0 -84 -57.5 -137.5t-159.5 -64.5v-100h-105v101q-156 22 -235 131l98 70q18 -31 54 -57t83 -37v185l-7 2q-94 21 -147 63.5t-53 125.5q0 77 57.5 129t149.5 64v97h105v-99q112 -17 199 -104zM444 191
q0 32 -22.5 50t-68.5 30v-166q44 8 67.5 30.5t23.5 55.5zM168 491q0 -31 18.5 -48t61.5 -29v161q-38 -8 -59 -30.5t-21 -53.5z" />
    <glyph glyph-name="percent" unicode="%" horiz-adv-x="895" 
d="M351 466q0 -92 -39.5 -153t-120.5 -61q-43 0 -75.5 18t-50.5 48.5t-26.5 67.5t-8.5 80t7.5 79.5t24.5 70t50 53t79 19.5q160 0 160 -222zM260 466q0 141 -71 141q-69 0 -69 -141q0 -134 69 -134q71 0 71 134zM865 207q0 -92 -39.5 -153t-120.5 -61q-43 0 -75.5 18
t-50.5 48.5t-26.5 67.5t-8.5 80t7.5 79.5t24.5 70t50 53t79 19.5q160 0 160 -222zM774 207q0 141 -71 141q-69 0 -69 -141q0 -134 69 -134q71 0 71 134zM590 680h105l-405 -680h-105z" />
    <glyph glyph-name="ampersand" unicode="&#x26;" horiz-adv-x="653" 
d="M515 0l-58 72q-77 -84 -198 -84q-97 0 -158.5 53.5t-61.5 148.5q0 71 39.5 117.5t108.5 84.5q-62 78 -62 148q0 64 47.5 109.5t127.5 45.5q82 0 127.5 -42t45.5 -105q0 -108 -121 -178l92 -109q5 15 20 102l107 -28q-13 -94 -46 -168l139 -167h-149zM388 151l-136 165
q-48 -29 -74 -56.5t-26 -65.5q0 -48 33 -74.5t82 -26.5q77 0 121 58zM290 446q69 39 69 95q0 26 -16.5 41.5t-43.5 15.5t-43.5 -15t-16.5 -40q0 -7 1.5 -14t4.5 -15t6 -13.5t9 -14t9 -12.5t10.5 -14.5t10.5 -13.5z" />
    <glyph glyph-name="quotesingle" unicode="'" horiz-adv-x="221" 
d="M169 600l-22 -213h-75l-19 213v80h116v-80z" />
    <glyph glyph-name="parenleft" unicode="(" horiz-adv-x="295" 
d="M273 -158l-105 -13q-126 208 -126 432t119 429l108 -13q-115 -209 -115 -407q0 -214 119 -428z" />
    <glyph glyph-name="parenright" unicode=")" horiz-adv-x="295" 
d="M127 -171l-105 13q119 214 119 428q0 198 -115 407l108 13q119 -205 119 -429t-126 -432z" />
    <glyph glyph-name="asterisk" unicode="*" horiz-adv-x="484" 
d="M295 680l-5 -140l129 49l34 -101l-128 -40l88 -110l-85 -58l-86 110l-86 -110l-86 58l91 111l-130 39l34 101l129 -49l-5 140h106z" />
    <glyph glyph-name="plus" unicode="+" 
d="M349 296v-226h-107v226h-223v106h223v225h107v-225h222v-106h-222z" />
    <glyph glyph-name="comma" unicode="," horiz-adv-x="248" 
d="M60 131h129v-102q0 -25 -2 -57q-7 -60 -33.5 -89t-93.5 -31v65q30 2 43.5 17t13.5 54v12h-57v131z" />
    <glyph glyph-name="hyphen" unicode="-" horiz-adv-x="403" 
d="M344 214h-285v108h285v-108z" />
    <glyph glyph-name="period" unicode="." horiz-adv-x="247" 
d="M59 132h129v-132h-129v132z" />
    <glyph glyph-name="slash" unicode="/" horiz-adv-x="513" 
d="M378 680h116l-358 -680h-117z" />
    <glyph glyph-name="zero" unicode="0" horiz-adv-x="608" 
d="M564 337q0 -70 -12.5 -128.5t-40.5 -110t-80 -81t-125 -29.5q-70 0 -121.5 27t-81.5 76t-44.5 110t-14.5 136q0 52 8 100t27.5 95.5t48.5 82t75 56t103 21.5q68 0 119.5 -29.5t81 -80.5t43.5 -112.5t14 -132.5zM439 335q0 48 -6 89t-20.5 78.5t-41.5 59.5t-65 22
q-51 0 -83 -39.5t-42.5 -91.5t-10.5 -118q0 -65 10.5 -115t42.5 -87t83 -37q133 0 133 239z" />
    <glyph glyph-name="one" unicode="1" horiz-adv-x="401" 
d="M323 680v-680h-115v444h-187v91h36q75 0 116 29q49 36 52 116h98z" />
    <glyph glyph-name="two" unicode="2" horiz-adv-x="572" 
d="M178 398l-117 16q-12 33 -12 72q0 90 66 148t174 58q104 0 166 -57.5t62 -153.5q0 -44 -16.5 -87.5t-40 -76.5t-62 -71t-68.5 -61.5t-74 -56.5l-31 -24v-1h27q8 0 34 0.5t45 0.5h202v-104h-493v93q92 61 208 165q77 67 110 111.5t33 104.5q0 52 -30 83t-82 31
q-54 0 -83 -36t-29 -88q0 -31 11 -66z" />
    <glyph glyph-name="three" unicode="3" horiz-adv-x="570" 
d="M34 200l120 17q14 -130 126 -130q61 0 91.5 34t30.5 81q0 77 -76 99q-24 7 -85 7h-45v97h55q44 0 67 6q70 18 70 90q0 40 -27.5 67.5t-81.5 27.5q-60 0 -87.5 -35.5t-30.5 -80.5l-109 18q2 83 63 138.5t170 55.5q105 0 163.5 -48t58.5 -125q0 -57 -30 -95.5t-75 -59.5
q125 -48 125 -170q0 -90 -66 -148t-180 -58q-117 0 -177.5 56t-69.5 156z" />
    <glyph glyph-name="four" unicode="4" horiz-adv-x="575" 
d="M145 248h186v103q0 114 6 188h-1q-26 -54 -91 -149zM444 248h107v-99h-107v-149h-113v149h-312v89l310 442h115v-432z" />
    <glyph glyph-name="five" unicode="5" horiz-adv-x="563" 
d="M156 276l-107 24l52 380h393l-10 -106h-291l-24 -153q13 15 50 30.5t86 15.5q101 0 162 -62t61 -168q0 -108 -64.5 -178.5t-185.5 -70.5q-97 0 -162 46.5t-82 129.5l118 31q9 -47 41.5 -76t83.5 -29q63 0 94 38t31 103q0 63 -31.5 101t-94.5 38q-47 0 -77.5 -25
t-42.5 -69z" />
    <glyph glyph-name="six" unicode="6" horiz-adv-x="593" 
d="M540 506l-115 -24q-28 109 -119 109q-63 0 -97.5 -57t-36.5 -139q59 59 154 59t159 -57t64 -162q0 -112 -66.5 -179.5t-180.5 -67.5q-123 0 -190 85.5t-67 258.5q0 172 68.5 266t197.5 94q188 0 229 -186zM422 228q0 57 -31.5 89t-88.5 32q-45 0 -80.5 -21.5t-47.5 -44.5
q0 -46 10.5 -86.5t41 -73t76.5 -32.5q54 0 87 37t33 100z" />
    <glyph glyph-name="seven" unicode="7" horiz-adv-x="568" 
d="M300 0h-133q16 93 51 195q66 191 194 379h-269v-128h-113v234h519v-98q-206 -255 -249 -582z" />
    <glyph glyph-name="eight" unicode="8" horiz-adv-x="594" 
d="M297 -12q-119 0 -186.5 53.5t-67.5 147.5q0 117 116 160q-97 47 -97 155q0 83 63.5 135.5t171.5 52.5t171.5 -52.5t63.5 -135.5q0 -108 -97 -155q116 -43 116 -160q0 -94 -67.5 -147.5t-186.5 -53.5zM297 591q-59 0 -89 -27.5t-30 -68.5q0 -40 31 -69.5t88 -29.5t88 29.5
t31 69.5q0 41 -30 68.5t-89 27.5zM297 302q-63 0 -98 -28t-35 -75q0 -48 36 -77t97 -29q62 0 97.5 27t35.5 80q0 46 -35.5 74t-97.5 28z" />
    <glyph glyph-name="nine" unicode="9" horiz-adv-x="593" 
d="M53 174l115 24q28 -108 119 -108q63 0 97.5 56.5t36.5 138.5q-59 -59 -154 -59t-159 57t-64 162q0 112 66.5 179.5t180.5 67.5q123 0 190 -85.5t67 -258.5q0 -172 -68.5 -266t-197.5 -94q-101 0 -157.5 52t-71.5 134zM171 453q0 -57 31.5 -89t88.5 -32q45 0 80.5 21.5
t47.5 44.5q0 32 -6.5 63.5t-20 61.5t-40 48.5t-61.5 18.5q-54 0 -87 -37t-33 -100z" />
    <glyph glyph-name="colon" unicode=":" horiz-adv-x="246" 
d="M58 132h129v-132h-129v132zM59 476h129v-132h-129v132z" />
    <glyph glyph-name="semicolon" unicode=";" horiz-adv-x="247" 
d="M59 476h129v-132h-129v132zM59 131h129v-102q0 -25 -2 -57q-7 -60 -33.5 -89t-93.5 -31v65q30 2 43.5 17t13.5 54v12h-57v131z" />
    <glyph glyph-name="less" unicode="&#x3c;" 
d="M550 659v-111l-395 -196l395 -201v-111l-536 266v88z" />
    <glyph glyph-name="equal" unicode="=" 
d="M563 474v-88h-535v88h535zM563 308v-88h-535v88h535z" />
    <glyph glyph-name="greater" unicode="&#x3e;" 
d="M40 548v111l536 -265v-88l-536 -266v111l395 201z" />
    <glyph glyph-name="question" unicode="?" horiz-adv-x="491" 
d="M178 384l-129 19q-21 38 -21 92q0 81 58.5 137.5t157.5 56.5q107 0 162.5 -56t55.5 -138q0 -100 -88 -176l-33 -27q-35 -29 -47.5 -49t-12.5 -51v-32h-108v38q0 50 14 84t57 67l42 35q53 42 53 110q0 42 -25 67.5t-72 25.5t-72.5 -26.5t-25.5 -70.5q0 -52 34 -106z
M168 125h118v-125h-118v125z" />
    <glyph glyph-name="at" unicode="@" horiz-adv-x="828" 
d="M624 167q38 0 60.5 51t22.5 124q0 114 -68 194.5t-203 80.5q-145 0 -227 -93.5t-82 -220.5q0 -148 90 -234.5t225 -86.5q170 0 286 133l43 -64q-131 -143 -333 -143q-173 0 -286.5 102.5t-113.5 290.5q0 165 109.5 278t288.5 113q88 0 157 -29.5t110.5 -78.5t63 -108
t21.5 -122q0 -115 -45.5 -187.5t-138.5 -72.5q-37 0 -64 12t-32 33h-1q-45 -45 -123 -45q-62 0 -104 33t-42 98q0 58 37 87t109 42l90 16q17 3 22 7t5 16v6q0 52 -74 52q-85 0 -84 -72l-92 5q0 72 50 107.5t130 35.5q163 0 163 -123v-199q0 -38 30 -38zM500 254v49
q-8 -4 -36.5 -9.5t-37.5 -8.5q-26 -5 -37.5 -8t-26 -9.5t-20 -16t-5.5 -23.5q0 -57 72 -57q64 0 83 43q8 14 8 40z" />
    <glyph glyph-name="A" unicode="A" horiz-adv-x="615" 
d="M177 159l-54 -159h-120l237 680h136l235 -680h-124l-53 159h-257zM400 261l-46 155l-48 161h-1l-50 -169l-45 -147h190z" />
    <glyph glyph-name="B" unicode="B" horiz-adv-x="650" 
d="M360 0h-282v680h267q103 0 153 -25q89 -44 89 -152q0 -50 -25 -87.5t-65 -55.5q50 -20 81.5 -62.5t31.5 -103.5q0 -114 -93 -165q-50 -29 -157 -29zM198 304v-198h143q78 0 108 17q41 26 41 82t-41 82q-27 17 -108 17h-143zM469 489q0 26 -12.5 46t-33.5 29
q-25 12 -87 12h-138v-175h138h10q63 0 86 15q37 24 37 73z" />
    <glyph glyph-name="C" unicode="C" horiz-adv-x="663" 
d="M528 204l114 -48q-14 -28 -34 -53.5t-53 -53.5t-82.5 -44.5t-108.5 -16.5q-153 0 -238.5 96.5t-85.5 255.5q0 157 88 254.5t236 97.5q177 0 271 -156l-105 -65q-52 113 -166 113q-89 0 -140.5 -66t-51.5 -178t50.5 -176.5t141.5 -64.5q114 0 164 105z" />
    <glyph glyph-name="D" unicode="D" horiz-adv-x="685" 
d="M199 569v-460h79q47 0 72 1.5t54.5 11t49.5 28.5q26 26 43.5 77t17.5 111q0 131 -70 191q-28 25 -67.5 32.5t-112.5 7.5h-66zM265 0h-187v680h190q98 0 149.5 -8t98.5 -40q58 -43 92.5 -118t34.5 -172q0 -178 -99 -271q-21 -21 -46 -35t-45.5 -21t-57 -10.5t-58.5 -4
t-72 -0.5z" />
    <glyph glyph-name="E" unicode="E" horiz-adv-x="613" 
d="M554 573h-358v-168h325v-107h-325v-191h383v-107h-501v680h476v-107z" />
    <glyph glyph-name="F" unicode="F" horiz-adv-x="549" 
d="M516 573h-318v-177h305v-107h-305v-289h-120v680h438v-107z" />
    <glyph glyph-name="G" unicode="G" horiz-adv-x="699" 
d="M41 340q0 158 85.5 255t237.5 97q181 0 274 -156l-105 -65q-52 113 -168 113q-89 0 -140.5 -66t-51.5 -178t52.5 -178.5t141.5 -66.5q160 0 168 168h-204v109h316v-372h-114v52q-71 -64 -179 -64q-145 0 -229 97t-84 255z" />
    <glyph glyph-name="H" unicode="H" horiz-adv-x="700" 
d="M502 298h-304v-298h-120v680h120v-275h304v275h120v-680h-120v298z" />
    <glyph glyph-name="I" unicode="I" horiz-adv-x="276" 
d="M198 680v-680h-120v680h120z" />
    <glyph glyph-name="J" unicode="J" horiz-adv-x="379" 
d="M186 680h120v-477q0 -103 -29 -143q-26 -36 -76 -54t-108 -18q-51 0 -76 7v107q27 -6 60 -6q60 0 85 27q24 29 24 111v446z" />
    <glyph glyph-name="K" unicode="K" horiz-adv-x="661" 
d="M380 399l283 -399h-153l-220 311l-92 -91v-220h-120v680h120v-311l297 311h162z" />
    <glyph glyph-name="L" unicode="L" horiz-adv-x="509" 
d="M78 680h121v-570h292v-110h-413v680z" />
    <glyph glyph-name="M" unicode="M" horiz-adv-x="806" 
d="M463 0h-120l-100 362q-31 111 -53 218h-2q6 -64 6 -285v-295h-116v680h178l107 -376q16 -54 40 -160h2q6 30 43 161l102 375h178v-680h-116v288q0 146 8 298h-2q-12 -71 -60 -247z" />
    <glyph glyph-name="N" unicode="N" horiz-adv-x="696" 
d="M190 680l184 -276q88 -134 130 -206h1q-6 80 -6 254v228h119v-680h-112l-193 295q-37 56 -119 194h-1q0 -4 2 -103t2 -159v-227h-119v680h112z" />
    <glyph glyph-name="O" unicode="O" horiz-adv-x="724" 
d="M40 340q0 157 88 254.5t234 97.5t234 -97.5t88 -254.5q0 -159 -84.5 -255.5t-237.5 -96.5q-151 0 -236.5 97t-85.5 255zM171 340q0 -112 51 -177.5t140 -65.5t140 65.5t51 177.5t-51 178.5t-140 66.5t-140 -66.5t-51 -178.5z" />
    <glyph glyph-name="P" unicode="P" horiz-adv-x="613" 
d="M198 574v-201h124q66 0 95 13q49 24 49 88q0 63 -49 87q-29 13 -95 13h-124zM78 0v680h227q77 0 129 -9.5t89 -41.5q67 -56 67 -155q0 -102 -67 -158q-37 -32 -89 -41.5t-129 -9.5h-107v-265h-120z" />
    <glyph glyph-name="Q" unicode="Q" horiz-adv-x="737" 
d="M40 340q0 157 88 254.5t234 97.5t234 -97.5t88 -254.5q0 -120 -49 -206l77 -75l-88 -87l-70 72q-79 -56 -192 -56q-151 0 -236.5 97t-85.5 255zM171 340q0 -112 51 -177.5t140 -65.5t140 65.5t51 177.5t-51 178.5t-140 66.5t-140 -66.5t-51 -178.5z" />
    <glyph glyph-name="R" unicode="R" horiz-adv-x="645" 
d="M321 272h-123v-272h-120v680h249q39 0 61 -1t54 -8.5t56 -21.5q97 -57 97 -174q0 -108 -90 -167q-3 -2 -53 -24l170 -284h-143zM198 574v-194h129q66 0 96 13q48 23 48 85q0 63 -48 83q-30 13 -96 13h-129z" />
    <glyph glyph-name="S" unicode="S" horiz-adv-x="622" 
d="M572 579l-91 -74q-68 82 -176 82q-58 0 -91.5 -25.5t-33.5 -65.5q0 -37 24.5 -55t85.5 -31l82 -18q109 -25 164 -66.5t55 -127.5q0 -95 -73.5 -152.5t-199.5 -57.5q-103 0 -179 41t-117 98l100 72q27 -42 81 -73t121 -31t102.5 25t35.5 67q0 37 -29 56t-87 32l-91 20
q-95 21 -149.5 65t-54.5 130q0 92 72.5 147t185.5 55q155 0 263 -113z" />
    <glyph glyph-name="T" unicode="T" horiz-adv-x="549" 
d="M16 573v107h517v-107h-198v-573h-120v573h-199z" />
    <glyph glyph-name="U" unicode="U" horiz-adv-x="672" 
d="M336 99q97 0 130 70q15 38 15 115v396h119v-398q0 -124 -35 -188q-64 -106 -229 -106t-229 106q-35 64 -35 188v398h119v-396q0 -84 15 -115q33 -70 130 -70z" />
    <glyph glyph-name="V" unicode="V" horiz-adv-x="595" 
d="M137 680l119 -395q13 -40 41 -149h2q24 85 45 154l121 390h124l-220 -680h-147l-211 680h126z" />
    <glyph glyph-name="W" unicode="W" horiz-adv-x="871" 
d="M502 680l94 -446q18 -70 18 -99l19 105l89 440h124l-151 -680h-156l-79 356l-17 92l-7 48l-11 -48l-17 -92l-76 -356h-158l-148 680h128l84 -445q2 -8 7 -41.5t10 -53.5q2 9 9 44t11 51l93 445h134z" />
    <glyph glyph-name="X" unicode="X" horiz-adv-x="647" 
d="M396 355l249 -355h-146l-177 261l-184 -261h-137l251 346l-241 334h151l167 -241l165 241h144z" />
    <glyph glyph-name="Y" unicode="Y" horiz-adv-x="622" 
d="M369 278v-278h-120v278l-247 402h139l174 -291l177 291h138z" />
    <glyph glyph-name="Z" unicode="Z" horiz-adv-x="575" 
d="M541 109v-109h-512v99l360 473h-343v108h493v-98l-358 -473h360z" />
    <glyph glyph-name="bracketleft" unicode="[" horiz-adv-x="313" 
d="M284 -73v-86h-206v839h206v-85h-93v-668h93z" />
    <glyph glyph-name="backslash" unicode="\" horiz-adv-x="514" 
d="M19 680h116l361 -680h-117z" />
    <glyph glyph-name="bracketright" unicode="]" horiz-adv-x="313" 
d="M29 -159v86h93v668h-93v85h206v-839h-206z" />
    <glyph glyph-name="asciicircum" unicode="^" horiz-adv-x="499" 
d="M297 680l172 -357h-119l-99 214l-99 -214h-122l178 357h89z" />
    <glyph glyph-name="underscore" unicode="_" horiz-adv-x="527" 
d="M531 -66v-100h-535v100h535z" />
    <glyph glyph-name="grave" unicode="`" horiz-adv-x="500" 
d="M141 680h135l64 -128h-98z" />
    <glyph glyph-name="a" unicode="a" horiz-adv-x="516" 
d="M450 340v-235q0 -22 5.5 -30.5t22.5 -8.5h7v-69q-26 -6 -58 -6q-68 0 -79 49q-52 -52 -143 -52q-78 0 -124 37t-46 108q0 34 11 58.5t28 40.5t49.5 28t62.5 19t80 15l36 6q22 4 30 10.5t8 21.5v4q0 61 -86 61q-94 0 -96 -81l-107 3q0 84 57 124.5t151 40.5
q191 0 191 -144zM234 73q47 0 76.5 24.5t29.5 72.5v59q-22 -10 -41 -14l-65 -13q-44 -9 -63 -23.5t-19 -42.5q0 -63 82 -63z" />
    <glyph glyph-name="b" unicode="b" horiz-adv-x="570" 
d="M322 -12q-88 0 -140 62v-50h-114v680h114v-256q49 64 140 64q95 0 153 -70t58 -182q0 -109 -58.5 -178.5t-152.5 -69.5zM177 238q0 -69 33.5 -110t87.5 -41q55 0 88 40t33 111t-33 111.5t-88 40.5q-54 0 -87.5 -41.5t-33.5 -110.5z" />
    <glyph glyph-name="c" unicode="c" horiz-adv-x="504" 
d="M479 353l-95 -50q-29 86 -111 86q-58 0 -91 -40t-33 -111t33 -111t91 -40q82 0 114 81l92 -49q-20 -49 -73.5 -90t-135.5 -41q-107 0 -170.5 65t-63.5 183q0 117 66 184t168 67q79 0 132.5 -37t76.5 -97z" />
    <glyph glyph-name="d" unicode="d" horiz-adv-x="570" 
d="M248 -12q-94 0 -152.5 69.5t-58.5 178.5q0 111 58 181t153 70q91 0 140 -63v256h114v-680h-114v50q-52 -62 -140 -62zM393 238q0 69 -33.5 110t-87.5 41q-55 0 -88 -40t-33 -111t33 -111t88 -40q54 0 87.5 41t33.5 110z" />
    <glyph glyph-name="e" unicode="e" horiz-adv-x="533" 
d="M417 168l79 -60q-80 -120 -224 -120q-106 0 -171.5 69t-65.5 185q0 109 66.5 177t167.5 68q110 0 167.5 -68t57.5 -183q0 -4 -0.5 -14.5t-0.5 -14.5h-347q7 -52 40 -86.5t92 -34.5q30 0 55 8.5t42.5 24.5t24.5 25t17 24zM269 396q-53 0 -85.5 -30t-34.5 -74h232
q-2 47 -32.5 75.5t-79.5 28.5z" />
    <glyph glyph-name="f" unicode="f" horiz-adv-x="345" 
d="M330 476v-89h-114v-387h-114v387h-84v89h84v59q0 53 14 89q28 66 139 66q47 0 75 -5v-92q-26 2 -41 2q-49 0 -63 -19q-10 -13 -10 -50v-50h114z" />
    <glyph glyph-name="g" unicode="g" horiz-adv-x="571" 
d="M49 -32l116 9q4 -40 27.5 -63t79.5 -23q65 0 91.5 28.5t26.5 96.5v45h-1q-49 -63 -141 -63q-96 0 -153 65t-57 174q0 113 55.5 181.5t153.5 68.5q93 0 142 -63v52h114v-449q0 -72 -15 -114q-23 -59 -76.5 -85t-143.5 -26q-108 0 -162 43t-57 123zM394 241q0 69 -32 108.5
t-89 39.5q-58 0 -89.5 -38t-31.5 -110t31.5 -109.5t89.5 -37.5q57 0 89 39t32 108z" />
    <glyph glyph-name="h" unicode="h" horiz-adv-x="555" 
d="M493 269v-269h-114v240q0 64 -8 91q-17 55 -84 55q-52 0 -78.5 -36t-26.5 -96v-254h-114v680h114v-266q18 33 56.5 53t91.5 20q87 0 131 -59q32 -47 32 -159z" />
    <glyph glyph-name="i" unicode="i" horiz-adv-x="250" 
d="M182 476v-476h-114v476h114zM182 680v-116h-114v116h114z" />
    <glyph glyph-name="j" unicode="j" horiz-adv-x="258" 
d="M76 476h114v-522q0 -64 -9 -86q-27 -67 -151 -67q-16 0 -31 1v95q47 0 62 12t15 45v522zM190 680v-116h-114v116h114z" />
    <glyph glyph-name="k" unicode="k" horiz-adv-x="532" 
d="M68 680h114v-399l192 195h147l-188 -185l205 -291h-142l-144 213l-70 -64v-149h-114v680z" />
    <glyph glyph-name="l" unicode="l" horiz-adv-x="250" 
d="M182 680v-680h-114v680h114z" />
    <glyph glyph-name="m" unicode="m" horiz-adv-x="862" 
d="M449 441q8 -9 20 -28q63 74 163 74q85 0 126 -46q23 -27 32.5 -62t9.5 -110v-269h-114v240q0 76 -17 111t-75 35q-52 0 -77.5 -35.5t-25.5 -96.5v-254h-114v240q0 76 -17 111t-75 35q-51 0 -77 -36t-26 -96v-254h-114v476h114v-62q42 73 149 73q76 0 118 -46z" />
    <glyph glyph-name="n" unicode="n" horiz-adv-x="555" 
d="M493 269v-269h-114v240q0 64 -8 91q-17 55 -84 55q-52 0 -78.5 -36t-26.5 -96v-254h-114v476h114v-62q18 33 56.5 53t91.5 20q87 0 131 -59q32 -47 32 -159z" />
    <glyph glyph-name="o" unicode="o" horiz-adv-x="548" 
d="M36 236q0 115 65 183t173 68t173 -68t65 -183q0 -114 -64 -181t-174 -67t-174 67t-64 181zM149 238q0 -71 34.5 -111.5t90.5 -40.5t90.5 41t34.5 111q0 71 -33.5 111.5t-91.5 40.5t-91.5 -40.5t-33.5 -111.5z" />
    <glyph glyph-name="p" unicode="p" horiz-adv-x="570" 
d="M322 -12q-88 0 -140 62v-240h-114v666h114v-53q49 64 140 64q96 0 153.5 -68t57.5 -183q0 -109 -58.5 -178.5t-152.5 -69.5zM177 238q0 -69 33.5 -110t87.5 -41q55 0 88 40t33 111t-33 111t-88 40q-54 0 -87.5 -41t-33.5 -110z" />
    <glyph glyph-name="q" unicode="q" horiz-adv-x="570" 
d="M248 -12q-94 0 -152.5 69.5t-58.5 178.5q0 111 58 181t153 70q91 0 140 -64v53h114v-666h-114v240q-52 -62 -140 -62zM393 238q0 69 -33.5 110t-87.5 41q-55 0 -88 -40t-33 -111t33 -111t88 -40q54 0 87.5 41t33.5 110z" />
    <glyph glyph-name="r" unicode="r" horiz-adv-x="358" 
d="M68 476h114v-70q9 27 44 54t95 27q7 0 18 -1v-116q-22 2 -32 2q-87 0 -112 -64q-13 -35 -13 -94v-214h-114v476z" />
    <glyph glyph-name="s" unicode="s" horiz-adv-x="483" 
d="M436 412l-66 -71q-55 53 -134 53q-35 0 -56.5 -12t-21.5 -34q0 -23 20.5 -33t79.5 -22l57 -13q64 -14 100.5 -43t36.5 -88q0 -77 -60.5 -119t-147.5 -42q-78 0 -135 29.5t-85 67.5l77 68q53 -71 146 -71q90 0 90 54q0 16 -10 25.5t-21.5 13t-41.5 10.5l-71 15
q-70 16 -109 48t-39 92q0 72 57.5 109.5t134.5 37.5q65 0 118.5 -22.5t80.5 -52.5z" />
    <glyph glyph-name="t" unicode="t" horiz-adv-x="372" 
d="M342 86v-90q-37 -8 -85 -8q-85 0 -120 41q-13 16 -16.5 36t-3.5 60v262h-102v89h102v166l114 25v-191h111v-89h-111v-243q0 -36 13 -49q11 -13 48 -13q34 0 50 4z" />
    <glyph glyph-name="u" unicode="u" horiz-adv-x="545" 
d="M62 173v303h114v-265q0 -61 18.5 -91.5t67.5 -30.5q52 0 76.5 35.5t24.5 95.5v256h114v-476h-114v61q-19 -32 -55.5 -52.5t-87.5 -20.5q-28 0 -52.5 7t-50 25t-40.5 57t-15 96z" />
    <glyph glyph-name="v" unicode="v" horiz-adv-x="458" 
d="M328 476h117l-157 -476h-119l-155 476h118l73 -247l19 -66l7 -29h1l7 29q6 29 18 69z" />
    <glyph glyph-name="w" unicode="w" horiz-adv-x="713" 
d="M444 0l-50 182q-25 89 -36 159h-1q-36 -156 -38 -161l-53 -180h-113l-137 476h116l56 -210q26 -103 32 -134h1q12 61 32 137l55 207h101l55 -210q27 -102 32 -134h1q5 27 33 137l56 207h114l-145 -476h-111z" />
    <glyph glyph-name="x" unicode="x" horiz-adv-x="477" 
d="M325 476h130l-148 -224l164 -252h-131l-104 161l-101 -161h-129l164 252l-148 224h134l86 -140z" />
    <glyph glyph-name="y" unicode="y" horiz-adv-x="458" 
d="M326 476h112l-159 -533q-23 -75 -50 -104q-34 -37 -111 -37q-32 0 -62 6v93q20 -5 39 -5q35 0 50.5 14t25.5 46l8 29l-171 491h121l78 -257q7 -22 18 -65l8 -33h1q5 24 7 32q7 33 17 66z" />
    <glyph glyph-name="z" unicode="z" horiz-adv-x="476" 
d="M43 476h395v-89l-254 -287h254v-100h-404v88l258 288h-249v100z" />
    <glyph glyph-name="braceleft" unicode="{" horiz-adv-x="310" 
d="M32 227v74q19 6 30 13t16 20.5t6 25.5t1 38v127q0 97 33.5 126t138.5 29h16v-83q-46 0 -60.5 -16t-14.5 -61v-92q0 -83 -10 -116t-46 -47v-2q36 -14 46 -47t10 -116v-99q0 -45 14.5 -61t60.5 -16v-83h-16q-105 0 -138.5 29t-33.5 126v134q0 26 -1 38t-6 25.5t-16 20.5
t-30 13z" />
    <glyph glyph-name="bar" unicode="|" horiz-adv-x="269" 
d="M78 -158v838h113v-838h-113z" />
    <glyph glyph-name="braceright" unicode="}" horiz-adv-x="310" 
d="M278 301v-74q-19 -6 -30 -13t-16 -20.5t-6 -25.5t-1 -38v-134q0 -97 -34 -126t-138 -29h-16v83q46 0 60.5 16t14.5 61v99q0 83 10 116t46 47v2q-36 14 -46 47t-10 116v92q0 45 -14.5 61t-60.5 16v83h16q104 0 138 -29t34 -126v-127q0 -26 1 -38t6 -25.5t16 -20.5t30 -13z
" />
    <glyph glyph-name="asciitilde" unicode="~" 
d="M500 367l47 -68q-66 -84 -149 -84q-46 0 -110 33l-20 10q-45 25 -78 25q-24 0 -44 -11.5t-50 -47.5l-50 68q17 30 60 59t94 29q47 0 101 -32l18 -10q48 -25 79 -25q55 0 102 54z" />
    <glyph glyph-name="nbspace" unicode="&#xa0;" horiz-adv-x="220" 
 />
    <glyph glyph-name="exclamdown" unicode="&#xa1;" horiz-adv-x="255" 
d="M172 302l12 -196v-310h-113v310l14 196h87zM188 349h-122v127h122v-127z" />
    <glyph glyph-name="cent" unicode="&#xa2;" 
d="M428 179l95 -51q-15 -43 -57 -83t-108 -52v-106h-98v105q-86 15 -135 77.5t-49 166.5q0 101 50.5 165.5t133.5 80.5v98h98v-97q63 -11 104.5 -47.5t59.5 -90.5l-98 -49q-17 62 -66 84v-285q50 19 70 84zM189 238q0 -106 71 -140v280q-71 -32 -71 -140z" />
    <glyph glyph-name="sterling" unicode="&#xa3;" 
d="M540 488l-110 -20q-5 119 -88 119q-81 0 -81 -117q0 -39 3 -75h141v-101h-135q2 -38 2 -62q0 -96 -44 -125v-1h35q10 0 40 0.5t50 0.5h172v-107h-470v100q58 4 80 30t22 101q0 50 -2 63h-100v101h92q-2 46 -2 78q0 99 46 159t150 60q94 0 146.5 -53.5t52.5 -150.5z" />
    <glyph glyph-name="currency" unicode="&#xa4;" horiz-adv-x="559" 
d="M75 281q0 55 27 104l-27 26l-36 34l79 79l61 -62q43 25 101 25q59 0 103 -24l59 59l77 -77l-59 -60q25 -43 25 -104q0 -59 -24 -103l59 -57l-78 -78l-59 59q-46 -25 -103 -25q-62 0 -103 25l-60 -60l-78 78l61 60q-25 44 -25 101zM172 281q0 -46 31.5 -78t76.5 -32
q46 0 77.5 32t31.5 78t-31 78.5t-78 32.5q-45 0 -76.5 -32.5t-31.5 -78.5z" />
    <glyph glyph-name="yen" unicode="&#xa5;" 
d="M57 273v95h136l-185 312h131l160 -280l152 280h131l-183 -312h134v-95h-179v-62h179v-95h-179v-116h-116v116h-181v95h181v62h-181z" />
    <glyph glyph-name="brokenbar" unicode="&#xa6;" horiz-adv-x="269" 
d="M78 356v324h113v-324h-113zM78 -158v324h113v-324h-113z" />
    <glyph glyph-name="section" unicode="&#xa7;" horiz-adv-x="517" 
d="M235 262l82 -32q42 20 42 58q0 22 -15 35t-48 27l-41 18q-3 2 -46 18q-23 -6 -36 -21t-13 -33q0 -25 17.5 -39.5t57.5 -30.5zM194 554q0 -22 17 -35t62 -33l69 -30q31 -14 50 -24.5t40 -28t31.5 -40.5t10.5 -52q0 -47 -21 -76.5t-56 -54.5q61 -46 61 -105q0 -78 -60 -120
t-150 -42q-76 0 -133.5 30t-84.5 67l79 69q53 -72 142 -72q94 0 94 59q0 41 -80 70l-76 29q-70 27 -105.5 61.5t-35.5 93.5q0 43 25.5 73t61.5 44q-57 41 -57 107q0 72 58 110t135 38q65 0 117 -23.5t80 -53.5l-66 -71q-57 55 -134 55q-34 0 -54 -12t-20 -33z" />
    <glyph glyph-name="dieresis" unicode="&#xa8;" horiz-adv-x="500" 
d="M105 560v109h108v-109h-108zM289 560v109h108v-109h-108z" />
    <glyph glyph-name="copyright" unicode="&#xa9;" horiz-adv-x="778" 
d="M481 272l68 -34q-16 -36 -55 -66.5t-100 -30.5q-87 0 -135 54t-48 143q0 88 50 142.5t133 54.5q100 0 153 -89l-65 -45q-30 64 -88 64q-47 0 -73 -34.5t-26 -92.5t26 -91.5t73 -33.5q57 0 87 59zM740 340q0 -149 -100.5 -250.5t-250.5 -101.5t-250.5 101.5t-100.5 250.5
q0 150 100.5 251t250.5 101t250.5 -101t100.5 -251zM657 340q0 114 -77.5 193.5t-190.5 79.5t-190.5 -79.5t-77.5 -193.5q0 -113 77.5 -193t190.5 -80t190.5 80t77.5 193z" />
    <glyph glyph-name="ordfeminine" unicode="&#xaa;" horiz-adv-x="381" 
d="M176 434q54 0 54 55v30q-9 -5 -26 -8l-16 -4q-31 -6 -43.5 -14t-12.5 -24q0 -35 44 -35zM134 577l-80 2q0 54 36.5 80t98.5 26q81 0 109 -40q16 -25 16 -77v-115q0 -13 3.5 -17t13.5 -4v-52q-9 -3 -35 -3q-48 0 -59 28q-31 -29 -88 -29q-49 0 -77.5 23t-28.5 68
q0 49 34.5 68.5t110.5 30.5l21 3q13 2 17 6t4 15q0 35 -45 35q-51 0 -51 -48z" />
    <glyph glyph-name="guillemotleft" unicode="&#xab;" horiz-adv-x="466" 
d="M206 22l-162 136v145l162 139v-132l-95 -76l95 -82v-130zM410 22l-162 136v145l162 139v-132l-95 -76l95 -82v-130z" />
    <glyph glyph-name="logicalnot" unicode="&#xac;" 
d="M509 474v-276h-114v180h-342v96h456z" />
    <glyph glyph-name="uni00AD" unicode="&#xad;" horiz-adv-x="403" 
d="M344 214h-285v108h285v-108z" />
    <glyph glyph-name="registered" unicode="&#xae;" horiz-adv-x="778" 
d="M740 340q0 -149 -100.5 -250.5t-250.5 -101.5t-250.5 101.5t-100.5 250.5q0 150 100.5 251t250.5 101t250.5 -101t100.5 -251zM657 340q0 114 -77.5 193.5t-190.5 79.5t-190.5 -79.5t-77.5 -193.5q0 -113 77.5 -193t190.5 -80t190.5 80t77.5 193zM311 297v-135h-78v379
h167q53 0 81 -14q70 -34 70 -108q0 -89 -89 -117l102 -140h-99l-95 135h-59zM311 370h79q43 0 58 7q24 12 24 42q0 31 -24 42q-13 6 -58 6h-79v-97z" />
    <glyph glyph-name="macron" unicode="&#xaf;" horiz-adv-x="500" 
d="M104 567v93h292v-93h-292z" />
    <glyph glyph-name="degree" unicode="&#xb0;" horiz-adv-x="434" 
d="M35 510q0 76 53 129t129 53t129 -53t53 -129t-53 -129t-129 -53t-129 53t-53 129zM141 510q0 -39 20.5 -62.5t55.5 -23.5t55.5 23.5t20.5 62.5t-20.5 62.5t-55.5 23.5t-55.5 -23.5t-20.5 -62.5z" />
    <glyph glyph-name="plusminus" unicode="&#xb1;" 
d="M571 75h-552v106h552v-106zM349 368v-157h-107v157h-223v106h223v188h107v-188h222v-106h-222z" />
    <glyph glyph-name="twosuperior" unicode="&#xb2;" horiz-adv-x="365" 
d="M129 623l-89 10q-10 24 -10 48q0 58 42.5 95t110.5 37q67 0 107.5 -37t40.5 -97q0 -33 -13.5 -64t-40 -59.5t-49 -47.5t-56.5 -44l-8 -6h176v-74h-315v62q48 30 130 103q30 27 43.5 41t25.5 37t12 48q0 60 -56 60q-29 0 -44.5 -17.5t-15.5 -45.5q0 -20 9 -49z" />
    <glyph glyph-name="threesuperior" unicode="&#xb3;" horiz-adv-x="365" 
d="M20 514l87 12q11 -79 72 -79q33 0 50 18t17 43q0 35 -20 48t-70 13h-34v69h40q75 0 75 54q0 21 -14.5 35.5t-43.5 14.5q-31 0 -48 -18.5t-19 -48.5l-81 12q0 54 41 90t110 36q68 0 106 -30.5t38 -79.5q0 -63 -59 -95q71 -28 71 -101q0 -58 -42.5 -94t-115.5 -36
q-149 0 -160 137z" />
    <glyph glyph-name="acute" unicode="&#xb4;" horiz-adv-x="500" 
d="M216 680h135l-101 -128h-98z" />
    <glyph glyph-name="mu" unicode="&#xb5;" horiz-adv-x="557" 
d="M71 476h114v-265q0 -62 18.5 -93t67.5 -31q51 0 76 36t25 97v256h114v-476h-114v61q-39 -71 -124 -71q-33 0 -63 18v-198h-114v666z" />
    <glyph glyph-name="paragraph" unicode="&#xb6;" horiz-adv-x="630" 
d="M262 -128v425h-8q-114 0 -165 43q-64 49 -64 148q0 95 64 147q55 45 165 45h339v-83h-71v-725h-85v725h-87v-725h-88z" />
    <glyph glyph-name="periodcentered" unicode="&#xb7;" horiz-adv-x="245" 
d="M59 335h129v-132h-129v132z" />
    <glyph glyph-name="cedilla" unicode="&#xb8;" horiz-adv-x="500" 
d="M230 3h58l-38 -36q37 -1 60 -20t23 -56q0 -42 -30.5 -65.5t-72.5 -23.5q-30 0 -56 12l15 46q17 -7 38 -7q18 0 29.5 8.5t11.5 23.5q0 31 -40 31q-18 0 -37 -10l-23 42z" />
    <glyph glyph-name="onesuperior" unicode="&#xb9;" horiz-adv-x="259" 
d="M212 806v-422h-88v267h-109v66h28q40 0 63 17q27 20 29 72h77z" />
    <glyph glyph-name="ordmasculine" unicode="&#xba;" horiz-adv-x="389" 
d="M38 530q0 74 42.5 115t113.5 41t114 -41t43 -115q0 -73 -43 -113.5t-114 -40.5t-113.5 40t-42.5 114zM130 531q0 -86 64 -86q65 0 65 86q0 87 -65 87q-64 0 -64 -87z" />
    <glyph glyph-name="guillemotright" unicode="&#xbb;" horiz-adv-x="466" 
d="M218 158l-162 -136v130l95 82l-95 76v132l162 -139v-145zM422 158l-162 -136v130l95 82l-95 76v132l162 -139v-145z" />
    <glyph glyph-name="onequarter" unicode="&#xbc;" horiz-adv-x="765" 
d="M735 109h-60v-109h-81v109h-201v52l195 263h87v-246h60v-69zM492 178h102v44q0 18 0.5 52.5t0.5 42.5h-2q-21 -33 -36 -52l-29 -38q-6 -7 -18 -23l-18 -24v-2zM224 680v-422h-88v267h-109v66h28q40 0 63 17q27 20 29 72h77zM505 680h105l-405 -680h-105z" />
    <glyph glyph-name="onehalf" unicode="&#xbd;" horiz-adv-x="813" 
d="M224 680v-422h-88v267h-109v66h28q40 0 63 17q27 20 29 72h77zM566 239l-89 10q-10 24 -10 48q0 58 42.5 95t110.5 37q67 0 107.5 -37t40.5 -97q0 -33 -13.5 -64t-40 -59.5t-49 -47.5t-56.5 -44l-8 -6h176v-74h-315v62q48 30 130 103q30 27 43.5 41t25.5 37t12 48
q0 60 -56 60q-29 0 -44.5 -17.5t-15.5 -45.5q0 -20 9 -49zM505 680h105l-405 -680h-105z" />
    <glyph glyph-name="threequarters" unicode="&#xbe;" horiz-adv-x="855" 
d="M31 389l87 12q11 -79 72 -79q33 0 50 18t17 43q0 35 -20 48t-70 13h-34v69h40q75 0 75 54q0 21 -14.5 35.5t-43.5 14.5q-31 0 -48 -18.5t-19 -48.5l-81 12q0 54 41 90t110 36q68 0 106 -30.5t38 -79.5q0 -63 -59 -95q71 -28 71 -101q0 -58 -42.5 -94t-115.5 -36
q-149 0 -160 137zM827 109h-60v-109h-81v109h-201v52l195 263h87v-246h60v-69zM584 178h102v44q0 18 0.5 52.5t0.5 42.5h-2q-21 -33 -36 -52l-29 -38q-6 -7 -18 -23l-18 -24v-2zM597 680h105l-405 -680h-105z" />
    <glyph glyph-name="questiondown" unicode="&#xbf;" horiz-adv-x="484" 
d="M309 92l129 -19q21 -38 21 -92q0 -81 -58.5 -137.5t-157.5 -56.5q-107 0 -162.5 56t-55.5 138q0 100 88 176l33 27q36 30 48 49t12 51v32h108v-38q0 -50 -14 -83t-57 -68l-42 -35q-53 -42 -53 -110q0 -42 25 -67.5t72 -25.5t72.5 26.5t25.5 70.5q0 52 -34 106zM319 351
h-118v125h118v-125z" />
    <glyph glyph-name="Agrave" unicode="&#xc0;" horiz-adv-x="615" 
d="M177 159l-54 -159h-120l237 680h136l235 -680h-124l-53 159h-257zM400 261l-46 155l-48 161h-1l-50 -169l-45 -147h190zM146 889h140l67 -145h-98z" />
    <glyph glyph-name="Aacute" unicode="&#xc1;" horiz-adv-x="615" 
d="M177 159l-54 -159h-120l237 680h136l235 -680h-124l-53 159h-257zM400 261l-46 155l-48 161h-1l-50 -169l-45 -147h190zM312 889h140l-109 -145h-98z" />
    <glyph glyph-name="Acircumflex" unicode="&#xc2;" horiz-adv-x="615" 
d="M177 159l-54 -159h-120l237 680h136l235 -680h-124l-53 159h-257zM400 261l-46 155l-48 161h-1l-50 -169l-45 -147h190zM304 801l-51 -50h-104l118 128h76l119 -128h-105z" />
    <glyph glyph-name="Atilde" unicode="&#xc3;" horiz-adv-x="615" 
d="M177 159l-54 -159h-120l237 680h136l235 -680h-124l-53 159h-257zM400 261l-46 155l-48 161h-1l-50 -169l-45 -147h190zM403 868l69 -24q-31 -99 -105 -99q-31 0 -69 18l-12 6q-31 18 -47 18q-23 0 -34 -42l-67 23q27 100 101 100q32 0 70 -19l12 -6q31 -18 46 -18
q23 0 36 43z" />
    <glyph glyph-name="Adieresis" unicode="&#xc4;" horiz-adv-x="615" 
d="M177 159l-54 -159h-120l237 680h136l235 -680h-124l-53 159h-257zM400 261l-46 155l-48 161h-1l-50 -169l-45 -147h190zM160 762v109h108v-109h-108zM344 762v109h108v-109h-108z" />
    <glyph glyph-name="Aring" unicode="&#xc5;" horiz-adv-x="615" 
d="M177 159l-54 -159h-120l237 680h136l235 -680h-124l-53 159h-257zM400 261l-46 155l-48 161h-1l-50 -169l-45 -147h190zM208 807q0 42 28.5 70t70.5 28t70.5 -28t28.5 -70t-28.5 -70t-70.5 -28t-70.5 28t-28.5 70zM267 807q0 -17 11.5 -28t27.5 -11t27.5 11t11.5 28
t-11.5 28t-27.5 11t-27.5 -11t-11.5 -28z" />
    <glyph glyph-name="AE" unicode="&#xc6;" horiz-adv-x="954" 
d="M382 680h514v-107h-330v-168h299v-107h-299v-191h352v-107h-472v164h-243l-97 -164h-128zM446 261l1 134q2 178 2 198h-2q-11 -22 -67 -120l-122 -212h188z" />
    <glyph glyph-name="Ccedilla" unicode="&#xc7;" horiz-adv-x="663" 
d="M528 204l114 -48q-13 -26 -31 -49.5t-47.5 -50t-72.5 -44.5t-94 -22l-23 -23q37 -1 60 -20t23 -56q0 -42 -30.5 -65.5t-72.5 -23.5q-30 0 -56 12l15 46q17 -7 38 -7q18 0 29.5 8.5t11.5 23.5q0 31 -40 31q-18 0 -37 -10l-23 42l46 41q-142 8 -220 104t-78 247
q0 157 88 254.5t236 97.5q177 0 271 -156l-105 -65q-52 113 -166 113q-89 0 -140.5 -66t-51.5 -178t50.5 -176.5t141.5 -64.5q114 0 164 105z" />
    <glyph glyph-name="Egrave" unicode="&#xc8;" horiz-adv-x="613" 
d="M554 573h-358v-168h325v-107h-325v-191h383v-107h-501v680h476v-107zM190 889h140l67 -145h-98z" />
    <glyph glyph-name="Eacute" unicode="&#xc9;" horiz-adv-x="613" 
d="M554 573h-358v-168h325v-107h-325v-191h383v-107h-501v680h476v-107zM319 889h140l-109 -145h-98z" />
    <glyph glyph-name="Ecircumflex" unicode="&#xca;" horiz-adv-x="613" 
d="M554 573h-358v-168h325v-107h-325v-191h383v-107h-501v680h476v-107zM321 801l-51 -50h-104l118 128h76l119 -128h-105z" />
    <glyph glyph-name="Edieresis" unicode="&#xcb;" horiz-adv-x="613" 
d="M554 573h-358v-168h325v-107h-325v-191h383v-107h-501v680h476v-107zM180 762v109h108v-109h-108zM364 762v109h108v-109h-108z" />
    <glyph glyph-name="Igrave" unicode="&#xcc;" horiz-adv-x="276" 
d="M198 680v-680h-120v680h120zM-6 889h140l67 -145h-98z" />
    <glyph glyph-name="Iacute" unicode="&#xcd;" horiz-adv-x="276" 
d="M198 680v-680h-120v680h120zM150 889h140l-109 -145h-98z" />
    <glyph glyph-name="Icircumflex" unicode="&#xce;" horiz-adv-x="276" 
d="M198 680v-680h-120v680h120zM139 801l-51 -50h-104l118 128h76l119 -128h-105z" />
    <glyph glyph-name="Idieresis" unicode="&#xcf;" horiz-adv-x="276" 
d="M198 680v-680h-120v680h120zM-5 762v109h108v-109h-108zM179 762v109h108v-109h-108z" />
    <glyph glyph-name="Eth" unicode="&#xd0;" horiz-adv-x="694" 
d="M553 71q-21 -21 -46 -35t-45.5 -21t-57 -10.5t-58.5 -4t-72 -0.5h-187v289h-65v101h65v290h190q98 0 149.5 -8t98.5 -40q58 -43 92.5 -118t34.5 -172q0 -178 -99 -271zM208 109h79q47 0 72 1.5t54.5 11t49.5 28.5q26 26 43.5 77t17.5 111q0 131 -70 191
q-28 25 -67.5 32.5t-112.5 7.5h-66v-179h198v-101h-198v-180z" />
    <glyph glyph-name="Ntilde" unicode="&#xd1;" horiz-adv-x="696" 
d="M190 680l184 -276q88 -134 130 -206h1q-6 80 -6 254v228h119v-680h-112l-193 295q-37 56 -119 194h-1q0 -4 2 -103t2 -159v-227h-119v680h112zM454 868l69 -24q-31 -99 -105 -99q-31 0 -69 18l-12 6q-31 18 -47 18q-24 0 -34 -42l-67 23q27 100 101 100q32 0 70 -19
l12 -6q31 -18 46 -18q23 0 36 43z" />
    <glyph glyph-name="Ograve" unicode="&#xd2;" horiz-adv-x="724" 
d="M40 340q0 157 88 254.5t234 97.5t234 -97.5t88 -254.5q0 -159 -84.5 -255.5t-237.5 -96.5q-151 0 -236.5 97t-85.5 255zM171 340q0 -112 51 -177.5t140 -65.5t140 65.5t51 177.5t-51 178.5t-140 66.5t-140 -66.5t-51 -178.5zM230 889h140l67 -145h-98z" />
    <glyph glyph-name="Oacute" unicode="&#xd3;" horiz-adv-x="724" 
d="M40 340q0 157 88 254.5t234 97.5t234 -97.5t88 -254.5q0 -159 -84.5 -255.5t-237.5 -96.5q-151 0 -236.5 97t-85.5 255zM171 340q0 -112 51 -177.5t140 -65.5t140 65.5t51 177.5t-51 178.5t-140 66.5t-140 -66.5t-51 -178.5zM367 889h140l-109 -145h-98z" />
    <glyph glyph-name="Ocircumflex" unicode="&#xd4;" horiz-adv-x="724" 
d="M40 340q0 157 88 254.5t234 97.5t234 -97.5t88 -254.5q0 -159 -84.5 -255.5t-237.5 -96.5q-151 0 -236.5 97t-85.5 255zM171 340q0 -112 51 -177.5t140 -65.5t140 65.5t51 177.5t-51 178.5t-140 66.5t-140 -66.5t-51 -178.5zM361 801l-51 -50h-104l118 128h76l119 -128
h-105z" />
    <glyph glyph-name="Otilde" unicode="&#xd5;" horiz-adv-x="724" 
d="M40 340q0 157 88 254.5t234 97.5t234 -97.5t88 -254.5q0 -159 -84.5 -255.5t-237.5 -96.5q-151 0 -236.5 97t-85.5 255zM171 340q0 -112 51 -177.5t140 -65.5t140 65.5t51 177.5t-51 178.5t-140 66.5t-140 -66.5t-51 -178.5zM460 868l69 -24q-31 -99 -105 -99
q-31 0 -69 18l-12 6q-31 18 -47 18q-24 0 -34 -42l-67 23q27 100 101 100q32 0 70 -19l12 -6q31 -18 46 -18q23 0 36 43z" />
    <glyph glyph-name="Odieresis" unicode="&#xd6;" horiz-adv-x="724" 
d="M40 340q0 157 88 254.5t234 97.5t234 -97.5t88 -254.5q0 -159 -84.5 -255.5t-237.5 -96.5q-151 0 -236.5 97t-85.5 255zM171 340q0 -112 51 -177.5t140 -65.5t140 65.5t51 177.5t-51 178.5t-140 66.5t-140 -66.5t-51 -178.5zM219 762v109h108v-109h-108zM403 762v109h108
v-109h-108z" />
    <glyph glyph-name="multiply" unicode="&#xd7;" 
d="M564 549l-192 -192l192 -192l-77 -77l-192 192l-192 -192l-77 77l192 192l-192 192l77 77l192 -192l192 192z" />
    <glyph glyph-name="Oslash" unicode="&#xd8;" horiz-adv-x="740" 
d="M50 340q0 157 88 254.5t234 97.5q108 0 184 -54l73 82l79 -73l-76 -85q62 -93 62 -222q0 -159 -84.5 -255.5t-237.5 -96.5q-119 0 -197 60l-72 -80l-81 72l80 89q-52 86 -52 211zM563 340q0 67 -20 121l-288 -323q47 -41 117 -41q89 0 140 65.5t51 177.5zM181 340
q0 -56 14 -106l283 317q-44 34 -106 34q-89 0 -140 -66.5t-51 -178.5z" />
    <glyph glyph-name="Ugrave" unicode="&#xd9;" horiz-adv-x="672" 
d="M336 99q97 0 130 70q15 38 15 115v396h119v-398q0 -124 -35 -188q-64 -106 -229 -106t-229 106q-35 64 -35 188v398h119v-396q0 -84 15 -115q33 -70 130 -70zM202 889h140l67 -145h-98z" />
    <glyph glyph-name="Uacute" unicode="&#xda;" horiz-adv-x="672" 
d="M336 99q97 0 130 70q15 38 15 115v396h119v-398q0 -124 -35 -188q-64 -106 -229 -106t-229 106q-35 64 -35 188v398h119v-396q0 -84 15 -115q33 -70 130 -70zM334 889h140l-109 -145h-98z" />
    <glyph glyph-name="Ucircumflex" unicode="&#xdb;" horiz-adv-x="672" 
d="M336 99q97 0 130 70q15 38 15 115v396h119v-398q0 -124 -35 -188q-64 -106 -229 -106t-229 106q-35 64 -35 188v398h119v-396q0 -84 15 -115q33 -70 130 -70zM335 801l-51 -50h-104l118 128h76l119 -128h-105z" />
    <glyph glyph-name="Udieresis" unicode="&#xdc;" horiz-adv-x="672" 
d="M336 99q97 0 130 70q15 38 15 115v396h119v-398q0 -124 -35 -188q-64 -106 -229 -106t-229 106q-35 64 -35 188v398h119v-396q0 -84 15 -115q33 -70 130 -70zM194 762v109h108v-109h-108zM378 762v109h108v-109h-108z" />
    <glyph glyph-name="Yacute" unicode="&#xdd;" horiz-adv-x="622" 
d="M369 278v-278h-120v278l-247 402h139l174 -291l177 291h138zM314 889h140l-109 -145h-98z" />
    <glyph glyph-name="Thorn" unicode="&#xde;" horiz-adv-x="611" 
d="M78 0v680h120v-110h107q74 0 124.5 -9.5t87.5 -40.5q65 -55 65 -151q0 -98 -65 -153q-37 -31 -87.5 -40.5t-124.5 -9.5h-107v-166h-120zM198 465v-192h120q64 0 93 13q47 24 47 83t-47 83q-29 13 -93 13h-120z" />
    <glyph glyph-name="germandbls" unicode="&#xdf;" horiz-adv-x="522" 
d="M242 -3v92q21 -3 36 -3q57 0 73.5 32t16.5 103q0 88 -30 112q-25 18 -72 18q-15 0 -24 -1v90q9 -1 24 -1q42 0 60 18t18 62q0 39 -22 58t-60 19q-48 0 -68 -34q-12 -21 -12 -78v-484h-114v451q0 67 5 98t20 58q45 85 172 85q90 0 140.5 -45.5t50.5 -117.5q0 -88 -62 -125
q89 -39 89 -181q0 -117 -45.5 -172.5t-149.5 -55.5q-16 0 -46 2z" />
    <glyph glyph-name="agrave" unicode="&#xe0;" horiz-adv-x="516" 
d="M450 340v-235q0 -22 5.5 -30.5t22.5 -8.5h7v-69q-26 -6 -58 -6q-68 0 -79 49q-52 -52 -143 -52q-78 0 -124 37t-46 108q0 34 11 58.5t28 40.5t49.5 28t62.5 19t80 15l36 6q22 4 30 10.5t8 21.5v4q0 61 -86 61q-94 0 -96 -81l-107 3q0 84 57 124.5t151 40.5
q191 0 191 -144zM234 73q47 0 76.5 24.5t29.5 72.5v59q-22 -10 -41 -14l-65 -13q-44 -9 -63 -23.5t-19 -42.5q0 -63 82 -63zM133 680h135l64 -128h-98z" />
    <glyph glyph-name="aacute" unicode="&#xe1;" horiz-adv-x="516" 
d="M450 340v-235q0 -22 5.5 -30.5t22.5 -8.5h7v-69q-26 -6 -58 -6q-68 0 -79 49q-52 -52 -143 -52q-78 0 -124 37t-46 108q0 34 11 58.5t28 40.5t49.5 28t62.5 19t80 15l36 6q22 4 30 10.5t8 21.5v4q0 61 -86 61q-94 0 -96 -81l-107 3q0 84 57 124.5t151 40.5
q191 0 191 -144zM234 73q47 0 76.5 24.5t29.5 72.5v59q-22 -10 -41 -14l-65 -13q-44 -9 -63 -23.5t-19 -42.5q0 -63 82 -63zM253 680h135l-101 -128h-98z" />
    <glyph glyph-name="acircumflex" unicode="&#xe2;" horiz-adv-x="516" 
d="M450 340v-235q0 -22 5.5 -30.5t22.5 -8.5h7v-69q-26 -6 -58 -6q-68 0 -79 49q-52 -52 -143 -52q-78 0 -124 37t-46 108q0 34 11 58.5t28 40.5t49.5 28t62.5 19t80 15l36 6q22 4 30 10.5t8 21.5v4q0 61 -86 61q-94 0 -96 -81l-107 3q0 84 57 124.5t151 40.5
q191 0 191 -144zM234 73q47 0 76.5 24.5t29.5 72.5v59q-22 -10 -41 -14l-65 -13q-44 -9 -63 -23.5t-19 -42.5q0 -63 82 -63zM261 602l-51 -50h-104l118 128h76l119 -128h-105z" />
    <glyph glyph-name="atilde" unicode="&#xe3;" horiz-adv-x="516" 
d="M450 340v-235q0 -22 5.5 -30.5t22.5 -8.5h7v-69q-26 -6 -58 -6q-68 0 -79 49q-52 -52 -143 -52q-78 0 -124 37t-46 108q0 34 11 58.5t28 40.5t49.5 28t62.5 19t80 15l36 6q22 4 30 10.5t8 21.5v4q0 61 -86 61q-94 0 -96 -81l-107 3q0 84 57 124.5t151 40.5
q191 0 191 -144zM234 73q47 0 76.5 24.5t29.5 72.5v59q-22 -10 -41 -14l-65 -13q-44 -9 -63 -23.5t-19 -42.5q0 -63 82 -63zM358 677l69 -24q-31 -99 -105 -99q-31 0 -69 18l-12 6q-31 18 -47 18q-24 0 -34 -42l-67 23q27 100 101 100q32 0 70 -19l12 -6q31 -18 46 -18
q23 0 36 43z" />
    <glyph glyph-name="adieresis" unicode="&#xe4;" horiz-adv-x="516" 
d="M450 340v-235q0 -22 5.5 -30.5t22.5 -8.5h7v-69q-26 -6 -58 -6q-68 0 -79 49q-52 -52 -143 -52q-78 0 -124 37t-46 108q0 34 11 58.5t28 40.5t49.5 28t62.5 19t80 15l36 6q22 4 30 10.5t8 21.5v4q0 61 -86 61q-94 0 -96 -81l-107 3q0 84 57 124.5t151 40.5
q191 0 191 -144zM234 73q47 0 76.5 24.5t29.5 72.5v59q-22 -10 -41 -14l-65 -13q-44 -9 -63 -23.5t-19 -42.5q0 -63 82 -63zM112 560v109h108v-109h-108zM296 560v109h108v-109h-108z" />
    <glyph glyph-name="aring" unicode="&#xe5;" horiz-adv-x="516" 
d="M450 340v-235q0 -22 5.5 -30.5t22.5 -8.5h7v-69q-26 -6 -58 -6q-68 0 -79 49q-52 -52 -143 -52q-78 0 -124 37t-46 108q0 34 11 58.5t28 40.5t49.5 28t62.5 19t80 15l36 6q22 4 30 10.5t8 21.5v4q0 61 -86 61q-94 0 -96 -81l-107 3q0 84 57 124.5t151 40.5
q191 0 191 -144zM234 73q47 0 76.5 24.5t29.5 72.5v59q-22 -10 -41 -14l-65 -13q-44 -9 -63 -23.5t-19 -42.5q0 -63 82 -63zM159 610q0 42 28.5 70t70.5 28t70.5 -28t28.5 -70t-28.5 -70t-70.5 -28t-70.5 28t-28.5 70zM218 610q0 -17 11.5 -28t27.5 -11t27.5 11t11.5 28
t-11.5 28t-27.5 11t-27.5 -11t-11.5 -28z" />
    <glyph glyph-name="ae" unicode="&#xe6;" horiz-adv-x="826" 
d="M393 60q-72 -72 -188 -72q-78 0 -124 37t-46 108q0 34 11 58.5t28 40.5t49.5 28t62.5 19t80 15l36 6q22 4 30 10.5t8 21.5v4q0 62 -86 62q-95 0 -96 -82l-107 3q0 85 57 125.5t151 40.5q107 0 154 -53q66 55 151 55q107 0 165 -71t58 -185q0 -4 -0.5 -12t-0.5 -12h-343
q7 -53 39 -87t92 -34q30 0 54 8t41 25t23.5 25t17.5 24l79 -60q-80 -120 -222 -120q-59 0 -106.5 23t-67.5 49zM234 73q47 0 76.5 24.5t29.5 72.5v59q-22 -10 -41 -14l-65 -13q-44 -9 -63 -23.5t-19 -42.5q0 -63 82 -63zM564 396q-53 0 -84.5 -29.5t-33.5 -74.5h228
q-2 47 -31.5 75.5t-78.5 28.5z" />
    <glyph glyph-name="ccedilla" unicode="&#xe7;" horiz-adv-x="504" 
d="M479 353l-95 -50q-29 86 -111 86q-58 0 -91 -40t-33 -111t33 -111t91 -40q82 0 114 81l92 -49q-21 -48 -70.5 -88t-126.5 -43l-22 -21q37 -1 60 -20t23 -56q0 -42 -30.5 -65.5t-72.5 -23.5q-30 0 -56 12l15 46q17 -7 38 -7q18 0 29.5 8.5t11.5 23.5q0 31 -40 31
q-18 0 -37 -10l-23 42l48 43q-88 13 -139 76t-51 169q0 117 66 184t168 67q79 0 132.5 -37t76.5 -97z" />
    <glyph glyph-name="egrave" unicode="&#xe8;" horiz-adv-x="533" 
d="M417 168l79 -60q-80 -120 -224 -120q-106 0 -171.5 69t-65.5 185q0 109 66.5 177t167.5 68q110 0 167.5 -68t57.5 -183q0 -4 -0.5 -14.5t-0.5 -14.5h-347q7 -52 40 -86.5t92 -34.5q30 0 55 8.5t42.5 24.5t24.5 25t17 24zM269 396q-53 0 -85.5 -30t-34.5 -74h232
q-2 47 -32.5 75.5t-79.5 28.5zM150 680h135l64 -128h-98z" />
    <glyph glyph-name="eacute" unicode="&#xe9;" horiz-adv-x="533" 
d="M417 168l79 -60q-80 -120 -224 -120q-106 0 -171.5 69t-65.5 185q0 109 66.5 177t167.5 68q110 0 167.5 -68t57.5 -183q0 -4 -0.5 -14.5t-0.5 -14.5h-347q7 -52 40 -86.5t92 -34.5q30 0 55 8.5t42.5 24.5t24.5 25t17 24zM269 396q-53 0 -85.5 -30t-34.5 -74h232
q-2 47 -32.5 75.5t-79.5 28.5zM266 680h135l-101 -128h-98z" />
    <glyph glyph-name="ecircumflex" unicode="&#xea;" horiz-adv-x="533" 
d="M417 168l79 -60q-80 -120 -224 -120q-106 0 -171.5 69t-65.5 185q0 109 66.5 177t167.5 68q110 0 167.5 -68t57.5 -183q0 -4 -0.5 -14.5t-0.5 -14.5h-347q7 -52 40 -86.5t92 -34.5q30 0 55 8.5t42.5 24.5t24.5 25t17 24zM269 396q-53 0 -85.5 -30t-34.5 -74h232
q-2 47 -32.5 75.5t-79.5 28.5zM270 602l-51 -50h-104l118 128h76l119 -128h-105z" />
    <glyph glyph-name="edieresis" unicode="&#xeb;" horiz-adv-x="533" 
d="M417 168l79 -60q-80 -120 -224 -120q-106 0 -171.5 69t-65.5 185q0 109 66.5 177t167.5 68q110 0 167.5 -68t57.5 -183q0 -4 -0.5 -14.5t-0.5 -14.5h-347q7 -52 40 -86.5t92 -34.5q30 0 55 8.5t42.5 24.5t24.5 25t17 24zM269 396q-53 0 -85.5 -30t-34.5 -74h232
q-2 47 -32.5 75.5t-79.5 28.5zM128 560v109h108v-109h-108zM312 560v109h108v-109h-108z" />
    <glyph glyph-name="igrave" unicode="&#xec;" horiz-adv-x="250" 
d="M182 476v-476h-114v476h114zM-15 680h135l64 -128h-98z" />
    <glyph glyph-name="iacute" unicode="&#xed;" horiz-adv-x="250" 
d="M182 476v-476h-114v476h114zM139 680h135l-101 -128h-98z" />
    <glyph glyph-name="icircumflex" unicode="&#xee;" horiz-adv-x="250" 
d="M182 476v-476h-114v476h114zM124 602l-51 -50h-104l118 128h76l119 -128h-105z" />
    <glyph glyph-name="idieresis" unicode="&#xef;" horiz-adv-x="250" 
d="M182 476v-476h-114v476h114zM-19 560v109h108v-109h-108zM165 560v109h108v-109h-108z" />
    <glyph glyph-name="eth" unicode="&#xf0;" horiz-adv-x="544" 
d="M147 242q0 -74 33 -117t88 -43q56 0 89 42.5t33 117.5q0 74 -32 113.5t-90 39.5q-57 0 -89 -39.5t-32 -113.5zM362 642l102 35l28 -76l-83 -27q93 -153 93 -314q0 -120 -60.5 -196t-173.5 -76q-103 0 -167.5 69.5t-64.5 183.5q0 113 64 179.5t161 66.5q53 0 99 -22
q-15 43 -42 80l-152 -50l-29 78l129 40q-9 11 -62 61l82 51q48 -48 76 -83z" />
    <glyph glyph-name="ntilde" unicode="&#xf1;" horiz-adv-x="555" 
d="M493 269v-269h-114v240q0 64 -8 91q-17 55 -84 55q-52 0 -78.5 -36t-26.5 -96v-254h-114v476h114v-62q18 33 56.5 53t91.5 20q87 0 131 -59q32 -47 32 -159zM398 677l69 -24q-31 -99 -105 -99q-31 0 -69 18l-12 6q-31 18 -47 18q-24 0 -34 -42l-67 23q27 100 101 100
q32 0 70 -19l12 -6q31 -18 46 -18q23 0 36 43z" />
    <glyph glyph-name="ograve" unicode="&#xf2;" horiz-adv-x="548" 
d="M36 236q0 115 65 183t173 68t173 -68t65 -183q0 -114 -64 -181t-174 -67t-174 67t-64 181zM149 238q0 -71 34.5 -111.5t90.5 -40.5t90.5 41t34.5 111q0 71 -33.5 111.5t-91.5 40.5t-91.5 -40.5t-33.5 -111.5zM138 680h135l64 -128h-98z" />
    <glyph glyph-name="oacute" unicode="&#xf3;" horiz-adv-x="548" 
d="M36 236q0 115 65 183t173 68t173 -68t65 -183q0 -114 -64 -181t-174 -67t-174 67t-64 181zM149 238q0 -71 34.5 -111.5t90.5 -40.5t90.5 41t34.5 111q0 71 -33.5 111.5t-91.5 40.5t-91.5 -40.5t-33.5 -111.5zM278 680h135l-101 -128h-98z" />
    <glyph glyph-name="ocircumflex" unicode="&#xf4;" horiz-adv-x="548" 
d="M36 236q0 115 65 183t173 68t173 -68t65 -183q0 -114 -64 -181t-174 -67t-174 67t-64 181zM149 238q0 -71 34.5 -111.5t90.5 -40.5t90.5 41t34.5 111q0 71 -33.5 111.5t-91.5 40.5t-91.5 -40.5t-33.5 -111.5zM273 602l-51 -50h-104l118 128h76l119 -128h-105z" />
    <glyph glyph-name="otilde" unicode="&#xf5;" horiz-adv-x="548" 
d="M36 236q0 115 65 183t173 68t173 -68t65 -183q0 -114 -64 -181t-174 -67t-174 67t-64 181zM149 238q0 -71 34.5 -111.5t90.5 -40.5t90.5 41t34.5 111q0 71 -33.5 111.5t-91.5 40.5t-91.5 -40.5t-33.5 -111.5zM371 677l69 -24q-31 -99 -105 -99q-31 0 -69 18l-12 6
q-31 18 -47 18q-23 0 -34 -42l-67 23q27 100 101 100q32 0 70 -19l12 -6q31 -18 46 -18q23 0 36 43z" />
    <glyph glyph-name="odieresis" unicode="&#xf6;" horiz-adv-x="548" 
d="M36 236q0 115 65 183t173 68t173 -68t65 -183q0 -114 -64 -181t-174 -67t-174 67t-64 181zM149 238q0 -71 34.5 -111.5t90.5 -40.5t90.5 41t34.5 111q0 71 -33.5 111.5t-91.5 40.5t-91.5 -40.5t-33.5 -111.5zM129 560v109h108v-109h-108zM313 560v109h108v-109h-108z" />
    <glyph glyph-name="divide" unicode="&#xf7;" 
d="M562 296h-534v106h534v-106zM220 243h129v-132h-129v132zM220 587h129v-132h-129v132z" />
    <glyph glyph-name="oslash" unicode="&#xf8;" horiz-adv-x="557" 
d="M278 -12q-60 0 -111 23l-44 -58l-82 64l46 59q-47 62 -47 160q0 115 65 183t173 68q61 0 109 -22l54 70l79 -64l-54 -70q50 -67 50 -165q0 -114 -64 -181t-174 -67zM153 238q0 -36 9 -64l161 208q-24 8 -45 8q-58 0 -91.5 -40.5t-33.5 -111.5zM403 238q0 41 -10 67
l-161 -210q21 -9 46 -9q56 0 90.5 41t34.5 111z" />
    <glyph glyph-name="ugrave" unicode="&#xf9;" horiz-adv-x="545" 
d="M62 173v303h114v-265q0 -61 18.5 -91.5t67.5 -30.5q52 0 76.5 35.5t24.5 95.5v256h114v-476h-114v61q-19 -32 -55.5 -52.5t-87.5 -20.5q-28 0 -52.5 7t-50 25t-40.5 57t-15 96zM135 680h135l64 -128h-98z" />
    <glyph glyph-name="uacute" unicode="&#xfa;" horiz-adv-x="545" 
d="M62 173v303h114v-265q0 -61 18.5 -91.5t67.5 -30.5q52 0 76.5 35.5t24.5 95.5v256h114v-476h-114v61q-19 -32 -55.5 -52.5t-87.5 -20.5q-28 0 -52.5 7t-50 25t-40.5 57t-15 96zM269 680h135l-101 -128h-98z" />
    <glyph glyph-name="ucircumflex" unicode="&#xfb;" horiz-adv-x="545" 
d="M62 173v303h114v-265q0 -61 18.5 -91.5t67.5 -30.5q52 0 76.5 35.5t24.5 95.5v256h114v-476h-114v61q-19 -32 -55.5 -52.5t-87.5 -20.5q-28 0 -52.5 7t-50 25t-40.5 57t-15 96zM269 602l-51 -50h-104l118 128h76l119 -128h-105z" />
    <glyph glyph-name="udieresis" unicode="&#xfc;" horiz-adv-x="545" 
d="M62 173v303h114v-265q0 -61 18.5 -91.5t67.5 -30.5q52 0 76.5 35.5t24.5 95.5v256h114v-476h-114v61q-19 -32 -55.5 -52.5t-87.5 -20.5q-28 0 -52.5 7t-50 25t-40.5 57t-15 96zM128 560v109h108v-109h-108zM312 560v109h108v-109h-108z" />
    <glyph glyph-name="yacute" unicode="&#xfd;" horiz-adv-x="458" 
d="M326 476h112l-159 -533q-23 -75 -50 -104q-34 -37 -111 -37q-32 0 -62 6v93q20 -5 39 -5q35 0 50.5 14t25.5 46l8 29l-171 491h121l78 -257q7 -22 18 -65l8 -33h1q5 24 7 32q7 33 17 66zM227 680h135l-101 -128h-98z" />
    <glyph glyph-name="thorn" unicode="&#xfe;" horiz-adv-x="570" 
d="M322 -12q-87 0 -140 62v-240h-114v870h114v-256q49 64 140 64q95 0 153 -70t58 -182q0 -109 -58.5 -178.5t-152.5 -69.5zM177 238q0 -69 33.5 -110t87.5 -41q55 0 88 40t33 111t-33 111.5t-88 40.5q-54 0 -87.5 -41.5t-33.5 -110.5z" />
    <glyph glyph-name="ydieresis" unicode="&#xff;" horiz-adv-x="458" 
d="M326 476h112l-159 -533q-23 -75 -50 -104q-34 -37 -111 -37q-32 0 -62 6v93q20 -5 39 -5q35 0 50.5 14t25.5 46l8 29l-171 491h121l78 -257q7 -22 18 -65l8 -33h1q5 24 7 32q7 33 17 66zM88 560v109h108v-109h-108zM272 560v109h108v-109h-108z" />
    <glyph glyph-name="Amacron" unicode="&#x100;" horiz-adv-x="615" 
d="M177 159l-54 -159h-120l237 680h136l235 -680h-124l-53 159h-257zM400 261l-46 155l-48 161h-1l-50 -169l-45 -147h190zM160 769v93h292v-93h-292z" />
    <glyph glyph-name="amacron" unicode="&#x101;" horiz-adv-x="516" 
d="M450 340v-235q0 -22 5.5 -30.5t22.5 -8.5h7v-69q-26 -6 -58 -6q-68 0 -79 49q-52 -52 -143 -52q-78 0 -124 37t-46 108q0 34 11 58.5t28 40.5t49.5 28t62.5 19t80 15l36 6q22 4 30 10.5t8 21.5v4q0 61 -86 61q-94 0 -96 -81l-107 3q0 84 57 124.5t151 40.5
q191 0 191 -144zM234 73q47 0 76.5 24.5t29.5 72.5v59q-22 -10 -41 -14l-65 -13q-44 -9 -63 -23.5t-19 -42.5q0 -63 82 -63zM109 567v93h292v-93h-292z" />
    <glyph glyph-name="Abreve" unicode="&#x102;" horiz-adv-x="615" 
d="M177 159l-54 -159h-120l237 680h136l235 -680h-124l-53 159h-257zM400 261l-46 155l-48 161h-1l-50 -169l-45 -147h190zM306 739q-72 0 -110.5 34t-38.5 117h81q0 -54 17 -69t51 -15q17 0 27 2t20.5 10t15.5 26t5 46h81q0 -83 -38.5 -117t-110.5 -34z" />
    <glyph glyph-name="abreve" unicode="&#x103;" horiz-adv-x="516" 
d="M450 340v-235q0 -22 5.5 -30.5t22.5 -8.5h7v-69q-26 -6 -58 -6q-68 0 -79 49q-52 -52 -143 -52q-78 0 -124 37t-46 108q0 34 11 58.5t28 40.5t49.5 28t62.5 19t80 15l36 6q22 4 30 10.5t8 21.5v4q0 61 -86 61q-94 0 -96 -81l-107 3q0 84 57 124.5t151 40.5
q191 0 191 -144zM234 73q47 0 76.5 24.5t29.5 72.5v59q-22 -10 -41 -14l-65 -13q-44 -9 -63 -23.5t-19 -42.5q0 -63 82 -63zM260 529q-72 0 -110.5 34t-38.5 117h81q0 -54 17 -69t51 -15q17 0 27 2t20.5 10t15.5 26t5 46h81q0 -83 -38.5 -117t-110.5 -34z" />
    <glyph glyph-name="Aogonek" unicode="&#x104;" horiz-adv-x="615" 
d="M594 -120l27 -61q-36 -17 -66 -17q-37 0 -64.5 23t-27.5 65q0 61 67 110h-43l-53 159h-257l-54 -159h-120l237 680h136l235 -680q-72 -61 -72 -100q0 -29 27 -29q14 0 28 9zM400 261l-46 155l-48 161h-1l-50 -169l-45 -147h190z" />
    <glyph glyph-name="aogonek" unicode="&#x105;" horiz-adv-x="516" 
d="M468 -120l27 -61q-36 -17 -66 -17q-37 0 -64.5 23t-27.5 65q0 56 59 104q-41 9 -48 46q-52 -52 -143 -52q-78 0 -124 37t-46 108q0 34 11 58.5t28 40.5t49.5 28t62.5 19t80 15l36 6q22 4 30 10.5t8 21.5v4q0 61 -86 61q-94 0 -96 -81l-107 3q0 84 57 124.5t151 40.5
q191 0 191 -144v-235q0 -22 5.5 -30.5t22.5 -8.5h7v-69q-2 0 -3 -1h-2q-67 -57 -67 -96q0 -29 27 -29q14 0 28 9zM234 73q47 0 76.5 24.5t29.5 72.5v59q-22 -10 -41 -14l-65 -13q-44 -9 -63 -23.5t-19 -42.5q0 -63 82 -63z" />
    <glyph glyph-name="Cacute" unicode="&#x106;" horiz-adv-x="663" 
d="M528 204l114 -48q-14 -28 -34 -53.5t-53 -53.5t-82.5 -44.5t-108.5 -16.5q-153 0 -238.5 96.5t-85.5 255.5q0 157 88 254.5t236 97.5q177 0 271 -156l-105 -65q-52 113 -166 113q-89 0 -140.5 -66t-51.5 -178t50.5 -176.5t141.5 -64.5q114 0 164 105zM359 889h140
l-109 -145h-98z" />
    <glyph glyph-name="cacute" unicode="&#x107;" horiz-adv-x="504" 
d="M479 353l-95 -50q-29 86 -111 86q-58 0 -91 -40t-33 -111t33 -111t91 -40q82 0 114 81l92 -49q-20 -49 -73.5 -90t-135.5 -41q-107 0 -170.5 65t-63.5 183q0 117 66 184t168 67q79 0 132.5 -37t76.5 -97zM273 680h135l-101 -128h-98z" />
    <glyph glyph-name="Ccircumflex" unicode="&#x108;" horiz-adv-x="663" 
d="M528 204l114 -48q-14 -28 -34 -53.5t-53 -53.5t-82.5 -44.5t-108.5 -16.5q-153 0 -238.5 96.5t-85.5 255.5q0 157 88 254.5t236 97.5q177 0 271 -156l-105 -65q-52 113 -166 113q-89 0 -140.5 -66t-51.5 -178t50.5 -176.5t141.5 -64.5q114 0 164 105zM365 801l-51 -50
h-104l118 128h76l119 -128h-105z" />
    <glyph glyph-name="ccircumflex" unicode="&#x109;" horiz-adv-x="504" 
d="M479 353l-95 -50q-29 86 -111 86q-58 0 -91 -40t-33 -111t33 -111t91 -40q82 0 114 81l92 -49q-20 -49 -73.5 -90t-135.5 -41q-107 0 -170.5 65t-63.5 183q0 117 66 184t168 67q79 0 132.5 -37t76.5 -97zM273 602l-51 -50h-104l118 128h76l119 -128h-105z" />
    <glyph glyph-name="Cdotaccent" unicode="&#x10a;" horiz-adv-x="663" 
d="M528 204l114 -48q-14 -28 -34 -53.5t-53 -53.5t-82.5 -44.5t-108.5 -16.5q-153 0 -238.5 96.5t-85.5 255.5q0 157 88 254.5t236 97.5q177 0 271 -156l-105 -65q-52 113 -166 113q-89 0 -140.5 -66t-51.5 -178t50.5 -176.5t141.5 -64.5q114 0 164 105zM304 760v109h111
v-109h-111z" />
    <glyph glyph-name="cdotaccent" unicode="&#x10b;" horiz-adv-x="504" 
d="M479 353l-95 -50q-29 86 -111 86q-58 0 -91 -40t-33 -111t33 -111t91 -40q82 0 114 81l92 -49q-20 -49 -73.5 -90t-135.5 -41q-107 0 -170.5 65t-63.5 183q0 117 66 184t168 67q79 0 132.5 -37t76.5 -97zM217 554v109h111v-109h-111z" />
    <glyph glyph-name="Ccaron" unicode="&#x10c;" horiz-adv-x="663" 
d="M528 204l114 -48q-14 -28 -34 -53.5t-53 -53.5t-82.5 -44.5t-108.5 -16.5q-153 0 -238.5 96.5t-85.5 255.5q0 157 88 254.5t236 97.5q177 0 271 -156l-105 -65q-52 113 -166 113q-89 0 -140.5 -66t-51.5 -178t50.5 -176.5t141.5 -64.5q114 0 164 105zM309 879l51 -50
l53 50h105l-119 -128h-76l-118 128h104z" />
    <glyph glyph-name="ccaron" unicode="&#x10d;" horiz-adv-x="504" 
d="M479 353l-95 -50q-29 86 -111 86q-58 0 -91 -40t-33 -111t33 -111t91 -40q82 0 114 81l92 -49q-20 -49 -73.5 -90t-135.5 -41q-107 0 -170.5 65t-63.5 183q0 117 66 184t168 67q79 0 132.5 -37t76.5 -97zM218 680l51 -50l53 50h105l-119 -128h-76l-118 128h104z" />
    <glyph glyph-name="Dcaron" unicode="&#x10e;" horiz-adv-x="685" 
d="M199 569v-460h79q47 0 72 1.5t54.5 11t49.5 28.5q26 26 43.5 77t17.5 111q0 131 -70 191q-28 25 -67.5 32.5t-112.5 7.5h-66zM265 0h-187v680h190q98 0 149.5 -8t98.5 -40q58 -43 92.5 -118t34.5 -172q0 -178 -99 -271q-21 -21 -46 -35t-45.5 -21t-57 -10.5t-58.5 -4
t-72 -0.5zM269 879l51 -50l53 50h105l-119 -128h-76l-118 128h104z" />
    <glyph glyph-name="dcaron" unicode="&#x10f;" horiz-adv-x="583" 
d="M248 -12q-94 0 -152.5 69.5t-58.5 178.5q0 111 58 181t153 70q91 0 140 -63v256h114v-680h-114v50q-52 -62 -140 -62zM393 238q0 69 -33.5 110t-87.5 41q-55 0 -88 -40t-33 -111t33 -111t88 -40q54 0 87.5 41t33.5 110zM555 680h131l-65 -128h-94z" />
    <glyph glyph-name="Dcroat" unicode="&#x110;" horiz-adv-x="694" 
d="M553 71q-21 -21 -46 -35t-45.5 -21t-57 -10.5t-58.5 -4t-72 -0.5h-187v289h-65v101h65v290h190q98 0 149.5 -8t98.5 -40q58 -43 92.5 -118t34.5 -172q0 -178 -99 -271zM208 109h79q47 0 72 1.5t54.5 11t49.5 28.5q26 26 43.5 77t17.5 111q0 131 -70 191
q-28 25 -67.5 32.5t-112.5 7.5h-66v-179h198v-101h-198v-180z" />
    <glyph glyph-name="dcroat" unicode="&#x111;" horiz-adv-x="570" 
d="M388 0v50q-52 -62 -140 -62q-94 0 -152.5 69.5t-58.5 178.5q0 111 58 181t153 70q91 0 140 -63v116h-151v77h151v63h114v-63h88v-77h-88v-540h-114zM393 238q0 69 -33.5 110t-87.5 41q-55 0 -88 -40t-33 -111t33 -111t88 -40q54 0 87.5 41t33.5 110z" />
    <glyph glyph-name="Emacron" unicode="&#x112;" horiz-adv-x="613" 
d="M554 573h-358v-168h325v-107h-325v-191h383v-107h-501v680h476v-107zM173 769v93h292v-93h-292z" />
    <glyph glyph-name="emacron" unicode="&#x113;" horiz-adv-x="533" 
d="M417 168l79 -60q-80 -120 -224 -120q-106 0 -171.5 69t-65.5 185q0 109 66.5 177t167.5 68q110 0 167.5 -68t57.5 -183q0 -4 -0.5 -14.5t-0.5 -14.5h-347q7 -52 40 -86.5t92 -34.5q30 0 55 8.5t42.5 24.5t24.5 25t17 24zM269 396q-53 0 -85.5 -30t-34.5 -74h232
q-2 47 -32.5 75.5t-79.5 28.5zM130 567v93h292v-93h-292z" />
    <glyph glyph-name="Ebreve" unicode="&#x114;" horiz-adv-x="613" 
d="M554 573h-358v-168h325v-107h-325v-191h383v-107h-501v680h476v-107zM317 739q-72 0 -110.5 34t-38.5 117h81q0 -54 17 -69t51 -15q17 0 27 2t20.5 10t15.5 26t5 46h81q0 -83 -38.5 -117t-110.5 -34z" />
    <glyph glyph-name="ebreve" unicode="&#x115;" horiz-adv-x="533" 
d="M417 168l79 -60q-80 -120 -224 -120q-106 0 -171.5 69t-65.5 185q0 109 66.5 177t167.5 68q110 0 167.5 -68t57.5 -183q0 -4 -0.5 -14.5t-0.5 -14.5h-347q7 -52 40 -86.5t92 -34.5q30 0 55 8.5t42.5 24.5t24.5 25t17 24zM269 396q-53 0 -85.5 -30t-34.5 -74h232
q-2 47 -32.5 75.5t-79.5 28.5zM273 529q-72 0 -110.5 34t-38.5 117h81q0 -54 17 -69t51 -15q17 0 27 2t20.5 10t15.5 26t5 46h81q0 -83 -38.5 -117t-110.5 -34z" />
    <glyph glyph-name="Edotaccent" unicode="&#x116;" horiz-adv-x="613" 
d="M554 573h-358v-168h325v-107h-325v-191h383v-107h-501v680h476v-107zM266 760v109h111v-109h-111z" />
    <glyph glyph-name="edotaccent" unicode="&#x117;" horiz-adv-x="533" 
d="M417 168l79 -60q-80 -120 -224 -120q-106 0 -171.5 69t-65.5 185q0 109 66.5 177t167.5 68q110 0 167.5 -68t57.5 -183q0 -4 -0.5 -14.5t-0.5 -14.5h-347q7 -52 40 -86.5t92 -34.5q30 0 55 8.5t42.5 24.5t24.5 25t17 24zM269 396q-53 0 -85.5 -30t-34.5 -74h232
q-2 47 -32.5 75.5t-79.5 28.5zM214 554v109h111v-109h-111z" />
    <glyph glyph-name="Eogonek" unicode="&#x118;" horiz-adv-x="613" 
d="M562 -120l27 -61q-36 -17 -66 -17q-37 0 -64.5 23t-27.5 65q0 61 67 110h-420v680h476v-107h-358v-168h325v-107h-325v-191h383v-107q-72 -61 -72 -100q0 -29 27 -29q14 0 28 9z" />
    <glyph glyph-name="eogonek" unicode="&#x119;" horiz-adv-x="533" 
d="M338 -120l27 -61q-36 -17 -66 -17q-37 0 -64.5 23t-27.5 65q0 54 52 98q-101 4 -162.5 73.5t-61.5 180.5q0 109 66.5 177t167.5 68q110 0 167.5 -68t57.5 -183q0 -4 -0.5 -14.5t-0.5 -14.5h-347q7 -52 40 -86.5t92 -34.5q30 0 55 8.5t42.5 24.5t24.5 25t17 24l79 -60
q-16 -28 -52.5 -60t-89.5 -48q-71 -60 -71 -100q0 -29 27 -29q14 0 28 9zM269 396q-53 0 -85.5 -30t-34.5 -74h232q-2 47 -32.5 75.5t-79.5 28.5z" />
    <glyph glyph-name="Ecaron" unicode="&#x11a;" horiz-adv-x="613" 
d="M554 573h-358v-168h325v-107h-325v-191h383v-107h-501v680h476v-107zM269 879l51 -50l53 50h105l-119 -128h-76l-118 128h104z" />
    <glyph glyph-name="ecaron" unicode="&#x11b;" horiz-adv-x="533" 
d="M417 168l79 -60q-80 -120 -224 -120q-106 0 -171.5 69t-65.5 185q0 109 66.5 177t167.5 68q110 0 167.5 -68t57.5 -183q0 -4 -0.5 -14.5t-0.5 -14.5h-347q7 -52 40 -86.5t92 -34.5q30 0 55 8.5t42.5 24.5t24.5 25t17 24zM269 396q-53 0 -85.5 -30t-34.5 -74h232
q-2 47 -32.5 75.5t-79.5 28.5zM220 680l51 -50l53 50h105l-119 -128h-76l-118 128h104z" />
    <glyph glyph-name="Gcircumflex" unicode="&#x11c;" horiz-adv-x="699" 
d="M41 340q0 158 85.5 255t237.5 97q181 0 274 -156l-105 -65q-52 113 -168 113q-89 0 -140.5 -66t-51.5 -178t52.5 -178.5t141.5 -66.5q160 0 168 168h-204v109h316v-372h-114v52q-71 -64 -179 -64q-145 0 -229 97t-84 255zM367 801l-51 -50h-104l118 128h76l119 -128h-105
z" />
    <glyph glyph-name="gcircumflex" unicode="&#x11d;" horiz-adv-x="571" 
d="M49 -32l116 9q4 -40 27.5 -63t79.5 -23q65 0 91.5 28.5t26.5 96.5v45h-1q-49 -63 -141 -63q-96 0 -153 65t-57 174q0 113 55.5 181.5t153.5 68.5q93 0 142 -63v52h114v-449q0 -72 -15 -114q-23 -59 -76.5 -85t-143.5 -26q-108 0 -162 43t-57 123zM394 241q0 69 -32 108.5
t-89 39.5q-58 0 -89.5 -38t-31.5 -110t31.5 -109.5t89.5 -37.5q57 0 89 39t32 108zM287 602l-51 -50h-104l118 128h76l119 -128h-105z" />
    <glyph glyph-name="Gbreve" unicode="&#x11e;" horiz-adv-x="699" 
d="M41 340q0 158 85.5 255t237.5 97q181 0 274 -156l-105 -65q-52 113 -168 113q-89 0 -140.5 -66t-51.5 -178t52.5 -178.5t141.5 -66.5q160 0 168 168h-204v109h316v-372h-114v52q-71 -64 -179 -64q-145 0 -229 97t-84 255zM374 739q-72 0 -110.5 34t-38.5 117h81
q0 -54 17 -69t51 -15q17 0 27 2t20.5 10t15.5 26t5 46h81q0 -83 -38.5 -117t-110.5 -34z" />
    <glyph glyph-name="gbreve" unicode="&#x11f;" horiz-adv-x="571" 
d="M49 -32l116 9q4 -40 27.5 -63t79.5 -23q65 0 91.5 28.5t26.5 96.5v45h-1q-49 -63 -141 -63q-96 0 -153 65t-57 174q0 113 55.5 181.5t153.5 68.5q93 0 142 -63v52h114v-449q0 -72 -15 -114q-23 -59 -76.5 -85t-143.5 -26q-108 0 -162 43t-57 123zM394 241q0 69 -32 108.5
t-89 39.5q-58 0 -89.5 -38t-31.5 -110t31.5 -109.5t89.5 -37.5q57 0 89 39t32 108zM281 529q-72 0 -110.5 34t-38.5 117h81q0 -54 17 -69t51 -15q17 0 27 2t20.5 10t15.5 26t5 46h81q0 -83 -38.5 -117t-110.5 -34z" />
    <glyph glyph-name="Gdotaccent" unicode="&#x120;" horiz-adv-x="699" 
d="M41 340q0 158 85.5 255t237.5 97q181 0 274 -156l-105 -65q-52 113 -168 113q-89 0 -140.5 -66t-51.5 -178t52.5 -178.5t141.5 -66.5q160 0 168 168h-204v109h316v-372h-114v52q-71 -64 -179 -64q-145 0 -229 97t-84 255zM312 760v109h111v-109h-111z" />
    <glyph glyph-name="gdotaccent" unicode="&#x121;" horiz-adv-x="571" 
d="M49 -32l116 9q4 -40 27.5 -63t79.5 -23q65 0 91.5 28.5t26.5 96.5v45h-1q-49 -63 -141 -63q-96 0 -153 65t-57 174q0 113 55.5 181.5t153.5 68.5q93 0 142 -63v52h114v-449q0 -72 -15 -114q-23 -59 -76.5 -85t-143.5 -26q-108 0 -162 43t-57 123zM394 241q0 69 -32 108.5
t-89 39.5q-58 0 -89.5 -38t-31.5 -110t31.5 -109.5t89.5 -37.5q57 0 89 39t32 108zM223 554v109h111v-109h-111z" />
    <glyph glyph-name="uni0122" unicode="&#x122;" horiz-adv-x="699" 
d="M41 340q0 158 85.5 255t237.5 97q181 0 274 -156l-105 -65q-52 113 -168 113q-89 0 -140.5 -66t-51.5 -178t52.5 -178.5t141.5 -66.5q160 0 168 168h-204v109h316v-372h-114v52q-71 -64 -179 -64q-145 0 -229 97t-84 255zM301 -58h121v-45q0 -34 -1.5 -54t-8 -43.5
t-19 -35.5t-35.5 -21t-57 -10v52q30 1 42.5 14t12.5 40v2h-55v101z" />
    <glyph glyph-name="uni0123" unicode="&#x123;" horiz-adv-x="571" 
d="M49 -32l116 9q4 -40 27.5 -63t79.5 -23q65 0 91.5 28.5t26.5 96.5v45h-1q-49 -63 -141 -63q-96 0 -153 65t-57 174q0 113 55.5 181.5t153.5 68.5q93 0 142 -63v52h114v-449q0 -72 -15 -114q-23 -59 -76.5 -85t-143.5 -26q-108 0 -162 43t-57 123zM394 241q0 69 -32 108.5
t-89 39.5q-58 0 -89.5 -38t-31.5 -110t31.5 -109.5t89.5 -37.5q57 0 89 39t32 108zM349 552h-127v45q0 42 3.5 66.5t15.5 49t38.5 36t69.5 12.5v-52q-58 -1 -58 -54v-2h58v-101z" />
    <glyph glyph-name="Hcircumflex" unicode="&#x124;" horiz-adv-x="700" 
d="M502 298h-304v-298h-120v680h120v-275h304v275h120v-680h-120v298zM348 801l-51 -50h-104l118 128h76l119 -128h-105z" />
    <glyph glyph-name="hcircumflex" unicode="&#x125;" horiz-adv-x="555" 
d="M493 269v-269h-114v240q0 64 -8 91q-17 55 -84 55q-52 0 -78.5 -36t-26.5 -96v-254h-114v680h114v-266q18 33 56.5 53t91.5 20q87 0 131 -59q32 -47 32 -159zM279 801l-51 -50h-104l118 128h76l119 -128h-105z" />
    <glyph glyph-name="Hbar" unicode="&#x126;" horiz-adv-x="700" 
d="M198 298v-298h-120v680h120v-121h304v121h120v-680h-120v298h-304zM198 405h304v69h-304v-69z" />
    <glyph glyph-name="hbar" unicode="&#x127;" horiz-adv-x="555" 
d="M182 254v-254h-114v540h-88v77h88v63h114v-63h151v-77h-151v-126q18 33 56.5 53t91.5 20q87 0 131 -59q32 -47 32 -159v-269h-114v240q0 64 -8 91q-17 55 -84 55q-52 0 -78.5 -36t-26.5 -96z" />
    <glyph glyph-name="Itilde" unicode="&#x128;" horiz-adv-x="276" 
d="M198 680v-680h-120v680h120zM243 868l69 -24q-31 -99 -105 -99q-31 0 -69 18l-12 6q-31 18 -47 18q-23 0 -34 -42l-67 23q27 100 101 100q32 0 70 -19l12 -6q31 -18 46 -18q23 0 36 43z" />
    <glyph glyph-name="itilde" unicode="&#x129;" horiz-adv-x="250" 
d="M182 476v-476h-114v476h114zM228 677l69 -24q-31 -99 -105 -99q-31 0 -69 18l-12 6q-31 18 -47 18q-24 0 -34 -42l-67 23q27 100 101 100q32 0 70 -19l12 -6q31 -18 46 -18q23 0 36 43z" />
    <glyph glyph-name="Imacron" unicode="&#x12a;" horiz-adv-x="276" 
d="M198 680v-680h-120v680h120zM-7 769v93h292v-93h-292z" />
    <glyph glyph-name="imacron" unicode="&#x12b;" horiz-adv-x="250" 
d="M182 476v-476h-114v476h114zM-20 567v93h292v-93h-292z" />
    <glyph glyph-name="Ibreve" unicode="&#x12c;" horiz-adv-x="276" 
d="M198 680v-680h-120v680h120zM139 739q-72 0 -110.5 34t-38.5 117h81q0 -54 17 -69t51 -15q17 0 27 2t20.5 10t15.5 26t5 46h81q0 -83 -38.5 -117t-110.5 -34z" />
    <glyph glyph-name="ibreve" unicode="&#x12d;" horiz-adv-x="250" 
d="M182 476v-476h-114v476h114zM127 529q-72 0 -110.5 34t-38.5 117h81q0 -54 17 -69t51 -15q17 0 27 2t20.5 10t15.5 26t5 46h81q0 -83 -38.5 -117t-110.5 -34z" />
    <glyph glyph-name="Iogonek" unicode="&#x12e;" horiz-adv-x="276" 
d="M181 -120l27 -61q-36 -17 -66 -17q-37 0 -64.5 23t-27.5 65q0 61 67 110h-39v680h120v-680q-72 -61 -72 -100q0 -29 27 -29q15 0 28 9z" />
    <glyph glyph-name="iogonek" unicode="&#x12f;" horiz-adv-x="250" 
d="M165 -120l27 -61q-36 -17 -66 -17q-37 0 -64.5 23t-27.5 65q0 61 67 110h-33v476h114v-476q-72 -61 -72 -100q0 -29 27 -29q15 0 28 9zM182 680v-116h-114v116h114z" />
    <glyph glyph-name="Idotaccent" unicode="&#x130;" horiz-adv-x="276" 
d="M198 680v-680h-120v680h120zM84 760v109h111v-109h-111z" />
    <glyph glyph-name="dotlessi" unicode="&#x131;" horiz-adv-x="250" 
d="M182 476v-476h-114v476h114z" />
    <glyph glyph-name="IJ" unicode="&#x132;" horiz-adv-x="652" 
d="M198 680v-680h-120v680h120zM459 680h120v-477q0 -103 -29 -143q-26 -36 -76 -54t-108 -18q-51 0 -76 7v107q27 -6 60 -6q60 0 85 27q24 29 24 111v446z" />
    <glyph glyph-name="ij" unicode="&#x133;" horiz-adv-x="494" 
d="M182 476v-476h-114v476h114zM182 680v-116h-114v116h114zM312 476h114v-522q0 -64 -9 -86q-27 -67 -151 -67q-16 0 -31 1v95q47 0 62 12t15 45v522zM426 680v-116h-114v116h114z" />
    <glyph glyph-name="Jcircumflex" unicode="&#x134;" horiz-adv-x="379" 
d="M186 680h120v-477q0 -103 -29 -143q-26 -36 -76 -54t-108 -18q-51 0 -76 7v107q27 -6 60 -6q60 0 85 27q24 29 24 111v446zM247 801l-51 -50h-104l118 128h76l119 -128h-105z" />
    <glyph glyph-name="jcircumflex" unicode="&#x135;" horiz-adv-x="258" 
d="M76 476h114v-522q0 -64 -9 -86q-27 -67 -151 -67q-16 0 -31 1v95q47 0 62 12t15 45v522zM133 602l-51 -50h-104l118 128h76l119 -128h-105z" />
    <glyph glyph-name="uni0136" unicode="&#x136;" horiz-adv-x="661" 
d="M380 399l283 -399h-153l-220 311l-92 -91v-220h-120v680h120v-311l297 311h162zM291 -58h121v-45q0 -34 -1.5 -54t-8 -43.5t-19 -35.5t-35.5 -21t-57 -10v52q30 1 42.5 14t12.5 40v2h-55v101z" />
    <glyph glyph-name="uni0137" unicode="&#x137;" horiz-adv-x="532" 
d="M68 680h114v-399l192 195h147l-188 -185l205 -291h-142l-144 213l-70 -64v-149h-114v680zM221 -58h121v-45q0 -34 -1.5 -54t-8 -43.5t-19 -35.5t-35.5 -21t-57 -10v52q30 1 42.5 14t12.5 40v2h-55v101z" />
    <glyph glyph-name="kgreenlandic" unicode="&#x138;" horiz-adv-x="520" 
d="M491 383h-32q-24 0 -41 -10.5t-23 -20t-20 -33.5q-2 -4 -8 -15.5t-9 -16.5t-8.5 -13t-11 -14t-12.5 -11l188 -249h-134l-153 201h-43v-201h-116v476h116v-194q9 -1 17.5 0t14.5 2.5t13 6.5t11.5 7t10.5 10t8.5 11t9 13.5t8 13t8 15.5l7.5 15q12 22 17 31t19 26.5t27.5 25
t36.5 14.5t52 7h47v-97z" />
    <glyph glyph-name="Lacute" unicode="&#x139;" horiz-adv-x="509" 
d="M78 680h121v-570h292v-110h-413v680zM158 889h140l-109 -145h-98z" />
    <glyph glyph-name="lacute" unicode="&#x13a;" horiz-adv-x="250" 
d="M146 889h140l-109 -145h-98zM182 680v-680h-114v680h114z" />
    <glyph glyph-name="uni013B" unicode="&#x13b;" horiz-adv-x="509" 
d="M78 680h121v-570h292v-110h-413v680zM228 -58h121v-45q0 -34 -1.5 -54t-8 -43.5t-19 -35.5t-35.5 -21t-57 -10v52q30 1 42.5 14t12.5 40v2h-55v101z" />
    <glyph glyph-name="uni013C" unicode="&#x13c;" horiz-adv-x="250" 
d="M182 680v-680h-114v680h114zM65 -58h121v-45q0 -34 -1.5 -54t-8 -43.5t-19 -35.5t-35.5 -21t-57 -10v52q30 1 42.5 14t12.5 40v2h-55v101z" />
    <glyph glyph-name="Lcaron" unicode="&#x13d;" horiz-adv-x="513" 
d="M78 680h121v-570h292v-110h-413v680zM316 680h131l-65 -128h-94z" />
    <glyph glyph-name="lcaron" unicode="&#x13e;" horiz-adv-x="263" 
d="M182 681v-680h-114v680h114zM236 680h131l-65 -128h-94z" />
    <glyph glyph-name="Ldot" unicode="&#x13f;" horiz-adv-x="515" 
d="M78 680h121v-570h292v-110h-413v680zM332 335v109h111v-109h-111z" />
    <glyph glyph-name="ldot" unicode="&#x140;" horiz-adv-x="367" 
d="M182 680v-680h-114v680h114zM254 298v109h111v-109h-111z" />
    <glyph glyph-name="Lslash" unicode="&#x141;" horiz-adv-x="530" 
d="M511 110v-110h-413v202l-70 -45v120l70 45v358h121v-280l184 118v-119l-184 -119v-170h292z" />
    <glyph glyph-name="lslash" unicode="&#x142;" horiz-adv-x="320" 
d="M282 374l-69 -45v-329h-114v255l-63 -41v125l63 41v300h114v-226l69 45v-125z" />
    <glyph glyph-name="Nacute" unicode="&#x143;" horiz-adv-x="696" 
d="M190 680l184 -276q88 -134 130 -206h1q-6 80 -6 254v228h119v-680h-112l-193 295q-37 56 -119 194h-1q0 -4 2 -103t2 -159v-227h-119v680h112zM351 889h140l-109 -145h-98z" />
    <glyph glyph-name="nacute" unicode="&#x144;" horiz-adv-x="555" 
d="M493 269v-269h-114v240q0 64 -8 91q-17 55 -84 55q-52 0 -78.5 -36t-26.5 -96v-254h-114v476h114v-62q18 33 56.5 53t91.5 20q87 0 131 -59q32 -47 32 -159zM272 680h135l-101 -128h-98z" />
    <glyph glyph-name="uni0145" unicode="&#x145;" horiz-adv-x="696" 
d="M295 -58h121v-45q0 -34 -1.5 -54t-8 -43.5t-19 -35.5t-35.5 -21t-57 -10v52q30 1 42.5 14t12.5 40v2h-55v101zM190 680l184 -276q88 -134 130 -206h1q-6 80 -6 254v228h119v-680h-112l-193 295q-37 56 -119 194h-1q0 -4 2 -103t2 -159v-227h-119v680h112z" />
    <glyph glyph-name="uni0146" unicode="&#x146;" horiz-adv-x="555" 
d="M493 269v-269h-114v240q0 64 -8 91q-17 55 -84 55q-52 0 -78.5 -36t-26.5 -96v-254h-114v476h114v-62q18 33 56.5 53t91.5 20q87 0 131 -59q32 -47 32 -159zM220 -58h121v-45q0 -34 -1.5 -54t-8 -43.5t-19 -35.5t-35.5 -21t-57 -10v52q30 1 42.5 14t12.5 40v2h-55v101z
" />
    <glyph glyph-name="Ncaron" unicode="&#x147;" horiz-adv-x="696" 
d="M190 680l184 -276q88 -134 130 -206h1q-6 80 -6 254v228h119v-680h-112l-193 295q-37 56 -119 194h-1q0 -4 2 -103t2 -159v-227h-119v680h112zM303 879l51 -50l53 50h105l-119 -128h-76l-118 128h104z" />
    <glyph glyph-name="ncaron" unicode="&#x148;" horiz-adv-x="555" 
d="M493 269v-269h-114v240q0 64 -8 91q-17 55 -84 55q-52 0 -78.5 -36t-26.5 -96v-254h-114v476h114v-62q18 33 56.5 53t91.5 20q87 0 131 -59q32 -47 32 -159zM245 680l51 -50l53 50h105l-119 -128h-76l-118 128h104z" />
    <glyph glyph-name="napostrophe" unicode="&#x149;" horiz-adv-x="582" 
d="M520 269v-269h-114v240q0 64 -8 91q-17 55 -84 55q-52 0 -78.5 -36t-26.5 -96v-254h-114v476h114v-62q18 33 56.5 53t91.5 20q87 0 131 -59q32 -47 32 -159zM-3 680h121v-45q0 -34 -1.5 -54t-8 -43.5t-19 -35.5t-35.5 -21t-57 -10v52q30 1 42.5 14t12.5 40v2h-55v101z
" />
    <glyph glyph-name="Eng" unicode="&#x14a;" horiz-adv-x="696" 
d="M190 680l184 -276q88 -134 130 -206h1q-6 80 -6 254v228h119v-680q0 -84 -29 -126q-53 -71 -184 -71q-55 0 -76 6v107q27 -6 63 -6q64 0 87 27q17 20 22 73l-188 285q-37 56 -119 194h-1q0 -4 2 -103t2 -159v-227h-119v680h112z" />
    <glyph glyph-name="eng" unicode="&#x14b;" horiz-adv-x="555" 
d="M493 270v-287q0 -83 -11 -116q-28 -67 -135 -67h-32q-24 0 -43 1v95q67 0 87 15.5t20 71.5v258q0 64 -8 91q-17 55 -84 55q-52 0 -78.5 -36t-26.5 -96v-255h-114v476h114v-61q18 33 56.5 53t91.5 20q87 0 131 -59q32 -47 32 -159z" />
    <glyph glyph-name="Omacron" unicode="&#x14c;" horiz-adv-x="724" 
d="M40 340q0 157 88 254.5t234 97.5t234 -97.5t88 -254.5q0 -159 -84.5 -255.5t-237.5 -96.5q-151 0 -236.5 97t-85.5 255zM171 340q0 -112 51 -177.5t140 -65.5t140 65.5t51 177.5t-51 178.5t-140 66.5t-140 -66.5t-51 -178.5zM218 769v93h292v-93h-292z" />
    <glyph glyph-name="omacron" unicode="&#x14d;" horiz-adv-x="548" 
d="M36 236q0 115 65 183t173 68t173 -68t65 -183q0 -114 -64 -181t-174 -67t-174 67t-64 181zM149 238q0 -71 34.5 -111.5t90.5 -40.5t90.5 41t34.5 111q0 71 -33.5 111.5t-91.5 40.5t-91.5 -40.5t-33.5 -111.5zM129 567v93h292v-93h-292z" />
    <glyph glyph-name="Obreve" unicode="&#x14e;" horiz-adv-x="724" 
d="M40 340q0 157 88 254.5t234 97.5t234 -97.5t88 -254.5q0 -159 -84.5 -255.5t-237.5 -96.5q-151 0 -236.5 97t-85.5 255zM171 340q0 -112 51 -177.5t140 -65.5t140 65.5t51 177.5t-51 178.5t-140 66.5t-140 -66.5t-51 -178.5zM362 739q-72 0 -110.5 34t-38.5 117h81
q0 -54 17 -69t51 -15q17 0 27 2t20.5 10t15.5 26t5 46h81q0 -83 -38.5 -117t-110.5 -34z" />
    <glyph glyph-name="obreve" unicode="&#x14f;" horiz-adv-x="548" 
d="M36 236q0 115 65 183t173 68t173 -68t65 -183q0 -114 -64 -181t-174 -67t-174 67t-64 181zM149 238q0 -71 34.5 -111.5t90.5 -40.5t90.5 41t34.5 111q0 71 -33.5 111.5t-91.5 40.5t-91.5 -40.5t-33.5 -111.5zM276 529q-72 0 -110.5 34t-38.5 117h81q0 -54 17 -69t51 -15
q17 0 27 2t20.5 10t15.5 26t5 46h81q0 -83 -38.5 -117t-110.5 -34z" />
    <glyph glyph-name="Ohungarumlaut" unicode="&#x150;" horiz-adv-x="724" 
d="M40 340q0 157 88 254.5t234 97.5t234 -97.5t88 -254.5q0 -159 -84.5 -255.5t-237.5 -96.5q-151 0 -236.5 97t-85.5 255zM171 340q0 -112 51 -177.5t140 -65.5t140 65.5t51 177.5t-51 178.5t-140 66.5t-140 -66.5t-51 -178.5zM447 880h135l-101 -128h-98zM270 880h135
l-101 -128h-98z" />
    <glyph glyph-name="ohungarumlaut" unicode="&#x151;" horiz-adv-x="548" 
d="M36 236q0 115 65 183t173 68t173 -68t65 -183q0 -114 -64 -181t-174 -67t-174 67t-64 181zM149 238q0 -71 34.5 -111.5t90.5 -40.5t90.5 41t34.5 111q0 71 -33.5 111.5t-91.5 40.5t-91.5 -40.5t-33.5 -111.5zM372 680h135l-101 -128h-98zM195 680h135l-101 -128h-98z" />
    <glyph glyph-name="OE" unicode="&#x152;" horiz-adv-x="991" 
d="M957 0h-468q-51 -12 -112 -12q-158 0 -247.5 97t-89.5 255q0 157 91.5 254.5t245.5 97.5q65 0 109 -12h446v-107h-338v-168h305v-107h-305v-191h363v-107zM171 340q0 -112 53.5 -177.5t147.5 -65.5q64 0 104 18v451q-47 19 -104 19q-93 0 -147 -66.5t-54 -178.5z" />
    <glyph glyph-name="oe" unicode="&#x153;" horiz-adv-x="882" 
d="M767 168l79 -60q-80 -120 -224 -120q-105 0 -172 69q-67 -69 -176 -69q-110 0 -174 67t-64 181q0 115 65 183t173 68q112 0 175 -71q68 71 170 71q107 0 166 -71.5t59 -184.5q0 -4 -0.5 -12t-0.5 -12h-347q7 -53 40 -87t93 -34q30 0 54.5 8.5t42 24.5t24.5 25t17 24z
M149 238q0 -71 34.5 -111.5t90.5 -40.5t90.5 41t34.5 111q0 71 -33.5 111.5t-91.5 40.5t-91.5 -40.5t-33.5 -111.5zM619 396q-48 0 -83 -30.5t-37 -73.5h232q-2 47 -33 75.5t-79 28.5z" />
    <glyph glyph-name="Racute" unicode="&#x154;" horiz-adv-x="645" 
d="M321 272h-123v-272h-120v680h249q39 0 61 -1t54 -8.5t56 -21.5q97 -57 97 -174q0 -108 -90 -167q-3 -2 -53 -24l170 -284h-143zM198 574v-194h129q66 0 96 13q48 23 48 85q0 63 -48 83q-30 13 -96 13h-129zM317 889h140l-109 -145h-98z" />
    <glyph glyph-name="racute" unicode="&#x155;" horiz-adv-x="358" 
d="M68 476h114v-70q9 27 44 54t95 27q7 0 18 -1v-116q-22 2 -32 2q-87 0 -112 -64q-13 -35 -13 -94v-214h-114v476zM184 680h135l-101 -128h-98z" />
    <glyph glyph-name="uni0156" unicode="&#x156;" horiz-adv-x="645" 
d="M321 272h-123v-272h-120v680h249q39 0 61 -1t54 -8.5t56 -21.5q97 -57 97 -174q0 -108 -90 -167q-3 -2 -53 -24l170 -284h-143zM198 574v-194h129q66 0 96 13q48 23 48 85q0 63 -48 83q-30 13 -96 13h-129zM252 -58h121v-45q0 -34 -1.5 -54t-8 -43.5t-19 -35.5t-35.5 -21
t-57 -10v52q30 1 42.5 14t12.5 40v2h-55v101z" />
    <glyph glyph-name="uni0157" unicode="&#x157;" horiz-adv-x="358" 
d="M68 476h114v-70q9 27 44 54t95 27q7 0 18 -1v-116q-22 2 -32 2q-87 0 -112 -64q-13 -35 -13 -94v-214h-114v476zM66 -58h121v-45q0 -34 -1.5 -54t-8 -43.5t-19 -35.5t-35.5 -21t-57 -10v52q30 1 42.5 14t12.5 40v2h-55v101z" />
    <glyph glyph-name="Rcaron" unicode="&#x158;" horiz-adv-x="645" 
d="M321 272h-123v-272h-120v680h249q39 0 61 -1t54 -8.5t56 -21.5q97 -57 97 -174q0 -108 -90 -167q-3 -2 -53 -24l170 -284h-143zM198 574v-194h129q66 0 96 13q48 23 48 85q0 63 -48 83q-30 13 -96 13h-129zM275 879l51 -50l53 50h105l-119 -128h-76l-118 128h104z" />
    <glyph glyph-name="rcaron" unicode="&#x159;" horiz-adv-x="358" 
d="M68 476h114v-70q9 27 44 54t95 27q7 0 18 -1v-116q-22 2 -32 2q-87 0 -112 -64q-13 -35 -13 -94v-214h-114v476zM152 680l51 -50l53 50h105l-119 -128h-76l-118 128h104z" />
    <glyph glyph-name="Sacute" unicode="&#x15a;" horiz-adv-x="622" 
d="M572 579l-91 -74q-68 82 -176 82q-58 0 -91.5 -25.5t-33.5 -65.5q0 -37 24.5 -55t85.5 -31l82 -18q109 -25 164 -66.5t55 -127.5q0 -95 -73.5 -152.5t-199.5 -57.5q-103 0 -179 41t-117 98l100 72q27 -42 81 -73t121 -31t102.5 25t35.5 67q0 37 -29 56t-87 32l-91 20
q-95 21 -149.5 65t-54.5 130q0 92 72.5 147t185.5 55q155 0 263 -113zM328 889h140l-109 -145h-98z" />
    <glyph glyph-name="sacute" unicode="&#x15b;" horiz-adv-x="483" 
d="M436 412l-66 -71q-55 53 -134 53q-35 0 -56.5 -12t-21.5 -34q0 -23 20.5 -33t79.5 -22l57 -13q64 -14 100.5 -43t36.5 -88q0 -77 -60.5 -119t-147.5 -42q-78 0 -135 29.5t-85 67.5l77 68q53 -71 146 -71q90 0 90 54q0 16 -10 25.5t-21.5 13t-41.5 10.5l-71 15
q-70 16 -109 48t-39 92q0 72 57.5 109.5t134.5 37.5q65 0 118.5 -22.5t80.5 -52.5zM241 680h135l-101 -128h-98z" />
    <glyph glyph-name="Scircumflex" unicode="&#x15c;" horiz-adv-x="622" 
d="M572 579l-91 -74q-68 82 -176 82q-58 0 -91.5 -25.5t-33.5 -65.5q0 -37 24.5 -55t85.5 -31l82 -18q109 -25 164 -66.5t55 -127.5q0 -95 -73.5 -152.5t-199.5 -57.5q-103 0 -179 41t-117 98l100 72q27 -42 81 -73t121 -31t102.5 25t35.5 67q0 37 -29 56t-87 32l-91 20
q-95 21 -149.5 65t-54.5 130q0 92 72.5 147t185.5 55q155 0 263 -113zM316 801l-51 -50h-104l118 128h76l119 -128h-105z" />
    <glyph glyph-name="scircumflex" unicode="&#x15d;" horiz-adv-x="483" 
d="M436 412l-66 -71q-55 53 -134 53q-35 0 -56.5 -12t-21.5 -34q0 -23 20.5 -33t79.5 -22l57 -13q64 -14 100.5 -43t36.5 -88q0 -77 -60.5 -119t-147.5 -42q-78 0 -135 29.5t-85 67.5l77 68q53 -71 146 -71q90 0 90 54q0 16 -10 25.5t-21.5 13t-41.5 10.5l-71 15
q-70 16 -109 48t-39 92q0 72 57.5 109.5t134.5 37.5q65 0 118.5 -22.5t80.5 -52.5zM245 602l-51 -50h-104l118 128h76l119 -128h-105z" />
    <glyph glyph-name="Scedilla" unicode="&#x15e;" horiz-adv-x="622" 
d="M572 579l-91 -74q-68 82 -176 82q-58 0 -91.5 -25.5t-33.5 -65.5q0 -37 24.5 -55t85.5 -31l82 -18q109 -25 164 -66.5t55 -127.5q0 -93 -70.5 -150.5t-191.5 -59.5l-22 -21q37 -1 60 -20t23 -56q0 -42 -30.5 -65.5t-72.5 -23.5q-31 0 -56 12l15 46q17 -7 38 -7
q18 0 29.5 8.5t11.5 23.5q0 31 -40 31q-18 0 -37 -10l-23 42l47 43q-85 8 -149.5 47t-100.5 89l100 72q27 -42 81 -73t121 -31t102.5 25t35.5 67q0 37 -29 56t-87 32l-91 20q-95 21 -149.5 65t-54.5 130q0 92 72.5 147t185.5 55q155 0 263 -113z" />
    <glyph glyph-name="scedilla" unicode="&#x15f;" horiz-adv-x="483" 
d="M436 412l-66 -71q-55 53 -134 53q-35 0 -56.5 -12t-21.5 -34q0 -23 20.5 -33t79.5 -22l57 -13q64 -14 100.5 -43t36.5 -88q0 -74 -54 -115t-135 -45l-23 -22q37 -1 60 -20t23 -56q0 -42 -30.5 -65.5t-72.5 -23.5q-30 0 -56 12l15 46q17 -7 38 -7q18 0 29.5 8.5t11.5 23.5
q0 31 -40 31q-18 0 -37 -10l-23 42l47 42q-64 8 -112.5 35.5t-68.5 59.5l77 68q53 -71 146 -71q90 0 90 54q0 16 -10 25.5t-21.5 13t-41.5 10.5l-71 15q-70 16 -109 48t-39 92q0 72 57.5 109.5t134.5 37.5q65 0 118.5 -22.5t80.5 -52.5z" />
    <glyph glyph-name="Scaron" unicode="&#x160;" horiz-adv-x="622" 
d="M572 579l-91 -74q-68 82 -176 82q-58 0 -91.5 -25.5t-33.5 -65.5q0 -37 24.5 -55t85.5 -31l82 -18q109 -25 164 -66.5t55 -127.5q0 -95 -73.5 -152.5t-199.5 -57.5q-103 0 -179 41t-117 98l100 72q27 -42 81 -73t121 -31t102.5 25t35.5 67q0 37 -29 56t-87 32l-91 20
q-95 21 -149.5 65t-54.5 130q0 92 72.5 147t185.5 55q155 0 263 -113zM272 879l51 -50l53 50h105l-119 -128h-76l-118 128h104z" />
    <glyph glyph-name="scaron" unicode="&#x161;" horiz-adv-x="483" 
d="M436 412l-66 -71q-55 53 -134 53q-35 0 -56.5 -12t-21.5 -34q0 -23 20.5 -33t79.5 -22l57 -13q64 -14 100.5 -43t36.5 -88q0 -77 -60.5 -119t-147.5 -42q-78 0 -135 29.5t-85 67.5l77 68q53 -71 146 -71q90 0 90 54q0 16 -10 25.5t-21.5 13t-41.5 10.5l-71 15
q-70 16 -109 48t-39 92q0 72 57.5 109.5t134.5 37.5q65 0 118.5 -22.5t80.5 -52.5zM199 680l51 -50l53 50h105l-119 -128h-76l-118 128h104z" />
    <glyph glyph-name="Tcommaaccent" unicode="&#x162;" horiz-adv-x="549" 
d="M16 573v107h517v-107h-198v-573h-26l-35 -33q37 -1 60 -20t23 -56q0 -42 -30.5 -65.5t-72.5 -23.5q-30 0 -56 12l15 46q17 -7 38 -7q18 0 29.5 8.5t11.5 23.5q0 31 -40 31q-18 0 -37 -10l-23 42l58 52h-35v573h-199z" />
    <glyph glyph-name="tcommaaccent" unicode="&#x163;" horiz-adv-x="372" 
d="M342 86v-90q-37 -8 -82 -8l-22 -21q37 -1 60 -20t23 -56q0 -42 -30.5 -65.5t-72.5 -23.5q-30 0 -56 12l15 46q17 -7 38 -7q18 0 29.5 8.5t11.5 23.5q0 31 -40 31q-18 0 -37 -10l-23 42l50 45q-47 8 -69 36q-13 16 -16.5 36t-3.5 60v262h-102v89h102v166l114 25v-191h111
v-89h-111v-243q0 -36 13 -49q11 -13 48 -13q34 0 50 4z" />
    <glyph glyph-name="Tcaron" unicode="&#x164;" horiz-adv-x="549" 
d="M16 573v107h517v-107h-198v-573h-120v573h-199zM223 879l51 -50l53 50h105l-119 -128h-76l-118 128h104z" />
    <glyph glyph-name="tcaron" unicode="&#x165;" horiz-adv-x="372" 
d="M342 86v-90q-37 -8 -85 -8q-85 0 -120 41q-13 16 -16.5 36t-3.5 60v262h-102v89h102v166l114 25v-191h111v-89h-111v-243q0 -36 13 -49q11 -13 48 -13q34 0 50 4zM305 680h131l-65 -128h-94z" />
    <glyph glyph-name="Tbar" unicode="&#x166;" horiz-adv-x="557" 
d="M463 376h-124v-376h-120v376h-124v85h124v112h-199v107h517v-107h-198v-112h124v-85z" />
    <glyph glyph-name="tbar" unicode="&#x167;" horiz-adv-x="383" 
d="M349 86v-90q-37 -8 -85 -8q-85 0 -120 41q-13 16 -16.5 36t-3.5 60v113h-102v77h102v72h-102v89h102v166l114 25v-191h111v-89h-111v-72h111v-77h-111v-94q0 -36 13 -49q11 -13 48 -13q34 0 50 4z" />
    <glyph glyph-name="Utilde" unicode="&#x168;" horiz-adv-x="672" 
d="M336 99q97 0 130 70q15 38 15 115v396h119v-398q0 -124 -35 -188q-64 -106 -229 -106t-229 106q-35 64 -35 188v398h119v-396q0 -84 15 -115q33 -70 130 -70zM434 868l69 -24q-31 -99 -105 -99q-31 0 -69 18l-12 6q-31 18 -47 18q-24 0 -34 -42l-67 23q27 100 101 100
q32 0 70 -19l12 -6q31 -18 46 -18q23 0 36 43z" />
    <glyph glyph-name="utilde" unicode="&#x169;" horiz-adv-x="545" 
d="M62 173v303h114v-265q0 -61 18.5 -91.5t67.5 -30.5q52 0 76.5 35.5t24.5 95.5v256h114v-476h-114v61q-19 -32 -55.5 -52.5t-87.5 -20.5q-28 0 -52.5 7t-50 25t-40.5 57t-15 96zM384 677l69 -24q-31 -99 -105 -99q-31 0 -69 18l-12 6q-31 18 -47 18q-24 0 -34 -42l-67 23
q27 100 101 100q32 0 70 -19l12 -6q31 -18 46 -18q23 0 36 43z" />
    <glyph glyph-name="Umacron" unicode="&#x16a;" horiz-adv-x="672" 
d="M336 99q97 0 130 70q15 38 15 115v396h119v-398q0 -124 -35 -188q-64 -106 -229 -106t-229 106q-35 64 -35 188v398h119v-396q0 -84 15 -115q33 -70 130 -70zM193 769v93h292v-93h-292z" />
    <glyph glyph-name="umacron" unicode="&#x16b;" horiz-adv-x="545" 
d="M62 173v303h114v-265q0 -61 18.5 -91.5t67.5 -30.5q52 0 76.5 35.5t24.5 95.5v256h114v-476h-114v61q-19 -32 -55.5 -52.5t-87.5 -20.5q-28 0 -52.5 7t-50 25t-40.5 57t-15 96zM134 567v93h292v-93h-292z" />
    <glyph glyph-name="Ubreve" unicode="&#x16c;" horiz-adv-x="672" 
d="M336 99q97 0 130 70q15 38 15 115v396h119v-398q0 -124 -35 -188q-64 -106 -229 -106t-229 106q-35 64 -35 188v398h119v-396q0 -84 15 -115q33 -70 130 -70zM336 739q-72 0 -110.5 34t-38.5 117h81q0 -54 17 -69t51 -15q17 0 27 2t20.5 10t15.5 26t5 46h81
q0 -83 -38.5 -117t-110.5 -34z" />
    <glyph glyph-name="ubreve" unicode="&#x16d;" horiz-adv-x="545" 
d="M62 173v303h114v-265q0 -61 18.5 -91.5t67.5 -30.5q52 0 76.5 35.5t24.5 95.5v256h114v-476h-114v61q-19 -32 -55.5 -52.5t-87.5 -20.5q-28 0 -52.5 7t-50 25t-40.5 57t-15 96zM276 529q-72 0 -110.5 34t-38.5 117h81q0 -54 17 -69t51 -15q17 0 27 2t20.5 10t15.5 26
t5 46h81q0 -83 -38.5 -117t-110.5 -34z" />
    <glyph glyph-name="Uring" unicode="&#x16e;" horiz-adv-x="672" 
d="M336 99q97 0 130 70q15 38 15 115v396h119v-398q0 -124 -35 -188q-64 -106 -229 -106t-229 106q-35 64 -35 188v398h119v-396q0 -84 15 -115q33 -70 130 -70zM234 807q0 42 28.5 70t70.5 28t70.5 -28t28.5 -70t-28.5 -70t-70.5 -28t-70.5 28t-28.5 70zM293 807
q0 -17 11.5 -28t27.5 -11t27.5 11t11.5 28t-11.5 28t-27.5 11t-27.5 -11t-11.5 -28z" />
    <glyph glyph-name="uring" unicode="&#x16f;" horiz-adv-x="545" 
d="M62 173v303h114v-265q0 -61 18.5 -91.5t67.5 -30.5q52 0 76.5 35.5t24.5 95.5v256h114v-476h-114v61q-19 -32 -55.5 -52.5t-87.5 -20.5q-28 0 -52.5 7t-50 25t-40.5 57t-15 96zM174 610q0 42 28.5 70t70.5 28t70.5 -28t28.5 -70t-28.5 -70t-70.5 -28t-70.5 28t-28.5 70z
M233 610q0 -17 11.5 -28t27.5 -11t27.5 11t11.5 28t-11.5 28t-27.5 11t-27.5 -11t-11.5 -28z" />
    <glyph glyph-name="Uhungarumlaut" unicode="&#x170;" horiz-adv-x="672" 
d="M336 99q97 0 130 70q15 38 15 115v396h119v-398q0 -124 -35 -188q-64 -106 -229 -106t-229 106q-35 64 -35 188v398h119v-396q0 -84 15 -115q33 -70 130 -70zM421 880h135l-101 -128h-98zM244 880h135l-101 -128h-98z" />
    <glyph glyph-name="uhungarumlaut" unicode="&#x171;" horiz-adv-x="545" 
d="M62 173v303h114v-265q0 -61 18.5 -91.5t67.5 -30.5q52 0 76.5 35.5t24.5 95.5v256h114v-476h-114v61q-19 -32 -55.5 -52.5t-87.5 -20.5q-28 0 -52.5 7t-50 25t-40.5 57t-15 96zM363 680h135l-101 -128h-98zM186 680h135l-101 -128h-98z" />
    <glyph glyph-name="Uogonek" unicode="&#x172;" horiz-adv-x="672" 
d="M371 -120l27 -61q-36 -17 -66 -17q-37 0 -64.5 23t-27.5 65q0 54 54 100q-132 13 -187 104q-35 64 -35 188v398h119v-396q0 -84 15 -115q33 -70 130 -70t130 70q15 38 15 115v396h119v-398q0 -124 -35 -188q-57 -93 -189 -104q-60 -54 -60 -90q0 -29 27 -29q15 0 28 9z
" />
    <glyph glyph-name="uogonek" unicode="&#x173;" horiz-adv-x="545" 
d="M460 -120l27 -61q-36 -17 -66 -17q-37 0 -64.5 23t-27.5 65q0 61 67 110h-33v61q-19 -32 -55.5 -52.5t-87.5 -20.5q-28 0 -52.5 7t-50 25t-40.5 57t-15 96v303h114v-265q0 -61 18.5 -91.5t67.5 -30.5q52 0 76.5 35.5t24.5 95.5v256h114v-476q-72 -61 -72 -100
q0 -29 27 -29q14 0 28 9z" />
    <glyph glyph-name="Wcircumflex" unicode="&#x174;" horiz-adv-x="871" 
d="M502 680l94 -446q18 -70 18 -99l19 105l89 440h124l-151 -680h-156l-79 356l-17 92l-7 48l-11 -48l-17 -92l-76 -356h-158l-148 680h128l84 -445q2 -8 7 -41.5t10 -53.5q2 9 9 44t11 51l93 445h134zM434 801l-51 -50h-104l118 128h76l119 -128h-105z" />
    <glyph glyph-name="wcircumflex" unicode="&#x175;" horiz-adv-x="713" 
d="M444 0l-50 182q-25 89 -36 159h-1q-36 -156 -38 -161l-53 -180h-113l-137 476h116l56 -210q26 -103 32 -134h1q12 61 32 137l55 207h101l55 -210q27 -102 32 -134h1q5 27 33 137l56 207h114l-145 -476h-111zM356 602l-51 -50h-104l118 128h76l119 -128h-105z" />
    <glyph glyph-name="Ycircumflex" unicode="&#x176;" horiz-adv-x="622" 
d="M369 278v-278h-120v278l-247 402h139l174 -291l177 291h138zM313 801l-51 -50h-104l118 128h76l119 -128h-105z" />
    <glyph glyph-name="ycircumflex" unicode="&#x177;" horiz-adv-x="458" 
d="M326 476h112l-159 -533q-23 -75 -50 -104q-34 -37 -111 -37q-32 0 -62 6v93q20 -5 39 -5q35 0 50.5 14t25.5 46l8 29l-171 491h121l78 -257q7 -22 18 -65l8 -33h1q5 24 7 32q7 33 17 66zM231 602l-51 -50h-104l118 128h76l119 -128h-105z" />
    <glyph glyph-name="Ydieresis" unicode="&#x178;" horiz-adv-x="622" 
d="M369 278v-278h-120v278l-247 402h139l174 -291l177 291h138zM169 762v109h108v-109h-108zM353 762v109h108v-109h-108z" />
    <glyph glyph-name="Zacute" unicode="&#x179;" horiz-adv-x="575" 
d="M541 109v-109h-512v99l360 473h-343v108h493v-98l-358 -473h360zM290 889h140l-109 -145h-98z" />
    <glyph glyph-name="zacute" unicode="&#x17a;" horiz-adv-x="476" 
d="M43 476h395v-89l-254 -287h254v-100h-404v88l258 288h-249v100zM241 680h135l-101 -128h-98z" />
    <glyph glyph-name="Zdotaccent" unicode="&#x17b;" horiz-adv-x="575" 
d="M541 109v-109h-512v99l360 473h-343v108h493v-98l-358 -473h360zM241 760v109h111v-109h-111z" />
    <glyph glyph-name="zdotaccent" unicode="&#x17c;" horiz-adv-x="476" 
d="M43 476h395v-89l-254 -287h254v-100h-404v88l258 288h-249v100zM185 554v109h111v-109h-111z" />
    <glyph glyph-name="Zcaron" unicode="&#x17d;" horiz-adv-x="575" 
d="M541 109v-109h-512v99l360 473h-343v108h493v-98l-358 -473h360zM234 879l51 -50l53 50h105l-119 -128h-76l-118 128h104z" />
    <glyph glyph-name="zcaron" unicode="&#x17e;" horiz-adv-x="476" 
d="M43 476h395v-89l-254 -287h254v-100h-404v88l258 288h-249v100zM188 680l51 -50l53 50h105l-119 -128h-76l-118 128h104z" />
    <glyph glyph-name="longs" unicode="&#x17f;" horiz-adv-x="284" 
d="M216 526v-526h-114v387h-84v89h84v59q0 53 14 89q28 66 139 66q47 0 75 -5v-92q-26 2 -41 2q-49 0 -63 -19q-10 -13 -10 -50z" />
    <glyph glyph-name="uni018F" unicode="&#x18f;" horiz-adv-x="724" 
d="M136 463l-91 69q17 25 39 47.5t59.5 50.5t92 45t117.5 17q151 0 241 -97.5t90 -259.5q0 -154 -92.5 -249.5t-234.5 -95.5q-155 0 -236 97t-81 256q0 11 1 28h513q-4 91 -61 151t-154 60q-128 0 -203 -119zM357 94q85 0 137 52t56 129h-376q4 -81 54 -131t129 -50z" />
    <glyph glyph-name="florin" unicode="&#x192;" 
d="M43 -185l36 96q31 -9 58 -9q30 0 40.5 16t17.5 57l70 388h-97l16 101h96l21 110q12 63 40.5 90t82.5 27q53 0 118 -21l-23 -95q-46 10 -64 10q-16 0 -25.5 -3.5t-15.5 -14t-8 -19t-6 -28.5l-11 -56h101l-15 -101h-101l-78 -432q-12 -68 -44.5 -100.5t-96.5 -32.5
q-63 0 -112 17z" />
    <glyph glyph-name="Aringacute" unicode="&#x1fa;" horiz-adv-x="615" 
d="M177 159l-54 -159h-120l237 680h136l235 -680h-124l-53 159h-257zM400 261l-46 155l-48 161h-1l-50 -169l-45 -147h190zM208 807q0 42 28.5 70t70.5 28t70.5 -28t28.5 -70t-28.5 -70t-70.5 -28t-70.5 28t-28.5 70zM267 807q0 -17 11.5 -28t27.5 -11t27.5 11t11.5 28
t-11.5 28t-27.5 11t-27.5 -11t-11.5 -28zM319 1077h140l-109 -145h-98z" />
    <glyph glyph-name="aringacute" unicode="&#x1fb;" horiz-adv-x="516" 
d="M450 340v-235q0 -22 5.5 -30.5t22.5 -8.5h7v-69q-26 -6 -58 -6q-68 0 -79 49q-52 -52 -143 -52q-78 0 -124 37t-46 108q0 34 11 58.5t28 40.5t49.5 28t62.5 19t80 15l36 6q22 4 30 10.5t8 21.5v4q0 61 -86 61q-94 0 -96 -81l-107 3q0 84 57 124.5t151 40.5
q191 0 191 -144zM234 73q47 0 76.5 24.5t29.5 72.5v59q-22 -10 -41 -14l-65 -13q-44 -9 -63 -23.5t-19 -42.5q0 -63 82 -63zM160 610q0 42 28.5 70t70.5 28t70.5 -28t28.5 -70t-28.5 -70t-70.5 -28t-70.5 28t-28.5 70zM219 610q0 -17 11.5 -28t27.5 -11t27.5 11t11.5 28
t-11.5 28t-27.5 11t-27.5 -11t-11.5 -28zM276 873h140l-109 -145h-98z" />
    <glyph glyph-name="AEacute" unicode="&#x1fc;" horiz-adv-x="954" 
d="M382 680h514v-107h-330v-168h299v-107h-299v-191h352v-107h-472v164h-243l-97 -164h-128zM446 261l1 134q2 178 2 198h-2q-11 -22 -67 -120l-122 -212h188zM624 889h140l-109 -145h-98z" />
    <glyph glyph-name="aeacute" unicode="&#x1fd;" horiz-adv-x="826" 
d="M393 60q-72 -72 -188 -72q-78 0 -124 37t-46 108q0 34 11 58.5t28 40.5t49.5 28t62.5 19t80 15l36 6q22 4 30 10.5t8 21.5v4q0 62 -86 62q-95 0 -96 -82l-107 3q0 85 57 125.5t151 40.5q107 0 154 -53q66 55 151 55q107 0 165 -71t58 -185q0 -4 -0.5 -12t-0.5 -12h-343
q7 -53 39 -87t92 -34q30 0 54 8t41 25t23.5 25t17.5 24l79 -60q-80 -120 -222 -120q-59 0 -106.5 23t-67.5 49zM234 73q47 0 76.5 24.5t29.5 72.5v59q-22 -10 -41 -14l-65 -13q-44 -9 -63 -23.5t-19 -42.5q0 -63 82 -63zM564 396q-53 0 -84.5 -29.5t-33.5 -74.5h228
q-2 47 -31.5 75.5t-78.5 28.5zM404 680h135l-101 -128h-98z" />
    <glyph glyph-name="Oslashacute" unicode="&#x1fe;" horiz-adv-x="740" 
d="M50 340q0 157 88 254.5t234 97.5q108 0 184 -54l73 82l79 -73l-76 -85q62 -93 62 -222q0 -159 -84.5 -255.5t-237.5 -96.5q-119 0 -197 60l-72 -80l-81 72l80 89q-52 86 -52 211zM563 340q0 67 -20 121l-288 -323q47 -41 117 -41q89 0 140 65.5t51 177.5zM181 340
q0 -56 14 -106l283 317q-44 34 -106 34q-89 0 -140 -66.5t-51 -178.5zM385 889h140l-109 -145h-98z" />
    <glyph glyph-name="oslashacute" unicode="&#x1ff;" horiz-adv-x="557" 
d="M278 -12q-60 0 -111 23l-44 -58l-82 64l46 59q-47 62 -47 160q0 115 65 183t173 68q61 0 109 -22l54 70l79 -64l-54 -70q50 -67 50 -165q0 -114 -64 -181t-174 -67zM153 238q0 -36 9 -64l161 208q-24 8 -45 8q-58 0 -91.5 -40.5t-33.5 -111.5zM403 238q0 41 -10 67
l-161 -210q21 -9 46 -9q56 0 90.5 41t34.5 111zM288 680h135l-101 -128h-98z" />
    <glyph glyph-name="uni0218" unicode="&#x218;" horiz-adv-x="622" 
d="M572 579l-91 -74q-68 82 -176 82q-58 0 -91.5 -25.5t-33.5 -65.5q0 -37 24.5 -55t85.5 -31l82 -18q109 -25 164 -66.5t55 -127.5q0 -95 -73.5 -152.5t-199.5 -57.5q-103 0 -179 41t-117 98l100 72q27 -42 81 -73t121 -31t102.5 25t35.5 67q0 37 -29 56t-87 32l-91 20
q-95 21 -149.5 65t-54.5 130q0 92 72.5 147t185.5 55q155 0 263 -113zM259 -58h121v-45q0 -34 -1.5 -54t-8 -43.5t-19 -35.5t-35.5 -21t-57 -10v52q30 1 42.5 14t12.5 40v2h-55v101z" />
    <glyph glyph-name="uni0219" unicode="&#x219;" horiz-adv-x="483" 
d="M436 412l-66 -71q-55 53 -134 53q-35 0 -56.5 -12t-21.5 -34q0 -23 20.5 -33t79.5 -22l57 -13q64 -14 100.5 -43t36.5 -88q0 -77 -60.5 -119t-147.5 -42q-78 0 -135 29.5t-85 67.5l77 68q53 -71 146 -71q90 0 90 54q0 16 -10 25.5t-21.5 13t-41.5 10.5l-71 15
q-70 16 -109 48t-39 92q0 72 57.5 109.5t134.5 37.5q65 0 118.5 -22.5t80.5 -52.5zM183 -58h121v-45q0 -34 -1.5 -54t-8 -43.5t-19 -35.5t-35.5 -21t-57 -10v52q30 1 42.5 14t12.5 40v2h-55v101z" />
    <glyph glyph-name="uni021A" unicode="&#x21a;" horiz-adv-x="549" 
d="M16 573v107h517v-107h-198v-573h-120v573h-199zM215 -58h121v-45q0 -34 -1.5 -54t-8 -43.5t-19 -35.5t-35.5 -21t-57 -10v52q30 1 42.5 14t12.5 40v2h-55v101z" />
    <glyph glyph-name="uni021B" unicode="&#x21b;" horiz-adv-x="372" 
d="M342 86v-90q-37 -8 -85 -8q-85 0 -120 41q-13 16 -16.5 36t-3.5 60v262h-102v89h102v166l114 25v-191h111v-89h-111v-243q0 -36 13 -49q11 -13 48 -13q34 0 50 4zM154 -58h121v-45q0 -34 -1.5 -54t-8 -43.5t-19 -35.5t-35.5 -21t-57 -10v52q30 1 42.5 14t12.5 40v2h-55
v101z" />
    <glyph glyph-name="uni0237" unicode="&#x237;" horiz-adv-x="258" 
d="M76 476h114v-522q0 -64 -9 -86q-27 -67 -151 -67q-16 0 -31 1v95q47 0 62 12t15 45v522z" />
    <glyph glyph-name="uni0259" unicode="&#x259;" horiz-adv-x="533" 
d="M116 307l-79 60q80 120 224 120q106 0 171.5 -69t65.5 -185q0 -109 -67 -177t-167 -68q-110 0 -167.5 68t-57.5 183q0 4 0.5 14.5t0.5 14.5h347q-7 52 -40 86.5t-92 34.5q-30 0 -55 -8.5t-42.5 -24.5t-24.5 -25t-17 -24zM264 79q53 0 85.5 30t34.5 74h-232
q2 -47 32.5 -75.5t79.5 -28.5z" />
    <glyph glyph-name="circumflex" unicode="&#x2c6;" horiz-adv-x="500" 
d="M248 602l-51 -50h-104l118 128h76l119 -128h-105z" />
    <glyph glyph-name="caron" unicode="&#x2c7;" horiz-adv-x="500" 
d="M197 680l51 -50l53 50h105l-119 -128h-76l-118 128h104z" />
    <glyph glyph-name="breve" unicode="&#x2d8;" horiz-adv-x="500" 
d="M252 529q-72 0 -110.5 34t-38.5 117h81q0 -54 17 -69t51 -15q17 0 27 2t20.5 10t15.5 26t5 46h81q0 -83 -38.5 -117t-110.5 -34z" />
    <glyph glyph-name="dotaccent" unicode="&#x2d9;" horiz-adv-x="500" 
d="M194 554v109h111v-109h-111z" />
    <glyph glyph-name="ring" unicode="&#x2da;" horiz-adv-x="500" 
d="M152 610q0 42 28.5 70t70.5 28t70.5 -28t28.5 -70t-28.5 -70t-70.5 -28t-70.5 28t-28.5 70zM211 610q0 -17 11.5 -28t27.5 -11t27.5 11t11.5 28t-11.5 28t-27.5 11t-27.5 -11t-11.5 -28z" />
    <glyph glyph-name="ogonek" unicode="&#x2db;" horiz-adv-x="500" 
d="M311 -120l27 -61q-36 -17 -66 -17q-37 0 -64.5 23t-27.5 65q0 61 67 110h81q-72 -61 -72 -100q0 -29 27 -29q15 0 28 9z" />
    <glyph glyph-name="tilde" unicode="&#x2dc;" horiz-adv-x="500" 
d="M351 677l69 -24q-31 -99 -105 -99q-31 0 -69 18l-12 6q-31 18 -47 18q-23 0 -34 -42l-67 23q27 100 101 100q32 0 70 -19l12 -6q31 -18 46 -18q23 0 36 43z" />
    <glyph glyph-name="hungarumlaut" unicode="&#x2dd;" horiz-adv-x="500" 
d="M311 680h135l-101 -128h-98zM134 680h135l-101 -128h-98z" />
    <glyph glyph-name="uni0312" unicode="&#x312;" horiz-adv-x="0" 
d="M-212 552h-127v45q0 42 3.5 66.5t15.5 49t38.5 36t69.5 12.5v-52q-58 -1 -58 -54v-2h58v-101z" />
    <glyph glyph-name="uni0313" unicode="&#x313;" horiz-adv-x="0" 
d="M-311 680h131l-65 -128h-94z" />
    <glyph glyph-name="uni0326" unicode="&#x326;" horiz-adv-x="0" 
d="M-339 -58h121v-45q0 -34 -1.5 -54t-8 -43.5t-19 -35.5t-35.5 -21t-57 -10v52q30 1 42.5 14t12.5 40v2h-55v101z" />
    <glyph glyph-name="uni037E" unicode="&#x37e;" horiz-adv-x="247" 
d="M59 476h129v-132h-129v132zM59 131h129v-102q0 -25 -2 -57q-7 -60 -33.5 -89t-93.5 -31v65q30 2 43.5 17t13.5 54v12h-57v131z" />
    <glyph glyph-name="tonos" unicode="&#x384;" horiz-adv-x="231" 
d="M38 680h135l-111 -148h-98z" />
    <glyph glyph-name="dieresistonos" unicode="&#x385;" horiz-adv-x="500" 
d="M30 547v118h108v-118h-108zM362 547v118h108v-118h-108zM217 680h135l-111 -148h-98z" />
    <glyph glyph-name="Alphatonos" unicode="&#x386;" horiz-adv-x="645" 
d="M102 680h135l-111 -148h-98zM207 159l-54 -159h-120l237 680h136l235 -680h-124l-53 159h-257zM430 261l-46 155l-48 161h-1l-50 -169l-45 -147h190z" />
    <glyph glyph-name="anoteleia" unicode="&#x387;" horiz-adv-x="245" 
d="M59 476h129v-132h-129v132z" />
    <glyph glyph-name="Epsilontonos" unicode="&#x388;" horiz-adv-x="763" 
d="M68 680h135l-111 -148h-98zM704 573h-358v-168h325v-107h-325v-191h383v-107h-501v680h476v-107z" />
    <glyph glyph-name="Etatonos" unicode="&#x389;" horiz-adv-x="850" 
d="M652 298h-304v-298h-120v680h120v-275h304v275h120v-680h-120v298zM68 680h135l-111 -148h-98z" />
    <glyph glyph-name="Iotatonos" unicode="&#x38a;" horiz-adv-x="426" 
d="M68 680h135l-111 -148h-98zM348 680v-680h-120v680h120z" />
    <glyph glyph-name="Omicrontonos" unicode="&#x38c;" horiz-adv-x="823" 
d="M71 680h135l-111 -148h-98zM139 340q0 157 88 254.5t234 97.5t234 -97.5t88 -254.5q0 -159 -84.5 -255.5t-237.5 -96.5q-151 0 -236.5 97t-85.5 255zM270 340q0 -112 51 -177.5t140 -65.5t140 65.5t51 177.5t-51 178.5t-140 66.5t-140 -66.5t-51 -178.5z" />
    <glyph glyph-name="Upsilontonos" unicode="&#x38e;" horiz-adv-x="856" 
d="M94 680h135l-111 -148h-98zM603 278v-278h-120v278l-247 402h139l174 -291l177 291h138z" />
    <glyph glyph-name="Omegatonos" unicode="&#x38f;" horiz-adv-x="853" 
d="M74 680h135l-111 -148h-98zM476 585q-94 0 -144 -64t-50 -162q0 -97 41.5 -164.5t112.5 -99.5v-95h-288v103h130v1q-126 99 -126 266q0 140 88.5 231t235.5 91t235.5 -91t88.5 -231q0 -167 -126 -266v-1h130v-103h-288v95q71 32 112.5 99.5t41.5 164.5q0 98 -50 162
t-144 64z" />
    <glyph glyph-name="iotadieresistonos" unicode="&#x390;" horiz-adv-x="267" 
d="M243 81v-87q-26 -6 -59 -6q-57 0 -88.5 22.5t-31.5 91.5v374h114v-343q0 -30 7.5 -42.5t32.5 -12.5q13 0 25 3zM-81 547v118h108v-118h-108zM251 547v118h108v-118h-108zM106 680h135l-111 -148h-98z" />
    <glyph glyph-name="Alpha" unicode="&#x391;" horiz-adv-x="615" 
d="M177 159l-54 -159h-120l237 680h136l235 -680h-124l-53 159h-257zM400 261l-46 155l-48 161h-1l-50 -169l-45 -147h190z" />
    <glyph glyph-name="Beta" unicode="&#x392;" horiz-adv-x="650" 
d="M360 0h-282v680h267q103 0 153 -25q89 -44 89 -152q0 -50 -25 -87.5t-65 -55.5q50 -20 81.5 -62.5t31.5 -103.5q0 -114 -93 -165q-50 -29 -157 -29zM198 304v-198h143q78 0 108 17q41 26 41 82t-41 82q-27 17 -108 17h-143zM469 489q0 26 -12.5 46t-33.5 29
q-25 12 -87 12h-138v-175h138h10q63 0 86 15q37 24 37 73z" />
    <glyph glyph-name="Gamma" unicode="&#x393;" horiz-adv-x="560" 
d="M542 680v-107h-344v-573h-120v680h464z" />
    <glyph glyph-name="uni0394" unicode="&#x394;" horiz-adv-x="615" 
d="M3 0l237 680h136l235 -680h-608zM243 367l-88 -264h300l-87 265l-62 201h-1q-35 -119 -62 -202z" />
    <glyph glyph-name="Epsilon" unicode="&#x395;" horiz-adv-x="613" 
d="M554 573h-358v-168h325v-107h-325v-191h383v-107h-501v680h476v-107z" />
    <glyph glyph-name="Zeta" unicode="&#x396;" horiz-adv-x="575" 
d="M541 109v-109h-512v99l360 473h-343v108h493v-98l-358 -473h360z" />
    <glyph glyph-name="Eta" unicode="&#x397;" horiz-adv-x="700" 
d="M502 298h-304v-298h-120v680h120v-275h304v275h120v-680h-120v298z" />
    <glyph glyph-name="Theta" unicode="&#x398;" horiz-adv-x="724" 
d="M219 293v102h286v-102h-286zM40 340q0 157 88 254.5t234 97.5t234 -97.5t88 -254.5q0 -159 -84.5 -255.5t-237.5 -96.5q-151 0 -236.5 97t-85.5 255zM171 340q0 -112 51 -177.5t140 -65.5t140 65.5t51 177.5t-51 178.5t-140 66.5t-140 -66.5t-51 -178.5z" />
    <glyph glyph-name="Iota" unicode="&#x399;" horiz-adv-x="276" 
d="M198 680v-680h-120v680h120z" />
    <glyph glyph-name="Kappa" unicode="&#x39a;" horiz-adv-x="661" 
d="M380 399l283 -399h-153l-220 311l-92 -91v-220h-120v680h120v-311l297 311h162z" />
    <glyph glyph-name="Lambda" unicode="&#x39b;" horiz-adv-x="613" 
d="M479 0l-114 361q-35 112 -60 196h-1q-39 -131 -60 -197l-115 -360h-125l235 680h136l233 -680h-129z" />
    <glyph glyph-name="Mu" unicode="&#x39c;" horiz-adv-x="806" 
d="M463 0h-120l-100 362q-31 111 -53 218h-2q6 -64 6 -285v-295h-116v680h178l107 -376q16 -54 40 -160h2q6 30 43 161l102 375h178v-680h-116v288q0 146 8 298h-2q-12 -71 -60 -247z" />
    <glyph glyph-name="Nu" unicode="&#x39d;" horiz-adv-x="696" 
d="M190 680l184 -276q88 -134 130 -206h1q-6 80 -6 254v228h119v-680h-112l-193 295q-37 56 -119 194h-1q0 -4 2 -103t2 -159v-227h-119v680h112z" />
    <glyph glyph-name="Xi" unicode="&#x39e;" horiz-adv-x="576" 
d="M87 296v110h402v-110h-402zM42 0v110h492v-110h-492zM50 570v110h476v-110h-476z" />
    <glyph glyph-name="Omicron" unicode="&#x39f;" horiz-adv-x="724" 
d="M40 340q0 157 88 254.5t234 97.5t234 -97.5t88 -254.5q0 -159 -84.5 -255.5t-237.5 -96.5q-151 0 -236.5 97t-85.5 255zM171 340q0 -112 51 -177.5t140 -65.5t140 65.5t51 177.5t-51 178.5t-140 66.5t-140 -66.5t-51 -178.5z" />
    <glyph glyph-name="Pi" unicode="&#x3a0;" horiz-adv-x="697" 
d="M499 573h-301v-573h-120v680h541v-680h-120v573z" />
    <glyph glyph-name="Rho" unicode="&#x3a1;" horiz-adv-x="613" 
d="M198 574v-201h124q66 0 95 13q49 24 49 88q0 63 -49 87q-29 13 -95 13h-124zM78 0v680h227q77 0 129 -9.5t89 -41.5q67 -56 67 -155q0 -102 -67 -158q-37 -32 -89 -41.5t-129 -9.5h-107v-265h-120z" />
    <glyph glyph-name="Sigma" unicode="&#x3a3;" horiz-adv-x="569" 
d="M37 97l242 249l-241 237v97h490v-107h-175q-76 0 -154 2v-1q74 -69 104 -98l129 -125l-141 -145q-23 -23 -57 -55.5t-46 -44.5v-1q82 2 144 2h201v-107h-496v97z" />
    <glyph glyph-name="Tau" unicode="&#x3a4;" horiz-adv-x="549" 
d="M16 573v107h517v-107h-198v-573h-120v573h-199z" />
    <glyph glyph-name="Upsilon" unicode="&#x3a5;" horiz-adv-x="622" 
d="M369 278v-278h-120v278l-247 402h139l174 -291l177 291h138z" />
    <glyph glyph-name="Phi" unicode="&#x3a6;" horiz-adv-x="749" 
d="M316 625v82h117v-82q135 -10 208 -83.5t73 -187.5t-72 -187.5t-209 -85.5v-81h-117v81q-137 12 -209 85.5t-72 187.5t73 187.5t208 83.5zM583 354q0 72 -36.5 119.5t-113.5 56.5v-353q150 22 150 177zM166 354q0 -155 150 -177v353q-77 -9 -113.5 -56.5t-36.5 -119.5z
" />
    <glyph glyph-name="Chi" unicode="&#x3a7;" horiz-adv-x="647" 
d="M396 355l249 -355h-146l-177 261l-184 -261h-137l251 346l-241 334h151l167 -241l165 241h144z" />
    <glyph glyph-name="Psi" unicode="&#x3a8;" horiz-adv-x="738" 
d="M48 680h119v-240q0 -84 15 -115q32 -70 128 -70v425h118v-425q96 0 128 70q15 38 15 115v240h119v-238q0 -124 -35 -188q-64 -107 -227 -107v-147h-118v147q-164 0 -227 107q-35 64 -35 188v238z" />
    <glyph glyph-name="uni03A9" unicode="&#x3a9;" horiz-adv-x="754" 
d="M377 585q-94 0 -144 -64t-50 -162q0 -97 41.5 -164.5t112.5 -99.5v-95h-288v103h130v1q-126 99 -126 266q0 140 88.5 231t235.5 91t235.5 -91t88.5 -231q0 -167 -126 -266v-1h130v-103h-288v95q71 32 112.5 99.5t41.5 164.5q0 98 -50 162t-144 64z" />
    <glyph glyph-name="Iotadieresis" unicode="&#x3aa;" horiz-adv-x="276" 
d="M198 680v-680h-120v680h120zM-5 762v109h108v-109h-108zM179 762v109h108v-109h-108z" />
    <glyph glyph-name="Upsilondieresis" unicode="&#x3ab;" horiz-adv-x="622" 
d="M369 278v-278h-120v278l-247 402h139l174 -291l177 291h138zM171 762v109h108v-109h-108zM355 762v109h108v-109h-108z" />
    <glyph glyph-name="alphatonos" unicode="&#x3ac;" horiz-adv-x="584" 
d="M388 476h114v-370q0 -22 7.5 -29t21.5 -7q7 0 21 2v-75q-29 -9 -66 -9q-44 0 -66 14.5t-29 47.5h-2q-52 -62 -141 -62q-94 0 -152.5 69.5t-58.5 178.5q0 111 58 181t153 70q91 0 140 -63v52zM393 238q0 69 -33.5 110t-87.5 41q-55 0 -88 -40t-33 -111t33 -111t88 -40
q54 0 87.5 41t33.5 110zM293 680h135l-101 -128h-98z" />
    <glyph glyph-name="epsilontonos" unicode="&#x3ad;" horiz-adv-x="506" 
d="M467 334l-106 -20q-9 82 -104 82q-40 0 -65 -14t-25 -42t22 -39.5t72 -11.5h58l1 -88h-57q-54 0 -79.5 -13t-25.5 -42q0 -65 101 -65q55 0 82.5 21t33.5 69l108 -19q-20 -164 -226 -164q-107 0 -164 40.5t-57 107.5q0 29 10.5 51t27.5 33.5t30.5 17.5t26.5 8v2
q-30 9 -55.5 33.5t-25.5 68.5q0 64 53 100.5t154 36.5q99 0 153 -41.5t57 -111.5zM257 680h135l-101 -128h-98z" />
    <glyph glyph-name="etatonos" unicode="&#x3ae;" horiz-adv-x="555" 
d="M493 270v-460h-114v431q0 64 -8 91q-17 55 -84 55q-52 0 -78.5 -36t-26.5 -96v-255h-114v476h114v-61q18 33 56.5 53t91.5 20q87 0 131 -59q32 -47 32 -159zM294 680h135l-101 -128h-98z" />
    <glyph glyph-name="iotatonos" unicode="&#x3af;" horiz-adv-x="267" 
d="M243 81v-87q-26 -6 -59 -6q-57 0 -88.5 22.5t-31.5 91.5v374h114v-343q0 -30 7.5 -42.5t32.5 -12.5q13 0 25 3zM130 680h135l-101 -128h-98z" />
    <glyph glyph-name="upsilondieresistonos" unicode="&#x3b0;" horiz-adv-x="528" 
d="M263 84q57 0 83 41.5t26 129.5q0 131 -58 221h123q51 -100 51 -223q0 -131 -53.5 -198t-176.5 -67q-106 0 -151 45.5t-45 141.5v301h114v-275q0 -62 20.5 -89.5t66.5 -27.5zM44 547v118h108v-118h-108zM376 547v118h108v-118h-108zM231 680h135l-111 -148h-98z" />
    <glyph glyph-name="alpha" unicode="&#x3b1;" horiz-adv-x="584" 
d="M388 476h114v-370q0 -22 7.5 -29t21.5 -7q7 0 21 2v-75q-29 -9 -66 -9q-44 0 -66 14.5t-29 47.5h-2q-52 -62 -141 -62q-94 0 -152.5 69.5t-58.5 178.5q0 111 58 181t153 70q91 0 140 -63v52zM393 238q0 69 -33.5 110t-87.5 41q-55 0 -88 -40t-33 -111t33 -111t88 -40
q54 0 87.5 41t33.5 110z" />
    <glyph glyph-name="beta" unicode="&#x3b2;" horiz-adv-x="573" 
d="M68 -190v660q0 67 15 106t49 68q57 48 154 48q94 0 153 -44.5t59 -123.5q0 -51 -25 -89.5t-75 -52.5v-3q63 -8 101.5 -55t38.5 -117q0 -98 -61 -157.5t-169 -59.5q-73 0 -126 34v-214h-114zM182 482v-346q43 -52 117 -52q58 0 90 31.5t32 94.5q0 122 -173 122l-1 85
q131 0 131 97q0 43 -27 65t-68 22q-47 0 -73 -26q-28 -28 -28 -93z" />
    <glyph glyph-name="gamma" unicode="&#x3b3;" horiz-adv-x="487" 
d="M352 476h113q-39 -268 -184 -495v-171h-113v132q0 108 -44 251q-47 155 -117 283h129q35 -61 71 -159.5t47 -172.5h4q64 144 94 332z" />
    <glyph glyph-name="delta" unicode="&#x3b4;" horiz-adv-x="549" 
d="M275 -12q-114 0 -177 67.5t-63 173.5q0 85 44 140.5t111 72.5q-83 42 -83 116q0 68 54 101t146 33q83 0 163 -33v-109q-72 51 -165 51q-84 0 -84 -48q0 -20 17.5 -32.5t71.5 -38.5l53 -25q79 -36 114 -87q36 -51 36 -133q0 -110 -62.5 -179.5t-175.5 -69.5zM275 86
q60 0 92 42t32 105q0 57 -28 88.5t-86 59.5l-15 7q-55 -9 -88 -49t-33 -106q0 -67 33.5 -107t92.5 -40z" />
    <glyph glyph-name="epsilon" unicode="&#x3b5;" horiz-adv-x="506" 
d="M467 334l-106 -20q-9 82 -104 82q-40 0 -65 -14t-25 -42t22 -39.5t72 -11.5h58l1 -88h-57q-54 0 -79.5 -13t-25.5 -42q0 -65 101 -65q55 0 82.5 21t33.5 69l108 -19q-20 -164 -226 -164q-107 0 -164 40.5t-57 107.5q0 29 10.5 51t27.5 33.5t30.5 17.5t26.5 8v2
q-30 9 -55.5 33.5t-25.5 68.5q0 64 53 100.5t154 36.5q99 0 153 -41.5t57 -111.5z" />
    <glyph glyph-name="zeta" unicode="&#x3b6;" horiz-adv-x="464" 
d="M451 -36q0 -64 -25 -129h-115q24 51 24 92q0 36 -16 47t-50 14q-31 2 -45.5 4t-45 13t-54.5 31q-85 68 -85 216q0 117 54.5 201t153.5 131v2h-189v94h398v-86q-158 -57 -229.5 -138.5t-71.5 -191.5q0 -107 51 -148q27 -22 68.5 -26t81 -9.5t66.5 -32.5q29 -32 29 -84z
" />
    <glyph glyph-name="eta" unicode="&#x3b7;" horiz-adv-x="555" 
d="M493 270v-460h-114v431q0 64 -8 91q-17 55 -84 55q-52 0 -78.5 -36t-26.5 -96v-255h-114v476h114v-61q18 33 56.5 53t91.5 20q87 0 131 -59q32 -47 32 -159z" />
    <glyph glyph-name="theta" unicode="&#x3b8;" horiz-adv-x="588" 
d="M543 338q0 -350 -247 -350q-251 0 -251 350q0 70 13 130t41 112t78.5 82t118.5 30q87 0 144 -49.5t80 -126t23 -178.5zM296 86q124 0 133 203h-270q9 -203 137 -203zM296 594q-123 0 -137 -203h270q-9 203 -133 203z" />
    <glyph glyph-name="iota" unicode="&#x3b9;" horiz-adv-x="267" 
d="M243 81v-87q-26 -6 -59 -6q-57 0 -88.5 22.5t-31.5 91.5v374h114v-343q0 -30 7.5 -42.5t32.5 -12.5q13 0 25 3z" />
    <glyph glyph-name="kappa" unicode="&#x3ba;" horiz-adv-x="520" 
d="M491 383h-32q-24 0 -41 -10.5t-23 -20t-20 -33.5q-2 -4 -8 -15.5t-9 -16.5t-8.5 -13t-11 -14t-12.5 -11l188 -249h-134l-153 201h-43v-201h-116v476h116v-194q9 -1 17.5 0t14.5 2.5t13 6.5t11.5 7t10.5 10t8.5 11t9 13.5t8 13t8 15.5l7.5 15q12 22 17 31t19 26.5t27.5 25
t36.5 14.5t52 7h47v-97z" />
    <glyph glyph-name="lambda" unicode="&#x3bb;" horiz-adv-x="514" 
d="M344 64l-34 101q-30 91 -53 179h-5q-36 -114 -62 -183l-63 -161h-115l190 458l-28 78q-13 36 -34 48t-54 12q-16 0 -36 -3v94q22 5 66 5q79 0 117 -38q28 -28 55 -104l153 -435q9 -22 18 -31t27 -9q10 0 20 2v-83q-26 -6 -57 -6q-45 0 -67.5 16t-37.5 60z" />
    <glyph glyph-name="uni03BC" unicode="&#x3bc;" horiz-adv-x="551" 
d="M68 476h114v-265q0 -62 18.5 -93t67.5 -31q51 0 76 36t25 97v256h114v-476h-114v61q-39 -71 -124 -71q-33 0 -63 18v-198h-114v666z" />
    <glyph glyph-name="nu" unicode="&#x3bd;" horiz-adv-x="465" 
d="M169 0l-156 476h119l102 -350h3q39 93 60 170t37 180h112q-41 -245 -166 -476h-111z" />
    <glyph glyph-name="xi" unicode="&#x3be;" horiz-adv-x="457" 
d="M83 49q-47 53 -47 133q0 69 32 109.5t97 63.5q-104 39 -104 155q0 85 59 133t159 48q80 0 142 -27l-18 -102q-53 35 -114 35q-53 0 -81.5 -24.5t-28.5 -69.5q0 -53 38 -77q31 -20 110 -20h59v-97h-45q-99 0 -137 -21q-50 -27 -50 -87q0 -65 36.5 -88t104.5 -26
q76 -4 113.5 -31t37.5 -91q0 -80 -25 -130h-116q25 47 25 92q0 13 -2.5 23t-9 16.5t-11 10.5t-17 6.5l-17.5 3.5t-21 2.5t-20 1.5q-104 8 -149 58z" />
    <glyph glyph-name="omicron" unicode="&#x3bf;" horiz-adv-x="548" 
d="M36 236q0 115 65 183t173 68t173 -68t65 -183q0 -114 -64 -181t-174 -67t-174 67t-64 181zM149 238q0 -71 34.5 -111.5t90.5 -40.5t90.5 41t34.5 111q0 71 -33.5 111.5t-91.5 40.5t-91.5 -40.5t-33.5 -111.5z" />
    <glyph glyph-name="pi" unicode="&#x3c0;" horiz-adv-x="636" 
d="M594 84v-89q-30 -7 -61 -7q-71 0 -103.5 26t-32.5 90v280h-162v-384h-114v384h-108v92h595v-92h-97v-241q0 -36 11.5 -49t41.5 -13q18 0 30 3z" />
    <glyph glyph-name="rho" unicode="&#x3c1;" horiz-adv-x="559" 
d="M311 -12q-88 0 -140 62v-240h-114v389q0 86 13 136t46 85q62 68 180 68q110 0 168 -68.5t58 -183.5q0 -109 -58.5 -178.5t-152.5 -69.5zM166 238q0 -70 32 -110.5t89 -40.5q55 0 88 40t33 111t-33 111.5t-88 40.5q-57 0 -89 -40t-32 -112z" />
    <glyph glyph-name="sigma1" unicode="&#x3c2;" horiz-adv-x="490" 
d="M262 -12q-82 5 -134 41q-92 64 -92 207q0 117 66 184t168 67q80 0 133 -37t76 -97l-95 -50q-29 86 -113 86q-57 0 -89.5 -40t-32.5 -109q0 -73 31 -111q25 -29 70 -35.5t91 -12t73 -33.5q29 -32 29 -85q0 -63 -25 -128h-115q24 51 24 90q0 36 -15.5 48t-49.5 15z" />
    <glyph glyph-name="sigma" unicode="&#x3c3;" horiz-adv-x="575" 
d="M36 230q0 117 69 184q62 62 199 62h262v-92l-113 1q17 -21 27 -35.5t21 -48t11 -72.5q0 -112 -64 -176.5t-174 -64.5q-111 0 -174.5 64t-63.5 178zM149 232q0 -70 34.5 -108t90.5 -38t90.5 38t34.5 108q0 71 -33.5 110t-91.5 39t-91.5 -39t-33.5 -110z" />
    <glyph glyph-name="tau" unicode="&#x3c4;" horiz-adv-x="452" 
d="M10 384v92h428v-92h-170v-241q0 -36 13 -49t43 -13q20 0 42 5v-89q-34 -9 -74 -9q-72 0 -105 26t-33 90v280h-144z" />
    <glyph glyph-name="upsilon" unicode="&#x3c5;" horiz-adv-x="528" 
d="M263 84q57 0 83 41.5t26 129.5q0 131 -58 221h123q51 -100 51 -223q0 -131 -53.5 -198t-176.5 -67q-106 0 -151 45.5t-45 141.5v301h114v-275q0 -62 20.5 -89.5t66.5 -27.5z" />
    <glyph glyph-name="phi" unicode="&#x3c6;" horiz-adv-x="714" 
d="M303 486v123h110v-123q112 0 188.5 -65.5t76.5 -184.5t-76.5 -184t-188.5 -65v-157h-110v157q-112 0 -190 65.5t-78 183.5q0 119 78 184.5t190 65.5zM413 395v-317q76 0 114 46.5t38 111.5t-38.5 112t-113.5 47zM303 78v317q-76 0 -115.5 -47.5t-39.5 -111.5
q0 -65 39.5 -111.5t115.5 -46.5z" />
    <glyph glyph-name="chi" unicode="&#x3c7;" horiz-adv-x="524" 
d="M522 -190h-133l-128 270l-127 -270h-127l189 351l-176 315h135l108 -223l112 223h127l-172 -309z" />
    <glyph glyph-name="psi" unicode="&#x3c8;" horiz-adv-x="701" 
d="M411 613v-531h1q66 0 100.5 47.5t34.5 127.5q0 118 -59 219h124q49 -96 49 -218q0 -131 -61.5 -200.5t-188.5 -70.5v-157h-113v157h-19q-111 0 -164 46.5t-53 140.5v302h114v-276q0 -118 106 -118h16v531h113z" />
    <glyph glyph-name="omega" unicode="&#x3c9;" horiz-adv-x="744" 
d="M428 391v-200q0 -57 16 -83t52 -26q51 0 70.5 44.5t19.5 132.5q0 124 -50 217h118q44 -99 44 -229q0 -128 -43 -193.5t-143 -65.5q-96 0 -139 73h-2q-43 -73 -139 -73q-100 0 -143 65.5t-43 193.5q0 130 44 229h118q-50 -93 -50 -217q0 -88 19.5 -132.5t70.5 -44.5
q36 0 52 26t16 83v200h112z" />
    <glyph glyph-name="iotadieresis" unicode="&#x3ca;" horiz-adv-x="267" 
d="M243 81v-87q-26 -6 -59 -6q-57 0 -88.5 22.5t-31.5 91.5v374h114v-343q0 -30 7.5 -42.5t32.5 -12.5q13 0 25 3zM-16 560v109h108v-109h-108zM168 560v109h108v-109h-108z" />
    <glyph glyph-name="upsilondieresis" unicode="&#x3cb;" horiz-adv-x="528" 
d="M263 84q57 0 83 41.5t26 129.5q0 131 -58 221h123q51 -100 51 -223q0 -131 -53.5 -198t-176.5 -67q-106 0 -151 45.5t-45 141.5v301h114v-275q0 -62 20.5 -89.5t66.5 -27.5zM115 560v109h108v-109h-108zM299 560v109h108v-109h-108z" />
    <glyph glyph-name="omicrontonos" unicode="&#x3cc;" horiz-adv-x="548" 
d="M36 236q0 115 65 183t173 68t173 -68t65 -183q0 -114 -64 -181t-174 -67t-174 67t-64 181zM149 238q0 -71 34.5 -111.5t90.5 -40.5t90.5 41t34.5 111q0 71 -33.5 111.5t-91.5 40.5t-91.5 -40.5t-33.5 -111.5zM268 680h135l-101 -128h-98z" />
    <glyph glyph-name="upsilontonos" unicode="&#x3cd;" horiz-adv-x="528" 
d="M263 84q57 0 83 41.5t26 129.5q0 131 -58 221h123q51 -100 51 -223q0 -131 -53.5 -198t-176.5 -67q-106 0 -151 45.5t-45 141.5v301h114v-275q0 -62 20.5 -89.5t66.5 -27.5zM260 680h135l-101 -128h-98z" />
    <glyph glyph-name="omegatonos" unicode="&#x3ce;" horiz-adv-x="744" 
d="M428 391v-200q0 -57 16 -83t52 -26q51 0 70.5 44.5t19.5 132.5q0 124 -50 217h118q44 -99 44 -229q0 -128 -43 -193.5t-143 -65.5q-96 0 -139 73h-2q-43 -73 -139 -73q-100 0 -143 65.5t-43 193.5q0 130 44 229h118q-50 -93 -50 -217q0 -88 19.5 -132.5t70.5 -44.5
q36 0 52 26t16 83v200h112zM378 680h135l-101 -128h-98z" />
    <glyph glyph-name="uni0400" unicode="&#x400;" horiz-adv-x="613" 
d="M554 573h-358v-168h325v-107h-325v-191h383v-107h-501v680h476v-107zM180 889h140l67 -145h-98z" />
    <glyph glyph-name="uni0401" unicode="&#x401;" horiz-adv-x="613" 
d="M554 573h-358v-168h325v-107h-325v-191h383v-107h-501v680h476v-107zM168 762v109h108v-109h-108zM352 762v109h108v-109h-108z" />
    <glyph glyph-name="uni0402" unicode="&#x402;" horiz-adv-x="747" 
d="M313 312v-312h-120v573h-177v107h542v-107h-245v-155h163q121 0 181 -55q61 -55 61 -154t-61 -154q-60 -55 -181 -55h-82v106h83q65 0 95 30q26 26 26 73t-26 73q-30 30 -95 30h-164z" />
    <glyph glyph-name="uni0403" unicode="&#x403;" horiz-adv-x="540" 
d="M522 680v-107h-324v-573h-120v680h444zM311 889h140l-109 -145h-98z" />
    <glyph glyph-name="uni0404" unicode="&#x404;" horiz-adv-x="666" 
d="M528 204l114 -48q-14 -28 -34.5 -53.5t-53 -53.5t-82.5 -44.5t-109 -16.5q-153 0 -238 96.5t-85 255.5q0 157 88 254.5t236 97.5q177 0 271 -156l-105 -65q-52 113 -168 113q-78 0 -126.5 -47.5t-59.5 -131.5h300v-107h-303q6 -95 55 -147t136 -52q114 0 164 105z" />
    <glyph glyph-name="uni0405" unicode="&#x405;" horiz-adv-x="622" 
d="M572 579l-91 -74q-68 82 -176 82q-58 0 -91.5 -25.5t-33.5 -65.5q0 -37 24.5 -55t85.5 -31l82 -18q109 -25 164 -66.5t55 -127.5q0 -95 -73.5 -152.5t-199.5 -57.5q-103 0 -179 41t-117 98l100 72q27 -42 81 -73t121 -31t102.5 25t35.5 67q0 37 -29 56t-87 32l-91 20
q-95 21 -149.5 65t-54.5 130q0 92 72.5 147t185.5 55q155 0 263 -113z" />
    <glyph glyph-name="uni0406" unicode="&#x406;" horiz-adv-x="276" 
d="M198 680v-680h-120v680h120z" />
    <glyph glyph-name="uni0407" unicode="&#x407;" horiz-adv-x="276" 
d="M198 680v-680h-120v680h120zM-4 762v109h108v-109h-108zM180 762v109h108v-109h-108z" />
    <glyph glyph-name="uni0408" unicode="&#x408;" horiz-adv-x="379" 
d="M186 680h120v-477q0 -103 -29 -143q-26 -36 -76 -54t-108 -18q-51 0 -76 7v107q27 -6 60 -6q60 0 85 27q24 29 24 111v446z" />
    <glyph glyph-name="uni0409" unicode="&#x409;" horiz-adv-x="1023" 
d="M157 615v65h455v-262h145q121 0 181 -55q61 -55 61 -154t-61 -154q-60 -55 -181 -55h-265v574h-218q0 -84 -1 -136.5t-5.5 -121t-13.5 -110t-25.5 -87t-40.5 -70t-59 -40.5t-81 -16q-16 0 -36 3v101q3 -1 16 -1q31 0 54 15.5t36.5 54.5t22 75t12 108t4 121t0.5 145z
M853 136q26 26 26 73t-26 73q-30 30 -95 30h-146v-206h146q65 0 95 30z" />
    <glyph glyph-name="uni040A" unicode="&#x40a;" horiz-adv-x="1033" 
d="M502 311h-304v-311h-120v680h120v-262h304v262h120v-262h145q121 0 181 -55q61 -55 61 -154t-61 -154q-60 -55 -181 -55h-265v311zM889 209q0 47 -26 73q-30 30 -95 30h-146v-206h146q65 0 95 30q26 26 26 73z" />
    <glyph glyph-name="uni040B" unicode="&#x40b;" horiz-adv-x="749" 
d="M193 0v573h-177v107h542v-107h-245v-161q60 41 167 41q224 0 224 -184v-269h-120v232q0 70 -32.5 97t-96.5 27q-97 0 -142 -52v-304h-120z" />
    <glyph glyph-name="uni040C" unicode="&#x40c;" horiz-adv-x="653" 
d="M620 575h-39q-33 0 -56.5 -13.5t-34.5 -29.5t-28 -47l-15 -27q-4 -7 -14 -26.5t-15.5 -28.5t-16.5 -22.5t-23 -21.5l276 -359h-153l-229 306h-29h-45v-306h-120v680h120v-287h15q23 0 41.5 5.5t30 12.5t24.5 24.5t19.5 28.5t21.5 38l28 52q16 32 27.5 49t33 38t53 30
t74.5 9h54v-105zM348 889h140l-109 -145h-98z" />
    <glyph glyph-name="uni040E" unicode="&#x40e;" horiz-adv-x="587" 
d="M248 161l-239 519h131l84 -192q46 -106 87 -212h2l79 214l72 190h126l-228 -538q-40 -93 -90 -123.5t-137 -30.5q-37 0 -54 4v103q16 -4 49 -4q20 0 32.5 1.5t30.5 7.5t31.5 21.5t23.5 39.5zM305 739q-72 0 -110.5 34t-38.5 117h81q0 -54 17 -69t51 -15q17 0 27 2
t20.5 10t15.5 26t5 46h81q0 -83 -38.5 -117t-110.5 -34z" />
    <glyph glyph-name="uni040F" unicode="&#x40f;" horiz-adv-x="688" 
d="M285 -169v169h-207v680h120v-573h292v573h120v-680h-207v-169h-118z" />
    <glyph glyph-name="uni0410" unicode="&#x410;" horiz-adv-x="615" 
d="M177 159l-54 -159h-120l237 680h136l235 -680h-124l-53 159h-257zM400 261l-46 155l-48 161h-1l-50 -169l-45 -147h190z" />
    <glyph glyph-name="uni0411" unicode="&#x411;" horiz-adv-x="638" 
d="M490 209q0 47 -26 73q-30 30 -95 30h-171v-206h171q65 0 95 30q26 26 26 73zM198 573v-155h170q121 0 181 -55q61 -55 61 -154t-61 -154q-60 -55 -181 -55h-290v680h467v-107h-347z" />
    <glyph glyph-name="uni0412" unicode="&#x412;" horiz-adv-x="650" 
d="M360 0h-282v680h267q103 0 153 -25q89 -44 89 -152q0 -50 -25 -87.5t-65 -55.5q50 -20 81.5 -62.5t31.5 -103.5q0 -114 -93 -165q-50 -29 -157 -29zM198 304v-198h143q78 0 108 17q41 26 41 82t-41 82q-27 17 -108 17h-143zM469 489q0 26 -12.5 46t-33.5 29
q-25 12 -87 12h-138v-175h138h10q63 0 86 15q37 24 37 73z" />
    <glyph glyph-name="uni0413" unicode="&#x413;" horiz-adv-x="540" 
d="M522 680v-107h-324v-573h-120v680h444z" />
    <glyph glyph-name="uni0414" unicode="&#x414;" horiz-adv-x="724" 
d="M568 0h-437v-169h-118v276h58q20 12 34.5 34.5t23.5 62t14.5 75t7.5 100t2.5 108t0.5 125.5v68h468v-573h64v-276h-118v169zM502 105v469h-231q0 -129 -2 -195t-16.5 -148.5t-43.5 -125.5h293z" />
    <glyph glyph-name="uni0415" unicode="&#x415;" horiz-adv-x="613" 
d="M554 573h-358v-168h325v-107h-325v-191h383v-107h-501v680h476v-107z" />
    <glyph glyph-name="uni0416" unicode="&#x416;" horiz-adv-x="983" 
d="M551 680v-287h12q27 0 44.5 4.5t33 22t23.5 30.5t27 51l27 53q16 30 21.5 40t22 32t31.5 30t41.5 16t59.5 8h54v-105h-36q-25 0 -41.5 -5.5t-29.5 -20t-19.5 -25.5t-18.5 -37l-14 -29q-38 -78 -76 -101l266 -357h-147l-220 306h-26h-35v-306h-119v306h-35h-26l-220 -306
h-147l266 357q-38 23 -76 101l-14 29q-16 33 -25 47.5t-30.5 27.5t-53.5 13h-36v105h54q33 0 59.5 -8t41.5 -16t31.5 -30t22 -32t21.5 -40l27 -53q19 -38 27 -51t23.5 -30.5t33 -22t44.5 -4.5h12v287h119z" />
    <glyph glyph-name="uni0417" unicode="&#x417;" 
d="M29 200l119 17q21 -129 142 -129q66 0 100 33.5t34 80.5q0 77 -82 99q-28 7 -96 7h-45v97h56q54 0 78 6q74 17 74 90q0 40 -31 67t-90 27q-65 0 -95.5 -35t-33.5 -80l-111 18q2 80 66.5 137t180.5 57q113 0 174.5 -47.5t61.5 -125.5q0 -106 -112 -154q132 -45 132 -171
q0 -90 -70.5 -148t-190.5 -58q-119 0 -185.5 57t-75.5 155z" />
    <glyph glyph-name="uni0418" unicode="&#x418;" horiz-adv-x="696" 
d="M326 404l184 276h108v-680h-119v227q0 60 2 163t2 104h-1q-53 -90 -123 -199l-193 -295h-108v680h119v-228q0 -177 -6 -259h1q36 62 134 211z" />
    <glyph glyph-name="uni0419" unicode="&#x419;" horiz-adv-x="696" 
d="M350 739q-72 0 -110.5 34t-38.5 117h81q0 -54 17 -69t51 -15q17 0 27 2t20.5 10t15.5 26t5 46h81q0 -83 -38.5 -117t-110.5 -34zM326 404l184 276h108v-680h-119v227q0 60 2 163t2 104h-1q-53 -90 -123 -199l-193 -295h-108v680h119v-228q0 -177 -6 -259h1q36 62 134 211
z" />
    <glyph glyph-name="uni041A" unicode="&#x41a;" horiz-adv-x="653" 
d="M620 575h-39q-33 0 -56.5 -13.5t-34.5 -29.5t-28 -47l-15 -27q-4 -7 -14 -26.5t-15.5 -28.5t-16.5 -22.5t-23 -21.5l276 -359h-153l-229 306h-29h-45v-306h-120v680h120v-287h15q23 0 41.5 5.5t30 12.5t24.5 24.5t19.5 28.5t21.5 38l28 52q16 32 27.5 49t33 38t53 30
t74.5 9h54v-105z" />
    <glyph glyph-name="uni041B" unicode="&#x41b;" horiz-adv-x="690" 
d="M12 -4v101q3 -1 16 -1q31 0 54 15.5t36.5 54.5t22 75t12 108t4 121t0.5 145v65h455v-680h-120v574h-218q0 -84 -1 -136.5t-5.5 -121t-13.5 -110t-25.5 -87t-40.5 -70t-59 -40.5t-81 -16q-16 0 -36 3z" />
    <glyph glyph-name="uni041C" unicode="&#x41c;" horiz-adv-x="806" 
d="M463 0h-120l-100 362q-31 111 -53 218h-2q6 -64 6 -285v-295h-116v680h178l107 -376q16 -54 40 -160h2q6 30 43 161l102 375h178v-680h-116v288q0 146 8 298h-2q-12 -71 -60 -247z" />
    <glyph glyph-name="uni041D" unicode="&#x41d;" horiz-adv-x="700" 
d="M502 298h-304v-298h-120v680h120v-275h304v275h120v-680h-120v298z" />
    <glyph glyph-name="uni041E" unicode="&#x41e;" horiz-adv-x="724" 
d="M40 340q0 157 88 254.5t234 97.5t234 -97.5t88 -254.5q0 -159 -84.5 -255.5t-237.5 -96.5q-151 0 -236.5 97t-85.5 255zM171 340q0 -112 51 -177.5t140 -65.5t140 65.5t51 177.5t-51 178.5t-140 66.5t-140 -66.5t-51 -178.5z" />
    <glyph glyph-name="uni041F" unicode="&#x41f;" horiz-adv-x="700" 
d="M502 572h-304v-572h-120v680h544v-680h-120v572z" />
    <glyph glyph-name="uni0420" unicode="&#x420;" horiz-adv-x="613" 
d="M198 574v-201h124q66 0 95 13q49 24 49 88q0 63 -49 87q-29 13 -95 13h-124zM78 0v680h227q77 0 129 -9.5t89 -41.5q67 -56 67 -155q0 -102 -67 -158q-37 -32 -89 -41.5t-129 -9.5h-107v-265h-120z" />
    <glyph glyph-name="uni0421" unicode="&#x421;" horiz-adv-x="663" 
d="M528 204l114 -48q-14 -28 -34 -53.5t-53 -53.5t-82.5 -44.5t-108.5 -16.5q-153 0 -238.5 96.5t-85.5 255.5q0 157 88 254.5t236 97.5q177 0 271 -156l-105 -65q-52 113 -166 113q-89 0 -140.5 -66t-51.5 -178t50.5 -176.5t141.5 -64.5q114 0 164 105z" />
    <glyph glyph-name="uni0422" unicode="&#x422;" horiz-adv-x="549" 
d="M16 573v107h517v-107h-198v-573h-120v573h-199z" />
    <glyph glyph-name="uni0423" unicode="&#x423;" horiz-adv-x="587" 
d="M248 161l-239 519h131l84 -192q46 -106 87 -212h2l79 214l72 190h126l-228 -538q-40 -93 -90 -123.5t-137 -30.5q-37 0 -54 4v103q16 -4 49 -4q20 0 32.5 1.5t30.5 7.5t31.5 21.5t23.5 39.5z" />
    <glyph glyph-name="uni0424" unicode="&#x424;" horiz-adv-x="789" 
d="M336 625v82h117v-82q144 -10 222.5 -84t78.5 -187q0 -114 -77.5 -187.5t-223.5 -85.5v-81h-117v81q-146 12 -223.5 85.5t-77.5 187.5q0 113 78.5 187t222.5 84zM623 354q0 154 -170 176v-353q170 26 170 177zM166 354q0 -151 170 -177v353q-170 -22 -170 -176z" />
    <glyph glyph-name="uni0425" unicode="&#x425;" horiz-adv-x="647" 
d="M396 355l249 -355h-146l-177 261l-184 -261h-137l251 346l-241 334h151l167 -241l165 241h144z" />
    <glyph glyph-name="uni0426" unicode="&#x426;" horiz-adv-x="721" 
d="M572 -169v169h-494v680h120v-573h293v573h120v-573h79v-276h-118z" />
    <glyph glyph-name="uni0427" unicode="&#x427;" horiz-adv-x="633" 
d="M555 680v-680h-120v280q-60 -41 -166 -41q-225 0 -225 184v257h120v-212q0 -70 32 -97t95 -27q99 0 144 52v284h120z" />
    <glyph glyph-name="uni0428" unicode="&#x428;" horiz-adv-x="1018" 
d="M198 107h251v573h120v-573h251v573h120v-680h-862v680h120v-573z" />
    <glyph glyph-name="uni0429" unicode="&#x429;" horiz-adv-x="1050" 
d="M78 0v680h120v-573h251v573h120v-573h251v573h120v-573h79v-276h-118v169h-823z" />
    <glyph glyph-name="uni042A" unicode="&#x42a;" horiz-adv-x="744" 
d="M16 680h317v-262h145q121 0 181 -55q61 -55 61 -154t-61 -154q-60 -55 -181 -55h-265v576h-197v104zM600 209q0 47 -26 73q-30 30 -95 30h-146v-206h146q65 0 95 30q26 26 26 73z" />
    <glyph glyph-name="uni042B" unicode="&#x42b;" horiz-adv-x="892" 
d="M465 209q0 47 -26 73q-30 30 -95 30h-146v-206h146q65 0 95 30q26 26 26 73zM198 680v-262h145q121 0 181 -55q61 -55 61 -154t-61 -154q-60 -55 -181 -55h-265v680h120zM814 680v-680h-120v680h120z" />
    <glyph glyph-name="uni042C" unicode="&#x42c;" horiz-adv-x="609" 
d="M465 209q0 47 -26 73q-30 30 -95 30h-146v-206h146q65 0 95 30q26 26 26 73zM198 680v-262h145q121 0 181 -55q61 -55 61 -154t-61 -154q-60 -55 -181 -55h-265v680h120z" />
    <glyph glyph-name="uni042D" unicode="&#x42d;" horiz-adv-x="664" 
d="M22 156l112 47q50 -104 166 -104q85 0 135 50.5t57 148.5h-281v107h279q-12 88 -61.5 133.5t-128.5 45.5q-116 0 -168 -113l-99 64q93 157 270 157q150 0 235.5 -93.5t85.5 -258.5q0 -159 -85.5 -255.5t-238.5 -96.5q-60 0 -109.5 16.5t-82 44.5t-52.5 53.5t-34 53.5z
" />
    <glyph glyph-name="uni042E" unicode="&#x42e;" horiz-adv-x="952" 
d="M198 680v-276h96q16 131 97 209.5t208 78.5q142 0 227 -97.5t85 -254.5q0 -159 -82 -255.5t-230 -96.5q-137 0 -216.5 84.5t-91.5 226.5h-93v-299h-120v680h120zM418 340q0 -112 48 -177.5t133 -65.5t133 65.5t48 177.5t-48.5 178.5t-132.5 66.5t-132.5 -66.5
t-48.5 -178.5z" />
    <glyph glyph-name="uni042F" unicode="&#x42f;" horiz-adv-x="645" 
d="M447 272h-123l-158 -272h-143l170 284q-50 22 -53 24q-90 59 -90 167q0 117 97 174q24 14 56 21.5t54 8.5t61 1h249v-680h-120v272zM447 380v194h-129q-66 0 -96 -13q-48 -20 -48 -83q0 -62 48 -85q30 -13 96 -13h129z" />
    <glyph glyph-name="uni0430" unicode="&#x430;" horiz-adv-x="516" 
d="M450 340v-235q0 -22 5.5 -30.5t22.5 -8.5h7v-69q-26 -6 -58 -6q-68 0 -79 49q-52 -52 -143 -52q-78 0 -124 37t-46 108q0 34 11 58.5t28 40.5t49.5 28t62.5 19t80 15l36 6q22 4 30 10.5t8 21.5v4q0 61 -86 61q-94 0 -96 -81l-107 3q0 84 57 124.5t151 40.5
q191 0 191 -144zM234 73q47 0 76.5 24.5t29.5 72.5v59q-22 -10 -41 -14l-65 -13q-44 -9 -63 -23.5t-19 -42.5q0 -63 82 -63z" />
    <glyph glyph-name="uni0431" unicode="&#x431;" horiz-adv-x="565" 
d="M290 -12q-240 0 -240 299q0 320 219 346q19 3 64.5 6t60.5 8t17 24h96q-2 -72 -38 -98q-21 -15 -49 -21.5t-73.5 -8.5t-61.5 -4q-67 -10 -97 -45t-33 -108h2q53 81 163 81q90 0 149 -64t59 -169q0 -110 -63 -178t-175 -68zM165 235q0 -69 34.5 -109t90.5 -40t90.5 40.5
t34.5 108.5q0 70 -33.5 109.5t-91.5 39.5q-57 0 -91 -40t-34 -109z" />
    <glyph glyph-name="uni0432" unicode="&#x432;" horiz-adv-x="536" 
d="M179 394v-111h118q72 0 72 57q0 54 -72 54h-118zM68 0v476h274q67 0 104.5 -30t37.5 -88q0 -68 -71 -101v-2q86 -30 86 -120q0 -62 -45 -98.5t-134 -36.5h-252zM179 207v-125h125q80 0 80 64q0 61 -80 61h-125z" />
    <glyph glyph-name="uni0433" unicode="&#x433;" horiz-adv-x="401" 
d="M383 476v-93h-199v-383h-116v476h315z" />
    <glyph glyph-name="uni0434" unicode="&#x434;" horiz-adv-x="610" 
d="M481 0h-351v-140h-111v227h55q43 26 57.5 106t14.5 270v13h363v-386h83v-230h-111v140zM393 385h-140q0 -219 -51 -294h191v294z" />
    <glyph glyph-name="uni0435" unicode="&#x435;" horiz-adv-x="533" 
d="M417 168l79 -60q-80 -120 -224 -120q-106 0 -171.5 69t-65.5 185q0 109 66.5 177t167.5 68q110 0 167.5 -68t57.5 -183q0 -4 -0.5 -14.5t-0.5 -14.5h-347q7 -52 40 -86.5t92 -34.5q30 0 55 8.5t42.5 24.5t24.5 25t17 24zM269 396q-53 0 -85.5 -30t-34.5 -74h232
q-2 47 -32.5 75.5t-79.5 28.5z" />
    <glyph glyph-name="uni0436" unicode="&#x436;" horiz-adv-x="752" 
d="M433 476v-196q18 -1 31 2.5t24 17t15.5 20.5t14.5 30t13 29q13 27 20 38.5t23 29.5t39.5 25.5t57.5 7.5h44v-97h-26q-23 0 -39.5 -11.5t-22.5 -22.5t-17 -35q-9 -20 -12.5 -28.5t-13.5 -21.5t-23 -21l185 -243h-134l-144 201h-35v-201h-114v201h-35l-144 -201h-134
l185 243q-13 8 -23 21t-13.5 21.5t-12.5 28.5q-11 24 -17 35t-22.5 22.5t-39.5 11.5h-26v97h44q34 0 57.5 -7.5t39.5 -25.5t23 -29.5t20 -38.5q3 -6 13 -29t14.5 -30t15.5 -20.5t24 -17t31 -2.5v196h114z" />
    <glyph glyph-name="uni0437" unicode="&#x437;" horiz-adv-x="506" 
d="M140 314l-101 20q3 70 57 111.5t153 41.5q101 0 154 -36.5t53 -100.5q0 -44 -25.5 -68.5t-55.5 -33.5v-2q13 -2 26.5 -8t30.5 -17.5t27.5 -33.5t10.5 -51q0 -67 -57 -107.5t-164 -40.5q-206 0 -226 164l103 19q6 -48 35 -69t86 -21q101 0 101 65q0 29 -25.5 42t-79.5 13
h-52v88h54q50 0 72 11.5t22 39.5t-25 42t-65 14q-52 0 -78.5 -22.5t-30.5 -59.5z" />
    <glyph glyph-name="uni0438" unicode="&#x438;" horiz-adv-x="577" 
d="M68 0v476h114v-184q0 -9 -3 -168h2q5 9 23 44t36 69t32 59l101 180h136v-476h-114v164q0 97 6 199h-2q-25 -52 -72 -137l-128 -226h-131z" />
    <glyph glyph-name="uni0439" unicode="&#x439;" horiz-adv-x="577" 
d="M292 529q-72 0 -110.5 34t-38.5 117h81q0 -54 17 -69t51 -15q17 0 27 2t20.5 10t15.5 26t5 46h81q0 -83 -38.5 -117t-110.5 -34zM68 0v476h114v-184q0 -9 -3 -168h2q5 9 23 44t36 69t32 59l101 180h136v-476h-114v164q0 97 6 199h-2q-25 -52 -72 -137l-128 -226h-131z
" />
    <glyph glyph-name="uni043A" unicode="&#x43a;" horiz-adv-x="520" 
d="M491 383h-32q-24 0 -41 -10.5t-23 -20t-20 -33.5q-2 -4 -8 -15.5t-9 -16.5t-8.5 -13t-11 -14t-12.5 -11l188 -249h-134l-153 201h-43v-201h-116v476h116v-194q9 -1 17.5 0t14.5 2.5t13 6.5t11.5 7t10.5 10t8.5 11t9 13.5t8 13t8 15.5l7.5 15q12 22 17 31t19 26.5t27.5 25
t36.5 14.5t52 7h47v-97z" />
    <glyph glyph-name="uni043B" unicode="&#x43b;" horiz-adv-x="597" 
d="M10 -6v84q7 -1 20 -1q27 0 45.5 6.5t30 26t18.5 37t10 59t3.5 72t0.5 93.5v105h391v-476h-116v384h-167v-38q0 -52 -0.5 -82.5t-3 -70.5t-7.5 -62t-14 -49t-22.5 -40.5t-33 -27t-45.5 -18.5t-60 -5q-29 0 -50 3z" />
    <glyph glyph-name="uni043C" unicode="&#x43c;" horiz-adv-x="678" 
d="M385 0h-91l-79 255q-12 36 -41 150h-2q0 -19 1 -89t1 -134v-182h-106v476h172l54 -182q7 -24 25 -85t25 -84h2q6 24 25 86t25 83l52 182h162v-476h-106v165q0 30 1 127.5t1 113.5h-2q0 -1 -15.5 -59.5t-26.5 -92.5z" />
    <glyph glyph-name="uni043D" unicode="&#x43d;" horiz-adv-x="566" 
d="M68 476h116v-183h198v183h116v-476h-116v204h-198v-204h-116v476z" />
    <glyph glyph-name="uni043E" unicode="&#x43e;" horiz-adv-x="548" 
d="M36 236q0 115 65 183t173 68t173 -68t65 -183q0 -114 -64 -181t-174 -67t-174 67t-64 181zM149 238q0 -71 34.5 -111.5t90.5 -40.5t90.5 41t34.5 111q0 71 -33.5 111.5t-91.5 40.5t-91.5 -40.5t-33.5 -111.5z" />
    <glyph glyph-name="uni043F" unicode="&#x43f;" horiz-adv-x="557" 
d="M68 476h421v-476h-116v384h-189v-384h-116v476z" />
    <glyph glyph-name="uni0440" unicode="&#x440;" horiz-adv-x="570" 
d="M322 -12q-88 0 -140 62v-240h-114v666h114v-53q49 64 140 64q96 0 153.5 -68t57.5 -183q0 -109 -58.5 -178.5t-152.5 -69.5zM177 238q0 -69 33.5 -110t87.5 -41q55 0 88 40t33 111t-33 111t-88 40q-54 0 -87.5 -41t-33.5 -110z" />
    <glyph glyph-name="uni0441" unicode="&#x441;" horiz-adv-x="504" 
d="M479 353l-95 -50q-29 86 -111 86q-58 0 -91 -40t-33 -111t33 -111t91 -40q82 0 114 81l92 -49q-20 -49 -73.5 -90t-135.5 -41q-107 0 -170.5 65t-63.5 183q0 117 66 184t168 67q79 0 132.5 -37t76.5 -97z" />
    <glyph glyph-name="uni0442" unicode="&#x442;" horiz-adv-x="458" 
d="M18 383v93h422v-93h-152v-383h-118v383h-152z" />
    <glyph glyph-name="uni0443" unicode="&#x443;" horiz-adv-x="458" 
d="M326 476h112l-159 -533q-23 -75 -50 -104q-34 -37 -111 -37q-32 0 -62 6v93q20 -5 39 -5q35 0 50.5 14t25.5 46l8 29l-171 491h121l78 -257q7 -22 18 -65l8 -33h1q5 24 7 32q7 33 17 66z" />
    <glyph glyph-name="uni0444" unicode="&#x444;" horiz-adv-x="864" 
d="M375 -190v241q-46 -63 -136 -63q-95 0 -148.5 68t-53.5 180q0 115 53.5 183t148.5 68q92 0 136 -67v260h114v-260q44 67 136 67q95 0 148.5 -68t53.5 -183q0 -112 -53.5 -180t-148.5 -68q-90 0 -136 63v-241h-114zM151 238q0 -69 32 -110.5t84 -41.5q53 0 83.5 40.5
t30.5 111.5q0 72 -30.5 112t-83.5 40q-52 0 -84 -41.5t-32 -110.5zM713 238q0 69 -32 110.5t-84 41.5q-53 0 -83.5 -40t-30.5 -112q0 -71 30.5 -111.5t83.5 -40.5q52 0 84 41.5t32 110.5z" />
    <glyph glyph-name="uni0445" unicode="&#x445;" horiz-adv-x="477" 
d="M325 476h130l-148 -224l164 -252h-131l-104 161l-101 -161h-129l164 252l-148 224h134l86 -140z" />
    <glyph glyph-name="uni0446" unicode="&#x446;" horiz-adv-x="594" 
d="M576 -140h-111v140h-397v476h116v-384h188v384h116v-384h88v-232z" />
    <glyph glyph-name="uni0447" unicode="&#x447;" horiz-adv-x="526" 
d="M458 476v-476h-116v167q-56 -23 -119 -23q-186 0 -186 172v160h116v-123q0 -64 24 -89t77 -25q54 0 88 22v215h116z" />
    <glyph glyph-name="uni0448" unicode="&#x448;" horiz-adv-x="802" 
d="M734 0h-666v476h116v-385h159v385h116v-385h159v385h116v-476z" />
    <glyph glyph-name="uni0449" unicode="&#x449;" horiz-adv-x="840" 
d="M68 0v476h116v-385h159v385h116v-385h159v385h116v-384h88v-232h-111v140h-643z" />
    <glyph glyph-name="uni044A" unicode="&#x44a;" horiz-adv-x="580" 
d="M266 476v-173h117q173 0 173 -151q0 -72 -44 -112t-134 -40h-223v384h-137v92h248zM266 219v-135h100q79 0 79 68q0 67 -79 67h-100z" />
    <glyph glyph-name="uni044B" unicode="&#x44b;" horiz-adv-x="742" 
d="M68 476h116v-173h117q173 0 173 -151q0 -72 -44 -112t-134 -40h-228v476zM184 219v-135h100q79 0 79 68q0 67 -79 67h-100zM674 476v-476h-114v476h114z" />
    <glyph glyph-name="uni044C" unicode="&#x44c;" horiz-adv-x="498" 
d="M68 476h116v-173h117q173 0 173 -151q0 -72 -44 -112t-134 -40h-228v476zM184 219v-135h100q79 0 79 68q0 67 -79 67h-100z" />
    <glyph glyph-name="uni044D" unicode="&#x44d;" horiz-adv-x="508" 
d="M158 197v86h202q-16 112 -123 112q-45 0 -76 -23.5t-44 -64.5l-87 47q24 56 80.5 94.5t133.5 38.5q102 0 165 -65t63 -182q0 -118 -64.5 -185t-170.5 -67q-83 0 -138 40.5t-75 88.5l92 49q31 -82 119 -82q53 0 86.5 28.5t39.5 84.5h-203z" />
    <glyph glyph-name="uni044E" unicode="&#x44e;" horiz-adv-x="772" 
d="M503 -12q-101 0 -160.5 57t-68.5 158h-90v-203h-116v476h116v-183h93q14 91 73 142.5t153 51.5q108 0 170 -68t62 -183t-61.5 -181.5t-170.5 -66.5zM384 238q0 -72 32 -112t87 -40t87 40.5t32 111.5q0 72 -31 112t-88 40t-88 -40t-31 -112z" />
    <glyph glyph-name="uni044F" unicode="&#x44f;" horiz-adv-x="538" 
d="M470 476v-476h-112v165h-101l-107 -165h-131l126 182q-94 29 -94 141q0 27 7 51t24 48.5t52.5 39t85.5 14.5h250zM354 259v130h-123q-27 0 -44 -15.5t-17 -48.5t17.5 -49.5t43.5 -16.5h123z" />
    <glyph glyph-name="uni0450" unicode="&#x450;" horiz-adv-x="533" 
d="M417 168l79 -60q-80 -120 -224 -120q-106 0 -171.5 69t-65.5 185q0 109 66.5 177t167.5 68q110 0 167.5 -68t57.5 -183q0 -4 -0.5 -14.5t-0.5 -14.5h-347q7 -52 40 -86.5t92 -34.5q30 0 55 8.5t42.5 24.5t24.5 25t17 24zM269 396q-53 0 -85.5 -30t-34.5 -74h232
q-2 47 -32.5 75.5t-79.5 28.5zM140 680h135l64 -128h-98z" />
    <glyph glyph-name="uni0451" unicode="&#x451;" horiz-adv-x="533" 
d="M417 168l79 -60q-80 -120 -224 -120q-106 0 -171.5 69t-65.5 185q0 109 66.5 177t167.5 68q110 0 167.5 -68t57.5 -183q0 -4 -0.5 -14.5t-0.5 -14.5h-347q7 -52 40 -86.5t92 -34.5q30 0 55 8.5t42.5 24.5t24.5 25t17 24zM269 396q-53 0 -85.5 -30t-34.5 -74h232
q-2 47 -32.5 75.5t-79.5 28.5zM124 560v109h108v-109h-108zM308 560v109h108v-109h-108z" />
    <glyph glyph-name="uni0452" unicode="&#x452;" horiz-adv-x="555" 
d="M-20 540v77h88v63h114v-63h151v-77h-151v-126q18 33 56.5 53t91.5 20q87 0 131 -59q32 -47 32 -159v-316q0 -64 -9 -86q-27 -67 -151 -67q-16 0 -31 1v95q22 2 31 3t22.5 6.5t18.5 17t5 30.5v287q0 64 -8 91q-17 55 -84 55q-52 0 -78.5 -36t-26.5 -96v-254h-114v540h-88z
" />
    <glyph glyph-name="uni0453" unicode="&#x453;" horiz-adv-x="401" 
d="M383 476v-93h-199v-383h-116v476h315zM216 680h135l-101 -128h-98z" />
    <glyph glyph-name="uni0454" unicode="&#x454;" horiz-adv-x="509" 
d="M351 283v-86h-203q6 -56 39.5 -84.5t86.5 -28.5q88 0 119 82l92 -49q-20 -48 -75 -88.5t-138 -40.5q-106 0 -170.5 65.5t-64.5 183.5q0 117 63 183.5t165 66.5q81 0 135.5 -38t78.5 -95l-87 -47q-13 41 -44 64.5t-76 23.5q-107 0 -123 -112h202z" />
    <glyph glyph-name="uni0455" unicode="&#x455;" horiz-adv-x="483" 
d="M436 412l-66 -71q-55 53 -134 53q-35 0 -56.5 -12t-21.5 -34q0 -23 20.5 -33t79.5 -22l57 -13q64 -14 100.5 -43t36.5 -88q0 -77 -60.5 -119t-147.5 -42q-78 0 -135 29.5t-85 67.5l77 68q53 -71 146 -71q90 0 90 54q0 16 -10 25.5t-21.5 13t-41.5 10.5l-71 15
q-70 16 -109 48t-39 92q0 72 57.5 109.5t134.5 37.5q65 0 118.5 -22.5t80.5 -52.5z" />
    <glyph glyph-name="uni0456" unicode="&#x456;" horiz-adv-x="250" 
d="M182 476v-476h-114v476h114zM182 680v-116h-114v116h114z" />
    <glyph glyph-name="uni0457" unicode="&#x457;" horiz-adv-x="250" 
d="M182 476v-476h-114v476h114zM-19 560v109h108v-109h-108zM165 560v109h108v-109h-108z" />
    <glyph glyph-name="uni0458" unicode="&#x458;" horiz-adv-x="258" 
d="M76 476h114v-522q0 -64 -9 -86q-27 -67 -151 -67q-16 0 -31 1v95q47 0 62 12t15 45v522zM190 680v-116h-114v116h114z" />
    <glyph glyph-name="uni0459" unicode="&#x459;" horiz-adv-x="843" 
d="M138 371v105h391v-173h117q173 0 173 -151q0 -72 -44 -112t-134 -40h-228v384h-167v-38q0 -52 -0.5 -82.5t-3 -70.5t-7.5 -62t-14 -49t-22.5 -40.5t-33 -27t-45.5 -18.5t-60 -5q-29 0 -50 3v84q7 -1 20 -1q27 0 45.5 6.5t30 26t18.5 37t10 59t3.5 72t0.5 93.5zM529 219
v-135h100q79 0 79 68q0 67 -79 67h-100z" />
    <glyph glyph-name="uni045A" unicode="&#x45a;" horiz-adv-x="810" 
d="M184 214v-214h-116v476h116v-173h196v173h116v-173h117q173 0 173 -151q0 -72 -44 -112t-134 -40h-228v214h-196zM496 219v-135h100q79 0 79 68q0 67 -79 67h-100z" />
    <glyph glyph-name="uni045B" unicode="&#x45b;" horiz-adv-x="555" 
d="M182 254v-254h-114v540h-88v77h88v63h114v-63h151v-77h-151v-126q18 33 56.5 53t91.5 20q87 0 131 -59q32 -47 32 -159v-269h-114v240q0 64 -8 91q-17 55 -84 55q-52 0 -78.5 -36t-26.5 -96z" />
    <glyph glyph-name="uni045C" unicode="&#x45c;" horiz-adv-x="520" 
d="M491 383h-32q-24 0 -41 -10.5t-23 -20t-20 -33.5q-2 -4 -8 -15.5t-9 -16.5t-8.5 -13t-11 -14t-12.5 -11l188 -249h-134l-153 201h-43v-201h-116v476h116v-194q9 -1 17.5 0t14.5 2.5t13 6.5t11.5 7t10.5 10t8.5 11t9 13.5t8 13t8 15.5l7.5 15q12 22 17 31t19 26.5t27.5 25
t36.5 14.5t52 7h47v-97zM270 680h135l-101 -128h-98z" />
    <glyph glyph-name="uni045D" unicode="&#x45d;" horiz-adv-x="577" 
d="M68 0v476h114v-184q0 -9 -3 -168h2q5 9 23 44t36 69t32 59l101 180h136v-476h-114v164q0 97 6 199h-2q-25 -52 -72 -137l-128 -226h-131zM164 680h135l64 -128h-98z" />
    <glyph glyph-name="uni045E" unicode="&#x45e;" horiz-adv-x="458" 
d="M326 476h112l-159 -533q-23 -75 -50 -104q-34 -37 -111 -37q-32 0 -62 6v93q20 -5 39 -5q35 0 50.5 14t25.5 46l8 29l-171 491h121l78 -257q7 -22 18 -65l8 -33h1q5 24 7 32q7 33 17 66zM235 529q-72 0 -110.5 34t-38.5 117h81q0 -54 17 -69t51 -15q17 0 27 2t20.5 10
t15.5 26t5 46h81q0 -83 -38.5 -117t-110.5 -34z" />
    <glyph glyph-name="uni045F" unicode="&#x45f;" horiz-adv-x="556" 
d="M333 -140h-110v140h-155v476h116v-384h188v384h116v-476h-155v-140z" />
    <glyph glyph-name="uni0462" unicode="&#x462;" horiz-adv-x="707" 
d="M152 808h120v-128h149v-104h-150v-158h170q121 0 181 -55q61 -55 61 -154t-61 -154q-60 -55 -181 -55h-290v576h-137v104h138v128zM563 209q0 47 -26 73q-30 30 -95 30h-171v-206h171q65 0 95 30q26 26 26 73z" />
    <glyph glyph-name="uni0463" unicode="&#x463;" horiz-adv-x="600" 
d="M408 384h-142v-81h137q173 0 173 -151q0 -72 -44 -112t-134 -40h-248v384h-132v92h132v111h116v-111h142v-92zM266 219v-135h120q79 0 79 68q0 67 -79 67h-120z" />
    <glyph glyph-name="uni046A" unicode="&#x46a;" horiz-adv-x="857" 
d="M488 326v-326h-119v326h-70q-78 0 -107 -19q-35 -24 -35 -97v-210h-120v245q0 99 71 143q56 35 168 35h30l-175 256h595l-175 -256h30q112 0 168 -35q71 -44 71 -143v-245h-120v210q0 73 -35 97q-29 19 -107 19h-70zM327 581l101 -161l102 161h-203z" />
    <glyph glyph-name="uni046B" unicode="&#x46b;" horiz-adv-x="687" 
d="M244 304l-133 172h465l-133 -172h20q95 0 144 -31q46 -31 46 -110v-163h-111v157q0 39 -19.5 52.5t-73.5 13.5h-50v-223h-111v223h-50q-54 0 -73.5 -13.5t-19.5 -52.5v-157h-111v163q0 79 46 110q49 31 144 31h20zM281 399l62 -93l63 93h-125z" />
    <glyph glyph-name="uni0472" unicode="&#x472;" horiz-adv-x="724" 
d="M40 340q0 157 88 254.5t234 97.5t234 -97.5t88 -254.5q0 -159 -84.5 -255.5t-237.5 -96.5q-151 0 -236.5 97t-85.5 255zM362 97q83 0 133 54t58 150h-383q9 -96 59 -150t133 -54zM362 585q-76 0 -125 -48.5t-63 -134.5h376q-14 86 -63.5 134.5t-124.5 48.5z" />
    <glyph glyph-name="uni0473" unicode="&#x473;" horiz-adv-x="548" 
d="M36 236q0 115 65 183t173 68t173 -68t65 -183q0 -114 -64 -181t-174 -67t-174 67t-64 181zM274 86q48 0 81.5 30.5t43.5 83.5h-250q9 -53 42.5 -83.5t82.5 -30.5zM274 390q-48 0 -80.5 -27.5t-43.5 -78.5h247q-11 51 -43.5 78.5t-79.5 27.5z" />
    <glyph glyph-name="uni0474" unicode="&#x474;" horiz-adv-x="680" 
d="M135 680l119 -395q13 -41 42 -150h2q30 107 45 155l68 221q14 44 26.5 71t34 54t55 39.5t80.5 12.5q36 0 52 -3v-104q-16 3 -36 3q-68 0 -92 -76l-165 -508h-146l-211 680h126z" />
    <glyph glyph-name="uni0475" unicode="&#x475;" horiz-adv-x="525" 
d="M167 0l-154 476h118l99 -343h2l68 235q16 58 47.5 84.5t110.5 26.5q24 0 42 -3v-84q-11 3 -31 3q-31 0 -47.5 -15t-28.5 -51l-106 -329h-120z" />
    <glyph glyph-name="uni048C" unicode="&#x48c;" horiz-adv-x="707" 
d="M152 808h120v-128h149v-104h-150v-158h170q121 0 181 -55q61 -55 61 -154t-61 -154q-60 -55 -181 -55h-290v576h-137v104h138v128zM563 209q0 47 -26 73q-30 30 -95 30h-171v-206h171q65 0 95 30q26 26 26 73z" />
    <glyph glyph-name="uni048D" unicode="&#x48d;" horiz-adv-x="600" 
d="M408 384h-142v-81h137q173 0 173 -151q0 -72 -44 -112t-134 -40h-248v384h-132v92h132v111h116v-111h142v-92zM266 219v-135h120q79 0 79 68q0 67 -79 67h-120z" />
    <glyph glyph-name="uni0490" unicode="&#x490;" horiz-adv-x="560" 
d="M542 849v-276h-344v-573h-120v680h346v169h118z" />
    <glyph glyph-name="uni0491" unicode="&#x491;" horiz-adv-x="391" 
d="M184 383v-383h-116v476h196v138h109v-231h-189z" />
    <glyph glyph-name="uni0492" unicode="&#x492;" horiz-adv-x="578" 
d="M11 286v96h92v298h464v-107h-344v-191h158v-96h-158v-286h-120v286h-92z" />
    <glyph glyph-name="uni0493" unicode="&#x493;" horiz-adv-x="421" 
d="M13 182v80h76v214h305v-93h-189v-121h119v-80h-119v-182h-116v182h-76z" />
    <glyph glyph-name="uni0496" unicode="&#x496;" horiz-adv-x="1001" 
d="M551 680v-287h12q27 0 44.5 4.5t33 22t23.5 30.5t27 51l27 53q16 30 21.5 40t22 32t31.5 30t41.5 16t59.5 8h54v-105h-36q-25 0 -41.5 -5.5t-29.5 -20t-19.5 -25.5t-18.5 -37l-14 -29q-38 -78 -76 -101l186 -250h83v-276h-118v169h-32l-220 306h-26h-35v-306h-119v306
h-35h-26l-220 -306h-147l266 357q-38 23 -76 101l-14 29q-16 33 -25 47.5t-30.5 27.5t-53.5 13h-36v105h54q33 0 59.5 -8t41.5 -16t31.5 -30t22 -32t21.5 -40l27 -53q19 -38 27 -51t23.5 -30.5t33 -22t44.5 -4.5h12v287h119z" />
    <glyph glyph-name="uni0497" unicode="&#x497;" horiz-adv-x="783" 
d="M433 476v-196q18 -1 31 2.5t24 17t15.5 20.5t14.5 30t13 29q13 27 20 38.5t23 29.5t39.5 25.5t57.5 7.5h44v-97h-26q-23 0 -39.5 -11.5t-22.5 -22.5t-17 -35q-9 -20 -12.5 -28.5t-13.5 -21.5t-23 -21l115 -151h95v-232h-111v140h-48l-144 201h-35v-201h-114v201h-35
l-144 -201h-134l185 243q-13 8 -23 21t-13.5 21.5t-12.5 28.5q-11 24 -17 35t-22.5 22.5t-39.5 11.5h-26v97h44q34 0 57.5 -7.5t39.5 -25.5t23 -29.5t20 -38.5q3 -6 13 -29t14.5 -30t15.5 -20.5t24 -17t31 -2.5v196h114z" />
    <glyph glyph-name="uni0498" unicode="&#x498;" 
d="M29 200l119 17q21 -129 142 -129q66 0 100 33.5t34 80.5q0 77 -82 99q-28 7 -96 7h-45v97h56q54 0 78 6q74 17 74 90q0 40 -31 67t-90 27q-65 0 -95.5 -35t-33.5 -80l-111 18q2 80 66.5 137t180.5 57q113 0 174.5 -47.5t61.5 -125.5q0 -106 -112 -154q132 -45 132 -171
q0 -79 -54.5 -134t-151.5 -68v-161h-111v161q-94 12 -145.5 66.5t-59.5 141.5z" />
    <glyph glyph-name="uni0499" unicode="&#x499;" horiz-adv-x="506" 
d="M140 314l-101 20q3 70 57 111.5t153 41.5q101 0 154 -36.5t53 -100.5q0 -44 -25.5 -68.5t-55.5 -33.5v-2q13 -2 26.5 -8t30.5 -17.5t27.5 -33.5t10.5 -51q0 -57 -41 -95t-120 -49v-132h-111v131q-158 18 -175 161l103 19q6 -48 35 -69t86 -21q101 0 101 65q0 29 -25.5 42
t-79.5 13h-52v88h54q50 0 72 11.5t22 39.5t-25 42t-65 14q-52 0 -78.5 -22.5t-30.5 -59.5z" />
    <glyph glyph-name="uni049A" unicode="&#x49a;" horiz-adv-x="668" 
d="M650 107v-276h-118v169h-31l-229 306h-29h-45v-306h-120v680h120v-287h15q23 0 41.5 5.5t30 12.5t24.5 24.5t19.5 28.5t21.5 38l28 52q16 32 27.5 49t33 38t53 30t74.5 9h54v-105h-39q-33 0 -56.5 -13.5t-34.5 -29.5t-28 -47l-15 -27q-4 -7 -14 -26.5t-15.5 -28.5
t-16.5 -22.5t-23 -21.5l194 -252h78z" />
    <glyph glyph-name="uni049B" unicode="&#x49b;" horiz-adv-x="539" 
d="M486 383h-32q-24 0 -41 -10.5t-23 -20t-20 -33.5q-2 -4 -8 -15.5t-9 -16.5t-8.5 -13t-11 -14t-12.5 -11l118 -157h91v-232h-111v140h-46l-153 201h-36v-201h-116v476h116v-194q15 -1 27.5 2.5t20 7.5t17 17t13 18t13.5 25l12 24q12 22 17 31t19 26.5t27.5 25t36.5 14.5
t52 7h47v-97z" />
    <glyph glyph-name="uni049C" unicode="&#x49c;" horiz-adv-x="747" 
d="M337 141h-85v165h-54v-306h-120v680h120v-287h54v170h85v-168q37 5 58 29.5t49 77.5l28 52q16 32 27.5 49t33 38t53 30t74.5 9h54v-105h-39q-33 0 -56.5 -13.5t-34.5 -29.5t-28 -47l-15 -27q-4 -7 -14 -26.5t-15.5 -28.5t-16.5 -22.5t-23 -21.5l276 -359h-153l-229 306
h-29v-165z" />
    <glyph glyph-name="uni049D" unicode="&#x49d;" horiz-adv-x="610" 
d="M581 383h-32q-35 0 -52 -14t-32 -42q-2 -4 -8 -15.5t-9 -16.5t-8.5 -13t-11 -14t-12.5 -11l188 -257h-134l-153 209h-19v-104h-76v104h-42v-209h-112v476h112v-186h42v108h76v-108q20 1 37 18t24.5 31t22.5 45q11 22 20.5 35.5t27 29.5t43.5 23.5t61 7.5h47v-97z" />
    <glyph glyph-name="uni04A0" unicode="&#x4a0;" horiz-adv-x="788" 
d="M333 306v-306h-120v576h-197v104h317v-287h15q23 0 41.5 5.5t30 12.5t24.5 24.5t19.5 28.5t21.5 38l28 52q16 32 27.5 49t33 38t53 30t74.5 9h54v-105h-39q-33 0 -56.5 -13.5t-34.5 -29.5t-28 -47l-15 -27q-4 -7 -14 -26.5t-15.5 -28.5t-16.5 -22.5t-23 -21.5l276 -359
h-153l-229 306h-29h-45z" />
    <glyph glyph-name="uni04A1" unicode="&#x4a1;" horiz-adv-x="597" 
d="M568 383h-32q-24 0 -41 -10.5t-23 -20t-20 -33.5q-2 -4 -8 -15.5t-9 -16.5t-8.5 -13t-11 -14t-12.5 -11l188 -249h-136l-153 201h-36v-201h-116v384h-132v92h248v-194q15 -1 27.5 2.5t20 7.5t17 17t13 18t13.5 25l12 24q12 22 17 31t19 26.5t27.5 25t36.5 14.5t52 7h47
v-97z" />
    <glyph glyph-name="uni04A2" unicode="&#x4a2;" horiz-adv-x="732" 
d="M502 0v298h-304v-298h-120v680h120v-275h304v275h120v-573h79v-276h-118v169h-81z" />
    <glyph glyph-name="uni04A3" unicode="&#x4a3;" horiz-adv-x="604" 
d="M382 0v204h-198v-204h-116v476h116v-183h198v183h116v-384h88v-232h-111v140h-93z" />
    <glyph glyph-name="uni04A4" unicode="&#x4a4;" horiz-adv-x="835" 
d="M502 298h-304v-298h-120v680h120v-275h304v275h317v-104h-197v-576h-120v298z" />
    <glyph glyph-name="uni04A5" unicode="&#x4a5;" horiz-adv-x="678" 
d="M68 476h116v-183h198v183h278v-92h-162v-384h-116v204h-198v-204h-116v476z" />
    <glyph glyph-name="uni04AA" unicode="&#x4aa;" horiz-adv-x="663" 
d="M528 204l114 -48q-77 -147 -233 -165v-160h-111v163q-123 20 -190.5 113t-67.5 233q0 157 88 254.5t236 97.5q177 0 271 -156l-105 -65q-52 113 -166 113q-89 0 -140.5 -66t-51.5 -178t50.5 -176.5t141.5 -64.5q114 0 164 105z" />
    <glyph glyph-name="uni04AB" unicode="&#x4ab;" horiz-adv-x="504" 
d="M479 353l-95 -50q-29 86 -111 86q-58 0 -91 -40t-33 -111t33 -111t91 -40q82 0 114 81l92 -49q-51 -107 -166 -127v-132h-111v136q-78 19 -122 80.5t-44 159.5q0 117 66 184t168 67q79 0 132.5 -37t76.5 -97z" />
    <glyph glyph-name="uni04AE" unicode="&#x4ae;" horiz-adv-x="622" 
d="M369 278v-278h-120v278l-247 402h139l174 -291l177 291h138z" />
    <glyph glyph-name="uni04AF" unicode="&#x4af;" horiz-adv-x="458" 
d="M328 476h117l-160 -490v-176h-114v176l-157 490h118l73 -261l18 -66l8 -29h1l7 29q6 29 18 69z" />
    <glyph glyph-name="uni04B0" unicode="&#x4b0;" horiz-adv-x="631" 
d="M374 278v-2h165v-78h-165v-198h-120v198h-165v78h165v2l-247 402h139l174 -291l177 291h138z" />
    <glyph glyph-name="uni04B1" unicode="&#x4b1;" horiz-adv-x="474" 
d="M336 476h117l-137 -420h132v-76h-155v-170h-114v170h-155v76h132l-134 420h118l73 -261l18 -66l8 -29h1l7 29q6 29 18 69z" />
    <glyph glyph-name="uni04B2" unicode="&#x4b2;" horiz-adv-x="666" 
d="M396 355l174 -248h79v-276h-118v169h-32l-177 261l-184 -261h-137l251 346l-241 334h151l167 -241l165 241h144z" />
    <glyph glyph-name="uni04B3" unicode="&#x4b3;" horiz-adv-x="509" 
d="M338 0l-102 158l-99 -158h-131l164 252l-148 224h138l82 -133l79 133h134l-148 -224l104 -160h85v-232h-111v140h-47z" />
    <glyph glyph-name="uni04B6" unicode="&#x4b6;" horiz-adv-x="665" 
d="M555 680v-573h79v-276h-118v169h-81v280q-60 -41 -166 -41q-225 0 -225 184v257h120v-212q0 -70 32 -97t95 -27q99 0 144 52v284h120z" />
    <glyph glyph-name="uni04B7" unicode="&#x4b7;" horiz-adv-x="564" 
d="M342 0v167q-56 -23 -119 -23q-186 0 -186 172v160h116v-123q0 -64 24 -89t77 -25q54 0 88 22v215h116v-384h88v-232h-111v140h-93z" />
    <glyph glyph-name="uni04B8" unicode="&#x4b8;" horiz-adv-x="639" 
d="M561 680v-680h-120v280q-37 -25 -100 -36v-163h-85v158q-206 8 -206 184v257h120v-212q0 -58 21.5 -86t64.5 -35v156h85v-156q69 12 100 49v284h120z" />
    <glyph glyph-name="uni04B9" unicode="&#x4b9;" horiz-adv-x="532" 
d="M464 476v-476h-116v167q-24 -11 -57 -17v-106h-76v100q-87 3 -129.5 45t-42.5 127v160h116v-123q0 -50 13 -75t43 -34v117h76v-120q32 5 57 20v215h116z" />
    <glyph glyph-name="uni04BA" unicode="&#x4ba;" horiz-adv-x="633" 
d="M78 0v680h120v-280q60 41 166 41q225 0 225 -184v-257h-120v212q0 70 -32 97t-95 27q-99 0 -144 -52v-284h-120z" />
    <glyph glyph-name="uni04BB" unicode="&#x4bb;" horiz-adv-x="555" 
d="M493 269v-269h-114v240q0 64 -8 91q-17 55 -84 55q-52 0 -78.5 -36t-26.5 -96v-254h-114v680h114v-266q18 33 56.5 53t91.5 20q87 0 131 -59q32 -47 32 -159z" />
    <glyph glyph-name="uni04C0" unicode="&#x4c0;" horiz-adv-x="276" 
d="M198 680v-680h-120v680h120z" />
    <glyph glyph-name="uni04C1" unicode="&#x4c1;" horiz-adv-x="983" 
d="M551 680v-287h12q27 0 44.5 4.5t33 22t23.5 30.5t27 51l27 53q16 30 21.5 40t22 32t31.5 30t41.5 16t59.5 8h54v-105h-36q-25 0 -41.5 -5.5t-29.5 -20t-19.5 -25.5t-18.5 -37l-14 -29q-38 -78 -76 -101l266 -357h-147l-220 306h-26h-35v-306h-119v306h-35h-26l-220 -306
h-147l266 357q-38 23 -76 101l-14 29q-16 33 -25 47.5t-30.5 27.5t-53.5 13h-36v105h54q33 0 59.5 -8t41.5 -16t31.5 -30t22 -32t21.5 -40l27 -53q19 -38 27 -51t23.5 -30.5t33 -22t44.5 -4.5h12v287h119zM494 739q-72 0 -110.5 34t-38.5 117h81q0 -54 17 -69t51 -15
q17 0 27 2t20.5 10t15.5 26t5 46h81q0 -83 -38.5 -117t-110.5 -34z" />
    <glyph glyph-name="uni04C2" unicode="&#x4c2;" horiz-adv-x="752" 
d="M433 476v-196q18 -1 31 2.5t24 17t15.5 20.5t14.5 30t13 29q13 27 20 38.5t23 29.5t39.5 25.5t57.5 7.5h44v-97h-26q-23 0 -39.5 -11.5t-22.5 -22.5t-17 -35q-9 -20 -12.5 -28.5t-13.5 -21.5t-23 -21l185 -243h-134l-144 201h-35v-201h-114v201h-35l-144 -201h-134
l185 243q-13 8 -23 21t-13.5 21.5t-12.5 28.5q-11 24 -17 35t-22.5 22.5t-39.5 11.5h-26v97h44q34 0 57.5 -7.5t39.5 -25.5t23 -29.5t20 -38.5q3 -6 13 -29t14.5 -30t15.5 -20.5t24 -17t31 -2.5v196h114zM379 529q-72 0 -110.5 34t-38.5 117h81q0 -54 17 -69t51 -15
q17 0 27 2t20.5 10t15.5 26t5 46h81q0 -83 -38.5 -117t-110.5 -34z" />
    <glyph glyph-name="uni04CF" unicode="&#x4cf;" horiz-adv-x="250" 
d="M182 476v-476h-114v476h114z" />
    <glyph glyph-name="uni04D0" unicode="&#x4d0;" horiz-adv-x="615" 
d="M177 159l-54 -159h-120l237 680h136l235 -680h-124l-53 159h-257zM400 261l-46 155l-48 161h-1l-50 -169l-45 -147h190zM306 739q-72 0 -110.5 34t-38.5 117h81q0 -54 17 -69t51 -15q17 0 27 2t20.5 10t15.5 26t5 46h81q0 -83 -38.5 -117t-110.5 -34z" />
    <glyph glyph-name="uni04D1" unicode="&#x4d1;" horiz-adv-x="516" 
d="M450 340v-235q0 -22 5.5 -30.5t22.5 -8.5h7v-69q-26 -6 -58 -6q-68 0 -79 49q-52 -52 -143 -52q-78 0 -124 37t-46 108q0 34 11 58.5t28 40.5t49.5 28t62.5 19t80 15l36 6q22 4 30 10.5t8 21.5v4q0 61 -86 61q-94 0 -96 -81l-107 3q0 84 57 124.5t151 40.5
q191 0 191 -144zM234 73q47 0 76.5 24.5t29.5 72.5v59q-22 -10 -41 -14l-65 -13q-44 -9 -63 -23.5t-19 -42.5q0 -63 82 -63zM266 529q-72 0 -110.5 34t-38.5 117h81q0 -54 17 -69t51 -15q17 0 27 2t20.5 10t15.5 26t5 46h81q0 -83 -38.5 -117t-110.5 -34z" />
    <glyph glyph-name="uni04D2" unicode="&#x4d2;" horiz-adv-x="615" 
d="M177 159l-54 -159h-120l237 680h136l235 -680h-124l-53 159h-257zM400 261l-46 155l-48 161h-1l-50 -169l-45 -147h190zM160 762v109h108v-109h-108zM344 762v109h108v-109h-108z" />
    <glyph glyph-name="uni04D3" unicode="&#x4d3;" horiz-adv-x="516" 
d="M450 340v-235q0 -22 5.5 -30.5t22.5 -8.5h7v-69q-26 -6 -58 -6q-68 0 -79 49q-52 -52 -143 -52q-78 0 -124 37t-46 108q0 34 11 58.5t28 40.5t49.5 28t62.5 19t80 15l36 6q22 4 30 10.5t8 21.5v4q0 61 -86 61q-94 0 -96 -81l-107 3q0 84 57 124.5t151 40.5
q191 0 191 -144zM234 73q47 0 76.5 24.5t29.5 72.5v59q-22 -10 -41 -14l-65 -13q-44 -9 -63 -23.5t-19 -42.5q0 -63 82 -63zM117 560v109h108v-109h-108zM301 560v109h108v-109h-108z" />
    <glyph glyph-name="uni04D4" unicode="&#x4d4;" horiz-adv-x="954" 
d="M382 680h514v-107h-330v-168h299v-107h-299v-191h352v-107h-472v164h-243l-97 -164h-128zM446 261l1 134q2 178 2 198h-2q-11 -22 -67 -120l-122 -212h188z" />
    <glyph glyph-name="uni04D5" unicode="&#x4d5;" horiz-adv-x="826" 
d="M393 60q-72 -72 -188 -72q-78 0 -124 37t-46 108q0 34 11 58.5t28 40.5t49.5 28t62.5 19t80 15l36 6q22 4 30 10.5t8 21.5v4q0 62 -86 62q-95 0 -96 -82l-107 3q0 85 57 125.5t151 40.5q107 0 154 -53q66 55 151 55q107 0 165 -71t58 -185q0 -4 -0.5 -12t-0.5 -12h-343
q7 -53 39 -87t92 -34q30 0 54 8t41 25t23.5 25t17.5 24l79 -60q-80 -120 -222 -120q-59 0 -106.5 23t-67.5 49zM234 73q47 0 76.5 24.5t29.5 72.5v59q-22 -10 -41 -14l-65 -13q-44 -9 -63 -23.5t-19 -42.5q0 -63 82 -63zM564 396q-53 0 -84.5 -29.5t-33.5 -74.5h228
q-2 47 -31.5 75.5t-78.5 28.5z" />
    <glyph glyph-name="uni04D6" unicode="&#x4d6;" horiz-adv-x="613" 
d="M554 573h-358v-168h325v-107h-325v-191h383v-107h-501v680h476v-107zM324 739q-72 0 -110.5 34t-38.5 117h81q0 -54 17 -69t51 -15q17 0 27 2t20.5 10t15.5 26t5 46h81q0 -83 -38.5 -117t-110.5 -34z" />
    <glyph glyph-name="uni04D7" unicode="&#x4d7;" horiz-adv-x="533" 
d="M417 168l79 -60q-80 -120 -224 -120q-106 0 -171.5 69t-65.5 185q0 109 66.5 177t167.5 68q110 0 167.5 -68t57.5 -183q0 -4 -0.5 -14.5t-0.5 -14.5h-347q7 -52 40 -86.5t92 -34.5q30 0 55 8.5t42.5 24.5t24.5 25t17 24zM269 396q-53 0 -85.5 -30t-34.5 -74h232
q-2 47 -32.5 75.5t-79.5 28.5zM271 529q-72 0 -110.5 34t-38.5 117h81q0 -54 17 -69t51 -15q17 0 27 2t20.5 10t15.5 26t5 46h81q0 -83 -38.5 -117t-110.5 -34z" />
    <glyph glyph-name="uni04D8" unicode="&#x4d8;" horiz-adv-x="724" 
d="M136 463l-91 69q17 25 39 47.5t59.5 50.5t92 45t117.5 17q151 0 241 -97.5t90 -259.5q0 -154 -92.5 -249.5t-234.5 -95.5q-155 0 -236 97t-81 256q0 11 1 28h513q-4 91 -61 151t-154 60q-128 0 -203 -119zM357 94q85 0 137 52t56 129h-376q4 -81 54 -131t129 -50z" />
    <glyph glyph-name="uni04D9" unicode="&#x4d9;" horiz-adv-x="533" 
d="M116 307l-79 60q80 120 224 120q106 0 171.5 -69t65.5 -185q0 -109 -67 -177t-167 -68q-110 0 -167.5 68t-57.5 183q0 4 0.5 14.5t0.5 14.5h347q-7 52 -40 86.5t-92 34.5q-30 0 -55 -8.5t-42.5 -24.5t-24.5 -25t-17 -24zM264 79q53 0 85.5 30t34.5 74h-232
q2 -47 32.5 -75.5t79.5 -28.5z" />
    <glyph glyph-name="uni04DA" unicode="&#x4da;" horiz-adv-x="724" 
d="M216 762v109h108v-109h-108zM400 762v109h108v-109h-108zM136 463l-91 69q17 25 39 47.5t59.5 50.5t92 45t117.5 17q151 0 241 -97.5t90 -259.5q0 -154 -92.5 -249.5t-234.5 -95.5q-155 0 -236 97t-81 256q0 11 1 28h513q-4 91 -61 151t-154 60q-128 0 -203 -119zM357 94
q85 0 137 52t56 129h-376q4 -81 54 -131t129 -50z" />
    <glyph glyph-name="uni04DB" unicode="&#x4db;" horiz-adv-x="533" 
d="M114 560v109h108v-109h-108zM298 560v109h108v-109h-108zM116 307l-79 60q80 120 224 120q106 0 171.5 -69t65.5 -185q0 -109 -67 -177t-167 -68q-110 0 -167.5 68t-57.5 183q0 4 0.5 14.5t0.5 14.5h347q-7 52 -40 86.5t-92 34.5q-30 0 -55 -8.5t-42.5 -24.5t-24.5 -25
t-17 -24zM264 79q53 0 85.5 30t34.5 74h-232q2 -47 32.5 -75.5t79.5 -28.5z" />
    <glyph glyph-name="uni04DC" unicode="&#x4dc;" horiz-adv-x="983" 
d="M551 680v-287h12q27 0 44.5 4.5t33 22t23.5 30.5t27 51l27 53q16 30 21.5 40t22 32t31.5 30t41.5 16t59.5 8h54v-105h-36q-25 0 -41.5 -5.5t-29.5 -20t-19.5 -25.5t-18.5 -37l-14 -29q-38 -78 -76 -101l266 -357h-147l-220 306h-26h-35v-306h-119v306h-35h-26l-220 -306
h-147l266 357q-38 23 -76 101l-14 29q-16 33 -25 47.5t-30.5 27.5t-53.5 13h-36v105h54q33 0 59.5 -8t41.5 -16t31.5 -30t22 -32t21.5 -40l27 -53q19 -38 27 -51t23.5 -30.5t33 -22t44.5 -4.5h12v287h119zM346 762v109h108v-109h-108zM530 762v109h108v-109h-108z" />
    <glyph glyph-name="uni04DD" unicode="&#x4dd;" horiz-adv-x="752" 
d="M433 476v-196q18 -1 31 2.5t24 17t15.5 20.5t14.5 30t13 29q13 27 20 38.5t23 29.5t39.5 25.5t57.5 7.5h44v-97h-26q-23 0 -39.5 -11.5t-22.5 -22.5t-17 -35q-9 -20 -12.5 -28.5t-13.5 -21.5t-23 -21l185 -243h-134l-144 201h-35v-201h-114v201h-35l-144 -201h-134
l185 243q-13 8 -23 21t-13.5 21.5t-12.5 28.5q-11 24 -17 35t-22.5 22.5t-39.5 11.5h-26v97h44q34 0 57.5 -7.5t39.5 -25.5t23 -29.5t20 -38.5q3 -6 13 -29t14.5 -30t15.5 -20.5t24 -17t31 -2.5v196h114zM229 560v109h108v-109h-108zM413 560v109h108v-109h-108z" />
    <glyph glyph-name="uni04DE" unicode="&#x4de;" 
d="M29 200l119 17q21 -129 142 -129q66 0 100 33.5t34 80.5q0 77 -82 99q-28 7 -96 7h-45v97h56q54 0 78 6q74 17 74 90q0 40 -31 67t-90 27q-65 0 -95.5 -35t-33.5 -80l-111 18q2 80 66.5 137t180.5 57q113 0 174.5 -47.5t61.5 -125.5q0 -106 -112 -154q132 -45 132 -171
q0 -90 -70.5 -148t-190.5 -58q-119 0 -185.5 57t-75.5 155zM145 762v109h108v-109h-108zM329 762v109h108v-109h-108z" />
    <glyph glyph-name="uni04DF" unicode="&#x4df;" horiz-adv-x="506" 
d="M113 560v109h108v-109h-108zM297 560v109h108v-109h-108zM140 314l-101 20q3 70 57 111.5t153 41.5q101 0 154 -36.5t53 -100.5q0 -44 -25.5 -68.5t-55.5 -33.5v-2q13 -2 26.5 -8t30.5 -17.5t27.5 -33.5t10.5 -51q0 -67 -57 -107.5t-164 -40.5q-206 0 -226 164l103 19
q6 -48 35 -69t86 -21q101 0 101 65q0 29 -25.5 42t-79.5 13h-52v88h54q50 0 72 11.5t22 39.5t-25 42t-65 14q-52 0 -78.5 -22.5t-30.5 -59.5z" />
    <glyph glyph-name="uni04E2" unicode="&#x4e2;" horiz-adv-x="696" 
d="M326 404l184 276h108v-680h-119v227q0 60 2 163t2 104h-1q-53 -90 -123 -199l-193 -295h-108v680h119v-228q0 -177 -6 -259h1q36 62 134 211zM202 769v93h292v-93h-292z" />
    <glyph glyph-name="uni04E3" unicode="&#x4e3;" horiz-adv-x="577" 
d="M68 0v476h114v-184q0 -9 -3 -168h2q5 9 23 44t36 69t32 59l101 180h136v-476h-114v164q0 97 6 199h-2q-25 -52 -72 -137l-128 -226h-131zM157 567v93h292v-93h-292z" />
    <glyph glyph-name="uni04E4" unicode="&#x4e4;" horiz-adv-x="696" 
d="M211 762v109h108v-109h-108zM395 762v109h108v-109h-108zM326 404l184 276h108v-680h-119v227q0 60 2 163t2 104h-1q-53 -90 -123 -199l-193 -295h-108v680h119v-228q0 -177 -6 -259h1q36 62 134 211z" />
    <glyph glyph-name="uni04E5" unicode="&#x4e5;" horiz-adv-x="577" 
d="M68 0v476h114v-184q0 -9 -3 -168h2q5 9 23 44t36 69t32 59l101 180h136v-476h-114v164q0 97 6 199h-2q-25 -52 -72 -137l-128 -226h-131zM142 560v109h108v-109h-108zM326 560v109h108v-109h-108z" />
    <glyph glyph-name="uni04E6" unicode="&#x4e6;" horiz-adv-x="724" 
d="M40 340q0 157 88 254.5t234 97.5t234 -97.5t88 -254.5q0 -159 -84.5 -255.5t-237.5 -96.5q-151 0 -236.5 97t-85.5 255zM171 340q0 -112 51 -177.5t140 -65.5t140 65.5t51 177.5t-51 178.5t-140 66.5t-140 -66.5t-51 -178.5zM213 762v109h108v-109h-108zM397 762v109h108
v-109h-108z" />
    <glyph glyph-name="uni04E7" unicode="&#x4e7;" horiz-adv-x="548" 
d="M36 236q0 115 65 183t173 68t173 -68t65 -183q0 -114 -64 -181t-174 -67t-174 67t-64 181zM149 238q0 -71 34.5 -111.5t90.5 -40.5t90.5 41t34.5 111q0 71 -33.5 111.5t-91.5 40.5t-91.5 -40.5t-33.5 -111.5zM127 560v109h108v-109h-108zM311 560v109h108v-109h-108z" />
    <glyph glyph-name="uni04E8" unicode="&#x4e8;" horiz-adv-x="724" 
d="M40 340q0 157 88 254.5t234 97.5t234 -97.5t88 -254.5q0 -159 -84.5 -255.5t-237.5 -96.5q-151 0 -236.5 97t-85.5 255zM362 97q83 0 133 54t58 150h-383q9 -96 59 -150t133 -54zM362 585q-76 0 -125 -48.5t-63 -134.5h376q-14 86 -63.5 134.5t-124.5 48.5z" />
    <glyph glyph-name="uni04E9" unicode="&#x4e9;" horiz-adv-x="548" 
d="M36 236q0 115 65 183t173 68t173 -68t65 -183q0 -114 -64 -181t-174 -67t-174 67t-64 181zM274 86q48 0 81.5 30.5t43.5 83.5h-250q9 -53 42.5 -83.5t82.5 -30.5zM274 390q-48 0 -80.5 -27.5t-43.5 -78.5h247q-11 51 -43.5 78.5t-79.5 27.5z" />
    <glyph glyph-name="uni04EA" unicode="&#x4ea;" horiz-adv-x="724" 
d="M40 340q0 157 88 254.5t234 97.5t234 -97.5t88 -254.5q0 -159 -84.5 -255.5t-237.5 -96.5q-151 0 -236.5 97t-85.5 255zM362 97q83 0 133 54t58 150h-383q9 -96 59 -150t133 -54zM362 585q-76 0 -125 -48.5t-63 -134.5h376q-14 86 -63.5 134.5t-124.5 48.5zM215 762v109
h108v-109h-108zM399 762v109h108v-109h-108z" />
    <glyph glyph-name="uni04EB" unicode="&#x4eb;" horiz-adv-x="548" 
d="M36 236q0 115 65 183t173 68t173 -68t65 -183q0 -114 -64 -181t-174 -67t-174 67t-64 181zM274 86q48 0 81.5 30.5t43.5 83.5h-250q9 -53 42.5 -83.5t82.5 -30.5zM274 390q-48 0 -80.5 -27.5t-43.5 -78.5h247q-11 51 -43.5 78.5t-79.5 27.5zM129 560v109h108v-109h-108z
M313 560v109h108v-109h-108z" />
    <glyph glyph-name="uni04EE" unicode="&#x4ee;" horiz-adv-x="587" 
d="M248 161l-239 519h131l84 -192q46 -106 87 -212h2l79 214l72 190h126l-228 -538q-40 -93 -90 -123.5t-137 -30.5q-37 0 -54 4v103q16 -4 49 -4q20 0 32.5 1.5t30.5 7.5t31.5 21.5t23.5 39.5zM161 769v93h292v-93h-292z" />
    <glyph glyph-name="uni04EF" unicode="&#x4ef;" horiz-adv-x="458" 
d="M326 476h112l-159 -533q-23 -75 -50 -104q-34 -37 -111 -37q-32 0 -62 6v93q20 -5 39 -5q35 0 50.5 14t25.5 46l8 29l-171 491h121l78 -257q7 -22 18 -65l8 -33h1q5 24 7 32q7 33 17 66zM89 567v93h292v-93h-292z" />
    <glyph glyph-name="uni04F0" unicode="&#x4f0;" horiz-adv-x="587" 
d="M248 161l-239 519h131l84 -192q46 -106 87 -212h2l79 214l72 190h126l-228 -538q-40 -93 -90 -123.5t-137 -30.5q-37 0 -54 4v103q16 -4 49 -4q20 0 32.5 1.5t30.5 7.5t31.5 21.5t23.5 39.5zM160 762v109h108v-109h-108zM344 762v109h108v-109h-108z" />
    <glyph glyph-name="uni04F1" unicode="&#x4f1;" horiz-adv-x="458" 
d="M326 476h112l-159 -533q-23 -75 -50 -104q-34 -37 -111 -37q-32 0 -62 6v93q20 -5 39 -5q35 0 50.5 14t25.5 46l8 29l-171 491h121l78 -257q7 -22 18 -65l8 -33h1q5 24 7 32q7 33 17 66zM89 560v109h108v-109h-108zM273 560v109h108v-109h-108z" />
    <glyph glyph-name="uni04F2" unicode="&#x4f2;" horiz-adv-x="587" 
d="M248 161l-239 519h131l84 -192q46 -106 87 -212h2l79 214l72 190h126l-228 -538q-40 -93 -90 -123.5t-137 -30.5q-37 0 -54 4v103q16 -4 49 -4q20 0 32.5 1.5t30.5 7.5t31.5 21.5t23.5 39.5zM386 880h135l-101 -128h-98zM209 880h135l-101 -128h-98z" />
    <glyph glyph-name="uni04F3" unicode="&#x4f3;" horiz-adv-x="458" 
d="M326 476h112l-159 -533q-23 -75 -50 -104q-34 -37 -111 -37q-32 0 -62 6v93q20 -5 39 -5q35 0 50.5 14t25.5 46l8 29l-171 491h121l78 -257q7 -22 18 -65l8 -33h1q5 24 7 32q7 33 17 66zM324 680h135l-101 -128h-98zM147 680h135l-101 -128h-98z" />
    <glyph glyph-name="uni04F4" unicode="&#x4f4;" horiz-adv-x="633" 
d="M555 680v-680h-120v280q-60 -41 -166 -41q-225 0 -225 184v257h120v-212q0 -70 32 -97t95 -27q99 0 144 52v284h120zM156 762v109h108v-109h-108zM340 762v109h108v-109h-108z" />
    <glyph glyph-name="uni04F5" unicode="&#x4f5;" horiz-adv-x="526" 
d="M458 476v-476h-116v167q-56 -23 -119 -23q-186 0 -186 172v160h116v-123q0 -64 24 -89t77 -25q54 0 88 22v215h116zM108 560v109h108v-109h-108zM292 560v109h108v-109h-108z" />
    <glyph glyph-name="uni04F8" unicode="&#x4f8;" horiz-adv-x="892" 
d="M465 209q0 47 -26 73q-30 30 -95 30h-146v-206h146q65 0 95 30q26 26 26 73zM198 680v-262h145q121 0 181 -55q61 -55 61 -154t-61 -154q-60 -55 -181 -55h-265v680h120zM814 680v-680h-120v680h120zM302 762v109h108v-109h-108zM486 762v109h108v-109h-108z" />
    <glyph glyph-name="uni04F9" unicode="&#x4f9;" horiz-adv-x="742" 
d="M68 476h116v-173h117q173 0 173 -151q0 -72 -44 -112t-134 -40h-228v476zM184 219v-135h100q79 0 79 68q0 67 -79 67h-100zM227 560v109h108v-109h-108zM411 560v109h108v-109h-108zM674 476v-476h-114v476h114z" />
    <glyph glyph-name="Wgrave" unicode="&#x1e80;" horiz-adv-x="871" 
d="M502 680l94 -446q18 -70 18 -99l19 105l89 440h124l-151 -680h-156l-79 356l-17 92l-7 48l-11 -48l-17 -92l-76 -356h-158l-148 680h128l84 -445q2 -8 7 -41.5t10 -53.5q2 9 9 44t11 51l93 445h134zM298 889h140l67 -145h-98z" />
    <glyph glyph-name="wgrave" unicode="&#x1e81;" horiz-adv-x="713" 
d="M444 0l-50 182q-25 89 -36 159h-1q-36 -156 -38 -161l-53 -180h-113l-137 476h116l56 -210q26 -103 32 -134h1q12 61 32 137l55 207h101l55 -210q27 -102 32 -134h1q5 27 33 137l56 207h114l-145 -476h-111zM232 680h135l64 -128h-98z" />
    <glyph glyph-name="Wacute" unicode="&#x1e82;" horiz-adv-x="871" 
d="M502 680l94 -446q18 -70 18 -99l19 105l89 440h124l-151 -680h-156l-79 356l-17 92l-7 48l-11 -48l-17 -92l-76 -356h-158l-148 680h128l84 -445q2 -8 7 -41.5t10 -53.5q2 9 9 44t11 51l93 445h134zM445 889h140l-109 -145h-98z" />
    <glyph glyph-name="wacute" unicode="&#x1e83;" horiz-adv-x="713" 
d="M444 0l-50 182q-25 89 -36 159h-1q-36 -156 -38 -161l-53 -180h-113l-137 476h116l56 -210q26 -103 32 -134h1q12 61 32 137l55 207h101l55 -210q27 -102 32 -134h1q5 27 33 137l56 207h114l-145 -476h-111zM367 680h135l-101 -128h-98z" />
    <glyph glyph-name="Wdieresis" unicode="&#x1e84;" horiz-adv-x="871" 
d="M502 680l94 -446q18 -70 18 -99l19 105l89 440h124l-151 -680h-156l-79 356l-17 92l-7 48l-11 -48l-17 -92l-76 -356h-158l-148 680h128l84 -445q2 -8 7 -41.5t10 -53.5q2 9 9 44t11 51l93 445h134zM289 762v109h108v-109h-108zM473 762v109h108v-109h-108z" />
    <glyph glyph-name="wdieresis" unicode="&#x1e85;" horiz-adv-x="713" 
d="M444 0l-50 182q-25 89 -36 159h-1q-36 -156 -38 -161l-53 -180h-113l-137 476h116l56 -210q26 -103 32 -134h1q12 61 32 137l55 207h101l55 -210q27 -102 32 -134h1q5 27 33 137l56 207h114l-145 -476h-111zM212 560v109h108v-109h-108zM396 560v109h108v-109h-108z" />
    <glyph glyph-name="Ygrave" unicode="&#x1ef2;" horiz-adv-x="622" 
d="M369 278v-278h-120v278l-247 402h139l174 -291l177 291h138zM174 889h140l67 -145h-98z" />
    <glyph glyph-name="ygrave" unicode="&#x1ef3;" horiz-adv-x="458" 
d="M326 476h112l-159 -533q-23 -75 -50 -104q-34 -37 -111 -37q-32 0 -62 6v93q20 -5 39 -5q35 0 50.5 14t25.5 46l8 29l-171 491h121l78 -257q7 -22 18 -65l8 -33h1q5 24 7 32q7 33 17 66zM98 680h135l64 -128h-98z" />
    <glyph glyph-name="uni2000" unicode="&#x2000;" horiz-adv-x="500" 
 />
    <glyph glyph-name="uni2001" unicode="&#x2001;" horiz-adv-x="1000" 
 />
    <glyph glyph-name="enspace" unicode="&#x2002;" horiz-adv-x="500" 
 />
    <glyph glyph-name="emspace" unicode="&#x2003;" horiz-adv-x="1000" 
 />
    <glyph glyph-name="threeperemspace" unicode="&#x2004;" horiz-adv-x="333" 
 />
    <glyph glyph-name="fourperemspace" unicode="&#x2005;" horiz-adv-x="250" 
 />
    <glyph glyph-name="uni2006" unicode="&#x2006;" horiz-adv-x="167" 
 />
    <glyph glyph-name="uni2007" unicode="&#x2007;" horiz-adv-x="608" 
 />
    <glyph glyph-name="uni2008" unicode="&#x2008;" horiz-adv-x="247" 
 />
    <glyph glyph-name="thinspace" unicode="&#x2009;" horiz-adv-x="125" 
 />
    <glyph glyph-name="hairspace" unicode="&#x200a;" horiz-adv-x="42" 
 />
    <glyph glyph-name="uni200B" unicode="&#x200b;" horiz-adv-x="0" 
 />
    <glyph glyph-name="endash" unicode="&#x2013;" horiz-adv-x="627" 
d="M568 216h-509v111h509v-111z" />
    <glyph glyph-name="emdash" unicode="&#x2014;" horiz-adv-x="817" 
d="M758 216h-699v111h699v-111z" />
    <glyph glyph-name="longdash" unicode="&#x2015;" horiz-adv-x="1556" 
d="M59 211v111h1438v-111h-1438z" />
    <glyph glyph-name="quoteleft" unicode="&#x2018;" horiz-adv-x="242" 
d="M184 414h-129v102q0 25 2 57q7 60 33.5 89t93.5 31v-65q-30 -2 -43.5 -17t-13.5 -54v-12h57v-131z" />
    <glyph glyph-name="quoteright" unicode="&#x2019;" horiz-adv-x="235" 
d="M59 680h129v-102q0 -25 -2 -57q-7 -60 -33.5 -89t-93.5 -31v65q30 2 43.5 17t13.5 54v12h-57v131z" />
    <glyph glyph-name="quotesinglbase" unicode="&#x201a;" horiz-adv-x="248" 
d="M60 132h129v-102q0 -25 -2 -57q-7 -60 -33.5 -89t-93.5 -31v65q30 2 43.5 17t13.5 54v12h-57v131z" />
    <glyph glyph-name="quotedblleft" unicode="&#x201c;" horiz-adv-x="422" 
d="M184 414h-129v102q0 25 2 57q7 60 33.5 89t93.5 31v-65q-30 -2 -43.5 -17t-13.5 -54v-12h57v-131zM364 414h-129v102q0 25 2 57q7 60 33.5 89t93.5 31v-65q-30 -2 -43.5 -17t-13.5 -54v-12h57v-131z" />
    <glyph glyph-name="quotedblright" unicode="&#x201d;" horiz-adv-x="415" 
d="M59 680h129v-102q0 -25 -2 -57q-7 -60 -33.5 -89t-93.5 -31v65q30 2 43.5 17t13.5 54v12h-57v131zM239 680h129v-102q0 -25 -2 -57q-7 -60 -33.5 -89t-93.5 -31v65q30 2 43.5 17t13.5 54v12h-57v131z" />
    <glyph glyph-name="quotedblbase" unicode="&#x201e;" horiz-adv-x="428" 
d="M60 132h129v-102q0 -25 -2 -57q-7 -60 -33.5 -89t-93.5 -31v65q30 2 43.5 17t13.5 54v12h-57v131zM240 132h129v-102q0 -25 -2 -57q-7 -60 -33.5 -89t-93.5 -31v65q30 2 43.5 17t13.5 54v12h-57v131z" />
    <glyph glyph-name="dagger" unicode="&#x2020;" horiz-adv-x="469" 
d="M441 414h-153v-414h-108v414h-152v101h152v165h108v-165h153v-101z" />
    <glyph glyph-name="daggerdbl" unicode="&#x2021;" horiz-adv-x="501" 
d="M304 414v-148h153v-101h-153v-165h-108v165h-152v101h152v148h-152v101h152v165h108v-165h153v-101h-153z" />
    <glyph glyph-name="bullet" unicode="&#x2022;" horiz-adv-x="420" 
d="M60 333q0 63 44 107t106 44q63 0 106.5 -44t43.5 -107q0 -62 -43.5 -106t-106.5 -44q-62 0 -106 44t-44 106z" />
    <glyph glyph-name="ellipsis" unicode="&#x2026;" horiz-adv-x="916" 
d="M59 132h129v-132h-129v132zM393 132h129v-132h-129v132zM728 132h129v-132h-129v132z" />
    <glyph glyph-name="perthousand" unicode="&#x2030;" horiz-adv-x="1277" 
d="M351 466q0 -92 -39.5 -153t-120.5 -61q-43 0 -75.5 18t-50.5 48.5t-26.5 67.5t-8.5 80t7.5 79.5t24.5 70t50 53t79 19.5q160 0 160 -222zM260 466q0 141 -71 141q-69 0 -69 -141q0 -134 69 -134q71 0 71 134zM865 207q0 -92 -39.5 -153t-120.5 -61q-43 0 -75.5 18
t-50.5 48.5t-26.5 67.5t-8.5 80t7.5 79.5t24.5 70t50 53t79 19.5q160 0 160 -222zM774 207q0 141 -71 141q-69 0 -69 -141q0 -134 69 -134q71 0 71 134zM590 680h105l-405 -680h-105zM1247 207q0 -92 -39.5 -153t-120.5 -61q-43 0 -75.5 18t-50.5 48.5t-26.5 67.5t-8.5 80
t7.5 79.5t24.5 70t50 53t79 19.5q160 0 160 -222zM1156 207q0 141 -71 141q-69 0 -69 -141q0 -134 69 -134q71 0 71 134z" />
    <glyph glyph-name="guilsinglleft" unicode="&#x2039;" horiz-adv-x="262" 
d="M206 22l-162 136v145l162 139v-132l-95 -76l95 -82v-130z" />
    <glyph glyph-name="guilsinglright" unicode="&#x203a;" horiz-adv-x="262" 
d="M218 158l-162 -136v130l95 82l-95 76v132l162 -139v-145z" />
    <glyph glyph-name="fraction" unicode="&#x2044;" horiz-adv-x="203" 
d="M251 680h105l-405 -680h-105z" />
    <glyph glyph-name="uni2070" unicode="&#x2070;" horiz-adv-x="377" 
d="M349 591q0 -92 -39.5 -153t-120.5 -61q-43 0 -75.5 18t-50.5 48.5t-26.5 67.5t-8.5 80t7.5 79.5t24.5 70t50 53t79 19.5q160 0 160 -222zM258 591q0 141 -71 141q-69 0 -69 -141q0 -134 69 -134q71 0 71 134z" />
    <glyph glyph-name="uni2074" unicode="&#x2074;" horiz-adv-x="372" 
d="M355 493h-60v-109h-81v109h-201v52l195 263h87v-246h60v-69zM112 562h102v44q0 18 0.5 52.5t0.5 42.5h-2q-21 -33 -36 -52l-29 -38q-6 -7 -18 -23l-18 -24v-2z" />
    <glyph glyph-name="uni2075" unicode="&#x2075;" horiz-adv-x="360" 
d="M109 552l-80 18l30 236h257l-6 -78h-184l-8 -68q32 19 77 19q66 0 104.5 -38.5t38.5 -106.5t-41 -112.5t-119 -44.5q-62 0 -104 30.5t-53 85.5l86 21q5 -27 25 -44.5t50 -17.5q34 0 51.5 21.5t17.5 56.5t-18 56t-52 21q-27 0 -46.5 -15t-25.5 -40z" />
    <glyph glyph-name="uni2076" unicode="&#x2076;" horiz-adv-x="366" 
d="M335 703l-78 -17q-14 55 -64 55q-74 0 -78 -111q41 33 92 33q58 0 96 -36.5t38 -98.5q0 -68 -41.5 -109.5t-110.5 -41.5q-81 0 -121 51.5t-40 160.5q0 106 43.5 165t122.5 59q117 0 141 -110zM257 523q0 34 -19.5 51.5t-48.5 17.5q-21 0 -41.5 -11t-31.5 -28
q-2 -104 73 -104q32 0 50 19t18 55z" />
    <glyph glyph-name="uni2077" unicode="&#x2077;" horiz-adv-x="367" 
d="M200 384h-96q9 52 31 125q34 100 117 227h-148v-81h-83v151h331v-65q-129 -155 -152 -357z" />
    <glyph glyph-name="uni2078" unicode="&#x2078;" horiz-adv-x="378" 
d="M189 377q-75 0 -118.5 33.5t-43.5 91.5q0 66 65 97q-54 30 -54 95q0 53 40.5 86t110.5 33t111 -33t41 -86q0 -65 -55 -95q65 -30 65 -97q0 -58 -43 -91.5t-119 -33.5zM189 744q-33 0 -50 -16t-17 -40q0 -22 17.5 -39t49.5 -17q33 0 50.5 17t17.5 39q0 24 -17 40t-51 16z
M189 566q-35 0 -55 -16t-20 -41q0 -28 20 -44t55 -16q75 0 75 60q0 27 -19.5 42t-55.5 15z" />
    <glyph glyph-name="uni2079" unicode="&#x2079;" horiz-adv-x="367" 
d="M32 487l78 17q14 -55 64 -55q74 0 78 111q-41 -33 -92 -33q-58 0 -96 36.5t-38 98.5q0 68 41.5 109.5t110.5 41.5q81 0 121 -51.5t40 -160.5q0 -106 -43.5 -165t-122.5 -59q-117 0 -141 110zM110 667q0 -34 19.5 -51.5t48.5 -17.5q21 0 41.5 11t31.5 28q2 104 -73 104
q-32 0 -50 -19t-18 -55z" />
    <glyph glyph-name="uni207A" unicode="&#x207a;" horiz-adv-x="382" 
d="M232 559v-132h-81v132h-130v81h130v131h81v-131h129v-81h-129z" />
    <glyph glyph-name="uni207B" unicode="&#x207b;" horiz-adv-x="377" 
d="M36 559v81h305v-81h-305z" />
    <glyph glyph-name="uni207C" unicode="&#x207c;" horiz-adv-x="377" 
d="M36 625v81h305v-81h-305zM36 493v81h305v-81h-305z" />
    <glyph glyph-name="uni207D" unicode="&#x207d;" horiz-adv-x="215" 
d="M29 597q0 170 89 321l81 -9q-86 -155 -86 -306q0 -161 89 -321l-79 -9q-94 155 -94 324z" />
    <glyph glyph-name="uni207E" unicode="&#x207e;" horiz-adv-x="216" 
d="M17 909l81 9q90 -153 90 -321q0 -167 -95 -324l-79 9q89 160 89 321q0 151 -86 306z" />
    <glyph glyph-name="uni207F" unicode="&#x207f;" horiz-adv-x="365" 
d="M325 552v-167h-91v149q0 27 -2 41t-12.5 25t-31.5 11q-54 0 -54 -70v-156h-91v295h90v-36q27 44 88 44q51 0 78 -29q15 -16 20.5 -37.5t5.5 -69.5z" />
    <glyph glyph-name="uni2080" unicode="&#x2080;" horiz-adv-x="377" 
d="M349 81q0 -92 -39.5 -153t-120.5 -61q-43 0 -75.5 18t-50.5 48.5t-26.5 67.5t-8.5 80t7.5 79.5t24.5 70t50 53t79 19.5q160 0 160 -222zM258 81q0 141 -71 141q-69 0 -69 -141q0 -134 69 -134q71 0 71 134z" />
    <glyph glyph-name="uni2081" unicode="&#x2081;" horiz-adv-x="259" 
d="M211 296v-422h-88v267h-109v66h28q40 0 63 17q27 20 29 72h77z" />
    <glyph glyph-name="uni2082" unicode="&#x2082;" horiz-adv-x="365" 
d="M129 113l-89 10q-10 24 -10 48q0 58 42.5 95t110.5 37q67 0 107.5 -37t40.5 -97q0 -33 -13.5 -64t-40 -59.5t-49 -47.5t-56.5 -44l-8 -6h176v-74h-315v62q48 30 130 103q30 27 43.5 41t25.5 37t12 48q0 60 -56 60q-29 0 -44.5 -17.5t-15.5 -45.5q0 -20 9 -49z" />
    <glyph glyph-name="uni2083" unicode="&#x2083;" horiz-adv-x="365" 
d="M20 4l87 12q11 -79 72 -79q33 0 50 18t17 43q0 35 -20 48t-70 13h-34v69h40q75 0 75 54q0 21 -14.5 35.5t-43.5 14.5q-31 0 -48 -18.5t-19 -48.5l-81 12q0 54 41 90t110 36q68 0 106 -30.5t38 -79.5q0 -63 -59 -95q71 -28 71 -101q0 -58 -42.5 -94t-115.5 -36
q-149 0 -160 137z" />
    <glyph glyph-name="uni2084" unicode="&#x2084;" horiz-adv-x="372" 
d="M355 -17h-60v-109h-81v109h-201v52l195 263h87v-246h60v-69zM112 52h102v44q0 18 0.5 52.5t0.5 42.5h-2q-21 -33 -36 -52l-29 -38q-6 -7 -18 -23l-18 -24v-2z" />
    <glyph glyph-name="uni2085" unicode="&#x2085;" horiz-adv-x="360" 
d="M109 42l-80 18l30 236h257l-6 -78h-184l-8 -68q32 19 77 19q66 0 104.5 -38.5t38.5 -106.5t-41 -112.5t-119 -44.5q-62 0 -104 30.5t-53 85.5l86 21q5 -27 25 -44.5t50 -17.5q34 0 51.5 21.5t17.5 56.5t-18 56t-52 21q-27 0 -46.5 -15t-25.5 -40z" />
    <glyph glyph-name="uni2086" unicode="&#x2086;" horiz-adv-x="366" 
d="M335 193l-78 -17q-14 55 -64 55q-74 0 -78 -111q41 33 92 33q58 0 96 -36.5t38 -98.5q0 -68 -41.5 -109.5t-110.5 -41.5q-81 0 -121 51.5t-40 160.5q0 106 43.5 165t122.5 59q117 0 141 -110zM257 13q0 34 -19.5 51.5t-48.5 17.5q-21 0 -41.5 -11t-31.5 -28
q-2 -104 73 -104q32 0 50 19t18 55z" />
    <glyph glyph-name="uni2087" unicode="&#x2087;" horiz-adv-x="367" 
d="M200 -126h-96q9 52 31 125q34 100 117 227h-148v-81h-83v151h331v-65q-129 -155 -152 -357z" />
    <glyph glyph-name="uni2088" unicode="&#x2088;" horiz-adv-x="378" 
d="M189 -133q-75 0 -118.5 33.5t-43.5 91.5q0 66 65 97q-54 30 -54 95q0 53 40.5 86t110.5 33t111 -33t41 -86q0 -65 -55 -95q65 -30 65 -97q0 -58 -43 -91.5t-119 -33.5zM189 234q-33 0 -50 -16t-17 -40q0 -22 17.5 -39t49.5 -17q33 0 50.5 17t17.5 39q0 24 -17 40t-51 16z
M189 56q-35 0 -55 -16t-20 -41q0 -28 20 -44t55 -16q75 0 75 60q0 27 -19.5 42t-55.5 15z" />
    <glyph glyph-name="uni2089" unicode="&#x2089;" horiz-adv-x="367" 
d="M32 -23l78 17q14 -55 64 -55q74 0 78 111q-41 -33 -92 -33q-58 0 -96 36.5t-38 98.5q0 68 41.5 109.5t110.5 41.5q81 0 121 -51.5t40 -160.5q0 -106 -43.5 -165t-122.5 -59q-117 0 -141 110zM110 157q0 -34 19.5 -51.5t48.5 -17.5q21 0 41.5 11t31.5 28q2 104 -73 104
q-32 0 -50 -19t-18 -55z" />
    <glyph glyph-name="uni208A" unicode="&#x208a;" horiz-adv-x="382" 
d="M232 45v-132h-81v132h-130v81h130v131h81v-131h129v-81h-129z" />
    <glyph glyph-name="uni208B" unicode="&#x208b;" horiz-adv-x="377" 
d="M36 45v81h305v-81h-305z" />
    <glyph glyph-name="uni208C" unicode="&#x208c;" horiz-adv-x="377" 
d="M36 111v81h305v-81h-305zM36 -21v81h305v-81h-305z" />
    <glyph glyph-name="uni208D" unicode="&#x208d;" horiz-adv-x="215" 
d="M28 83q0 170 89 321l81 -9q-86 -155 -86 -306q0 -161 89 -321l-79 -9q-94 155 -94 324z" />
    <glyph glyph-name="uni208E" unicode="&#x208e;" horiz-adv-x="216" 
d="M17 395l81 9q90 -153 90 -321q0 -167 -95 -324l-79 9q89 160 89 321q0 151 -86 306z" />
    <glyph glyph-name="Euro" unicode="&#x20ac;" 
d="M459 196l107 -40q-54 -168 -223 -168q-103 0 -163 60.5t-75 169.5h-89l27 81h50v65h-74l28 81h54q18 109 79 178t166 69q84 0 139 -45.5t77 -117.5l-98 -58q-26 114 -118 114q-53 0 -84.5 -36.5t-36.5 -103.5h217l-27 -81h-197v-65h171l-27 -81h-132q5 -58 34.5 -90.5
t81.5 -32.5q84 0 113 101z" />
    <glyph glyph-name="hryvnia" unicode="&#x20b4;" 
d="M21 374v79h376q28 18 28 54q0 82 -124 82q-86 0 -198 -55l-29 100q29 19 99 38.5t138 19.5q105 0 169.5 -50.5t64.5 -143.5q0 -27 -6 -45h27v-79h-81q-65 -42 -171 -57l-1 -2h253v-79h-395q-10 -17 -10 -43q0 -45 33.5 -73.5t108.5 -28.5q121 0 202 59l27 -104
q-92 -58 -233 -58q-120 0 -189.5 53.5t-69.5 156.5q0 23 4 38h-23v79h67q38 32 107 59h-174z" />
    <glyph glyph-name="uni20B8" unicode="&#x20b8;" 
d="M236 0v396h-197v105h512v-105h-197v-396h-118zM551 680v-105h-512v105h512z" />
    <glyph glyph-name="uni20B9" unicode="&#x20b9;" 
d="M524 447h-124q-7 -65 -45 -102.5t-87 -52.5l194 -292h-141l-124 192q-31 54 -54.5 71.5t-72.5 17.5v94h76q109 0 135 72h-229l27 83h204q-9 34 -33 50t-83 16h-115l27 84h472l-27 -84h-141q17 -30 22 -66h146z" />
    <glyph glyph-name="uni20BA" unicode="&#x20ba;" 
d="M455 399l-184 -78v-223q94 0 138 57.5t44 153.5h98q0 -156 -81 -234t-253 -78h-62v279l-99 -42v90l99 42v73l-99 -42v90l99 42v151h116v-106l184 78v-90l-184 -78v-73l184 78v-90z" />
    <glyph glyph-name="uni20BC" unicode="&#x20bc;" 
d="M255 617v75h80v-75q79 -8 121 -50t61.5 -140t19.5 -280v-147h-118v93q0 132 -3 205.5t-12.5 124.5t-25 70.5t-43.5 25.5v-433h-80v433q-28 -6 -43.5 -25.5t-25 -70.5t-12.5 -124.5t-3 -205.5v-93h-118v147q0 182 19.5 280t61.5 140t121 50z" />
    <glyph glyph-name="uni20BD" unicode="&#x20bd;" 
d="M49 265v108h68v307h162q77 0 129 -9.5t89 -41.5q67 -56 67 -155q0 -102 -67 -158q-37 -32 -89 -41.5t-129 -9.5h-42v-72h127v-108h-127v-85h-120v85h-68v108h68v72h-68zM237 574v-201h59q66 0 95 13q49 24 49 88q0 63 -49 87q-29 13 -95 13h-59z" />
    <glyph glyph-name="uni2113" unicode="&#x2113;" horiz-adv-x="431" 
d="M371 115l39 -66q-63 -61 -149 -61q-73 0 -111 35.5t-38 97.5v64l-53 -45l-39 61l91 80v241q0 169 159 169q134 0 134 -136q0 -143 -176 -295v-116q0 -38 16.5 -54t40.5 -16q38 0 86 41zM306 545q0 66 -39 66t-39 -69v-181q78 90 78 184z" />
    <glyph glyph-name="numero" unicode="&#x2116;" horiz-adv-x="1053" 
d="M690 505q0 85 45.5 136t121.5 51t121 -51t45 -136q0 -88 -44.5 -138t-121.5 -50t-122 50t-45 138zM776 505q0 -53 22.5 -81.5t58.5 -28.5q35 0 57.5 29.5t22.5 80.5q0 50 -22 79.5t-58 29.5t-58.5 -29.5t-22.5 -79.5zM743 182v78h224v-78h-224zM192 680l184 -276
q88 -134 130 -206h1q-6 80 -6 254v228h119v-680h-112l-193 295q-37 56 -119 194h-1q0 -4 2 -103t2 -159v-227h-119v680h112z" />
    <glyph glyph-name="uni2117" unicode="&#x2117;" horiz-adv-x="778" 
d="M331 466v-101h82q32 0 47 7q25 11 25 44t-25 44q-13 6 -47 6h-82zM252 151v380h159q90 0 122 -28q37 -32 37 -87q0 -56 -37 -88q-33 -29 -122 -29h-80v-148h-79zM740 340q0 -149 -100.5 -250.5t-250.5 -101.5t-250.5 101.5t-100.5 250.5q0 150 100.5 251t250.5 101
t250.5 -101t100.5 -251zM657 340q0 114 -77.5 193.5t-190.5 79.5t-190.5 -79.5t-77.5 -193.5q0 -113 77.5 -193t190.5 -80t190.5 80t77.5 193z" />
    <glyph glyph-name="trademark" unicode="&#x2122;" horiz-adv-x="857" 
d="M28 597v83h329v-83h-120v-345h-89v345h-120zM786 250h-84v158q0 47 1 66q0 22 1 33h-2l-9 -33q-4 -11 -11 -36.5t-9 -30.5l-48 -157h-68l-54 168q-4 12 -17 60l-8 31h-2q0 -25 1 -37q0 -11 0.5 -31.5t0.5 -27.5v-163h-85v430h105l55 -155q10 -29 27 -85l11 -36h2
q12 55 34 121l51 155h108v-430z" />
    <glyph glyph-name="Omega" unicode="&#x2126;" horiz-adv-x="750" 
d="M375 585q-94 0 -144 -64t-50 -162q0 -97 41.5 -164.5t112.5 -99.5v-95h-288v103h130v1q-126 99 -126 266q0 140 88.5 231t235.5 91t235.5 -91t88.5 -231q0 -167 -126 -266v-1h130v-103h-288v95q71 32 112.5 99.5t41.5 164.5q0 98 -50 162t-144 64z" />
    <glyph glyph-name="estimated" unicode="&#x212e;" horiz-adv-x="542" 
d="M512 234h-368v-119q0 -20 10.5 -35t19 -20.5t25.5 -13.5q33 -15 78 -15q58 0 100 25t77 83l33 -27q-43 -65 -91.5 -94.5t-118.5 -29.5q-108 0 -172.5 68.5t-64.5 179.5q0 109 64.5 180t172.5 71q111 0 173 -68t62 -185zM144 277h267v93q0 36 -54 59q-35 16 -81 16
q-45 0 -78 -15q-54 -23 -54 -59v-94z" />
    <glyph glyph-name="onethird" unicode="&#x2153;" horiz-adv-x="804" 
d="M451 130l87 12q11 -79 72 -79q33 0 50 18t17 43q0 35 -20 48t-70 13h-34v69h40q75 0 75 54q0 21 -14.5 35.5t-43.5 14.5q-31 0 -48 -18.5t-19 -48.5l-81 12q0 54 41 90t110 36q68 0 106 -30.5t38 -79.5q0 -63 -59 -95q71 -28 71 -101q0 -58 -42.5 -94t-115.5 -36
q-149 0 -160 137zM224 680v-422h-88v267h-109v66h28q40 0 63 17q27 20 29 72h77zM505 680h105l-405 -680h-105z" />
    <glyph glyph-name="twothirds" unicode="&#x2154;" horiz-adv-x="908" 
d="M141 498l-89 10q-10 24 -10 48q0 58 42.5 95t110.5 37q67 0 107.5 -37t40.5 -97q0 -33 -13.5 -64t-40 -59.5t-49 -47.5t-56.5 -44l-8 -6h176v-74h-315v62q48 30 130 103q30 27 43.5 41t25.5 37t12 48q0 60 -56 60q-29 0 -44.5 -17.5t-15.5 -45.5q0 -20 9 -49zM560 130
l87 12q11 -79 72 -79q33 0 50 18t17 43q0 35 -20 48t-70 13h-34v69h40q75 0 75 54q0 21 -14.5 35.5t-43.5 14.5q-31 0 -48 -18.5t-19 -48.5l-81 12q0 54 41 90t110 36q68 0 106 -30.5t38 -79.5q0 -63 -59 -95q71 -28 71 -101q0 -58 -42.5 -94t-115.5 -36q-149 0 -160 137z
M614 680h105l-405 -680h-105z" />
    <glyph glyph-name="oneeighth" unicode="&#x215b;" horiz-adv-x="816" 
d="M618 -7q-75 0 -118.5 33.5t-43.5 91.5q0 66 65 97q-54 30 -54 95q0 53 40.5 86t110.5 33t111 -33t41 -86q0 -65 -55 -95q65 -30 65 -97q0 -58 -43 -91.5t-119 -33.5zM618 360q-33 0 -50 -16t-17 -40q0 -22 17.5 -39t49.5 -17q33 0 50.5 17t17.5 39q0 24 -17 40t-51 16z
M618 182q-35 0 -55 -16t-20 -41q0 -28 20 -44t55 -16q75 0 75 60q0 27 -19.5 42t-55.5 15zM224 680v-422h-88v267h-109v66h28q40 0 63 17q27 20 29 72h77zM505 680h105l-405 -680h-105z" />
    <glyph glyph-name="threeeighths" unicode="&#x215c;" horiz-adv-x="903" 
d="M709 -7q-75 0 -118.5 33.5t-43.5 91.5q0 66 65 97q-54 30 -54 95q0 53 40.5 86t110.5 33t111 -33t41 -86q0 -65 -55 -95q65 -30 65 -97q0 -58 -43 -91.5t-119 -33.5zM709 360q-33 0 -50 -16t-17 -40q0 -22 17.5 -39t49.5 -17q33 0 50.5 17t17.5 39q0 24 -17 40t-51 16z
M709 182q-35 0 -55 -16t-20 -41q0 -28 20 -44t55 -16q75 0 75 60q0 27 -19.5 42t-55.5 15zM29 389l87 12q11 -79 72 -79q33 0 50 18t17 43q0 35 -20 48t-70 13h-34v69h40q75 0 75 54q0 21 -14.5 35.5t-43.5 14.5q-31 0 -48 -18.5t-19 -48.5l-81 12q0 54 41 90t110 36
q68 0 106 -30.5t38 -79.5q0 -63 -59 -95q71 -28 71 -101q0 -58 -42.5 -94t-115.5 -36q-149 0 -160 137zM595 680h105l-405 -680h-105z" />
    <glyph glyph-name="fiveeighths" unicode="&#x215d;" horiz-adv-x="890" 
d="M117 426l-80 18l30 236h257l-6 -78h-184l-8 -68q32 19 77 19q66 0 104.5 -38.5t38.5 -106.5t-41 -112.5t-119 -44.5q-62 0 -104 30.5t-53 85.5l86 21q5 -27 25 -44.5t50 -17.5q34 0 51.5 21.5t17.5 56.5t-18 56t-52 21q-27 0 -46.5 -15t-25.5 -40zM697 -7
q-75 0 -118.5 33.5t-43.5 91.5q0 66 65 97q-54 30 -54 95q0 53 40.5 86t110.5 33t111 -33t41 -86q0 -65 -55 -95q65 -30 65 -97q0 -58 -43 -91.5t-119 -33.5zM697 360q-33 0 -50 -16t-17 -40q0 -22 17.5 -39t49.5 -17q33 0 50.5 17t17.5 39q0 24 -17 40t-51 16zM697 182
q-35 0 -55 -16t-20 -41q0 -28 20 -44t55 -16q75 0 75 60q0 27 -19.5 42t-55.5 15zM584 680h105l-405 -680h-105z" />
    <glyph glyph-name="seveneighths" unicode="&#x215e;" horiz-adv-x="832" 
d="M207 258h-96q9 52 31 125q34 100 117 227h-148v-81h-83v151h331v-65q-129 -155 -152 -357zM637 -7q-75 0 -118.5 33.5t-43.5 91.5q0 66 65 97q-54 30 -54 95q0 53 40.5 86t110.5 33t111 -33t41 -86q0 -65 -55 -95q65 -30 65 -97q0 -58 -43 -91.5t-119 -33.5zM637 360
q-33 0 -50 -16t-17 -40q0 -22 17.5 -39t49.5 -17q33 0 50.5 17t17.5 39q0 24 -17 40t-51 16zM637 182q-35 0 -55 -16t-20 -41q0 -28 20 -44t55 -16q75 0 75 60q0 27 -19.5 42t-55.5 15zM524 680h105l-405 -680h-105z" />
    <glyph glyph-name="arrowleft" unicode="&#x2190;" horiz-adv-x="783" 
d="M744 288v-100h-539l196 -188h-142l-237 238l237 237h142l-196 -187h539z" />
    <glyph glyph-name="arrowup" unicode="&#x2191;" horiz-adv-x="532" 
d="M28 360v125l238 237l238 -237v-125l-185 184v-544h-106v544z" />
    <glyph glyph-name="arrowright" unicode="&#x2192;" horiz-adv-x="783" 
d="M382 475h142l237 -237l-237 -238h-142l196 188h-539v100h538z" />
    <glyph glyph-name="arrowdown" unicode="&#x2193;" horiz-adv-x="532" 
d="M28 227v125l185 -184v544h106v-544l185 184v-125l-238 -237z" />
    <glyph glyph-name="uni2196" unicode="&#x2196;" 
d="M580 64l-74 -74l-370 365l3 -261l-96 90v336h336l88 -91l-259 2z" />
    <glyph glyph-name="uni2197" unicode="&#x2197;" 
d="M123 429l88 91h336v-336l-96 -90l2 261l-369 -365l-74 74l372 367z" />
    <glyph glyph-name="uni2198" unicode="&#x2198;" 
d="M211 30l-88 91l259 -2l-372 367l74 74l369 -365l-2 261l96 -90v-336h-336z" />
    <glyph glyph-name="uni2199" unicode="&#x2199;" 
d="M506 560l74 -74l-372 -367l259 2l-88 -91h-336v336l96 90l-3 -261z" />
    <glyph glyph-name="uni21A4" unicode="&#x21a4;" horiz-adv-x="823" 
d="M744 0h-114v188h-425l196 -188h-142l-237 238l237 237h142l-196 -187h425v187h114v-475z" />
    <glyph glyph-name="uni21A5" unicode="&#x21a5;" horiz-adv-x="560" 
d="M42 360v125l238 237l238 -237v-125l-185 184v-444h185v-100h-476v100h185v444z" />
    <glyph glyph-name="uni21A6" unicode="&#x21a6;" horiz-adv-x="823" 
d="M422 475h142l237 -237l-237 -238h-142l196 188h-425v-188h-114v475h114v-187h424z" />
    <glyph glyph-name="uni21A7" unicode="&#x21a7;" horiz-adv-x="560" 
d="M42 227v125l185 -184v444h-185v100h476v-100h-185v-444l185 184v-125l-238 -237z" />
    <glyph glyph-name="uni21B0" unicode="&#x21b0;" horiz-adv-x="796" 
d="M401 0h-142l-237 237l237 238h142l-196 -188h539v-287h-114v187h-425z" />
    <glyph glyph-name="uni21B1" unicode="&#x21b1;" horiz-adv-x="796" 
d="M537 0h-142l195 187h-424v-187h-114v287h539l-196 188h142l237 -238z" />
    <glyph glyph-name="uni21B2" unicode="&#x21b2;" horiz-adv-x="797" 
d="M259 475h142l-196 -187h425v187h114v-287h-539l196 -188h-142l-237 238z" />
    <glyph glyph-name="uni21B3" unicode="&#x21b3;" horiz-adv-x="797" 
d="M396 475h142l237 -237l-237 -238h-142l196 188h-539v287h114v-187h424z" />
    <glyph glyph-name="uni21B4" unicode="&#x21b4;" horiz-adv-x="552" 
d="M48 712h291v-544l185 184v-125l-238 -237l-238 237v125l185 -184v444h-185v100z" />
    <glyph glyph-name="carriagereturn" unicode="&#x21b5;" horiz-adv-x="797" 
d="M259 475h142l-196 -187h425v187h114v-287h-539l196 -188h-142l-237 238z" />
    <glyph glyph-name="partialdiff" unicode="&#x2202;" 
d="M277 88q62 0 95.5 54.5t35.5 152.5q-15 29 -51 50.5t-79 21.5q-51 0 -85 -35.5t-34 -100.5t33 -104t85 -39zM200 572l-37 94q44 26 107 26q124 0 186.5 -92t62.5 -263q0 -177 -63.5 -262.5t-178.5 -85.5q-60 0 -105.5 21t-71 57t-38 78t-12.5 90q0 110 62 170.5t157 60.5
q85 0 137 -50q-4 85 -39 130t-93 45q-39 0 -74 -19z" />
    <glyph glyph-name="Delta" unicode="&#x2206;" horiz-adv-x="651" 
d="M21 0l237 680h136l235 -680h-608zM261 367l-88 -264h300l-87 265l-62 201h-1q-35 -119 -62 -202z" />
    <glyph glyph-name="product" unicode="&#x220f;" horiz-adv-x="827" 
d="M590 579h-353v-769h-112v769h-96v101h769v-101h-96v-769h-112v769z" />
    <glyph glyph-name="summation" unicode="&#x2211;" 
d="M10 -112l234 354l-234 356v82h568v-101h-428l221 -334l-223 -333h430v-102h-568v78z" />
    <glyph glyph-name="minus" unicode="&#x2212;" 
d="M571 296h-552v106h552v-106z" />
    <glyph glyph-name="radical" unicode="&#x221a;" 
d="M450 680h100l-181 -683h-101l-131 393h-98v93h188l59 -184q4 -11 11.5 -37t10.5 -36q2 -8 14 -46h1l10 44q3 11 9 37.5t10 38.5z" />
    <glyph glyph-name="infinity" unicode="&#x221e;" horiz-adv-x="903" 
d="M862 355q0 -77 -47.5 -131.5t-133.5 -54.5q-100 0 -235 118q-35 -29 -53.5 -43.5t-51.5 -36t-63.5 -31t-61.5 -9.5q-88 0 -131 52.5t-43 129.5q0 84 46.5 134.5t131.5 50.5q55 0 104 -27.5t129 -89.5q1 1 23.5 19t27.5 21t26 18t29.5 19.5t28 15t32.5 14t31 7t35 3.5
q84 0 130 -51.5t46 -127.5zM752 351q0 36 -19.5 56t-52.5 20q-46 0 -143 -74q108 -77 148 -77q32 0 49.5 21t17.5 54zM221 276q48 0 144 74q-86 61 -119 72q-15 5 -27 5q-32 0 -50 -21t-18 -54q0 -35 18.5 -55.5t51.5 -20.5z" />
    <glyph glyph-name="integral" unicode="&#x222b;" 
d="M44 -181l36 96q31 -9 58 -9q30 0 40.5 15.5t17.5 57.5l102 596q11 64 40 90.5t84 26.5q53 0 118 -21l-23 -95q-46 10 -64 10q-30 0 -39 -13.5t-16 -51.5l-101 -586q-12 -71 -44 -102t-99 -31q-57 0 -110 17z" />
    <glyph glyph-name="approxequal" unicode="&#x2248;" 
d="M498 308l47 -68q-66 -84 -149 -84q-46 0 -110 33l-20 10q-45 25 -78 25q-24 0 -44 -11.5t-50 -47.5l-50 68q17 30 60 59t94 29q47 0 101 -32l18 -10q48 -25 79 -25q55 0 102 54zM498 516l47 -68q-66 -84 -149 -84q-46 0 -110 33l-20 10q-45 25 -78 25q-24 0 -44 -11.5
t-50 -47.5l-50 68q17 30 60 59t94 29q47 0 101 -32l18 -10q48 -25 79 -25q55 0 102 54z" />
    <glyph glyph-name="notequal" unicode="&#x2260;" 
d="M551 470v-88h-206l-41 -78h247v-88h-293l-88 -166h-95l89 166h-126v88h172l40 78h-212v88h259l93 169h93l-91 -169h159z" />
    <glyph glyph-name="lessequal" unicode="&#x2264;" 
d="M559 50h-536v100h536v-100zM559 725v-111l-395 -156l395 -161v-111l-536 226v88z" />
    <glyph glyph-name="greaterequal" unicode="&#x2265;" 
d="M31 614v111l536 -225v-88l-536 -226v111l395 161zM567 50h-536v100h536v-100z" />
    <glyph glyph-name="lozenge" unicode="&#x25ca;" 
d="M257 680h78l207 -342l-207 -338h-78l-208 338zM296 124l122 214l-122 218l-123 -218z" />
    <glyph glyph-name="uni25CF" unicode="&#x25cf;" horiz-adv-x="504" 
d="M45 340q0 86 60.5 146.5t146.5 60.5t146.5 -60.5t60.5 -146.5t-60.5 -146.5t-146.5 -60.5t-146.5 60.5t-60.5 146.5z" />
    <glyph glyph-name="uni2B0F" unicode="&#x2b0f;" horiz-adv-x="552" 
d="M48 360v125l238 237l238 -237v-125l-185 184v-544h-291v100h185v444z" />
    <glyph glyph-name="uni2B10" unicode="&#x2b10;" horiz-adv-x="552" 
d="M213 712h291v-100h-185v-444l185 184v-125l-238 -237l-238 237v125l185 -184v544z" />
    <glyph glyph-name="uni2B11" unicode="&#x2b11;" horiz-adv-x="552" 
d="M504 485v-125l-185 184v-444h185v-100h-291v544l-185 -184v125l238 237z" />
    <glyph glyph-name="uniFB00" unicode="&#xfb00;" horiz-adv-x="646" 
d="M631 476v-89h-114v-387h-114v387h-187v-387h-114v387h-84v89h84v59q0 53 14 89q28 66 139 66q47 0 75 -5v-92q-26 2 -41 2q-49 0 -63 -19q-10 -13 -10 -50v-50h187v59q0 53 14 89q28 66 139 66q47 0 75 -5v-92q-26 2 -41 2q-49 0 -63 -19q-10 -13 -10 -50v-50h114z" />
    <glyph glyph-name="fi" unicode="&#xfb01;" horiz-adv-x="581" 
d="M330 476v-89h-114v-387h-114v387h-84v89h84v59q0 53 14 89q28 66 139 66q47 0 75 -5v-92q-26 2 -41 2q-49 0 -63 -19q-10 -13 -10 -50v-50h114zM513 476v-476h-114v476h114zM513 680v-116h-114v116h114z" />
    <glyph glyph-name="fl" unicode="&#xfb02;" horiz-adv-x="581" 
d="M330 476v-89h-114v-387h-114v387h-84v89h84v59q0 53 14 89q28 66 139 66q47 0 75 -5v-92q-26 2 -41 2q-49 0 -63 -19q-10 -13 -10 -50v-50h114zM513 680v-680h-114v680h114z" />
    <glyph glyph-name="uniFB03" unicode="&#xfb03;" horiz-adv-x="881" 
d="M813 476v-476h-114v476h114zM813 680v-116h-114v116h114zM631 476v-89h-114v-387h-114v387h-187v-387h-114v387h-84v89h84v59q0 53 14 89q28 66 139 66q47 0 75 -5v-92q-26 2 -41 2q-49 0 -63 -19q-10 -13 -10 -50v-50h187v59q0 53 14 89q28 66 139 66q47 0 75 -5v-92
q-26 2 -41 2q-49 0 -63 -19q-10 -13 -10 -50v-50h114z" />
    <glyph glyph-name="uniFB04" unicode="&#xfb04;" horiz-adv-x="869" 
d="M801 680v-680h-114v680h114zM631 476v-89h-114v-387h-114v387h-187v-387h-114v387h-84v89h84v59q0 53 14 89q28 66 139 66q47 0 75 -5v-92q-26 2 -41 2q-49 0 -63 -19q-10 -13 -10 -50v-50h187v59q0 53 14 89q28 66 139 66q47 0 75 -5v-92q-26 2 -41 2q-49 0 -63 -19
q-10 -13 -10 -50v-50h114z" />
    <glyph glyph-name="uniFEFF" unicode="&#xfeff;" horiz-adv-x="0" 
 />
    <glyph glyph-name="i.latn_TRK" horiz-adv-x="250" 
d="M182 476v-476h-114v476h114zM182 680v-116h-114v116h114z" />
    <glyph glyph-name="Ldot.latn_CAT" horiz-adv-x="515" 
d="M78 680h121v-570h292v-110h-413v680zM332 335v109h111v-109h-111z" />
    <glyph glyph-name="ldot.latn_CAT" horiz-adv-x="367" 
d="M182 680v-680h-114v680h114zM254 298v109h111v-109h-111z" />
    <glyph glyph-name="uni0414.cyrl_BGR" horiz-adv-x="708" 
d="M136 0v-169h-118v276h67l201 573h140l199 -573h65v-276h-118v169h-436zM291 358l-85 -254h294l-84 255q-33 100 -62 199h-1q-29 -98 -62 -200z" />
    <glyph glyph-name="uni0416.cyrl_BGR" horiz-adv-x="992" 
d="M436 0v231l-81 84l-204 -315h-150l268 405l-262 275h162l267 -299v299h120v-299l267 299h162l-263 -275l269 -405h-150l-205 315l-80 -84v-231h-120z" />
    <glyph glyph-name="uni041A.cyrl_BGR" horiz-adv-x="661" 
d="M380 399l283 -399h-153l-220 311l-92 -91v-220h-120v680h120v-311l297 311h162z" />
    <glyph glyph-name="uni041B.cyrl_BGR" horiz-adv-x="613" 
d="M479 0l-114 361q-35 112 -60 196h-1q-39 -131 -60 -197l-115 -360h-125l235 680h136l233 -680h-129z" />
    <glyph glyph-name="uni0424.cyrl_BGR" horiz-adv-x="781" 
d="M331 -10v79q-140 16 -218 100.5t-78 213.5q0 128 79.5 212.5t216.5 100.5v71h117v-71q138 -16 217.5 -100t79.5 -213t-78 -214.5t-219 -99.5v-79h-117zM616 383q0 86 -43.5 140t-124.5 69v-418q81 14 124.5 68t43.5 141zM164 383q0 -87 43 -140.5t124 -67.5v417
q-81 -15 -124 -69.5t-43 -139.5z" />
    <glyph glyph-name="uni0431.cyrl_SRB" horiz-adv-x="549" 
d="M276 -12q-114 0 -177 68t-63 174q0 179 173 223v3q-27 11 -43 19.5t-34.5 23t-27 34.5t-8.5 47q0 101 176 101q20 0 72 -1t68 -1q51 0 62 2v-88q-20 -4 -62 -4q-11 0 -60 1.5t-67 1.5q-39 0 -54.5 -4.5t-15.5 -23.5q0 -9 4 -16t14.5 -13.5t20 -11.5t29.5 -14t35 -16
l46 -23q72 -35 111 -91q37 -54 37 -142q0 -110 -61.5 -179.5t-174.5 -69.5zM149 238q0 -71 34.5 -111.5t90.5 -40.5t90.5 41t34.5 111q0 71 -33.5 110t-91.5 39t-91.5 -39t-33.5 -110z" />
    <glyph glyph-name="uni0432.cyrl_BGR" horiz-adv-x="564" 
d="M173 482v-252q0 -83 30 -115.5t93 -32.5q55 0 85.5 33t30.5 95q0 122 -173 122v85q130 0 130 97q0 43 -27 65t-68 22q-47 0 -73 -26q-28 -28 -28 -93zM59 242v228q0 67 15 106t49 68q57 48 154 48q94 0 153 -44.5t59 -123.5q0 -51 -25 -89.5t-75 -52.5v-3
q63 -8 101.5 -55t38.5 -117q0 -99 -61 -159t-169 -60q-121 0 -180.5 55.5t-59.5 198.5z" />
    <glyph glyph-name="uni0433.cyrl_BGR" horiz-adv-x="483" 
d="M113 341l-66 71q27 30 80.5 52.5t118.5 22.5q77 0 134.5 -37.5t57.5 -109.5q0 -60 -39 -92t-109 -48l-71 -15q-30 -7 -41.5 -10.5t-21.5 -13t-10 -25.5q0 -54 90 -54q93 0 146 71l77 -68q-28 -38 -85 -67.5t-135 -29.5q-87 0 -147.5 42t-60.5 119q0 59 36.5 88t100.5 43
l57 13q41 8 58 13t29.5 15.5t12.5 26.5q0 22 -21.5 34t-56.5 12q-79 0 -134 -53z" />
    <glyph glyph-name="uni0434.cyrl_BGR" horiz-adv-x="571" 
d="M49 -32l116 9q4 -40 27.5 -63t79.5 -23q65 0 91.5 28.5t26.5 96.5v45h-1q-49 -63 -141 -63q-96 0 -153 65t-57 174q0 113 55.5 181.5t153.5 68.5q93 0 142 -63v52h114v-449q0 -72 -15 -114q-23 -59 -76.5 -85t-143.5 -26q-108 0 -162 43t-57 123zM394 241q0 69 -32 108.5
t-89 39.5q-58 0 -89.5 -38t-31.5 -110t31.5 -109.5t89.5 -37.5q57 0 89 39t32 108z" />
    <glyph glyph-name="uni0436.cyrl_BGR" horiz-adv-x="768" 
d="M625 0l-136 221l-48 -45v-176h-114v176l-49 45l-135 -221h-142l196 299l-179 177h147l162 -165v369h114v-369l162 165h147l-179 -177l196 -299h-142z" />
    <glyph glyph-name="uni0437.cyrl_BGR" horiz-adv-x="531" 
d="M25 4l116 16q14 -122 119 -122q59 0 88.5 33t29.5 79q0 81 -72 99q-21 6 -82 6h-44v93h54q41 0 64 6q66 18 66 90q0 38 -26.5 64.5t-78.5 26.5q-57 0 -82.5 -34t-28.5 -77l-105 17q2 79 60.5 132.5t161.5 53.5q101 0 157.5 -47t56.5 -121q0 -53 -29 -90t-72 -58
q121 -45 121 -168q0 -88 -63.5 -144.5t-174.5 -56.5t-169 54t-67 148z" />
    <glyph glyph-name="uni0438.cyrl_BGR" horiz-adv-x="545" 
d="M62 173v303h114v-265q0 -61 18.5 -91.5t67.5 -30.5q52 0 76.5 35.5t24.5 95.5v256h114v-476h-114v61q-19 -32 -55.5 -52.5t-87.5 -20.5q-28 0 -52.5 7t-50 25t-40.5 57t-15 96z" />
    <glyph glyph-name="uni0439.cyrl_BGR" horiz-adv-x="545" 
d="M62 173v303h114v-265q0 -61 18.5 -91.5t67.5 -30.5q52 0 76.5 35.5t24.5 95.5v256h114v-476h-114v61q-19 -32 -55.5 -52.5t-87.5 -20.5q-28 0 -52.5 7t-50 25t-40.5 57t-15 96zM269 529q-72 0 -110.5 34t-38.5 117h81q0 -54 17 -69t51 -15q17 0 27 2t20.5 10t15.5 26
t5 46h81q0 -83 -38.5 -117t-110.5 -34z" />
    <glyph glyph-name="uni043A.cyrl_BGR" horiz-adv-x="532" 
d="M68 680h114v-399l192 195h147l-188 -185l205 -291h-142l-144 213l-70 -64v-149h-114v680z" />
    <glyph glyph-name="uni043B.cyrl_BGR" horiz-adv-x="495" 
d="M485 0h-118l-76 215q-39 109 -45 130h-2q-4 -12 -20 -57t-25 -73l-70 -215h-119l172 476h129z" />
    <glyph glyph-name="uni043F.cyrl_BGR" horiz-adv-x="555" 
d="M493 269v-269h-114v240q0 64 -8 91q-17 55 -84 55q-52 0 -78.5 -36t-26.5 -96v-254h-114v476h114v-62q18 33 56.5 53t91.5 20q87 0 131 -59q32 -47 32 -159z" />
    <glyph glyph-name="uni0442.cyrl_BGR" horiz-adv-x="862" 
d="M449 441q8 -9 20 -28q63 74 163 74q85 0 126 -46q23 -27 32.5 -62t9.5 -110v-269h-114v240q0 76 -17 111t-75 35q-52 0 -77.5 -35.5t-25.5 -96.5v-254h-114v240q0 76 -17 111t-75 35q-51 0 -77 -36t-26 -96v-254h-114v476h114v-62q42 73 149 73q76 0 118 -46z" />
    <glyph glyph-name="uni0446.cyrl_BGR" horiz-adv-x="573" 
d="M62 173v303h114v-265q0 -61 18.5 -91.5t67.5 -30.5q52 0 76.5 35.5t24.5 95.5v256h114v-384h68v-232h-111v140h-71v61q-19 -32 -55.5 -52.5t-87.5 -20.5q-28 0 -52.5 7t-50 25t-40.5 57t-15 96z" />
    <glyph glyph-name="uni0448.cyrl_BGR" horiz-adv-x="862" 
d="M413 34q-8 9 -20 28q-63 -74 -163 -74q-85 0 -126 46q-23 27 -32.5 62t-9.5 110v270h114v-241q0 -76 17 -111t75 -35q52 0 77.5 35.5t25.5 96.5v255h114v-241q0 -76 17 -111t75 -35q51 0 77 36t26 96v255h114v-476h-114v61q-42 -73 -149 -73q-76 0 -118 46z" />
    <glyph glyph-name="uni0449.cyrl_BGR" horiz-adv-x="888" 
d="M413 34q-8 9 -20 28q-63 -74 -163 -74q-85 0 -126 46q-23 27 -32.5 62t-9.5 110v270h114v-241q0 -76 17 -111t75 -35q52 0 77.5 35.5t25.5 96.5v255h114v-241q0 -76 17 -111t75 -35q51 0 77 36t26 96v255h114v-384h62v-232h-111v140h-65v61q-42 -73 -149 -73
q-76 0 -118 46z" />
    <glyph glyph-name="uni044A.cyrl_BGR" horiz-adv-x="579" 
d="M17 384v92h248v-173h117q173 0 173 -157q0 -79 -46 -118t-145 -39q-107 0 -158.5 36t-51.5 142v217h-137zM265 219v-48q0 -57 21.5 -77.5t78.5 -20.5q79 0 79 73t-79 73h-100z" />
    <glyph glyph-name="uni044C.cyrl_BGR" horiz-adv-x="492" 
d="M62 167v309h116v-173h117q173 0 173 -157q0 -79 -46 -118t-145 -39q-110 0 -162.5 36t-52.5 142zM178 219v-48q0 -57 21.5 -77.5t78.5 -20.5q79 0 79 73t-79 73h-100z" />
    <glyph glyph-name="uni044E.cyrl_BGR" horiz-adv-x="772" 
d="M503 -12q-101 0 -160.5 57t-68.5 158h-90v-203h-116v680h116v-387h93q14 91 73 142.5t153 51.5q108 0 170 -68t62 -183t-61.5 -181.5t-170.5 -66.5zM384 238q0 -72 32 -112t87 -40t87 40.5t32 111.5q0 72 -31 112t-88 40t-88 -40t-31 -112z" />
    <glyph glyph-name="uni045D.cyrl_BGR" horiz-adv-x="545" 
d="M62 173v303h114v-265q0 -61 18.5 -91.5t67.5 -30.5q52 0 76.5 35.5t24.5 95.5v256h114v-476h-114v61q-19 -32 -55.5 -52.5t-87.5 -20.5q-28 0 -52.5 7t-50 25t-40.5 57t-15 96zM144 680h135l64 -128h-98z" />
    <glyph glyph-name="bracketleft.subs" horiz-adv-x="222" 
d="M203 -167v-65h-155v629h155v-64h-70v-500h70z" />
    <glyph glyph-name="bracketright.subs" horiz-adv-x="222" 
d="M19 -167h70v500h-70v64h155v-629h-155v65z" />
    </font>
</defs>
</svg>
