<?xml version="1.0" standalone="no"?>
<!DOCTYPE svg PUBLIC "-//W3C//DTD SVG 1.1//EN" "http://www.w3.org/Graphics/SVG/1.1/DTD/svg11.dtd" >
<svg xmlns="http://www.w3.org/2000/svg" xmlns:xlink="http://www.w3.org/1999/xlink" version="1.1">
<metadata>
Created by FontForge 20170731 at Sat May 19 15:52:02 2018
 By Aleksey,,,
Copyright (c) 2018 by Optimo SARL. All rights reserved.
</metadata>
<defs>
<font id="TheinhardtPanLight-Italic" horiz-adv-x="590" >
  <font-face 
    font-family="Theinhardt Pan Light"
    font-weight="300"
    font-style="italic"
    font-stretch="normal"
    units-per-em="1000"
    panose-1="2 11 4 4 2 1 1 2 1 2"
    ascent="724"
    descent="-276"
    x-height="476"
    cap-height="680"
    bbox="-397 -267 1532 1034"
    underline-thickness="50"
    underline-position="-200"
    slope="-12"
    unicode-range="U+000D-FEFF"
  />
<missing-glyph horiz-adv-x="757" 
d="M138 240v49l309 309q14 -8 26 -23zM138 142v49l347 347v-15q0 -20 -13.5 -37.5t-41.5 -39.5t-37 -31q-23 -23 -36 -54zM192 0h-49l261 261h49l-93 -93h-23v-23zM409 168l273 273v-49l-224 -224h-49zM486 0h-49l33 33h2v2l210 210v-49zM138 338v49l148 148l39 -2
q0 29 20 52t55 23h8zM472 133l210 210v-49l-210 -210v49zM138 44v49l206 206v-38h11zM138 583l196 196h49l-44 -44q-54 -14 -93 -53.5t-54 -93.5l-54 -54v49zM625 482l57 57v-49l-216 -216v7q0 12 2.5 21t11 18.5t12.5 13.5t21 16t23 16q1 1 10 7.5t14 10.5t14.5 12.5
t15.5 16.5t13.5 18.5t13 23.5t8.5 27zM138 681l98 98h49l-147 -147v49zM584 0h-49l147 147v-49zM547 698l81 81h49l-104 -104q-25 22 -26 23zM138 436v49l56 56l46 -3zM594 647l88 88v-49l-70 -70q-6 13 -18 31zM290 0h-49l96 96v-49zM624 579l58 58v-49l-52 -52q0 13 -6 43
zM483 732l47 47h49l-62 -62q-14 8 -34 15zM395 742l37 37h49l-38 -38q-18 2 -28 2q-2 0 -6.5 -0.5t-6.5 -0.5h-7zM388 0h-49l33 33h49zM682 49v-49h-49zM138 779h49l-49 -49v49z" />
    <glyph glyph-name="f_f" unicode="ff" horiz-adv-x="591" 
d="M627 476l-10 -46h-127l-91 -430h-59l91 430h-214l-91 -430h-59l91 430h-102l10 46h103l16 76q14 68 43 103t94 35q44 0 74 -14l-11 -48q-26 14 -59 14q-37 0 -55 -19.5t-29 -73.5l-15 -73h215l16 76q14 68 43 103t94 35q44 0 74 -14l-11 -48q-26 14 -59 14
q-37 0 -55 -19.5t-29 -73.5l-15 -73h127z" />
    <glyph glyph-name="f_f_i" unicode="ffi" horiz-adv-x="782" 
d="M627 476l-10 -46h-127l-91 -430h-59l91 430h-214l-91 -430h-59l91 430h-102l10 46h103l16 76q14 68 43 103t94 35q44 0 74 -14l-11 -48q-26 14 -59 14q-37 0 -55 -19.5t-29 -73.5l-15 -73h215l16 76q14 68 43 103t94 35q44 0 74 -14l-11 -48q-26 14 -59 14
q-37 0 -55 -19.5t-29 -73.5l-15 -73h127zM754 476l-101 -476h-58l100 476h59zM798 680l-21 -98h-60l22 98h59z" />
    <glyph glyph-name="f_f_l" unicode="ffl" horiz-adv-x="783" 
d="M627 476l-10 -46h-127l-91 -430h-59l91 430h-214l-91 -430h-59l91 430h-102l10 46h103l16 76q14 68 43 103t94 35q44 0 74 -14l-11 -48q-26 14 -59 14q-37 0 -55 -19.5t-29 -73.5l-15 -73h215l16 76q14 68 43 103t94 35q44 0 74 -14l-11 -48q-26 14 -59 14
q-37 0 -55 -19.5t-29 -73.5l-15 -73h127zM740 680h58l-144 -680h-59z" />
    <glyph glyph-name="f_i" unicode="fi" horiz-adv-x="509" 
d="M354 476l-10 -46h-127l-91 -430h-59l91 430h-102l10 46h103l16 76q14 68 43 103t94 35q44 0 74 -14l-11 -48q-26 14 -59 14q-36 0 -54.5 -20t-29.5 -73l-15 -73h127zM481 476l-101 -476h-58l100 476h59zM525 680l-21 -98h-60l22 98h59z" />
    <glyph glyph-name="f_l" unicode="fl" horiz-adv-x="510" 
d="M354 476l-10 -46h-127l-91 -430h-59l91 430h-102l10 46h103l16 76q14 68 43 103t94 35q44 0 74 -14l-11 -48q-26 14 -59 14q-36 0 -54.5 -20t-29.5 -73l-15 -73h127zM467 680h58l-144 -680h-59z" />
    <glyph glyph-name=".notdef" horiz-adv-x="757" 
d="M138 240v49l309 309q14 -8 26 -23zM138 142v49l347 347v-15q0 -20 -13.5 -37.5t-41.5 -39.5t-37 -31q-23 -23 -36 -54zM192 0h-49l261 261h49l-93 -93h-23v-23zM409 168l273 273v-49l-224 -224h-49zM486 0h-49l33 33h2v2l210 210v-49zM138 338v49l148 148l39 -2
q0 29 20 52t55 23h8zM472 133l210 210v-49l-210 -210v49zM138 44v49l206 206v-38h11zM138 583l196 196h49l-44 -44q-54 -14 -93 -53.5t-54 -93.5l-54 -54v49zM625 482l57 57v-49l-216 -216v7q0 12 2.5 21t11 18.5t12.5 13.5t21 16t23 16q1 1 10 7.5t14 10.5t14.5 12.5
t15.5 16.5t13.5 18.5t13 23.5t8.5 27zM138 681l98 98h49l-147 -147v49zM584 0h-49l147 147v-49zM547 698l81 81h49l-104 -104q-25 22 -26 23zM138 436v49l56 56l46 -3zM594 647l88 88v-49l-70 -70q-6 13 -18 31zM290 0h-49l96 96v-49zM624 579l58 58v-49l-52 -52q0 13 -6 43
zM483 732l47 47h49l-62 -62q-14 8 -34 15zM395 742l37 37h49l-38 -38q-18 2 -28 2q-2 0 -6.5 -0.5t-6.5 -0.5h-7zM388 0h-49l33 33h49zM682 49v-49h-49zM138 779h49l-49 -49v49z" />
    <glyph glyph-name=".null" horiz-adv-x="0" 
 />
    <glyph glyph-name=".null" horiz-adv-x="0" 
 />
    <glyph glyph-name="nonmarkingreturn" horiz-adv-x="333" 
 />
    <glyph glyph-name="CR" unicode="&#xd;" horiz-adv-x="240" 
 />
    <glyph glyph-name="space" unicode=" " horiz-adv-x="240" 
 />
    <glyph glyph-name="exclam" unicode="!" horiz-adv-x="235" 
d="M170 348l-45 -172h-43l29 172l70 332h59zM58 114h67l-25 -114h-67z" />
    <glyph glyph-name="quotedbl" unicode="&#x22;" horiz-adv-x="320" 
d="M193 585l-50 -183h-36l28 183l20 95h58zM328 585l-50 -183h-36l28 183l20 95h58z" />
    <glyph glyph-name="numbersign" unicode="#" 
d="M628 472l-3 -52h-168l-40 -177h168l-4 -50h-176l-43 -193h-53l43 193h-144l-43 -193h-54l44 193h-153l4 50h160l40 177h-160l4 52h169l48 208h54l-49 -208h144l49 208h53l-49 -208h159zM260 420l-40 -177h144l40 177h-144z" />
    <glyph glyph-name="dollar" unicode="$" 
d="M194 -99l21 103q-68 15 -114 57t-67 103l49 34q16 -53 53 -90t90 -51l59 272l-36 13q-30 11 -49.5 21.5t-43 29t-35.5 47t-12 65.5q0 82 60 131t163 49q2 0 8 -0.5t10 -0.5q3 -1 11 -1l19 100h52l-21 -108q113 -28 162 -117l-47 -35q-43 78 -126 100l-55 -253
q44 -15 71.5 -27t58.5 -33t46 -50.5t15 -68.5q0 -87 -61.5 -141.5t-178.5 -54.5q-9 0 -31 2l-19 -96h-52zM345 308l-12 4l-57 -264q3 0 10.5 -0.5t11.5 -0.5q82 0 129.5 36t47.5 100q0 50 -33 76.5t-97 48.5zM169 512q0 -48 26.5 -73t80.5 -46l21 -8l53 245q-8 1 -22 1
q-71 0 -115 -31t-44 -88z" />
    <glyph glyph-name="percent" unicode="%" horiz-adv-x="950" 
d="M269 688q64 0 97.5 -43t33.5 -119q0 -107 -51 -190.5t-139 -83.5q-64 0 -97.5 43t-33.5 119q0 107 51 190.5t139 83.5zM214 291q46 0 79.5 38.5t48.5 89.5t15 103q0 63 -25.5 95t-66.5 32q-46 0 -79.5 -38.5t-48.5 -89.5t-15 -103q0 -63 25.5 -95t66.5 -32zM783 429
q64 0 97.5 -43t33.5 -119q0 -107 -51 -190.5t-139 -83.5q-64 0 -97.5 43t-33.5 119q0 107 51 190.5t139 83.5zM728 32q46 0 79.5 38.5t48.5 89.5t15 103q0 63 -25.5 95t-66.5 32q-46 0 -79.5 -38.5t-48.5 -89.5t-15 -103q0 -63 25.5 -95t66.5 -32zM719 680h47l-485 -680h-47
z" />
    <glyph glyph-name="ampersand" unicode="&#x26;" horiz-adv-x="612" 
d="M402 125q-82 116 -136 216q-44 -20 -68.5 -33.5t-53.5 -35t-42.5 -48.5t-13.5 -60q0 -59 37.5 -93t101.5 -34q103 0 175 88zM574 0h-74q-36 43 -67 87q-93 -99 -213 -99q-88 0 -139 45.5t-51 124.5t54.5 128.5t160.5 96.5q-46 94 -46 150q0 68 43.5 113.5t118.5 45.5
q65 0 103.5 -37t38.5 -89q0 -62 -46 -110.5t-141 -91.5q51 -93 121 -194q45 69 77 149l44 -29q-33 -83 -88 -160q54 -76 104 -130zM255 536q0 -62 41 -130q151 64 151 156q0 38 -24.5 60t-63.5 22q-48 0 -76 -30t-28 -78z" />
    <glyph glyph-name="quotesingle" unicode="'" horiz-adv-x="185" 
d="M193 585l-50 -183h-36l28 183l20 95h58z" />
    <glyph glyph-name="parenleft" unicode="(" horiz-adv-x="252" 
d="M136 -162l-48 -7q-48 141 -48 295q0 298 228 561l54 -7q-226 -264 -226 -572q0 -140 40 -270z" />
    <glyph glyph-name="parenright" unicode=")" horiz-adv-x="252" 
d="M124 680l47 7q49 -143 49 -295q0 -303 -228 -561l-54 7q226 264 226 572q0 140 -40 270z" />
    <glyph glyph-name="asterisk" unicode="*" horiz-adv-x="445" 
d="M340 671l-33 -146l151 18l4 -48l-152 -13l65 -139l-43 -20l-61 140l-113 -103l-30 36l116 100l-135 75l25 41l129 -78l30 147z" />
    <glyph glyph-name="plus" unicode="+" 
d="M346 319v-239h-57v239h-235v56h235v238h57v-238h234v-56h-234z" />
    <glyph glyph-name="comma" unicode="," horiz-adv-x="212" 
d="M46 114h80l-24 -113q-16 -76 -39.5 -106t-72.5 -36l9 41q41 11 56 86l3 14h-36z" />
    <glyph glyph-name="hyphen" unicode="-" horiz-adv-x="409" 
d="M355 298l-13 -59h-277l13 59h277z" />
    <glyph glyph-name="period" unicode="." horiz-adv-x="209" 
d="M46 114h77l-25 -114h-77z" />
    <glyph glyph-name="slash" unicode="/" horiz-adv-x="358" 
d="M349 680h62l-358 -680h-63z" />
    <glyph glyph-name="zero" unicode="0" horiz-adv-x="606" 
d="M376 692q35 0 68.5 -12t66 -38t52.5 -78.5t20 -123.5q0 -110 -34 -211t-106.5 -171t-167.5 -70q-103 0 -156 69t-53 189q0 110 35 210t107.5 168t167.5 68zM127 252q0 -109 42 -159t111 -50q71 0 128 59.5t85 146.5t28 180q0 96 -38.5 152t-111.5 56q-78 0 -135.5 -63.5
t-83 -148.5t-25.5 -173z" />
    <glyph glyph-name="one" unicode="1" horiz-adv-x="349" 
d="M209 0h-62l111 516q-55 -34 -151 -34q-22 0 -34 1l11 52h16q75 0 122 29q57 36 77 116h55z" />
    <glyph glyph-name="two" unicode="2" horiz-adv-x="551" 
d="M173 401l-65 15q-6 27 -6 55q0 93 63.5 157t168.5 64q97 0 154 -53t57 -136q0 -46 -16.5 -89.5t-38 -74t-62 -67.5t-67 -56.5t-75.5 -53.5q-105 -72 -180 -110v-1l42 2q50 2 97 2h230l-11 -55h-456l9 52q130 71 275 181q44 34 69.5 56t57 56.5t46 72t14.5 80.5
q0 64 -39.5 101.5t-109.5 37.5q-82 0 -124 -48.5t-42 -121.5q0 -33 9 -66z" />
    <glyph glyph-name="three" unicode="3" horiz-adv-x="561" 
d="M162 495l-56 18q4 67 64 123t159 56t151 -48.5t52 -116.5q0 -64 -43.5 -112.5t-121.5 -56.5v-1q64 -14 99 -59.5t35 -104.5q0 -82 -63.5 -143.5t-176.5 -61.5q-105 0 -163.5 50t-66.5 139l60 21q6 -71 48 -113t120 -42q76 0 127 38.5t51 114.5q0 90 -89 123
q-44 16 -117 16h-55l11 51h73q91 0 136 22q71 36 71 114q0 52 -38 83.5t-103 31.5q-74 0 -115.5 -42t-48.5 -100z" />
    <glyph glyph-name="four" unicode="4" horiz-adv-x="557" 
d="M395 179l-38 -179h-60l39 179h-327l9 42l430 459h55l-96 -447h124l-11 -54h-125zM99 233h249l47 224q5 24 11.5 51t13.5 54t9 35h-1q-46 -65 -113 -136z" />
    <glyph glyph-name="five" unicode="5" horiz-adv-x="549" 
d="M37 152l58 25q10 -59 53.5 -97.5t108.5 -38.5q77 0 131.5 55.5t54.5 154.5q0 76 -42 115.5t-105 39.5q-57 0 -103.5 -33t-63.5 -95l-59 19l96 383h369l-13 -55h-313l-36 -140l-20 -73l-8 -29l2 -1q25 38 69.5 58.5t94.5 20.5q83 0 140 -54t57 -152q0 -124 -74.5 -195.5
t-175.5 -71.5q-83 0 -142 41.5t-79 122.5z" />
    <glyph glyph-name="six" unicode="6" horiz-adv-x="576" 
d="M571 537l-53 -34q-9 55 -47 94t-100 39q-56 0 -106 -35.5t-83 -105.5q-25 -51 -42 -125h1q68 82 181 82q99 0 152 -60.5t53 -147.5q0 -101 -67 -178.5t-180 -77.5q-98 0 -155.5 65t-57.5 185q0 191 84 322.5t223 131.5q77 0 129 -42.5t68 -112.5zM129 294q-2 -32 -2 -48
q0 -94 40.5 -148t117.5 -54q82 0 130.5 59t48.5 137q0 67 -40.5 112.5t-116.5 45.5q-57 0 -104.5 -29t-73.5 -75z" />
    <glyph glyph-name="seven" unicode="7" horiz-adv-x="509" 
d="M581 680l-11 -48q-282 -319 -370 -632h-66q71 251 290 535q27 35 75 90v1q-23 -1 -109 -1h-218l-32 -153h-59l44 208h456z" />
    <glyph glyph-name="eight" unicode="8" horiz-adv-x="583" 
d="M225 372q-100 33 -100 141q0 73 61.5 126t160.5 53q98 0 154 -43.5t56 -116.5q0 -69 -40.5 -114t-115.5 -59q121 -40 121 -166q0 -91 -66 -148t-185 -57q-111 0 -170 49.5t-59 134.5q0 75 47 128.5t136 71.5zM105 183q0 -64 44.5 -102t122.5 -38q87 0 136.5 40.5
t49.5 112.5q0 66 -45.5 103.5t-123.5 37.5q-89 0 -136.5 -45t-47.5 -109zM187 512q0 -53 36.5 -86.5t108.5 -33.5q78 0 119 36.5t41 97.5q0 51 -39 82t-106 31q-76 0 -118 -37.5t-42 -89.5z" />
    <glyph glyph-name="nine" unicode="9" horiz-adv-x="576" 
d="M47 143l53 34q9 -56 47 -94t100 -38q57 0 107 35t82 105q25 51 42 125h-1q-68 -82 -181 -82q-99 0 -152 60.5t-53 147.5q0 101 67 178.5t180 77.5q98 0 155.5 -65t57.5 -185q0 -191 -84 -322.5t-223 -131.5q-77 0 -129 42.5t-68 112.5zM489 387q2 32 2 48q0 94 -40.5 148
t-117.5 54q-82 0 -130.5 -59t-48.5 -137q0 -67 40.5 -112.5t116.5 -45.5q57 0 104.5 29t73.5 75z" />
    <glyph glyph-name="colon" unicode=":" horiz-adv-x="206" 
d="M38 114h76l-24 -114h-76zM115 476h76l-24 -114h-76z" />
    <glyph glyph-name="semicolon" unicode=";" horiz-adv-x="215" 
d="M122 476h76l-24 -114h-76zM40 114h80l-24 -113q-16 -76 -39.5 -106t-72.5 -36l9 41q41 11 56 86l3 14h-36z" />
    <glyph glyph-name="less" unicode="&#x3c;" 
d="M559 124v-64l-536 253v66l536 251v-63l-471 -221z" />
    <glyph glyph-name="equal" unicode="=" 
d="M557 286v-56h-490v56h490zM557 461v-57h-490v57h490z" />
    <glyph glyph-name="greater" unicode="&#x3e;" 
d="M75 60v64l471 222l-471 221v63l536 -251v-66z" />
    <glyph glyph-name="question" unicode="?" horiz-adv-x="466" 
d="M151 428l-59 12q-5 25 -5 44q0 88 57 147.5t157 59.5q90 0 139.5 -45.5t49.5 -117.5q0 -104 -103 -181l-49 -36q-56 -41 -77 -73t-31 -89h-60q14 73 37.5 111t86.5 83l51 37q86 61 86 143q0 52 -36 84.5t-100 32.5q-71 0 -111.5 -46.5t-40.5 -113.5q0 -23 8 -52zM160 104
h62l-22 -104h-63z" />
    <glyph glyph-name="at" unicode="@" horiz-adv-x="823" 
d="M604 365l-35 -159q-6 -26 -6 -38q0 -31 32 -31q64 0 113 77t49 178q0 117 -78 185.5t-205 68.5q-154 0 -260 -108t-106 -281q0 -129 80.5 -214.5t226.5 -85.5q173 0 294 115l15 -42q-60 -57 -142 -87.5t-172 -30.5q-167 0 -259.5 97t-92.5 245q0 191 121.5 314t296.5 123
q147 0 237.5 -80t90.5 -214q0 -119 -62 -208.5t-147 -89.5q-42 0 -59 16t-19 48h-1q-20 -28 -59 -47.5t-86 -19.5q-58 0 -90.5 28.5t-32.5 79.5q0 35 17 61t47.5 41t60 23t68.5 14l38 6q31 5 46 9.5t26.5 19.5t11.5 42q0 64 -90 64q-105 0 -125 -94l-48 6q23 129 177 129
q136 0 136 -98q0 -19 -9 -62zM384 137q54 0 93.5 32t52.5 87l17 74q-8 -6 -59 -19l-52 -10q-2 -1 -16 -4t-18.5 -4t-17.5 -5t-18.5 -6.5l-16.5 -7.5t-15.5 -9t-12 -10.5t-11 -13.5t-6 -15.5t-2.5 -18.5q0 -70 82 -70z" />
    <glyph glyph-name="A" unicode="A" horiz-adv-x="584" 
d="M137 198l-113 -198h-63l390 680h67l105 -680h-60l-29 198h-297zM427 251l-23 163q-22 141 -30 209h-2q-7 -13 -103 -189l-102 -183h260z" />
    <glyph glyph-name="B" unicode="B" horiz-adv-x="671" 
d="M331 0h-293l145 680h255q109 0 161 -39q49 -38 49 -111q0 -67 -34 -114.5t-108 -60.5v-2q106 -28 106 -143q0 -111 -86 -171q-59 -39 -195 -39zM381 327h-213l-57 -274h245q195 0 195 160q0 36 -13 59.5t-38 35t-52.5 15.5t-66.5 4zM179 378h218q93 0 142 33.5t49 114.5
q0 56 -39 78t-110 22h-206z" />
    <glyph glyph-name="C" unicode="C" horiz-adv-x="643" 
d="M556 192l49 -28q-43 -80 -113.5 -128t-166.5 -48q-122 0 -190 76.5t-68 208.5q0 108 38.5 201.5t119 155.5t187.5 62q95 0 159.5 -49.5t83.5 -132.5l-54 -27q-14 72 -64 113.5t-128 41.5q-68 0 -123 -32t-88.5 -84.5t-51 -114.5t-17.5 -127q0 -113 52.5 -175.5
t150.5 -62.5q78 0 135 41t89 109z" />
    <glyph glyph-name="D" unicode="D" horiz-adv-x="678" 
d="M247 0h-209l144 680h145q134 0 210 -36q119 -57 119 -217q0 -85 -27 -170.5t-76 -144.5q-57 -68 -126.5 -90t-179.5 -22zM231 624l-122 -571h154q71 0 117.5 12.5t87.5 44.5q61 48 94 138t33 175q0 130 -96 173q-63 28 -169 28h-99z" />
    <glyph glyph-name="E" unicode="E" horiz-adv-x="586" 
d="M611 625h-380l-52 -246h344l-11 -55h-345l-57 -270h402l-11 -54h-463l144 680h441z" />
    <glyph glyph-name="F" unicode="F" horiz-adv-x="536" 
d="M586 625h-354l-54 -248h327l-11 -55h-327l-69 -322h-60l144 680h415z" />
    <glyph glyph-name="G" unicode="G" horiz-adv-x="682" 
d="M577 0h-57q10 48 25 107h-2q-29 -51 -84 -85t-134 -34q-120 0 -189 75.5t-69 211.5q0 79 23 153t65 133.5t110 95t150 35.5q98 0 161 -48t84 -134l-54 -27q-15 73 -65 114t-130 41q-90 0 -156 -55.5t-96 -134.5t-30 -168q0 -113 52.5 -176.5t152.5 -63.5q195 0 249 251
h-241l11 53h298z" />
    <glyph glyph-name="H" unicode="H" horiz-adv-x="669" 
d="M613 680h61l-145 -680h-60l68 324h-370l-69 -324h-60l144 680h61l-64 -300h370z" />
    <glyph glyph-name="I" unicode="I" horiz-adv-x="238" 
d="M182 680h61l-145 -680h-60z" />
    <glyph glyph-name="J" unicode="J" horiz-adv-x="492" 
d="M441 680h61l-97 -451q-23 -107 -47 -149q-53 -92 -177 -92q-85 0 -132 43t-47 121q0 18 2 31l63 19q-4 -20 -4 -41q0 -55 30 -87.5t91 -32.5q72 0 106 44t54 140z" />
    <glyph glyph-name="K" unicode="K" horiz-adv-x="618" 
d="M317 369l-170 -141l-48 -228h-61l145 680h61l-80 -373l444 373h86l-329 -273l202 -407h-71z" />
    <glyph glyph-name="L" unicode="L" horiz-adv-x="517" 
d="M182 680h61l-133 -624h355l-12 -56h-415z" />
    <glyph glyph-name="M" unicode="M" horiz-adv-x="770" 
d="M609 438l-244 -438h-60l-55 400q-21 158 -25 222h-2q-30 -173 -34 -191l-92 -431h-59l145 680h87l52 -399q9 -60 18 -134t9 -76h2q9 16 50.5 91t70.5 129l215 389h88l-145 -680h-59l95 442q12 66 46 188h-2q-29 -61 -101 -192z" />
    <glyph glyph-name="N" unicode="N" horiz-adv-x="692" 
d="M553 0h-68l-199 449q-41 91 -64 151h-1q-8 -65 -28 -150l-95 -450h-60l144 680h67l184 -417l79 -176h1q12 74 30 153l93 440h61z" />
    <glyph glyph-name="O" unicode="O" horiz-adv-x="701" 
d="M67 272q0 80 23 154.5t65 134.5t109.5 95.5t150.5 35.5q122 0 192 -74.5t70 -203.5q0 -109 -38 -204t-119.5 -158.5t-192.5 -63.5q-124 0 -192 76t-68 208zM410 638q-69 0 -124.5 -32.5t-88.5 -85t-50.5 -115.5t-17.5 -128q0 -110 52.5 -173t150.5 -63q89 0 155.5 57.5
t97 139t30.5 169.5q0 108 -53 169.5t-152 61.5z" />
    <glyph glyph-name="P" unicode="P" horiz-adv-x="618" 
d="M174 356h202q99 0 141 29q63 43 63 134q0 69 -68 95q-33 11 -98 11h-183zM370 300h-208l-64 -300h-60l144 680h236q99 0 151 -28q72 -40 72 -128q0 -138 -105 -195q-55 -29 -166 -29z" />
    <glyph glyph-name="Q" unicode="Q" horiz-adv-x="714" 
d="M67 272q0 109 38.5 202.5t120 155.5t190.5 62q120 0 190.5 -75t70.5 -203q0 -190 -107 -312l71 -86l-50 -39l-65 80q-85 -69 -200 -69q-123 0 -191 76.5t-68 207.5zM410 638q-69 0 -124.5 -32.5t-88.5 -85t-50.5 -115.5t-17.5 -128q0 -110 52.5 -173t150.5 -63
q89 0 155.5 57.5t97 139t30.5 169.5q0 108 -53 169.5t-152 61.5z" />
    <glyph glyph-name="R" unicode="R" horiz-adv-x="641" 
d="M376 300h-214l-64 -300h-60l144 680h235q99 0 151 -28q72 -40 72 -128q0 -137 -105 -194q-38 -21 -96 -26l119 -304h-68zM174 356h202q99 0 141 29q63 43 63 134q0 69 -68 95q-33 11 -98 11h-183z" />
    <glyph glyph-name="S" unicode="S" horiz-adv-x="581" 
d="M574 562l-47 -35q-60 110 -199 110q-73 0 -118.5 -31.5t-45.5 -89.5q0 -51 31 -78.5t95 -49.5l66 -22q40 -14 66 -26t55 -33t44 -50.5t15 -68.5q0 -88 -62.5 -144t-181.5 -56q-101 0 -170 47t-94 125l49 36q22 -73 78.5 -113.5t139.5 -40.5q85 0 132.5 36t47.5 102
q0 51 -35.5 80t-100.5 50l-92 31q-144 47 -144 168q0 84 61 133.5t166 49.5q84 0 148 -35.5t96 -94.5z" />
    <glyph glyph-name="T" unicode="T" horiz-adv-x="530" 
d="M244 0h-60l132 625h-223l13 55h504l-12 -55h-221z" />
    <glyph glyph-name="U" unicode="U" horiz-adv-x="677" 
d="M303 -12q-107 0 -166.5 49t-59.5 139q0 37 13 99l86 405h61l-87 -407q-12 -60 -12 -88q0 -72 45 -108t128 -36q100 0 150 45t77 170l90 424h61l-91 -425q-32 -151 -96.5 -209t-198.5 -58z" />
    <glyph glyph-name="V" unicode="V" horiz-adv-x="568" 
d="M267 0h-72l-84 680h63l49 -421q3 -28 11 -100.5t10 -92.5h1q19 41 105 193l232 421h67z" />
    <glyph glyph-name="W" unicode="W" horiz-adv-x="865" 
d="M610 0h-75l-19 353q-5 100 -5 214v33h-2l-103 -233l-175 -367h-75l-41 680h63l25 -422q7 -124 7 -183h2q28 72 81 182l200 423h66l22 -421q6 -134 6 -172v-13h2q7 20 84 189l197 417h65z" />
    <glyph glyph-name="X" unicode="X" horiz-adv-x="589" 
d="M533 0h-68l-152 312l-287 -312h-75l335 360l-158 320h66l136 -280l254 280h76l-304 -328z" />
    <glyph glyph-name="Y" unicode="Y" horiz-adv-x="572" 
d="M265 0h-61l60 284l-159 396h62l139 -341l282 341h70l-334 -399z" />
    <glyph glyph-name="Z" unicode="Z" horiz-adv-x="556" 
d="M494 55l-12 -55h-509l10 47l541 578h-403l11 55h484l-10 -48l-538 -577h426z" />
    <glyph glyph-name="bracketleft" unicode="[" horiz-adv-x="283" 
d="M185 -113l-10 -46h-171l178 839h172l-11 -46h-114l-159 -747h115z" />
    <glyph glyph-name="backslash" unicode="\" horiz-adv-x="554" 
d="M110 680h58l319 -680h-58z" />
    <glyph glyph-name="bracketright" unicode="]" horiz-adv-x="283" 
d="M-60 -158l10 47h113l158 744h-114l10 47h171l-178 -838h-170z" />
    <glyph glyph-name="asciicircum" unicode="^" horiz-adv-x="484" 
d="M372 680l97 -358h-67l-73 289h-1l-199 -289h-73l255 358h61z" />
    <glyph glyph-name="underscore" unicode="_" horiz-adv-x="519" 
d="M453 -92l-12 -56h-528l12 56h528z" />
    <glyph glyph-name="grave" unicode="`" horiz-adv-x="450" 
d="M310 552h-52l-120 128h74z" />
    <glyph glyph-name="a" unicode="a" horiz-adv-x="488" 
d="M281 485q71 0 114 -26.5t43 -83.5q0 -22 -9 -69l-44 -208q-4 -20 -4 -32q0 -32 38 -32q12 0 24 3l-8 -42q-9 -4 -36 -4q-72 0 -72 61q0 9 1 16h-2q-22 -34 -66.5 -57t-98.5 -23q-67 0 -106.5 33t-39.5 92q0 34 13.5 60t32 41t50.5 27t56.5 17t62.5 11l37 6q33 5 49.5 9
t34.5 13.5t25 26t7 42.5q0 73 -105 73q-65 0 -101 -26.5t-48 -81.5l-53 9q30 145 205 145zM174 32q62 0 109.5 37t61.5 103l19 89q-19 -14 -101 -29l-31 -5q-81 -15 -119 -39t-38 -73q0 -41 26.5 -62t72.5 -21z" />
    <glyph glyph-name="b" unicode="b" horiz-adv-x="548" 
d="M173 680h58l-65 -296h1q23 43 67.5 73t101.5 30q75 0 123.5 -51.5t48.5 -139.5q0 -124 -68 -216t-178 -92q-65 0 -104.5 35.5t-47.5 85.5h-1l-22 -109h-60zM317 437q-58 0 -102 -41t-63.5 -96t-19.5 -110q0 -73 32 -113.5t96 -40.5q85 0 137 78.5t52 171.5
q0 68 -34 109.5t-98 41.5z" />
    <glyph glyph-name="c" unicode="c" horiz-adv-x="483" 
d="M466 351l-52 -21q-22 108 -131 108q-86 0 -136 -75t-50 -168q0 -76 36.5 -117t98.5 -41q105 0 155 106l46 -26q-65 -129 -205 -129q-88 0 -137.5 53t-49.5 147q0 121 66.5 210t180.5 89q72 0 117.5 -36.5t60.5 -99.5z" />
    <glyph glyph-name="d" unicode="d" horiz-adv-x="547" 
d="M504 680h58l-144 -680h-59l21 88h-2q-23 -43 -66 -71.5t-102 -28.5q-75 0 -123 51t-48 143q0 122 68.5 213.5t177.5 91.5q65 0 103.5 -34t50.5 -84zM229 36q59 0 103 41t64 97t20 113q0 70 -33 110t-95 40q-85 0 -137 -76.5t-52 -167.5q0 -72 33.5 -114.5t96.5 -42.5z
" />
    <glyph glyph-name="e" unicode="e" horiz-adv-x="512" 
d="M467 232h-368q-2 -24 -2 -37q0 -74 35.5 -116t105.5 -42q114 0 168 105l42 -27q-30 -55 -83.5 -91t-129.5 -36q-90 0 -142 52.5t-52 152.5q0 121 67 207.5t183 86.5q90 0 135.5 -54.5t45.5 -141.5q0 -24 -5 -59zM107 278h304q2 14 2 25q0 62 -33 99.5t-94 37.5
q-72 0 -117.5 -46t-61.5 -116z" />
    <glyph glyph-name="f" unicode="f" horiz-adv-x="318" 
d="M354 476l-10 -46h-127l-91 -430h-59l91 430h-102l10 46h103l16 76q14 68 43 103t94 35q44 0 74 -14l-11 -48q-26 14 -59 14q-36 0 -54.5 -20t-29.5 -73l-15 -73h127z" />
    <glyph glyph-name="g" unicode="g" horiz-adv-x="544" 
d="M361 11l18 75h-2q-20 -37 -63 -64t-99 -27q-78 0 -125.5 49.5t-47.5 144.5q0 120 66.5 209t176.5 89q65 0 104.5 -35.5t47.5 -85.5h2l21 110h56l-97 -456q-25 -116 -76 -167t-156 -51q-182 0 -184 155l57 9q0 -117 132 -117q78 0 113.5 38.5t55.5 123.5zM100 199
q0 -72 33.5 -115t98.5 -43q57 0 100.5 40.5t63 95t19.5 111.5q0 70 -32.5 110t-96.5 40q-83 0 -134.5 -75t-51.5 -164z" />
    <glyph glyph-name="h" unicode="h" horiz-adv-x="529" 
d="M27 0l145 680h59l-44 -204q-16 -71 -21 -89h2q23 42 67 71t104 29q62 0 99 -32.5t37 -98.5q0 -33 -9 -75l-60 -281h-59l59 273q9 45 9 71q0 46 -23 69.5t-75 23.5q-70 0 -115.5 -52.5t-59.5 -119.5l-56 -265h-59z" />
    <glyph glyph-name="i" unicode="i" horiz-adv-x="214" 
d="M186 476l-101 -476h-58l100 476h59zM230 680l-21 -98h-60l22 98h59z" />
    <glyph glyph-name="j" unicode="j" horiz-adv-x="222" 
d="M136 476h59l-115 -536q-18 -83 -46 -112t-85 -29q-40 0 -72 10l13 52q26 -11 54 -11q34 0 50 18t29 79zM239 680l-22 -98h-59l21 98h60z" />
    <glyph glyph-name="k" unicode="k" horiz-adv-x="479" 
d="M171 680h59l-95 -443l295 239h80l-227 -182l143 -294h-68l-121 259l-116 -90l-36 -169h-58z" />
    <glyph glyph-name="l" unicode="l" horiz-adv-x="215" 
d="M172 680h58l-144 -680h-59z" />
    <glyph glyph-name="m" unicode="m" horiz-adv-x="829" 
d="M27 0l101 476h59l-22 -89h2q22 42 66.5 71t102.5 29q55 0 87.5 -28t36.5 -81q25 44 71 76.5t110 32.5q62 0 98 -32t36 -94q0 -40 -11 -89l-58 -272h-59l54 251q14 62 14 96q0 89 -92 89q-69 0 -113 -51.5t-58 -119.5l-56 -265h-59l54 252q14 62 14 95q0 89 -92 89
q-69 0 -112.5 -51.5t-57.5 -119.5l-57 -265h-59z" />
    <glyph glyph-name="n" unicode="n" horiz-adv-x="529" 
d="M27 0l101 476h58q-16 -71 -21 -89h2q23 42 67 71t104 29q62 0 99.5 -32.5t37.5 -98.5q0 -33 -9 -75l-60 -281h-59l59 273q9 45 9 71q0 93 -99 93q-70 0 -115 -52t-59 -120l-56 -265h-59z" />
    <glyph glyph-name="o" unicode="o" horiz-adv-x="523" 
d="M41 188q0 76 26.5 142.5t85 111.5t138.5 45q90 0 140 -54.5t50 -146.5q0 -56 -15.5 -108t-45 -95t-79.5 -69t-112 -26q-88 0 -138 54t-50 146zM286 437q-88 0 -138 -75t-50 -167q0 -74 36.5 -115.5t99.5 -41.5q61 0 105.5 38.5t64 93t19.5 113.5q0 72 -37 113t-100 41z
" />
    <glyph glyph-name="p" unicode="p" horiz-adv-x="546" 
d="M45 -190h-58l141 666h59l-21 -89h2q23 43 65.5 71.5t101.5 28.5q75 0 123 -52t48 -143q0 -123 -68 -213.5t-178 -90.5q-66 0 -104.5 34t-47.5 84q-2 0 -32 -150zM316 438q-60 0 -104 -41.5t-63 -97t-19 -112.5q0 -71 32 -111t95 -40q85 0 137 77t52 169q0 69 -33.5 112.5
t-96.5 43.5z" />
    <glyph glyph-name="q" unicode="q" horiz-adv-x="547" 
d="M377 -190h-59l39 182q18 85 22 91h-2q-24 -42 -66.5 -69t-99.5 -27q-75 0 -123 50.5t-48 141.5q0 124 67 216t178 92q65 0 103 -34.5t50 -86.5h2l21 110h59zM230 35q58 0 102 41t63.5 97t19.5 113q0 70 -33 110t-95 40q-57 0 -101.5 -38.5t-65.5 -93.5t-21 -114
q0 -71 33.5 -113t97.5 -42z" />
    <glyph glyph-name="r" unicode="r" horiz-adv-x="326" 
d="M359 484l-13 -58q-15 3 -30 3q-69 0 -114.5 -52t-63.5 -133l-52 -244h-59l102 476h58l-26 -108h2q15 48 61.5 83.5t104.5 35.5q13 0 30 -3z" />
    <glyph glyph-name="s" unicode="s" horiz-adv-x="445" 
d="M412 395l-42 -33q-48 76 -138 76q-47 0 -77 -21t-30 -58q0 -32 19.5 -49t63.5 -33l61 -22q28 -10 43.5 -17.5t35.5 -22t29.5 -35t9.5 -48.5q0 -66 -47 -105t-131 -39q-77 0 -126.5 33.5t-68.5 87.5l44 30q15 -46 54.5 -73.5t97.5 -27.5q59 0 90 24t31 65q0 31 -22 48
t-68 34l-65 23q-24 9 -39 16t-33 21t-27 35.5t-9 49.5q0 61 46.5 97t119.5 36q124 0 178 -92z" />
    <glyph glyph-name="t" unicode="t" horiz-adv-x="315" 
d="M54 430l9 46h97l37 177l62 13l-41 -190h117l-10 -46h-118l-67 -319q-5 -25 -5 -36q0 -20 11 -28.5t37 -8.5q33 0 67 14l-10 -51q-36 -12 -76 -12q-91 0 -91 63q0 17 9 58l67 320h-95z" />
    <glyph glyph-name="u" unicode="u" horiz-adv-x="525" 
d="M63 202l58 274h58l-54 -254q-13 -58 -13 -95q0 -40 23 -64.5t73 -24.5q71 0 115.5 52t58.5 119l56 267h59l-101 -476h-58l21 88h-2q-22 -42 -66 -70.5t-105 -28.5q-62 0 -98 30.5t-36 91.5q0 41 11 91z" />
    <glyph glyph-name="v" unicode="v" horiz-adv-x="440" 
d="M472 476l-276 -476h-56l-69 476h60l31 -233q17 -147 21 -171q7 10 20.5 35t32.5 61t33 60l138 248h65z" />
    <glyph glyph-name="w" unicode="w" horiz-adv-x="682" 
d="M417 476l18 -249q10 -150 10 -153h1q29 71 67 138l137 264h60l-252 -476h-56l-21 274q-6 61 -6 127h-1q0 -1 -22.5 -52.5t-38.5 -81.5l-131 -267h-59l-52 476h59l28 -274q4 -32 7 -77t4 -53h1q16 38 59 126l135 278h53z" />
    <glyph glyph-name="x" unicode="x" horiz-adv-x="434" 
d="M250 244l120 -244h-64l-96 203l-179 -203h-69l225 250l-108 226h62l86 -187l162 187h69z" />
    <glyph glyph-name="y" unicode="y" horiz-adv-x="438" 
d="M469 476l-330 -575q-29 -50 -61 -74.5t-82 -24.5q-25 0 -53 10l11 51q17 -11 43 -11q20 0 36.5 7.5t32 26t23.5 30.5t24 40q5 8 7 12l19 33l-69 475h60l25 -191q25 -189 28 -216q26 58 93 171l131 236h62z" />
    <glyph glyph-name="z" unicode="z" horiz-adv-x="424" 
d="M355 50l-10 -50h-365l10 44l362 383h-274l9 49h350l-10 -46l-362 -380h290z" />
    <glyph glyph-name="braceleft" unicode="{" horiz-adv-x="270" 
d="M96 283q48 -25 48 -85q0 -26 -6 -56l-34 -161q-9 -41 -9 -55q0 -22 14.5 -31.5t50.5 -9.5h6l-9 -43h-5q-65 0 -92 17.5t-27 57.5q0 21 16 93l25 111q13 51 13 85q0 47 -50 62l10 40q48 6 64 30t31 102l24 122q14 72 38 95t76 23h51l-9 -43h-26q-36 0 -49 -19t-26 -80
l-23 -114q-14 -71 -31.5 -99.5t-70.5 -41.5z" />
    <glyph glyph-name="bar" unicode="|" horiz-adv-x="233" 
d="M238 680l-178 -838h-56l178 838h56z" />
    <glyph glyph-name="braceright" unicode="}" horiz-adv-x="270" 
d="M188 259q-49 26 -49 86q0 24 6 54l30 142q9 41 9 55q0 22 -14.5 31.5t-50.5 9.5h-6l9 43h25q55 0 77.5 -16.5t22.5 -54.5q0 -23 -17 -97l-21 -92q-13 -51 -13 -85q0 -47 50 -62l-10 -40q-48 -6 -64 -30t-31 -102l-28 -142q-14 -71 -40.5 -94t-83.5 -23h-41l9 42h26
q36 0 49 19t26 80l27 134q14 71 32 100t71 42z" />
    <glyph glyph-name="asciitilde" unicode="~" 
d="M511 342l31 -38q-55 -68 -130 -68q-46 0 -96 26l-28 14q-62 30 -93 30q-43 0 -94 -61l-31 36q15 28 50.5 53t78.5 25q37 0 88 -24l38 -19q56 -28 88 -28q52 0 98 54z" />
    <glyph glyph-name="nbspace" unicode="&#xa0;" horiz-adv-x="240" 
 />
    <glyph glyph-name="exclamdown" unicode="&#xa1;" horiz-adv-x="221" 
d="M57 128l45 172h43l-29 -172l-70 -332h-59zM169 362h-67l25 114h67z" />
    <glyph glyph-name="cent" unicode="&#xa2;" 
d="M207 -113l22 106q-66 14 -101.5 64t-35.5 131q0 119 65.5 208t176.5 91l20 93h50l-21 -97q110 -22 135 -136l-52 -20q-18 88 -93 107l-85 -398q100 4 150 107l46 -26q-65 -129 -206 -129l-21 -101h-50zM148 195q0 -62 24.5 -101t67.5 -52l84 397q-82 -6 -129 -80
t-47 -164z" />
    <glyph glyph-name="sterling" unicode="&#xa3;" 
d="M590 522l-54 -13q0 57 -28 94t-89 37q-38 0 -65.5 -15t-44 -38t-27.5 -61.5t-16 -73.5t-9 -86h155l-13 -53h-148q-14 -110 -37 -170.5t-75 -88.5v-2q2 0 24.5 1t50.5 1h265l-12 -54h-451l10 46q86 15 120.5 80t45.5 187h-106l12 53h101l1 13q12 147 53 216q57 96 169 96
q84 0 126 -46t42 -116v-7z" />
    <glyph glyph-name="currency" unicode="&#xa4;" horiz-adv-x="578" 
d="M106 290q0 62 38 117l-65 64l41 40l64 -64q52 37 116 37q63 0 116 -37l63 63l41 -40l-62 -63q37 -56 37 -117q0 -64 -36 -117l62 -62l-42 -40l-62 62q-53 -37 -117 -37q-60 0 -116 37l-63 -63l-42 40l65 65q-38 53 -38 115zM158 290q0 -60 41 -102.5t101 -42.5
q62 0 103 42t41 103t-41 103t-103 42q-60 0 -101 -42.5t-41 -102.5z" />
    <glyph glyph-name="yen" unicode="&#xa5;" 
d="M268 287h-194l10 51h168l-142 342h63l139 -339l278 339h71l-290 -342h179l-11 -51h-211l-17 -87h210l-12 -51h-209l-31 -149h-61l31 149h-195l11 51h195z" />
    <glyph glyph-name="brokenbar" unicode="&#xa6;" horiz-adv-x="233" 
d="M240 680l-69 -324h-59l69 324h59zM130 166l-69 -324h-58l68 324h59z" />
    <glyph glyph-name="section" unicode="&#xa7;" horiz-adv-x="483" 
d="M216 219l57 -32q51 8 83.5 38t32.5 71q0 64 -94 111l-45 23q-57 -2 -95 -28.5t-38 -70.5q0 -20 7 -36.5t23 -30.5t30 -22.5t39 -22.5zM227 149l-43 24q-65 35 -94.5 66.5t-29.5 85.5q0 57 41.5 94.5t102.5 43.5q-51 35 -51 94q0 61 46 97t116 36q64 0 110.5 -29t67.5 -78
l-42 -30q-16 42 -52.5 65t-84.5 23q-49 0 -77.5 -22.5t-28.5 -57.5q0 -17 4.5 -29t20 -24.5t23.5 -17.5t36 -21l37 -21q38 -21 58.5 -35t39.5 -43t19 -66q0 -59 -39 -96.5t-90 -51.5q63 -44 63 -102q0 -62 -49 -101.5t-126 -39.5q-76 0 -126 35t-65 89l43 30
q13 -46 53.5 -75.5t96.5 -29.5q54 0 85.5 24t31.5 63q0 8 -1.5 15.5t-6 14.5t-7.5 12.5t-11 12t-12 10t-14.5 10t-14 8.5t-15.5 9t-15 8z" />
    <glyph glyph-name="dieresis" unicode="&#xa8;" horiz-adv-x="450" 
d="M144 560l20 91h62l-20 -91h-62zM331 560l20 91h62l-20 -91h-62z" />
    <glyph glyph-name="copyright" unicode="&#xa9;" horiz-adv-x="805" 
d="M584 441l-49 -29q-28 88 -111 88q-55 0 -89 -43.5t-34 -118.5q0 -74 34 -116t89 -42q81 0 114 75l46 -29q-51 -99 -160 -99q-84 0 -132 56.5t-48 153.5t48.5 155t131.5 58q117 0 160 -109zM774 340q0 -149 -101 -250.5t-249 -101.5t-249 101.5t-101 250.5t101 250.5
t249 101.5t249 -101.5t101 -250.5zM716 340q0 124 -84.5 212.5t-207.5 88.5t-207.5 -88.5t-84.5 -212.5q0 -125 84.5 -213t207.5 -88t207.5 88t84.5 213z" />
    <glyph glyph-name="ordfeminine" unicode="&#xaa;" horiz-adv-x="373" 
d="M265 685q102 0 102 -71q0 -13 -11 -68l-21 -98q-2 -14 -2 -16q0 -16 16 -16q10 0 13 1l-7 -33q-13 -4 -31 -4q-42 0 -42 28l2 10q-32 -41 -97 -41q-43 0 -67 20.5t-24 58.5q0 52 48 75q27 13 86 23l39 7q25 3 37.5 12.5t12.5 31.5q0 41 -60 41q-69 0 -81 -63l-46 4
q4 44 38 71t95 27zM202 414q78 0 95 79l9 43q-6 -6 -38 -11l-45 -8q-18 -4 -26.5 -7t-22.5 -9.5t-20 -16.5t-6 -25q0 -45 54 -45z" />
    <glyph glyph-name="guillemotleft" unicode="&#xab;" horiz-adv-x="405" 
d="M38 231l12 57l172 138l-18 -74l-122 -96l78 -120l-15 -69zM200 231l12 57l172 138l-18 -74l-122 -96l78 -120l-15 -69z" />
    <glyph glyph-name="logicalnot" unicode="&#xac;" 
d="M500 462v-233h-59v180h-337v53h396z" />
    <glyph glyph-name="uni00AD" unicode="&#xad;" horiz-adv-x="409" 
d="M355 298l-13 -59h-277l13 59h277z" />
    <glyph glyph-name="registered" unicode="&#xae;" horiz-adv-x="805" 
d="M338 312v-167h-51v398h163q66 0 103 -26q43 -31 43 -88q0 -49 -31.5 -79t-75.5 -37l120 -168h-65l-121 167h-85zM338 361h99q48 0 69 10q34 15 34 58q0 41 -34 56q-21 9 -69 9h-99v-133zM774 340q0 -149 -101 -250.5t-249 -101.5t-249 101.5t-101 250.5t101 250.5
t249 101.5t249 -101.5t101 -250.5zM716 340q0 124 -84.5 212.5t-207.5 88.5t-207.5 -88.5t-84.5 -212.5q0 -125 84.5 -213t207.5 -88t207.5 88t84.5 213z" />
    <glyph glyph-name="macron" unicode="&#xaf;" horiz-adv-x="450" 
d="M94 579l11 51h250l-11 -51h-250z" />
    <glyph glyph-name="degree" unicode="&#xb0;" horiz-adv-x="387" 
d="M104 542q0 62 44 106t106 44t106 -44t44 -106t-44 -106t-106 -44t-106 44t-44 106zM162 542q0 -42 25.5 -68.5t66.5 -26.5t66.5 26.5t25.5 68.5t-25.5 68.5t-66.5 26.5t-66.5 -26.5t-25.5 -68.5z" />
    <glyph glyph-name="plusminus" unicode="&#xb1;" 
d="M567 143v-57h-526v57h526zM333 405v-219h-57v219h-235v56h235v218h57v-218h234v-56h-234z" />
    <glyph glyph-name="twosuperior" unicode="&#xb2;" horiz-adv-x="346" 
d="M174 630l-47 11q-3 18 -3 35q0 58 39.5 97.5t106.5 39.5q63 0 99 -32t36 -87q0 -19 -6 -39t-13.5 -36t-23.5 -34.5t-27 -31t-33 -30t-33.5 -26t-35.5 -24t-31.5 -20t-31.5 -17.5l-23 -14q5 0 37.5 0.5t60.5 0.5h116l-8 -39h-289l7 34q89 47 173 112q115 82 115 161
q0 38 -24.5 61t-66.5 23q-47 0 -74 -29.5t-27 -73.5q0 -21 7 -42z" />
    <glyph glyph-name="threesuperior" unicode="&#xb3;" horiz-adv-x="351" 
d="M167 689l-39 12q7 46 43.5 78.5t98.5 32.5q61 0 94 -29t33 -73q0 -83 -91 -105q71 -34 71 -100q0 -55 -38.5 -91.5t-113.5 -36.5q-68 0 -104.5 33.5t-39.5 92.5l40 12q8 -101 105 -101q51 0 79.5 25t28.5 67q0 83 -128 83h-21l5 34h43q121 0 121 83q0 29 -23.5 48
t-63.5 19q-41 0 -68 -22t-32 -62z" />
    <glyph glyph-name="acute" unicode="&#xb4;" horiz-adv-x="450" 
d="M183 552h-52l95 128h73z" />
    <glyph glyph-name="mu" unicode="&#xb5;" horiz-adv-x="535" 
d="M48 -190h-58l142 666h57l-56 -265q-11 -46 -11 -80q0 -91 93 -91q66 0 111.5 49t61.5 118l57 269h58l-101 -476h-57l19 82h-3q-22 -39 -64 -65.5t-100 -26.5q-81 0 -99 58z" />
    <glyph glyph-name="paragraph" unicode="&#xb6;" horiz-adv-x="594" 
d="M226 -128h-49l97 456h-16q-77 0 -125.5 39.5t-48.5 114.5q0 91 58 143q34 29 82.5 42t139.5 13h285l-9 -46h-85l-162 -762h-48l163 762h-119z" />
    <glyph glyph-name="periodcentered" unicode="&#xb7;" horiz-adv-x="209" 
d="M84 324h77l-25 -114h-77z" />
    <glyph glyph-name="cedilla" unicode="&#xb8;" horiz-adv-x="447" 
d="M182 7h38l-59 -51l1 -2q10 3 21 3q36 0 56.5 -19t20.5 -54q0 -41 -29.5 -61.5t-67.5 -20.5h-4q-26 0 -49 9l10 30q24 -8 41 -8q59 0 59 48q0 23 -17 33.5t-38 10.5q-19 0 -37 -8l-17 25z" />
    <glyph glyph-name="onesuperior" unicode="&#xb9;" horiz-adv-x="222" 
d="M288 805l-89 -421h-45l67 316q-25 -20 -79 -20h-33l6 37h20q51 0 77 21.5t36 66.5h40z" />
    <glyph glyph-name="ordmasculine" unicode="&#xba;" horiz-adv-x="371" 
d="M104 502q0 75 42.5 129.5t120.5 54.5q57 0 88 -34.5t31 -92.5q0 -73 -41.5 -127.5t-119.5 -54.5q-56 0 -88.5 33.5t-32.5 91.5zM231 420q50 0 77.5 42.5t27.5 96.5q0 41 -20 63t-56 22q-50 0 -78 -43t-28 -96q0 -41 20.5 -63t56.5 -22z" />
    <glyph glyph-name="guillemotright" unicode="&#xbb;" horiz-adv-x="407" 
d="M206 245l-13 -57l-171 -140l17 75l124 100l-79 117l14 67zM368 245l-13 -57l-171 -140l17 75l124 100l-79 117l14 67z" />
    <glyph glyph-name="onequarter" unicode="&#xbc;" horiz-adv-x="823" 
d="M682 109l-22 -109h-43l23 109h-199l7 31l261 284h41l-60 -276h83l-8 -39h-83zM647 148l46 204l-183 -204h137zM274 679l-89 -421h-45l67 316q-25 -20 -79 -20h-33l6 37h20q51 0 77 21.5t36 66.5h40zM637 680h47l-485 -680h-47z" />
    <glyph glyph-name="onehalf" unicode="&#xbd;" horiz-adv-x="866" 
d="M274 679l-89 -421h-45l67 316q-25 -20 -79 -20h-33l6 37h20q51 0 77 21.5t36 66.5h40zM599 246l-47 11q-3 18 -3 35q0 58 39.5 97.5t106.5 39.5q63 0 99 -32t36 -87q0 -19 -6 -39t-13.5 -36t-23.5 -34.5t-27 -31t-33 -30t-33.5 -26t-35.5 -24t-31.5 -20t-30.5 -17.5
l-24 -14q5 0 37.5 0.5t60.5 0.5h116l-8 -39h-289l7 34q89 47 173 112q115 82 115 161q0 38 -24.5 61t-66.5 23q-47 0 -74 -29.5t-27 -73.5q0 -21 7 -42zM637 680h47l-485 -680h-47z" />
    <glyph glyph-name="threequarters" unicode="&#xbe;" horiz-adv-x="905" 
d="M153 564l-39 12q7 46 43.5 78.5t98.5 32.5q61 0 94 -29t33 -73q0 -83 -91 -105q71 -34 71 -100q0 -55 -38.5 -91.5t-113.5 -36.5q-68 0 -104.5 33.5t-39.5 92.5l40 12q8 -101 105 -101q51 0 79.5 25t28.5 67q0 83 -128 83h-21l5 34h43q121 0 121 83q0 29 -23.5 48
t-63.5 19q-41 0 -68 -22t-32 -62zM766 109l-22 -109h-43l23 109h-199l7 31l261 284h41l-60 -276h83l-8 -39h-83zM731 148l46 204l-183 -204h137zM721 680h47l-485 -680h-47z" />
    <glyph glyph-name="questiondown" unicode="&#xbf;" horiz-adv-x="460" 
d="M311 50l59 -12q5 -25 5 -44q0 -88 -57 -147.5t-157 -59.5q-90 0 -139.5 45.5t-49.5 117.5q0 104 103 181l49 36q58 44 79.5 74.5t31.5 85.5h60q-16 -74 -39 -109.5t-88 -82.5l-51 -37q-86 -61 -86 -143q0 -52 36 -84.5t100 -32.5q71 0 111.5 46.5t40.5 113.5q0 23 -8 52z
M302 372h-62l22 104h63z" />
    <glyph glyph-name="Agrave" unicode="&#xc0;" horiz-adv-x="584" 
d="M137 198l-113 -198h-63l390 680h67l105 -680h-60l-29 198h-297zM427 251l-23 163q-22 141 -30 209h-2q-7 -13 -103 -189l-102 -183h260zM414 752h-51l-115 128h75z" />
    <glyph glyph-name="Aacute" unicode="&#xc1;" horiz-adv-x="584" 
d="M137 198l-113 -198h-63l390 680h67l105 -680h-60l-29 198h-297zM427 251l-23 163q-22 141 -30 209h-2q-7 -13 -103 -189l-102 -183h260zM417 752h-51l91 128h75z" />
    <glyph glyph-name="Acircumflex" unicode="&#xc2;" horiz-adv-x="584" 
d="M137 198l-113 -198h-63l390 680h67l105 -680h-60l-29 198h-297zM427 251l-23 163q-22 141 -30 209h-2q-7 -13 -103 -189l-102 -183h260zM516 751h-50l-63 83l-93 -83h-58l132 128h50z" />
    <glyph glyph-name="Atilde" unicode="&#xc3;" horiz-adv-x="584" 
d="M137 198l-113 -198h-63l390 680h67l105 -680h-60l-29 198h-297zM427 251l-23 163q-22 141 -30 209h-2q-7 -13 -103 -189l-102 -183h260zM296 769l-37 14q7 30 27 52t52 22q18 0 50 -16l19 -10q28 -15 47 -15q29 0 42 39l38 -14q-22 -69 -80 -69q-28 0 -54 14l-14 7
q-33 18 -49 18q-27 0 -41 -42z" />
    <glyph glyph-name="Adieresis" unicode="&#xc4;" horiz-adv-x="584" 
d="M137 198l-113 -198h-63l390 680h67l105 -680h-60l-29 198h-297zM427 251l-23 163q-22 141 -30 209h-2q-7 -13 -103 -189l-102 -183h260zM267 762l20 91h62l-20 -91h-62zM454 762l20 91h62l-20 -91h-62z" />
    <glyph glyph-name="Aring" unicode="&#xc5;" horiz-adv-x="584" 
d="M137 198l-113 -198h-63l390 680h67l105 -680h-60l-29 198h-297zM427 251l-23 163q-22 141 -30 209h-2q-7 -13 -103 -189l-102 -183h260zM316 807q0 34 24 57.5t58 23.5t58 -23.5t24 -57.5t-24 -57.5t-58 -23.5t-58 23.5t-24 57.5zM354 807q0 -18 13 -30.5t30 -12.5
t30 12.5t13 30.5t-13 30.5t-30 12.5t-30 -12.5t-13 -30.5z" />
    <glyph glyph-name="AE" unicode="&#xc6;" horiz-adv-x="887" 
d="M362 0l43 201h-240l-156 -201h-69l530 680h454l-11 -55h-359l-53 -246h325l-11 -55h-325l-57 -270h380l-11 -54h-440zM416 254l81 377h-2q-7 -9 -32.5 -44t-49.5 -67.5t-40 -51.5l-167 -214h210z" />
    <glyph glyph-name="Ccedilla" unicode="&#xc7;" horiz-adv-x="643" 
d="M556 192l49 -28q-41 -80 -112 -127.5t-166 -48.5l-37 -32l1 -2q11 3 21 3q36 0 56.5 -19t20.5 -54q0 -41 -29.5 -61.5t-67.5 -20.5h-4q-26 0 -49 9l10 30q24 -8 41 -8q59 0 59 48q0 23 -17 33.5t-38 10.5q-19 0 -37 -8l-17 25l52 48q-108 10 -166.5 85t-58.5 198
q0 108 38.5 201.5t119 155.5t187.5 62q95 0 159.5 -49.5t83.5 -132.5l-54 -27q-14 72 -64 113.5t-128 41.5q-68 0 -123 -32t-88.5 -84.5t-51 -114.5t-17.5 -127q0 -113 52.5 -175.5t150.5 -62.5q78 0 135 41t89 109z" />
    <glyph glyph-name="Egrave" unicode="&#xc8;" horiz-adv-x="586" 
d="M611 625h-380l-52 -246h344l-11 -55h-345l-57 -270h402l-11 -54h-463l144 680h441zM445 752h-51l-115 128h75z" />
    <glyph glyph-name="Eacute" unicode="&#xc9;" horiz-adv-x="586" 
d="M611 625h-380l-52 -246h344l-11 -55h-345l-57 -270h402l-11 -54h-463l144 680h441zM404 752h-51l91 128h75z" />
    <glyph glyph-name="Ecircumflex" unicode="&#xca;" horiz-adv-x="586" 
d="M611 625h-380l-52 -246h344l-11 -55h-345l-57 -270h402l-11 -54h-463l144 680h441zM534 751h-50l-63 83l-93 -83h-58l132 128h50z" />
    <glyph glyph-name="Edieresis" unicode="&#xcb;" horiz-adv-x="586" 
d="M611 625h-380l-52 -246h344l-11 -55h-345l-57 -270h402l-11 -54h-463l144 680h441zM279 762l20 91h62l-20 -91h-62zM466 762l20 91h62l-20 -91h-62z" />
    <glyph glyph-name="Igrave" unicode="&#xcc;" horiz-adv-x="238" 
d="M182 680h61l-145 -680h-60zM252 752h-51l-115 128h75z" />
    <glyph glyph-name="Iacute" unicode="&#xcd;" horiz-adv-x="238" 
d="M182 680h61l-145 -680h-60zM251 752h-51l91 128h75z" />
    <glyph glyph-name="Icircumflex" unicode="&#xce;" horiz-adv-x="238" 
d="M182 680h61l-145 -680h-60zM351 751h-50l-63 83l-93 -83h-58l132 128h50z" />
    <glyph glyph-name="Idieresis" unicode="&#xcf;" horiz-adv-x="238" 
d="M182 680h61l-145 -680h-60zM100 762l20 91h62l-20 -91h-62zM287 762l20 91h62l-20 -91h-62z" />
    <glyph glyph-name="Eth" unicode="&#xd0;" horiz-adv-x="692" 
d="M31 337l11 53h92l62 290h148q163 0 244.5 -58.5t81.5 -194.5q0 -85 -27 -170.5t-76 -144.5q-57 -68 -126.5 -90t-179.5 -22h-209l71 337h-92zM245 624l-50 -234h216l-11 -53h-217l-60 -284h154q71 0 117.5 12.5t87.5 44.5q61 48 94 138t33 175q0 61 -20 102t-58 61.5
t-82.5 29t-104.5 8.5h-99z" />
    <glyph glyph-name="Ntilde" unicode="&#xd1;" horiz-adv-x="692" 
d="M553 0h-68l-199 449q-41 91 -64 151h-1q-8 -65 -28 -150l-95 -450h-60l144 680h67l184 -417l79 -176h1q12 74 30 153l93 440h61zM355 769l-37 14q7 30 27 52t52 22q18 0 50 -16l19 -10q28 -15 47 -15q29 0 42 39l38 -14q-22 -69 -80 -69q-28 0 -54 14l-14 7
q-33 18 -49 18q-27 0 -41 -42z" />
    <glyph glyph-name="Ograve" unicode="&#xd2;" horiz-adv-x="701" 
d="M67 272q0 80 23 154.5t65 134.5t109.5 95.5t150.5 35.5q122 0 192 -74.5t70 -203.5q0 -109 -38 -204t-119.5 -158.5t-192.5 -63.5q-124 0 -192 76t-68 208zM410 638q-69 0 -124.5 -32.5t-88.5 -85t-50.5 -115.5t-17.5 -128q0 -110 52.5 -173t150.5 -63q89 0 155.5 57.5
t97 139t30.5 169.5q0 108 -53 169.5t-152 61.5zM468 752h-51l-115 128h75z" />
    <glyph glyph-name="Oacute" unicode="&#xd3;" horiz-adv-x="701" 
d="M67 272q0 80 23 154.5t65 134.5t109.5 95.5t150.5 35.5q122 0 192 -74.5t70 -203.5q0 -109 -38 -204t-119.5 -158.5t-192.5 -63.5q-124 0 -192 76t-68 208zM410 638q-69 0 -124.5 -32.5t-88.5 -85t-50.5 -115.5t-17.5 -128q0 -110 52.5 -173t150.5 -63q89 0 155.5 57.5
t97 139t30.5 169.5q0 108 -53 169.5t-152 61.5zM451 752h-51l91 128h75z" />
    <glyph glyph-name="Ocircumflex" unicode="&#xd4;" horiz-adv-x="701" 
d="M67 272q0 80 23 154.5t65 134.5t109.5 95.5t150.5 35.5q122 0 192 -74.5t70 -203.5q0 -109 -38 -204t-119.5 -158.5t-192.5 -63.5q-124 0 -192 76t-68 208zM410 638q-69 0 -124.5 -32.5t-88.5 -85t-50.5 -115.5t-17.5 -128q0 -110 52.5 -173t150.5 -63q89 0 155.5 57.5
t97 139t30.5 169.5q0 108 -53 169.5t-152 61.5zM564 751h-50l-63 83l-93 -83h-58l132 128h50z" />
    <glyph glyph-name="Otilde" unicode="&#xd5;" horiz-adv-x="701" 
d="M67 272q0 80 23 154.5t65 134.5t109.5 95.5t150.5 35.5q122 0 192 -74.5t70 -203.5q0 -109 -38 -204t-119.5 -158.5t-192.5 -63.5q-124 0 -192 76t-68 208zM410 638q-69 0 -124.5 -32.5t-88.5 -85t-50.5 -115.5t-17.5 -128q0 -110 52.5 -173t150.5 -63q89 0 155.5 57.5
t97 139t30.5 169.5q0 108 -53 169.5t-152 61.5zM341 769l-37 14q7 30 27 52t52 22q18 0 50 -16l19 -10q28 -15 47 -15q29 0 42 39l38 -14q-22 -69 -80 -69q-28 0 -54 14l-14 7q-33 18 -49 18q-27 0 -41 -42z" />
    <glyph glyph-name="Odieresis" unicode="&#xd6;" horiz-adv-x="701" 
d="M67 272q0 80 23 154.5t65 134.5t109.5 95.5t150.5 35.5q122 0 192 -74.5t70 -203.5q0 -109 -38 -204t-119.5 -158.5t-192.5 -63.5q-124 0 -192 76t-68 208zM410 638q-69 0 -124.5 -32.5t-88.5 -85t-50.5 -115.5t-17.5 -128q0 -110 52.5 -173t150.5 -63q89 0 155.5 57.5
t97 139t30.5 169.5q0 108 -53 169.5t-152 61.5zM317 762l20 91h62l-20 -91h-62zM504 762l20 91h62l-20 -91h-62z" />
    <glyph glyph-name="multiply" unicode="&#xd7;" 
d="M550 531l-194 -194l194 -194l-40 -40l-194 194l-194 -194l-40 40l194 194l-194 194l40 40l194 -194l194 194z" />
    <glyph glyph-name="Oslash" unicode="&#xd8;" horiz-adv-x="722" 
d="M789 634l-124 -102q19 -55 19 -118q0 -109 -38 -204t-119.5 -158.5t-192.5 -63.5q-143 0 -210 99l-103 -85l-32 45l108 89q-23 61 -23 136q0 80 23 154.5t65 134.5t109.5 95.5t150.5 35.5q149 0 218 -108l114 94zM417 638q-69 0 -125 -32.5t-89 -85t-50.5 -115.5
t-17.5 -128q0 -59 13 -99l444 366q-52 94 -175 94zM623 407q0 48 -10 82l-442 -363q54 -85 168 -85q89 0 156 57.5t97.5 139t30.5 169.5z" />
    <glyph glyph-name="Ugrave" unicode="&#xd9;" horiz-adv-x="677" 
d="M303 -12q-107 0 -166.5 49t-59.5 139q0 37 13 99l86 405h61l-87 -407q-12 -60 -12 -88q0 -72 45 -108t128 -36q100 0 150 45t77 170l90 424h61l-91 -425q-32 -151 -96.5 -209t-198.5 -58zM481 752h-51l-115 128h75z" />
    <glyph glyph-name="Uacute" unicode="&#xda;" horiz-adv-x="677" 
d="M303 -12q-107 0 -166.5 49t-59.5 139q0 37 13 99l86 405h61l-87 -407q-12 -60 -12 -88q0 -72 45 -108t128 -36q100 0 150 45t77 170l90 424h61l-91 -425q-32 -151 -96.5 -209t-198.5 -58zM435 752h-51l91 128h75z" />
    <glyph glyph-name="Ucircumflex" unicode="&#xdb;" horiz-adv-x="677" 
d="M303 -12q-107 0 -166.5 49t-59.5 139q0 37 13 99l86 405h61l-87 -407q-12 -60 -12 -88q0 -72 45 -108t128 -36q100 0 150 45t77 170l90 424h61l-91 -425q-32 -151 -96.5 -209t-198.5 -58zM563 751h-50l-63 83l-93 -83h-58l132 128h50z" />
    <glyph glyph-name="Udieresis" unicode="&#xdc;" horiz-adv-x="677" 
d="M303 -12q-107 0 -166.5 49t-59.5 139q0 37 13 99l86 405h61l-87 -407q-12 -60 -12 -88q0 -72 45 -108t128 -36q100 0 150 45t77 170l90 424h61l-91 -425q-32 -151 -96.5 -209t-198.5 -58zM306 762l20 91h62l-20 -91h-62zM493 762l20 91h62l-20 -91h-62z" />
    <glyph glyph-name="Yacute" unicode="&#xdd;" horiz-adv-x="572" 
d="M265 0h-61l60 284l-159 396h62l139 -341l282 341h70l-334 -399zM400 752h-51l91 128h75z" />
    <glyph glyph-name="Thorn" unicode="&#xde;" horiz-adv-x="631" 
d="M242 680l-25 -115h191q99 0 151 -28q72 -40 72 -123q0 -133 -105 -190q-55 -29 -166 -29h-221l-41 -195h-60l144 680h60zM404 510h-198l-55 -259h215q99 0 141 29q63 43 63 129q0 64 -68 90q-33 11 -98 11z" />
    <glyph glyph-name="germandbls" unicode="&#xdf;" horiz-adv-x="484" 
d="M467 557q0 -71 -38 -112.5t-88 -45.5v-2q44 -9 69.5 -33.5t25.5 -79.5q0 -41 -15 -105q-26 -102 -67 -143.5t-110 -41.5q-100 0 -100 83q0 26 12 76l10 41h45l-10 -43q-9 -39 -9 -58q0 -53 58 -53q49 0 73.5 37.5t42.5 114.5q12 53 12 87q0 52 -32 73t-102 21h-42l10 47
h42q74 0 115 33t41 99q0 40 -24 64t-69 24q-56 0 -86 -39q-11 -15 -20.5 -39.5t-13.5 -42.5t-13 -58l-98 -461h-59l104 492q21 99 58 143q46 54 132 54q71 0 108.5 -34.5t37.5 -97.5z" />
    <glyph glyph-name="agrave" unicode="&#xe0;" horiz-adv-x="488" 
d="M281 485q71 0 114 -26.5t43 -83.5q0 -22 -9 -69l-44 -208q-4 -20 -4 -32q0 -32 38 -32q12 0 24 3l-8 -42q-9 -4 -36 -4q-72 0 -72 61q0 9 1 16h-2q-22 -34 -66.5 -57t-98.5 -23q-67 0 -106.5 33t-39.5 92q0 34 13.5 60t32 41t50.5 27t56.5 17t62.5 11l37 6q33 5 49.5 9
t34.5 13.5t25 26t7 42.5q0 73 -105 73q-65 0 -101 -26.5t-48 -81.5l-53 9q30 145 205 145zM174 32q62 0 109.5 37t61.5 103l19 89q-19 -14 -101 -29l-31 -5q-81 -15 -119 -39t-38 -73q0 -41 26.5 -62t72.5 -21zM335 552h-52l-120 128h74z" />
    <glyph glyph-name="aacute" unicode="&#xe1;" horiz-adv-x="488" 
d="M281 485q71 0 114 -26.5t43 -83.5q0 -22 -9 -69l-44 -208q-4 -20 -4 -32q0 -32 38 -32q12 0 24 3l-8 -42q-9 -4 -36 -4q-72 0 -72 61q0 9 1 16h-2q-22 -34 -66.5 -57t-98.5 -23q-67 0 -106.5 33t-39.5 92q0 34 13.5 60t32 41t50.5 27t56.5 17t62.5 11l37 6q33 5 49.5 9
t34.5 13.5t25 26t7 42.5q0 73 -105 73q-65 0 -101 -26.5t-48 -81.5l-53 9q30 145 205 145zM174 32q62 0 109.5 37t61.5 103l19 89q-19 -14 -101 -29l-31 -5q-81 -15 -119 -39t-38 -73q0 -41 26.5 -62t72.5 -21zM315 552h-52l95 128h73z" />
    <glyph glyph-name="acircumflex" unicode="&#xe2;" horiz-adv-x="488" 
d="M281 485q71 0 114 -26.5t43 -83.5q0 -22 -9 -69l-44 -208q-4 -20 -4 -32q0 -32 38 -32q12 0 24 3l-8 -42q-9 -4 -36 -4q-72 0 -72 61q0 9 1 16h-2q-22 -34 -66.5 -57t-98.5 -23q-67 0 -106.5 33t-39.5 92q0 34 13.5 60t32 41t50.5 27t56.5 17t62.5 11l37 6q33 5 49.5 9
t34.5 13.5t25 26t7 42.5q0 73 -105 73q-65 0 -101 -26.5t-48 -81.5l-53 9q30 145 205 145zM174 32q62 0 109.5 37t61.5 103l19 89q-19 -14 -101 -29l-31 -5q-81 -15 -119 -39t-38 -73q0 -41 26.5 -62t72.5 -21zM424 552h-50l-63 83l-94 -83h-58l133 128h50z" />
    <glyph glyph-name="atilde" unicode="&#xe3;" horiz-adv-x="488" 
d="M281 485q71 0 114 -26.5t43 -83.5q0 -22 -9 -69l-44 -208q-4 -20 -4 -32q0 -32 38 -32q12 0 24 3l-8 -42q-9 -4 -36 -4q-72 0 -72 61q0 9 1 16h-2q-22 -34 -66.5 -57t-98.5 -23q-67 0 -106.5 33t-39.5 92q0 34 13.5 60t32 41t50.5 27t56.5 17t62.5 11l37 6q33 5 49.5 9
t34.5 13.5t25 26t7 42.5q0 73 -105 73q-65 0 -101 -26.5t-48 -81.5l-53 9q30 145 205 145zM174 32q62 0 109.5 37t61.5 103l19 89q-19 -14 -101 -29l-31 -5q-81 -15 -119 -39t-38 -73q0 -41 26.5 -62t72.5 -21zM203 562l-37 14q7 30 27 52t52 22q18 0 50 -16l19 -10
q28 -15 47 -15q29 0 42 39l38 -14q-22 -69 -80 -69q-28 0 -54 14l-14 7q-33 18 -49 18q-27 0 -41 -42z" />
    <glyph glyph-name="adieresis" unicode="&#xe4;" horiz-adv-x="488" 
d="M281 485q71 0 114 -26.5t43 -83.5q0 -22 -9 -69l-44 -208q-4 -20 -4 -32q0 -32 38 -32q12 0 24 3l-8 -42q-9 -4 -36 -4q-72 0 -72 61q0 9 1 16h-2q-22 -34 -66.5 -57t-98.5 -23q-67 0 -106.5 33t-39.5 92q0 34 13.5 60t32 41t50.5 27t56.5 17t62.5 11l37 6q33 5 49.5 9
t34.5 13.5t25 26t7 42.5q0 73 -105 73q-65 0 -101 -26.5t-48 -81.5l-53 9q30 145 205 145zM174 32q62 0 109.5 37t61.5 103l19 89q-19 -14 -101 -29l-31 -5q-81 -15 -119 -39t-38 -73q0 -41 26.5 -62t72.5 -21zM168 560l20 91h62l-20 -91h-62zM355 560l20 91h62l-20 -91h-62
z" />
    <glyph glyph-name="aring" unicode="&#xe5;" horiz-adv-x="488" 
d="M281 485q71 0 114 -26.5t43 -83.5q0 -22 -9 -69l-44 -208q-4 -20 -4 -32q0 -32 38 -32q12 0 24 3l-8 -42q-9 -4 -36 -4q-72 0 -72 61q0 9 1 16h-2q-22 -34 -66.5 -57t-98.5 -23q-67 0 -106.5 33t-39.5 92q0 34 13.5 60t32 41t50.5 27t56.5 17t62.5 11l37 6q33 5 49.5 9
t34.5 13.5t25 26t7 42.5q0 73 -105 73q-65 0 -101 -26.5t-48 -81.5l-53 9q30 145 205 145zM174 32q62 0 109.5 37t61.5 103l19 89q-19 -14 -101 -29l-31 -5q-81 -15 -119 -39t-38 -73q0 -41 26.5 -62t72.5 -21zM217 614q0 34 24 57.5t58 23.5t58 -23.5t24 -57.5t-24 -57.5
t-58 -23.5t-58 23.5t-24 57.5zM255 614q0 -18 13 -30.5t30 -12.5t30 12.5t13 30.5t-13 30.5t-30 12.5t-30 -12.5t-13 -30.5z" />
    <glyph glyph-name="ae" unicode="&#xe6;" horiz-adv-x="825" 
d="M780 232h-368q-2 -24 -2 -37q0 -74 35.5 -116t105.5 -42q114 0 168 105l42 -27q-30 -55 -83.5 -91t-129.5 -36q-140 0 -177 123h-2q-12 -20 -18 -29.5t-25.5 -30.5t-39 -32t-53 -21t-72.5 -10q-67 0 -106.5 33t-39.5 92q0 34 13.5 60t32 41t50.5 27t56.5 17t62.5 11l37 6
q33 5 49.5 9t34.5 13.5t25 26t7 42.5q0 73 -105 73q-65 0 -101 -26.5t-48 -81.5l-53 9q30 145 205 145q129 0 150 -82q68 84 173 84q90 0 135.5 -54.5t45.5 -141.5q0 -24 -5 -59zM174 32q62 0 109.5 37t61.5 103l19 89q-19 -14 -101 -29l-31 -5q-81 -15 -119 -39t-38 -73
q0 -41 26.5 -62t72.5 -21zM420 278h306q0 2 0.5 8t0.5 8q0 65 -31.5 105.5t-96.5 40.5q-72 0 -117.5 -46t-61.5 -116z" />
    <glyph glyph-name="ccedilla" unicode="&#xe7;" horiz-adv-x="483" 
d="M466 351l-52 -21q-22 108 -131 108q-86 0 -136 -75t-50 -168q0 -76 36.5 -117t98.5 -41q105 0 155 106l46 -26q-65 -129 -205 -129h-1l-37 -32l1 -2q11 3 21 3q36 0 56.5 -19t20.5 -54q0 -41 -29.5 -61.5t-67.5 -20.5h-4q-26 0 -49 9l10 30q24 -8 41 -8q59 0 59 48
q0 23 -17 33.5t-38 10.5q-19 0 -37 -8l-17 25l53 49q-72 10 -112 61.5t-40 135.5q0 121 66.5 210t180.5 89q72 0 117.5 -36.5t60.5 -99.5z" />
    <glyph glyph-name="egrave" unicode="&#xe8;" horiz-adv-x="512" 
d="M467 232h-368q-2 -24 -2 -37q0 -74 35.5 -116t105.5 -42q114 0 168 105l42 -27q-30 -55 -83.5 -91t-129.5 -36q-90 0 -142 52.5t-52 152.5q0 121 67 207.5t183 86.5q90 0 135.5 -54.5t45.5 -141.5q0 -24 -5 -59zM107 278h304q2 14 2 25q0 62 -33 99.5t-94 37.5
q-72 0 -117.5 -46t-61.5 -116zM335 552h-52l-120 128h74z" />
    <glyph glyph-name="eacute" unicode="&#xe9;" horiz-adv-x="512" 
d="M467 232h-368q-2 -24 -2 -37q0 -74 35.5 -116t105.5 -42q114 0 168 105l42 -27q-30 -55 -83.5 -91t-129.5 -36q-90 0 -142 52.5t-52 152.5q0 121 67 207.5t183 86.5q90 0 135.5 -54.5t45.5 -141.5q0 -24 -5 -59zM107 278h304q2 14 2 25q0 62 -33 99.5t-94 37.5
q-72 0 -117.5 -46t-61.5 -116zM310 552h-52l95 128h73z" />
    <glyph glyph-name="ecircumflex" unicode="&#xea;" horiz-adv-x="512" 
d="M467 232h-368q-2 -24 -2 -37q0 -74 35.5 -116t105.5 -42q114 0 168 105l42 -27q-30 -55 -83.5 -91t-129.5 -36q-90 0 -142 52.5t-52 152.5q0 121 67 207.5t183 86.5q90 0 135.5 -54.5t45.5 -141.5q0 -24 -5 -59zM107 278h304q2 14 2 25q0 62 -33 99.5t-94 37.5
q-72 0 -117.5 -46t-61.5 -116zM433 552h-50l-63 83l-94 -83h-58l133 128h50z" />
    <glyph glyph-name="edieresis" unicode="&#xeb;" horiz-adv-x="512" 
d="M467 232h-368q-2 -24 -2 -37q0 -74 35.5 -116t105.5 -42q114 0 168 105l42 -27q-30 -55 -83.5 -91t-129.5 -36q-90 0 -142 52.5t-52 152.5q0 121 67 207.5t183 86.5q90 0 135.5 -54.5t45.5 -141.5q0 -24 -5 -59zM107 278h304q2 14 2 25q0 62 -33 99.5t-94 37.5
q-72 0 -117.5 -46t-61.5 -116zM185 560l20 91h62l-20 -91h-62zM372 560l20 91h62l-20 -91h-62z" />
    <glyph glyph-name="igrave" unicode="&#xec;" horiz-adv-x="213" 
d="M185 476l-101 -476h-57l100 476h58zM193 552h-52l-120 128h74z" />
    <glyph glyph-name="iacute" unicode="&#xed;" horiz-adv-x="213" 
d="M185 476l-101 -476h-57l100 476h58zM196 552h-52l95 128h73z" />
    <glyph glyph-name="icircumflex" unicode="&#xee;" horiz-adv-x="213" 
d="M185 476l-101 -476h-57l100 476h58zM300 552h-50l-63 83l-94 -83h-58l133 128h50z" />
    <glyph glyph-name="idieresis" unicode="&#xef;" horiz-adv-x="213" 
d="M185 476l-101 -476h-57l100 476h58zM46 560l20 91h62l-20 -91h-62zM233 560l20 91h62l-20 -91h-62z" />
    <glyph glyph-name="eth" unicode="&#xf0;" horiz-adv-x="529" 
d="M435 363q0 116 -40 221l-153 -44l-13 43l145 44q-18 36 -44 74l47 25q25 -33 52 -85l111 34l12 -45l-105 -30q42 -124 42 -232q0 -73 -14 -138t-44 -120.5t-83 -88t-124 -32.5q-86 0 -134.5 51.5t-48.5 143.5q0 123 67 211.5t178 88.5q66 0 103 -35t46 -86zM286 437
q-86 0 -137 -76t-51 -171q0 -72 35.5 -113t95.5 -41q88 0 138 77t50 171q0 72 -35 112.5t-96 40.5z" />
    <glyph glyph-name="ntilde" unicode="&#xf1;" horiz-adv-x="529" 
d="M27 0l101 476h58q-16 -71 -21 -89h2q23 42 67 71t104 29q62 0 99.5 -32.5t37.5 -98.5q0 -33 -9 -75l-60 -281h-59l59 273q9 45 9 71q0 93 -99 93q-70 0 -115 -52t-59 -120l-56 -265h-59zM227 562l-37 14q7 30 27 52t52 22q18 0 50 -16l19 -10q28 -15 47 -15q29 0 42 39
l38 -14q-22 -69 -80 -69q-28 0 -54 14l-14 7q-33 18 -49 18q-27 0 -41 -42z" />
    <glyph glyph-name="ograve" unicode="&#xf2;" horiz-adv-x="523" 
d="M41 188q0 76 26.5 142.5t85 111.5t138.5 45q90 0 140 -54.5t50 -146.5q0 -56 -15.5 -108t-45 -95t-79.5 -69t-112 -26q-88 0 -138 54t-50 146zM286 437q-88 0 -138 -75t-50 -167q0 -74 36.5 -115.5t99.5 -41.5q61 0 105.5 38.5t64 93t19.5 113.5q0 72 -37 113t-100 41z
M355 552h-52l-120 128h74z" />
    <glyph glyph-name="oacute" unicode="&#xf3;" horiz-adv-x="523" 
d="M41 188q0 76 26.5 142.5t85 111.5t138.5 45q90 0 140 -54.5t50 -146.5q0 -56 -15.5 -108t-45 -95t-79.5 -69t-112 -26q-88 0 -138 54t-50 146zM286 437q-88 0 -138 -75t-50 -167q0 -74 36.5 -115.5t99.5 -41.5q61 0 105.5 38.5t64 93t19.5 113.5q0 72 -37 113t-100 41z
M324 552h-52l95 128h73z" />
    <glyph glyph-name="ocircumflex" unicode="&#xf4;" horiz-adv-x="523" 
d="M41 188q0 76 26.5 142.5t85 111.5t138.5 45q90 0 140 -54.5t50 -146.5q0 -56 -15.5 -108t-45 -95t-79.5 -69t-112 -26q-88 0 -138 54t-50 146zM286 437q-88 0 -138 -75t-50 -167q0 -74 36.5 -115.5t99.5 -41.5q61 0 105.5 38.5t64 93t19.5 113.5q0 72 -37 113t-100 41z
M444 552h-50l-63 83l-94 -83h-58l133 128h50z" />
    <glyph glyph-name="otilde" unicode="&#xf5;" horiz-adv-x="523" 
d="M41 188q0 76 26.5 142.5t85 111.5t138.5 45q90 0 140 -54.5t50 -146.5q0 -56 -15.5 -108t-45 -95t-79.5 -69t-112 -26q-88 0 -138 54t-50 146zM286 437q-88 0 -138 -75t-50 -167q0 -74 36.5 -115.5t99.5 -41.5q61 0 105.5 38.5t64 93t19.5 113.5q0 72 -37 113t-100 41z
M212 562l-37 14q7 30 27 52t52 22q18 0 50 -16l19 -10q28 -15 47 -15q29 0 42 39l38 -14q-22 -69 -80 -69q-28 0 -54 14l-14 7q-33 18 -49 18q-27 0 -41 -42z" />
    <glyph glyph-name="odieresis" unicode="&#xf6;" horiz-adv-x="523" 
d="M41 188q0 76 26.5 142.5t85 111.5t138.5 45q90 0 140 -54.5t50 -146.5q0 -56 -15.5 -108t-45 -95t-79.5 -69t-112 -26q-88 0 -138 54t-50 146zM286 437q-88 0 -138 -75t-50 -167q0 -74 36.5 -115.5t99.5 -41.5q61 0 105.5 38.5t64 93t19.5 113.5q0 72 -37 113t-100 41z
M196 560l20 91h62l-20 -91h-62zM383 560l20 91h62l-20 -91h-62z" />
    <glyph glyph-name="divide" unicode="&#xf7;" 
d="M279 581h78v-100h-78v100zM279 206h78v-101h-78v101zM562 375v-56h-490v56h490z" />
    <glyph glyph-name="oslash" unicode="&#xf8;" horiz-adv-x="529" 
d="M532 453l-69 -65q20 -46 20 -102q0 -76 -25.5 -141.5t-84.5 -111t-141 -45.5q-88 0 -137 54l-63 -59l-32 37l66 63q-21 43 -21 105q0 77 26.5 143.5t84.5 111.5t138 45q89 0 141 -57l63 60zM289 438q-89 0 -139 -75.5t-50 -167.5q0 -43 10 -70l284 267q-37 46 -105 46z
M427 283q0 35 -9 63l-282 -266q36 -42 101 -42q61 0 106 39t64.5 93t19.5 113z" />
    <glyph glyph-name="ugrave" unicode="&#xf9;" horiz-adv-x="525" 
d="M63 202l58 274h58l-54 -254q-13 -58 -13 -95q0 -40 23 -64.5t73 -24.5q71 0 115.5 52t58.5 119l56 267h59l-101 -476h-58l21 88h-2q-22 -42 -66 -70.5t-105 -28.5q-62 0 -98 30.5t-36 91.5q0 41 11 91zM363 552h-52l-120 128h74z" />
    <glyph glyph-name="uacute" unicode="&#xfa;" horiz-adv-x="525" 
d="M63 202l58 274h58l-54 -254q-13 -58 -13 -95q0 -40 23 -64.5t73 -24.5q71 0 115.5 52t58.5 119l56 267h59l-101 -476h-58l21 88h-2q-22 -42 -66 -70.5t-105 -28.5q-62 0 -98 30.5t-36 91.5q0 41 11 91zM325 552h-52l95 128h73z" />
    <glyph glyph-name="ucircumflex" unicode="&#xfb;" horiz-adv-x="525" 
d="M63 202l58 274h58l-54 -254q-13 -58 -13 -95q0 -40 23 -64.5t73 -24.5q71 0 115.5 52t58.5 119l56 267h59l-101 -476h-58l21 88h-2q-22 -42 -66 -70.5t-105 -28.5q-62 0 -98 30.5t-36 91.5q0 41 11 91zM451 552h-50l-63 83l-94 -83h-58l133 128h50z" />
    <glyph glyph-name="udieresis" unicode="&#xfc;" horiz-adv-x="525" 
d="M63 202l58 274h58l-54 -254q-13 -58 -13 -95q0 -40 23 -64.5t73 -24.5q71 0 115.5 52t58.5 119l56 267h59l-101 -476h-58l21 88h-2q-22 -42 -66 -70.5t-105 -28.5q-62 0 -98 30.5t-36 91.5q0 41 11 91zM195 560l20 91h62l-20 -91h-62zM382 560l20 91h62l-20 -91h-62z" />
    <glyph glyph-name="yacute" unicode="&#xfd;" horiz-adv-x="438" 
d="M469 476l-330 -575q-29 -50 -61 -74.5t-82 -24.5q-25 0 -53 10l11 51q17 -11 43 -11q20 0 36.5 7.5t32 26t23.5 30.5t24 40q5 8 7 12l19 33l-69 475h60l25 -191q25 -189 28 -216q26 58 93 171l131 236h62zM292 552h-52l95 128h73z" />
    <glyph glyph-name="thorn" unicode="&#xfe;" horiz-adv-x="539" 
d="M310 437q-58 0 -101 -41.5t-61.5 -96.5t-18.5 -111q0 -71 31 -110.5t94 -39.5q82 0 134 77.5t52 166.5q0 70 -33 112.5t-97 42.5zM229 680l-63 -292q23 41 64.5 70t99.5 29q73 0 120.5 -51t47.5 -143q0 -123 -66.5 -213.5t-174.5 -90.5q-67 0 -103.5 35t-46.5 85
l-63 -299h-57l184 870h58z" />
    <glyph glyph-name="ydieresis" unicode="&#xff;" horiz-adv-x="438" 
d="M469 476l-330 -575q-29 -50 -61 -74.5t-82 -24.5q-25 0 -53 10l11 51q17 -11 43 -11q20 0 36.5 7.5t32 26t23.5 30.5t24 40q5 8 7 12l19 33l-69 475h60l25 -191q25 -189 28 -216q26 58 93 171l131 236h62zM150 560l20 91h62l-20 -91h-62zM337 560l20 91h62l-20 -91h-62z
" />
    <glyph glyph-name="Amacron" unicode="&#x100;" horiz-adv-x="584" 
d="M137 198l-113 -198h-63l390 680h67l105 -680h-60l-29 198h-297zM427 251l-23 163q-22 141 -30 209h-2q-7 -13 -103 -189l-102 -183h260zM272 783l11 51h250l-11 -51h-250z" />
    <glyph glyph-name="amacron" unicode="&#x101;" horiz-adv-x="488" 
d="M281 485q71 0 114 -26.5t43 -83.5q0 -22 -9 -69l-44 -208q-4 -20 -4 -32q0 -32 38 -32q12 0 24 3l-8 -42q-9 -4 -36 -4q-72 0 -72 61q0 9 1 16h-2q-22 -34 -66.5 -57t-98.5 -23q-67 0 -106.5 33t-39.5 92q0 34 13.5 60t32 41t50.5 27t56.5 17t62.5 11l37 6q33 5 49.5 9
t34.5 13.5t25 26t7 42.5q0 73 -105 73q-65 0 -101 -26.5t-48 -81.5l-53 9q30 145 205 145zM174 32q62 0 109.5 37t61.5 103l19 89q-19 -14 -101 -29l-31 -5q-81 -15 -119 -39t-38 -73q0 -41 26.5 -62t72.5 -21zM176 579l11 51h250l-11 -51h-250z" />
    <glyph glyph-name="Abreve" unicode="&#x102;" horiz-adv-x="584" 
d="M137 198l-113 -198h-63l390 680h67l105 -680h-60l-29 198h-297zM427 251l-23 163q-22 141 -30 209h-2q-7 -13 -103 -189l-102 -183h260zM398 758q-53 0 -88 21t-35 65q0 12 3 26h48q-3 -12 -3 -21q0 -51 74 -51q46 0 72.5 15.5t28.5 56.5h48q-11 -112 -148 -112z" />
    <glyph glyph-name="abreve" unicode="&#x103;" horiz-adv-x="488" 
d="M281 485q71 0 114 -26.5t43 -83.5q0 -22 -9 -69l-44 -208q-4 -20 -4 -32q0 -32 38 -32q12 0 24 3l-8 -42q-9 -4 -36 -4q-72 0 -72 61q0 9 1 16h-2q-22 -34 -66.5 -57t-98.5 -23q-67 0 -106.5 33t-39.5 92q0 34 13.5 60t32 41t50.5 27t56.5 17t62.5 11l37 6q33 5 49.5 9
t34.5 13.5t25 26t7 42.5q0 73 -105 73q-65 0 -101 -26.5t-48 -81.5l-53 9q30 145 205 145zM174 32q62 0 109.5 37t61.5 103l19 89q-19 -14 -101 -29l-31 -5q-81 -15 -119 -39t-38 -73q0 -41 26.5 -62t72.5 -21zM313 537q-53 0 -88 21t-35 65q0 12 3 26h48q-3 -12 -3 -21
q0 -51 74 -51q46 0 72.5 15.5t28.5 56.5h48q-11 -112 -148 -112z" />
    <glyph glyph-name="Aogonek" unicode="&#x104;" horiz-adv-x="584" 
d="M497 -153l11 -34q-27 -11 -52 -11q-28 0 -52.5 17.5t-24.5 51.5q0 30 23 60.5t67 68.5h-6l-29 198h-297l-113 -198h-63l390 680h67l105 -680q-55 -49 -76.5 -74t-21.5 -50q0 -36 38 -36q15 0 34 7zM427 251l-23 163q-22 141 -30 209h-2q-7 -13 -103 -189l-102 -183h260z
" />
    <glyph glyph-name="aogonek" unicode="&#x105;" horiz-adv-x="488" 
d="M410 -153l11 -34q-27 -11 -52 -11q-28 0 -52.5 17.5t-24.5 51.5q0 30 20.5 57.5t61.5 65.5q-47 10 -47 58q0 9 1 16h-2q-22 -34 -66.5 -57t-98.5 -23q-67 0 -106.5 33t-39.5 92q0 34 13.5 60t32 41t50.5 27t56.5 17t62.5 11l37 6q33 5 49.5 9t34.5 13.5t25 26t7 42.5
q0 73 -105 73q-65 0 -101 -26.5t-48 -81.5l-53 9q30 145 205 145q71 0 114 -26.5t43 -83.5q0 -22 -9 -69l-44 -208q-4 -20 -4 -32q0 -32 38 -32q12 0 24 3l-7 -37l-1 -5l-8 -2q-49 -43 -69 -67.5t-20 -49.5q0 -36 38 -36q15 0 34 7zM174 32q62 0 109.5 37t61.5 103l19 89
q-19 -14 -101 -29l-31 -5q-81 -15 -119 -39t-38 -73q0 -41 26.5 -62t72.5 -21z" />
    <glyph glyph-name="Cacute" unicode="&#x106;" horiz-adv-x="643" 
d="M556 192l49 -28q-43 -80 -113.5 -128t-166.5 -48q-122 0 -190 76.5t-68 208.5q0 108 38.5 201.5t119 155.5t187.5 62q95 0 159.5 -49.5t83.5 -132.5l-54 -27q-14 72 -64 113.5t-128 41.5q-68 0 -123 -32t-88.5 -84.5t-51 -114.5t-17.5 -127q0 -113 52.5 -175.5
t150.5 -62.5q78 0 135 41t89 109zM437 752h-51l91 128h75z" />
    <glyph glyph-name="cacute" unicode="&#x107;" horiz-adv-x="483" 
d="M466 351l-52 -21q-22 108 -131 108q-86 0 -136 -75t-50 -168q0 -76 36.5 -117t98.5 -41q105 0 155 106l46 -26q-65 -129 -205 -129q-88 0 -137.5 53t-49.5 147q0 121 66.5 210t180.5 89q72 0 117.5 -36.5t60.5 -99.5zM324 552h-52l95 128h73z" />
    <glyph glyph-name="Ccircumflex" unicode="&#x108;" horiz-adv-x="643" 
d="M556 192l49 -28q-43 -80 -113.5 -128t-166.5 -48q-122 0 -190 76.5t-68 208.5q0 108 38.5 201.5t119 155.5t187.5 62q95 0 159.5 -49.5t83.5 -132.5l-54 -27q-14 72 -64 113.5t-128 41.5q-68 0 -123 -32t-88.5 -84.5t-51 -114.5t-17.5 -127q0 -113 52.5 -175.5
t150.5 -62.5q78 0 135 41t89 109zM557 751h-50l-63 83l-93 -83h-58l132 128h50z" />
    <glyph glyph-name="ccircumflex" unicode="&#x109;" horiz-adv-x="483" 
d="M466 351l-52 -21q-22 108 -131 108q-86 0 -136 -75t-50 -168q0 -76 36.5 -117t98.5 -41q105 0 155 106l46 -26q-65 -129 -205 -129q-88 0 -137.5 53t-49.5 147q0 121 66.5 210t180.5 89q72 0 117.5 -36.5t60.5 -99.5zM441 552h-50l-63 83l-94 -83h-58l133 128h50z" />
    <glyph glyph-name="Cdotaccent" unicode="&#x10a;" horiz-adv-x="643" 
d="M556 192l49 -28q-43 -80 -113.5 -128t-166.5 -48q-122 0 -190 76.5t-68 208.5q0 108 38.5 201.5t119 155.5t187.5 62q95 0 159.5 -49.5t83.5 -132.5l-54 -27q-14 72 -64 113.5t-128 41.5q-68 0 -123 -32t-88.5 -84.5t-51 -114.5t-17.5 -127q0 -113 52.5 -175.5
t150.5 -62.5q78 0 135 41t89 109zM391 760l20 91h68l-20 -91h-68z" />
    <glyph glyph-name="cdotaccent" unicode="&#x10b;" horiz-adv-x="483" 
d="M466 351l-52 -21q-22 108 -131 108q-86 0 -136 -75t-50 -168q0 -76 36.5 -117t98.5 -41q105 0 155 106l46 -26q-65 -129 -205 -129q-88 0 -137.5 53t-49.5 147q0 121 66.5 210t180.5 89q72 0 117.5 -36.5t60.5 -99.5zM278 570l20 91h68l-20 -91h-68z" />
    <glyph glyph-name="Ccaron" unicode="&#x10c;" horiz-adv-x="643" 
d="M556 192l49 -28q-43 -80 -113.5 -128t-166.5 -48q-122 0 -190 76.5t-68 208.5q0 108 38.5 201.5t119 155.5t187.5 62q95 0 159.5 -49.5t83.5 -132.5l-54 -27q-14 72 -64 113.5t-128 41.5q-68 0 -123 -32t-88.5 -84.5t-51 -114.5t-17.5 -127q0 -113 52.5 -175.5
t150.5 -62.5q78 0 135 41t89 109zM323 879h50l63 -83l93 83h58l-132 -128h-50z" />
    <glyph glyph-name="ccaron" unicode="&#x10d;" horiz-adv-x="483" 
d="M466 351l-52 -21q-22 108 -131 108q-86 0 -136 -75t-50 -168q0 -76 36.5 -117t98.5 -41q105 0 155 106l46 -26q-65 -129 -205 -129q-88 0 -137.5 53t-49.5 147q0 121 66.5 210t180.5 89q72 0 117.5 -36.5t60.5 -99.5zM203 680h50l63 -83l94 83h58l-133 -128h-50z" />
    <glyph glyph-name="Dcaron" unicode="&#x10e;" horiz-adv-x="678" 
d="M247 0h-209l144 680h145q134 0 210 -36q119 -57 119 -217q0 -85 -27 -170.5t-76 -144.5q-57 -68 -126.5 -90t-179.5 -22zM231 624l-122 -571h154q71 0 117.5 12.5t87.5 44.5q61 48 94 138t33 175q0 130 -96 173q-63 28 -169 28h-99zM306 879h50l63 -83l93 83h58
l-132 -128h-50z" />
    <glyph glyph-name="dcaron" unicode="&#x10f;" horiz-adv-x="553" 
d="M504 680h58l-144 -680h-59l21 88h-2q-23 -43 -66 -71.5t-102 -28.5q-75 0 -123 51t-48 143q0 122 68.5 213.5t177.5 91.5q65 0 103.5 -34t50.5 -84zM229 36q59 0 103 41t64 97t20 113q0 70 -33 110t-95 40q-85 0 -137 -76.5t-52 -167.5q0 -72 33.5 -114.5t96.5 -42.5z
M603 552h-53l78 128h71z" />
    <glyph glyph-name="Dcroat" unicode="&#x110;" horiz-adv-x="692" 
d="M31 337l11 53h92l62 290h148q163 0 244.5 -58.5t81.5 -194.5q0 -85 -27 -170.5t-76 -144.5q-57 -68 -126.5 -90t-179.5 -22h-209l71 337h-92zM245 624l-50 -234h216l-11 -53h-217l-60 -284h154q71 0 117.5 12.5t87.5 44.5q61 48 94 138t33 175q0 61 -20 102t-58 61.5
t-82.5 29t-104.5 8.5h-99z" />
    <glyph glyph-name="dcroat" unicode="&#x111;" horiz-adv-x="547" 
d="M611 548h-77l-116 -548h-59l21 88h-2q-23 -43 -66 -71.5t-102 -28.5q-75 0 -123 51t-48 143q0 123 68.5 216t177.5 93q65 0 103.5 -34t50.5 -84l37 175h-162l10 47h162l18 85h58l-18 -85h77zM229 36q59 0 103 42t64 98.5t20 114.5q0 70 -33 110t-95 40q-57 0 -101.5 -39
t-66 -95t-21.5 -114q0 -72 33.5 -114.5t96.5 -42.5z" />
    <glyph glyph-name="Emacron" unicode="&#x112;" horiz-adv-x="586" 
d="M611 625h-380l-52 -246h344l-11 -55h-345l-57 -270h402l-11 -54h-463l144 680h441zM287 783l11 51h250l-11 -51h-250z" />
    <glyph glyph-name="emacron" unicode="&#x113;" horiz-adv-x="512" 
d="M467 232h-368q-2 -24 -2 -37q0 -74 35.5 -116t105.5 -42q114 0 168 105l42 -27q-30 -55 -83.5 -91t-129.5 -36q-90 0 -142 52.5t-52 152.5q0 121 67 207.5t183 86.5q90 0 135.5 -54.5t45.5 -141.5q0 -24 -5 -59zM107 278h304q2 14 2 25q0 62 -33 99.5t-94 37.5
q-72 0 -117.5 -46t-61.5 -116zM191 579l11 51h250l-11 -51h-250z" />
    <glyph glyph-name="Ebreve" unicode="&#x114;" horiz-adv-x="586" 
d="M611 625h-380l-52 -246h344l-11 -55h-345l-57 -270h402l-11 -54h-463l144 680h441zM412 758q-53 0 -88 21t-35 65q0 12 3 26h48q-3 -12 -3 -21q0 -51 74 -51q46 0 72.5 15.5t28.5 56.5h48q-11 -112 -148 -112z" />
    <glyph glyph-name="ebreve" unicode="&#x115;" horiz-adv-x="512" 
d="M467 232h-368q-2 -24 -2 -37q0 -74 35.5 -116t105.5 -42q114 0 168 105l42 -27q-30 -55 -83.5 -91t-129.5 -36q-90 0 -142 52.5t-52 152.5q0 121 67 207.5t183 86.5q90 0 135.5 -54.5t45.5 -141.5q0 -24 -5 -59zM107 278h304q2 14 2 25q0 62 -33 99.5t-94 37.5
q-72 0 -117.5 -46t-61.5 -116zM306 537q-53 0 -88 21t-35 65q0 12 3 26h48q-3 -12 -3 -21q0 -51 74 -51q46 0 72.5 15.5t28.5 56.5h48q-11 -112 -148 -112z" />
    <glyph glyph-name="Edotaccent" unicode="&#x116;" horiz-adv-x="586" 
d="M611 625h-380l-52 -246h344l-11 -55h-345l-57 -270h402l-11 -54h-463l144 680h441zM370 760l20 91h68l-20 -91h-68z" />
    <glyph glyph-name="edotaccent" unicode="&#x117;" horiz-adv-x="512" 
d="M467 232h-368q-2 -24 -2 -37q0 -74 35.5 -116t105.5 -42q114 0 168 105l42 -27q-30 -55 -83.5 -91t-129.5 -36q-90 0 -142 52.5t-52 152.5q0 121 67 207.5t183 86.5q90 0 135.5 -54.5t45.5 -141.5q0 -24 -5 -59zM107 278h304q2 14 2 25q0 62 -33 99.5t-94 37.5
q-72 0 -117.5 -46t-61.5 -116zM274 570l20 91h68l-20 -91h-68z" />
    <glyph glyph-name="Eogonek" unicode="&#x118;" horiz-adv-x="586" 
d="M475 -153l11 -34q-27 -11 -52 -11q-28 0 -52.5 17.5t-24.5 51.5q0 30 23 60.5t67 68.5h-409l144 680h441l-12 -55h-380l-52 -246h344l-11 -55h-345l-57 -270h402l-11 -54q-55 -49 -76.5 -74t-21.5 -50q0 -36 38 -36q15 0 34 7z" />
    <glyph glyph-name="eogonek" unicode="&#x119;" horiz-adv-x="512" 
d="M286 -153l11 -34q-27 -11 -52 -11q-28 0 -52.5 17.5t-24.5 51.5q0 50 76 117h-9q-90 0 -142 52.5t-52 152.5q0 121 67 207.5t183 86.5q90 0 135.5 -54.5t45.5 -141.5q0 -24 -5 -59h-368q-2 -24 -2 -37q0 -74 35.5 -116t105.5 -42q114 0 168 105l42 -27q-44 -85 -136 -115
q-55 -49 -76.5 -74t-21.5 -50q0 -36 38 -36q15 0 34 7zM107 278h304q2 14 2 25q0 62 -33 99.5t-94 37.5q-72 0 -117.5 -46t-61.5 -116z" />
    <glyph glyph-name="Ecaron" unicode="&#x11a;" horiz-adv-x="586" 
d="M611 625h-380l-52 -246h344l-11 -55h-345l-57 -270h402l-11 -54h-463l144 680h441zM304 879h50l63 -83l93 83h58l-132 -128h-50z" />
    <glyph glyph-name="ecaron" unicode="&#x11b;" horiz-adv-x="512" 
d="M467 232h-368q-2 -24 -2 -37q0 -74 35.5 -116t105.5 -42q114 0 168 105l42 -27q-30 -55 -83.5 -91t-129.5 -36q-90 0 -142 52.5t-52 152.5q0 121 67 207.5t183 86.5q90 0 135.5 -54.5t45.5 -141.5q0 -24 -5 -59zM107 278h304q2 14 2 25q0 62 -33 99.5t-94 37.5
q-72 0 -117.5 -46t-61.5 -116zM191 680h50l63 -83l94 83h58l-133 -128h-50z" />
    <glyph glyph-name="Gcircumflex" unicode="&#x11c;" horiz-adv-x="682" 
d="M577 0h-57q10 48 25 107h-2q-29 -51 -84 -85t-134 -34q-120 0 -189 75.5t-69 211.5q0 79 23 153t65 133.5t110 95t150 35.5q98 0 161 -48t84 -134l-54 -27q-15 73 -65 114t-130 41q-90 0 -156 -55.5t-96 -134.5t-30 -168q0 -113 52.5 -176.5t152.5 -63.5q195 0 249 251
h-241l11 53h298zM564 751h-50l-63 83l-93 -83h-58l132 128h50z" />
    <glyph glyph-name="gcircumflex" unicode="&#x11d;" horiz-adv-x="544" 
d="M361 11l18 75h-2q-20 -37 -63 -64t-99 -27q-78 0 -125.5 49.5t-47.5 144.5q0 120 66.5 209t176.5 89q65 0 104.5 -35.5t47.5 -85.5h2l21 110h56l-97 -456q-25 -116 -76 -167t-156 -51q-182 0 -184 155l57 9q0 -117 132 -117q78 0 113.5 38.5t55.5 123.5zM100 199
q0 -72 33.5 -115t98.5 -43q57 0 100.5 40.5t63 95t19.5 111.5q0 70 -32.5 110t-96.5 40q-83 0 -134.5 -75t-51.5 -164zM435 552h-50l-63 83l-94 -83h-58l133 128h50z" />
    <glyph glyph-name="Gbreve" unicode="&#x11e;" horiz-adv-x="682" 
d="M577 0h-57q10 48 25 107h-2q-29 -51 -84 -85t-134 -34q-120 0 -189 75.5t-69 211.5q0 79 23 153t65 133.5t110 95t150 35.5q98 0 161 -48t84 -134l-54 -27q-15 73 -65 114t-130 41q-90 0 -156 -55.5t-96 -134.5t-30 -168q0 -113 52.5 -176.5t152.5 -63.5q195 0 249 251
h-241l11 53h298zM437 758q-53 0 -88 21t-35 65q0 12 3 26h48q-3 -12 -3 -21q0 -51 74 -51q46 0 72.5 15.5t28.5 56.5h48q-11 -112 -148 -112z" />
    <glyph glyph-name="gbreve" unicode="&#x11f;" horiz-adv-x="544" 
d="M361 11l18 75h-2q-20 -37 -63 -64t-99 -27q-78 0 -125.5 49.5t-47.5 144.5q0 120 66.5 209t176.5 89q65 0 104.5 -35.5t47.5 -85.5h2l21 110h56l-97 -456q-25 -116 -76 -167t-156 -51q-182 0 -184 155l57 9q0 -117 132 -117q78 0 113.5 38.5t55.5 123.5zM100 199
q0 -72 33.5 -115t98.5 -43q57 0 100.5 40.5t63 95t19.5 111.5q0 70 -32.5 110t-96.5 40q-83 0 -134.5 -75t-51.5 -164zM318 537q-53 0 -88 21t-35 65q0 12 3 26h48q-3 -12 -3 -21q0 -51 74 -51q46 0 72.5 15.5t28.5 56.5h48q-11 -112 -148 -112z" />
    <glyph glyph-name="Gdotaccent" unicode="&#x120;" horiz-adv-x="682" 
d="M577 0h-57q10 48 25 107h-2q-29 -51 -84 -85t-134 -34q-120 0 -189 75.5t-69 211.5q0 79 23 153t65 133.5t110 95t150 35.5q98 0 161 -48t84 -134l-54 -27q-15 73 -65 114t-130 41q-90 0 -156 -55.5t-96 -134.5t-30 -168q0 -113 52.5 -176.5t152.5 -63.5q195 0 249 251
h-241l11 53h298zM395 760l20 91h68l-20 -91h-68z" />
    <glyph glyph-name="gdotaccent" unicode="&#x121;" horiz-adv-x="544" 
d="M361 11l18 75h-2q-20 -37 -63 -64t-99 -27q-78 0 -125.5 49.5t-47.5 144.5q0 120 66.5 209t176.5 89q65 0 104.5 -35.5t47.5 -85.5h2l21 110h56l-97 -456q-25 -116 -76 -167t-156 -51q-182 0 -184 155l57 9q0 -117 132 -117q78 0 113.5 38.5t55.5 123.5zM100 199
q0 -72 33.5 -115t98.5 -43q57 0 100.5 40.5t63 95t19.5 111.5q0 70 -32.5 110t-96.5 40q-83 0 -134.5 -75t-51.5 -164zM287 570l20 91h68l-20 -91h-68z" />
    <glyph glyph-name="uni0122" unicode="&#x122;" horiz-adv-x="682" 
d="M577 0h-57q10 48 25 107h-2q-29 -51 -84 -85t-134 -34q-120 0 -189 75.5t-69 211.5q0 79 23 153t65 133.5t110 95t150 35.5q98 0 161 -48t84 -134l-54 -27q-15 73 -65 114t-130 41q-90 0 -156 -55.5t-96 -134.5t-30 -168q0 -113 52.5 -176.5t152.5 -63.5q195 0 249 251
h-241l11 53h298zM235 -267l9 39q36 9 49 61l3 13h-31l20 96h67l-13 -60q-6 -30 -9.5 -44t-12 -35.5t-18 -32.5t-26 -21.5t-38.5 -15.5z" />
    <glyph glyph-name="uni0123" unicode="&#x123;" horiz-adv-x="544" 
d="M361 11l18 75h-2q-20 -37 -63 -64t-99 -27q-78 0 -125.5 49.5t-47.5 144.5q0 120 66.5 209t176.5 89q65 0 104.5 -35.5t47.5 -85.5h2l21 110h56l-97 -456q-25 -116 -76 -167t-156 -51q-182 0 -184 155l57 9q0 -117 132 -117q78 0 113.5 38.5t55.5 123.5zM100 199
q0 -72 33.5 -115t98.5 -43q57 0 100.5 40.5t63 95t19.5 111.5q0 70 -32.5 110t-96.5 40q-83 0 -134.5 -75t-51.5 -164zM394 761l-9 -39q-36 -9 -49 -61l-3 -13h31l-20 -96h-67l13 60q6 30 9.5 44t12 35.5t18 32.5t26 21.5t38.5 15.5z" />
    <glyph glyph-name="Hcircumflex" unicode="&#x124;" horiz-adv-x="669" 
d="M613 680h61l-145 -680h-60l68 324h-370l-69 -324h-60l144 680h61l-64 -300h370zM567 751h-50l-63 83l-93 -83h-58l132 128h50z" />
    <glyph glyph-name="hcircumflex" unicode="&#x125;" horiz-adv-x="529" 
d="M27 0l145 680h59l-44 -204q-16 -71 -21 -89h2q23 42 67 71t104 29q62 0 99 -32.5t37 -98.5q0 -33 -9 -75l-60 -281h-59l59 273q9 45 9 71q0 46 -23 69.5t-75 23.5q-70 0 -115.5 -52.5t-59.5 -119.5l-56 -265h-59zM497 751h-50l-63 83l-93 -83h-58l132 128h50z" />
    <glyph glyph-name="Hbar" unicode="&#x126;" horiz-adv-x="702" 
d="M707 680l-145 -680h-63l69 324h-398l-69 -324h-63l145 680h63l-34 -158h398l34 158h63zM182 380h398l19 89h-398z" />
    <glyph glyph-name="hbar" unicode="&#x127;" horiz-adv-x="529" 
d="M27 0l118 554h-76l10 52h77l16 74h59l-16 -74h161l-10 -52h-162l-17 -78q-16 -71 -21 -89h2q23 42 67 71t104 29q62 0 99 -32.5t37 -98.5q0 -33 -9 -75l-60 -281h-59l59 273q9 45 9 71q0 46 -23 69.5t-75 23.5q-70 0 -115.5 -52.5t-59.5 -119.5l-56 -265h-59z" />
    <glyph glyph-name="Itilde" unicode="&#x128;" horiz-adv-x="238" 
d="M182 680h61l-145 -680h-60zM130 769l-37 14q7 30 27 52t52 22q18 0 50 -16l19 -10q28 -15 47 -15q29 0 42 39l38 -14q-22 -69 -80 -69q-28 0 -54 14l-14 7q-33 18 -49 18q-27 0 -41 -42z" />
    <glyph glyph-name="itilde" unicode="&#x129;" horiz-adv-x="213" 
d="M185 476l-101 -476h-57l100 476h58zM81 562l-37 14q7 30 27 52t52 22q18 0 50 -16l19 -10q28 -15 47 -15q29 0 42 39l38 -14q-22 -69 -80 -69q-28 0 -54 14l-14 7q-33 18 -49 18q-27 0 -41 -42z" />
    <glyph glyph-name="Imacron" unicode="&#x12a;" horiz-adv-x="238" 
d="M182 680h61l-145 -680h-60zM105 783l11 51h250l-11 -51h-250z" />
    <glyph glyph-name="imacron" unicode="&#x12b;" horiz-adv-x="213" 
d="M185 476l-101 -476h-57l100 476h58zM51 579l11 51h250l-11 -51h-250z" />
    <glyph glyph-name="Ibreve" unicode="&#x12c;" horiz-adv-x="238" 
d="M182 680h61l-145 -680h-60zM239 758q-53 0 -88 21t-35 65q0 12 3 26h48q-3 -12 -3 -21q0 -51 74 -51q46 0 72.5 15.5t28.5 56.5h48q-11 -112 -148 -112z" />
    <glyph glyph-name="ibreve" unicode="&#x12d;" horiz-adv-x="213" 
d="M185 476l-101 -476h-57l100 476h58zM174 537q-53 0 -88 21t-35 65q0 12 3 26h48q-3 -12 -3 -21q0 -51 74 -51q46 0 72.5 15.5t28.5 56.5h48q-11 -112 -148 -112z" />
    <glyph glyph-name="Iogonek" unicode="&#x12e;" horiz-adv-x="238" 
d="M72 -153l11 -34q-27 -11 -52 -11q-28 0 -52.5 17.5t-24.5 51.5q0 30 23 60.5t67 68.5h-6l144 680h61l-145 -680q-55 -49 -76.5 -74t-21.5 -50q0 -36 38 -36q15 0 34 7z" />
    <glyph glyph-name="iogonek" unicode="&#x12f;" horiz-adv-x="214" 
d="M59 -153l11 -34q-27 -11 -52 -11q-28 0 -52.5 17.5t-24.5 51.5q0 30 23 60.5t67 68.5h-4l100 476h59l-101 -476q-55 -49 -76.5 -74t-21.5 -50q0 -36 38 -36q15 0 34 7zM230 680l-21 -98h-60l22 98h59z" />
    <glyph glyph-name="Idotaccent" unicode="&#x130;" horiz-adv-x="238" 
d="M182 680h61l-145 -680h-60zM194 760l20 91h68l-20 -91h-68z" />
    <glyph glyph-name="dotlessi" unicode="&#x131;" horiz-adv-x="213" 
d="M185 476l-101 -476h-57l100 476h58z" />
    <glyph glyph-name="IJ" unicode="&#x132;" horiz-adv-x="684" 
d="M182 680h61l-145 -680h-60zM634 680h61l-97 -451q-23 -107 -47 -149q-53 -92 -177 -92q-85 0 -132 43t-47 121q0 18 2 31l63 19q-4 -20 -4 -41q0 -55 30 -87.5t91 -32.5q72 0 106 44t54 140z" />
    <glyph glyph-name="ij" unicode="&#x133;" horiz-adv-x="434" 
d="M186 476l-101 -476h-58l100 476h59zM230 680l-21 -98h-60l22 98h59zM348 476h59l-115 -536q-18 -83 -46 -112t-85 -29q-40 0 -72 10l13 52q26 -11 54 -11q34 0 50 18t29 79zM451 680l-22 -98h-59l21 98h60z" />
    <glyph glyph-name="Jcircumflex" unicode="&#x134;" horiz-adv-x="492" 
d="M441 680h61l-97 -451q-23 -107 -47 -149q-53 -92 -177 -92q-85 0 -132 43t-47 121q0 18 2 31l63 19q-4 -20 -4 -41q0 -55 30 -87.5t91 -32.5q72 0 106 44t54 140zM611 751h-50l-63 83l-93 -83h-58l132 128h50z" />
    <glyph glyph-name="jcircumflex" unicode="&#x135;" horiz-adv-x="223" 
d="M136 476h59l-114 -534q-18 -83 -46 -112t-85 -29q-40 0 -72 10l13 52q26 -11 54 -11q34 0 50 18t29 79zM310 552h-50l-63 83l-94 -83h-58l133 128h50z" />
    <glyph glyph-name="uni0136" unicode="&#x136;" horiz-adv-x="618" 
d="M317 369l-170 -141l-48 -228h-61l145 680h61l-80 -373l444 373h86l-329 -273l202 -407h-71zM199 -267l9 39q36 9 49 61l3 13h-31l20 96h67l-13 -60q-6 -30 -9.5 -44t-12 -35.5t-18 -32.5t-26 -21.5t-38.5 -15.5z" />
    <glyph glyph-name="uni0137" unicode="&#x137;" horiz-adv-x="479" 
d="M171 680h59l-95 -443l295 239h80l-227 -182l143 -294h-68l-121 259l-116 -90l-36 -169h-58zM143 -267l9 39q36 9 49 61l3 13h-31l20 96h67l-13 -60q-6 -30 -9.5 -44t-12 -35.5t-18 -32.5t-26 -21.5t-38.5 -15.5z" />
    <glyph glyph-name="kgreenlandic" unicode="&#x138;" horiz-adv-x="483" 
d="M188 476l-47 -213q68 0 102.5 21t72.5 74l23 32q22 30 37 45.5t45 29t69 13.5h29l-11 -50h-17q-39 0 -66.5 -20t-53.5 -59l-12 -18q-35 -53 -79 -83l145 -248h-67l-130 227q-32 -10 -72 -10h-24l-46 -217h-59l102 476h59z" />
    <glyph glyph-name="Lacute" unicode="&#x139;" horiz-adv-x="517" 
d="M182 680h61l-133 -624h355l-12 -56h-415zM255 752h-51l91 128h75z" />
    <glyph glyph-name="lacute" unicode="&#x13a;" horiz-adv-x="215" 
d="M172 680h58l-144 -680h-59zM241 752h-51l91 128h75z" />
    <glyph glyph-name="uni013B" unicode="&#x13b;" horiz-adv-x="517" 
d="M182 680h61l-133 -624h355l-12 -56h-415zM169 -267l9 39q36 9 49 61l3 13h-31l20 96h67l-13 -60q-6 -30 -9.5 -44t-12 -35.5t-18 -32.5t-26 -21.5t-38.5 -15.5z" />
    <glyph glyph-name="uni013C" unicode="&#x13c;" horiz-adv-x="215" 
d="M172 680h58l-144 -680h-59zM-38 -267l9 39q36 9 49 61l3 13h-31l20 96h67l-13 -60q-6 -30 -9.5 -44t-12 -35.5t-18 -32.5t-26 -21.5t-38.5 -15.5z" />
    <glyph glyph-name="Lcaron" unicode="&#x13d;" horiz-adv-x="518" 
d="M182 680h61l-133 -624h355l-12 -56h-415zM387 552h-53l78 128h71z" />
    <glyph glyph-name="lcaron" unicode="&#x13e;" horiz-adv-x="221" 
d="M172 680h58l-144 -680h-59zM272 552h-53l78 128h71z" />
    <glyph glyph-name="Ldot" unicode="&#x13f;" horiz-adv-x="518" 
d="M182 680h61l-133 -624h355l-12 -56h-415zM359 341l20 91h68l-20 -91h-68z" />
    <glyph glyph-name="ldot" unicode="&#x140;" horiz-adv-x="212" 
d="M172 680h58l-144 -680h-59zM196 316l20 91h68l-20 -91h-68z" />
    <glyph glyph-name="Lslash" unicode="&#x141;" horiz-adv-x="540" 
d="M409 426l-225 -129l-51 -241h355l-12 -56h-415l54 258l-111 -64l14 64l111 63l76 359h61l-68 -320l224 128z" />
    <glyph glyph-name="lslash" unicode="&#x142;" horiz-adv-x="270" 
d="M272 390l-86 -49l-71 -341h-59l64 303l-79 -45l14 63l78 45l68 314h58l-59 -276l86 50z" />
    <glyph glyph-name="Nacute" unicode="&#x143;" horiz-adv-x="692" 
d="M553 0h-68l-199 449q-41 91 -64 151h-1q-8 -65 -28 -150l-95 -450h-60l144 680h67l184 -417l79 -176h1q12 74 30 153l93 440h61zM445 752h-51l91 128h75z" />
    <glyph glyph-name="nacute" unicode="&#x144;" horiz-adv-x="529" 
d="M27 0l101 476h58q-16 -71 -21 -89h2q23 42 67 71t104 29q62 0 99.5 -32.5t37.5 -98.5q0 -33 -9 -75l-60 -281h-59l59 273q9 45 9 71q0 93 -99 93q-70 0 -115 -52t-59 -120l-56 -265h-59zM343 552h-52l95 128h73z" />
    <glyph glyph-name="uni0145" unicode="&#x145;" horiz-adv-x="692" 
d="M553 0h-68l-199 449q-41 91 -64 151h-1q-8 -65 -28 -150l-95 -450h-60l144 680h67l184 -417l79 -176h1q12 74 30 153l93 440h61zM200 -267l9 39q36 9 49 61l3 13h-31l20 96h67l-13 -60q-6 -30 -9.5 -44t-12 -35.5t-18 -32.5t-26 -21.5t-38.5 -15.5z" />
    <glyph glyph-name="uni0146" unicode="&#x146;" horiz-adv-x="529" 
d="M27 0l101 476h58q-16 -71 -21 -89h2q23 42 67 71t104 29q62 0 99.5 -32.5t37.5 -98.5q0 -33 -9 -75l-60 -281h-59l59 273q9 45 9 71q0 93 -99 93q-70 0 -115 -52t-59 -120l-56 -265h-59zM129 -267l9 39q36 9 49 61l3 13h-31l20 96h67l-13 -60q-6 -30 -9.5 -44t-12 -35.5
t-18 -32.5t-26 -21.5t-38.5 -15.5z" />
    <glyph glyph-name="Ncaron" unicode="&#x147;" horiz-adv-x="692" 
d="M553 0h-68l-199 449q-41 91 -64 151h-1q-8 -65 -28 -150l-95 -450h-60l144 680h67l184 -417l79 -176h1q12 74 30 153l93 440h61zM335 879h50l63 -83l93 83h58l-132 -128h-50z" />
    <glyph glyph-name="ncaron" unicode="&#x148;" horiz-adv-x="529" 
d="M27 0l101 476h58q-16 -71 -21 -89h2q23 42 67 71t104 29q62 0 99.5 -32.5t37.5 -98.5q0 -33 -9 -75l-60 -281h-59l59 273q9 45 9 71q0 93 -99 93q-70 0 -115 -52t-59 -120l-56 -265h-59zM223 680h50l63 -83l94 83h58l-133 -128h-50z" />
    <glyph glyph-name="napostrophe" unicode="&#x149;" horiz-adv-x="542" 
d="M40 0l101 476h58q-16 -71 -21 -89h2q23 42 67 71t104 29q62 0 99.5 -32.5t37.5 -98.5q0 -33 -9 -75l-60 -281h-59l59 273q9 45 9 71q0 93 -99 93q-70 0 -115 -52t-59 -120l-56 -265h-59zM59 471l9 39q36 9 49 61l3 13h-31l20 96h67l-13 -60q-6 -30 -9.5 -44t-12 -35.5
t-18 -32.5t-26 -21.5t-38.5 -15.5z" />
    <glyph glyph-name="Eng" unicode="&#x14a;" horiz-adv-x="693" 
d="M515 -108q-26 -43 -63 -66t-98 -23q-72 0 -111.5 41.5t-39.5 116.5v11l61 19q-1 -7 -1 -21q0 -52 23 -83.5t71 -31.5q55 0 86.5 34t46.5 101l-204 459q-51 116 -64 151h-1q-8 -65 -28 -150l-95 -450h-60l144 680h67l184 -417l79 -183h1q1 11 6 35t13 62t13 63l91 440h61
l-136 -644q-20 -97 -46 -144z" />
    <glyph glyph-name="eng" unicode="&#x14b;" horiz-adv-x="529" 
d="M337 -51l69 324q9 45 9 71q0 93 -99 93q-70 0 -115 -52t-59 -120l-56 -265h-59l101 476h58q-16 -71 -21 -89h2q23 42 67 71t104 29q62 0 99.5 -32.5t37.5 -98.5q0 -33 -9 -75l-72 -339q-18 -83 -45.5 -112t-85.5 -29q-40 0 -72 10l13 52q26 -11 54 -11q34 0 50 18t29 79z
" />
    <glyph glyph-name="Omacron" unicode="&#x14c;" horiz-adv-x="701" 
d="M67 272q0 80 23 154.5t65 134.5t109.5 95.5t150.5 35.5q122 0 192 -74.5t70 -203.5q0 -109 -38 -204t-119.5 -158.5t-192.5 -63.5q-124 0 -192 76t-68 208zM410 638q-69 0 -124.5 -32.5t-88.5 -85t-50.5 -115.5t-17.5 -128q0 -110 52.5 -173t150.5 -63q89 0 155.5 57.5
t97 139t30.5 169.5q0 108 -53 169.5t-152 61.5zM309 783l11 51h250l-11 -51h-250z" />
    <glyph glyph-name="omacron" unicode="&#x14d;" horiz-adv-x="523" 
d="M41 188q0 76 26.5 142.5t85 111.5t138.5 45q90 0 140 -54.5t50 -146.5q0 -56 -15.5 -108t-45 -95t-79.5 -69t-112 -26q-88 0 -138 54t-50 146zM286 437q-88 0 -138 -75t-50 -167q0 -74 36.5 -115.5t99.5 -41.5q61 0 105.5 38.5t64 93t19.5 113.5q0 72 -37 113t-100 41z
M189 579l11 51h250l-11 -51h-250z" />
    <glyph glyph-name="Obreve" unicode="&#x14e;" horiz-adv-x="701" 
d="M67 272q0 80 23 154.5t65 134.5t109.5 95.5t150.5 35.5q122 0 192 -74.5t70 -203.5q0 -109 -38 -204t-119.5 -158.5t-192.5 -63.5q-124 0 -192 76t-68 208zM410 638q-69 0 -124.5 -32.5t-88.5 -85t-50.5 -115.5t-17.5 -128q0 -110 52.5 -173t150.5 -63q89 0 155.5 57.5
t97 139t30.5 169.5q0 108 -53 169.5t-152 61.5zM443 758q-53 0 -88 21t-35 65q0 12 3 26h48q-3 -12 -3 -21q0 -51 74 -51q46 0 72.5 15.5t28.5 56.5h48q-11 -112 -148 -112z" />
    <glyph glyph-name="obreve" unicode="&#x14f;" horiz-adv-x="523" 
d="M41 188q0 76 26.5 142.5t85 111.5t138.5 45q90 0 140 -54.5t50 -146.5q0 -56 -15.5 -108t-45 -95t-79.5 -69t-112 -26q-88 0 -138 54t-50 146zM286 437q-88 0 -138 -75t-50 -167q0 -74 36.5 -115.5t99.5 -41.5q61 0 105.5 38.5t64 93t19.5 113.5q0 72 -37 113t-100 41z
M311 537q-53 0 -88 21t-35 65q0 12 3 26h48q-3 -12 -3 -21q0 -51 74 -51q46 0 72.5 15.5t28.5 56.5h48q-11 -112 -148 -112z" />
    <glyph glyph-name="Ohungarumlaut" unicode="&#x150;" horiz-adv-x="701" 
d="M67 272q0 80 23 154.5t65 134.5t109.5 95.5t150.5 35.5q122 0 192 -74.5t70 -203.5q0 -109 -38 -204t-119.5 -158.5t-192.5 -63.5q-124 0 -192 76t-68 208zM410 638q-69 0 -124.5 -32.5t-88.5 -85t-50.5 -115.5t-17.5 -128q0 -110 52.5 -173t150.5 -63q89 0 155.5 57.5
t97 139t30.5 169.5q0 108 -53 169.5t-152 61.5zM523 752h-51l92 128h74zM358 752h-50l91 128h74z" />
    <glyph glyph-name="ohungarumlaut" unicode="&#x151;" horiz-adv-x="523" 
d="M41 188q0 76 26.5 142.5t85 111.5t138.5 45q90 0 140 -54.5t50 -146.5q0 -56 -15.5 -108t-45 -95t-79.5 -69t-112 -26q-88 0 -138 54t-50 146zM286 437q-88 0 -138 -75t-50 -167q0 -74 36.5 -115.5t99.5 -41.5q61 0 105.5 38.5t64 93t19.5 113.5q0 72 -37 113t-100 41z
M238 544h-52l101 136h73zM394 544h-52l101 136h73z" />
    <glyph glyph-name="OE" unicode="&#x152;" horiz-adv-x="924" 
d="M949 625h-352l-52 -246h316l-11 -55h-317l-57 -270h374l-11 -54h-435l4 15q-43 -16 -93 -16q-110 0 -178 71.5t-68 210.5q0 173 96 291.5t252 118.5q72 0 130 -31l4 20h410zM129 285q0 -113 53 -173.5t147 -60.5q40 0 89 18l114 535q-47 33 -117 33q-128 0 -207 -103
t-79 -249z" />
    <glyph glyph-name="oe" unicode="&#x153;" horiz-adv-x="881" 
d="M775 142l42 -27q-30 -55 -83.5 -91t-129.5 -36q-142 0 -176 125q-68 -125 -201 -125q-88 0 -137 54t-49 146q0 77 27.5 143.5t86.5 111.5t138 45q62 0 105 -33t61 -89v-1q65 122 201 122q90 0 135.5 -54.5t45.5 -141.5q0 -24 -5 -59h-368q-2 -24 -2 -37q0 -74 35.5 -116
t105.5 -42q114 0 168 105zM476 278h304q2 14 2 25q0 62 -33 99.5t-94 37.5q-72 0 -117.5 -46t-61.5 -116zM285 438q-87 0 -137 -75.5t-50 -168.5q0 -74 35.5 -115t98.5 -41q61 0 105.5 39t64 93t19.5 114q0 72 -36 113t-100 41z" />
    <glyph glyph-name="Racute" unicode="&#x154;" horiz-adv-x="641" 
d="M376 300h-214l-64 -300h-60l144 680h235q99 0 151 -28q72 -40 72 -128q0 -137 -105 -194q-38 -21 -96 -26l119 -304h-68zM174 356h202q99 0 141 29q63 43 63 134q0 69 -68 95q-33 11 -98 11h-183zM413 752h-51l91 128h75z" />
    <glyph glyph-name="racute" unicode="&#x155;" horiz-adv-x="326" 
d="M359 484l-13 -58q-15 3 -30 3q-69 0 -114.5 -52t-63.5 -133l-52 -244h-59l102 476h58l-26 -108h2q15 48 61.5 83.5t104.5 35.5q13 0 30 -3zM233 552h-52l95 128h73z" />
    <glyph glyph-name="uni0156" unicode="&#x156;" horiz-adv-x="641" 
d="M376 300h-214l-64 -300h-60l144 680h235q99 0 151 -28q72 -40 72 -128q0 -137 -105 -194q-38 -21 -96 -26l119 -304h-68zM174 356h202q99 0 141 29q63 43 63 134q0 69 -68 95q-33 11 -98 11h-183zM210 -267l9 39q36 9 49 61l3 13h-31l20 96h67l-13 -60q-6 -30 -9.5 -44
t-12 -35.5t-18 -32.5t-26 -21.5t-38.5 -15.5z" />
    <glyph glyph-name="uni0157" unicode="&#x157;" horiz-adv-x="326" 
d="M359 484l-13 -58q-15 3 -30 3q-69 0 -114.5 -52t-63.5 -133l-52 -244h-59l102 476h58l-26 -108h2q15 48 61.5 83.5t104.5 35.5q13 0 30 -3zM-37 -267l9 39q36 9 49 61l3 13h-31l20 96h67l-13 -60q-6 -30 -9.5 -44t-12 -35.5t-18 -32.5t-26 -21.5t-38.5 -15.5z" />
    <glyph glyph-name="Rcaron" unicode="&#x158;" horiz-adv-x="641" 
d="M376 300h-214l-64 -300h-60l144 680h235q99 0 151 -28q72 -40 72 -128q0 -137 -105 -194q-38 -21 -96 -26l119 -304h-68zM174 356h202q99 0 141 29q63 43 63 134q0 69 -68 95q-33 11 -98 11h-183zM297 879h50l63 -83l93 83h58l-132 -128h-50z" />
    <glyph glyph-name="rcaron" unicode="&#x159;" horiz-adv-x="326" 
d="M359 484l-13 -58q-15 3 -30 3q-69 0 -114.5 -52t-63.5 -133l-52 -244h-59l102 476h58l-26 -108h2q15 48 61.5 83.5t104.5 35.5q13 0 30 -3zM144 680h50l63 -83l94 83h58l-133 -128h-50z" />
    <glyph glyph-name="Sacute" unicode="&#x15a;" horiz-adv-x="581" 
d="M574 562l-47 -35q-60 110 -199 110q-73 0 -118.5 -31.5t-45.5 -89.5q0 -51 31 -78.5t95 -49.5l66 -22q40 -14 66 -26t55 -33t44 -50.5t15 -68.5q0 -88 -62.5 -144t-181.5 -56q-101 0 -170 47t-94 125l49 36q22 -73 78.5 -113.5t139.5 -40.5q85 0 132.5 36t47.5 102
q0 51 -35.5 80t-100.5 50l-92 31q-144 47 -144 168q0 84 61 133.5t166 49.5q84 0 148 -35.5t96 -94.5zM389 752h-51l91 128h75z" />
    <glyph glyph-name="sacute" unicode="&#x15b;" horiz-adv-x="445" 
d="M412 395l-42 -33q-48 76 -138 76q-47 0 -77 -21t-30 -58q0 -32 19.5 -49t63.5 -33l61 -22q28 -10 43.5 -17.5t35.5 -22t29.5 -35t9.5 -48.5q0 -66 -47 -105t-131 -39q-77 0 -126.5 33.5t-68.5 87.5l44 30q15 -46 54.5 -73.5t97.5 -27.5q59 0 90 24t31 65q0 31 -22 48
t-68 34l-65 23q-24 9 -39 16t-33 21t-27 35.5t-9 49.5q0 61 46.5 97t119.5 36q124 0 178 -92zM294 552h-52l95 128h73z" />
    <glyph glyph-name="Scircumflex" unicode="&#x15c;" horiz-adv-x="581" 
d="M574 562l-47 -35q-60 110 -199 110q-73 0 -118.5 -31.5t-45.5 -89.5q0 -51 31 -78.5t95 -49.5l66 -22q40 -14 66 -26t55 -33t44 -50.5t15 -68.5q0 -88 -62.5 -144t-181.5 -56q-101 0 -170 47t-94 125l49 36q22 -73 78.5 -113.5t139.5 -40.5q85 0 132.5 36t47.5 102
q0 51 -35.5 80t-100.5 50l-92 31q-144 47 -144 168q0 84 61 133.5t166 49.5q84 0 148 -35.5t96 -94.5zM502 751h-50l-63 83l-93 -83h-58l132 128h50z" />
    <glyph glyph-name="scircumflex" unicode="&#x15d;" horiz-adv-x="445" 
d="M412 395l-42 -33q-48 76 -138 76q-47 0 -77 -21t-30 -58q0 -32 19.5 -49t63.5 -33l61 -22q28 -10 43.5 -17.5t35.5 -22t29.5 -35t9.5 -48.5q0 -66 -47 -105t-131 -39q-77 0 -126.5 33.5t-68.5 87.5l44 30q15 -46 54.5 -73.5t97.5 -27.5q59 0 90 24t31 65q0 31 -22 48
t-68 34l-65 23q-24 9 -39 16t-33 21t-27 35.5t-9 49.5q0 61 46.5 97t119.5 36q124 0 178 -92zM392 552h-50l-63 83l-94 -83h-58l133 128h50z" />
    <glyph glyph-name="Scedilla" unicode="&#x15e;" horiz-adv-x="581" 
d="M574 562l-47 -35q-60 110 -199 110q-73 0 -118.5 -31.5t-45.5 -89.5q0 -51 31 -78.5t95 -49.5l66 -22q40 -14 66 -26t55 -33t44 -50.5t15 -68.5q0 -88 -62.5 -144t-181.5 -56q-12 0 -34 2l-38 -34l1 -2q11 3 21 3q36 0 56.5 -19t20.5 -54q0 -41 -29.5 -61.5t-67.5 -20.5
h-4q-26 0 -49 9l10 30q24 -8 41 -8q59 0 59 48q0 23 -17 33.5t-38 10.5q-19 0 -37 -8l-17 25l56 52q-76 14 -126.5 57.5t-71.5 108.5l49 36q22 -73 78.5 -113.5t139.5 -40.5q85 0 132.5 36t47.5 102q0 51 -35.5 80t-100.5 50l-92 31q-144 47 -144 168q0 84 61 133.5
t166 49.5q84 0 148 -35.5t96 -94.5z" />
    <glyph glyph-name="scedilla" unicode="&#x15f;" horiz-adv-x="445" 
d="M412 395l-42 -33q-48 76 -138 76q-47 0 -77 -21t-30 -58q0 -32 19.5 -49t63.5 -33l61 -22q28 -10 43.5 -17.5t35.5 -22t29.5 -35t9.5 -48.5q0 -66 -47 -105t-131 -39q-11 0 -18 1l-38 -33l1 -2q10 3 21 3q36 0 56.5 -19t20.5 -54q0 -41 -29.5 -61.5t-67.5 -20.5h-4
q-26 0 -49 9l10 30q24 -8 41 -8q59 0 59 48q0 23 -17 33.5t-38 10.5q-19 0 -37 -8l-17 25l55 51q-110 21 -144 116l44 30q15 -46 54.5 -73.5t97.5 -27.5q59 0 90 24t31 65q0 31 -22 48t-68 34l-65 23q-24 9 -39 16t-33 21t-27 35.5t-9 49.5q0 61 46.5 97t119.5 36
q124 0 178 -92z" />
    <glyph glyph-name="Scaron" unicode="&#x160;" horiz-adv-x="581" 
d="M574 562l-47 -35q-60 110 -199 110q-73 0 -118.5 -31.5t-45.5 -89.5q0 -51 31 -78.5t95 -49.5l66 -22q40 -14 66 -26t55 -33t44 -50.5t15 -68.5q0 -88 -62.5 -144t-181.5 -56q-101 0 -170 47t-94 125l49 36q22 -73 78.5 -113.5t139.5 -40.5q85 0 132.5 36t47.5 102
q0 51 -35.5 80t-100.5 50l-92 31q-144 47 -144 168q0 84 61 133.5t166 49.5q84 0 148 -35.5t96 -94.5zM268 879h50l63 -83l93 83h58l-132 -128h-50z" />
    <glyph glyph-name="scaron" unicode="&#x161;" horiz-adv-x="445" 
d="M412 395l-42 -33q-48 76 -138 76q-47 0 -77 -21t-30 -58q0 -32 19.5 -49t63.5 -33l61 -22q28 -10 43.5 -17.5t35.5 -22t29.5 -35t9.5 -48.5q0 -66 -47 -105t-131 -39q-77 0 -126.5 33.5t-68.5 87.5l44 30q15 -46 54.5 -73.5t97.5 -27.5q59 0 90 24t31 65q0 31 -22 48
t-68 34l-65 23q-24 9 -39 16t-33 21t-27 35.5t-9 49.5q0 61 46.5 97t119.5 36q124 0 178 -92zM167 680h50l63 -83l94 83h58l-133 -128h-50z" />
    <glyph glyph-name="Tcommaaccent" unicode="&#x162;" horiz-adv-x="530" 
d="M244 0h-11l-51 -44l1 -2q11 3 21 3q36 0 56.5 -19t20.5 -54q0 -41 -29.5 -61.5t-67.5 -20.5h-4q-26 0 -49 9l10 30q24 -8 41 -8q59 0 59 48q0 23 -17 33.5t-38 10.5q-19 0 -37 -8l-17 25l63 58h-11l132 625h-223l13 55h504l-12 -55h-221z" />
    <glyph glyph-name="tcommaaccent" unicode="&#x163;" horiz-adv-x="315" 
d="M54 430l9 46h97l37 177l62 13l-41 -190h117l-10 -46h-118l-67 -319q-5 -25 -5 -36q0 -20 11 -28.5t37 -8.5q33 0 67 14l-10 -51q-36 -12 -76 -12h-5l-38 -33l1 -2q10 3 21 3q36 0 56.5 -19t20.5 -54q0 -41 -29.5 -61.5t-67.5 -20.5h-4q-26 0 -49 9l10 30q24 -8 41 -8
q59 0 59 48q0 23 -17 33.5t-38 10.5q-19 0 -37 -8l-17 25l55 51q-53 11 -53 59q0 17 9 58l67 320h-95z" />
    <glyph glyph-name="Tcaron" unicode="&#x164;" horiz-adv-x="530" 
d="M244 0h-60l132 625h-223l13 55h504l-12 -55h-221zM262 879h50l63 -83l93 83h58l-132 -128h-50z" />
    <glyph glyph-name="tcaron" unicode="&#x165;" horiz-adv-x="315" 
d="M54 430l9 46h97l37 177l62 13l-41 -190h117l-10 -46h-118l-67 -319q-5 -25 -5 -36q0 -20 11 -28.5t37 -8.5q33 0 67 14l-10 -51q-36 -12 -76 -12q-91 0 -91 63q0 17 9 58l67 320h-95zM339 552h-53l78 128h71z" />
    <glyph glyph-name="Tbar" unicode="&#x166;" horiz-adv-x="536" 
d="M99 624l12 56h498l-12 -56h-218l-37 -172h134l-11 -53h-134l-85 -399h-63l85 399h-134l11 53h134l37 172h-217z" />
    <glyph glyph-name="tbar" unicode="&#x167;" horiz-adv-x="328" 
d="M62 430l9 46h97l37 177l62 13l-41 -190h117l-10 -46h-118l-26 -122h122l-9 -46h-122l-32 -151q-5 -25 -5 -36q0 -20 11 -28.5t37 -8.5q33 0 67 14l-10 -51q-36 -12 -76 -12q-91 0 -91 63q0 17 9 58l32 152h-93l9 46h93l26 122h-95z" />
    <glyph glyph-name="Utilde" unicode="&#x168;" horiz-adv-x="677" 
d="M303 -12q-107 0 -166.5 49t-59.5 139q0 37 13 99l86 405h61l-87 -407q-12 -60 -12 -88q0 -72 45 -108t128 -36q100 0 150 45t77 170l90 424h61l-91 -425q-32 -151 -96.5 -209t-198.5 -58zM348 769l-37 14q7 30 27 52t52 22q18 0 50 -16l19 -10q28 -15 47 -15q29 0 42 39
l38 -14q-22 -69 -80 -69q-28 0 -54 14l-14 7q-33 18 -49 18q-27 0 -41 -42z" />
    <glyph glyph-name="utilde" unicode="&#x169;" horiz-adv-x="525" 
d="M63 202l58 274h58l-54 -254q-13 -58 -13 -95q0 -40 23 -64.5t73 -24.5q71 0 115.5 52t58.5 119l56 267h59l-101 -476h-58l21 88h-2q-22 -42 -66 -70.5t-105 -28.5q-62 0 -98 30.5t-36 91.5q0 41 11 91zM228 562l-37 14q7 30 27 52t52 22q18 0 50 -16l19 -10
q28 -15 47 -15q29 0 42 39l38 -14q-22 -69 -80 -69q-28 0 -54 14l-14 7q-33 18 -49 18q-27 0 -41 -42z" />
    <glyph glyph-name="Umacron" unicode="&#x16a;" horiz-adv-x="677" 
d="M303 -12q-107 0 -166.5 49t-59.5 139q0 37 13 99l86 405h61l-87 -407q-12 -60 -12 -88q0 -72 45 -108t128 -36q100 0 150 45t77 170l90 424h61l-91 -425q-32 -151 -96.5 -209t-198.5 -58zM315 783l11 51h250l-11 -51h-250z" />
    <glyph glyph-name="umacron" unicode="&#x16b;" horiz-adv-x="525" 
d="M63 202l58 274h58l-54 -254q-13 -58 -13 -95q0 -40 23 -64.5t73 -24.5q71 0 115.5 52t58.5 119l56 267h59l-101 -476h-58l21 88h-2q-22 -42 -66 -70.5t-105 -28.5q-62 0 -98 30.5t-36 91.5q0 41 11 91zM197 579l11 51h250l-11 -51h-250z" />
    <glyph glyph-name="Ubreve" unicode="&#x16c;" horiz-adv-x="677" 
d="M303 -12q-107 0 -166.5 49t-59.5 139q0 37 13 99l86 405h61l-87 -407q-12 -60 -12 -88q0 -72 45 -108t128 -36q100 0 150 45t77 170l90 424h61l-91 -425q-32 -151 -96.5 -209t-198.5 -58zM443 758q-53 0 -88 21t-35 65q0 12 3 26h48q-3 -12 -3 -21q0 -51 74 -51
q46 0 72.5 15.5t28.5 56.5h48q-11 -112 -148 -112z" />
    <glyph glyph-name="ubreve" unicode="&#x16d;" horiz-adv-x="525" 
d="M63 202l58 274h58l-54 -254q-13 -58 -13 -95q0 -40 23 -64.5t73 -24.5q71 0 115.5 52t58.5 119l56 267h59l-101 -476h-58l21 88h-2q-22 -42 -66 -70.5t-105 -28.5q-62 0 -98 30.5t-36 91.5q0 41 11 91zM323 537q-53 0 -88 21t-35 65q0 12 3 26h48q-3 -12 -3 -21
q0 -51 74 -51q46 0 72.5 15.5t28.5 56.5h48q-11 -112 -148 -112z" />
    <glyph glyph-name="Uring" unicode="&#x16e;" horiz-adv-x="677" 
d="M303 -12q-107 0 -166.5 49t-59.5 139q0 37 13 99l86 405h61l-87 -407q-12 -60 -12 -88q0 -72 45 -108t128 -36q100 0 150 45t77 170l90 424h61l-91 -425q-32 -151 -96.5 -209t-198.5 -58zM358 807q0 34 24 57.5t58 23.5t58 -23.5t24 -57.5t-24 -57.5t-58 -23.5t-58 23.5
t-24 57.5zM396 807q0 -18 13 -30.5t30 -12.5t30 12.5t13 30.5t-13 30.5t-30 12.5t-30 -12.5t-13 -30.5z" />
    <glyph glyph-name="uring" unicode="&#x16f;" horiz-adv-x="525" 
d="M63 202l58 274h58l-54 -254q-13 -58 -13 -95q0 -40 23 -64.5t73 -24.5q71 0 115.5 52t58.5 119l56 267h59l-101 -476h-58l21 88h-2q-22 -42 -66 -70.5t-105 -28.5q-62 0 -98 30.5t-36 91.5q0 41 11 91zM239 614q0 34 24 57.5t58 23.5t58 -23.5t24 -57.5t-24 -57.5
t-58 -23.5t-58 23.5t-24 57.5zM277 614q0 -18 13 -30.5t30 -12.5t30 12.5t13 30.5t-13 30.5t-30 12.5t-30 -12.5t-13 -30.5z" />
    <glyph glyph-name="Uhungarumlaut" unicode="&#x170;" horiz-adv-x="677" 
d="M303 -12q-107 0 -166.5 49t-59.5 139q0 37 13 99l86 405h61l-87 -407q-12 -60 -12 -88q0 -72 45 -108t128 -36q100 0 150 45t77 170l90 424h61l-91 -425q-32 -151 -96.5 -209t-198.5 -58zM520 752h-51l92 128h74zM355 752h-50l91 128h74z" />
    <glyph glyph-name="uhungarumlaut" unicode="&#x171;" horiz-adv-x="525" 
d="M63 202l58 274h58l-54 -254q-13 -58 -13 -95q0 -40 23 -64.5t73 -24.5q71 0 115.5 52t58.5 119l56 267h59l-101 -476h-58l21 88h-2q-22 -42 -66 -70.5t-105 -28.5q-62 0 -98 30.5t-36 91.5q0 41 11 91zM247 553h-52l101 136h73zM403 553h-52l101 136h73z" />
    <glyph glyph-name="Uogonek" unicode="&#x172;" horiz-adv-x="677" 
d="M312 -153l11 -34q-27 -11 -52 -11q-28 0 -52.5 17.5t-24.5 51.5q0 48 77 118q-92 8 -143 56t-51 131q0 37 13 99l86 405h61l-87 -407q-12 -60 -12 -88q0 -72 45 -108t128 -36q100 0 150 45t77 170l90 424h61l-91 -425q-30 -144 -91 -203t-183 -63q-48 -44 -66 -66.5
t-18 -46.5q0 -36 38 -36q15 0 34 7z" />
    <glyph glyph-name="uogonek" unicode="&#x173;" horiz-adv-x="525" 
d="M370 -153l11 -34q-27 -11 -52 -11q-28 0 -52.5 17.5t-24.5 51.5q0 30 23 60.5t67 68.5h-4l21 88h-2q-22 -42 -66 -70.5t-105 -28.5q-62 0 -98 30.5t-36 91.5q0 41 11 91l58 274h58l-54 -254q-13 -58 -13 -95q0 -40 23 -64.5t73 -24.5q71 0 115.5 52t58.5 119l56 267h59
l-101 -476q-55 -49 -76.5 -74t-21.5 -50q0 -36 38 -36q15 0 34 7z" />
    <glyph glyph-name="Wcircumflex" unicode="&#x174;" horiz-adv-x="865" 
d="M610 0h-75l-19 353q-5 100 -5 214v33h-2l-103 -233l-175 -367h-75l-41 680h63l25 -422q7 -124 7 -183h2q28 72 81 182l200 423h66l22 -421q6 -134 6 -172v-13h2q7 20 84 189l197 417h65zM661 751h-50l-63 83l-93 -83h-58l132 128h50z" />
    <glyph glyph-name="wcircumflex" unicode="&#x175;" horiz-adv-x="682" 
d="M417 476l18 -249q10 -150 10 -153h1q29 71 67 138l137 264h60l-252 -476h-56l-21 274q-6 61 -6 127h-1q0 -1 -22.5 -52.5t-38.5 -81.5l-131 -267h-59l-52 476h59l28 -274q4 -32 7 -77t4 -53h1q16 38 59 126l135 278h53zM520 552h-50l-63 83l-94 -83h-58l133 128h50z" />
    <glyph glyph-name="Ycircumflex" unicode="&#x176;" horiz-adv-x="572" 
d="M265 0h-61l60 284l-159 396h62l139 -341l282 341h70l-334 -399zM512 751h-50l-63 83l-93 -83h-58l132 128h50z" />
    <glyph glyph-name="ycircumflex" unicode="&#x177;" horiz-adv-x="438" 
d="M469 476l-330 -575q-29 -50 -61 -74.5t-82 -24.5q-25 0 -53 10l11 51q17 -11 43 -11q20 0 36.5 7.5t32 26t23.5 30.5t24 40q5 8 7 12l19 33l-69 475h60l25 -191q25 -189 28 -216q26 58 93 171l131 236h62zM408 552h-50l-63 83l-94 -83h-58l133 128h50z" />
    <glyph glyph-name="Ydieresis" unicode="&#x178;" horiz-adv-x="572" 
d="M265 0h-61l60 284l-159 396h62l139 -341l282 341h70l-334 -399zM254 762l20 91h62l-20 -91h-62zM441 762l20 91h62l-20 -91h-62z" />
    <glyph glyph-name="Zacute" unicode="&#x179;" horiz-adv-x="556" 
d="M494 55l-12 -55h-509l10 47l541 578h-403l11 55h484l-10 -48l-538 -577h426zM368 752h-51l91 128h75z" />
    <glyph glyph-name="zacute" unicode="&#x17a;" horiz-adv-x="424" 
d="M355 50l-10 -50h-365l10 44l362 383h-274l9 49h350l-10 -46l-362 -380h290zM279 552h-52l95 128h73z" />
    <glyph glyph-name="Zdotaccent" unicode="&#x17b;" horiz-adv-x="556" 
d="M494 55l-12 -55h-509l10 47l541 578h-403l11 55h484l-10 -48l-538 -577h426zM339 760l20 91h68l-20 -91h-68z" />
    <glyph glyph-name="zdotaccent" unicode="&#x17c;" horiz-adv-x="424" 
d="M355 50l-10 -50h-365l10 44l362 383h-274l9 49h350l-10 -46l-362 -380h290zM235 570l20 91h68l-20 -91h-68z" />
    <glyph glyph-name="Zcaron" unicode="&#x17d;" horiz-adv-x="556" 
d="M494 55l-12 -55h-509l10 47l541 578h-403l11 55h484l-10 -48l-538 -577h426zM266 879h50l63 -83l93 83h58l-132 -128h-50z" />
    <glyph glyph-name="zcaron" unicode="&#x17e;" horiz-adv-x="424" 
d="M355 50l-10 -50h-365l10 44l362 383h-274l9 49h350l-10 -46l-362 -380h290zM156 680h50l63 -83l94 83h58l-133 -128h-50z" />
    <glyph glyph-name="longs" unicode="&#x17f;" horiz-adv-x="252" 
d="M239 549l-116 -549h-59l91 430h-102l10 46h103l16 76q14 68 43 103t94 35q44 0 74 -14l-11 -48q-26 14 -59 14q-37 0 -55 -19.5t-29 -73.5z" />
    <glyph glyph-name="uni018F" unicode="&#x18f;" horiz-adv-x="693" 
d="M69 340h534q5 32 5 57q0 113 -56 176.5t-163 63.5q-164 0 -244 -150l-45 33q42 74 114.5 123t177.5 49q128 0 202 -74t74 -217q0 -109 -39.5 -201.5t-120.5 -151.5t-189 -59q-127 0 -191.5 76.5t-64.5 198.5q0 36 6 76zM595 291h-468q-1 -9 -1 -24q0 -101 48 -164
t150 -63q109 0 179 72.5t92 178.5z" />
    <glyph glyph-name="florin" unicode="&#x192;" 
d="M56 -190l19 52q35 -9 67 -9t47 14q18 16 28 76l84 479h-112l9 54h111l16 99q11 64 39.5 91t80.5 27q43 0 95 -16l-14 -52q-53 11 -72 11q-30 0 -47 -18q-15 -15 -23 -64l-13 -78h116l-9 -54h-115l-89 -502q-11 -63 -41 -93q-29 -29 -84 -29q-45 0 -93 12z" />
    <glyph glyph-name="Aringacute" unicode="&#x1fa;" horiz-adv-x="584" 
d="M137 198l-113 -198h-63l390 680h67l105 -680h-60l-29 198h-297zM427 251l-23 163q-22 141 -30 209h-2q-7 -13 -103 -189l-102 -183h260zM316 795q0 34 24 57.5t58 23.5t58 -23.5t24 -57.5t-24 -57.5t-58 -23.5t-58 23.5t-24 57.5zM354 795q0 -18 13 -30.5t30 -12.5
t30 12.5t13 30.5t-13 30.5t-30 12.5t-30 -12.5t-13 -30.5zM436 906h-51l91 128h75z" />
    <glyph glyph-name="aringacute" unicode="&#x1fb;" horiz-adv-x="488" 
d="M281 485q71 0 114 -26.5t43 -83.5q0 -22 -9 -69l-44 -208q-4 -20 -4 -32q0 -32 38 -32q12 0 24 3l-8 -42q-9 -4 -36 -4q-72 0 -72 61q0 9 1 16h-2q-22 -34 -66.5 -57t-98.5 -23q-67 0 -106.5 33t-39.5 92q0 34 13.5 60t32 41t50.5 27t56.5 17t62.5 11l37 6q33 5 49.5 9
t34.5 13.5t25 26t7 42.5q0 73 -105 73q-65 0 -101 -26.5t-48 -81.5l-53 9q30 145 205 145zM174 32q62 0 109.5 37t61.5 103l19 89q-19 -14 -101 -29l-31 -5q-81 -15 -119 -39t-38 -73q0 -41 26.5 -62t72.5 -21zM241 614q0 34 24 57.5t58 23.5t58 -23.5t24 -57.5t-24 -57.5
t-58 -23.5t-58 23.5t-24 57.5zM279 614q0 -18 13 -30.5t30 -12.5t30 12.5t13 30.5t-13 30.5t-30 12.5t-30 -12.5t-13 -30.5zM369 732h-51l91 128h75z" />
    <glyph glyph-name="AEacute" unicode="&#x1fc;" horiz-adv-x="887" 
d="M362 0l43 201h-240l-156 -201h-69l530 680h454l-11 -55h-359l-53 -246h325l-11 -55h-325l-57 -270h380l-11 -54h-440zM416 254l81 377h-2q-7 -9 -32.5 -44t-49.5 -67.5t-40 -51.5l-167 -214h210zM697 752h-51l91 128h75z" />
    <glyph glyph-name="aeacute" unicode="&#x1fd;" horiz-adv-x="825" 
d="M780 232h-368q-2 -24 -2 -37q0 -74 35.5 -116t105.5 -42q114 0 168 105l42 -27q-30 -55 -83.5 -91t-129.5 -36q-140 0 -177 123h-2q-12 -20 -18 -29.5t-25.5 -30.5t-39 -32t-53 -21t-72.5 -10q-67 0 -106.5 33t-39.5 92q0 34 13.5 60t32 41t50.5 27t56.5 17t62.5 11l37 6
q33 5 49.5 9t34.5 13.5t25 26t7 42.5q0 73 -105 73q-65 0 -101 -26.5t-48 -81.5l-53 9q30 145 205 145q129 0 150 -82q68 84 173 84q90 0 135.5 -54.5t45.5 -141.5q0 -24 -5 -59zM174 32q62 0 109.5 37t61.5 103l19 89q-19 -14 -101 -29l-31 -5q-81 -15 -119 -39t-38 -73
q0 -41 26.5 -62t72.5 -21zM420 278h306q0 2 0.5 8t0.5 8q0 65 -31.5 105.5t-96.5 40.5q-72 0 -117.5 -46t-61.5 -116zM483 552h-52l95 128h73z" />
    <glyph glyph-name="Oslashacute" unicode="&#x1fe;" horiz-adv-x="722" 
d="M789 634l-124 -102q19 -55 19 -118q0 -109 -38 -204t-119.5 -158.5t-192.5 -63.5q-143 0 -210 99l-103 -85l-32 45l108 89q-23 61 -23 136q0 80 23 154.5t65 134.5t109.5 95.5t150.5 35.5q149 0 218 -108l114 94zM417 638q-69 0 -125 -32.5t-89 -85t-50.5 -115.5
t-17.5 -128q0 -59 13 -99l444 366q-52 94 -175 94zM623 407q0 48 -10 82l-442 -363q54 -85 168 -85q89 0 156 57.5t97.5 139t30.5 169.5zM451 752h-51l91 128h75z" />
    <glyph glyph-name="oslashacute" unicode="&#x1ff;" horiz-adv-x="529" 
d="M532 453l-69 -65q20 -46 20 -102q0 -76 -25.5 -141.5t-84.5 -111t-141 -45.5q-88 0 -137 54l-63 -59l-32 37l66 63q-21 43 -21 105q0 77 26.5 143.5t84.5 111.5t138 45q89 0 141 -57l63 60zM289 438q-89 0 -139 -75.5t-50 -167.5q0 -43 10 -70l284 267q-37 46 -105 46z
M427 283q0 35 -9 63l-282 -266q36 -42 101 -42q61 0 106 39t64.5 93t19.5 113zM334 552h-52l95 128h73z" />
    <glyph glyph-name="uni0218" unicode="&#x218;" horiz-adv-x="581" 
d="M574 562l-47 -35q-60 110 -199 110q-73 0 -118.5 -31.5t-45.5 -89.5q0 -51 31 -78.5t95 -49.5l66 -22q40 -14 66 -26t55 -33t44 -50.5t15 -68.5q0 -88 -62.5 -144t-181.5 -56q-101 0 -170 47t-94 125l49 36q22 -73 78.5 -113.5t139.5 -40.5q85 0 132.5 36t47.5 102
q0 51 -35.5 80t-100.5 50l-92 31q-144 47 -144 168q0 84 61 133.5t166 49.5q84 0 148 -35.5t96 -94.5zM171 -267l9 39q36 9 49 61l3 13h-31l20 96h67l-13 -60q-6 -30 -9.5 -44t-12 -35.5t-18 -32.5t-26 -21.5t-38.5 -15.5z" />
    <glyph glyph-name="uni0219" unicode="&#x219;" horiz-adv-x="445" 
d="M412 395l-42 -33q-48 76 -138 76q-47 0 -77 -21t-30 -58q0 -32 19.5 -49t63.5 -33l61 -22q28 -10 43.5 -17.5t35.5 -22t29.5 -35t9.5 -48.5q0 -66 -47 -105t-131 -39q-77 0 -126.5 33.5t-68.5 87.5l44 30q15 -46 54.5 -73.5t97.5 -27.5q59 0 90 24t31 65q0 31 -22 48
t-68 34l-65 23q-24 9 -39 16t-33 21t-27 35.5t-9 49.5q0 61 46.5 97t119.5 36q124 0 178 -92zM111 -267l9 39q36 9 49 61l3 13h-31l20 96h67l-13 -60q-6 -30 -9.5 -44t-12 -35.5t-18 -32.5t-26 -21.5t-38.5 -15.5z" />
    <glyph glyph-name="uni021A" unicode="&#x21a;" horiz-adv-x="530" 
d="M244 0h-60l132 625h-223l13 55h504l-12 -55h-221zM119 -267l9 39q36 9 49 61l3 13h-31l20 96h67l-13 -60q-6 -30 -9.5 -44t-12 -35.5t-18 -32.5t-26 -21.5t-38.5 -15.5z" />
    <glyph glyph-name="uni021B" unicode="&#x21b;" horiz-adv-x="315" 
d="M54 430l9 46h97l37 177l62 13l-41 -190h117l-10 -46h-118l-67 -319q-5 -25 -5 -36q0 -20 11 -28.5t37 -8.5q33 0 67 14l-10 -51q-36 -12 -76 -12q-91 0 -91 63q0 17 9 58l67 320h-95zM32 -267l9 39q36 9 49 61l3 13h-31l20 96h67l-13 -60q-6 -30 -9.5 -44t-12 -35.5
t-18 -32.5t-26 -21.5t-38.5 -15.5z" />
    <glyph glyph-name="uni0237" unicode="&#x237;" horiz-adv-x="223" 
d="M136 476h59l-114 -534q-18 -83 -46 -112t-85 -29q-40 0 -72 10l13 52q26 -11 54 -11q34 0 50 18t29 79z" />
    <glyph glyph-name="uni0259" unicode="&#x259;" horiz-adv-x="512" 
d="M44 243h368q2 24 2 37q0 74 -35.5 116t-105.5 42q-114 0 -168 -105l-42 27q30 55 83.5 91t129.5 36q90 0 142 -52.5t52 -152.5q0 -121 -67 -207.5t-183 -86.5q-90 0 -135.5 54.5t-45.5 141.5q0 24 5 59zM404 197h-306q0 -3 -0.5 -8t-0.5 -8q0 -65 31.5 -105.5t96.5 -40.5
q72 0 117.5 46t61.5 116z" />
    <glyph glyph-name="circumflex" unicode="&#x2c6;" horiz-adv-x="474" 
d="M396 552h-50l-63 83l-94 -83h-58l133 128h50z" />
    <glyph glyph-name="caron" unicode="&#x2c7;" horiz-adv-x="474" 
d="M157 680h50l63 -83l94 83h58l-133 -128h-50z" />
    <glyph glyph-name="breve" unicode="&#x2d8;" horiz-adv-x="447" 
d="M269 537q-53 0 -88 21t-35 65q0 12 3 26h48q-3 -12 -3 -21q0 -51 74 -51q46 0 72.5 15.5t28.5 56.5h48q-11 -112 -148 -112z" />
    <glyph glyph-name="dotaccent" unicode="&#x2d9;" horiz-adv-x="434" 
d="M210 570l20 91h68l-20 -91h-68z" />
    <glyph glyph-name="ring" unicode="&#x2da;" horiz-adv-x="450" 
d="M143 614q0 34 24 57.5t58 23.5t58 -23.5t24 -57.5t-24 -57.5t-58 -23.5t-58 23.5t-24 57.5zM181 614q0 -18 13 -30.5t30 -12.5t30 12.5t13 30.5t-13 30.5t-30 12.5t-30 -12.5t-13 -30.5z" />
    <glyph glyph-name="ogonek" unicode="&#x2db;" horiz-adv-x="453" 
d="M273 -153l11 -34q-27 -11 -52 -11q-28 0 -52.5 17.5t-24.5 51.5q0 30 23 60.5t67 68.5h54q-55 -49 -76.5 -74t-21.5 -50q0 -36 38 -36q15 0 34 7z" />
    <glyph glyph-name="tilde" unicode="&#x2dc;" horiz-adv-x="480" 
d="M181 562l-37 14q7 30 27 52t52 22q18 0 50 -16l19 -10q28 -15 47 -15q29 0 42 39l38 -14q-22 -69 -80 -69q-28 0 -54 14l-14 7q-33 18 -49 18q-27 0 -41 -42z" />
    <glyph glyph-name="hungarumlaut" unicode="&#x2dd;" horiz-adv-x="493" 
d="M143 544h-52l101 136h73zM299 544h-52l101 136h73z" />
    <glyph glyph-name="uni0312" unicode="&#x312;" horiz-adv-x="0" 
d="M-120 761l-9 -39q-36 -9 -49 -61l-3 -13h31l-20 -96h-67l13 60q6 30 9.5 44t12 35.5t18 32.5t26 21.5t38.5 15.5z" />
    <glyph glyph-name="uni0313" unicode="&#x313;" horiz-adv-x="0" 
d="M-184 552h-53l78 128h71z" />
    <glyph glyph-name="uni0326" unicode="&#x326;" horiz-adv-x="0" 
d="M-397 -267l9 39q36 9 49 61l3 13h-31l20 96h67l-13 -60q-6 -30 -9.5 -44t-12 -35.5t-18 -32.5t-26 -21.5t-38.5 -15.5z" />
    <glyph glyph-name="uni037E" unicode="&#x37e;" horiz-adv-x="215" 
d="M122 476h76l-24 -114h-76zM40 114h80l-24 -113q-16 -76 -39.5 -106t-72.5 -36l9 41q41 11 56 86l3 14h-36z" />
    <glyph glyph-name="tonos" unicode="&#x384;" horiz-adv-x="231" 
d="M82 532h-42l60 148h75z" />
    <glyph glyph-name="dieresistonos" unicode="&#x385;" horiz-adv-x="450" 
d="M270 532h-48l109 148h73zM145 563l20 91h62l-20 -91h-62zM403 563l20 91h62l-20 -91h-62z" />
    <glyph glyph-name="Alphatonos" unicode="&#x386;" horiz-adv-x="594" 
d="M186 532h-42l60 148h75zM147 198l-113 -198h-63l390 680h67l105 -680h-60l-29 198h-297zM437 251l-23 163q-22 141 -30 209h-2q-7 -13 -103 -189l-102 -183h260z" />
    <glyph glyph-name="anoteleia" unicode="&#x387;" horiz-adv-x="210" 
d="M116 476h77l-25 -114h-77z" />
    <glyph glyph-name="Epsilontonos" unicode="&#x388;" horiz-adv-x="660" 
d="M685 625h-380l-52 -246h344l-11 -55h-345l-57 -270h402l-11 -54h-463l144 680h441zM113 532h-42l60 148h75z" />
    <glyph glyph-name="Etatonos" unicode="&#x389;" horiz-adv-x="743" 
d="M687 680h61l-145 -680h-60l68 324h-370l-69 -324h-60l144 680h61l-64 -300h370zM113 532h-42l60 148h75z" />
    <glyph glyph-name="Iotatonos" unicode="&#x38a;" horiz-adv-x="312" 
d="M256 680h61l-145 -680h-60zM113 532h-42l60 148h75z" />
    <glyph glyph-name="Omicrontonos" unicode="&#x38c;" horiz-adv-x="753" 
d="M136 532h-42l60 148h75zM119 272q0 80 23 154.5t65 134.5t109.5 95.5t150.5 35.5q122 0 192 -74.5t70 -203.5q0 -109 -38 -204t-119.5 -158.5t-192.5 -63.5q-124 0 -192 76t-68 208zM462 638q-69 0 -124.5 -32.5t-88.5 -85t-50.5 -115.5t-17.5 -128q0 -110 52.5 -173
t150.5 -63q89 0 155.5 57.5t97 139t30.5 169.5q0 108 -53 169.5t-152 61.5z" />
    <glyph glyph-name="Upsilontonos" unicode="&#x38e;" horiz-adv-x="715" 
d="M142 532h-42l60 148h75zM408 0h-61l60 284l-159 396h62l139 -341l282 341h70l-334 -399z" />
    <glyph glyph-name="Omegatonos" unicode="&#x38f;" horiz-adv-x="822" 
d="M135 532h-42l60 148h75zM483 691q130 0 207.5 -77t77.5 -198q0 -122 -60 -217.5t-159 -145.5h164l-11 -53h-249l11 51q107 39 176 136t69 220q0 103 -62.5 167t-168.5 64q-135 0 -212 -94.5t-77 -235.5q0 -84 35 -152.5t100 -104.5l-11 -51h-253l11 53h178
q-56 40 -87.5 109t-31.5 151q0 73 22.5 140t65.5 120.5t111.5 85.5t153.5 32z" />
    <glyph glyph-name="iotadieresistonos" unicode="&#x390;" horiz-adv-x="226" 
d="M161 40l-10 -46q-18 -5 -42 -5q-71 0 -71 55q0 13 6 43l82 389h58l-79 -375q-5 -25 -5 -35q0 -30 35 -30q17 0 26 4zM141 532h-48l109 148h73zM16 563l20 91h62l-20 -91h-62zM274 563l20 91h62l-20 -91h-62z" />
    <glyph glyph-name="Alpha" unicode="&#x391;" horiz-adv-x="584" 
d="M137 198l-113 -198h-63l390 680h67l105 -680h-60l-29 198h-297zM427 251l-23 163q-22 141 -30 209h-2q-7 -13 -103 -189l-102 -183h260z" />
    <glyph glyph-name="Beta" unicode="&#x392;" horiz-adv-x="671" 
d="M331 0h-293l145 680h255q109 0 161 -39q49 -38 49 -111q0 -67 -34 -114.5t-108 -60.5v-2q106 -28 106 -143q0 -111 -86 -171q-59 -39 -195 -39zM381 327h-213l-57 -274h245q195 0 195 160q0 36 -13 59.5t-38 35t-52.5 15.5t-66.5 4zM179 378h218q93 0 142 33.5t49 114.5
q0 56 -39 78t-110 22h-206z" />
    <glyph glyph-name="Gamma" unicode="&#x393;" horiz-adv-x="528" 
d="M605 680l-12 -56h-361l-133 -624h-61l145 680h422z" />
    <glyph glyph-name="uni0394" unicode="&#x394;" horiz-adv-x="587" 
d="M524 0h-563l390 680h72zM275 442l-223 -388h405l-56 385q-15 105 -23 186h-1q-30 -57 -102 -183z" />
    <glyph glyph-name="Epsilon" unicode="&#x395;" horiz-adv-x="586" 
d="M611 625h-380l-52 -246h344l-11 -55h-345l-57 -270h402l-11 -54h-463l144 680h441z" />
    <glyph glyph-name="Zeta" unicode="&#x396;" horiz-adv-x="556" 
d="M494 55l-12 -55h-509l10 47l541 578h-403l11 55h484l-10 -48l-538 -577h426z" />
    <glyph glyph-name="Eta" unicode="&#x397;" horiz-adv-x="669" 
d="M613 680h61l-145 -680h-60l68 324h-370l-69 -324h-60l144 680h61l-64 -300h370z" />
    <glyph glyph-name="Theta" unicode="&#x398;" horiz-adv-x="701" 
d="M227 321l11 56h287l-11 -56h-287zM67 272q0 80 23 154.5t65 134.5t109.5 95.5t150.5 35.5q122 0 192 -74.5t70 -203.5q0 -109 -38 -204t-119.5 -158.5t-192.5 -63.5q-124 0 -192 76t-68 208zM410 638q-69 0 -124.5 -32.5t-88.5 -85t-50.5 -115.5t-17.5 -128
q0 -110 52.5 -173t150.5 -63q89 0 155.5 57.5t97 139t30.5 169.5q0 108 -53 169.5t-152 61.5z" />
    <glyph glyph-name="Iota" unicode="&#x399;" horiz-adv-x="238" 
d="M182 680h61l-145 -680h-60z" />
    <glyph glyph-name="Kappa" unicode="&#x39a;" horiz-adv-x="618" 
d="M317 369l-170 -141l-48 -228h-61l145 680h61l-80 -373l444 373h86l-329 -273l202 -407h-71z" />
    <glyph glyph-name="Lambda" unicode="&#x39b;" horiz-adv-x="587" 
d="M463 0l-59 402q-17 115 -28 220h-1q-10 -16 -52 -95.5t-68 -125.5l-229 -401h-65l391 680h71l102 -680h-62z" />
    <glyph glyph-name="Mu" unicode="&#x39c;" horiz-adv-x="770" 
d="M609 438l-244 -438h-60l-55 400q-21 158 -25 222h-2q-30 -173 -34 -191l-92 -431h-59l145 680h87l52 -399q9 -60 18 -134t9 -76h2q9 16 50.5 91t70.5 129l215 389h88l-145 -680h-59l95 442q12 66 46 188h-2q-29 -61 -101 -192z" />
    <glyph glyph-name="Nu" unicode="&#x39d;" horiz-adv-x="693" 
d="M553 0h-68l-199 449q-41 91 -64 151h-1q-8 -65 -28 -150l-95 -450h-60l144 680h67l184 -417l79 -176h1q12 74 30 153l93 440h61z" />
    <glyph glyph-name="Xi" unicode="&#x39e;" horiz-adv-x="571" 
d="M104 322l13 58h396l-12 -58h-397zM-8 0l12 57h486l-13 -57h-485zM132 622l12 58h470l-12 -58h-470z" />
    <glyph glyph-name="Omicron" unicode="&#x39f;" horiz-adv-x="701" 
d="M67 272q0 80 23 154.5t65 134.5t109.5 95.5t150.5 35.5q122 0 192 -74.5t70 -203.5q0 -109 -38 -204t-119.5 -158.5t-192.5 -63.5q-124 0 -192 76t-68 208zM410 638q-69 0 -124.5 -32.5t-88.5 -85t-50.5 -115.5t-17.5 -128q0 -110 52.5 -173t150.5 -63q89 0 155.5 57.5
t97 139t30.5 169.5q0 108 -53 169.5t-152 61.5z" />
    <glyph glyph-name="Pi" unicode="&#x3a0;" horiz-adv-x="682" 
d="M687 680l-145 -680h-61l133 623h-382l-133 -623h-61l145 680h504z" />
    <glyph glyph-name="Rho" unicode="&#x3a1;" horiz-adv-x="618" 
d="M174 356h202q99 0 141 29q63 43 63 134q0 69 -68 95q-33 11 -98 11h-183zM370 300h-208l-64 -300h-60l144 680h236q99 0 151 -28q72 -40 72 -128q0 -138 -105 -195q-55 -29 -166 -29z" />
    <glyph glyph-name="Sigma" unicode="&#x3a3;" horiz-adv-x="539" 
d="M347 348l-231 283l10 49h470l-13 -55h-207q-42 0 -106 1t-79 1v-1q9 -11 53 -63t72 -87l107 -133l-216 -181q-31 -26 -134 -108v-1q44 1 141 1h256l-12 -54h-476l10 48z" />
    <glyph glyph-name="Tau" unicode="&#x3a4;" horiz-adv-x="530" 
d="M244 0h-60l132 625h-223l13 55h504l-12 -55h-221z" />
    <glyph glyph-name="Upsilon" unicode="&#x3a5;" horiz-adv-x="572" 
d="M265 0h-61l60 284l-159 396h62l139 -341l282 341h70l-334 -399z" />
    <glyph glyph-name="Phi" unicode="&#x3a6;" horiz-adv-x="705" 
d="M272 0l17 84q-105 12 -164 71.5t-59 158.5q0 130 87 218.5t251 92.5l18 82h60l-18 -84q102 -12 163 -70t61 -157q0 -132 -88.5 -222t-250.5 -92l-18 -82h-59zM627 392q0 77 -45 124.5t-129 57.5l-94 -441q133 4 200.5 76.5t67.5 182.5zM127 323q0 -83 44 -131.5
t128 -57.5l95 442q-127 -4 -197 -75.5t-70 -177.5z" />
    <glyph glyph-name="Chi" unicode="&#x3a7;" horiz-adv-x="589" 
d="M533 0h-68l-152 312l-287 -312h-75l335 360l-158 320h66l136 -280l254 280h76l-304 -328z" />
    <glyph glyph-name="Psi" unicode="&#x3a8;" horiz-adv-x="688" 
d="M406 680h61l-102 -479q110 0 161 42.5t80 172.5l56 264h61l-56 -264q-32 -152 -98 -210t-210 -58h-6l-31 -148h-59l31 149q-211 16 -211 189q0 34 11 89l53 253h61l-53 -251q-10 -44 -10 -80q0 -69 37.5 -105t122.5 -42z" />
    <glyph glyph-name="uni03A9" unicode="&#x3a9;" horiz-adv-x="785" 
d="M473 691q130 0 207.5 -77t77.5 -198q0 -122 -60 -217.5t-159 -145.5h164l-11 -53h-249l11 51q107 39 176 136t69 220q0 103 -62.5 167t-168.5 64q-135 0 -212 -94.5t-77 -235.5q0 -84 35 -152.5t100 -104.5l-11 -51h-253l11 53h178q-56 40 -87.5 109t-31.5 151
q0 73 22.5 140t65.5 120.5t111.5 85.5t153.5 32z" />
    <glyph glyph-name="Iotadieresis" unicode="&#x3aa;" horiz-adv-x="238" 
d="M182 680h61l-145 -680h-60zM99 762l20 91h62l-20 -91h-62zM286 762l20 91h62l-20 -91h-62z" />
    <glyph glyph-name="Upsilondieresis" unicode="&#x3ab;" horiz-adv-x="572" 
d="M265 0h-61l60 284l-159 396h62l139 -341l282 341h70l-334 -399zM260 762l20 91h62l-20 -91h-62zM447 762l20 91h62l-20 -91h-62z" />
    <glyph glyph-name="alphatonos" unicode="&#x3ac;" horiz-adv-x="559" 
d="M459 476h59l-82 -384q-5 -22 -5 -33q0 -25 32 -25q17 0 24 3l-9 -40q-14 -6 -38 -6q-66 0 -66 46q0 26 6 48h-2q-23 -41 -67 -69t-102 -28q-75 0 -122.5 51t-47.5 143q0 122 68 213.5t177 91.5q69 0 106.5 -33.5t46.5 -84.5h1zM228 36q59 0 103 42t64 98.5t20 114.5
q0 68 -33 107t-95 39q-85 0 -137 -76.5t-52 -167.5q0 -72 33.5 -114.5t96.5 -42.5zM334 552h-52l95 128h73z" />
    <glyph glyph-name="epsilontonos" unicode="&#x3ad;" horiz-adv-x="476" 
d="M315 552h-52l95 128h73zM453 354l-56 -8q-3 40 -37.5 66.5t-94.5 26.5q-54 0 -90 -22t-36 -67q0 -81 146 -81h35l-10 -45h-62q-43 0 -77.5 -8t-60 -31t-25.5 -59q0 -44 36 -67t96 -23q65 0 101.5 25t57.5 79l52 -13q-26 -69 -75 -104t-139 -35q-88 0 -140 34.5t-52 94.5
q0 56 37 89t100 42v3q-78 23 -78 101q0 63 49.5 99t134.5 36q88 0 136 -38.5t52 -94.5z" />
    <glyph glyph-name="etatonos" unicode="&#x3ae;" horiz-adv-x="529" 
d="M27 0l101 476h58q-16 -71 -21 -89h2q23 42 67 71t104 29q62 0 99.5 -32.5t37.5 -98.5q0 -33 -9 -75l-101 -471h-59l100 463q9 45 9 71q0 93 -99 93q-70 0 -115 -52t-59 -120l-56 -265h-59zM355 552h-52l95 128h73z" />
    <glyph glyph-name="iotatonos" unicode="&#x3af;" horiz-adv-x="226" 
d="M161 40l-10 -46q-18 -5 -42 -5q-71 0 -71 55q0 13 6 43l82 389h58l-79 -375q-5 -25 -5 -35q0 -30 35 -30q17 0 26 4zM193 552h-52l95 128h73z" />
    <glyph glyph-name="upsilondieresistonos" unicode="&#x3b0;" horiz-adv-x="511" 
d="M212 38q56 0 97.5 28t63.5 74.5t32.5 97t10.5 105.5q0 74 -19 133h58q17 -59 17 -132q0 -157 -66.5 -257t-203.5 -100q-152 0 -152 118q0 36 10 75l62 296h58l-60 -288q-9 -41 -9 -67q0 -83 101 -83zM262 532h-48l109 148h73zM137 563l20 91h62l-20 -91h-62zM395 563
l20 91h62l-20 -91h-62z" />
    <glyph glyph-name="alpha" unicode="&#x3b1;" horiz-adv-x="559" 
d="M459 476h59l-82 -384q-5 -22 -5 -33q0 -25 32 -25q17 0 24 3l-9 -40q-14 -6 -38 -6q-66 0 -66 46q0 26 6 48h-2q-23 -41 -67 -69t-102 -28q-75 0 -122.5 51t-47.5 143q0 122 68 213.5t177 91.5q69 0 106.5 -33.5t46.5 -84.5h1zM228 36q59 0 103 42t64 98.5t20 114.5
q0 68 -33 107t-95 39q-85 0 -137 -76.5t-52 -167.5q0 -72 33.5 -114.5t96.5 -42.5z" />
    <glyph glyph-name="beta" unicode="&#x3b2;" horiz-adv-x="551" 
d="M367 374v-2q57 -15 94 -58t37 -104q0 -104 -67 -162.5t-172 -58.5q-57 0 -101 21.5t-61 45.5l-52 -246h-59l143 671q21 105 71.5 157.5t147.5 52.5q83 0 129.5 -41t46.5 -106q0 -70 -44.5 -115.5t-112.5 -54.5zM187 482l-77 -365q15 -34 55.5 -57t95.5 -23
q82 0 129.5 46.5t47.5 122.5q0 71 -53 108t-126 37l9 46h14q79 0 131.5 35t52.5 104q0 51 -34 79t-89 28q-72 0 -105.5 -39t-50.5 -122z" />
    <glyph glyph-name="gamma" unicode="&#x3b3;" horiz-adv-x="455" 
d="M415 476h61q-115 -288 -298 -485l-38 -181h-58q43 187 43 272q0 185 -62 394h60q56 -207 56 -358q0 -33 -1 -50h2q140 171 235 408z" />
    <glyph glyph-name="delta" unicode="&#x3b4;" horiz-adv-x="520" 
d="M231 -12q-91 0 -142.5 51.5t-51.5 149.5q0 103 61.5 175t159.5 82q-42 27 -60.5 52.5t-18.5 65.5q0 63 46.5 95t124.5 32q94 0 151 -42l-14 -55q-57 48 -139 48q-112 0 -112 -74q0 -31 21 -55t73 -54l29 -17q115 -68 115 -186q0 -111 -66.5 -189.5t-176.5 -78.5zM233 38
q83 0 133 65t50 148q0 98 -101 155l-12 7q-95 -4 -152 -64t-57 -153q0 -76 36.5 -117t102.5 -41z" />
    <glyph glyph-name="epsilon" unicode="&#x3b5;" horiz-adv-x="476" 
d="M453 354l-56 -8q-3 40 -37.5 66.5t-94.5 26.5q-54 0 -90 -22t-36 -67q0 -81 146 -81h35l-10 -45h-62q-43 0 -77.5 -8t-60 -31t-25.5 -59q0 -44 36 -67t96 -23q65 0 101.5 25t57.5 79l52 -13q-26 -69 -75 -104t-139 -35q-88 0 -140 34.5t-52 94.5q0 56 37 89t100 42v3
q-78 23 -78 101q0 63 49.5 99t134.5 36q88 0 136 -38.5t52 -94.5z" />
    <glyph glyph-name="zeta" unicode="&#x3b6;" horiz-adv-x="444" 
d="M533 680l-9 -45q-86 -30 -159.5 -72t-134.5 -97t-96 -127t-35 -151q0 -76 32 -105.5t90 -36.5q9 -1 34.5 -3t35.5 -3.5t28.5 -7t26 -13.5t14.5 -22t7 -34q0 -56 -43 -126h-59q43 63 43 107q0 10 -2 18t-8 13.5t-10 8.5t-16 5t-16.5 3t-20.5 2.5t-21 1.5q-89 6 -131 48.5
t-42 136.5q0 152 106 271t271 178v3q-9 0 -60.5 -1.5t-80.5 -1.5h-133l10 50h379z" />
    <glyph glyph-name="eta" unicode="&#x3b7;" horiz-adv-x="529" 
d="M27 0l101 476h58q-16 -71 -21 -89h2q23 42 67 71t104 29q62 0 99.5 -32.5t37.5 -98.5q0 -33 -9 -75l-101 -471h-59l100 463q9 45 9 71q0 93 -99 93q-70 0 -115 -52t-59 -120l-56 -265h-59z" />
    <glyph glyph-name="theta" unicode="&#x3b8;" horiz-adv-x="603" 
d="M369 692q37 0 71 -12.5t66 -39.5t51 -79.5t19 -124.5q0 -80 -19.5 -158t-56 -143.5t-96.5 -106t-133 -40.5q-103 0 -156.5 69t-53.5 190q0 111 34 210.5t106.5 167t167.5 67.5zM118 257q0 -115 43.5 -167t113.5 -52q87 0 148.5 80t83.5 199h-385q-4 -28 -4 -60zM364 642
q-62 0 -111.5 -40t-79 -99.5t-43.5 -133.5h385q4 28 4 62q0 95 -39.5 153t-115.5 58z" />
    <glyph glyph-name="iota" unicode="&#x3b9;" horiz-adv-x="226" 
d="M161 40l-10 -46q-18 -5 -42 -5q-71 0 -71 55q0 13 6 43l82 389h58l-79 -375q-5 -25 -5 -35q0 -30 35 -30q17 0 26 4z" />
    <glyph glyph-name="kappa" unicode="&#x3ba;" horiz-adv-x="483" 
d="M188 476l-47 -213q68 0 102.5 21t72.5 74l23 32q22 30 37 45.5t45 29t69 13.5h29l-11 -50h-17q-39 0 -66.5 -20t-53.5 -59l-12 -18q-35 -53 -79 -83l145 -248h-67l-130 227q-32 -10 -72 -10h-24l-46 -217h-59l102 476h59z" />
    <glyph glyph-name="lambda" unicode="&#x3bb;" horiz-adv-x="510" 
d="M340 59l-13 95q-25 175 -33 258h-2q-4 -7 -19 -32.5t-31.5 -53.5t-32.5 -53l-169 -273h-63l305 482l-9 68q-7 57 -28 74.5t-55 17.5q-21 0 -42 -7l10 50q24 6 51 6q56 0 83 -30t37 -105l62 -463q6 -35 14.5 -48t30.5 -13q16 0 21 2l-7 -42q-13 -4 -38 -4
q-34 0 -50.5 16.5t-21.5 54.5z" />
    <glyph glyph-name="uni03BC" unicode="&#x3bc;" horiz-adv-x="527" 
d="M44 -190h-58l142 666h57l-56 -265q-11 -46 -11 -80q0 -91 93 -91q66 0 111.5 49t61.5 118l57 269h58l-101 -476h-57l19 82h-3q-22 -39 -64 -65.5t-100 -26.5q-81 0 -99 58z" />
    <glyph glyph-name="nu" unicode="&#x3bd;" horiz-adv-x="445" 
d="M174 58h3q125 158 230 418h59q-120 -305 -280 -476h-58l-61 476h58l33 -275q15 -127 16 -143z" />
    <glyph glyph-name="xi" unicode="&#x3be;" horiz-adv-x="431" 
d="M197 -3q-170 19 -170 158q0 90 61.5 143t159.5 63v2q-56 13 -87.5 49.5t-31.5 92.5q0 92 63.5 139.5t168.5 47.5q81 0 134 -22l-19 -50q-54 23 -116 23q-75 0 -123.5 -35t-48.5 -102q0 -122 179 -122h33l-11 -51h-36q-265 0 -265 -168q0 -60 31.5 -84t90.5 -34
q8 -1 29 -4t30.5 -5t26 -6t24.5 -9.5t17.5 -13.5t13.5 -20t4 -28q0 -62 -46 -124h-58q46 56 46 105q0 10 -2 17.5t-8.5 13t-11 9t-16.5 6t-18 3.5t-22 3t-22 3z" />
    <glyph glyph-name="omicron" unicode="&#x3bf;" horiz-adv-x="523" 
d="M41 188q0 76 26.5 142.5t85 111.5t138.5 45q90 0 140 -54.5t50 -146.5q0 -56 -15.5 -108t-45 -95t-79.5 -69t-112 -26q-88 0 -138 54t-50 146zM286 437q-88 0 -138 -75t-50 -167q0 -74 36.5 -115.5t99.5 -41.5q61 0 105.5 38.5t64 93t19.5 113.5q0 72 -37 113t-100 41z
" />
    <glyph glyph-name="pi" unicode="&#x3c0;" horiz-adv-x="619" 
d="M453 427h-224l-91 -427h-58l91 427h-119l10 49h571l-10 -49h-112l-66 -308q-6 -29 -6 -44q0 -20 10 -29t35 -9q30 0 64 16l-11 -51q-32 -14 -76 -14q-85 0 -85 62q0 19 8 53z" />
    <glyph glyph-name="rho" unicode="&#x3c1;" horiz-adv-x="539" 
d="M438 281q0 71 -33.5 113.5t-98.5 42.5q-61 0 -104.5 -41t-61.5 -96t-18 -113q0 -72 31.5 -111t95.5 -39q58 0 102.5 38.5t65.5 93t21 112.5zM-22 -190l91 428q53 249 242 249q84 0 135 -52.5t51 -145.5q0 -123 -67.5 -212t-178.5 -89q-67 0 -105.5 34.5t-45.5 83.5h-2
q-11 -65 -19 -101l-43 -195h-58z" />
    <glyph glyph-name="sigma1" unicode="&#x3c2;" horiz-adv-x="459" 
d="M212 -3q-89 10 -130 54t-41 138q0 76 27 142.5t85 111t136 44.5q75 0 120 -38.5t58 -102.5l-52 -20q-9 52 -42.5 82t-88.5 30q-59 0 -103 -38t-64 -92.5t-20 -113.5q0 -78 33.5 -108t94.5 -40l24.5 -3.5l24.5 -3.5t21.5 -3.5t21 -5.5t17 -7.5t15.5 -10.5t10.5 -13.5
t7.5 -18t2 -22.5q0 -53 -44 -122h-58q44 68 44 105q0 29 -24.5 40.5t-74.5 15.5z" />
    <glyph glyph-name="sigma" unicode="&#x3c3;" horiz-adv-x="538" 
d="M40 184q0 155 97 235q70 57 185 57h250l-10 -49h-48q-74 0 -105 1l-1 -2q69 -54 69 -153q0 -72 -27.5 -136t-85.5 -106.5t-136 -42.5q-89 0 -138.5 52.5t-49.5 143.5zM283 427q-87 0 -136.5 -73t-49.5 -164q0 -73 36 -112.5t99 -39.5q89 0 139 73.5t50 164.5
q0 71 -37 111t-101 40z" />
    <glyph glyph-name="tau" unicode="&#x3c4;" horiz-adv-x="399" 
d="M302 50l-10 -50q-35 -11 -74 -11q-91 0 -91 64q0 13 5 38l72 336h-155l10 49h371l-10 -49h-158l-67 -313q-5 -25 -5 -39q0 -20 11.5 -28.5t39.5 -8.5q35 0 61 12z" />
    <glyph glyph-name="upsilon" unicode="&#x3c5;" horiz-adv-x="511" 
d="M212 38q56 0 97.5 28t63.5 74.5t32.5 97t10.5 105.5q0 74 -19 133h58q17 -59 17 -132q0 -157 -66.5 -257t-203.5 -100q-152 0 -152 118q0 36 10 75l62 296h58l-60 -288q-9 -41 -9 -67q0 -83 101 -83z" />
    <glyph glyph-name="phi" unicode="&#x3c6;" horiz-adv-x="667" 
d="M304 -9l-33 -153h-56l33 156q-94 10 -149.5 64.5t-55.5 145.5q0 125 78.5 204t231.5 81l24 115h56l-24 -118q98 -10 156.5 -64.5t58.5 -148.5q0 -129 -84 -204.5t-236 -77.5zM569 268q0 74 -45 120t-124 54l-87 -408q116 2 186 64t70 170zM99 210q0 -75 41 -119t117 -54
l86 406q-112 -2 -178 -64.5t-66 -168.5z" />
    <glyph glyph-name="chi" unicode="&#x3c7;" horiz-adv-x="490" 
d="M397 -190h-60l-118 302l-235 -302h-65l277 353l-123 313h60l103 -269l213 269h66l-257 -319z" />
    <glyph glyph-name="psi" unicode="&#x3c8;" horiz-adv-x="620" 
d="M363 613h57l-122 -576q65 0 111 26t70 71.5t34.5 96.5t10.5 112q0 70 -18 133h58q17 -59 17 -132q0 -76 -14.5 -137.5t-47.5 -111.5t-91.5 -77.5t-139.5 -27.5l-34 -152h-58l34 152q-93 0 -136.5 28.5t-43.5 88.5q0 41 9 76l63 293h58l-61 -286q-9 -43 -9 -68
q0 -45 31.5 -65t98.5 -19z" />
    <glyph glyph-name="omega" unicode="&#x3c9;" horiz-adv-x="745" 
d="M329 182l44 208h59l-44 -206q-7 -35 -7 -60q0 -89 84 -89q51 0 88.5 31.5t56.5 83t28 104t9 106.5q0 62 -14 116h58q13 -58 13 -118q0 -69 -12.5 -131.5t-39 -118t-75.5 -88.5t-115 -33q-112 0 -123 96h-2q-43 -96 -155 -96q-140 0 -140 163q0 75 30 164t79 162h58
q-111 -172 -111 -318q0 -123 97 -123q101 0 134 147z" />
    <glyph glyph-name="iotadieresis" unicode="&#x3ca;" horiz-adv-x="226" 
d="M161 40l-10 -46q-18 -5 -42 -5q-71 0 -71 55q0 13 6 43l82 389h58l-79 -375q-5 -25 -5 -35q0 -30 35 -30q17 0 26 4zM46 560l20 91h62l-20 -91h-62zM233 560l20 91h62l-20 -91h-62z" />
    <glyph glyph-name="upsilondieresis" unicode="&#x3cb;" horiz-adv-x="511" 
d="M212 38q56 0 97.5 28t63.5 74.5t32.5 97t10.5 105.5q0 74 -19 133h58q17 -59 17 -132q0 -157 -66.5 -257t-203.5 -100q-152 0 -152 118q0 36 10 75l62 296h58l-60 -288q-9 -41 -9 -67q0 -83 101 -83zM173 560l20 91h62l-20 -91h-62zM360 560l20 91h62l-20 -91h-62z" />
    <glyph glyph-name="omicrontonos" unicode="&#x3cc;" horiz-adv-x="523" 
d="M41 188q0 76 26.5 142.5t85 111.5t138.5 45q90 0 140 -54.5t50 -146.5q0 -56 -15.5 -108t-45 -95t-79.5 -69t-112 -26q-88 0 -138 54t-50 146zM286 437q-88 0 -138 -75t-50 -167q0 -74 36.5 -115.5t99.5 -41.5q61 0 105.5 38.5t64 93t19.5 113.5q0 72 -37 113t-100 41z
M331 552h-52l95 128h73z" />
    <glyph glyph-name="upsilontonos" unicode="&#x3cd;" horiz-adv-x="511" 
d="M212 38q56 0 97.5 28t63.5 74.5t32.5 97t10.5 105.5q0 74 -19 133h58q17 -59 17 -132q0 -157 -66.5 -257t-203.5 -100q-152 0 -152 118q0 36 10 75l62 296h58l-60 -288q-9 -41 -9 -67q0 -83 101 -83zM305 552h-52l95 128h73z" />
    <glyph glyph-name="omegatonos" unicode="&#x3ce;" horiz-adv-x="745" 
d="M329 182l44 208h59l-44 -206q-7 -35 -7 -60q0 -89 84 -89q51 0 88.5 31.5t56.5 83t28 104t9 106.5q0 62 -14 116h58q13 -58 13 -118q0 -69 -12.5 -131.5t-39 -118t-75.5 -88.5t-115 -33q-112 0 -123 96h-2q-43 -96 -155 -96q-140 0 -140 163q0 75 30 164t79 162h58
q-111 -172 -111 -318q0 -123 97 -123q101 0 134 147zM463 552h-52l95 128h73z" />
    <glyph glyph-name="uni0400" unicode="&#x400;" horiz-adv-x="586" 
d="M611 625h-380l-52 -246h344l-11 -55h-345l-57 -270h402l-11 -54h-463l144 680h441zM444 752h-51l-115 128h75z" />
    <glyph glyph-name="uni0401" unicode="&#x401;" horiz-adv-x="586" 
d="M611 625h-380l-52 -246h344l-11 -55h-345l-57 -270h402l-11 -54h-463l144 680h441zM280 762l20 91h62l-20 -91h-62zM467 762l20 91h62l-20 -91h-62z" />
    <glyph glyph-name="uni0402" unicode="&#x402;" horiz-adv-x="718" 
d="M93 625l10 55h529l-12 -55h-308l-50 -236h184q98 0 149 -25q77 -38 77 -139q0 -119 -76 -176q-63 -49 -186 -49h-128l12 55h121q94 0 144.5 38t50.5 128q0 62 -39.5 87t-121.5 25h-199l-71 -333h-60l132 625h-158z" />
    <glyph glyph-name="uni0403" unicode="&#x403;" horiz-adv-x="528" 
d="M605 680l-12 -56h-361l-133 -624h-61l145 680h422zM403 752h-51l91 128h75z" />
    <glyph glyph-name="uni0404" unicode="&#x404;" horiz-adv-x="643" 
d="M556 192l49 -28q-43 -81 -113 -128.5t-167 -47.5q-122 0 -190 76.5t-68 208.5q0 108 38 201.5t118 155.5t188 62q95 0 158.5 -49t84.5 -133l-55 -27q-15 73 -64 114t-127 41q-107 0 -176 -74t-93 -185h350l-12 -54h-346q-3 -22 -3 -47q0 -112 52.5 -174t150.5 -62
q77 0 135 41.5t90 108.5z" />
    <glyph glyph-name="uni0405" unicode="&#x405;" horiz-adv-x="581" 
d="M574 562l-47 -35q-60 110 -199 110q-73 0 -118.5 -31.5t-45.5 -89.5q0 -51 31 -78.5t95 -49.5l66 -22q40 -14 66 -26t55 -33t44 -50.5t15 -68.5q0 -88 -62.5 -144t-181.5 -56q-101 0 -170 47t-94 125l49 36q22 -73 78.5 -113.5t139.5 -40.5q85 0 132.5 36t47.5 102
q0 51 -35.5 80t-100.5 50l-92 31q-144 47 -144 168q0 84 61 133.5t166 49.5q84 0 148 -35.5t96 -94.5z" />
    <glyph glyph-name="uni0406" unicode="&#x406;" horiz-adv-x="238" 
d="M182 680h61l-145 -680h-60z" />
    <glyph glyph-name="uni0407" unicode="&#x407;" horiz-adv-x="238" 
d="M182 680h61l-145 -680h-60zM106 762l20 91h62l-20 -91h-62zM293 762l20 91h62l-20 -91h-62z" />
    <glyph glyph-name="uni0408" unicode="&#x408;" horiz-adv-x="492" 
d="M441 680h61l-97 -451q-23 -107 -47 -149q-53 -92 -177 -92q-85 0 -132 43t-47 121q0 18 2 31l63 19q-4 -20 -4 -41q0 -55 30 -87.5t91 -32.5q72 0 106 44t54 140z" />
    <glyph glyph-name="uni0409" unicode="&#x409;" horiz-adv-x="1039" 
d="M246 613l14 67h427l-62 -291h149q98 0 149 -25q77 -38 77 -139q0 -119 -76 -176q-63 -49 -186 -49h-256l132 624h-306l-21 -99q-22 -103 -38.5 -169.5t-37 -132.5t-40.5 -103.5t-46.5 -68.5t-58.5 -43.5t-73 -12.5q-15 0 -33 2l11 51q14 -2 24 -2q91 0 136.5 117
t114.5 450zM554 55h189q94 0 144.5 38t50.5 128q0 62 -39.5 87t-121.5 25h-164z" />
    <glyph glyph-name="uni040A" unicode="&#x40a;" horiz-adv-x="1029" 
d="M472 0l70 333h-373l-71 -333h-60l144 680h61l-62 -291h373l62 291h61l-62 -291h149q98 0 149 -25q77 -38 77 -139q0 -119 -76 -176q-63 -49 -186 -49h-256zM603 333l-59 -278h189q94 0 144.5 38t50.5 128q0 62 -39.5 87t-121.5 25h-164z" />
    <glyph glyph-name="uni040B" unicode="&#x40b;" horiz-adv-x="725" 
d="M144 0l133 625h-186l12 55h516l-12 -55h-270l-50 -238q87 50 203 50q192 0 192 -137q0 -23 -12 -83l-46 -217h-61l45 210q10 46 10 72q0 101 -146 101q-64 0 -116.5 -17.5t-81.5 -38.5l-69 -327h-61z" />
    <glyph glyph-name="uni040C" unicode="&#x40c;" horiz-adv-x="624" 
d="M691 626h-31q-48 0 -80 -26t-62 -75l-34 -52q-33 -50 -60 -77t-62 -44l201 -352h-72l-187 331q-28 -7 -111 -7h-26l-69 -324h-60l144 680h61l-65 -309h18q69 0 110.5 13t67.5 38t64 81l27 40q22 32 30 44t29 35t37.5 32t43 17.5t58.5 8.5h39zM432 752h-51l91 128h75z" />
    <glyph glyph-name="uni040E" unicode="&#x40e;" horiz-adv-x="554" 
d="M241 146l-141 534h62l65 -261q4 -18 15 -61t20.5 -83t15.5 -73q28 48 71.5 115t64.5 101l160 262h67l-370 -587q-39 -61 -84 -82.5t-108 -21.5q-29 0 -51 6l10 50q24 -6 48 -6q45 0 80 20.5t69 76.5zM387 758q-53 0 -88 21t-35 65q0 12 3 26h48q-3 -12 -3 -21
q0 -51 74 -51q46 0 72.5 15.5t28.5 56.5h48q-11 -112 -148 -112z" />
    <glyph glyph-name="uni040F" unicode="&#x40f;" horiz-adv-x="672" 
d="M38 0l145 680h61l-133 -624h373l132 624h61l-145 -680h-217l-36 -169h-59l36 169h-218z" />
    <glyph glyph-name="uni0410" unicode="&#x410;" horiz-adv-x="584" 
d="M137 198l-113 -198h-63l390 680h67l105 -680h-60l-29 198h-297zM427 251l-23 163q-22 141 -30 209h-2q-7 -13 -103 -189l-102 -183h260z" />
    <glyph glyph-name="uni0411" unicode="&#x411;" horiz-adv-x="633" 
d="M38 0l144 680h438l-12 -55h-377l-50 -236h184q98 0 149 -25q77 -38 77 -139q0 -119 -76 -176q-63 -49 -186 -49h-291zM169 333l-59 -278h224q94 0 144.5 38t50.5 128q0 62 -39.5 87t-121.5 25h-199z" />
    <glyph glyph-name="uni0412" unicode="&#x412;" horiz-adv-x="671" 
d="M331 0h-293l145 680h255q109 0 161 -39q49 -38 49 -111q0 -67 -34 -114.5t-108 -60.5v-2q106 -28 106 -143q0 -111 -86 -171q-59 -39 -195 -39zM381 327h-213l-57 -274h245q195 0 195 160q0 36 -13 59.5t-38 35t-52.5 15.5t-66.5 4zM179 378h218q93 0 142 33.5t49 114.5
q0 56 -39 78t-110 22h-206z" />
    <glyph glyph-name="uni0413" unicode="&#x413;" horiz-adv-x="528" 
d="M605 680l-12 -56h-361l-133 -624h-61l145 680h422z" />
    <glyph glyph-name="uni0414" unicode="&#x414;" horiz-adv-x="667" 
d="M509 0h-489l-36 -169h-58l48 223h42q70 33 112 151.5t104 404.5l15 70h417l-133 -625h50l-48 -224h-60zM470 54l121 570h-296l-18 -81q-55 -241 -91 -345.5t-93 -144.5q35 1 114 1h263z" />
    <glyph glyph-name="uni0415" unicode="&#x415;" horiz-adv-x="586" 
d="M611 625h-380l-52 -246h344l-11 -55h-345l-57 -270h402l-11 -54h-463l144 680h441z" />
    <glyph glyph-name="uni0416" unicode="&#x416;" horiz-adv-x="963" 
d="M547 680h60l-65 -310q73 0 110 9t67 36t69 88l25 40q23 37 36.5 55.5t36.5 41t51 31.5t65 9h37l-11 -54h-31q-32 0 -58 -16.5t-39.5 -34.5t-36.5 -54l-27 -43q-35 -57 -62 -83.5t-65 -45.5l189 -349h-69l-176 332q-42 -9 -121 -9l-69 -323h-60l69 323q-77 0 -117 9
l-314 -332h-74l337 356q-47 31 -68 123l-8 34q-6 29 -11 45t-15 34t-26 26t-40 8h-37l12 54h30q37 0 62 -10t39.5 -31.5t22 -41t15.5 -53.5l10 -41q20 -84 55.5 -108.5t135.5 -24.5z" />
    <glyph glyph-name="uni0417" unicode="&#x417;" horiz-adv-x="589" 
d="M28 185l57 16q6 -80 56 -120.5t135 -40.5q89 0 142.5 40.5t53.5 114.5q0 139 -243 139h-19l10 48h32q59 0 101.5 6t79 20.5t55.5 42.5t19 70q0 54 -42.5 86t-116.5 32q-77 0 -127 -35.5t-63 -100.5l-53 16q13 73 76 123t172 50q102 0 158 -46.5t56 -115.5q0 -76 -49 -121
t-127 -51v-1q64 -15 102.5 -56.5t38.5 -105.5q0 -92 -65.5 -149.5t-190.5 -57.5q-115 0 -178 51.5t-70 145.5z" />
    <glyph glyph-name="uni0418" unicode="&#x418;" horiz-adv-x="677" 
d="M278 287l345 393h59l-145 -680h-60l66 310q55 252 61 274h-2q-22 -28 -126 -152l-379 -432h-59l145 680h61l-67 -316q-31 -145 -60 -265h2q22 24 83 97.5t76 90.5z" />
    <glyph glyph-name="uni0419" unicode="&#x419;" horiz-adv-x="677" 
d="M278 287l345 393h59l-145 -680h-60l66 310q55 252 61 274h-2q-22 -28 -126 -152l-379 -432h-59l145 680h61l-67 -316q-31 -145 -60 -265h2q22 24 83 97.5t76 90.5zM449 758q-53 0 -88 21t-35 65q0 12 3 26h48q-3 -12 -3 -21q0 -51 74 -51q46 0 72.5 15.5t28.5 56.5h48
q-11 -112 -148 -112z" />
    <glyph glyph-name="uni041A" unicode="&#x41a;" horiz-adv-x="624" 
d="M691 626h-31q-48 0 -80 -26t-62 -75l-34 -52q-33 -50 -60 -77t-62 -44l201 -352h-72l-187 331q-28 -7 -111 -7h-26l-69 -324h-60l144 680h61l-65 -309h18q69 0 110.5 13t67.5 38t64 81l27 40q22 32 30 44t29 35t37.5 32t43 17.5t58.5 8.5h39z" />
    <glyph glyph-name="uni041B" unicode="&#x41b;" horiz-adv-x="682" 
d="M-40 -3l11 51q14 -2 24 -2q91 0 136.5 117t114.5 450l14 67h427l-145 -680h-60l132 624h-306l-21 -99q-22 -103 -38.5 -169.5t-37 -132.5t-40.5 -103.5t-46.5 -68.5t-58.5 -43.5t-73 -12.5q-15 0 -33 2z" />
    <glyph glyph-name="uni041C" unicode="&#x41c;" horiz-adv-x="770" 
d="M609 438l-244 -438h-60l-55 400q-21 158 -25 222h-2q-30 -173 -34 -191l-92 -431h-59l145 680h87l52 -399q9 -60 18 -134t9 -76h2q9 16 50.5 91t70.5 129l215 389h88l-145 -680h-59l95 442q12 66 46 188h-2q-29 -61 -101 -192z" />
    <glyph glyph-name="uni041D" unicode="&#x41d;" horiz-adv-x="669" 
d="M613 680h61l-145 -680h-60l68 324h-370l-69 -324h-60l144 680h61l-64 -300h370z" />
    <glyph glyph-name="uni041E" unicode="&#x41e;" horiz-adv-x="701" 
d="M67 272q0 80 23 154.5t65 134.5t109.5 95.5t150.5 35.5q122 0 192 -74.5t70 -203.5q0 -109 -38 -204t-119.5 -158.5t-192.5 -63.5q-124 0 -192 76t-68 208zM410 638q-69 0 -124.5 -32.5t-88.5 -85t-50.5 -115.5t-17.5 -128q0 -110 52.5 -173t150.5 -63q89 0 155.5 57.5
t97 139t30.5 169.5q0 108 -53 169.5t-152 61.5z" />
    <glyph glyph-name="uni041F" unicode="&#x41f;" horiz-adv-x="682" 
d="M687 680l-145 -680h-60l132 623h-383l-133 -623h-60l144 680h505z" />
    <glyph glyph-name="uni0420" unicode="&#x420;" horiz-adv-x="618" 
d="M174 356h202q99 0 141 29q63 43 63 134q0 69 -68 95q-33 11 -98 11h-183zM370 300h-208l-64 -300h-60l144 680h236q99 0 151 -28q72 -40 72 -128q0 -138 -105 -195q-55 -29 -166 -29z" />
    <glyph glyph-name="uni0421" unicode="&#x421;" horiz-adv-x="643" 
d="M556 192l49 -28q-43 -80 -113.5 -128t-166.5 -48q-122 0 -190 76.5t-68 208.5q0 108 38.5 201.5t119 155.5t187.5 62q95 0 159.5 -49.5t83.5 -132.5l-54 -27q-14 72 -64 113.5t-128 41.5q-68 0 -123 -32t-88.5 -84.5t-51 -114.5t-17.5 -127q0 -113 52.5 -175.5
t150.5 -62.5q78 0 135 41t89 109z" />
    <glyph glyph-name="uni0422" unicode="&#x422;" horiz-adv-x="530" 
d="M244 0h-60l132 625h-223l13 55h504l-12 -55h-221z" />
    <glyph glyph-name="uni0423" unicode="&#x423;" horiz-adv-x="554" 
d="M241 146l-141 534h62l65 -261q4 -18 15 -61t20.5 -83t15.5 -73q28 48 71.5 115t64.5 101l160 262h67l-370 -587q-39 -61 -84 -82.5t-108 -21.5q-29 0 -51 6l10 50q24 -6 48 -6q45 0 80 20.5t69 76.5z" />
    <glyph glyph-name="uni0424" unicode="&#x424;" horiz-adv-x="725" 
d="M282 0l17 84q-110 13 -171.5 72t-61.5 158q0 130 89.5 218.5t258.5 92.5l18 82h60l-18 -84q106 -13 170 -71t64 -156q0 -132 -90.5 -222t-258.5 -92l-18 -82h-59zM647 392q0 76 -47.5 123.5t-136.5 58.5l-94 -441q137 4 207.5 77t70.5 182zM127 323q0 -83 47 -131
t135 -58l95 442q-133 -4 -205 -75t-72 -178z" />
    <glyph glyph-name="uni0425" unicode="&#x425;" horiz-adv-x="589" 
d="M533 0h-68l-152 312l-287 -312h-75l335 360l-158 320h66l136 -280l254 280h76l-304 -328z" />
    <glyph glyph-name="uni0426" unicode="&#x426;" horiz-adv-x="676" 
d="M549 -169h-59l37 169h-489l144 680h61l-133 -624h364l132 624h61l-133 -625h63z" />
    <glyph glyph-name="uni0427" unicode="&#x427;" horiz-adv-x="618" 
d="M623 680l-145 -680h-60l62 295q-87 -50 -203 -50q-192 0 -192 137q0 23 12 83l46 215h61l-45 -208q-10 -46 -10 -72q0 -101 146 -101q64 0 116.5 17.5t81.5 38.5l69 325h61z" />
    <glyph glyph-name="uni0428" unicode="&#x428;" horiz-adv-x="971" 
d="M976 680l-145 -680h-793l145 680h61l-133 -624h305l133 624h61l-133 -624h305l133 624h61z" />
    <glyph glyph-name="uni0429" unicode="&#x429;" horiz-adv-x="983" 
d="M38 0l145 680h61l-133 -624h305l133 624h61l-133 -624h305l133 624h61l-133 -624h58l-48 -225h-59l37 169h-793z" />
    <glyph glyph-name="uni042A" unicode="&#x42a;" horiz-adv-x="688" 
d="M336 680l-62 -292h149q100 0 149 -24q77 -38 77 -139q0 -119 -76 -176q-63 -49 -186 -49h-256l132 626h-169l13 54h229zM262 332l-59 -276h189q94 0 144.5 37.5t50.5 127.5q0 61 -39.5 86t-121.5 25h-164z" />
    <glyph glyph-name="uni042B" unicode="&#x42b;" horiz-adv-x="831" 
d="M38 0l144 680h61l-62 -291h149q98 0 149 -25q77 -38 77 -139q0 -119 -76 -176q-63 -49 -186 -49h-256zM169 333l-59 -278h189q94 0 144.5 38t50.5 128q0 62 -39.5 87t-121.5 25h-164zM775 680h61l-145 -680h-60z" />
    <glyph glyph-name="uni042C" unicode="&#x42c;" horiz-adv-x="595" 
d="M38 0l144 680h61l-62 -291h149q98 0 149 -25q77 -38 77 -139q0 -119 -76 -176q-63 -49 -186 -49h-256zM169 333l-59 -278h189q94 0 144.5 38t50.5 128q0 62 -39.5 87t-121.5 25h-164z" />
    <glyph glyph-name="uni042D" unicode="&#x42d;" horiz-adv-x="636" 
d="M128 502l-47 30q89 160 268 160q125 0 193 -75.5t68 -212.5q0 -107 -36 -199.5t-113.5 -154.5t-183.5 -62q-97 0 -159 46t-86 129l55 25q18 -70 66.5 -108.5t125.5 -38.5q110 0 179.5 82.5t84.5 199.5h-352l12 54h345v18q0 117 -51.5 179.5t-154.5 62.5q-137 0 -214 -135
z" />
    <glyph glyph-name="uni042E" unicode="&#x42e;" horiz-adv-x="944" 
d="M351 272q0 14 2 52h-186l-69 -324h-60l144 680h61l-64 -300h183q26 135 107 223.5t208 88.5q112 0 177 -75t65 -203q0 -81 -21.5 -156t-61 -136t-104 -97.5t-143.5 -36.5q-114 0 -176 76t-62 208zM672 638q-85 0 -146 -56t-88 -136t-27 -169q0 -110 47.5 -173t135.5 -63
q50 0 93.5 22t74 58.5t52.5 84t32.5 98.5t10.5 103q0 108 -48 169.5t-137 61.5z" />
    <glyph glyph-name="uni042F" unicode="&#x42f;" horiz-adv-x="635" 
d="M353 680h287l-145 -680h-60l64 299h-174l-263 -299h-76l271 306q-70 4 -114 42.5t-44 113.5q0 108 72 166q63 52 182 52zM160 466q0 -65 45.5 -89t139.5 -24h165l57 272h-215q-90 0 -140 -38q-52 -40 -52 -121z" />
    <glyph glyph-name="uni0430" unicode="&#x430;" horiz-adv-x="488" 
d="M281 485q71 0 114 -26.5t43 -83.5q0 -22 -9 -69l-44 -208q-4 -20 -4 -32q0 -32 38 -32q12 0 24 3l-8 -42q-9 -4 -36 -4q-72 0 -72 61q0 9 1 16h-2q-22 -34 -66.5 -57t-98.5 -23q-67 0 -106.5 33t-39.5 92q0 34 13.5 60t32 41t50.5 27t56.5 17t62.5 11l37 6q33 5 49.5 9
t34.5 13.5t25 26t7 42.5q0 73 -105 73q-65 0 -101 -26.5t-48 -81.5l-53 9q30 145 205 145zM174 32q62 0 109.5 37t61.5 103l19 89q-19 -14 -101 -29l-31 -5q-81 -15 -119 -39t-38 -73q0 -41 26.5 -62t72.5 -21z" />
    <glyph glyph-name="uni0431" unicode="&#x431;" horiz-adv-x="536" 
d="M55 195q0 99 36 202.5t99 162.5q28 26 68.5 42.5t65.5 20.5t74 10q6 1 18.5 2t18 1.5t15.5 1.5t15 2t13 3t12.5 4.5t9.5 6t8.5 8t5.5 9.5h50q-3 -13 -7.5 -23.5t-12 -18.5t-12.5 -14t-17.5 -10.5t-17.5 -7t-21.5 -5t-21 -3.5t-24 -3t-24.5 -2q-67 -6 -111.5 -20.5
t-74.5 -43t-47 -60t-37 -86.5h3q56 100 177 100q82 0 129.5 -50t47.5 -141q0 -120 -65.5 -207.5t-183.5 -87.5q-92 0 -140.5 54.5t-48.5 152.5zM300 430q-86 0 -137 -74.5t-51 -165.5q0 -72 36 -112t99 -40q90 0 140 74t50 168q0 69 -36.5 109.5t-100.5 40.5z" />
    <glyph glyph-name="uni0432" unicode="&#x432;" horiz-adv-x="525" 
d="M259 0h-232l102 476h202q74 0 110 -24q40 -27 40 -83q0 -100 -101 -123q36 -10 55.5 -37t19.5 -66q0 -82 -61 -116q-49 -27 -135 -27zM282 224h-151l-38 -180h169q71 0 102 25t31 78q0 44 -30 60.5t-83 16.5zM140 266h151q132 0 132 98q0 67 -100 67h-148z" />
    <glyph glyph-name="uni0433" unicode="&#x433;" horiz-adv-x="384" 
d="M417 476l-10 -49h-230l-91 -427h-59l102 476h288z" />
    <glyph glyph-name="uni0434" unicode="&#x434;" horiz-adv-x="528" 
d="M382 0h-364l-29 -137h-58l39 183h35q57 28 88.5 101t74.5 269l13 60h307l-91 -430h52l-39 -183h-57zM226 427l-13 -61q-30 -139 -59.5 -214.5t-73.5 -104.5v-2q48 2 88 2h170l81 380h-193z" />
    <glyph glyph-name="uni0435" unicode="&#x435;" horiz-adv-x="512" 
d="M467 232h-368q-2 -24 -2 -37q0 -74 35.5 -116t105.5 -42q114 0 168 105l42 -27q-30 -55 -83.5 -91t-129.5 -36q-90 0 -142 52.5t-52 152.5q0 121 67 207.5t183 86.5q90 0 135.5 -54.5t45.5 -141.5q0 -24 -5 -59zM107 278h304q2 14 2 25q0 62 -33 99.5t-94 37.5
q-72 0 -117.5 -46t-61.5 -116z" />
    <glyph glyph-name="uni0436" unicode="&#x436;" horiz-adv-x="719" 
d="M84 427h-23l10 49h26q51 0 71.5 -23t32.5 -70l7 -26q15 -58 41.5 -74.5t88.5 -18.5l46 212h56l-46 -214q64 0 99.5 22t69.5 77l13 22q27 47 58 70t85 23h26l-10 -49h-18q-35 0 -57.5 -19.5t-44.5 -55.5l-12 -20q-43 -66 -87 -88l137 -244h-66l-122 224q-41 -6 -79 -6
l-47 -218h-57l47 218q-52 0 -75 6l-216 -224h-70l239 248q-19 16 -29 37t-21 59l-5 18q-10 37 -22.5 51t-45.5 14z" />
    <glyph glyph-name="uni0437" unicode="&#x437;" horiz-adv-x="470" 
d="M111 333l-52 10q9 61 60.5 102.5t141.5 41.5q83 0 128.5 -33.5t45.5 -86.5q0 -56 -36.5 -86.5t-94.5 -34.5v-2q42 -9 70 -36.5t28 -71.5q0 -73 -58 -111t-147 -38q-87 0 -136 37t-51 103l54 13q6 -105 136 -105q62 0 102.5 24.5t40.5 77.5q0 44 -46 66.5t-109 22.5h-31
l9 43h67q62 0 103.5 20.5t41.5 67.5q0 39 -34.5 60t-88.5 21q-66 0 -101.5 -30.5t-42.5 -74.5z" />
    <glyph glyph-name="uni0438" unicode="&#x438;" horiz-adv-x="543" 
d="M221 220l227 256h67l-101 -476h-57l33 155q2 7 8 37.5t18.5 84.5t31.5 133h-2q-23 -31 -146 -173l-207 -237h-66l101 476h58l-49 -234l-38 -169h2q80 104 120 147z" />
    <glyph glyph-name="uni0439" unicode="&#x439;" horiz-adv-x="543" 
d="M332 537q-53 0 -88 21t-35 65q0 12 3 26h48q-3 -12 -3 -21q0 -51 74 -51q46 0 72.5 15.5t28.5 56.5h48q-11 -112 -148 -112zM221 220l227 256h67l-101 -476h-57l33 155q2 7 8 37.5t18.5 84.5t31.5 133h-2q-23 -31 -146 -173l-207 -237h-66l101 476h58l-49 -234l-38 -169
h2q80 104 120 147z" />
    <glyph glyph-name="uni043A" unicode="&#x43a;" horiz-adv-x="483" 
d="M188 476l-47 -213q68 0 102.5 21t72.5 74l23 32q22 30 37 45.5t45 29t69 13.5h29l-11 -50h-17q-39 0 -66.5 -20t-53.5 -59l-12 -18q-35 -53 -79 -83l145 -248h-67l-130 227q-32 -10 -72 -10h-24l-46 -217h-59l102 476h59z" />
    <glyph glyph-name="uni043B" unicode="&#x43b;" horiz-adv-x="553" 
d="M-41 -5l10 45q14 -2 27 -2q74 0 104.5 73.5t78.5 318.5l9 46h337l-101 -476h-60l91 427h-222l-16 -78q-12 -58 -19 -88.5t-17.5 -73t-18.5 -63.5t-21 -48t-25.5 -38.5t-30.5 -24.5t-39 -17t-48 -4q-30 0 -39 3z" />
    <glyph glyph-name="uni043C" unicode="&#x43c;" horiz-adv-x="626" 
d="M288 0h-49l-48 302q-7 48 -18 134h-2q-2 -10 -14.5 -75t-23.5 -118l-51 -243h-55l101 476h84l34 -210q3 -21 14.5 -97.5t15.5 -103.5h2q13 24 53 95t48 85l133 231h86l-101 -476h-55l51 241q22 106 45 194h-2q-2 -3 -28.5 -53t-42.5 -77z" />
    <glyph glyph-name="uni043D" unicode="&#x43d;" horiz-adv-x="540" 
d="M128 476h59l-43 -201h267l43 201h58l-101 -476h-59l48 228h-266l-48 -228h-59z" />
    <glyph glyph-name="uni043E" unicode="&#x43e;" horiz-adv-x="523" 
d="M41 188q0 76 26.5 142.5t85 111.5t138.5 45q90 0 140 -54.5t50 -146.5q0 -56 -15.5 -108t-45 -95t-79.5 -69t-112 -26q-88 0 -138 54t-50 146zM286 437q-88 0 -138 -75t-50 -167q0 -74 36.5 -115.5t99.5 -41.5q61 0 105.5 38.5t64 93t19.5 113.5q0 72 -37 113t-100 41z
" />
    <glyph glyph-name="uni043F" unicode="&#x43f;" horiz-adv-x="529" 
d="M128 476h373l-101 -476h-59l91 428h-255l-91 -428h-59z" />
    <glyph glyph-name="uni0440" unicode="&#x440;" horiz-adv-x="547" 
d="M45 -190h-58l141 666h59l-21 -89h2q23 43 65.5 71.5t101.5 28.5q75 0 123 -52t48 -143q0 -123 -68 -213.5t-178 -90.5q-66 0 -104.5 34t-47.5 84q-2 0 -32 -150zM316 438q-60 0 -104 -41.5t-63 -97t-19 -112.5q0 -71 32 -111t95 -40q85 0 137 77t52 169q0 69 -33.5 112.5
t-96.5 43.5z" />
    <glyph glyph-name="uni0441" unicode="&#x441;" horiz-adv-x="483" 
d="M466 351l-52 -21q-22 108 -131 108q-86 0 -136 -75t-50 -168q0 -76 36.5 -117t98.5 -41q105 0 155 106l46 -26q-65 -129 -205 -129q-88 0 -137.5 53t-49.5 147q0 121 66.5 210t180.5 89q72 0 117.5 -36.5t60.5 -99.5z" />
    <glyph glyph-name="uni0442" unicode="&#x442;" horiz-adv-x="453" 
d="M54 428l11 48h423l-10 -48h-183l-89 -428h-60l92 428h-184z" />
    <glyph glyph-name="uni0443" unicode="&#x443;" horiz-adv-x="438" 
d="M469 476l-330 -575q-29 -50 -61 -74.5t-82 -24.5q-25 0 -53 10l11 51q17 -11 43 -11q20 0 36.5 7.5t32 26t23.5 30.5t24 40q5 8 7 12l19 33l-69 475h60l25 -191q25 -189 28 -216q26 58 93 171l131 236h62z" />
    <glyph glyph-name="uni0444" unicode="&#x444;" horiz-adv-x="834" 
d="M296 -190l32 148q6 32 17 71.5t16 58.5h-1q-54 -100 -168 -100q-69 0 -110 50t-41 144q0 123 62.5 216t164.5 93q117 0 148 -108h1q9 47 35 163l29 134h58l-30 -136q-6 -31 -19.5 -85t-17.5 -71h1q23 42 65.5 71t101.5 29q69 0 110.5 -52t41.5 -144q0 -123 -62 -213.5
t-165 -90.5q-115 0 -148 106l-2 1q-4 -23 -29 -137l-31 -148h-59zM393 290q0 72 -30 112t-91 40q-53 0 -93.5 -39t-59.5 -95t-19 -115q0 -73 28 -115t84 -42q58 0 101 42t61.5 98t18.5 114zM732 282q0 72 -28 114.5t-84 42.5q-58 0 -101 -42t-61.5 -97.5t-18.5 -112.5
q0 -152 122 -152q78 0 124.5 77t46.5 170z" />
    <glyph glyph-name="uni0445" unicode="&#x445;" horiz-adv-x="434" 
d="M250 244l120 -244h-64l-96 203l-179 -203h-69l225 250l-108 226h62l86 -187l162 187h69z" />
    <glyph glyph-name="uni0446" unicode="&#x446;" horiz-adv-x="524" 
d="M405 -140h-58l30 140h-350l101 476h60l-91 -427h236l91 427h60l-91 -427h52z" />
    <glyph glyph-name="uni0447" unicode="&#x447;" horiz-adv-x="493" 
d="M465 476l-101 -476h-58l41 190q-62 -28 -147 -28q-76 0 -112 26t-36 84q0 24 9 69l29 135h59l-27 -127q-8 -40 -8 -59q0 -44 26.5 -61.5t85.5 -17.5q77 0 131 29l51 236h57z" />
    <glyph glyph-name="uni0448" unicode="&#x448;" horiz-adv-x="746" 
d="M617 0h-590l101 476h60l-91 -427h205l91 427h60l-91 -427h205l91 427h60z" />
    <glyph glyph-name="uni0449" unicode="&#x449;" horiz-adv-x="758" 
d="M27 0l101 476h60l-91 -427h205l91 427h60l-91 -427h205l91 427h60l-91 -427h52l-40 -189h-58l30 140h-584z" />
    <glyph glyph-name="uni044A" unicode="&#x44a;" horiz-adv-x="519" 
d="M63 476h191l-39 -182h88q168 0 168 -125q0 -169 -195 -169h-181l91 427h-133zM205 248l-43 -202h114q138 0 138 119q0 42 -27.5 62.5t-89.5 20.5h-92z" />
    <glyph glyph-name="uni044B" unicode="&#x44b;" horiz-adv-x="668" 
d="M129 476h57l-39 -182h88q168 0 168 -125q0 -169 -195 -169h-181zM137 248l-43 -202h114q138 0 138 119q0 42 -27.5 62.5t-89.5 20.5h-92zM640 476l-101 -476h-57l100 476h58z" />
    <glyph glyph-name="uni044C" unicode="&#x44c;" horiz-adv-x="451" 
d="M129 476h57l-39 -182h88q168 0 168 -125q0 -169 -195 -169h-181zM137 248l-43 -202h114q138 0 138 119q0 42 -27.5 62.5t-89.5 20.5h-92z" />
    <glyph glyph-name="uni044D" unicode="&#x44d;" horiz-adv-x="482" 
d="M140 220l10 45h233q4 82 -32 127.5t-105 45.5q-95 0 -150 -97l-46 26q29 53 80 87t121 34q88 0 138.5 -54t50.5 -148q0 -77 -26.5 -143.5t-84.5 -110.5t-137 -44q-72 0 -117 35.5t-61 95.5l53 21q27 -102 129 -102q73 0 119 52t62 130h-237z" />
    <glyph glyph-name="uni044E" unicode="&#x44e;" horiz-adv-x="742" 
d="M271 188q0 30 2 40h-139l-48 -228h-59l101 476h59l-42 -201h136q22 93 81 152.5t152 59.5q88 0 137 -54.5t49 -146.5q0 -119 -64.5 -208.5t-183.5 -89.5q-85 0 -133 54t-48 146zM509 437q-86 0 -134 -75t-48 -167q0 -74 35 -115.5t95 -41.5t103.5 38.5t62.5 93t19 113.5
q0 73 -35.5 113.5t-97.5 40.5z" />
    <glyph glyph-name="uni044F" unicode="&#x44f;" horiz-adv-x="501" 
d="M313 0l42 199h-126l-171 -199h-72l180 204q-100 19 -100 116q0 80 55 121q50 35 136 35h216l-101 -476h-59zM243 248h123l38 181h-152q-126 0 -126 -101q0 -44 26.5 -62t90.5 -18z" />
    <glyph glyph-name="uni0450" unicode="&#x450;" horiz-adv-x="512" 
d="M467 232h-368q-2 -24 -2 -37q0 -74 35.5 -116t105.5 -42q114 0 168 105l42 -27q-30 -55 -83.5 -91t-129.5 -36q-90 0 -142 52.5t-52 152.5q0 121 67 207.5t183 86.5q90 0 135.5 -54.5t45.5 -141.5q0 -24 -5 -59zM107 278h304q2 14 2 25q0 62 -33 99.5t-94 37.5
q-72 0 -117.5 -46t-61.5 -116zM341 552h-52l-120 128h74z" />
    <glyph glyph-name="uni0451" unicode="&#x451;" horiz-adv-x="512" 
d="M467 232h-368q-2 -24 -2 -37q0 -74 35.5 -116t105.5 -42q114 0 168 105l42 -27q-30 -55 -83.5 -91t-129.5 -36q-90 0 -142 52.5t-52 152.5q0 121 67 207.5t183 86.5q90 0 135.5 -54.5t45.5 -141.5q0 -24 -5 -59zM107 278h304q2 14 2 25q0 62 -33 99.5t-94 37.5
q-72 0 -117.5 -46t-61.5 -116zM173 560l20 91h62l-20 -91h-62zM360 560l20 91h62l-20 -91h-62z" />
    <glyph glyph-name="uni0452" unicode="&#x452;" horiz-adv-x="529" 
d="M336 -53l70 326q9 45 9 71q0 46 -23 69.5t-75 23.5q-70 0 -115.5 -52.5t-59.5 -119.5l-56 -265h-59l118 552h-82l11 49h81l17 79h59l-17 -79h169l-10 -49h-170l-16 -76q-16 -71 -21 -89h2q23 42 67 71t104 29q62 0 99 -32.5t37 -98.5q0 -33 -9 -75l-73 -341
q-18 -83 -46 -112t-85 -29q-40 0 -72 10l13 52q26 -11 54 -11q34 0 50 18t29 79z" />
    <glyph glyph-name="uni0453" unicode="&#x453;" horiz-adv-x="384" 
d="M417 476l-10 -49h-230l-91 -427h-59l102 476h288zM279 552h-52l95 128h73z" />
    <glyph glyph-name="uni0454" unicode="&#x454;" horiz-adv-x="483" 
d="M466 351l-52 -21q-22 108 -131 108q-71 0 -117.5 -50t-61.5 -123h227l-10 -47h-223q-1 -8 -1 -23q0 -76 36.5 -117t98.5 -41q105 0 155 106l46 -26q-65 -129 -205 -129q-88 0 -137.5 53t-49.5 147q0 121 66.5 210t180.5 89q72 0 117.5 -36.5t60.5 -99.5z" />
    <glyph glyph-name="uni0455" unicode="&#x455;" horiz-adv-x="445" 
d="M412 395l-42 -33q-48 76 -138 76q-47 0 -77 -21t-30 -58q0 -32 19.5 -49t63.5 -33l61 -22q28 -10 43.5 -17.5t35.5 -22t29.5 -35t9.5 -48.5q0 -66 -47 -105t-131 -39q-77 0 -126.5 33.5t-68.5 87.5l44 30q15 -46 54.5 -73.5t97.5 -27.5q59 0 90 24t31 65q0 31 -22 48
t-68 34l-65 23q-24 9 -39 16t-33 21t-27 35.5t-9 49.5q0 61 46.5 97t119.5 36q124 0 178 -92z" />
    <glyph glyph-name="uni0456" unicode="&#x456;" horiz-adv-x="214" 
d="M186 476l-101 -476h-58l100 476h59zM230 680l-21 -98h-60l22 98h59z" />
    <glyph glyph-name="uni0457" unicode="&#x457;" horiz-adv-x="213" 
d="M185 476l-101 -476h-57l100 476h58zM30 560l20 91h62l-20 -91h-62zM217 560l20 91h62l-20 -91h-62z" />
    <glyph glyph-name="uni0458" unicode="&#x458;" horiz-adv-x="222" 
d="M136 476h59l-115 -536q-18 -83 -46 -112t-85 -29q-40 0 -72 10l13 52q26 -11 54 -11q34 0 50 18t29 79zM239 680l-22 -98h-59l21 98h60z" />
    <glyph glyph-name="uni0459" unicode="&#x459;" horiz-adv-x="789" 
d="M741 169q0 -169 -195 -169h-182l91 427h-222l-16 -78q-12 -58 -19 -88.5t-17.5 -73t-18.5 -63.5t-21 -48t-25.5 -38.5t-30.5 -24.5t-39 -17t-48 -4q-30 0 -39 3l10 45q14 -2 27 -2q74 0 104.5 73.5t78.5 318.5l9 46h337l-37 -175h87q166 0 166 -132zM569 255h-90
l-45 -209h112q138 0 138 119q0 46 -26.5 68t-88.5 22z" />
    <glyph glyph-name="uni045A" unicode="&#x45a;" horiz-adv-x="772" 
d="M450 476h57l-38 -176h88q167 0 167 -131q0 -169 -195 -169h-181l54 254h-263l-53 -254h-59l101 476h59l-37 -176h262zM459 254l-44 -208h114q138 0 138 119q0 45 -27 67t-89 22h-92z" />
    <glyph glyph-name="uni045B" unicode="&#x45b;" horiz-adv-x="529" 
d="M27 0l118 554h-76l10 52h77l16 74h59l-16 -74h161l-10 -52h-162l-17 -78q-16 -71 -21 -89h2q23 42 67 71t104 29q62 0 99 -32.5t37 -98.5q0 -33 -9 -75l-60 -281h-59l59 273q9 45 9 71q0 46 -23 69.5t-75 23.5q-70 0 -115.5 -52.5t-59.5 -119.5l-56 -265h-59z" />
    <glyph glyph-name="uni045C" unicode="&#x45c;" horiz-adv-x="483" 
d="M188 476l-47 -213q68 0 102.5 21t72.5 74l23 32q22 30 37 45.5t45 29t69 13.5h29l-11 -50h-17q-39 0 -66.5 -20t-53.5 -59l-12 -18q-35 -53 -79 -83l145 -248h-67l-130 227q-32 -10 -72 -10h-24l-46 -217h-59l102 476h59zM325 552h-52l95 128h73z" />
    <glyph glyph-name="uni045D" unicode="&#x45d;" horiz-adv-x="543" 
d="M221 220l227 256h67l-101 -476h-57l33 155q2 7 8 37.5t18.5 84.5t31.5 133h-2q-23 -31 -146 -173l-207 -237h-66l101 476h58l-49 -234l-38 -169h2q80 104 120 147zM373 552h-52l-120 128h74z" />
    <glyph glyph-name="uni045E" unicode="&#x45e;" horiz-adv-x="438" 
d="M469 476l-330 -575q-29 -50 -61 -74.5t-82 -24.5q-25 0 -53 10l11 51q17 -11 43 -11q20 0 36.5 7.5t32 26t23.5 30.5t24 40q5 8 7 12l19 33l-69 475h60l25 -191q25 -189 28 -216q26 58 93 171l131 236h62zM277 537q-53 0 -88 21t-35 65q0 12 3 26h48q-3 -12 -3 -21
q0 -51 74 -51q46 0 72.5 15.5t28.5 56.5h48q-11 -112 -148 -112z" />
    <glyph glyph-name="uni045F" unicode="&#x45f;" horiz-adv-x="531" 
d="M27 0l102 476h59l-91 -428h255l92 428h59l-101 -476h-159l-30 -140h-56l30 140h-160z" />
    <glyph glyph-name="uni0462" unicode="&#x462;" horiz-adv-x="664" 
d="M474 625h-174l-50 -236h149q98 0 149 -25q77 -38 77 -139q0 -119 -76 -176q-63 -49 -186 -49h-256l132 625h-146l11 55h148l27 128h61l-27 -128h173zM238 333l-59 -278h189q94 0 144.5 38t50.5 128q0 62 -39.5 87t-121.5 25h-164z" />
    <glyph glyph-name="uni0463" unicode="&#x463;" horiz-adv-x="530" 
d="M231 586h58l-24 -111h160l-10 -48h-160l-29 -133h88q168 0 168 -125q0 -169 -195 -169h-181l91 427h-144l10 49h144zM216 248l-43 -202h114q138 0 138 119q0 42 -27.5 62.5t-89.5 20.5h-92z" />
    <glyph glyph-name="uni046A" unicode="&#x46a;" horiz-adv-x="824" 
d="M389 420l-135 260h504l-239 -260h83q89 0 137 -23t48 -91q0 -26 -10 -74l-50 -232h-60l49 230q8 38 8 60t-8 37t-20 23t-33.5 12.5t-39 5.5t-46.5 1h-106l-78 -369h-61l79 369h-119q-89 0 -126.5 -25t-55.5 -102l-52 -242h-60l54 255q21 97 76 131t161 34h100zM345 628
l105 -211l191 211h-296z" />
    <glyph glyph-name="uni046B" unicode="&#x46b;" horiz-adv-x="635" 
d="M276 295l-99 181h380l-169 -181h67q65 0 98 -17.5t33 -62.5q0 -19 -8 -57l-33 -158h-59l34 160q5 27 5 39q0 31 -22.5 41.5t-71.5 10.5h-79l-54 -251h-59l53 251h-78q-64 0 -90.5 -17t-38.5 -71l-35 -163h-59l38 176q15 72 55 95.5t121 23.5h71zM257 433l74 -141l125 141
h-199z" />
    <glyph glyph-name="uni0472" unicode="&#x472;" horiz-adv-x="701" 
d="M67 272q0 80 23 154.5t65 134.5t109.5 95.5t150.5 35.5q122 0 192 -74.5t70 -203.5q0 -109 -38 -204t-119.5 -158.5t-192.5 -63.5q-124 0 -192 76t-68 208zM332 41q111 0 183 82t94 200h-480q-2 -11 -2 -46q0 -110 53 -173t152 -63zM410 638q-110 0 -179.5 -74
t-93.5 -186h479q0 4 0.5 15t0.5 17q0 106 -53.5 167t-153.5 61z" />
    <glyph glyph-name="uni0473" unicode="&#x473;" horiz-adv-x="523" 
d="M41 188q0 77 26.5 143.5t85 111.5t138.5 45q90 0 140 -54.5t50 -147.5q0 -56 -15.5 -108t-45 -95t-79.5 -69t-112 -26q-88 0 -138 54t-50 146zM234 38q73 0 120.5 52t63.5 129h-321q-1 -8 -1 -24q0 -74 37 -115.5t101 -41.5zM286 438q-71 0 -118 -49t-64 -122h320
q1 5 1 19q0 73 -37 112.5t-102 39.5z" />
    <glyph glyph-name="uni0474" unicode="&#x474;" horiz-adv-x="651" 
d="M168 680l55 -466q9 -69 14 -146h2q23 50 76 145l174 313q25 47 41.5 71t40.5 48t53 33t69 9q13 0 27 -2l-11 -53q-7 1 -16 1q-48 0 -75 -22t-61 -82l-297 -529h-74l-81 680h63z" />
    <glyph glyph-name="uni0475" unicode="&#x475;" horiz-adv-x="505" 
d="M386 337l-194 -337h-60l-64 476h59l28 -218q5 -37 11.5 -100t9.5 -87h2q35 71 82 153l91 158q29 53 60.5 75t85.5 22q14 0 28 -2l-11 -45q-50 0 -71.5 -16.5t-56.5 -78.5z" />
    <glyph glyph-name="uni048C" unicode="&#x48c;" horiz-adv-x="658" 
d="M469 625h-174l-50 -236h149q98 0 149 -25q77 -38 77 -139q0 -119 -76 -176q-63 -49 -186 -49h-256l132 625h-146l11 55h148l27 128h61l-27 -128h173zM233 333l-59 -278h189q94 0 144.5 38t50.5 128q0 62 -39.5 87t-121.5 25h-164z" />
    <glyph glyph-name="uni048D" unicode="&#x48d;" horiz-adv-x="530" 
d="M231 586h58l-24 -111h160l-10 -48h-160l-29 -133h88q168 0 168 -125q0 -169 -195 -169h-181l91 427h-144l10 49h144zM216 248l-43 -202h114q138 0 138 119q0 42 -27.5 62.5t-89.5 20.5h-92z" />
    <glyph glyph-name="uni0490" unicode="&#x490;" horiz-adv-x="538" 
d="M233 624l-133 -624h-62l144 680h374l36 169h59l-48 -225h-370z" />
    <glyph glyph-name="uni0491" unicode="&#x491;" horiz-adv-x="385" 
d="M27 0l101 476h232l30 138h58l-40 -187h-229l-91 -427h-61z" />
    <glyph glyph-name="uni0492" unicode="&#x492;" horiz-adv-x="544" 
d="M22 320l11 50h98l66 310h423l-12 -56h-360l-54 -254h179l-11 -50h-179l-68 -320h-63l68 320h-98z" />
    <glyph glyph-name="uni0493" unicode="&#x493;" horiz-adv-x="404" 
d="M4 208l8 42h86l48 226h287l-10 -49h-226l-38 -177h154l-9 -42h-154l-44 -208h-61l44 208h-85z" />
    <glyph glyph-name="uni0496" unicode="&#x496;" horiz-adv-x="988" 
d="M547 680h60l-65 -310q73 0 110 9t67 36t69 88l25 40q23 37 36.5 55.5t36.5 41t51 31.5t65 9h37l-11 -54h-31q-32 0 -58 -16.5t-39.5 -34.5t-36.5 -54l-27 -43q-35 -57 -62 -83.5t-65 -45.5l158 -293h69l-48 -225h-61l36 169h-34l-176 332q-42 -9 -121 -9l-69 -323h-60
l69 323q-77 0 -117 9l-314 -332h-74l337 356q-47 31 -68 123l-8 34q-6 29 -11 45t-15 34t-26 26t-40 8h-37l12 54h30q37 0 62 -10t39.5 -31.5t22 -41t15.5 -53.5l10 -41q20 -84 55.5 -108.5t135.5 -24.5z" />
    <glyph glyph-name="uni0497" unicode="&#x497;" horiz-adv-x="732" 
d="M84 427h-23l10 49h26q51 0 71.5 -23t32.5 -70l7 -26q15 -58 41.5 -74.5t88.5 -18.5l46 212h56l-46 -214q64 0 99.5 22t69.5 77l13 22q27 47 58 70t85 23h26l-10 -49h-18q-35 0 -57.5 -19.5t-44.5 -55.5l-12 -20q-43 -66 -87 -88l109 -195h50l-40 -189h-58l29 140h-19
l-122 224q-27 -6 -79 -6l-47 -218h-57l47 218q-52 0 -75 6l-216 -224h-70l239 248q-19 16 -29 37t-21 59l-5 18q-10 37 -22.5 51t-45.5 14z" />
    <glyph glyph-name="uni0498" unicode="&#x498;" horiz-adv-x="589" 
d="M249 -169h-58l34 160q-91 11 -141 61.5t-56 132.5l57 16q6 -80 56 -120.5t135 -40.5q89 0 142.5 40.5t53.5 114.5q0 139 -243 139h-19l10 48h32q59 0 101.5 6t79 20.5t55.5 42.5t19 70q0 54 -42.5 86t-116.5 32q-77 0 -127 -35.5t-63 -100.5l-53 16q13 73 76 123t172 50
q102 0 158 -46.5t56 -115.5q0 -76 -49 -121t-127 -51v-1q64 -15 102.5 -56.5t38.5 -105.5q0 -91 -63.5 -148t-186.5 -59z" />
    <glyph glyph-name="uni0499" unicode="&#x499;" horiz-adv-x="470" 
d="M192 -137h-58l27 126q-70 8 -109.5 43.5t-41.5 94.5l54 13q6 -105 136 -105q62 0 102.5 24.5t40.5 77.5q0 44 -46 66.5t-109 22.5h-31l9 43h67q62 0 103.5 20.5t41.5 67.5q0 39 -34.5 60t-88.5 21q-66 0 -101.5 -30.5t-42.5 -74.5l-52 10q9 61 60.5 102.5t141.5 41.5
q83 0 128.5 -33.5t45.5 -86.5q0 -56 -36.5 -86.5t-94.5 -34.5v-2q42 -9 70 -36.5t28 -71.5q0 -69 -51.5 -106.5t-132.5 -41.5z" />
    <glyph glyph-name="uni049A" unicode="&#x49a;" horiz-adv-x="652" 
d="M602 55l-48 -224h-59l36 169h-40l-187 331q-28 -7 -111 -7h-26l-69 -324h-60l144 680h61l-65 -309h18q69 0 110.5 13t67.5 38t64 81l27 40q22 32 30 44t29 35t37.5 32t43 17.5t58.5 8.5h39l-11 -54h-31q-48 0 -80 -26t-62 -75l-34 -52q-33 -50 -60 -77t-62 -44l170 -297
h70z" />
    <glyph glyph-name="uni049B" unicode="&#x49b;" horiz-adv-x="490" 
d="M188 476l-47 -213q67 0 97 20t69 75l23 32q22 30 37 45.5t45 29t69 13.5h32l-11 -50h-20q-39 0 -66.5 -20t-53.5 -59l-12 -18q-35 -53 -79 -83l115 -197h52l-41 -191h-58l31 140h-21l-130 227q-32 -10 -72 -10h-15l-46 -217h-59l102 476h59z" />
    <glyph glyph-name="uni049C" unicode="&#x49c;" horiz-adv-x="624" 
d="M691 626h-31q-48 0 -80 -26t-62 -75l-34 -52q-33 -50 -60 -77t-62 -44l201 -352h-72l-187 331l-19 -3l-36 -172h-46l35 168h-45h-26l-69 -324h-60l144 680h61l-65 -309h18q42 0 52 2l38 176h46l-36 -169q44 11 73.5 37.5t68.5 85.5l27 40q22 32 30 44t29 35t37.5 32
t43 17.5t58.5 8.5h39z" />
    <glyph glyph-name="uni049D" unicode="&#x49d;" horiz-adv-x="523" 
d="M188 476l-45 -213h38h15l29 134h41l-28 -129q39 8 63 28t55 62l23 32q22 30 37 45.5t44.5 29t69.5 13.5h29l-11 -50h-17q-39 0 -66.5 -20t-53.5 -59l-12 -18q-35 -53 -79 -83l145 -248h-67l-130 227q-20 -5 -40 -9l-27 -127h-42l27 126h-54l-46 -217h-59l102 476h59z" />
    <glyph glyph-name="uni04A0" unicode="&#x4a0;" horiz-adv-x="755" 
d="M94 624l11 56h269l-65 -309h18q69 0 110.5 13t67.5 38t64 81l27 40q22 32 30 44t29 35t37.5 32t43 17.5t58.5 8.5h39l-11 -54h-31q-48 0 -80 -26t-62 -75l-34 -52q-33 -50 -60 -77t-62 -44l201 -352h-72l-187 331q-28 -7 -111 -7h-26l-69 -324h-61l133 624h-207z" />
    <glyph glyph-name="uni04A1" unicode="&#x4a1;" horiz-adv-x="554" 
d="M266 476l-47 -213q67 0 97 20t69 75l23 32q22 30 37 45.5t45 29t69 13.5h32l-11 -50h-20q-39 0 -66.5 -20t-53.5 -59l-12 -18q-35 -53 -79 -83l145 -248h-67l-130 227q-32 -10 -72 -10h-15l-46 -217h-59l91 427h-141l11 49h200z" />
    <glyph glyph-name="uni04A2" unicode="&#x4a2;" horiz-adv-x="687" 
d="M613 680h61l-133 -624h70l-48 -225h-61l36 169h-69l68 324h-370l-69 -324h-60l144 680h61l-64 -300h370z" />
    <glyph glyph-name="uni04A3" unicode="&#x4a3;" horiz-adv-x="544" 
d="M342 0l48 226h-254l-48 -226h-61l101 476h61l-43 -200h254l43 200h61l-91 -427h52l-40 -189h-58l30 140h-55z" />
    <glyph glyph-name="uni04A4" unicode="&#x4a4;" horiz-adv-x="836" 
d="M182 680h60l-63 -300h401l63 300h269l-12 -56h-206l-132 -624h-63l69 324h-401l-69 -324h-60z" />
    <glyph glyph-name="uni04A5" unicode="&#x4a5;" horiz-adv-x="632" 
d="M665 476l-11 -49h-160l-91 -427h-61l48 226h-254l-48 -226h-61l102 476h61l-43 -200h254l43 200h221z" />
    <glyph glyph-name="uni04AA" unicode="&#x4aa;" horiz-adv-x="643" 
d="M272 -169h-58l36 166q-89 22 -136 93.5t-47 182.5q0 108 38.5 201.5t119 155.5t187.5 62q95 0 159.5 -49.5t83.5 -132.5l-54 -27q-14 72 -64 113.5t-128 41.5q-68 0 -123 -32t-88.5 -84.5t-51 -114.5t-17.5 -127q0 -113 52.5 -175.5t150.5 -62.5q78 0 135 41t89 109
l49 -28q-43 -80 -113.5 -128t-166.5 -48q-12 0 -19 1z" />
    <glyph glyph-name="uni04AB" unicode="&#x4ab;" horiz-adv-x="483" 
d="M214 -137h-58l28 129q-69 13 -106 63.5t-37 132.5q0 121 66.5 210t180.5 89q72 0 117.5 -36.5t60.5 -99.5l-52 -21q-22 108 -131 108q-86 0 -136 -75t-50 -168q0 -76 36.5 -117t98.5 -41q105 0 155 106l46 -26q-26 -54 -75.5 -90t-117.5 -38z" />
    <glyph glyph-name="uni04AE" unicode="&#x4ae;" horiz-adv-x="572" 
d="M265 0h-61l60 284l-159 396h62l139 -341l282 341h70l-334 -399z" />
    <glyph glyph-name="uni04AF" unicode="&#x4af;" horiz-adv-x="439" 
d="M469 476l-273 -475l-41 -191h-59l41 192l-67 474h60l34 -252q9 -70 18 -152h2q38 73 80 149l142 255h63z" />
    <glyph glyph-name="uni04B0" unicode="&#x4b0;" horiz-adv-x="580" 
d="M269 0h-61l47 225h-167l10 48h167l3 11l-159 396h62l139 -341l282 341h70l-334 -399l-2 -8h164l-10 -48h-164z" />
    <glyph glyph-name="uni04B1" unicode="&#x4b1;" horiz-adv-x="443" 
d="M472 476l-261 -453h141l-10 -43h-148l-36 -170h-59l36 170h-142l9 43h135l-64 453h60l34 -252q9 -70 18 -152h2q38 73 80 149l142 255h63z" />
    <glyph glyph-name="uni04B2" unicode="&#x4b2;" horiz-adv-x="612" 
d="M465 0l-152 312l-287 -312h-75l335 360l-158 320h66l136 -280l254 280h76l-304 -328l149 -296h65l-48 -225h-61l36 169h-32z" />
    <glyph glyph-name="uni04B3" unicode="&#x4b3;" horiz-adv-x="452" 
d="M250 244l96 -195h53l-40 -189h-58l30 140h-25l-96 203l-179 -203h-69l225 250l-108 226h62l86 -187l162 187h69z" />
    <glyph glyph-name="uni04B6" unicode="&#x4b6;" horiz-adv-x="634" 
d="M623 680l-133 -624h65l-48 -225h-59l36 169h-66l62 295q-87 -50 -203 -50q-192 0 -192 137q0 23 12 83l46 215h61l-45 -208q-10 -46 -10 -72q0 -101 146 -101q64 0 116.5 17.5t81.5 38.5l69 325h61z" />
    <glyph glyph-name="uni04B7" unicode="&#x4b7;" horiz-adv-x="505" 
d="M465 476l-91 -428h52l-40 -188h-56l30 140h-54l41 190q-62 -28 -147 -28q-76 0 -112 26t-36 84q0 24 9 69l29 135h59l-27 -127q-8 -40 -8 -59q0 -44 26.5 -61.5t85.5 -17.5q77 0 131 29l51 236h57z" />
    <glyph glyph-name="uni04B8" unicode="&#x4b8;" horiz-adv-x="628" 
d="M369 473l-38 -174q105 6 172 55l69 326h61l-145 -680h-60l62 295q-74 -43 -171 -50l-34 -164h-47l35 163q-177 5 -177 137q0 25 12 85l46 214h61l-45 -209q-10 -42 -10 -72q0 -95 125 -100l37 174h47z" />
    <glyph glyph-name="uni04B9" unicode="&#x4b9;" horiz-adv-x="503" 
d="M284 350l-31 -140q68 5 113 29l50 237h59l-101 -476h-59l41 189q-51 -22 -113 -27l-25 -118h-42l25 117q-70 2 -104.5 28.5t-34.5 82.5q0 24 9 69l29 135h59l-28 -128q-8 -40 -8 -60q0 -38 21.5 -56t67.5 -20l30 138h42z" />
    <glyph glyph-name="uni04BA" unicode="&#x4ba;" horiz-adv-x="618" 
d="M182 680h61l-64 -296q91 52 205 52q191 0 191 -137q0 -39 -12 -85l-46 -214h-60l44 209q10 57 10 73q0 100 -145 100q-117 0 -199 -58l-69 -324h-60z" />
    <glyph glyph-name="uni04BB" unicode="&#x4bb;" horiz-adv-x="529" 
d="M27 0l145 680h59l-44 -204q-16 -71 -21 -89h2q23 42 67 71t104 29q62 0 99 -32.5t37 -98.5q0 -33 -9 -75l-60 -281h-59l59 273q9 45 9 71q0 46 -23 69.5t-75 23.5q-70 0 -115.5 -52.5t-59.5 -119.5l-56 -265h-59z" />
    <glyph glyph-name="uni04C0" unicode="&#x4c0;" horiz-adv-x="238" 
d="M182 680h61l-145 -680h-60z" />
    <glyph glyph-name="uni04C1" unicode="&#x4c1;" horiz-adv-x="963" 
d="M547 680h60l-65 -310q73 0 110 9t67 36t69 88l25 40q23 37 36.5 55.5t36.5 41t51 31.5t65 9h37l-11 -54h-31q-32 0 -58 -16.5t-39.5 -34.5t-36.5 -54l-27 -43q-35 -57 -62 -83.5t-65 -45.5l189 -349h-69l-176 332q-42 -9 -121 -9l-69 -323h-60l69 323q-77 0 -117 9
l-314 -332h-74l337 356q-47 31 -68 123l-8 34q-6 29 -11 45t-15 34t-26 26t-40 8h-37l12 54h30q37 0 62 -10t39.5 -31.5t22 -41t15.5 -53.5l10 -41q20 -84 55.5 -108.5t135.5 -24.5zM596 758q-53 0 -88 21t-35 65q0 12 3 26h48q-3 -12 -3 -21q0 -51 74 -51q46 0 72.5 15.5
t28.5 56.5h48q-11 -112 -148 -112z" />
    <glyph glyph-name="uni04C2" unicode="&#x4c2;" horiz-adv-x="719" 
d="M84 427h-23l10 49h26q51 0 71.5 -23t32.5 -70l7 -26q15 -58 41.5 -74.5t88.5 -18.5l46 212h56l-46 -214q64 0 99.5 22t69.5 77l13 22q27 47 58 70t85 23h26l-10 -49h-18q-35 0 -57.5 -19.5t-44.5 -55.5l-12 -20q-43 -66 -87 -88l137 -244h-66l-122 224q-41 -6 -79 -6
l-47 -218h-57l47 218q-52 0 -75 6l-216 -224h-70l239 248q-19 16 -29 37t-21 59l-5 18q-10 37 -22.5 51t-45.5 14zM430 537q-53 0 -88 21t-35 65q0 12 3 26h48q-3 -12 -3 -21q0 -51 74 -51q46 0 72.5 15.5t28.5 56.5h48q-11 -112 -148 -112z" />
    <glyph glyph-name="uni04CF" unicode="&#x4cf;" horiz-adv-x="214" 
d="M186 476l-101 -476h-57l100 476h58z" />
    <glyph glyph-name="uni04D0" unicode="&#x4d0;" horiz-adv-x="584" 
d="M137 198l-113 -198h-63l390 680h67l105 -680h-60l-29 198h-297zM427 251l-23 163q-22 141 -30 209h-2q-7 -13 -103 -189l-102 -183h260zM399 758q-53 0 -88 21t-35 65q0 12 3 26h48q-3 -12 -3 -21q0 -51 74 -51q46 0 72.5 15.5t28.5 56.5h48q-11 -112 -148 -112z" />
    <glyph glyph-name="uni04D1" unicode="&#x4d1;" horiz-adv-x="488" 
d="M281 485q71 0 114 -26.5t43 -83.5q0 -22 -9 -69l-44 -208q-4 -20 -4 -32q0 -32 38 -32q12 0 24 3l-8 -42q-9 -4 -36 -4q-72 0 -72 61q0 9 1 16h-2q-22 -34 -66.5 -57t-98.5 -23q-67 0 -106.5 33t-39.5 92q0 34 13.5 60t32 41t50.5 27t56.5 17t62.5 11l37 6q33 5 49.5 9
t34.5 13.5t25 26t7 42.5q0 73 -105 73q-65 0 -101 -26.5t-48 -81.5l-53 9q30 145 205 145zM174 32q62 0 109.5 37t61.5 103l19 89q-19 -14 -101 -29l-31 -5q-81 -15 -119 -39t-38 -73q0 -41 26.5 -62t72.5 -21zM301 537q-53 0 -88 21t-35 65q0 12 3 26h48q-3 -12 -3 -21
q0 -51 74 -51q46 0 72.5 15.5t28.5 56.5h48q-11 -112 -148 -112z" />
    <glyph glyph-name="uni04D2" unicode="&#x4d2;" horiz-adv-x="584" 
d="M137 198l-113 -198h-63l390 680h67l105 -680h-60l-29 198h-297zM427 251l-23 163q-22 141 -30 209h-2q-7 -13 -103 -189l-102 -183h260zM261 762l20 91h62l-20 -91h-62zM448 762l20 91h62l-20 -91h-62z" />
    <glyph glyph-name="uni04D3" unicode="&#x4d3;" horiz-adv-x="488" 
d="M281 485q71 0 114 -26.5t43 -83.5q0 -22 -9 -69l-44 -208q-4 -20 -4 -32q0 -32 38 -32q12 0 24 3l-8 -42q-9 -4 -36 -4q-72 0 -72 61q0 9 1 16h-2q-22 -34 -66.5 -57t-98.5 -23q-67 0 -106.5 33t-39.5 92q0 34 13.5 60t32 41t50.5 27t56.5 17t62.5 11l37 6q33 5 49.5 9
t34.5 13.5t25 26t7 42.5q0 73 -105 73q-65 0 -101 -26.5t-48 -81.5l-53 9q30 145 205 145zM174 32q62 0 109.5 37t61.5 103l19 89q-19 -14 -101 -29l-31 -5q-81 -15 -119 -39t-38 -73q0 -41 26.5 -62t72.5 -21zM179 560l20 91h62l-20 -91h-62zM366 560l20 91h62l-20 -91h-62
z" />
    <glyph glyph-name="uni04D4" unicode="&#x4d4;" horiz-adv-x="887" 
d="M362 0l43 201h-240l-156 -201h-69l530 680h454l-11 -55h-359l-53 -246h325l-11 -55h-325l-57 -270h380l-11 -54h-440zM416 254l81 377h-2q-7 -9 -32.5 -44t-49.5 -67.5t-40 -51.5l-167 -214h210z" />
    <glyph glyph-name="uni04D5" unicode="&#x4d5;" horiz-adv-x="825" 
d="M780 232h-368q-2 -24 -2 -37q0 -74 35.5 -116t105.5 -42q114 0 168 105l42 -27q-30 -55 -83.5 -91t-129.5 -36q-140 0 -177 123h-2q-12 -20 -18 -29.5t-25.5 -30.5t-39 -32t-53 -21t-72.5 -10q-67 0 -106.5 33t-39.5 92q0 34 13.5 60t32 41t50.5 27t56.5 17t62.5 11l37 6
q33 5 49.5 9t34.5 13.5t25 26t7 42.5q0 73 -105 73q-65 0 -101 -26.5t-48 -81.5l-53 9q30 145 205 145q129 0 150 -82q68 84 173 84q90 0 135.5 -54.5t45.5 -141.5q0 -24 -5 -59zM174 32q62 0 109.5 37t61.5 103l19 89q-19 -14 -101 -29l-31 -5q-81 -15 -119 -39t-38 -73
q0 -41 26.5 -62t72.5 -21zM420 278h306q0 2 0.5 8t0.5 8q0 65 -31.5 105.5t-96.5 40.5q-72 0 -117.5 -46t-61.5 -116z" />
    <glyph glyph-name="uni04D6" unicode="&#x4d6;" horiz-adv-x="586" 
d="M611 625h-380l-52 -246h344l-11 -55h-345l-57 -270h402l-11 -54h-463l144 680h441zM417 758q-53 0 -88 21t-35 65q0 12 3 26h48q-3 -12 -3 -21q0 -51 74 -51q46 0 72.5 15.5t28.5 56.5h48q-11 -112 -148 -112z" />
    <glyph glyph-name="uni04D7" unicode="&#x4d7;" horiz-adv-x="512" 
d="M467 232h-368q-2 -24 -2 -37q0 -74 35.5 -116t105.5 -42q114 0 168 105l42 -27q-30 -55 -83.5 -91t-129.5 -36q-90 0 -142 52.5t-52 152.5q0 121 67 207.5t183 86.5q90 0 135.5 -54.5t45.5 -141.5q0 -24 -5 -59zM107 278h304q2 14 2 25q0 62 -33 99.5t-94 37.5
q-72 0 -117.5 -46t-61.5 -116zM309 537q-53 0 -88 21t-35 65q0 12 3 26h48q-3 -12 -3 -21q0 -51 74 -51q46 0 72.5 15.5t28.5 56.5h48q-11 -112 -148 -112z" />
    <glyph glyph-name="uni04D8" unicode="&#x4d8;" horiz-adv-x="693" 
d="M69 340h534q5 32 5 57q0 113 -56 176.5t-163 63.5q-164 0 -244 -150l-45 33q42 74 114.5 123t177.5 49q128 0 202 -74t74 -217q0 -109 -39.5 -201.5t-120.5 -151.5t-189 -59q-127 0 -191.5 76.5t-64.5 198.5q0 36 6 76zM595 291h-468q-1 -9 -1 -24q0 -101 48 -164
t150 -63q109 0 179 72.5t92 178.5z" />
    <glyph glyph-name="uni04D9" unicode="&#x4d9;" horiz-adv-x="512" 
d="M44 243h368q2 24 2 37q0 74 -35.5 116t-105.5 42q-114 0 -168 -105l-42 27q30 55 83.5 91t129.5 36q90 0 142 -52.5t52 -152.5q0 -121 -67 -207.5t-183 -86.5q-90 0 -135.5 54.5t-45.5 141.5q0 24 5 59zM404 197h-306q0 -3 -0.5 -8t-0.5 -8q0 -65 31.5 -105.5t96.5 -40.5
q72 0 117.5 46t61.5 116z" />
    <glyph glyph-name="uni04DA" unicode="&#x4da;" horiz-adv-x="693" 
d="M69 340h534q5 32 5 57q0 113 -56 176.5t-163 63.5q-164 0 -244 -150l-45 33q42 74 114.5 123t177.5 49q128 0 202 -74t74 -217q0 -109 -39.5 -201.5t-120.5 -151.5t-189 -59q-127 0 -191.5 76.5t-64.5 198.5q0 36 6 76zM595 291h-468q-1 -9 -1 -24q0 -101 48 -164
t150 -63q109 0 179 72.5t92 178.5zM281 762l20 91h62l-20 -91h-62zM468 762l20 91h62l-20 -91h-62z" />
    <glyph glyph-name="uni04DB" unicode="&#x4db;" horiz-adv-x="512" 
d="M44 243h368q2 24 2 37q0 74 -35.5 116t-105.5 42q-114 0 -168 -105l-42 27q30 55 83.5 91t129.5 36q90 0 142 -52.5t52 -152.5q0 -121 -67 -207.5t-183 -86.5q-90 0 -135.5 54.5t-45.5 141.5q0 24 5 59zM404 197h-306q0 -3 -0.5 -8t-0.5 -8q0 -65 31.5 -105.5t96.5 -40.5
q72 0 117.5 46t61.5 116zM159 560l20 91h62l-20 -91h-62zM346 560l20 91h62l-20 -91h-62z" />
    <glyph glyph-name="uni04DC" unicode="&#x4dc;" horiz-adv-x="963" 
d="M547 680h60l-65 -310q73 0 110 9t67 36t69 88l25 40q23 37 36.5 55.5t36.5 41t51 31.5t65 9h37l-11 -54h-31q-32 0 -58 -16.5t-39.5 -34.5t-36.5 -54l-27 -43q-35 -57 -62 -83.5t-65 -45.5l189 -349h-69l-176 332q-42 -9 -121 -9l-69 -323h-60l69 323q-77 0 -117 9
l-314 -332h-74l337 356q-47 31 -68 123l-8 34q-6 29 -11 45t-15 34t-26 26t-40 8h-37l12 54h30q37 0 62 -10t39.5 -31.5t22 -41t15.5 -53.5l10 -41q20 -84 55.5 -108.5t135.5 -24.5zM465 762l20 91h62l-20 -91h-62zM652 762l20 91h62l-20 -91h-62z" />
    <glyph glyph-name="uni04DD" unicode="&#x4dd;" horiz-adv-x="719" 
d="M84 427h-23l10 49h26q51 0 71.5 -23t32.5 -70l7 -26q15 -58 41.5 -74.5t88.5 -18.5l46 212h56l-46 -214q64 0 99.5 22t69.5 77l13 22q27 47 58 70t85 23h26l-10 -49h-18q-35 0 -57.5 -19.5t-44.5 -55.5l-12 -20q-43 -66 -87 -88l137 -244h-66l-122 224q-41 -6 -79 -6
l-47 -218h-57l47 218q-52 0 -75 6l-216 -224h-70l239 248q-19 16 -29 37t-21 59l-5 18q-10 37 -22.5 51t-45.5 14zM301 560l20 91h62l-20 -91h-62zM488 560l20 91h62l-20 -91h-62z" />
    <glyph glyph-name="uni04DE" unicode="&#x4de;" horiz-adv-x="589" 
d="M28 185l57 16q6 -80 56 -120.5t135 -40.5q89 0 142.5 40.5t53.5 114.5q0 139 -243 139h-19l10 48h32q59 0 101.5 6t79 20.5t55.5 42.5t19 70q0 54 -42.5 86t-116.5 32q-77 0 -127 -35.5t-63 -100.5l-53 16q13 73 76 123t172 50q102 0 158 -46.5t56 -115.5q0 -76 -49 -121
t-127 -51v-1q64 -15 102.5 -56.5t38.5 -105.5q0 -92 -65.5 -149.5t-190.5 -57.5q-115 0 -178 51.5t-70 145.5zM233 762l20 91h62l-20 -91h-62zM420 762l20 91h62l-20 -91h-62z" />
    <glyph glyph-name="uni04DF" unicode="&#x4df;" horiz-adv-x="470" 
d="M148 560l20 91h62l-20 -91h-62zM335 560l20 91h62l-20 -91h-62zM111 333l-52 10q9 61 60.5 102.5t141.5 41.5q83 0 128.5 -33.5t45.5 -86.5q0 -56 -36.5 -86.5t-94.5 -34.5v-2q42 -9 70 -36.5t28 -71.5q0 -73 -58 -111t-147 -38q-87 0 -136 37t-51 103l54 13
q6 -105 136 -105q62 0 102.5 24.5t40.5 77.5q0 44 -46 66.5t-109 22.5h-31l9 43h67q62 0 103.5 20.5t41.5 67.5q0 39 -34.5 60t-88.5 21q-66 0 -101.5 -30.5t-42.5 -74.5z" />
    <glyph glyph-name="uni04E2" unicode="&#x4e2;" horiz-adv-x="677" 
d="M327 783l11 51h250l-11 -51h-250zM278 287l345 393h59l-145 -680h-60l66 310q55 252 61 274h-2q-22 -28 -126 -152l-379 -432h-59l145 680h61l-67 -316q-31 -145 -60 -265h2q22 24 83 97.5t76 90.5z" />
    <glyph glyph-name="uni04E3" unicode="&#x4e3;" horiz-adv-x="543" 
d="M221 220l227 256h67l-101 -476h-57l33 155q2 7 8 37.5t18.5 84.5t31.5 133h-2q-23 -31 -146 -173l-207 -237h-66l101 476h58l-49 -234l-38 -169h2q80 104 120 147zM214 579l11 51h250l-11 -51h-250z" />
    <glyph glyph-name="uni04E4" unicode="&#x4e4;" horiz-adv-x="677" 
d="M314 762l20 91h62l-20 -91h-62zM501 762l20 91h62l-20 -91h-62zM278 287l345 393h59l-145 -680h-60l66 310q55 252 61 274h-2q-22 -28 -126 -152l-379 -432h-59l145 680h61l-67 -316q-31 -145 -60 -265h2q22 24 83 97.5t76 90.5z" />
    <glyph glyph-name="uni04E5" unicode="&#x4e5;" horiz-adv-x="543" 
d="M221 220l227 256h67l-101 -476h-57l33 155q2 7 8 37.5t18.5 84.5t31.5 133h-2q-23 -31 -146 -173l-207 -237h-66l101 476h58l-49 -234l-38 -169h2q80 104 120 147zM209 560l20 91h62l-20 -91h-62zM396 560l20 91h62l-20 -91h-62z" />
    <glyph glyph-name="uni04E6" unicode="&#x4e6;" horiz-adv-x="701" 
d="M67 272q0 80 23 154.5t65 134.5t109.5 95.5t150.5 35.5q122 0 192 -74.5t70 -203.5q0 -109 -38 -204t-119.5 -158.5t-192.5 -63.5q-124 0 -192 76t-68 208zM410 638q-69 0 -124.5 -32.5t-88.5 -85t-50.5 -115.5t-17.5 -128q0 -110 52.5 -173t150.5 -63q89 0 155.5 57.5
t97 139t30.5 169.5q0 108 -53 169.5t-152 61.5zM308 762l20 91h62l-20 -91h-62zM495 762l20 91h62l-20 -91h-62z" />
    <glyph glyph-name="uni04E7" unicode="&#x4e7;" horiz-adv-x="523" 
d="M41 188q0 76 26.5 142.5t85 111.5t138.5 45q90 0 140 -54.5t50 -146.5q0 -56 -15.5 -108t-45 -95t-79.5 -69t-112 -26q-88 0 -138 54t-50 146zM286 437q-88 0 -138 -75t-50 -167q0 -74 36.5 -115.5t99.5 -41.5q61 0 105.5 38.5t64 93t19.5 113.5q0 72 -37 113t-100 41z
M175 560l20 91h62l-20 -91h-62zM362 560l20 91h62l-20 -91h-62z" />
    <glyph glyph-name="uni04E8" unicode="&#x4e8;" horiz-adv-x="701" 
d="M67 272q0 80 23 154.5t65 134.5t109.5 95.5t150.5 35.5q122 0 192 -74.5t70 -203.5q0 -109 -38 -204t-119.5 -158.5t-192.5 -63.5q-124 0 -192 76t-68 208zM332 41q111 0 183 82t94 200h-480q-2 -11 -2 -46q0 -110 53 -173t152 -63zM410 638q-110 0 -179.5 -74
t-93.5 -186h479q0 4 0.5 15t0.5 17q0 106 -53.5 167t-153.5 61z" />
    <glyph glyph-name="uni04E9" unicode="&#x4e9;" horiz-adv-x="523" 
d="M41 188q0 77 26.5 143.5t85 111.5t138.5 45q90 0 140 -54.5t50 -147.5q0 -56 -15.5 -108t-45 -95t-79.5 -69t-112 -26q-88 0 -138 54t-50 146zM234 38q73 0 120.5 52t63.5 129h-321q-1 -8 -1 -24q0 -74 37 -115.5t101 -41.5zM286 438q-71 0 -118 -49t-64 -122h320
q1 5 1 19q0 73 -37 112.5t-102 39.5z" />
    <glyph glyph-name="uni04EA" unicode="&#x4ea;" horiz-adv-x="701" 
d="M67 272q0 80 23 154.5t65 134.5t109.5 95.5t150.5 35.5q122 0 192 -74.5t70 -203.5q0 -109 -38 -204t-119.5 -158.5t-192.5 -63.5q-124 0 -192 76t-68 208zM332 41q111 0 183 82t94 200h-480q-2 -11 -2 -46q0 -110 53 -173t152 -63zM410 638q-110 0 -179.5 -74
t-93.5 -186h479q0 4 0.5 15t0.5 17q0 106 -53.5 167t-153.5 61zM305 762l20 91h62l-20 -91h-62zM492 762l20 91h62l-20 -91h-62z" />
    <glyph glyph-name="uni04EB" unicode="&#x4eb;" horiz-adv-x="523" 
d="M41 188q0 77 26.5 143.5t85 111.5t138.5 45q90 0 140 -54.5t50 -147.5q0 -56 -15.5 -108t-45 -95t-79.5 -69t-112 -26q-88 0 -138 54t-50 146zM234 38q73 0 120.5 52t63.5 129h-321q-1 -8 -1 -24q0 -74 37 -115.5t101 -41.5zM286 438q-71 0 -118 -49t-64 -122h320
q1 5 1 19q0 73 -37 112.5t-102 39.5zM174 560l20 91h62l-20 -91h-62zM361 560l20 91h62l-20 -91h-62z" />
    <glyph glyph-name="uni04EE" unicode="&#x4ee;" horiz-adv-x="554" 
d="M241 146l-141 534h62l65 -261q4 -18 15 -61t20.5 -83t15.5 -73q28 48 71.5 115t64.5 101l160 262h67l-370 -587q-39 -61 -84 -82.5t-108 -21.5q-29 0 -51 6l10 50q24 -6 48 -6q45 0 80 20.5t69 76.5zM264 783l11 51h250l-11 -51h-250z" />
    <glyph glyph-name="uni04EF" unicode="&#x4ef;" horiz-adv-x="438" 
d="M469 476l-330 -575q-29 -50 -61 -74.5t-82 -24.5q-25 0 -53 10l11 51q17 -11 43 -11q20 0 36.5 7.5t32 26t23.5 30.5t24 40q5 8 7 12l19 33l-69 475h60l25 -191q25 -189 28 -216q26 58 93 171l131 236h62zM159 579l11 51h250l-11 -51h-250z" />
    <glyph glyph-name="uni04F0" unicode="&#x4f0;" horiz-adv-x="554" 
d="M241 146l-141 534h62l65 -261q4 -18 15 -61t20.5 -83t15.5 -73q28 48 71.5 115t64.5 101l160 262h67l-370 -587q-39 -61 -84 -82.5t-108 -21.5q-29 0 -51 6l10 50q24 -6 48 -6q45 0 80 20.5t69 76.5zM254 762l20 91h62l-20 -91h-62zM441 762l20 91h62l-20 -91h-62z" />
    <glyph glyph-name="uni04F1" unicode="&#x4f1;" horiz-adv-x="438" 
d="M469 476l-330 -575q-29 -50 -61 -74.5t-82 -24.5q-25 0 -53 10l11 51q17 -11 43 -11q20 0 36.5 7.5t32 26t23.5 30.5t24 40q5 8 7 12l19 33l-69 475h60l25 -191q25 -189 28 -216q26 58 93 171l131 236h62zM151 560l20 91h62l-20 -91h-62zM338 560l20 91h62l-20 -91h-62z
" />
    <glyph glyph-name="uni04F2" unicode="&#x4f2;" horiz-adv-x="554" 
d="M241 146l-141 534h62l65 -261q4 -18 15 -61t20.5 -83t15.5 -73q28 48 71.5 115t64.5 101l160 262h67l-370 -587q-39 -61 -84 -82.5t-108 -21.5q-29 0 -51 6l10 50q24 -6 48 -6q45 0 80 20.5t69 76.5zM478 752h-51l92 128h74zM313 752h-50l91 128h74z" />
    <glyph glyph-name="uni04F3" unicode="&#x4f3;" horiz-adv-x="438" 
d="M469 476l-330 -575q-29 -50 -61 -74.5t-82 -24.5q-25 0 -53 10l11 51q17 -11 43 -11q20 0 36.5 7.5t32 26t23.5 30.5t24 40q5 8 7 12l19 33l-69 475h60l25 -191q25 -189 28 -216q26 58 93 171l131 236h62zM209 544h-52l101 136h73zM365 544h-52l101 136h73z" />
    <glyph glyph-name="uni04F4" unicode="&#x4f4;" horiz-adv-x="618" 
d="M623 680l-145 -680h-60l62 295q-87 -50 -203 -50q-192 0 -192 137q0 23 12 83l46 215h61l-45 -208q-10 -46 -10 -72q0 -101 146 -101q64 0 116.5 17.5t81.5 38.5l69 325h61zM260 762l20 91h62l-20 -91h-62zM447 762l20 91h62l-20 -91h-62z" />
    <glyph glyph-name="uni04F5" unicode="&#x4f5;" horiz-adv-x="493" 
d="M465 476l-101 -476h-58l41 190q-62 -28 -147 -28q-76 0 -112 26t-36 84q0 24 9 69l29 135h59l-27 -127q-8 -40 -8 -59q0 -44 26.5 -61.5t85.5 -17.5q77 0 131 29l51 236h57zM161 560l20 91h62l-20 -91h-62zM348 560l20 91h62l-20 -91h-62z" />
    <glyph glyph-name="uni04F8" unicode="&#x4f8;" horiz-adv-x="831" 
d="M390 762l20 91h62l-20 -91h-62zM577 762l20 91h62l-20 -91h-62zM38 0l144 680h61l-62 -291h149q98 0 149 -25q77 -38 77 -139q0 -119 -76 -176q-63 -49 -186 -49h-256zM169 333l-59 -278h189q94 0 144.5 38t50.5 128q0 62 -39.5 87t-121.5 25h-164zM775 680h61l-145 -680
h-60z" />
    <glyph glyph-name="uni04F9" unicode="&#x4f9;" horiz-adv-x="668" 
d="M269 560l20 91h62l-20 -91h-62zM456 560l20 91h62l-20 -91h-62zM129 476h57l-39 -182h88q168 0 168 -125q0 -169 -195 -169h-181zM137 248l-43 -202h114q138 0 138 119q0 42 -27.5 62.5t-89.5 20.5h-92zM640 476l-101 -476h-57l100 476h58z" />
    <glyph glyph-name="Wgrave" unicode="&#x1e80;" horiz-adv-x="865" 
d="M610 0h-75l-19 353q-5 100 -5 214v33h-2l-103 -233l-175 -367h-75l-41 680h63l25 -422q7 -124 7 -183h2q28 72 81 182l200 423h66l22 -421q6 -134 6 -172v-13h2q7 20 84 189l197 417h65zM559 752h-51l-115 128h75z" />
    <glyph glyph-name="wgrave" unicode="&#x1e81;" horiz-adv-x="682" 
d="M417 476l18 -249q10 -150 10 -153h1q29 71 67 138l137 264h60l-252 -476h-56l-21 274q-6 61 -6 127h-1q0 -1 -22.5 -52.5t-38.5 -81.5l-131 -267h-59l-52 476h59l28 -274q4 -32 7 -77t4 -53h1q16 38 59 126l135 278h53zM428 552h-52l-120 128h74z" />
    <glyph glyph-name="Wacute" unicode="&#x1e82;" horiz-adv-x="865" 
d="M610 0h-75l-19 353q-5 100 -5 214v33h-2l-103 -233l-175 -367h-75l-41 680h63l25 -422q7 -124 7 -183h2q28 72 81 182l200 423h66l22 -421q6 -134 6 -172v-13h2q7 20 84 189l197 417h65zM558 752h-51l91 128h75z" />
    <glyph glyph-name="wacute" unicode="&#x1e83;" horiz-adv-x="682" 
d="M417 476l18 -249q10 -150 10 -153h1q29 71 67 138l137 264h60l-252 -476h-56l-21 274q-6 61 -6 127h-1q0 -1 -22.5 -52.5t-38.5 -81.5l-131 -267h-59l-52 476h59l28 -274q4 -32 7 -77t4 -53h1q16 38 59 126l135 278h53zM428 552h-52l95 128h73z" />
    <glyph glyph-name="Wdieresis" unicode="&#x1e84;" horiz-adv-x="865" 
d="M610 0h-75l-19 353q-5 100 -5 214v33h-2l-103 -233l-175 -367h-75l-41 680h63l25 -422q7 -124 7 -183h2q28 72 81 182l200 423h66l22 -421q6 -134 6 -172v-13h2q7 20 84 189l197 417h65zM411 762l20 91h62l-20 -91h-62zM598 762l20 91h62l-20 -91h-62z" />
    <glyph glyph-name="wdieresis" unicode="&#x1e85;" horiz-adv-x="682" 
d="M417 476l18 -249q10 -150 10 -153h1q29 71 67 138l137 264h60l-252 -476h-56l-21 274q-6 61 -6 127h-1q0 -1 -22.5 -52.5t-38.5 -81.5l-131 -267h-59l-52 476h59l28 -274q4 -32 7 -77t4 -53h1q16 38 59 126l135 278h53zM273 560l20 91h62l-20 -91h-62zM460 560l20 91h62
l-20 -91h-62z" />
    <glyph glyph-name="Ygrave" unicode="&#x1ef2;" horiz-adv-x="572" 
d="M265 0h-61l60 284l-159 396h62l139 -341l282 341h70l-334 -399zM417 752h-51l-115 128h75z" />
    <glyph glyph-name="ygrave" unicode="&#x1ef3;" horiz-adv-x="438" 
d="M469 476l-330 -575q-29 -50 -61 -74.5t-82 -24.5q-25 0 -53 10l11 51q17 -11 43 -11q20 0 36.5 7.5t32 26t23.5 30.5t24 40q5 8 7 12l19 33l-69 475h60l25 -191q25 -189 28 -216q26 58 93 171l131 236h62zM312 552h-52l-120 128h74z" />
    <glyph glyph-name="uni2000" unicode="&#x2000;" horiz-adv-x="500" 
 />
    <glyph glyph-name="uni2001" unicode="&#x2001;" horiz-adv-x="1000" 
 />
    <glyph glyph-name="enspace" unicode="&#x2002;" horiz-adv-x="500" 
 />
    <glyph glyph-name="emspace" unicode="&#x2003;" horiz-adv-x="1000" 
 />
    <glyph glyph-name="threeperemspace" unicode="&#x2004;" horiz-adv-x="333" 
 />
    <glyph glyph-name="fourperemspace" unicode="&#x2005;" horiz-adv-x="250" 
 />
    <glyph glyph-name="uni2006" unicode="&#x2006;" horiz-adv-x="167" 
 />
    <glyph glyph-name="uni2007" unicode="&#x2007;" horiz-adv-x="606" 
 />
    <glyph glyph-name="uni2008" unicode="&#x2008;" horiz-adv-x="209" 
 />
    <glyph glyph-name="thinspace" unicode="&#x2009;" horiz-adv-x="125" 
 />
    <glyph glyph-name="hairspace" unicode="&#x200a;" horiz-adv-x="42" 
 />
    <glyph glyph-name="uni200B" unicode="&#x200b;" horiz-adv-x="0" 
 />
    <glyph glyph-name="endash" unicode="&#x2013;" horiz-adv-x="642" 
d="M67 242l11 56h509l-11 -56h-509z" />
    <glyph glyph-name="emdash" unicode="&#x2014;" horiz-adv-x="832" 
d="M67 242l11 56h699l-11 -56h-699z" />
    <glyph glyph-name="longdash" unicode="&#x2015;" horiz-adv-x="1570" 
d="M1515 298l-11 -56h-1437l11 56h1437z" />
    <glyph glyph-name="quoteleft" unicode="&#x2018;" horiz-adv-x="207" 
d="M183 437h-80l24 113q16 76 39.5 106t72.5 36l-9 -41q-41 -11 -56 -86l-3 -14h36z" />
    <glyph glyph-name="quoteright" unicode="&#x2019;" horiz-adv-x="204" 
d="M158 680h80l-24 -113q-16 -76 -39.5 -106t-72.5 -36l9 41q41 11 56 86l3 14h-36z" />
    <glyph glyph-name="quotesinglbase" unicode="&#x201a;" horiz-adv-x="212" 
d="M47 115h80l-24 -113q-16 -76 -39.5 -106t-72.5 -36l9 41q41 11 56 86l3 14h-36z" />
    <glyph glyph-name="quotedblleft" unicode="&#x201c;" horiz-adv-x="356" 
d="M183 437h-80l24 113q16 76 39.5 106t72.5 36l-9 -41q-41 -11 -56 -86l-3 -14h36zM332 437h-80l24 113q16 76 39.5 106t72.5 36l-9 -41q-41 -11 -56 -86l-3 -14h36z" />
    <glyph glyph-name="quotedblright" unicode="&#x201d;" horiz-adv-x="356" 
d="M158 680h80l-24 -113q-16 -76 -39.5 -106t-72.5 -36l9 41q41 11 56 86l3 14h-36zM310 680h80l-24 -113q-16 -76 -39.5 -106t-72.5 -36l9 41q41 11 56 86l3 14h-36z" />
    <glyph glyph-name="quotedblbase" unicode="&#x201e;" horiz-adv-x="356" 
d="M47 115h80l-24 -113q-16 -76 -39.5 -106t-72.5 -36l9 41q41 11 56 86l3 14h-36zM190 115h80l-24 -113q-16 -76 -39.5 -106t-72.5 -36l9 41q41 11 56 86l3 14h-36z" />
    <glyph glyph-name="dagger" unicode="&#x2020;" horiz-adv-x="453" 
d="M470 456h-171l-96 -456h-57l97 456h-169l12 53h169l36 171h57l-37 -171h170z" />
    <glyph glyph-name="daggerdbl" unicode="&#x2021;" horiz-adv-x="491" 
d="M271 229h170l-12 -54h-170l-38 -175h-56l38 175h-169l12 54h169l47 225h-169l12 54h168l37 172h56l-36 -172h170l-12 -54h-170z" />
    <glyph glyph-name="bullet" unicode="&#x2022;" horiz-adv-x="359" 
d="M94 340q0 43 30.5 73t73.5 30t73 -30t30 -73t-30 -73.5t-73 -30.5t-73.5 30.5t-30.5 73.5z" />
    <glyph glyph-name="ellipsis" unicode="&#x2026;" horiz-adv-x="883" 
d="M46 114h77l-25 -114h-77zM383 114h77l-25 -114h-77zM720 114h77l-25 -114h-77z" />
    <glyph glyph-name="perthousand" unicode="&#x2030;" horiz-adv-x="1333" 
d="M269 688q64 0 97.5 -43t33.5 -119q0 -107 -51 -190.5t-139 -83.5q-64 0 -97.5 43t-33.5 119q0 107 51 190.5t139 83.5zM214 291q46 0 79.5 38.5t48.5 89.5t15 103q0 63 -25.5 95t-66.5 32q-46 0 -79.5 -38.5t-48.5 -89.5t-15 -103q0 -63 25.5 -95t66.5 -32zM783 429
q64 0 97.5 -43t33.5 -119q0 -107 -51 -190.5t-139 -83.5q-64 0 -97.5 43t-33.5 119q0 107 51 190.5t139 83.5zM728 32q46 0 79.5 38.5t48.5 89.5t15 103q0 63 -25.5 95t-66.5 32q-46 0 -79.5 -38.5t-48.5 -89.5t-15 -103q0 -63 25.5 -95t66.5 -32zM719 680h47l-485 -680h-47
zM1165 429q64 0 97.5 -43t33.5 -119q0 -107 -51 -190.5t-139 -83.5q-64 0 -97.5 43t-33.5 119q0 107 51 190.5t139 83.5zM1110 32q46 0 79.5 38.5t48.5 89.5t15 103q0 63 -25.5 95t-66.5 32q-46 0 -79.5 -38.5t-48.5 -89.5t-15 -103q0 -63 25.5 -95t66.5 -32z" />
    <glyph glyph-name="guilsinglleft" unicode="&#x2039;" horiz-adv-x="243" 
d="M38 231l12 57l172 138l-18 -74l-122 -96l78 -120l-15 -69z" />
    <glyph glyph-name="guilsinglright" unicode="&#x203a;" horiz-adv-x="244" 
d="M207 254l-13 -57l-171 -140l17 75l124 100l-79 117l14 67z" />
    <glyph glyph-name="fraction" unicode="&#x2044;" horiz-adv-x="180" 
d="M330 680h47l-485 -680h-47z" />
    <glyph glyph-name="uni2070" unicode="&#x2070;" horiz-adv-x="378" 
d="M294 813q64 0 97.5 -43t33.5 -119q0 -107 -51 -190.5t-139 -83.5q-64 0 -97.5 43t-33.5 119q0 107 51 190.5t139 83.5zM239 416q46 0 79.5 38.5t48.5 89.5t15 103q0 63 -25.5 95t-66.5 32q-46 0 -79.5 -38.5t-48.5 -89.5t-15 -103q0 -63 25.5 -95t66.5 -32z" />
    <glyph glyph-name="uni2074" unicode="&#x2074;" horiz-adv-x="353" 
d="M309 493l-22 -109h-43l23 109h-199l7 31l261 284h41l-60 -276h83l-8 -39h-83zM274 532l46 204l-183 -204h137z" />
    <glyph glyph-name="uni2075" unicode="&#x2075;" horiz-adv-x="347" 
d="M143 565l-38 13l63 227h232l-10 -40h-192l-36 -128q38 36 92 36q55 0 92.5 -34t37.5 -96q0 -78 -46 -122t-115 -44q-54 0 -90.5 27.5t-48.5 75.5l40 18q9 -39 36.5 -61t64.5 -22q48 0 81.5 33.5t33.5 91.5q0 44 -27 70t-67 26q-35 0 -63 -19.5t-40 -51.5z" />
    <glyph glyph-name="uni2076" unicode="&#x2076;" horiz-adv-x="352" 
d="M407 705l-42 -11q-5 42 -23.5 61t-56.5 19q-50 0 -83 -44t-48 -118q44 47 108 47q53 0 88.5 -34t35.5 -93q0 -60 -38.5 -107.5t-112.5 -47.5q-58 0 -95 36.5t-37 118.5q0 66 19 127.5t62 107t102 45.5q56 0 86.5 -28.5t34.5 -78.5zM235 415q52 0 80 33t28 81
q0 44 -24.5 68t-63.5 24q-30 0 -58.5 -15t-46.5 -41q-4 -20 -4 -43q0 -55 26 -81t63 -26z" />
    <glyph glyph-name="uni2077" unicode="&#x2077;" horiz-adv-x="337" 
d="M442 805l-7 -33q-183 -196 -240 -388h-49q54 182 233 382h-203l-21 -96h-42l28 135h301z" />
    <glyph glyph-name="uni2078" unicode="&#x2078;" horiz-adv-x="371" 
d="M88 493q0 48 30 80t76 42q-55 24 -55 87q0 48 39 79t106 31q62 0 98 -27t36 -73q0 -40 -25 -68t-63 -38q66 -30 66 -102q0 -57 -41.5 -92t-117.5 -35q-71 0 -110 30.5t-39 85.5zM131 497q0 -39 27.5 -61.5t77.5 -22.5q55 0 86 24.5t31 68.5q0 40 -29 62.5t-78 22.5
q-57 0 -86 -26.5t-29 -67.5zM183 700q0 -32 23 -52t68 -20q50 0 75 21.5t25 59.5q0 31 -24.5 49t-68.5 18q-48 0 -73 -22t-25 -54z" />
    <glyph glyph-name="uni2079" unicode="&#x2079;" horiz-adv-x="352" 
d="M96 484l42 11q5 -42 23.5 -61t56.5 -19q50 0 83 44t48 118q-44 -47 -108 -47q-53 0 -88.5 34t-35.5 93q0 60 38.5 107.5t112.5 47.5q58 0 95 -36.5t37 -118.5q0 -66 -19 -127.5t-62 -107t-102 -45.5q-56 0 -86.5 28.5t-34.5 78.5zM268 774q-52 0 -80 -33t-28 -81
q0 -44 24.5 -68t63.5 -24q30 0 58.5 15t46.5 41q4 20 4 43q0 55 -26 81t-63 26z" />
    <glyph glyph-name="uni207A" unicode="&#x207a;" horiz-adv-x="383" 
d="M291 579v-152h-45v152h-148v41h148v151h45v-151h147v-41h-147z" />
    <glyph glyph-name="uni207B" unicode="&#x207b;" horiz-adv-x="431" 
d="M461 579h-340v41h340v-41z" />
    <glyph glyph-name="uni207C" unicode="&#x207c;" horiz-adv-x="445" 
d="M465 630h-340v41h340v-41zM465 528h-340v41h340v-41z" />
    <glyph glyph-name="uni207D" unicode="&#x207d;" horiz-adv-x="188" 
d="M266 915l43 -5q-164 -202 -164 -436q0 -96 33 -182l-40 -7q-38 99 -38 196q0 235 166 434z" />
    <glyph glyph-name="uni207E" unicode="&#x207e;" horiz-adv-x="187" 
d="M74 285l-43 5q164 202 164 436q0 96 -33 182l40 7q38 -99 38 -196q0 -235 -166 -434z" />
    <glyph glyph-name="uni207F" unicode="&#x207f;" horiz-adv-x="338" 
d="M142 679h51l-11 -47q34 54 102 54q37 0 60 -18t23 -57q0 -19 -8 -56l-35 -171h-51l35 164q8 40 8 50q0 45 -50 45q-39 0 -66.5 -29t-34.5 -66l-34 -164h-52z" />
    <glyph glyph-name="uni2080" unicode="&#x2080;" horiz-adv-x="378" 
d="M186 303q64 0 97.5 -43t33.5 -119q0 -107 -51 -190.5t-139 -83.5q-64 0 -97.5 43t-33.5 119q0 107 51 190.5t139 83.5zM131 -94q46 0 79.5 38.5t48.5 89.5t15 103q0 63 -25.5 95t-66.5 32q-46 0 -79.5 -38.5t-48.5 -89.5t-15 -103q0 -63 25.5 -95t66.5 -32z" />
    <glyph glyph-name="uni2081" unicode="&#x2081;" horiz-adv-x="222" 
d="M179 295l-89 -421h-45l67 316q-25 -20 -79 -20h-33l6 37h20q51 0 77 21.5t36 66.5h40z" />
    <glyph glyph-name="uni2082" unicode="&#x2082;" horiz-adv-x="346" 
d="M66 120l-47 11q-3 18 -3 35q0 58 39.5 97.5t106.5 39.5q63 0 99 -32t36 -87q0 -19 -6 -39t-13.5 -36t-23.5 -34.5t-27 -31t-33 -30t-33.5 -26t-35.5 -24t-31.5 -20t-31.5 -17.5l-23 -14q5 0 37.5 0.5t60.5 0.5h116l-8 -39h-289l7 34q89 47 173 112q115 82 115 161
q0 38 -24.5 61t-66.5 23q-47 0 -74 -29.5t-27 -73.5q0 -21 7 -42z" />
    <glyph glyph-name="uni2083" unicode="&#x2083;" horiz-adv-x="351" 
d="M58 179l-39 12q7 46 43.5 78.5t98.5 32.5q61 0 94 -29t33 -73q0 -83 -91 -105q71 -34 71 -100q0 -55 -38.5 -91.5t-113.5 -36.5q-68 0 -104.5 33.5t-39.5 92.5l40 12q8 -101 105 -101q51 0 79.5 25t28.5 67q0 83 -128 83h-21l5 34h43q121 0 121 83q0 29 -23.5 48
t-63.5 19q-41 0 -68 -22t-32 -62z" />
    <glyph glyph-name="uni2084" unicode="&#x2084;" horiz-adv-x="353" 
d="M201 -17l-22 -109h-43l23 109h-199l7 31l261 284h41l-60 -276h83l-8 -39h-83zM166 22l46 204l-183 -204h137z" />
    <glyph glyph-name="uni2085" unicode="&#x2085;" horiz-adv-x="347" 
d="M34 55l-38 13l63 227h232l-10 -40h-192l-36 -128q38 36 92 36q55 0 92.5 -34t37.5 -96q0 -78 -46 -122t-115 -44q-54 0 -90.5 27.5t-48.5 75.5l40 18q9 -39 36.5 -61t64.5 -22q48 0 81.5 33.5t33.5 91.5q0 44 -27 70t-67 26q-35 0 -63 -19.5t-40 -51.5z" />
    <glyph glyph-name="uni2086" unicode="&#x2086;" horiz-adv-x="352" 
d="M298 195l-42 -11q-5 42 -23.5 61t-56.5 19q-50 0 -83 -44t-48 -118q44 47 108 47q53 0 88.5 -34t35.5 -93q0 -60 -38.5 -107.5t-112.5 -47.5q-58 0 -95 36.5t-37 118.5q0 66 19 127.5t62 107t102 45.5q56 0 86.5 -28.5t34.5 -78.5zM126 -95q52 0 80 33t28 81
q0 44 -24.5 68t-63.5 24q-30 0 -58.5 -15t-46.5 -41q-4 -20 -4 -43q0 -55 26 -81t63 -26z" />
    <glyph glyph-name="uni2087" unicode="&#x2087;" horiz-adv-x="337" 
d="M333 295l-7 -33q-183 -196 -240 -388h-49q54 182 233 382h-203l-21 -96h-42l28 135h301z" />
    <glyph glyph-name="uni2088" unicode="&#x2088;" horiz-adv-x="371" 
d="M-20 -17q0 48 30 80t76 42q-55 24 -55 87q0 48 39 79t106 31q62 0 98 -27t36 -73q0 -40 -25 -68t-63 -38q66 -30 66 -102q0 -57 -41.5 -92t-117.5 -35q-71 0 -110 30.5t-39 85.5zM23 -13q0 -39 27.5 -61.5t77.5 -22.5q55 0 86 24.5t31 68.5q0 40 -29 62.5t-78 22.5
q-57 0 -86 -26.5t-29 -67.5zM75 190q0 -32 23 -52t68 -20q50 0 75 21.5t25 59.5q0 31 -24.5 49t-68.5 18q-48 0 -73 -22t-25 -54z" />
    <glyph glyph-name="uni2089" unicode="&#x2089;" horiz-adv-x="352" 
d="M-13 -26l42 11q5 -42 23.5 -61t56.5 -19q50 0 83 44t48 118q-44 -47 -108 -47q-53 0 -88.5 34t-35.5 93q0 60 38.5 107.5t112.5 47.5q58 0 95 -36.5t37 -118.5q0 -66 -19 -127.5t-62 -107t-102 -45.5q-56 0 -86.5 28.5t-34.5 78.5zM159 264q-52 0 -80 -33t-28 -81
q0 -44 24.5 -68t63.5 -24q30 0 58.5 15t46.5 41q4 20 4 43q0 55 -26 81t-63 26z" />
    <glyph glyph-name="uni208A" unicode="&#x208a;" horiz-adv-x="383" 
d="M182 65v-152h-45v152h-148v41h148v151h45v-151h147v-41h-147z" />
    <glyph glyph-name="uni208B" unicode="&#x208b;" horiz-adv-x="431" 
d="M352 65h-340v41h340v-41z" />
    <glyph glyph-name="uni208C" unicode="&#x208c;" horiz-adv-x="445" 
d="M357 116h-340v41h340v-41zM357 14h-340v41h340v-41z" />
    <glyph glyph-name="uni208D" unicode="&#x208d;" horiz-adv-x="188" 
d="M157 400l43 -5q-164 -202 -164 -436q0 -97 33 -182l-40 -7q-38 99 -38 196q0 235 166 434z" />
    <glyph glyph-name="uni208E" unicode="&#x208e;" horiz-adv-x="187" 
d="M-35 -230l-43 5q164 202 164 436q0 97 -33 182l40 7q38 -99 38 -196q0 -235 -166 -434z" />
    <glyph glyph-name="Euro" unicode="&#x20ac;" 
d="M502 173l48 -27q-84 -157 -235 -157q-102 0 -155.5 65.5t-55.5 181.5h-87l27 52h62q6 68 13 98h-69l28 51h55q34 112 107.5 182.5t173.5 70.5q72 0 128 -41t73 -137l-57 -20q-11 70 -49 108t-100 38q-76 0 -131.5 -56t-83.5 -145h266l-27 -51h-254q-12 -50 -15 -98h230
l-28 -52h-201q2 -102 44 -149t110 -47q59 0 106 35t77 98z" />
    <glyph glyph-name="hryvnia" unicode="&#x20b4;" 
d="M60 395l10 45h413q44 33 44 91q0 49 -42 78.5t-116 29.5q-115 0 -200 -80l-24 48q90 84 230 84q98 0 154.5 -41t56.5 -110q0 -57 -35 -100h50l-10 -45h-84q-47 -31 -165 -61q-17 -5 -46 -12t-46.5 -12t-38.5 -11.5t-34 -13t-19 -13.5h407l-10 -45h-444q-16 -25 -16 -60
q0 -56 41 -91t119 -35q157 0 246 120l34 -42q-111 -129 -287 -129q-106 0 -159.5 47t-53.5 123q0 34 14 67h-25l11 45h43q22 28 61 47.5t124 38.5q99 21 130 37h-333z" />
    <glyph glyph-name="uni20B8" unicode="&#x20b8;" 
d="M270 0h-59l97 455h-222l12 55h502l-12 -55h-221zM122 624l12 56h503l-12 -56h-503z" />
    <glyph glyph-name="uni20B9" unicode="&#x20b9;" 
d="M146 634l25 46h473l-25 -46h-139q-25 0 -87 2v-1q65 -26 65 -118h148l-25 -44h-128q-17 -82 -76 -124t-147 -46l152 -303h-72l-90 187q-42 88 -55 101.5t-62 13.5h-25l25 48h91q87 0 134.5 28t62.5 95h-288l25 44h270q1 7 1 16q0 57 -42.5 79t-132.5 22h-78z" />
    <glyph glyph-name="uni20BA" unicode="&#x20ba;" 
d="M227 469l-127 -49l11 50l126 49l35 161h58l-29 -138l254 98l-11 -49l-254 -99l-25 -120l254 99l-11 -50l-254 -99l-59 -275q138 0 204 61t91 196h50q-28 -155 -104.5 -231t-232.5 -76h-76l63 303l-126 -50l10 49l127 50z" />
    <glyph glyph-name="uni20BC" unicode="&#x20bc;" 
d="M385 559l-99 -473h-46l99 473q-62 -6 -97.5 -36t-67 -113.5t-67.5 -253.5l-33 -156h-59l36 176q35 173 74 264.5t90 128t136 40.5l17 84h46l-17 -84q76 -6 113 -49t37 -136q0 -83 -37 -256l-36 -168h-60l36 171q37 180 37 250q0 130 -102 138z" />
    <glyph glyph-name="uni20BD" unicode="&#x20bd;" 
d="M199 300l-27 -122h169l-12 -56h-168l-26 -122h-60l26 122h-82l11 56h83l26 122h-83l11 56h83l69 324h176q99 0 151 -28q72 -40 72 -128q0 -137 -106 -195q-55 -29 -166 -29h-147zM211 356h142q99 0 141 29q63 43 63 134q0 69 -68 95q-33 11 -98 11h-123z" />
    <glyph glyph-name="uni2113" unicode="&#x2113;" horiz-adv-x="439" 
d="M360 78l16 -44q-48 -46 -123 -46q-68 0 -99.5 33.5t-31.5 103.5v84l-82 -68l-24 40l105 85v233q0 85 20 129q31 64 115 64q60 0 91.5 -32.5t31.5 -92.5q0 -150 -199 -316v-120q0 -95 81 -95q53 0 99 42zM325 564q0 84 -71 84q-43 0 -61 -38q-13 -27 -13 -88v-212
q145 134 145 254z" />
    <glyph glyph-name="numero" unicode="&#x2116;" horiz-adv-x="1027" 
d="M553 0h-68l-199 449q-41 91 -64 151h-1q-8 -65 -28 -150l-95 -450h-60l144 680h67l184 -417l79 -176h1q12 74 30 153l93 440h61zM719 467q0 91 49.5 158t137.5 67q66 0 103.5 -40.5t37.5 -109.5q0 -91 -48 -158t-139 -67q-66 0 -103.5 40.5t-37.5 109.5zM901 650
q-64 0 -100 -54.5t-36 -121.5q0 -54 27 -85t72 -31q64 0 100.5 55.5t36.5 123.5q0 53 -27 83t-73 30zM716 201l9 42h229l-9 -42h-229z" />
    <glyph glyph-name="uni2117" unicode="&#x2117;" horiz-adv-x="805" 
d="M338 306v-166h-51v398h170q60 0 100.5 -27t40.5 -88q0 -117 -152 -117h-108zM338 354h104q51 0 76 15.5t25 53.5q0 67 -96 67h-109v-136zM774 340q0 -149 -101 -250.5t-249 -101.5t-249 101.5t-101 250.5t101 250.5t249 101.5t249 -101.5t101 -250.5zM716 340
q0 124 -84.5 212.5t-207.5 88.5t-207.5 -88.5t-84.5 -212.5q0 -125 84.5 -213t207.5 -88t207.5 88t84.5 213z" />
    <glyph glyph-name="trademark" unicode="&#x2122;" horiz-adv-x="940" 
d="M817 584l-111 -339h-43l-115 327q-7 16 -17 60q0 -9 0.5 -34.5t0.5 -33.5v-319h-50v435h77l110 -315l17 -53q1 4 5.5 21.5t9.5 31.5l103 315h79v-435h-50v319q0 57 1 76zM118 633v47h326v-47h-138v-387h-50v387h-138z" />
    <glyph glyph-name="Omega" unicode="&#x2126;" horiz-adv-x="806" 
d="M409 692q151 0 234.5 -89.5t83.5 -230.5q0 -104 -44.5 -185t-128.5 -131h179v-56h-248v61q174 101 174 310q0 118 -67 191.5t-184 73.5q-115 0 -182 -74t-67 -191q0 -208 174 -310v-61h-247v56h179q-173 110 -173 316q0 141 83.5 230.5t233.5 89.5z" />
    <glyph glyph-name="estimated" unicode="&#x212e;" horiz-adv-x="564" 
d="M524 242h-375v-137q0 -20 12.5 -36t22 -21.5t27.5 -14.5q32 -14 78 -14q118 0 185 112l25 -19q-43 -65 -91.5 -94.5t-118.5 -29.5q-108 0 -172.5 68.5t-64.5 180.5q0 108 64 179t173 71q112 0 174 -65t61 -180zM149 270h281v109q0 38 -61 64q-36 15 -81 15q-42 0 -78 -14
q-61 -26 -61 -63v-111z" />
    <glyph glyph-name="onethird" unicode="&#x2153;" horiz-adv-x="857" 
d="M581 305l-39 12q7 46 43.5 78.5t98.5 32.5q61 0 94 -29t33 -73q0 -83 -91 -105q71 -34 71 -100q0 -55 -38.5 -91.5t-113.5 -36.5q-68 0 -104.5 33.5t-39.5 92.5l40 12q8 -101 105 -101q51 0 79.5 25t28.5 67q0 83 -128 83h-21l5 34h43q121 0 121 83q0 29 -23.5 48
t-63.5 19q-41 0 -68 -22t-32 -62zM274 679l-89 -421h-45l67 316q-25 -20 -79 -20h-33l6 37h20q51 0 77 21.5t36 66.5h40zM637 680h47l-485 -680h-47z" />
    <glyph glyph-name="twothirds" unicode="&#x2154;" horiz-adv-x="949" 
d="M163 505l-47 11q-3 18 -3 35q0 58 39.5 97.5t106.5 39.5q63 0 99 -32t36 -87q0 -19 -6 -39t-13.5 -36t-23.5 -34.5t-27 -31t-33 -30t-33.5 -26t-35.5 -24t-31.5 -20t-30.5 -18.5l-24 -13q5 0 37.5 0.5t60.5 0.5h116l-8 -39h-289l7 34q89 47 173 112q115 82 115 161
q0 38 -24.5 61t-66.5 23q-47 0 -74 -29.5t-27 -73.5q0 -21 7 -42zM679 305l-39 12q7 46 43.5 78.5t98.5 32.5q61 0 94 -29t33 -73q0 -83 -91 -105q71 -34 71 -100q0 -55 -38.5 -91.5t-113.5 -36.5q-68 0 -104.5 33.5t-39.5 92.5l40 12q8 -101 105 -101q51 0 79.5 25t28.5 67
q0 83 -128 83h-21l5 34h43q121 0 121 83q0 29 -23.5 48t-63.5 19q-41 0 -68 -22t-32 -62zM735 680h47l-485 -680h-47z" />
    <glyph glyph-name="oneeighth" unicode="&#x215b;" horiz-adv-x="876" 
d="M501 109q0 48 30 80t76 42q-55 24 -55 87q0 48 39 79t106 31q62 0 98 -27t36 -73q0 -40 -25 -68t-63 -38q66 -30 66 -102q0 -57 -41.5 -92t-117.5 -35q-71 0 -110 30.5t-39 85.5zM544 113q0 -39 27.5 -61.5t77.5 -22.5q55 0 86 24.5t31 68.5q0 40 -29 62.5t-78 22.5
q-57 0 -86 -26.5t-29 -67.5zM596 316q0 -32 23 -52t68 -20q50 0 75 21.5t25 59.5q0 31 -24.5 49t-68.5 18q-48 0 -73 -22t-25 -54zM274 679l-89 -421h-45l67 316q-25 -20 -79 -20h-33l6 37h20q51 0 77 21.5t36 66.5h40zM627 680h47l-485 -680h-47z" />
    <glyph glyph-name="threeeighths" unicode="&#x215c;" horiz-adv-x="949" 
d="M581 109q0 48 30 80t76 42q-55 24 -55 87q0 48 39 79t106 31q62 0 98 -27t36 -73q0 -40 -25 -68t-63 -38q66 -30 66 -102q0 -57 -41.5 -92t-117.5 -35q-71 0 -110 30.5t-39 85.5zM624 113q0 -39 27.5 -61.5t77.5 -22.5q55 0 86 24.5t31 68.5q0 40 -29 62.5t-78 22.5
q-57 0 -86 -26.5t-29 -67.5zM676 316q0 -32 23 -52t68 -20q50 0 75 21.5t25 59.5q0 31 -24.5 49t-68.5 18q-48 0 -73 -22t-25 -54zM148 564l-39 12q7 46 43.5 78.5t98.5 32.5q61 0 94 -29t33 -73q0 -83 -91 -105q71 -34 71 -100q0 -55 -38.5 -91.5t-113.5 -36.5
q-68 0 -104.5 33.5t-39.5 92.5l40 12q8 -101 105 -101q51 0 79.5 25t28.5 67q0 83 -128 83h-21l5 34h43q121 0 121 83q0 29 -23.5 48t-63.5 19q-41 0 -68 -22t-32 -62zM716 680h47l-485 -680h-47z" />
    <glyph glyph-name="fiveeighths" unicode="&#x215d;" horiz-adv-x="930" 
d="M122 439l-38 13l63 227h232l-10 -40h-192l-36 -128q38 36 92 36q55 0 92.5 -34t37.5 -96q0 -78 -46 -122t-115 -44q-54 0 -90.5 27.5t-48.5 75.5l40 18q9 -39 36.5 -61t64.5 -22q48 0 81.5 33.5t33.5 91.5q0 44 -27 70t-67 26q-35 0 -63 -19.5t-40 -51.5zM562 109
q0 48 30 80t76 42q-55 24 -55 87q0 48 39 79t106 31q62 0 98 -27t36 -73q0 -40 -25 -68t-63 -38q66 -30 66 -102q0 -57 -41.5 -92t-117.5 -35q-71 0 -110 30.5t-39 85.5zM605 113q0 -39 27.5 -61.5t77.5 -22.5q55 0 86 24.5t31 68.5q0 40 -29 62.5t-78 22.5q-57 0 -86 -26.5
t-29 -67.5zM657 316q0 -32 23 -52t68 -20q50 0 75 21.5t25 59.5q0 31 -24.5 49t-68.5 18q-48 0 -73 -22t-25 -54zM698 680h47l-485 -680h-47z" />
    <glyph glyph-name="seveneighths" unicode="&#x215e;" horiz-adv-x="871" 
d="M423 679l-7 -33q-183 -196 -240 -388h-49q54 182 233 382h-203l-21 -96h-42l28 135h301zM500 109q0 48 30 80t76 42q-55 24 -55 87q0 48 39 79t106 31q62 0 98 -27t36 -73q0 -40 -25 -68t-63 -38q66 -30 66 -102q0 -57 -41.5 -92t-117.5 -35q-71 0 -110 30.5t-39 85.5z
M543 113q0 -39 27.5 -61.5t77.5 -22.5q55 0 86 24.5t31 68.5q0 40 -29 62.5t-78 22.5q-57 0 -86 -26.5t-29 -67.5zM595 316q0 -32 23 -52t68 -20q50 0 75 21.5t25 59.5q0 31 -24.5 49t-68.5 18q-48 0 -73 -22t-25 -54zM636 680h47l-485 -680h-47z" />
    <glyph glyph-name="arrowleft" unicode="&#x2190;" horiz-adv-x="783" 
d="M264 476h75l-216 -213h626v-50h-625l215 -213h-75l-237 238z" />
    <glyph glyph-name="arrowup" unicode="&#x2191;" horiz-adv-x="545" 
d="M78 415v70l238 237l238 -237v-70l-209 208v-623h-58v625z" />
    <glyph glyph-name="arrowright" unicode="&#x2192;" horiz-adv-x="783" 
d="M443 476h75l237 -238l-237 -238h-75l215 213h-625v50h626z" />
    <glyph glyph-name="arrowdown" unicode="&#x2193;" horiz-adv-x="545" 
d="M40 227v70l209 -210v625h58v-623l209 208v-70l-238 -237z" />
    <glyph glyph-name="uni2196" unicode="&#x2196;" 
d="M578 29l-39 -39l-444 444l1 -298l-54 49l1 336h336l49 -49l-295 2z" />
    <glyph glyph-name="uni2197" unicode="&#x2197;" 
d="M144 472l49 49h336l1 -336l-54 -49l1 298l-444 -444l-39 39l445 445z" />
    <glyph glyph-name="uni2198" unicode="&#x2198;" 
d="M220 0l-49 49l295 -2l-445 445l39 39l444 -444l-1 298l54 -49l-1 -336h-336z" />
    </font>
</defs>
</svg>
