<?xml version="1.0" encoding="utf-8"?>
<!-- Generator: Adobe Illustrator 23.0.6, SVG Export Plug-In . SVG Version: 6.00 Build 0)  -->
<svg version="1.1" id="Layer_1" xmlns="http://www.w3.org/2000/svg" xmlns:xlink="http://www.w3.org/1999/xlink" x="0px" y="0px"
	 viewBox="0 0 570 309.7" style="enable-background:new 0 0 570 309.7;" xml:space="preserve">
<style type="text/css">
	.st0{clip-path:url(#SVGID_2_);}
	.st1{clip-path:url(#SVGID_4_);enable-background:new    ;}
	.st2{clip-path:url(#SVGID_6_);}
	.st3{clip-path:url(#SVGID_8_);}
	.st4{clip-path:url(#SVGID_10_);fill:#E6E6E6;}
	.st5{clip-path:url(#SVGID_12_);}
	.st6{clip-path:url(#SVGID_14_);fill:#F0F0F0;}
	.st7{clip-path:url(#SVGID_16_);}
	.st8{clip-path:url(#SVGID_18_);fill:#FFFFFF;}
	.st9{clip-path:url(#SVGID_20_);}
	.st10{clip-path:url(#SVGID_22_);fill:#00A9F4;}
	.st11{clip-path:url(#SVGID_24_);}
	.st12{clip-path:url(#SVGID_26_);fill:#E6E6E6;}
	.st13{clip-path:url(#SVGID_28_);}
	.st14{clip-path:url(#SVGID_30_);fill:#E6E6E6;}
	.st15{clip-path:url(#SVGID_32_);}
	.st16{clip-path:url(#SVGID_34_);fill:#B3B3B3;}
	.st17{clip-path:url(#SVGID_36_);}
	.st18{clip-path:url(#SVGID_38_);fill:#B3B3B3;}
	.st19{clip-path:url(#SVGID_40_);}
	.st20{clip-path:url(#SVGID_42_);fill:#FFFFFF;}
	.st21{clip-path:url(#SVGID_44_);}
	.st22{clip-path:url(#SVGID_46_);fill:#D0D0D0;}
	.st23{clip-path:url(#SVGID_48_);}
	.st24{clip-path:url(#SVGID_50_);fill:#00A9F4;}
	.st25{clip-path:url(#SVGID_52_);}
	.st26{clip-path:url(#SVGID_54_);fill:#051C2C;}
	.st27{clip-path:url(#SVGID_56_);}
	.st28{clip-path:url(#SVGID_58_);fill:#00A9F4;}
	.st29{clip-path:url(#SVGID_60_);}
	.st30{clip-path:url(#SVGID_62_);fill:#00A9F4;}
	.st31{clip-path:url(#SVGID_64_);}
	.st32{clip-path:url(#SVGID_66_);fill:#1F40E6;}
	.st33{clip-path:url(#SVGID_68_);}
	.st34{clip-path:url(#SVGID_70_);fill:#D0D0D0;}
	.st35{clip-path:url(#SVGID_72_);}
	.st36{opacity:0.2;clip-path:url(#SVGID_74_);}
	.st37{clip-path:url(#SVGID_76_);}
	.st38{clip-path:url(#SVGID_78_);fill:#1F40E6;}
	.st39{clip-path:url(#SVGID_80_);}
	.st40{clip-path:url(#SVGID_82_);fill:#051C2C;}
	.st41{clip-path:url(#SVGID_84_);}
	.st42{clip-path:url(#SVGID_86_);fill:#00A9F4;}
	.st43{clip-path:url(#SVGID_88_);}
	.st44{clip-path:url(#SVGID_90_);fill:#B3B3B3;}
	.st45{clip-path:url(#SVGID_92_);}
	.st46{clip-path:url(#SVGID_94_);fill:#D0D0D0;}
	.st47{clip-path:url(#SVGID_96_);}
	.st48{clip-path:url(#SVGID_98_);fill:#B3B3B3;}
</style>
<g>
	<defs>
		<path id="SVGID_1_" d="M282.5,302.3c-94.4,0-171-16.9-171-111.5c0-14.2,2-100.7,6.1-259.3h335.9c0,109.8,0,196.2,0,259.3
			C453.5,285.3,376.9,302.3,282.5,302.3z"/>
	</defs>
	<clipPath id="SVGID_2_">
		<use xlink:href="#SVGID_1_"  style="overflow:visible;"/>
	</clipPath>
	<g class="st0">
		<defs>
			<rect id="SVGID_3_" x="43.3" y="-68.6" width="483.9" height="801.9"/>
		</defs>
		<clipPath id="SVGID_4_">
			<use xlink:href="#SVGID_3_"  style="overflow:visible;"/>
		</clipPath>
		<g class="st1">
			<g>
				<defs>
					<rect id="SVGID_5_" x="111.5" y="4.3" width="342" height="372.4"/>
				</defs>
				<clipPath id="SVGID_6_">
					<use xlink:href="#SVGID_5_"  style="overflow:visible;"/>
				</clipPath>
				<g class="st2">
					<defs>
						<path id="SVGID_7_" d="M453.5,190.7c0,94.6-76.6,111.5-171,111.5c-94.4,0-171-16.9-171-111.5c0-94.6,76.6-126.8,171-126.8
							C376.9,63.9,453.5,96.1,453.5,190.7"/>
					</defs>
					<clipPath id="SVGID_8_">
						<use xlink:href="#SVGID_7_"  style="overflow:visible;"/>
					</clipPath>
					<g class="st3">
						<defs>
							<rect id="SVGID_9_" x="111.5" y="4.3" width="342" height="298.7"/>
						</defs>
						<clipPath id="SVGID_10_">
							<use xlink:href="#SVGID_9_"  style="overflow:visible;"/>
						</clipPath>
						<rect x="106.9" y="59.3" class="st4" width="351.2" height="247.6"/>
					</g>
				</g>
				<g class="st2">
					<defs>
						<path id="SVGID_11_" d="M234.5,56.8h200c2.8,0,5,2.2,5,5v142.3c0,2.8-2.2,5-5,5h-200c-2.8,0-5-2.2-5-5V61.8
							C229.5,59,231.7,56.8,234.5,56.8z"/>
					</defs>
					<clipPath id="SVGID_12_">
						<use xlink:href="#SVGID_11_"  style="overflow:visible;"/>
					</clipPath>
					<g class="st5">
						<defs>
							<rect id="SVGID_13_" x="229.5" y="56.8" width="210.2" height="153"/>
						</defs>
						<clipPath id="SVGID_14_">
							<use xlink:href="#SVGID_13_"  style="overflow:visible;"/>
						</clipPath>
						<rect x="224.9" y="52.2" class="st6" width="219.2" height="161.5"/>
					</g>
				</g>
				<g class="st2">
					<defs>
						<path id="SVGID_15_" d="M288.4,85.6h92.8c2.8,0,5,2.2,5,5v54.5c0,2.8-2.2,5-5,5h-92.8c-2.8,0-5-2.2-5-5V90.6
							C283.4,87.9,285.6,85.6,288.4,85.6z"/>
					</defs>
					<clipPath id="SVGID_16_">
						<use xlink:href="#SVGID_15_"  style="overflow:visible;"/>
					</clipPath>
					<g class="st7">
						<defs>
							<rect id="SVGID_17_" x="229.5" y="56.8" width="210.2" height="153"/>
						</defs>
						<clipPath id="SVGID_18_">
							<use xlink:href="#SVGID_17_"  style="overflow:visible;"/>
						</clipPath>
						<rect x="278.8" y="81" class="st8" width="112" height="73.8"/>
					</g>
				</g>
				<g class="st2">
					<defs>
						<path id="SVGID_19_" d="M351.7,112c0,9.3-7.6,16.9-16.9,16.9c-9.3,0-16.9-7.6-16.9-16.9S325.5,95,334.8,95
							C344.1,95,351.7,102.6,351.7,112z M347.6,112c0-7.1-5.7-12.8-12.8-12.8c-7.1,0-12.8,5.7-12.8,12.8c0,7.1,5.7,12.8,12.8,12.8
							C341.9,124.7,347.6,119,347.6,112z M332.6,118.3h3.4v3.6h-3.4V118.3z M332.9,110.8l-3.7-0.6c-0.4-0.8-0.6-1.7-0.6-2.7
							c0-3,2.3-5.6,6.2-5.6c4.4,0,6.3,2.7,6.3,5.6c0,2-0.9,3.7-2.5,5.1l-1,0.8c-1.3,1.1-1.7,1.6-1.7,2.9v0.9h-3.1v-1.1
							c0-1.8,0.3-3,2.1-4.4l1.2-1c1.1-0.9,1.5-2,1.5-3.2c0-1.6-1-2.7-2.8-2.7c-1.9,0-2.8,1.2-2.8,2.8
							C331.9,108.8,332.3,109.9,332.9,110.8z"/>
					</defs>
					<clipPath id="SVGID_20_">
						<use xlink:href="#SVGID_19_"  style="overflow:visible;"/>
					</clipPath>
					<g class="st9">
						<defs>
							<rect id="SVGID_21_" x="229.5" y="56.8" width="210.2" height="153"/>
						</defs>
						<clipPath id="SVGID_22_">
							<use xlink:href="#SVGID_21_"  style="overflow:visible;"/>
						</clipPath>
						<rect x="313.3" y="90.4" class="st10" width="43.1" height="43.1"/>
					</g>
				</g>
				<g class="st2">
					<defs>
						<path id="SVGID_23_" d="M312.9,134.5h43.9c1,0,1.9,0.8,1.9,1.9c0,1-0.8,1.9-1.9,1.9h-43.9c-1,0-1.9-0.8-1.9-1.9
							C311,135.4,311.8,134.5,312.9,134.5z"/>
					</defs>
					<clipPath id="SVGID_24_">
						<use xlink:href="#SVGID_23_"  style="overflow:visible;"/>
					</clipPath>
					<g class="st11">
						<defs>
							<rect id="SVGID_25_" x="229.5" y="56.8" width="210.2" height="153"/>
						</defs>
						<clipPath id="SVGID_26_">
							<use xlink:href="#SVGID_25_"  style="overflow:visible;"/>
						</clipPath>
						<rect x="306.4" y="129.9" class="st12" width="56.9" height="13"/>
					</g>
				</g>
				<g class="st2">
					<defs>
						<path id="SVGID_27_" d="M320.4,140.8h28.8c1,0,1.9,0.8,1.9,1.9s-0.8,1.9-1.9,1.9h-28.8c-1,0-1.9-0.8-1.9-1.9
							S319.3,140.8,320.4,140.8z"/>
					</defs>
					<clipPath id="SVGID_28_">
						<use xlink:href="#SVGID_27_"  style="overflow:visible;"/>
					</clipPath>
					<g class="st13">
						<defs>
							<rect id="SVGID_29_" x="229.5" y="56.8" width="210.2" height="153"/>
						</defs>
						<clipPath id="SVGID_30_">
							<use xlink:href="#SVGID_29_"  style="overflow:visible;"/>
						</clipPath>
						<rect x="313.9" y="136.2" class="st14" width="41.8" height="13"/>
					</g>
				</g>
				<g class="st2">
					<defs>
						<path id="SVGID_31_" d="M287.8,182.2h94.6c1,0,1.9,0.8,1.9,1.9s-0.8,1.9-1.9,1.9h-94.6c-1,0-1.9-0.8-1.9-1.9
							S286.8,182.2,287.8,182.2z M264.6,175.9H405c1,0,1.9,0.8,1.9,1.9c0,1-0.8,1.9-1.9,1.9H264.6c-1,0-1.9-0.8-1.9-1.9
							C262.7,176.7,263.6,175.9,264.6,175.9z M287.8,169h94.6c1,0,1.9,0.8,1.9,1.9s-0.8,1.9-1.9,1.9h-94.6c-1,0-1.9-0.8-1.9-1.9
							S286.8,169,287.8,169z M264.6,162.7H405c1,0,1.9,0.8,1.9,1.9c0,1-0.8,1.9-1.9,1.9H264.6c-1,0-1.9-0.8-1.9-1.9
							C262.7,163.6,263.6,162.7,264.6,162.7z"/>
					</defs>
					<clipPath id="SVGID_32_">
						<use xlink:href="#SVGID_31_"  style="overflow:visible;"/>
					</clipPath>
					<g class="st15">
						<defs>
							<rect id="SVGID_33_" x="229.5" y="56.8" width="210.2" height="153"/>
						</defs>
						<clipPath id="SVGID_34_">
							<use xlink:href="#SVGID_33_"  style="overflow:visible;"/>
						</clipPath>
						<rect x="258.1" y="158.1" class="st16" width="153.4" height="32.4"/>
					</g>
				</g>
				<g class="st2">
					<defs>
						<path id="SVGID_35_" d="M234.5,56.8h200c2.8,0,5,2.2,5,5v11.9h-210V61.8C229.5,59,231.7,56.8,234.5,56.8z"/>
					</defs>
					<clipPath id="SVGID_36_">
						<use xlink:href="#SVGID_35_"  style="overflow:visible;"/>
					</clipPath>
					<g class="st17">
						<defs>
							<rect id="SVGID_37_" x="229.5" y="56.8" width="210.2" height="153"/>
						</defs>
						<clipPath id="SVGID_38_">
							<use xlink:href="#SVGID_37_"  style="overflow:visible;"/>
						</clipPath>
						<rect x="224.9" y="52.2" class="st18" width="219.2" height="26.1"/>
					</g>
				</g>
				<g class="st2">
					<defs>
						<path id="SVGID_39_" d="M252.7,68.1c-1.4,0-2.5-1.1-2.5-2.5c0-1.4,1.1-2.5,2.5-2.5c1.4,0,2.5,1.1,2.5,2.5
							C255.2,67,254.1,68.1,252.7,68.1z M245.2,68.1c-1.4,0-2.5-1.1-2.5-2.5c0-1.4,1.1-2.5,2.5-2.5c1.4,0,2.5,1.1,2.5,2.5
							C247.7,67,246.6,68.1,245.2,68.1z M237.6,68.1c-1.4,0-2.5-1.1-2.5-2.5c0-1.4,1.1-2.5,2.5-2.5c1.4,0,2.5,1.1,2.5,2.5
							C240.2,67,239,68.1,237.6,68.1z"/>
					</defs>
					<clipPath id="SVGID_40_">
						<use xlink:href="#SVGID_39_"  style="overflow:visible;"/>
					</clipPath>
					<g class="st19">
						<defs>
							<rect id="SVGID_41_" x="229.5" y="56.8" width="210.2" height="153"/>
						</defs>
						<clipPath id="SVGID_42_">
							<use xlink:href="#SVGID_41_"  style="overflow:visible;"/>
						</clipPath>
						<rect x="230.5" y="58.5" class="st20" width="29.3" height="14.2"/>
					</g>
				</g>
				<g class="st2">
					<defs>
						<path id="SVGID_43_" d="M219.3,40.8c-1.9-6.2-3.9-20.1,14.6-24.1c17.1-3.7,20.9,15.2,20.9,15.2c0.2,0.8,0.5,1.7,0.5,2.5
							c0.1,0.9,0.1,1.8,0.2,2.7c0.2,1.8,0.5,3.5,1,5.2c0.5,1.5,1.3,3,2.2,4.3c0.7,1,2.3,2.6,1.9,3.9c-0.2,0.8-1.3,1-2.2,1
							c-1.8-0.2-2.8-0.1-3.2,1.9c-0.3,1.4-0.2,2.8-0.7,4.2c-0.6,1.6-1.4,3.2-2.5,4.5c-2.5,2.8-6.1,3.7-9.7,3.3
							c-1.4-0.2-2.7-0.4-4-0.7c-4.1,14.6,7.6,10.5,10.9,14.8c0.4,3.5,1,9.7-1.9,12.9c-2.8,3.2-7.6,3.8-15.6,3.2
							c-8.1-0.5-9-2.8-11.3-6.4c-1.6-2.4-1.6-6.6-0.1-12.7c10.4,0,8.7-11.6,7.1-17.7c-3.6-3.4-5.3-7.2-6-9.3
							c-1.8,1.7-5.3-0.6-6.6-2.2c-0.9-1.1-1.3-2.6-1.1-4c0.1-0.9,0.5-1.8,1.3-2.4c0.7-0.5,1.7-0.6,2.5-0.5
							C218.2,40.4,218.8,40.6,219.3,40.8z"/>
					</defs>
					<clipPath id="SVGID_44_">
						<use xlink:href="#SVGID_43_"  style="overflow:visible;"/>
					</clipPath>
					<g class="st21">
						<defs>
							<rect id="SVGID_45_" x="188.9" y="4.3" width="89.4" height="92.2"/>
						</defs>
						<clipPath id="SVGID_46_">
							<use xlink:href="#SVGID_45_"  style="overflow:visible;"/>
						</clipPath>
						<rect x="209.2" y="11.6" class="st22" width="56.2" height="88.7"/>
					</g>
				</g>
				<g class="st2">
					<defs>
						<path id="SVGID_47_" d="M225.5,42.6c5.7,10.2,10.3,13.4,14,13.4c6.2,0,13.7-3.9,16.5-3.9c-0.6,1.4-0.9,2.5-1,3
							c-4.9,1.5-7.4,3-7.4,4.5c0,1.1,1.1,1.8,2.2,1.5c1.3-0.3,2.3-0.4,4-1.5c-2.3,3.8-4,5.8-9,5.8c-7.4,0-12.3-3.4-15.9-11.1
							c-2.2-4.9-5.2-9.2-7.2-11.5c-1.2-0.8-2.1-1.9-2.2-1.9c-3.2-1.2-5.6,0-5.6,3.1c0.1,4.9,6.3,6.6,7.7,5.4c0.8,2.5,3.7,6.7,6,9.3
							c-13.2-0.8-19.8-10.4-19.8-22.6c-1.2-17.8,10.6-24.4,18.4-27.2c7.8-2.9,18.9,2.3,24.8,3c3.9,0.5,7.2-1.8,9.9-6.9
							c2.8,3.1,3.7,6.1,2.9,9.1c-0.6,3.5-9,13.2-24.3,8.5c-1.5-0.5-6.9,1.5-8.1,6c-1.3,4.4-6.4,1.3-5.3,7.6
							C226.3,39.5,226,41.5,225.5,42.6z"/>
					</defs>
					<clipPath id="SVGID_48_">
						<use xlink:href="#SVGID_47_"  style="overflow:visible;"/>
					</clipPath>
					<g class="st23">
						<defs>
							<rect id="SVGID_49_" x="188.9" y="4.3" width="89.4" height="92.2"/>
						</defs>
						<clipPath id="SVGID_50_">
							<use xlink:href="#SVGID_49_"  style="overflow:visible;"/>
						</clipPath>
						<rect x="203" y="0.4" class="st24" width="65.7" height="69.7"/>
					</g>
				</g>
				<g class="st2">
					<defs>
						<path id="SVGID_51_" d="M237.1,230.7c-2.8,12.9-5.2,24.9-6.3,32.6c-3,20.5-14.2,73.4-17.5,98.6c-4,0.1-10.3-0.1-14.3,0
							c0.1-1,0-1.6,0-2.2c-2.1-30,0.5-85.9,3.2-119.4c1-12.8,3.1-51.7,5.7-66.4h11.2h42.6l9.5,71.3l9,115.9c0,0-6.7,0-13.6,0
							c-6.8-37.3-14.3-71.8-22.4-103.5C241.7,247.8,239.3,238.9,237.1,230.7z"/>
					</defs>
					<clipPath id="SVGID_52_">
						<use xlink:href="#SVGID_51_"  style="overflow:visible;"/>
					</clipPath>
					<g class="st25">
						<defs>
							<rect id="SVGID_53_" x="111.5" y="173.9" width="261.8" height="129"/>
						</defs>
						<clipPath id="SVGID_54_">
							<use xlink:href="#SVGID_53_"  style="overflow:visible;"/>
						</clipPath>
						<rect x="193.5" y="169.2" class="st26" width="91.3" height="197.3"/>
					</g>
				</g>
				<g class="st2">
					<defs>
						<path id="SVGID_55_" d="M205.6,184.9c9.7,1.7,19.5,2.5,29.3,2.5c9.8,0,19.7-0.8,29.5-2.5l1,12.9c-10.3,1.7-20.6,2.5-30.9,2.5
							s-20.6-0.8-30.9-2.5L205.6,184.9z"/>
					</defs>
					<clipPath id="SVGID_56_">
						<use xlink:href="#SVGID_55_"  style="overflow:visible;"/>
					</clipPath>
					<g class="st27">
						<defs>
							<rect id="SVGID_57_" x="111.5" y="173.9" width="261.8" height="129"/>
						</defs>
						<clipPath id="SVGID_58_">
							<use xlink:href="#SVGID_57_"  style="overflow:visible;"/>
						</clipPath>
						<rect x="199.1" y="180.3" class="st28" width="71" height="24.6"/>
					</g>
				</g>
				<g class="st2">
					<defs>
						<path id="SVGID_59_" d="M262.2,102.4c0.3-6.2,0-8,0-13.5c0-3.5-2.5-5.7-5-7.5c-1.3-1-10.2-5.5-12-5.2
							c-1.3,0.2-5.3,7.2-11.2,7.1c-5.1,0.1-8.1-1.6-13.7-7.1c-1.4,0.1-7.8,1.5-10.6,3.4c-2.8,1.9-2.4,2.5-2.9,3.7
							c-1.5,3.8-1.2,8.2-1.1,12.2c0.4,13.2-0.6,23.3-1.3,36.8c-0.7,13.5-1.7,37.6-1.5,48.5c7.1,0,30.5,6.6,62.4,0
							C263.4,163.5,261.8,108.7,262.2,102.4z"/>
					</defs>
					<clipPath id="SVGID_60_">
						<use xlink:href="#SVGID_59_"  style="overflow:visible;"/>
					</clipPath>
					<g class="st29">
						<defs>
							<rect id="SVGID_61_" x="111.5" y="66.9" width="261.8" height="193.6"/>
						</defs>
						<clipPath id="SVGID_62_">
							<use xlink:href="#SVGID_61_"  style="overflow:visible;"/>
						</clipPath>
						
							<rect x="177.1" y="93" transform="matrix(5.233572e-02 -0.9986 0.9986 5.233572e-02 93.8346 358.5028)" class="st30" width="117.4" height="73.6"/>
					</g>
				</g>
				<g class="st2">
					<defs>
						<path id="SVGID_63_" d="M240.1,117.4c-0.2-12.4-0.6-25.1-1-38.1c2.3-2,5.5-3.1,6.2-3.2c1.2-0.2,5.5,1.7,8.7,3.3
							c20.2,0,53.7,4.5,92.6-8l1.8,13.1c-20.5,7.4-49.1,15-86,22.8c0.7,25,8.6,61.6,8.6,92.8c-8.7,1.2-7.5-0.2-14.5,0h-11
							c-3.1-14.9-4.7-27.4-4.7-37.4c0-9.7-0.1-19.5-0.2-29.5c-1.7,0.2-3.4,0.4-5.1,0.6c0.2,2.6,0.4,5,0.5,7.4
							c1.5,24.3,0,42.2-4.7,53.7l-2.1,5.2c-16.1,1.4-23.3,0-29.6-1.6c-0.2-9.8,3.5-44.6,4.7-61.4c-3.6,0.3-6.8,0.6-9.7,0.8
							c-1-0.6-2-2-3-4.4l4.8-38.2c0.8-6.1,4.5-11.4,10-14.2l3.9-2c3-1.8,9-3.2,10.3-3.2c2.5,1.4,6.2,3.1,8.7,4.1
							c1.9,13.8,3.5,26.2,4.7,37.2H240.1z"/>
					</defs>
					<clipPath id="SVGID_64_">
						<use xlink:href="#SVGID_63_"  style="overflow:visible;"/>
					</clipPath>
					<g class="st31">
						<defs>
							<rect id="SVGID_65_" x="111.5" y="66.9" width="261.8" height="193.6"/>
						</defs>
						<clipPath id="SVGID_66_">
							<use xlink:href="#SVGID_65_"  style="overflow:visible;"/>
						</clipPath>
						<rect x="186.8" y="66.9" class="st32" width="166.1" height="138.5"/>
					</g>
				</g>
				<g class="st2">
					<defs>
						<path id="SVGID_67_" d="M255.9,127c0-3.5,0-5.4,0.1-7.9c1.4,0,3.4,0,6.2,0c7.8-2.2,14.8-5.4,15-3.8c0.2,2.4-4.5,3.2-4.6,5
							c0.1,3.4,5.6,3,9.6,4.7c4.1,1.7,2,2.9,0.7,3.2c-5.6-0.7-11.8-1.4-18.8-1.9C260.4,126.6,257.7,126.8,255.9,127z M347,75.2
							c6.5-2.6,12.5-5.4,17.6-7.7c1.4-0.1,3.7,0.4,0.4,3.3c-3.4,2.9-8.7,4.2-7.7,7.4c0.7,1.7,5.4,1,5.9,3.3
							c0.4,1.5-7.1,0.6-15.2,0.9L347,75.2z"/>
					</defs>
					<clipPath id="SVGID_68_">
						<use xlink:href="#SVGID_67_"  style="overflow:visible;"/>
					</clipPath>
					<g class="st33">
						<defs>
							<rect id="SVGID_69_" x="111.5" y="66.9" width="261.8" height="193.6"/>
						</defs>
						<clipPath id="SVGID_70_">
							<use xlink:href="#SVGID_69_"  style="overflow:visible;"/>
						</clipPath>
						<rect x="251.3" y="62.9" class="st34" width="120" height="69.8"/>
					</g>
				</g>
				<g class="st2">
					<defs>
						<path id="SVGID_71_" d="M209.6,99.4c1.6,5.2,3,10.9,3.3,18h-4.6l1-18H209.6z M255,131.4c0.5,1.1,0.8,2.3,1,3.7
							c-9.3,1.7-52.2,5.9-52.2,5.9c0.2-1.6,0.4-2.9,0.5-3.9C216.7,136.1,233.6,134.2,255,131.4z"/>
					</defs>
					<clipPath id="SVGID_72_">
						<use xlink:href="#SVGID_71_"  style="overflow:visible;"/>
					</clipPath>
					<g class="st35">
						<defs>
							<rect id="SVGID_73_" x="111.5" y="66.9" width="261.8" height="193.6"/>
						</defs>
						<clipPath id="SVGID_74_">
							<use xlink:href="#SVGID_73_"  style="overflow:visible;"/>
						</clipPath>
						<rect x="199.1" y="94.8" class="st36" width="61.4" height="50.9"/>
					</g>
				</g>
				<g class="st2">
					<defs>
						<path id="SVGID_75_" d="M327.2,216.9c5.2,9.4,7.7,20,7.7,31.8h-1.3c0-10.2-1.9-19.4-5.8-27.7l-6.3-4.3c-6.5-5-7.9-8.3-4.1-9.8
							C320.7,205.6,323.9,209,327.2,216.9z"/>
					</defs>
					<clipPath id="SVGID_76_">
						<use xlink:href="#SVGID_75_"  style="overflow:visible;"/>
					</clipPath>
					<g class="st37">
						<defs>
							<rect id="SVGID_77_" x="301.4" y="191.4" width="68.2" height="111.5"/>
						</defs>
						<clipPath id="SVGID_78_">
							<use xlink:href="#SVGID_77_"  style="overflow:visible;"/>
						</clipPath>
						<rect x="310.7" y="202" class="st38" width="28.9" height="51.3"/>
					</g>
				</g>
				<g class="st2">
					<defs>
						<path id="SVGID_79_" d="M342,221.4c-3.7,7.8-5.5,16.9-5.5,27.3h-1.3c0-13.5,3.1-25,9.3-34.3c3.1-5.6,6.1-7.8,8.8-6.6
							c3.8,1.7,2.2,4.9-4.6,9.6L342,221.4z"/>
					</defs>
					<clipPath id="SVGID_80_">
						<use xlink:href="#SVGID_79_"  style="overflow:visible;"/>
					</clipPath>
					<g class="st39">
						<defs>
							<rect id="SVGID_81_" x="301.4" y="191.4" width="68.2" height="111.5"/>
						</defs>
						<clipPath id="SVGID_82_">
							<use xlink:href="#SVGID_81_"  style="overflow:visible;"/>
						</clipPath>
						<rect x="330.6" y="202.9" class="st40" width="29.3" height="50.5"/>
					</g>
				</g>
				<g class="st2">
					<defs>
						<path id="SVGID_83_" d="M343.3,231.1c-5,4.1-7.5,10-7.5,17.6h-1.3c0-9.6,3.8-16.6,11.2-20.9c6.2-6.5,10.7-8.5,13.2-6.1
							c3,2.8,0.5,5.4-7.5,7.6L343.3,231.1z"/>
					</defs>
					<clipPath id="SVGID_84_">
						<use xlink:href="#SVGID_83_"  style="overflow:visible;"/>
					</clipPath>
					<g class="st41">
						<defs>
							<rect id="SVGID_85_" x="301.4" y="191.4" width="68.2" height="111.5"/>
						</defs>
						<clipPath id="SVGID_86_">
							<use xlink:href="#SVGID_85_"  style="overflow:visible;"/>
						</clipPath>
						<rect x="329.9" y="216.1" class="st42" width="34.9" height="37.2"/>
					</g>
				</g>
				<g class="st2">
					<defs>
						<path id="SVGID_87_" d="M326.4,232.1c2,1.6,3.5,2.9,4.3,4.1c4,5.1,5.7,11.5,5.7,18.8h-1.3c0-7-1.7-13.1-5.5-18
							c-0.9-1.2-2.6-2.7-5-4.5l-4.2-1.4c-5.9-2.4-7.6-4.5-5-6.3C317.9,223,321.5,225.4,326.4,232.1z"/>
					</defs>
					<clipPath id="SVGID_88_">
						<use xlink:href="#SVGID_87_"  style="overflow:visible;"/>
					</clipPath>
					<g class="st43">
						<defs>
							<rect id="SVGID_89_" x="301.4" y="191.4" width="68.2" height="111.5"/>
						</defs>
						<clipPath id="SVGID_90_">
							<use xlink:href="#SVGID_89_"  style="overflow:visible;"/>
						</clipPath>
						<rect x="309.7" y="219.6" class="st44" width="31.4" height="39.9"/>
					</g>
				</g>
				<g class="st2">
					<defs>
						<path id="SVGID_91_" d="M334,216.6c1.3,8.3,1.9,19,1.9,32.1h-1.3c0-13.1-0.6-23.7-1.9-31.9l-6.3-9.4
							c-6.2-10.6-6.2-15.9-0.1-15.8C332.2,191.6,334.8,199.9,334,216.6z"/>
					</defs>
					<clipPath id="SVGID_92_">
						<use xlink:href="#SVGID_91_"  style="overflow:visible;"/>
					</clipPath>
					<g class="st45">
						<defs>
							<rect id="SVGID_93_" x="301.4" y="191.4" width="68.2" height="111.5"/>
						</defs>
						<clipPath id="SVGID_94_">
							<use xlink:href="#SVGID_93_"  style="overflow:visible;"/>
						</clipPath>
						<rect x="317.1" y="186.9" class="st46" width="23.4" height="66.4"/>
					</g>
				</g>
				<g class="st2">
					<defs>
						<path id="SVGID_95_" d="M316.9,239.3h37.4v123.9c0,7.1-5.8,12.9-12.9,12.9h-11.6c-7.1,0-12.9-5.8-12.9-12.9V239.3z"/>
					</defs>
					<clipPath id="SVGID_96_">
						<use xlink:href="#SVGID_95_"  style="overflow:visible;"/>
					</clipPath>
					<g class="st47">
						<defs>
							<rect id="SVGID_97_" x="301.4" y="191.4" width="68.2" height="111.5"/>
						</defs>
						<clipPath id="SVGID_98_">
							<use xlink:href="#SVGID_97_"  style="overflow:visible;"/>
						</clipPath>
						<rect x="312.3" y="234.7" class="st48" width="46.6" height="146"/>
					</g>
				</g>
			</g>
		</g>
	</g>
</g>
</svg>
