<?xml version="1.0" encoding="utf-8"?>
<!-- Generator: Adobe Illustrator 22.1.0, SVG Export Plug-In . SVG Version: 6.00 Build 0)  -->
<svg version="1.1" id="Layer_1" xmlns="http://www.w3.org/2000/svg" xmlns:xlink="http://www.w3.org/1999/xlink" x="0px" y="0px"
	 viewBox="0 0 150 150" style="enable-background:new 0 0 150 150;" xml:space="preserve">
<style type="text/css">
	.st0{fill:#EBEBEB;}
	.st1{fill:none;stroke:#000000;stroke-width:2;stroke-linecap:round;}
	.st2{fill:none;stroke:#000000;stroke-width:2;}
	
		.st3{clip-path:url(#SVGID_2_);fill:none;stroke:#000000;stroke-width:2.5;stroke-linecap:round;stroke-linejoin:round;stroke-dasharray:0,4.897;}
	
		.st4{clip-path:url(#SVGID_4_);fill:none;stroke:#000000;stroke-width:2.5;stroke-linecap:round;stroke-linejoin:round;stroke-dasharray:0,4.873;}
	.st5{clip-path:url(#SVGID_6_);fill:none;stroke:#FFFFFF;stroke-width:2.5;stroke-linecap:round;stroke-linejoin:round;}
</style>
<circle class="st0" cx="75.4" cy="75.4" r="74.6"/>
<circle id="XMLID_24_" class="st1" cx="75.2" cy="74.2" r="20.2"/>
<path id="XMLID_23_" class="st1" d="M84.3,38c13.6,3.5,24.2,14.4,27.3,28.1"/>
<circle id="XMLID_22_" class="st2" cx="74.8" cy="36.8" r="4.6"/>
<path id="XMLID_21_" class="st1" d="M111.7,82.2C108.6,96,98,106.8,84.4,110.4"/>
<line id="XMLID_20_" class="st1" x1="116.6" y1="69.3" x2="107.7" y2="78.1"/>
<line id="XMLID_19_" class="st1" x1="116.6" y1="78.1" x2="107.7" y2="69.3"/>
<polyline id="XMLID_18_" class="st1" points="79.8,106.3 74.1,115.5 69.6,112.5 "/>
<polyline id="XMLID_15_" class="st1" points="74.8,62.4 74.8,75.7 83.2,75.7 "/>
<g id="XMLID_8_">
	<g>
		<g>
			<g>
				<g>
					<g>
						<defs>
							<rect id="SVGID_1_" x="34.9" y="36.1" width="30.1" height="75.2"/>
						</defs>
						<clipPath id="SVGID_2_">
							<use xlink:href="#SVGID_1_"  style="overflow:visible;"/>
						</clipPath>
						<path id="XMLID_35_" class="st3" d="M59.1,39c-12.8,5.6-22,17.8-22.9,32.3"/>
					</g>
				</g>
			</g>
		</g>
	</g>
	<g>
		<g>
			<g>
				<g>
					<g>
						<defs>
							<rect id="SVGID_3_" x="34.9" y="36.1" width="30.1" height="75.2"/>
						</defs>
						<clipPath id="SVGID_4_">
							<use xlink:href="#SVGID_3_"  style="overflow:visible;"/>
						</clipPath>
						<path id="XMLID_14_" class="st4" d="M36.4,78.6c1.8,14.1,11.6,25.8,24.7,30.7"/>
					</g>
				</g>
			</g>
		</g>
	</g>
	<g>
		<g>
			<g>
				<g>
					<g>
						<defs>
							<rect id="SVGID_5_" x="34.9" y="36.1" width="30.1" height="75.2"/>
						</defs>
						<clipPath id="SVGID_6_">
							<use xlink:href="#SVGID_5_"  style="overflow:visible;"/>
						</clipPath>
						<path id="XMLID_10_" class="st5" d="M63.5,110L63.5,110 M36.1,73.7L36.1,73.7 M63.7,37.4L63.7,37.4"/>
					</g>
				</g>
			</g>
		</g>
	</g>
</g>
</svg>
