<?xml version="1.0" encoding="utf-8"?>
<!-- Generator: Adobe Illustrator 23.0.6, SVG Export Plug-In . SVG Version: 6.00 Build 0)  -->
<svg version="1.1" id="Layer_1" xmlns="http://www.w3.org/2000/svg" xmlns:xlink="http://www.w3.org/1999/xlink" x="0px" y="0px"
	 viewBox="0 0 570 309.7" style="enable-background:new 0 0 570 309.7;" xml:space="preserve">
<style type="text/css">
	.st0{clip-path:url(#SVGID_2_);}
	.st1{clip-path:url(#SVGID_4_);enable-background:new    ;}
	.st2{clip-path:url(#SVGID_6_);}
	.st3{clip-path:url(#SVGID_8_);}
	.st4{clip-path:url(#SVGID_10_);fill:#00A9F4;}
	.st5{clip-path:url(#SVGID_12_);}
	.st6{clip-path:url(#SVGID_14_);fill:#F0F0F0;}
	.st7{clip-path:url(#SVGID_16_);}
	.st8{clip-path:url(#SVGID_18_);fill:#D0D0D0;}
	.st9{clip-path:url(#SVGID_20_);}
	.st10{clip-path:url(#SVGID_22_);fill:#7F7F7F;}
	.st11{clip-path:url(#SVGID_24_);}
	.st12{clip-path:url(#SVGID_26_);fill:#1F40E6;}
	.st13{clip-path:url(#SVGID_28_);}
	.st14{clip-path:url(#SVGID_30_);fill:#FFFFFF;}
	.st15{clip-path:url(#SVGID_32_);}
	.st16{clip-path:url(#SVGID_34_);fill:#E6E6E6;}
	.st17{clip-path:url(#SVGID_36_);}
	.st18{clip-path:url(#SVGID_38_);fill:#00A9F4;}
	.st19{clip-path:url(#SVGID_40_);}
	.st20{clip-path:url(#SVGID_42_);fill:#D0D0D0;}
	.st21{clip-path:url(#SVGID_44_);}
	.st22{clip-path:url(#SVGID_46_);fill:#00A9F4;}
	.st23{clip-path:url(#SVGID_48_);}
	.st24{clip-path:url(#SVGID_50_);fill:#051C2C;}
	.st25{clip-path:url(#SVGID_52_);}
	.st26{clip-path:url(#SVGID_54_);}
	.st27{clip-path:url(#SVGID_56_);fill:#D0D0D0;}
	.st28{clip-path:url(#SVGID_58_);}
	.st29{clip-path:url(#SVGID_60_);}
	.st30{clip-path:url(#SVGID_62_);fill:#00A9F4;}
	.st31{clip-path:url(#SVGID_64_);}
	.st32{clip-path:url(#SVGID_66_);}
	.st33{clip-path:url(#SVGID_68_);fill:#051C2C;}
	.st34{clip-path:url(#SVGID_70_);}
	.st35{clip-path:url(#SVGID_72_);fill:#051C2C;}
	.st36{clip-path:url(#SVGID_74_);}
	.st37{clip-path:url(#SVGID_76_);fill:#D0D0D0;}
	.st38{clip-path:url(#SVGID_78_);}
	.st39{clip-path:url(#SVGID_80_);fill:#1F40E6;}
	.st40{clip-path:url(#SVGID_82_);}
	.st41{clip-path:url(#SVGID_84_);fill:#FFFFFF;}
	.st42{clip-path:url(#SVGID_86_);}
	.st43{clip-path:url(#SVGID_88_);fill:#FFFFFF;}
	.st44{clip-path:url(#SVGID_90_);}
	.st45{clip-path:url(#SVGID_92_);fill:#1F40E6;}
</style>
<g>
	<g>
		<defs>
			<path id="SVGID_1_" d="M488.1-81H121.9c-3.3,147-4.9,224.8-4.7,233.5c0.8,44.8,21.9,89.9,56,118.4C228.3,317,316.3,309,381.3,292
				c36.4-9.5,76.8-25.9,96.6-60.2c8.9-15.3,13.3-33.8,7.8-51C481.1,166.1,481.9,78.8,488.1-81z"/>
		</defs>
		<clipPath id="SVGID_2_">
			<use xlink:href="#SVGID_1_"  style="overflow:visible;"/>
		</clipPath>
		<g class="st0">
			<defs>
				<rect id="SVGID_3_" x="21.1" y="-81" width="525" height="870"/>
			</defs>
			<clipPath id="SVGID_4_">
				<use xlink:href="#SVGID_3_"  style="overflow:visible;"/>
			</clipPath>
			<g class="st1">
				<g>
					<defs>
						<rect id="SVGID_5_" x="80.1" y="42" width="454" height="302"/>
					</defs>
					<clipPath id="SVGID_6_">
						<use xlink:href="#SVGID_5_"  style="overflow:visible;"/>
					</clipPath>
					<g class="st2">
						<defs>
							<path id="SVGID_7_" d="M390.5,136.1c-18.4,6.7-36.6,14.5-56.2,16.7c-40.7,4.7-56.1-28.9-72.1-60.1
								c-15.5-30.1-45.4-51.6-80.8-43c-30.7,7.4-51.5,34.7-59.5,64.1c-15.2,55.9,7.2,120.3,51.3,157.1
								C228.3,317,316.3,309,381.3,292c36.4-9.5,76.8-25.9,96.6-60.2c8.9-15.3,13.3-33.8,7.8-51
								C478.8,158.7,447.4,115.4,390.5,136.1"/>
						</defs>
						<clipPath id="SVGID_8_">
							<use xlink:href="#SVGID_7_"  style="overflow:visible;"/>
						</clipPath>
						<g class="st3">
							<defs>
								<rect id="SVGID_9_" x="116.1" y="14" width="372" height="292"/>
							</defs>
							<clipPath id="SVGID_10_">
								<use xlink:href="#SVGID_9_"  style="overflow:visible;"/>
							</clipPath>
							<rect x="112.1" y="42.8" class="st4" width="381" height="267.6"/>
						</g>
					</g>
					<g class="st2">
						<defs>
							<rect id="SVGID_11_" x="80.1" y="224" width="454" height="120"/>
						</defs>
						<clipPath id="SVGID_12_">
							<use xlink:href="#SVGID_11_"  style="overflow:visible;"/>
						</clipPath>
						<g class="st5">
							<defs>
								<rect id="SVGID_13_" x="116.1" y="14" width="372" height="292"/>
							</defs>
							<clipPath id="SVGID_14_">
								<use xlink:href="#SVGID_13_"  style="overflow:visible;"/>
							</clipPath>
							<rect x="75.1" y="219" class="st6" width="464" height="130"/>
						</g>
					</g>
					<g class="st2">
						<defs>
							<path id="SVGID_15_" d="M313.2,169.1c5.7-3.3,13.1-1.3,16.4,4.4l37.4,64.6c0,0,0,0,0,0c3.3,5.7,1.3,13-4.4,16.3l0,0
								c-5.7,3.3-13.1,1.3-16.4-4.4l-37.4-64.6c0,0,0,0,0,0C305.5,179.7,307.5,172.4,313.2,169.1L313.2,169.1z M292,169.1L292,169.1
								c5.7,3.3,7.7,10.6,4.4,16.3c0,0,0,0,0,0L259,250c-3.3,5.7-10.6,7.7-16.4,4.4l0,0c-5.7-3.3-7.7-10.6-4.4-16.3c0,0,0,0,0,0
								l37.4-64.6C278.9,167.8,286.3,165.8,292,169.1z"/>
						</defs>
						<clipPath id="SVGID_16_">
							<use xlink:href="#SVGID_15_"  style="overflow:visible;"/>
						</clipPath>
						<g class="st7">
							<defs>
								<rect id="SVGID_17_" x="220.1" y="70" width="165" height="186"/>
							</defs>
							<clipPath id="SVGID_18_">
								<use xlink:href="#SVGID_17_"  style="overflow:visible;"/>
							</clipPath>
							<rect x="231.6" y="162.5" class="st8" width="142" height="98.5"/>
						</g>
					</g>
					<g class="st2">
						<defs>
							<path id="SVGID_19_" d="M308,171.3c2.9-1.7,6.5-0.7,8.2,2.2l46.4,80.9c-5.7,3.3-13.1,1.4-16.4-4.4l-40.4-70.4
								C304.2,176.7,305.2,173,308,171.3z M297.2,171.3c2.9,1.7,3.8,5.3,2.2,8.2L259,250c-3.3,5.8-10.6,7.7-16.4,4.4l46.4-80.9
								C290.7,170.6,294.3,169.6,297.2,171.3z"/>
						</defs>
						<clipPath id="SVGID_20_">
							<use xlink:href="#SVGID_19_"  style="overflow:visible;"/>
						</clipPath>
						<g class="st9">
							<defs>
								<rect id="SVGID_21_" x="220.1" y="70" width="165" height="186"/>
							</defs>
							<clipPath id="SVGID_22_">
								<use xlink:href="#SVGID_21_"  style="overflow:visible;"/>
							</clipPath>
							<rect x="237.6" y="165.5" class="st10" width="130" height="95.5"/>
						</g>
					</g>
					<g class="st2">
						<defs>
							<circle id="SVGID_23_" cx="302.6" cy="152.5" r="82.5"/>
						</defs>
						<clipPath id="SVGID_24_">
							<use xlink:href="#SVGID_23_"  style="overflow:visible;"/>
						</clipPath>
						<g class="st11">
							<defs>
								<rect id="SVGID_25_" x="220.1" y="70" width="165" height="186"/>
							</defs>
							<clipPath id="SVGID_26_">
								<use xlink:href="#SVGID_25_"  style="overflow:visible;"/>
							</clipPath>
							<rect x="215.1" y="65" class="st12" width="175" height="175"/>
						</g>
					</g>
					<g class="st2">
						<defs>
							<circle id="SVGID_27_" cx="302.6" cy="152.5" r="60"/>
						</defs>
						<clipPath id="SVGID_28_">
							<use xlink:href="#SVGID_27_"  style="overflow:visible;"/>
						</clipPath>
						<g class="st13">
							<defs>
								<rect id="SVGID_29_" x="220.1" y="70" width="165" height="186"/>
							</defs>
							<clipPath id="SVGID_30_">
								<use xlink:href="#SVGID_29_"  style="overflow:visible;"/>
							</clipPath>
							<rect x="237.6" y="87.5" class="st14" width="130" height="130"/>
						</g>
					</g>
					<g class="st2">
						<defs>
							<circle id="SVGID_31_" cx="302.6" cy="152.5" r="37.5"/>
						</defs>
						<clipPath id="SVGID_32_">
							<use xlink:href="#SVGID_31_"  style="overflow:visible;"/>
						</clipPath>
						<g class="st15">
							<defs>
								<rect id="SVGID_33_" x="220.1" y="70" width="165" height="186"/>
							</defs>
							<clipPath id="SVGID_34_">
								<use xlink:href="#SVGID_33_"  style="overflow:visible;"/>
							</clipPath>
							<rect x="260.1" y="110" class="st16" width="85" height="85"/>
						</g>
					</g>
					<g class="st2">
						<defs>
							<circle id="SVGID_35_" cx="302.6" cy="152.5" r="18"/>
						</defs>
						<clipPath id="SVGID_36_">
							<use xlink:href="#SVGID_35_"  style="overflow:visible;"/>
						</clipPath>
						<g class="st17">
							<defs>
								<rect id="SVGID_37_" x="220.1" y="70" width="165" height="186"/>
							</defs>
							<clipPath id="SVGID_38_">
								<use xlink:href="#SVGID_37_"  style="overflow:visible;"/>
							</clipPath>
							<rect x="279.6" y="129.5" class="st18" width="46" height="46"/>
						</g>
					</g>
				</g>
			</g>
		</g>
	</g>
	<g>
		<defs>
			<polygon id="SVGID_39_" points="303.1,151.6 303.1,151.6 306.3,155 310.6,153.5 307.6,150.5 304.6,147.5 			"/>
		</defs>
		<clipPath id="SVGID_40_">
			<use xlink:href="#SVGID_39_"  style="overflow:visible;"/>
		</clipPath>
		<g class="st19">
			<defs>
				<rect id="SVGID_41_" x="303.1" y="53" width="102" height="102"/>
			</defs>
			<clipPath id="SVGID_42_">
				<use xlink:href="#SVGID_41_"  style="overflow:visible;"/>
			</clipPath>
			<rect x="298.1" y="142.5" class="st20" width="17.5" height="17.5"/>
		</g>
	</g>
	<g>
		<defs>
			<path id="SVGID_43_" d="M391.9,67.4l13.2-2.4l-13.9,14l-8,0.5l6.8,0.8l-9.2,9.3L367.6,92L391.9,67.4z M393.1,53l-2.4,13.2
				l-24.6,24.3l2.4-13.2l12.3-12.2l-0.2,8.2l2.1-10.1L393.1,53z"/>
		</defs>
		<clipPath id="SVGID_44_">
			<use xlink:href="#SVGID_43_"  style="overflow:visible;"/>
		</clipPath>
		<g class="st21">
			<defs>
				<rect id="SVGID_45_" x="303.1" y="53" width="102" height="102"/>
			</defs>
			<clipPath id="SVGID_46_">
				<use xlink:href="#SVGID_45_"  style="overflow:visible;"/>
			</clipPath>
			<rect x="361.1" y="48" class="st22" width="49" height="49"/>
		</g>
	</g>
	<g>
		<defs>
			<path id="SVGID_47_" d="M308.5,151.6c-0.6,0.6-1.5,0.6-2,0c-0.6-0.6-0.6-1.5,0-2l79.6-79.6c0.6-0.6,1.5-0.6,2,0
				c0.6,0.6,0.6,1.5,0,2L308.5,151.6z"/>
		</defs>
		<clipPath id="SVGID_48_">
			<use xlink:href="#SVGID_47_"  style="overflow:visible;"/>
		</clipPath>
		<g class="st23">
			<defs>
				<rect id="SVGID_49_" x="303.1" y="53" width="102" height="102"/>
			</defs>
			<clipPath id="SVGID_50_">
				<use xlink:href="#SVGID_49_"  style="overflow:visible;"/>
			</clipPath>
			<rect x="301.1" y="64.5" class="st24" width="92.5" height="92.5"/>
		</g>
	</g>
	<g>
		<defs>
			
				<rect id="SVGID_51_" x="245.6" y="27.6" transform="matrix(0.682 -0.7314 0.7314 0.682 36.8571 241.9454)" width="102" height="102"/>
		</defs>
		<clipPath id="SVGID_52_">
			<use xlink:href="#SVGID_51_"  style="overflow:visible;"/>
		</clipPath>
		<g class="st25">
			<defs>
				<polygon id="SVGID_53_" points="296.7,148.4 296.7,148.4 301.4,148.3 303.2,144.1 298.9,144.3 294.7,144.5 				"/>
			</defs>
			<clipPath id="SVGID_54_">
				<use xlink:href="#SVGID_53_"  style="overflow:visible;"/>
			</clipPath>
			<g class="st26">
				<defs>
					<rect id="SVGID_55_" x="21.1" y="-81" width="525" height="870"/>
				</defs>
				<clipPath id="SVGID_56_">
					<use xlink:href="#SVGID_55_"  style="overflow:visible;"/>
				</clipPath>
				
					<rect x="290.2" y="136.6" transform="matrix(0.682 -0.7314 0.7314 0.682 -11.2418 264.8871)" class="st27" width="17.5" height="17.5"/>
			</g>
		</g>
	</g>
	<g>
		<defs>
			
				<rect id="SVGID_57_" x="245.6" y="27.6" transform="matrix(0.682 -0.7314 0.7314 0.682 36.8571 241.9454)" width="102" height="102"/>
		</defs>
		<clipPath id="SVGID_58_">
			<use xlink:href="#SVGID_57_"  style="overflow:visible;"/>
		</clipPath>
		<g class="st28">
			<defs>
				<path id="SVGID_59_" d="M295.7,26l7.2-11.3l0.8,19.7l-5.1,6.2l5.2-4.4l0.5,13.1l-7.2,11.3L295.7,26z M285.9,15.3l8,10.8l1,34.5
					l-8-10.8l-0.5-17.3l5.8,5.7l-5.9-8.4L285.9,15.3z"/>
			</defs>
			<clipPath id="SVGID_60_">
				<use xlink:href="#SVGID_59_"  style="overflow:visible;"/>
			</clipPath>
			<g class="st29">
				<defs>
					<rect id="SVGID_61_" x="21.1" y="-81" width="525" height="870"/>
				</defs>
				<clipPath id="SVGID_62_">
					<use xlink:href="#SVGID_61_"  style="overflow:visible;"/>
				</clipPath>
				
					<rect x="270.6" y="9.6" transform="matrix(0.682 -0.7314 0.7314 0.682 68.9233 226.6511)" class="st30" width="49" height="49"/>
			</g>
		</g>
	</g>
	<g>
		<defs>
			
				<rect id="SVGID_63_" x="245.6" y="27.6" transform="matrix(0.682 -0.7314 0.7314 0.682 36.8571 241.9454)" width="102" height="102"/>
		</defs>
		<clipPath id="SVGID_64_">
			<use xlink:href="#SVGID_63_"  style="overflow:visible;"/>
		</clipPath>
		<g class="st31">
			<defs>
				<path id="SVGID_65_" d="M300.4,144.4c0,0.8-0.6,1.5-1.4,1.5c-0.8,0-1.5-0.6-1.5-1.4l-3.9-112.5c0-0.8,0.6-1.5,1.4-1.5
					c0.8,0,1.5,0.6,1.5,1.4L300.4,144.4z"/>
			</defs>
			<clipPath id="SVGID_66_">
				<use xlink:href="#SVGID_65_"  style="overflow:visible;"/>
			</clipPath>
			<g class="st32">
				<defs>
					<rect id="SVGID_67_" x="21.1" y="-81" width="525" height="870"/>
				</defs>
				<clipPath id="SVGID_68_">
					<use xlink:href="#SVGID_67_"  style="overflow:visible;"/>
				</clipPath>
				
					<rect x="250.7" y="41.9" transform="matrix(0.682 -0.7314 0.7314 0.682 29.9861 245.2232)" class="st33" width="92.5" height="92.5"/>
			</g>
		</g>
	</g>
	<g>
		<defs>
			<path id="SVGID_69_" d="M212.7,85.2c0-9.7-7.8-17.6-17.4-17.6c-3.5,0-6.8,1.1-9.5,2.9c-4.4-12.1-15.9-20.7-29.3-20.7
				c-12.7,0-23.6,7.7-28.5,18.7c-2-0.6-4.1-0.9-6.3-0.9c-9.8,0-18.1,6.4-21.2,15.2c-2-2.1-4.8-3.4-7.9-3.4c-6,0-10.8,4.9-10.8,11
				h130C212.4,88.7,212.7,87,212.7,85.2"/>
		</defs>
		<clipPath id="SVGID_70_">
			<use xlink:href="#SVGID_69_"  style="overflow:visible;"/>
		</clipPath>
		<g class="st34">
			<defs>
				<rect id="SVGID_71_" x="71.1" y="48" width="153" height="44"/>
			</defs>
			<clipPath id="SVGID_72_">
				<use xlink:href="#SVGID_71_"  style="overflow:visible;"/>
			</clipPath>
			<rect x="76.9" y="44.8" class="st35" width="140.8" height="50.6"/>
		</g>
	</g>
	<g>
		<defs>
			<path id="SVGID_73_" d="M465,52.9h3.5c0.3-1.4,0.5-2.8,0.5-4.2c0-10.5-8.4-18.9-18.7-18.9c-4.4,0-8.4,1.5-11.6,4.1
				C436.2,23,426.6,15,415.2,15c-13.3,0-24.1,10.9-24.1,24.4c0,5,1.5,9.7,4.1,13.6h2.8H465z"/>
		</defs>
		<clipPath id="SVGID_74_">
			<use xlink:href="#SVGID_73_"  style="overflow:visible;"/>
		</clipPath>
		<g class="st36">
			<defs>
				<rect id="SVGID_75_" x="391.1" y="15" width="79" height="39"/>
			</defs>
			<clipPath id="SVGID_76_">
				<use xlink:href="#SVGID_75_"  style="overflow:visible;"/>
			</clipPath>
			<rect x="386.1" y="10" class="st37" width="87.9" height="47.9"/>
		</g>
	</g>
	<g>
		<defs>
			<path id="SVGID_77_" d="M178.3,126.3l-21.5,88.1c-0.5,1.9,1,3.7,2.9,3.7h21.5h21.5c1.9,0,3.4-1.8,2.9-3.7l-21.5-88.1
				C183.3,123.2,179,123.2,178.3,126.3"/>
		</defs>
		<clipPath id="SVGID_78_">
			<use xlink:href="#SVGID_77_"  style="overflow:visible;"/>
		</clipPath>
		<g class="st38">
			<defs>
				<rect id="SVGID_79_" x="156.1" y="124" width="50" height="104"/>
			</defs>
			<clipPath id="SVGID_80_">
				<use xlink:href="#SVGID_79_"  style="overflow:visible;"/>
			</clipPath>
			<rect x="151.7" y="119" class="st39" width="58.9" height="104"/>
		</g>
	</g>
	<g>
		<defs>
			<polygon id="SVGID_81_" points="180.2,208.3 180.4,198 167.9,193.1 180.4,196.5 180.5,188.7 167.9,184 180.6,187.5 180.7,178.5 
				173,175.5 180.8,177.6 181.2,156 181.6,177.6 189.3,175.5 181.6,178.5 181.8,187.5 194.4,184 181.8,188.7 181.9,196.5 
				194.4,193.1 182,198 182.2,208.3 198.3,203.9 182.2,210.1 182.5,227.6 179.8,227.6 180.1,210.1 164.1,203.9 			"/>
		</defs>
		<clipPath id="SVGID_82_">
			<use xlink:href="#SVGID_81_"  style="overflow:visible;"/>
		</clipPath>
		<g class="st40">
			<defs>
				<rect id="SVGID_83_" x="156.1" y="124" width="50" height="104"/>
			</defs>
			<clipPath id="SVGID_84_">
				<use xlink:href="#SVGID_83_"  style="overflow:visible;"/>
			</clipPath>
			<rect x="159.1" y="151" class="st41" width="44.2" height="81.6"/>
		</g>
	</g>
	<g>
		<defs>
			<path id="SVGID_85_" d="M433.8,146.8l-17.2,69.6c-0.4,1.5,0.8,2.9,2.3,2.9h17.2h17.2c1.5,0,2.7-1.4,2.3-2.9l-17.2-69.6
				C437.9,144.4,434.4,144.4,433.8,146.8"/>
		</defs>
		<clipPath id="SVGID_86_">
			<use xlink:href="#SVGID_85_"  style="overflow:visible;"/>
		</clipPath>
		<g class="st42">
			<defs>
				<rect id="SVGID_87_" x="416.1" y="145" width="40" height="82"/>
			</defs>
			<clipPath id="SVGID_88_">
				<use xlink:href="#SVGID_87_"  style="overflow:visible;"/>
			</clipPath>
			<rect x="411.6" y="140" class="st43" width="49.1" height="84.3"/>
		</g>
	</g>
	<g>
		<defs>
			<polygon id="SVGID_89_" points="435.4,211.6 435.5,203.5 425.5,199.6 435.5,202.3 435.7,196.2 425.5,192.4 435.7,195.2 
				435.8,188.1 429.6,185.7 435.8,187.4 436.1,170.3 436.5,187.4 442.7,185.7 436.5,188.1 436.6,195.2 446.8,192.4 436.6,196.2 
				436.8,202.3 446.8,199.6 436.8,203.5 436.9,211.6 449.8,208.1 437,213 437.2,226.8 435.1,226.8 435.3,213 422.5,208.1 			"/>
		</defs>
		<clipPath id="SVGID_90_">
			<use xlink:href="#SVGID_89_"  style="overflow:visible;"/>
		</clipPath>
		<g class="st44">
			<defs>
				<rect id="SVGID_91_" x="416.1" y="145" width="40" height="82"/>
			</defs>
			<clipPath id="SVGID_92_">
				<use xlink:href="#SVGID_91_"  style="overflow:visible;"/>
			</clipPath>
			<rect x="417.5" y="165.3" class="st45" width="37.4" height="66.6"/>
		</g>
	</g>
</g>
</svg>
