<?xml version="1.0" encoding="utf-8"?>
<!-- Generator: Adobe Illustrator 23.0.6, SVG Export Plug-In . SVG Version: 6.00 Build 0)  -->
<svg version="1.1" id="Layer_1" xmlns="http://www.w3.org/2000/svg" xmlns:xlink="http://www.w3.org/1999/xlink" x="0px" y="0px"
	 viewBox="0 0 570 309.7" style="enable-background:new 0 0 570 309.7;" xml:space="preserve">
<style type="text/css">
	.st0{clip-path:url(#SVGID_2_);}
	.st1{clip-path:url(#SVGID_4_);enable-background:new    ;}
	.st2{clip-path:url(#SVGID_6_);}
	.st3{clip-path:url(#SVGID_8_);}
	.st4{clip-path:url(#SVGID_10_);fill:#00A9F4;}
	.st5{clip-path:url(#SVGID_12_);}
	.st6{clip-path:url(#SVGID_14_);fill:#1F40E6;}
	.st7{clip-path:url(#SVGID_16_);}
	.st8{clip-path:url(#SVGID_18_);fill:#F0F0F0;}
	.st9{clip-path:url(#SVGID_20_);}
	.st10{clip-path:url(#SVGID_22_);fill:#4D4D4D;}
	.st11{clip-path:url(#SVGID_24_);}
	.st12{clip-path:url(#SVGID_26_);fill:#F0F0F0;}
	.st13{clip-path:url(#SVGID_28_);}
	.st14{clip-path:url(#SVGID_30_);fill:#D0D0D0;}
	.st15{clip-path:url(#SVGID_32_);}
	.st16{clip-path:url(#SVGID_34_);fill:#F0F0F0;}
	.st17{clip-path:url(#SVGID_36_);}
	.st18{clip-path:url(#SVGID_38_);fill:#B3B3B3;}
	.st19{clip-path:url(#SVGID_40_);}
	.st20{clip-path:url(#SVGID_42_);fill:#1F40E6;}
	.st21{clip-path:url(#SVGID_44_);}
	.st22{clip-path:url(#SVGID_46_);}
	.st23{clip-path:url(#SVGID_48_);fill:#D0D0D0;}
	.st24{clip-path:url(#SVGID_50_);}
	.st25{clip-path:url(#SVGID_52_);fill:#F0F0F0;}
	.st26{clip-path:url(#SVGID_54_);}
	.st27{clip-path:url(#SVGID_56_);fill:#D0D0D0;}
	.st28{clip-path:url(#SVGID_58_);}
	.st29{clip-path:url(#SVGID_60_);fill:#00A9F4;}
	.st30{clip-path:url(#SVGID_62_);}
	.st31{clip-path:url(#SVGID_64_);fill:#7F7F7F;}
	.st32{clip-path:url(#SVGID_66_);}
	.st33{clip-path:url(#SVGID_68_);fill:#1F40E6;}
	.st34{clip-path:url(#SVGID_70_);}
	.st35{clip-path:url(#SVGID_72_);fill:#7F7F7F;}
	.st36{clip-path:url(#SVGID_74_);}
	.st37{clip-path:url(#SVGID_76_);fill:#E6E6E6;}
	.st38{clip-path:url(#SVGID_78_);}
	.st39{opacity:0.2;clip-path:url(#SVGID_80_);}
	.st40{clip-path:url(#SVGID_82_);}
	.st41{clip-path:url(#SVGID_84_);fill:#1F40E6;}
	.st42{clip-path:url(#SVGID_86_);}
	.st43{clip-path:url(#SVGID_88_);fill:#051C2C;}
</style>
<g>
	<defs>
		<path id="SVGID_1_" d="M282.5,306.3c-98.1,0-177.6-17.6-177.6-115.9c0-14.8,2.1-104.6,6.3-269.4h348.9c0,114.1,0,203.8,0,269.4
			C460.1,288.7,380.6,306.3,282.5,306.3z"/>
	</defs>
	<clipPath id="SVGID_2_">
		<use xlink:href="#SVGID_1_"  style="overflow:visible;"/>
	</clipPath>
	<g class="st0">
		<defs>
			<rect id="SVGID_3_" x="34" y="-78.9" width="502.7" height="833"/>
		</defs>
		<clipPath id="SVGID_4_">
			<use xlink:href="#SVGID_3_"  style="overflow:visible;"/>
		</clipPath>
		<g class="st1">
			<g>
				<defs>
					<rect id="SVGID_5_" x="104.9" y="58" width="355.2" height="279.6"/>
				</defs>
				<clipPath id="SVGID_6_">
					<use xlink:href="#SVGID_5_"  style="overflow:visible;"/>
				</clipPath>
				<g class="st2">
					<defs>
						<path id="SVGID_7_" d="M460.1,190.4c0,98.3-79.5,115.9-177.6,115.9c-98.1,0-177.6-17.6-177.6-115.9
							c0-98.3,79.5-131.8,177.6-131.8C380.6,58.7,460.1,92.2,460.1,190.4"/>
					</defs>
					<clipPath id="SVGID_8_">
						<use xlink:href="#SVGID_7_"  style="overflow:visible;"/>
					</clipPath>
					<g class="st3">
						<defs>
							<rect id="SVGID_9_" x="104.9" y="5.4" width="355.2" height="301.6"/>
						</defs>
						<clipPath id="SVGID_10_">
							<use xlink:href="#SVGID_9_"  style="overflow:visible;"/>
						</clipPath>
						<rect x="100.1" y="53.9" class="st4" width="364.8" height="257.2"/>
					</g>
				</g>
				<g class="st2">
					<defs>
						<rect id="SVGID_11_" x="104.9" y="246.6" width="355.2" height="91"/>
					</defs>
					<clipPath id="SVGID_12_">
						<use xlink:href="#SVGID_11_"  style="overflow:visible;"/>
					</clipPath>
					<g class="st5">
						<defs>
							<rect id="SVGID_13_" x="104.9" y="5.4" width="355.2" height="301.6"/>
						</defs>
						<clipPath id="SVGID_14_">
							<use xlink:href="#SVGID_13_"  style="overflow:visible;"/>
						</clipPath>
						<rect x="100.1" y="241.9" class="st6" width="364.8" height="100.5"/>
					</g>
				</g>
			</g>
		</g>
	</g>
</g>
<g>
	<defs>
		<path id="SVGID_15_" d="M163.7,31.2H408c3.4,0,6.1,2.7,6.1,6.1v173.9c0,3.4-2.7,6.1-6.1,6.1H163.7c-3.4,0-6.1-2.7-6.1-6.1V37.3
			C157.5,33.9,160.3,31.2,163.7,31.2z"/>
	</defs>
	<clipPath id="SVGID_16_">
		<use xlink:href="#SVGID_15_"  style="overflow:visible;"/>
	</clipPath>
	<g class="st7">
		<defs>
			<rect id="SVGID_17_" x="157.5" y="31.2" width="256.6" height="186.7"/>
		</defs>
		<clipPath id="SVGID_18_">
			<use xlink:href="#SVGID_17_"  style="overflow:visible;"/>
		</clipPath>
		<rect x="152.8" y="26.4" class="st8" width="266.2" height="195.7"/>
	</g>
</g>
<g>
	<defs>
		<path id="SVGID_19_" d="M163.7,31.2H408c3.4,0,6.1,2.7,6.1,6.1v14.6H157.5V37.3C157.5,33.9,160.3,31.2,163.7,31.2z"/>
	</defs>
	<clipPath id="SVGID_20_">
		<use xlink:href="#SVGID_19_"  style="overflow:visible;"/>
	</clipPath>
	<g class="st9">
		<defs>
			<rect id="SVGID_21_" x="157.5" y="31.2" width="256.6" height="186.7"/>
		</defs>
		<clipPath id="SVGID_22_">
			<use xlink:href="#SVGID_21_"  style="overflow:visible;"/>
		</clipPath>
		<rect x="152.8" y="26.4" class="st10" width="266.2" height="30.3"/>
	</g>
</g>
<g>
	<defs>
		<path id="SVGID_23_" d="M185.9,45c-1.7,0-3.1-1.4-3.1-3.1c0-1.7,1.4-3.1,3.1-3.1c1.7,0,3.1,1.4,3.1,3.1
			C189,43.6,187.6,45,185.9,45z M176.7,45c-1.7,0-3.1-1.4-3.1-3.1c0-1.7,1.4-3.1,3.1-3.1c1.7,0,3.1,1.4,3.1,3.1
			C179.8,43.6,178.4,45,176.7,45z M167.5,45c-1.7,0-3.1-1.4-3.1-3.1c0-1.7,1.4-3.1,3.1-3.1c1.7,0,3.1,1.4,3.1,3.1
			C170.6,43.6,169.2,45,167.5,45z"/>
	</defs>
	<clipPath id="SVGID_24_">
		<use xlink:href="#SVGID_23_"  style="overflow:visible;"/>
	</clipPath>
	<g class="st11">
		<defs>
			<rect id="SVGID_25_" x="157.5" y="31.2" width="256.6" height="186.7"/>
		</defs>
		<clipPath id="SVGID_26_">
			<use xlink:href="#SVGID_25_"  style="overflow:visible;"/>
		</clipPath>
		<rect x="159.7" y="34.1" class="st12" width="34.1" height="15.7"/>
	</g>
</g>
<g>
	<defs>
		<path id="SVGID_27_" d="M175.9,123.9h42.1c3,0,5.4,2.4,5.4,5.4v67.4c0,3-2.4,5.4-5.4,5.4h-42.1c-3,0-5.4-2.4-5.4-5.4v-67.4
			C170.6,126.3,173,123.9,175.9,123.9z M238.7,149.2h158.6c3,0,5.4,2.4,5.4,5.4v26c0,3-2.4,5.4-5.4,5.4H238.7c-3,0-5.4-2.4-5.4-5.4
			v-26C233.4,151.6,235.8,149.2,238.7,149.2z M238.7,106.3h158.6c3,0,5.4,2.4,5.4,5.4v26c0,3-2.4,5.4-5.4,5.4H238.7
			c-3,0-5.4-2.4-5.4-5.4v-26C233.4,108.7,235.8,106.3,238.7,106.3z M238.7,63.4h158.6c3,0,5.4,2.4,5.4,5.4v26c0,3-2.4,5.4-5.4,5.4
			H238.7c-3,0-5.4-2.4-5.4-5.4v-26C233.4,65.8,235.8,63.4,238.7,63.4z M175.9,63.4h42.1c3,0,5.4,2.4,5.4,5.4v42.1
			c0,3-2.4,5.4-5.4,5.4h-42.1c-3,0-5.4-2.4-5.4-5.4V68.7C170.6,65.8,173,63.4,175.9,63.4z"/>
	</defs>
	<clipPath id="SVGID_28_">
		<use xlink:href="#SVGID_27_"  style="overflow:visible;"/>
	</clipPath>
	<g class="st13">
		<defs>
			<rect id="SVGID_29_" x="157.5" y="31.2" width="256.6" height="186.7"/>
		</defs>
		<clipPath id="SVGID_30_">
			<use xlink:href="#SVGID_29_"  style="overflow:visible;"/>
		</clipPath>
		<rect x="165.8" y="58.6" class="st14" width="241.7" height="148.2"/>
	</g>
</g>
<g>
	<defs>
		<path id="SVGID_31_" d="M180.1,154.5h33.7c1.9,0,3.4,1.5,3.4,3.4s-1.5,3.4-3.4,3.4h-33.7c-1.9,0-3.4-1.5-3.4-3.4
			S178.2,154.5,180.1,154.5z M180.1,143h33.7c1.9,0,3.4,1.5,3.4,3.4c0,1.9-1.5,3.4-3.4,3.4h-33.7c-1.9,0-3.4-1.5-3.4-3.4
			C176.7,144.6,178.2,143,180.1,143z M180.1,131.6h33.7c1.9,0,3.4,1.5,3.4,3.4c0,1.9-1.5,3.4-3.4,3.4h-33.7c-1.9,0-3.4-1.5-3.4-3.4
			C176.7,133.1,178.2,131.6,180.1,131.6z M197.4,106.3c-8.9,0-16.1-7.2-16.1-16.1c0-8.9,7.2-16.1,16.1-16.1
			c8.9,0,16.1,7.2,16.1,16.1C213.5,99.1,206.3,106.3,197.4,106.3z M246,170.6h85c1.9,0,3.4,1.5,3.4,3.4c0,1.9-1.5,3.4-3.4,3.4h-85
			c-1.9,0-3.4-1.5-3.4-3.4C242.6,172.2,244.1,170.6,246,170.6z M246,127.7h85c1.9,0,3.4,1.5,3.4,3.4c0,1.9-1.5,3.4-3.4,3.4h-85
			c-1.9,0-3.4-1.5-3.4-3.4C242.6,129.3,244.1,127.7,246,127.7z M246,84.8h85c1.9,0,3.4,1.5,3.4,3.4c0,1.9-1.5,3.4-3.4,3.4h-85
			c-1.9,0-3.4-1.5-3.4-3.4C242.6,86.4,244.1,84.8,246,84.8z M246,158.4h140.2c1.9,0,3.4,1.5,3.4,3.4c0,1.9-1.5,3.4-3.4,3.4H246
			c-1.9,0-3.4-1.5-3.4-3.4C242.6,159.9,244.1,158.4,246,158.4z M246,115.5h140.2c1.9,0,3.4,1.5,3.4,3.4c0,1.9-1.5,3.4-3.4,3.4H246
			c-1.9,0-3.4-1.5-3.4-3.4C242.6,117,244.1,115.5,246,115.5z M246,72.6h140.2c1.9,0,3.4,1.5,3.4,3.4c0,1.9-1.5,3.4-3.4,3.4H246
			c-1.9,0-3.4-1.5-3.4-3.4C242.6,74.1,244.1,72.6,246,72.6z"/>
	</defs>
	<clipPath id="SVGID_32_">
		<use xlink:href="#SVGID_31_"  style="overflow:visible;"/>
	</clipPath>
	<g class="st15">
		<defs>
			<rect id="SVGID_33_" x="157.5" y="31.2" width="256.6" height="186.7"/>
		</defs>
		<clipPath id="SVGID_34_">
			<use xlink:href="#SVGID_33_"  style="overflow:visible;"/>
		</clipPath>
		<rect x="171.9" y="67.8" class="st16" width="222.5" height="114.5"/>
	</g>
</g>
<g>
	<defs>
		<path id="SVGID_35_" d="M268.6,5.4h34.5c9,0,16.3,7.3,16.3,16.3v34.5c0,9-7.3,16.3-16.3,16.3h-34.5c-9,0-16.3-7.3-16.3-16.3V21.6
			C252.3,12.6,259.6,5.4,268.6,5.4z"/>
	</defs>
	<clipPath id="SVGID_36_">
		<use xlink:href="#SVGID_35_"  style="overflow:visible;"/>
	</clipPath>
	<g class="st17">
		<defs>
			<rect id="SVGID_37_" x="34" y="-78.9" width="502.7" height="833"/>
		</defs>
		<clipPath id="SVGID_38_">
			<use xlink:href="#SVGID_37_"  style="overflow:visible;"/>
		</clipPath>
		<rect x="247.6" y="0.6" class="st18" width="76.6" height="76.6"/>
	</g>
</g>
<g>
	<defs>
		<path id="SVGID_39_" d="M278.5,44h26.6c1,0,1.8,0.8,1.8,1.8c0,1-0.8,1.8-1.8,1.8h-26.6v4.6l-11.8-6.7l11.8-6.7V44z M295.2,33.7
			h-26.6c-1,0-1.8-0.8-1.8-1.8c0-1,0.8-1.8,1.8-1.8h26.6v-4.6l11.8,6.7l-11.8,6.7V33.7z"/>
	</defs>
	<clipPath id="SVGID_40_">
		<use xlink:href="#SVGID_39_"  style="overflow:visible;"/>
	</clipPath>
	<g class="st19">
		<defs>
			<rect id="SVGID_41_" x="264.8" y="23.5" width="44" height="30.6"/>
		</defs>
		<clipPath id="SVGID_42_">
			<use xlink:href="#SVGID_41_"  style="overflow:visible;"/>
		</clipPath>
		<rect x="261.9" y="20.7" class="st20" width="49.8" height="36.4"/>
	</g>
</g>
<g>
	<defs>
		<rect id="SVGID_43_" x="257.1" y="235.2" width="57.5" height="23"/>
	</defs>
	<clipPath id="SVGID_44_">
		<use xlink:href="#SVGID_43_"  style="overflow:visible;"/>
	</clipPath>
	<g class="st21">
		<defs>
			<path id="SVGID_45_" d="M260,246.6c0,0.8,0.6,1.4,1.4,1.4c0.8,0,1.4-0.6,1.4-1.4s-0.6-1.4-1.4-1.4
				C260.6,245.2,260,245.9,260,246.6z M293,250.5l-31.1,0.8c-2.6,0.1-4.7-2-4.8-4.6c0,0,0-0.1,0-0.1c0-2.6,2.1-4.7,4.7-4.7
				c0,0,0.1,0,0.1,0l31.1,0.8c1.6-4.4,5.8-7.6,10.8-7.6c5,0,9.2,3.2,10.8,7.7h-11.7c-1.1,0-1.9,0.9-1.9,1.9v3.8
				c0,1.1,0.9,1.9,1.9,1.9h11.7c-1.6,4.5-5.8,7.7-10.8,7.7C298.8,258.1,294.6,255,293,250.5z"/>
		</defs>
		<clipPath id="SVGID_46_">
			<use xlink:href="#SVGID_45_"  style="overflow:visible;"/>
		</clipPath>
		<g class="st22">
			<defs>
				<rect id="SVGID_47_" x="34" y="-78.9" width="502.7" height="833"/>
			</defs>
			<clipPath id="SVGID_48_">
				<use xlink:href="#SVGID_47_"  style="overflow:visible;"/>
			</clipPath>
			<rect x="252.3" y="230.4" class="st23" width="67" height="32.6"/>
		</g>
	</g>
</g>
<g>
	<defs>
		<path id="SVGID_49_" d="M416.1,220.8H441v29.7c0,3.2-2.6,5.7-5.7,5.7h-13.4c-3.2,0-5.7-2.6-5.7-5.7V220.8z"/>
	</defs>
	<clipPath id="SVGID_50_">
		<use xlink:href="#SVGID_49_"  style="overflow:visible;"/>
	</clipPath>
	<g class="st24">
		<defs>
			<rect id="SVGID_51_" x="414.2" y="200.7" width="28.7" height="56.5"/>
		</defs>
		<clipPath id="SVGID_52_">
			<use xlink:href="#SVGID_51_"  style="overflow:visible;"/>
		</clipPath>
		<rect x="411.3" y="216" class="st25" width="34.5" height="45"/>
	</g>
</g>
<g>
	<defs>
		<rect id="SVGID_53_" x="415.1" y="218.9" width="26.8" height="4.8"/>
	</defs>
	<clipPath id="SVGID_54_">
		<use xlink:href="#SVGID_53_"  style="overflow:visible;"/>
	</clipPath>
	<g class="st26">
		<defs>
			<rect id="SVGID_55_" x="414.2" y="200.7" width="28.7" height="56.5"/>
		</defs>
		<clipPath id="SVGID_56_">
			<use xlink:href="#SVGID_55_"  style="overflow:visible;"/>
		</clipPath>
		<rect x="410.3" y="214.1" class="st27" width="36.4" height="14.4"/>
	</g>
</g>
<g>
	<defs>
		<path id="SVGID_57_" d="M422.8,203.6L422.8,203.6c1.1,0,1.9,0.9,1.9,1.9v13.4h-3.8v-13.4C420.9,204.4,421.7,203.6,422.8,203.6z"/>
	</defs>
	<clipPath id="SVGID_58_">
		<use xlink:href="#SVGID_57_"  style="overflow:visible;"/>
	</clipPath>
	<g class="st28">
		<defs>
			<rect id="SVGID_59_" x="414.2" y="200.7" width="28.7" height="56.5"/>
		</defs>
		<clipPath id="SVGID_60_">
			<use xlink:href="#SVGID_59_"  style="overflow:visible;"/>
		</clipPath>
		<rect x="416.1" y="198.8" class="st29" width="13.4" height="24.9"/>
	</g>
</g>
<g>
	<defs>
		<path id="SVGID_61_" d="M436.2,207.4L436.2,207.4c1.1,0,1.9,0.9,1.9,1.9v9.6h-3.8v-9.6C434.3,208.2,435.1,207.4,436.2,207.4z"/>
	</defs>
	<clipPath id="SVGID_62_">
		<use xlink:href="#SVGID_61_"  style="overflow:visible;"/>
	</clipPath>
	<g class="st30">
		<defs>
			<rect id="SVGID_63_" x="414.2" y="200.7" width="28.7" height="56.5"/>
		</defs>
		<clipPath id="SVGID_64_">
			<use xlink:href="#SVGID_63_"  style="overflow:visible;"/>
		</clipPath>
		<rect x="429.5" y="202.6" class="st31" width="13.4" height="21.1"/>
	</g>
</g>
<g>
	<defs>
		<path id="SVGID_65_" d="M428.5,201.6L428.5,201.6c1.1,0,1.9,0.9,1.9,1.9v15.3h-3.8v-15.3C426.6,202.5,427.5,201.6,428.5,201.6z"/>
	</defs>
	<clipPath id="SVGID_66_">
		<use xlink:href="#SVGID_65_"  style="overflow:visible;"/>
	</clipPath>
	<g class="st32">
		<defs>
			<rect id="SVGID_67_" x="414.2" y="200.7" width="28.7" height="56.5"/>
		</defs>
		<clipPath id="SVGID_68_">
			<use xlink:href="#SVGID_67_"  style="overflow:visible;"/>
		</clipPath>
		<rect x="421.8" y="196.9" class="st33" width="13.4" height="26.8"/>
	</g>
</g>
<g>
	<defs>
		<path id="SVGID_69_" d="M144.9,230.5v-10.4h1.9v7.2c3.9-0.8,6.2-4.1,7-10.3l1.9,0.2c-0.9,7.2-3.8,11.3-8.8,12.1v6.9h-1.9v-3.7
			c-5.9-0.2-9.4-4.3-10.3-12.2l1.9-0.2C137.3,226.9,140.1,230.3,144.9,230.5z"/>
	</defs>
	<clipPath id="SVGID_70_">
		<use xlink:href="#SVGID_69_"  style="overflow:visible;"/>
	</clipPath>
	<g class="st34">
		<defs>
			<rect id="SVGID_71_" x="119.2" y="185.4" width="52.7" height="75.6"/>
		</defs>
		<clipPath id="SVGID_72_">
			<use xlink:href="#SVGID_71_"  style="overflow:visible;"/>
		</clipPath>
		<rect x="129.8" y="212.2" class="st35" width="30.6" height="28.7"/>
	</g>
</g>
<g>
	<defs>
		<path id="SVGID_73_" d="M128.9,234.2h33.3c1.1,0,2,0.9,2,2v0.6c0,0.9-0.5,1.8-1.2,2.3l-1.4,0.9v6.5c0,3.5-1,7-2.8,10l-0.1,0.1
			c-1.7,2.8-4.7,4.4-7.9,4.4h-10.3c-3.2,0-6.2-1.7-7.9-4.4l-0.1-0.1c-1.8-3-2.8-6.4-2.8-10V240l-1.4-0.9c-0.8-0.5-1.2-1.3-1.2-2.3
			v-0.6C126.9,235.1,127.8,234.2,128.9,234.2z"/>
	</defs>
	<clipPath id="SVGID_74_">
		<use xlink:href="#SVGID_73_"  style="overflow:visible;"/>
	</clipPath>
	<g class="st36">
		<defs>
			<rect id="SVGID_75_" x="119.2" y="185.4" width="52.7" height="75.6"/>
		</defs>
		<clipPath id="SVGID_76_">
			<use xlink:href="#SVGID_75_"  style="overflow:visible;"/>
		</clipPath>
		<rect x="122.1" y="229.4" class="st37" width="46.9" height="36.4"/>
	</g>
</g>
<g>
	<defs>
		<polygon id="SVGID_77_" points="161.4,239.9 140.7,239.9 139.4,242.8 161.4,242.8 		"/>
	</defs>
	<clipPath id="SVGID_78_">
		<use xlink:href="#SVGID_77_"  style="overflow:visible;"/>
	</clipPath>
	<g class="st38">
		<defs>
			<rect id="SVGID_79_" x="119.2" y="185.4" width="52.7" height="75.6"/>
		</defs>
		<clipPath id="SVGID_80_">
			<use xlink:href="#SVGID_79_"  style="overflow:visible;"/>
		</clipPath>
		<rect x="134.6" y="235.2" class="st39" width="31.6" height="12.4"/>
	</g>
</g>
<g>
	<defs>
		<circle id="SVGID_81_" cx="145.1" cy="200.7" r="15.3"/>
	</defs>
	<clipPath id="SVGID_82_">
		<use xlink:href="#SVGID_81_"  style="overflow:visible;"/>
	</clipPath>
	<g class="st40">
		<defs>
			<rect id="SVGID_83_" x="119.2" y="185.4" width="52.7" height="75.6"/>
		</defs>
		<clipPath id="SVGID_84_">
			<use xlink:href="#SVGID_83_"  style="overflow:visible;"/>
		</clipPath>
		<rect x="125" y="180.6" class="st41" width="40.2" height="40.2"/>
	</g>
</g>
<g>
	<defs>
		<path id="SVGID_85_" d="M151.8,200.2c-3.4,3.4-10.5,10.2-21.8,6.2c-8.3-2.9-12.1,5.7-10.4,11.8c1.7,6.1,8.8,8.5,15,8.3
			c7.5-0.2,8.4-4.1,16.7-2.8c12,1.9,25.5-14.6,18.7-23C163.3,192.2,155.3,196.8,151.8,200.2z"/>
	</defs>
	<clipPath id="SVGID_86_">
		<use xlink:href="#SVGID_85_"  style="overflow:visible;"/>
	</clipPath>
	<g class="st42">
		<defs>
			<rect id="SVGID_87_" x="119.2" y="185.4" width="52.7" height="75.6"/>
		</defs>
		<clipPath id="SVGID_88_">
			<use xlink:href="#SVGID_87_"  style="overflow:visible;"/>
		</clipPath>
		<rect x="114.5" y="191.1" class="st43" width="62.2" height="40.2"/>
	</g>
</g>
</svg>
