<?xml version="1.0" encoding="utf-8"?>
<!-- Generator: Adobe Illustrator 23.0.4, SVG Export Plug-In . SVG Version: 6.00 Build 0)  -->
<svg version="1.1" id="Layer_1" xmlns="http://www.w3.org/2000/svg" xmlns:xlink="http://www.w3.org/1999/xlink" x="0px" y="0px"
	 viewBox="0 0 570 309.7" style="enable-background:new 0 0 570 309.7;" xml:space="preserve">
<style type="text/css">
	.st0{clip-path:url(#SVGID_2_);}
	.st1{clip-path:url(#SVGID_4_);enable-background:new    ;}
	.st2{clip-path:url(#SVGID_6_);}
	.st3{clip-path:url(#SVGID_8_);}
	.st4{clip-path:url(#SVGID_10_);fill:#1F40E6;}
	.st5{clip-path:url(#SVGID_12_);}
	.st6{clip-path:url(#SVGID_14_);}
	.st7{clip-path:url(#SVGID_16_);fill:#D0D0D0;}
	.st8{clip-path:url(#SVGID_18_);}
	.st9{clip-path:url(#SVGID_20_);}
	.st10{clip-path:url(#SVGID_22_);fill:#00A9F4;}
	.st11{clip-path:url(#SVGID_24_);}
	.st12{clip-path:url(#SVGID_26_);}
	.st13{clip-path:url(#SVGID_28_);fill:#051C2C;}
	.st14{clip-path:url(#SVGID_30_);}
	.st15{clip-path:url(#SVGID_32_);}
	.st16{clip-path:url(#SVGID_34_);fill:#E6E6E6;}
	.st17{clip-path:url(#SVGID_36_);}
	.st18{clip-path:url(#SVGID_38_);}
	.st19{clip-path:url(#SVGID_40_);fill:#00A9F4;}
	.st20{clip-path:url(#SVGID_42_);}
	.st21{clip-path:url(#SVGID_44_);}
	.st22{opacity:0.2;clip-path:url(#SVGID_46_);enable-background:new    ;}
	.st23{clip-path:url(#SVGID_48_);}
	.st24{clip-path:url(#SVGID_50_);}
	.st25{clip-path:url(#SVGID_52_);fill:#00A9F4;}
	.st26{clip-path:url(#SVGID_54_);}
	.st27{clip-path:url(#SVGID_56_);}
	.st28{clip-path:url(#SVGID_58_);fill:#D0D0D0;}
	.st29{clip-path:url(#SVGID_60_);}
	.st30{clip-path:url(#SVGID_62_);}
	.st31{clip-path:url(#SVGID_64_);fill:#051C2C;}
	.st32{clip-path:url(#SVGID_66_);}
	.st33{clip-path:url(#SVGID_68_);}
	.st34{opacity:0.2;clip-path:url(#SVGID_70_);enable-background:new    ;}
	.st35{clip-path:url(#SVGID_72_);}
	.st36{clip-path:url(#SVGID_74_);}
	.st37{clip-path:url(#SVGID_76_);fill:#FFFFFF;}
	.st38{clip-path:url(#SVGID_78_);}
	.st39{clip-path:url(#SVGID_80_);fill:#051C2C;}
	.st40{clip-path:url(#SVGID_82_);}
	.st41{clip-path:url(#SVGID_84_);fill:#00A9F4;}
	.st42{clip-path:url(#SVGID_86_);}
	.st43{clip-path:url(#SVGID_88_);fill:#FFFFFF;}
	.st44{clip-path:url(#SVGID_90_);}
	.st45{clip-path:url(#SVGID_92_);fill:#051C2C;}
	.st46{clip-path:url(#SVGID_94_);}
	.st47{clip-path:url(#SVGID_96_);fill:#00A9F4;}
	.st48{clip-path:url(#SVGID_98_);}
	.st49{clip-path:url(#SVGID_100_);fill:#1F40E6;}
	.st50{clip-path:url(#SVGID_102_);}
	.st51{clip-path:url(#SVGID_104_);fill:#FFFFFF;}
</style>
<g>
	<g>
		<defs>
			<path id="SVGID_1_" d="M287.5,302.3c-102.4,0-185.5-18.4-185.5-121c0-15.5,2.2-109.2,6.6-281.3H473c0,119.1,0,212.9,0,281.3
				C473,283.9,389.9,302.3,287.5,302.3z"/>
		</defs>
		<clipPath id="SVGID_2_">
			<use xlink:href="#SVGID_1_"  style="overflow:visible;"/>
		</clipPath>
		<g class="st0">
			<g>
				<defs>
					<rect id="SVGID_3_" x="28" y="-100" width="525" height="870"/>
				</defs>
				<clipPath id="SVGID_4_">
					<use xlink:href="#SVGID_3_"  style="overflow:visible;"/>
				</clipPath>
				<g class="st1">
					<g>
						<g>
							<defs>
								<rect id="SVGID_5_" x="102" y="28" width="371" height="383"/>
							</defs>
							<clipPath id="SVGID_6_">
								<use xlink:href="#SVGID_5_"  style="overflow:visible;"/>
							</clipPath>
							<g class="st2">
								<g>
									<defs>
										<path id="SVGID_7_" d="M473,181.3c0,102.6-83.1,121-185.5,121S102,283.9,102,181.3S185.1,43.7,287.5,43.7
											C389.9,43.7,473,78.7,473,181.3"/>
									</defs>
									<clipPath id="SVGID_8_">
										<use xlink:href="#SVGID_7_"  style="overflow:visible;"/>
									</clipPath>
									<g class="st3">
										<g>
											<defs>
												<rect id="SVGID_9_" x="102" width="371" height="303"/>
											</defs>
											<clipPath id="SVGID_10_">
												<use xlink:href="#SVGID_9_"  style="overflow:visible;"/>
											</clipPath>
											<rect x="97" y="38.7" class="st4" width="381" height="268.6"/>
										</g>
									</g>
								</g>
							</g>
						</g>
						<g>
							<defs>
								<rect id="SVGID_11_" x="102" y="28" width="371" height="383"/>
							</defs>
							<clipPath id="SVGID_12_">
								<use xlink:href="#SVGID_11_"  style="overflow:visible;"/>
							</clipPath>
							<g class="st5">
								<g>
									<defs>
										<path id="SVGID_13_" d="M232,64.7c-2.1-6.8-4.3-21.8,15.9-26.2c18.5-4,22.6,16.5,22.6,16.5c0.2,0.9,0.5,1.8,0.6,2.7
											c0.1,1,0.1,1.9,0.2,2.9c0.2,1.9,0.5,3.8,1.1,5.6c0.6,1.7,1.4,3.3,2.4,4.7c0.8,1.1,2.5,2.8,2.1,4.3c-0.3,0.9-1.4,1.1-2.3,1
											c-2-0.2-3-0.1-3.5,2c-0.4,1.5-0.2,3.1-0.7,4.5c-0.6,1.8-1.5,3.5-2.8,4.9c-2.7,3-6.6,4-10.5,3.5c-1.5-0.2-3-0.4-4.3-0.8
											c-4.4,15.8,8.2,11.4,11.9,16c0.4,3.8,1,10.6-2,14c-3.1,3.4-8.2,4.1-17,3.5c-8.7-0.6-9.7-3-12.3-6.9
											c-1.7-2.6-1.8-7.2-0.1-13.7c11.3,0,9.4-12.6,7.7-19.3c-3.9-3.7-5.7-7.8-6.6-10.1c-1.9,1.8-5.8-0.6-7.2-2.4
											c-0.9-1.2-1.4-2.8-1.2-4.3c0.1-1,0.6-2,1.4-2.6c0.8-0.6,1.8-0.7,2.7-0.5C230.8,64.2,231.4,64.4,232,64.7z"/>
									</defs>
									<clipPath id="SVGID_14_">
										<use xlink:href="#SVGID_13_"  style="overflow:visible;"/>
									</clipPath>
									<g class="st6">
										<g>
											<defs>
												<rect id="SVGID_15_" x="168" y="24" width="128" height="121"/>
											</defs>
											<clipPath id="SVGID_16_">
												<use xlink:href="#SVGID_15_"  style="overflow:visible;"/>
											</clipPath>
											<rect x="221" y="33" class="st7" width="61" height="96.2"/>
										</g>
									</g>
								</g>
							</g>
						</g>
						<g>
							<defs>
								<rect id="SVGID_17_" x="102" y="28" width="371" height="383"/>
							</defs>
							<clipPath id="SVGID_18_">
								<use xlink:href="#SVGID_17_"  style="overflow:visible;"/>
							</clipPath>
							<g class="st8">
								<g>
									<defs>
										<path id="SVGID_19_" d="M221.4,41.6c4.4-5.1,11.2-9.2,20.6-9.2c17.3,0,24,7.1,27.6,19.5c-1.1-3-2.6-3-4.9-3.3
											c-2.4-0.3-6.3,0-9.8,1.6c-3,1.4-5.9,5.4-6.3,8.7c-0.2,1.4-0.4,3-0.7,4.7c-1,6.1-3.3,14.2-5.9,14.7c0-4.4-2.9-8-4.6-9.6
											c-1.7-1.7-1.9-2.3-5.3-4.1c-0.6-0.3-1.2-0.5-1.8-0.5c-0.9-0.1-2,0-2.7,0.5c-0.8,0.6-1.2,1.6-1.4,2.6
											c-0.2,1.5,0.2,3.1,1.2,4.3c1.4,1.8,5.2,4.2,7.2,2.4c0.8,2.3,5.9,4.2,7.6,10.8c1.7,6.6-13,1.8-17.9-3.7s-10-9.5-8.7-26
											c0.2-2.5,1.1-5.5,2.6-8.4c-11.5-7.6-26.8-8-22.6-1c4.6,7.7,15.5,8.3,8,17.9c-6.1,7.8-24,15.8-13.5,23.6
											c10.1,7.4,22.4,5,26.6,23.8c2.5,11.5-9.1,35.5-24.1,32.9c-25.6-4.4,4.8-35.4,3.2-41.3c-2.9-10.7-31.3-7.5-26.9-21.8
											c4.4-14.3,19-12.8,22-20.5s-9.2-12.6-11.4-17.3c-3.2-7,9.3-10.9,12.5-11.6C204.2,28.7,213,34.3,221.4,41.6z"/>
									</defs>
									<clipPath id="SVGID_20_">
										<use xlink:href="#SVGID_19_"  style="overflow:visible;"/>
									</clipPath>
									<g class="st9">
										<g>
											<defs>
												<rect id="SVGID_21_" x="168" y="24" width="128" height="121"/>
											</defs>
											<clipPath id="SVGID_22_">
												<use xlink:href="#SVGID_21_"  style="overflow:visible;"/>
											</clipPath>
											<rect x="163.2" y="25.8" class="st10" width="111.4" height="123.4"/>
										</g>
									</g>
								</g>
							</g>
						</g>
						<g>
							<defs>
								<rect id="SVGID_23_" x="102" y="28" width="371" height="383"/>
							</defs>
							<clipPath id="SVGID_24_">
								<use xlink:href="#SVGID_23_"  style="overflow:visible;"/>
							</clipPath>
							<g class="st11">
								<g>
									<defs>
										<path id="SVGID_25_" d="M187.2,285.6c16.9,17.2,33,25.8,48.1,25.8c22.8,0,26.2-4.5,45.5-4.5s31.1-11.7,32.9-21.3
											C311.9,280.8,269.8,280.8,187.2,285.6z"/>
									</defs>
									<clipPath id="SVGID_26_">
										<use xlink:href="#SVGID_25_"  style="overflow:visible;"/>
									</clipPath>
									<g class="st12">
										<g>
											<defs>
												<rect id="SVGID_27_" x="102" y="208" width="297" height="95"/>
											</defs>
											<clipPath id="SVGID_28_">
												<use xlink:href="#SVGID_27_"  style="overflow:visible;"/>
											</clipPath>
											<rect x="182.2" y="277" class="st13" width="136.5" height="39.4"/>
										</g>
									</g>
								</g>
							</g>
						</g>
						<g>
							<defs>
								<rect id="SVGID_29_" x="102" y="28" width="371" height="383"/>
							</defs>
							<clipPath id="SVGID_30_">
								<use xlink:href="#SVGID_29_"  style="overflow:visible;"/>
							</clipPath>
							<g class="st14">
								<g>
									<defs>
										<path id="SVGID_31_" d="M251.3,257.4c-5.7,16.7-11,31-13.6,48.6c-3.3,22.3-10.7,70.7-15.1,103.5
											c-4.1,0.6-6.7,1.5-11.4,1.5c0.1-1.2-1-11.9-1-12.6c-2.3-32.5,0.2-81,3.1-117.3c1.1-13.9,3.3-56.1,6.2-72.1h18.1h40.2
											l10.4,77.3l8.5,123.4c-2,0.4-4.6,1.2-11.4,1.2c-6.1-38.2-13.6-74.5-22.4-108.8C258.5,285.3,254.7,270.4,251.3,257.4z"/>
									</defs>
									<clipPath id="SVGID_32_">
										<use xlink:href="#SVGID_31_"  style="overflow:visible;"/>
									</clipPath>
									<g class="st15">
										<g>
											<defs>
												<rect id="SVGID_33_" x="102" y="208" width="297" height="95"/>
											</defs>
											<clipPath id="SVGID_34_">
												<use xlink:href="#SVGID_33_"  style="overflow:visible;"/>
											</clipPath>
											<rect x="204.3" y="204" class="st16" width="97.3" height="212"/>
										</g>
									</g>
								</g>
							</g>
						</g>
						<g>
							<defs>
								<rect id="SVGID_35_" x="102" y="28" width="371" height="383"/>
							</defs>
							<clipPath id="SVGID_36_">
								<use xlink:href="#SVGID_35_"  style="overflow:visible;"/>
							</clipPath>
							<g class="st17">
								<g>
									<defs>
										<path id="SVGID_37_" d="M220,209c-14.4,26.7-25.4,52.3-32.8,76.6c19.5-0.6,32.5,0.7,39,3.8c9.8,4.6,26.9,12.1,42,9.7
											c15.1-2.4,17.9-5.9,32.7-9.7c6.8-2.1,11-3.3,12.8-3.8L277.8,209C258,208.4,238.8,208.4,220,209z"/>
									</defs>
									<clipPath id="SVGID_38_">
										<use xlink:href="#SVGID_37_"  style="overflow:visible;"/>
									</clipPath>
									<g class="st18">
										<g>
											<defs>
												<rect id="SVGID_39_" x="102" y="208" width="297" height="95"/>
											</defs>
											<clipPath id="SVGID_40_">
												<use xlink:href="#SVGID_39_"  style="overflow:visible;"/>
											</clipPath>
											<rect x="182.2" y="203.5" class="st19" width="136.5" height="101"/>
										</g>
									</g>
								</g>
							</g>
						</g>
						<g>
							<defs>
								<rect id="SVGID_41_" x="102" y="28" width="371" height="383"/>
							</defs>
							<clipPath id="SVGID_42_">
								<use xlink:href="#SVGID_41_"  style="overflow:visible;"/>
							</clipPath>
							<g class="st20">
								<g>
									<defs>
										<path id="SVGID_43_" d="M206.2,285.7c6.4-8.2,10.5-16.7,12.5-25.6c2-8.8,5-20.7,9.1-35.6c-1.8,29.7-6.5,50.3-14.1,61.7
											C212,286.2,209.5,286.1,206.2,285.7z"/>
									</defs>
									<clipPath id="SVGID_44_">
										<use xlink:href="#SVGID_43_"  style="overflow:visible;"/>
									</clipPath>
									<g class="st21">
										<g>
											<defs>
												<rect id="SVGID_45_" x="102" y="208" width="297" height="95"/>
											</defs>
											<clipPath id="SVGID_46_">
												<use xlink:href="#SVGID_45_"  style="overflow:visible;"/>
											</clipPath>
											<rect x="201.2" y="219.5" class="st22" width="31.6" height="71.7"/>
										</g>
									</g>
								</g>
							</g>
						</g>
						<g>
							<defs>
								<rect id="SVGID_47_" x="102" y="28" width="371" height="383"/>
							</defs>
							<clipPath id="SVGID_48_">
								<use xlink:href="#SVGID_47_"  style="overflow:visible;"/>
							</clipPath>
							<g class="st23">
								<g>
									<defs>
										<path id="SVGID_49_" d="M279.4,139c0.4-6.8,1.6-16.1-1-22.1c-1.3-3-2.7-6.2-5.4-8.2c-1.5-1.1-3.8-1.6-5.5-2.2
											c-1.8-0.6-5.1-2.4-7.1-2.1c-1.4,0.2-1.4,2.4-2,3.7c-0.8,2-1.3,2.9-2.5,4.7c-0.6,0.9,0.2,5.6-7.6,5.6
											c-7.8,0-11.3-8.2-15.3-15.4c-1.5,0.1-2.9,0.5-4.4,0.9c-1,0.3-1.9,0.5-2.9,0.8c-1.8,0.6-3.6,1.3-5,2.6
											c-1.1,0.9-1.9,2.1-2.4,3.4c-1.7,4.1-1.3,8.9-1.2,13.2c0.5,14.4-0.6,25.3-1.4,39.9c-0.8,14.6-7,45.5-7.7,51
											c0,0,44.4,13.8,81.5-1.8c0.5-9-7.7-15.7-10.2-59.4C279.5,150.2,279.5,145.3,279.4,139z"/>
									</defs>
									<clipPath id="SVGID_50_">
										<use xlink:href="#SVGID_49_"  style="overflow:visible;"/>
									</clipPath>
									<g class="st24">
										<g>
											<defs>
												
													<rect id="SVGID_51_" x="142.6" y="64.6" transform="matrix(5.233750e-02 -0.9986 0.9986 5.233750e-02 110.5541 447.6526)" width="297" height="202"/>
											</defs>
											<clipPath id="SVGID_52_">
												<use xlink:href="#SVGID_51_"  style="overflow:visible;"/>
											</clipPath>
											
												<rect x="188.2" y="116.8" transform="matrix(5.233750e-02 -0.9986 0.9986 5.233750e-02 76.2557 405.1624)" class="st25" width="126.8" height="91.3"/>
										</g>
									</g>
								</g>
							</g>
						</g>
						<g>
							<defs>
								<rect id="SVGID_53_" x="102" y="28" width="371" height="383"/>
							</defs>
							<clipPath id="SVGID_54_">
								<use xlink:href="#SVGID_53_"  style="overflow:visible;"/>
							</clipPath>
							<g class="st26">
								<g>
									<defs>
										<path id="SVGID_55_" d="M308,119.6c19,2.8,41.5,1.2,60.7-3.4c7.9-5.4,11-13.3,12.3-11.6c0.8,1.4-0.1,4.3-2.8,8.7
											c0.2,0.5,0.4,0.9,0.7,1.2c2.8-0.1,8.6-2.2,15.4-4.1c6.2-1.5,4.7,2.4,3.2,4c-6.2,4.7-12.8,6.5-24.7,10.4
											c-22.2,7.2-45.2,9.3-68.2,6.8C305.8,127.5,307,123.5,308,119.6z M204.7,160.7l10.1-3c-5.2,45.5-8.1,69.6-8.7,72.3
											c-1.4,6-0.8,14,2,18.4c-5.8,1.5-8.4-12.9-9.1,0c-0.1,4.9,1.5,12.3-2.6,12.2c-2.1-0.2-4.3-5.6-3.6-15.5
											c0.4-4.7,3-12.5,3.6-17.3c1.2-9.4,3.3-21.3,3.6-35.1C200.4,179.8,201.9,169.2,204.7,160.7z"/>
									</defs>
									<clipPath id="SVGID_56_">
										<use xlink:href="#SVGID_55_"  style="overflow:visible;"/>
									</clipPath>
									<g class="st27">
										<g>
											<defs>
												<rect id="SVGID_57_" x="102" y="101" width="297" height="202"/>
											</defs>
											<clipPath id="SVGID_58_">
												<use xlink:href="#SVGID_57_"  style="overflow:visible;"/>
											</clipPath>
											<rect x="187.7" y="99.3" class="st28" width="216.1" height="166.1"/>
										</g>
									</g>
								</g>
							</g>
						</g>
						<g>
							<defs>
								<rect id="SVGID_59_" x="102" y="28" width="371" height="383"/>
							</defs>
							<clipPath id="SVGID_60_">
								<use xlink:href="#SVGID_59_"  style="overflow:visible;"/>
							</clipPath>
							<g class="st29">
								<g>
									<defs>
										<path id="SVGID_61_" d="M273.8,109.3c17.6,6.5,32.7,9.9,45.2,10.2c0.3,6.4-0.4,10.7-1.7,17.6c-13-0.2-25.5-2.1-37.3-5.5
											c-0.1,2.6-0.4,5.2-0.5,7.4c0.1,6.4,0.1,11.3,0,14.7c3.8,44.4,12.5,57.7,12,66.7c-11.7,4.9-25.9,5.3-37.5,5.7v-5.7
											l-0.9-106.3c3.5-3.4,5.2-7.2,6.4-10.1c1.9-0.3,6.3,1.9,8.1,2.5c1.7,0.6,4.1,1.1,5.5,2.2
											C273.3,108.9,273.6,109.1,273.8,109.3z M216.8,148.1l-1.4,10l-1.1,16.2l-14.9-2.5l5.8-48.1c1.3-6.9,3.9-11.8,7.9-14.5
											c3-1.3,6.4-2.5,10.2-3.4c0.8-0.4,1.7-0.7,2.6-1c1-0.3,1.9-0.6,2.9-0.8c1.4-0.4,2.9-0.8,4.4-0.9c2.5,4.5,5.5,7.7,10.2,11.1
											L242,220.4v5.8c-19.3-1-35.7-5.8-35.7-5.8c0.7-5.5,8.8-41.8,9.5-56.4C216.2,158.2,216.5,153.1,216.8,148.1z"/>
									</defs>
									<clipPath id="SVGID_62_">
										<use xlink:href="#SVGID_61_"  style="overflow:visible;"/>
									</clipPath>
									<g class="st30">
										<g>
											<defs>
												<rect id="SVGID_63_" x="102" y="101" width="297" height="202"/>
											</defs>
											<clipPath id="SVGID_64_">
												<use xlink:href="#SVGID_63_"  style="overflow:visible;"/>
											</clipPath>
											<rect x="194.4" y="98" class="st31" width="129.7" height="133.1"/>
										</g>
									</g>
								</g>
							</g>
						</g>
						<g>
							<defs>
								<rect id="SVGID_65_" x="102" y="28" width="371" height="383"/>
							</defs>
							<clipPath id="SVGID_66_">
								<use xlink:href="#SVGID_65_"  style="overflow:visible;"/>
							</clipPath>
							<g class="st32">
								<g>
									<defs>
										<path id="SVGID_67_" d="M215.9,163.9c-0.8,14.6-7,45.5-7.7,51c0,0,11.3,2.9,20.1,4.1c-1.7-24.4-8.9-55.7-11.6-69.2
											C216.5,152.8,216.1,160.3,215.9,163.9z"/>
									</defs>
									<clipPath id="SVGID_68_">
										<use xlink:href="#SVGID_67_"  style="overflow:visible;"/>
									</clipPath>
									<g class="st33">
										<g>
											<defs>
												
													<rect id="SVGID_69_" x="90.8" y="53.7" transform="matrix(5.233824e-02 -0.9986 0.9986 5.233824e-02 72.2652 385.5385)" width="297" height="202"/>
											</defs>
											<clipPath id="SVGID_70_">
												<use xlink:href="#SVGID_69_"  style="overflow:visible;"/>
											</clipPath>
											
												<rect x="180.7" y="169.1" transform="matrix(5.233824e-02 -0.9986 0.9986 5.233824e-02 24.4148 394.2711)" class="st34" width="78.5" height="30.3"/>
										</g>
									</g>
								</g>
							</g>
						</g>
						<g>
							<defs>
								<rect id="SVGID_71_" x="102" y="28" width="371" height="383"/>
							</defs>
							<clipPath id="SVGID_72_">
								<use xlink:href="#SVGID_71_"  style="overflow:visible;"/>
							</clipPath>
							<g class="st35">
								<g>
									<defs>
										<path id="SVGID_73_" d="M196.9,168.1l18.8,2.4l2.5,0.4l-0.8,6l-20.9-2.9L196.9,168.1z M316.3,117.7l5.8,0.6l-1.1,21.1
											l-6.1-0.3l0.1-2.5L316.3,117.7z M259.5,104l-0.5,15l-5.9-4.9L259.5,104z M233.1,103l10.2,11.1l-5.2,3.9L233.1,103z"/>
									</defs>
									<clipPath id="SVGID_74_">
										<use xlink:href="#SVGID_73_"  style="overflow:visible;"/>
									</clipPath>
									<g class="st36">
										<g>
											<defs>
												<rect id="SVGID_75_" x="102" y="101" width="297" height="202"/>
											</defs>
											<clipPath id="SVGID_76_">
												<use xlink:href="#SVGID_75_"  style="overflow:visible;"/>
											</clipPath>
											<rect x="191.4" y="98" class="st37" width="135.8" height="83.8"/>
										</g>
									</g>
								</g>
							</g>
						</g>
					</g>
				</g>
			</g>
		</g>
	</g>
</g>
<g>
	<g>
		<defs>
			<polygon id="SVGID_77_" points="416.7,65.2 450.8,66.4 437.2,111 400.1,111.5 402.7,104.4 			"/>
		</defs>
		<clipPath id="SVGID_78_">
			<use xlink:href="#SVGID_77_"  style="overflow:visible;"/>
		</clipPath>
		<g class="st38">
			<g>
				<defs>
					<rect id="SVGID_79_" x="379" y="63" width="75" height="51"/>
				</defs>
				<clipPath id="SVGID_80_">
					<use xlink:href="#SVGID_79_"  style="overflow:visible;"/>
				</clipPath>
				<rect x="395.1" y="60.2" class="st39" width="60.8" height="56.3"/>
			</g>
		</g>
	</g>
</g>
<g>
	<g>
		<defs>
			<polygon id="SVGID_81_" points="383,105.7 439.3,104.4 437.2,111 382.4,111.8 			"/>
		</defs>
		<clipPath id="SVGID_82_">
			<use xlink:href="#SVGID_81_"  style="overflow:visible;"/>
		</clipPath>
		<g class="st40">
			<g>
				<defs>
					<rect id="SVGID_83_" x="379" y="63" width="75" height="51"/>
				</defs>
				<clipPath id="SVGID_84_">
					<use xlink:href="#SVGID_83_"  style="overflow:visible;"/>
				</clipPath>
				<rect x="377.4" y="99.4" class="st41" width="66.9" height="17.4"/>
			</g>
		</g>
	</g>
</g>
<g>
	<g>
		<defs>
			<path id="SVGID_85_" d="M426.7,90.8c-1.4-0.4-2.1-2.5-1.6-4.7c0.6-2.2,2.2-3.8,3.6-3.4c1.4,0.4,2.1,2.5,1.6,4.7
				C429.7,89.6,428.1,91.2,426.7,90.8z"/>
		</defs>
		<clipPath id="SVGID_86_">
			<use xlink:href="#SVGID_85_"  style="overflow:visible;"/>
		</clipPath>
		<g class="st42">
			<g>
				<defs>
					
						<rect id="SVGID_87_" x="389.2" y="72.5" transform="matrix(0.2419 -0.9703 0.9703 0.2419 228.3661 488.338)" width="75" height="51"/>
				</defs>
				<clipPath id="SVGID_88_">
					<use xlink:href="#SVGID_87_"  style="overflow:visible;"/>
				</clipPath>
				
					<rect x="418.5" y="79.1" transform="matrix(0.2419 -0.9703 0.9703 0.2419 240.0881 480.7597)" class="st43" width="18.4" height="15.3"/>
			</g>
		</g>
	</g>
</g>
<g>
	<g>
		<defs>
			<path id="SVGID_89_" d="M96,151h-3.4c-0.3-1.3-0.5-2.7-0.5-4.1c0-10.2,8.3-18.5,18.5-18.5c4.3,0,8.3,1.5,11.4,4
				c2.5-10.5,11.9-18.3,23.2-18.3c13.1,0,23.8,10.6,23.8,23.7c0,4.9-1.5,9.4-4,13.2h-2.8H96z"/>
		</defs>
		<clipPath id="SVGID_90_">
			<use xlink:href="#SVGID_89_"  style="overflow:visible;"/>
		</clipPath>
		<g class="st44">
			<g>
				<defs>
					<rect id="SVGID_91_" x="91" y="114" width="78" height="38"/>
				</defs>
				<clipPath id="SVGID_92_">
					<use xlink:href="#SVGID_91_"  style="overflow:visible;"/>
				</clipPath>
				<rect x="87.1" y="109" class="st45" width="86.9" height="47"/>
			</g>
		</g>
	</g>
</g>
<g>
	<g>
		<defs>
			<ellipse id="SVGID_93_" cx="352.5" cy="36" rx="36.5" ry="36"/>
		</defs>
		<clipPath id="SVGID_94_">
			<use xlink:href="#SVGID_93_"  style="overflow:visible;"/>
		</clipPath>
		<g class="st46">
			<g>
				<defs>
					<rect id="SVGID_95_" x="316" width="73" height="72"/>
				</defs>
				<clipPath id="SVGID_96_">
					<use xlink:href="#SVGID_95_"  style="overflow:visible;"/>
				</clipPath>
				<rect x="311" y="-5" class="st47" width="83" height="82"/>
			</g>
		</g>
	</g>
</g>
<g>
	<g>
		<defs>
			<path id="SVGID_97_" d="M381.7,36.4c0,15.7-12.9,28.4-28.8,28.4s-28.8-12.7-28.8-28.4S337,8,352.9,8
				C368.8,8,381.7,20.7,381.7,36.4"/>
		</defs>
		<clipPath id="SVGID_98_">
			<use xlink:href="#SVGID_97_"  style="overflow:visible;"/>
		</clipPath>
		<g class="st48">
			<g>
				<defs>
					<rect id="SVGID_99_" x="316" width="73" height="72"/>
				</defs>
				<clipPath id="SVGID_100_">
					<use xlink:href="#SVGID_99_"  style="overflow:visible;"/>
				</clipPath>
				<rect x="319.1" y="3" class="st49" width="67.6" height="66.8"/>
			</g>
		</g>
	</g>
</g>
<g>
	<g>
		<defs>
			<path id="SVGID_101_" d="M373.3,36.3c0,10.6-9,19.3-20,19.3c-11.1,0-20.1-8.6-20.1-19.3c0-10.6,9-19.3,20.1-19.3
				S373.3,25.6,373.3,36.3"/>
		</defs>
		<clipPath id="SVGID_102_">
			<use xlink:href="#SVGID_101_"  style="overflow:visible;"/>
		</clipPath>
		<g class="st50">
			<g>
				<defs>
					<rect id="SVGID_103_" x="316" width="73" height="72"/>
				</defs>
				<clipPath id="SVGID_104_">
					<use xlink:href="#SVGID_103_"  style="overflow:visible;"/>
				</clipPath>
				<rect x="328.2" y="12" class="st51" width="50.1" height="48.5"/>
			</g>
		</g>
	</g>
</g>
</svg>
