<?xml version="1.0" encoding="utf-8"?>
<!-- Generator: Adobe Illustrator 23.0.3, SVG Export Plug-In . SVG Version: 6.00 Build 0)  -->
<svg version="1.1" id="Layer_1" xmlns="http://www.w3.org/2000/svg" xmlns:xlink="http://www.w3.org/1999/xlink" x="0px" y="0px"
	 viewBox="0 0 4678 1452" style="enable-background:new 0 0 4678 1452;" xml:space="preserve">
<style type="text/css">
	.st0{fill-rule:evenodd;clip-rule:evenodd;fill:#051C2C;}
</style>
<path class="st0" d="M69.3,67.7c0-11.2-31.4-41.1-41.9-41.1H0.5V-0.3H159l163,410.5h3.8l172-410.5h142.1v26.9h-26.9
	c-10.5,0-41.9,29.9-41.9,41.1V476c0,11.2,31.4,41.1,41.9,41.1h26.9v26.9H428.9v-26.9h26.9c10.5,0,41.9-29.9,41.9-41.1V79.7
	L299.6,553.8L101.4,71.5V476c0,11.2,31.4,41.1,41.9,41.1h26.9v26.9H0.5v-26.9h26.9c10.5,0,41.9-29.9,41.9-41.1V67.7z"/>
<path class="st0" d="M868.9,311.5c9.7-54.6,0.7-103.9-59.8-103.9c-70.3,0-104.7,56.1-104.7,139.1c0,78.5,50.1,143.6,130.9,143.6
	c61.3,0,87.5-21.7,112.2-62.8h21.7C946,504.4,898.8,553,810.6,553c-97.9,0-161.5-83.7-161.5-183.9c0-113.7,75.5-188.4,168.3-188.4
	c55.3,0,92.7,17.2,124.9,49.4l-51.6,80L868.9,311.5z"/>
<path class="st0" d="M1580.8,107.4c26.2,0,45.6-18,45.6-45.6c0-27.7-19.5-44.9-45.6-44.9c-26.2,0-46.4,17.2-46.4,44.9
	C1534.4,89.4,1554.6,107.4,1580.8,107.4"/>
<path class="st0" d="M2081.8,517.2c-10.5,0-38.9-25.4-38.9-37.4V283.1c0-60.6-43.4-100.9-98-100.9c-63.6,0-96.5,36.7-139.1,80
	l-13.5-72.5H1681v26.9h21.7c10.5,0,38.9,26.2,38.9,37.4v225.8c0,12-28.4,37.4-38.9,37.4H1681h-21.7c-9.7,0-38.9-25.4-38.9-37.4
	V189.6H1494v26.9h21.7c10.5,0,38.9,26.2,38.9,37.4v225.8c0,12-28.4,37.4-38.9,37.4H1494h-18c-11.2,0-55.3-33.6-64.3-45.6L1221.1,218
	L1353.4,76c7.5-8.2,59.1-49.3,69.5-49.3h26.2V-0.3h-197.4v26.9h26.2c10.5,0,41.1,37.4,32.9,47.1l-194.4,216.8V67.7
	c0-11.2,31.4-41.1,41.9-41.1h26.9V-0.3H972.8v26.9h26.9c10.5,0,41.9,29.9,41.9,41.1V476c0,11.2-31.4,41.1-41.9,41.1h-26.9v26.9
	h212.4v-26.9h-26.9c-10.5,0-41.9-29.9-41.9-41.1V331.7l55.3-59.8l188.4,272.2H1494H1681h184.7v-26.9h-20.2
	c-10.5,0-38.9-25.4-38.9-37.4V299.5c0-23.9,65.1-73.3,115.2-73.3c38.1,0,56.1,26.2,56.1,60.6v192.9c0,12-28.4,37.4-38.9,37.4h-20.2
	v26.9h181v-26.9H2081.8z"/>
<path class="st0" d="M2147.4,419.9c0,32.9,47.9,103.9,124.1,103.9c44.1,0,68.8-15.7,68.8-48.6c0-39.6-35.1-53.1-66.5-66.6
	c-24.7-10.5-44.9-18.7-73.3-31.4c-42.6-19.4-74.8-47.9-74.8-96.5c0-63.6,38.1-100.2,106.2-100.2c38.9,0,60.6,18.7,87.5,18.7
	c10.5,0,16.4-2.2,19.4-9.7h19.4v109.2h-21.7c0-29.2-41.1-91.2-106.9-91.2c-41.1,0-60.6,18-60.6,47.1c0,30.7,21,41.9,57.6,57.6
	c26.9,11.2,47.1,20.2,76.3,31.4c38.1,15,81.5,45.6,81.5,102.4c0,67.3-46.4,106.9-112.9,106.9c-44.9,0-71-20.9-101.7-20.9
	c-14.2,0-17.9,3.7-26.9,12h-17.2V419.9H2147.4z"/>
<path class="st0" d="M2406.2,366.8c0-104.7,71-186.2,162.3-185.4c80,0.7,124.9,55.3,128.6,124.1l1.5,25.4l-235.5,18.7
	c0,71,49.4,141.3,129.4,141.3c60.6,0,88.2-23.2,109.9-63.6h21.7c-23.2,77-67.3,124.9-154,124.9
	C2471.3,552.3,2406.2,466.3,2406.2,366.8z M2638.1,309.3c6-50.1-2.3-100.9-71-100.9c-73.3,0-102.4,60.6-104.7,115.9L2638.1,309.3z"
	/>
<path class="st0" d="M2759.1,256.9c-5.2-12-36.6-40.4-45.6-40.4h-15.7v-26.9h187.7v26.9h-21.7c-9.7,0-31.4,24.7-31.4,38.1
	l82.2,189.2l80.8-188.4c0.8-14.2-20.9-38.9-30.7-38.9h-21.7v-26.9h141.3v26.9H3068c-8.2,0-33.7,26.9-41.1,38.9l-120.4,271.4
	l-89,195.9l-32.2-15l94.2-192.9L2759.1,256.9z"/>
<path class="st0" d="M1052.1,825.2c0,43.4,29.9,78.5,77,96.5c70.3,75.5,154.8,155.5,228.8,221.3c20.9-34.4,28.4-71,28.4-115.9
	c0-50.1-32.9-80-86-81.5v-26.9h192.9v26.9h-20.9c-10.5,0-47.9,42.6-48.6,59.1c-1.5,46.4-14.2,103.9-48.6,153.3
	c39.6,34.4,79.3,66.5,110.7,88.2h32.9v26.9h-59.1c-53.1,0-90.5-14.2-135.3-55.3c-43.4,41.9-98.7,65.1-178.7,65.1
	c-88.2,0-172.7-65.1-172.7-160.8c0-75.5,38.1-130.8,87.5-165.3c-26.2-33.6-44.1-65.8-44.1-113.7c0-77.8,50.8-121.1,130.8-121.1
	c50.1,0,76.3,16.5,99.5,16.5c11.9,0,19.4-0.7,25.4-9.7h23.2v128.6h-23.2c0-36.6-53.8-109.9-126.4-109.9
	C1087.2,747.4,1052.1,775.8,1052.1,825.2 M1028.9,1086.9c0,77.8,83,152.5,160.8,152.5c48.6,0,87.5-13.5,118.1-36.6
	c-79.3-68-167.5-153.3-235.5-231.1C1043.8,1000.9,1028.9,1030.8,1028.9,1086.9"/>
<path class="st0" d="M2077.5,921.6c0-56.1-62.8-169.7-165.2-169.7c-94.2,0-150.3,52.4-160,175c-3.7,47.9-2.3,90.5,1.5,138.3
	c9,95,74.8,173.5,185.4,173.5c94.2,0,139.8-39.6,175-111.4h28.4c-35.1,97.2-111.4,155.5-219.8,155.5
	c-156.3,0-257.2-128.6-257.2-284.2c0-155.5,91.2-279.6,243.8-279.6c58.3,0,95,23.9,137.6,23.9c17.2,0,25.4-4.5,33.6-14.2h20.2v192.9
	H2077.5z"/>
<path class="st0" d="M2179.3,1095.8c0-114.4,82.3-186.2,175.7-186.2c93.5,0,175.7,71.8,175.7,186.2c0,114.4-82.3,186.9-175.7,186.9
	C2261.5,1282.8,2179.3,1210.2,2179.3,1095.8 M2459.7,1154.9c4.5-35.9,4.5-84.5,0-120.4c-6.7-56.8-38.1-95-103.9-95
	c-63.5,0-95.7,38.1-103.9,94.2c-5.2,34.4-5.2,85.2,0,120.4c8.2,54.6,38.9,95,103.9,95C2422.3,1249.1,2452.9,1210.2,2459.7,1154.9"/>
<path class="st0" d="M3104.1,1208.7c0,12,26.9,37.4,37.4,37.4h16.5v26.9h-176.5v-26.9h20.2c10.5,0,37.4-25.4,37.4-37.4v-196.7
	c0-34.4-17.2-58.3-55.3-58.3c-46.4,0-103.9,44.9-103.9,68.8v186.2c0,12,26.9,37.4,37.4,37.4h20.2v26.9h-180.2v-26.9h20.2
	c10.5,0,37.4-25.4,37.4-37.4v-196.7c0-34.4-17.9-58.3-56.1-58.3c-46.4,0-103.9,47.1-103.9,71v183.9c0,12,26.9,37.4,37.4,37.4h20.2
	v26.9h-180.2v-26.9h20.2c10.5,0,37.4-25.4,37.4-37.4V982.9c0-11.2-27-37.4-37.4-37.4h-20.2v-26.9h108.4l14.2,68
	c40.4-42.6,66.6-75.5,128.6-75.5c47.1,0,86.8,25.4,93.5,74.8c43.4-42.6,71-74,130.9-74c53.1,0,96.4,35.9,96.4,100.2V1208.7z"/>
<path class="st0" d="M3262.5,918.6l12,72.5c30.7-56.8,69.5-81.5,127.9-81.5c86,0,138.3,72.5,138.3,181
	c0,108.4-59.8,189.9-145.8,189.9c-62.1,0-95-23.9-120.4-69.5v169c0,12,27.7,37.4,37.4,37.4h23.2v26.9h-186.9v-26.9h23.2
	c10.5,0,37.4-25.4,37.4-37.4V982.9c0-11.2-26.9-37.4-37.4-37.4h-23.2v-26.9H3262.5z M3273.7,1048v92.7
	c0,55.3,42.6,102.4,102.4,102.4c60.6,0,89-38.1,96.4-94.2c4.5-33.7,5.2-72.5,0.8-105.4c-7.5-56.1-38.1-92-89-92
	C3324.6,951.5,3290.9,992.7,3273.7,1048z"/>
<path class="st0" d="M4308.3,1246.1c-10.5,0-38.9-25.4-38.9-37.4v-196.6c0-60.6-43.4-100.9-98-100.9c-63.5,0-96.5,36.6-139.1,80
	l-13.5-72.5h-111.4v26.9h21.7c10.5,0,38.9,26.2,38.9,37.4v225.8c0,12-28.4,37.4-38.9,37.4h-21.7h-21c-9.7,0-38.9-25.4-38.9-37.4
	v-192.9c0-69.5-56.1-105.4-132.3-105.4c-71.8,0-112.9,24.7-142.1,54.6l47.1,71h25.4c-26.2-60.6-6.7-99.5,53.9-99.5
	c63.5,0,83.7,28.4,83,78.5l-0.8,44.1l-91.2,18.7c-50.1,10.5-114.4,35.1-114.4,105.4c0,57.6,41.1,96.5,89.7,96.5
	c52.3,0,89.7-41.1,118.1-77.8l9,71h114.4h184.7v-26.9H4072c-10.5,0-38.9-25.4-38.9-37.4v-180.2c0-23.9,65.1-73.3,115.2-73.3
	c38.1,0,56.1,26.2,56.1,60.6v192.9c0,12-28.4,37.4-38.9,37.4h-20.2v26.9h181v-26.9H4308.3z M3782.7,1169.1
	c-15,26.2-52.4,62.1-86.8,62.1c-35.1,0-56.8-26.2-56.8-56.8c0-35.1,14.9-59.1,59.1-70.3l84.5-21.7V1169.1z"/>
<path class="st0" d="M4352.2,985.9c-5.2-12-36.6-40.4-45.6-40.4h-15.7v-26.9h187.7v26.9h-21.7c-9.7,0-31.4,24.7-31.4,38.1
	l82.3,189.2l80.8-188.4c0.7-14.2-21-38.9-30.7-38.9h-21.7v-26.9h141.3v26.9h-16.5c-8.2,0-33.6,26.9-41.1,38.9l-120.4,271.4
	l-89,195.9l-32.2-14.9l94.2-192.9L4352.2,985.9z"/>
</svg>
