<?xml version="1.0" encoding="utf-8"?>
<!-- Generator: Adobe Illustrator 24.0.1, SVG Export Plug-In . SVG Version: 6.00 Build 0)  -->
<svg version="1.1" id="Layer_1" xmlns="http://www.w3.org/2000/svg" xmlns:xlink="http://www.w3.org/1999/xlink" x="0px" y="0px"
	 viewBox="0 0 425 330.3" style="enable-background:new 0 0 425 330.3;" xml:space="preserve">
<style type="text/css">
	.st0{clip-path:url(#SVGID_2_);}
	.st1{clip-path:url(#SVGID_4_);fill:#1F40E6;}
	.st2{clip-path:url(#SVGID_6_);}
	.st3{clip-path:url(#SVGID_8_);enable-background:new    ;}
	.st4{clip-path:url(#SVGID_10_);}
	.st5{clip-path:url(#SVGID_12_);fill:#E6E6E6;}
	.st6{clip-path:url(#SVGID_14_);}
	.st7{clip-path:url(#SVGID_16_);fill:#00A9F4;}
	.st8{clip-path:url(#SVGID_18_);}
	.st9{clip-path:url(#SVGID_20_);fill:#051C2C;}
	.st10{clip-path:url(#SVGID_22_);}
	.st11{clip-path:url(#SVGID_24_);fill:#1F40E6;}
	.st12{clip-path:url(#SVGID_26_);}
	.st13{clip-path:url(#SVGID_28_);fill:#00A9F4;}
	.st14{clip-path:url(#SVGID_30_);}
	.st15{clip-path:url(#SVGID_32_);fill:#F0F0F0;}
	.st16{clip-path:url(#SVGID_34_);}
	.st17{clip-path:url(#SVGID_36_);fill:#D8D8D8;}
	.st18{clip-path:url(#SVGID_38_);}
	.st19{clip-path:url(#SVGID_40_);fill:#B3B3B3;}
	.st20{opacity:0.2;clip-path:url(#SVGID_42_);}
	.st21{clip-path:url(#SVGID_44_);}
	.st22{clip-path:url(#SVGID_46_);fill:#1F40E6;}
	.st23{clip-path:url(#SVGID_48_);}
	.st24{clip-path:url(#SVGID_50_);fill:#F0F0F0;}
	.st25{clip-path:url(#SVGID_52_);}
	.st26{clip-path:url(#SVGID_54_);fill:#D0D0D0;}
	.st27{clip-path:url(#SVGID_56_);}
	.st28{clip-path:url(#SVGID_58_);fill:#00A9F4;}
	.st29{clip-path:url(#SVGID_60_);}
	.st30{clip-path:url(#SVGID_62_);fill:#F0F0F0;}
	.st31{clip-path:url(#SVGID_64_);}
	.st32{clip-path:url(#SVGID_66_);fill:#00A9F4;}
	.st33{clip-path:url(#SVGID_68_);}
	.st34{clip-path:url(#SVGID_70_);fill:#00A9F4;}
	.st35{clip-path:url(#SVGID_72_);}
	.st36{clip-path:url(#SVGID_74_);fill:#D0D0D0;}
	.st37{clip-path:url(#SVGID_76_);}
	.st38{clip-path:url(#SVGID_78_);fill:#051C2C;}
	.st39{clip-path:url(#SVGID_80_);}
	.st40{opacity:0.2;clip-path:url(#SVGID_82_);}
	.st41{clip-path:url(#SVGID_84_);}
	.st42{clip-path:url(#SVGID_86_);fill:#1F40E6;}
	.st43{clip-path:url(#SVGID_88_);}
	.st44{clip-path:url(#SVGID_90_);fill:#D0D0D0;}
	.st45{clip-path:url(#SVGID_92_);}
	.st46{clip-path:url(#SVGID_94_);fill:#1F40E6;}
	.st47{clip-path:url(#SVGID_96_);}
	.st48{clip-path:url(#SVGID_98_);fill:#051C2C;}
	.st49{clip-path:url(#SVGID_100_);}
	.st50{clip-path:url(#SVGID_102_);fill:#00A9F4;}
	.st51{clip-path:url(#SVGID_104_);}
	.st52{clip-path:url(#SVGID_106_);fill:#00A9F4;}
	.st53{clip-path:url(#SVGID_108_);}
	.st54{clip-path:url(#SVGID_110_);fill:#E6E6E6;}
	.st55{clip-path:url(#SVGID_112_);}
	.st56{clip-path:url(#SVGID_114_);fill:#051C2C;}
	.st57{clip-path:url(#SVGID_116_);}
	.st58{opacity:0.2;clip-path:url(#SVGID_118_);}
	.st59{clip-path:url(#SVGID_120_);}
	.st60{clip-path:url(#SVGID_122_);fill:#1F40E6;}
</style>
<g>
	<defs>
		<path id="SVGID_1_" d="M11.1,210.3c0,102.6,83.1,121,185.5,121c102.4,0,185.5-18.4,185.5-121c0-102.6-83.1-137.6-185.5-137.6
			C94.2,72.7,11.1,107.7,11.1,210.3"/>
	</defs>
	<clipPath id="SVGID_2_">
		<use xlink:href="#SVGID_1_"  style="overflow:visible;"/>
	</clipPath>
	<g class="st0">
		<defs>
			<rect id="SVGID_3_" x="-159.9" y="-210" width="750" height="750"/>
		</defs>
		<clipPath id="SVGID_4_">
			<use xlink:href="#SVGID_3_"  style="overflow:visible;"/>
		</clipPath>
		<rect x="6.1" y="67.7" class="st1" width="381" height="268.6"/>
	</g>
</g>
<g>
	<defs>
		<path id="SVGID_5_" d="M196.6,331.3c102.4,0,192.9-18.4,234.1-121c6.2-15.5,40.5-109.2,100.5-281.3h-681.5
			c47.8,119.1,85.4,212.9,112.9,281.3C3.7,312.9,94.2,331.3,196.6,331.3z"/>
	</defs>
	<clipPath id="SVGID_6_">
		<use xlink:href="#SVGID_5_"  style="overflow:visible;"/>
	</clipPath>
	<g class="st2">
		<defs>
			<rect id="SVGID_7_" x="-159.9" y="-210" width="750" height="750"/>
		</defs>
		<clipPath id="SVGID_8_">
			<use xlink:href="#SVGID_7_"  style="overflow:visible;"/>
		</clipPath>
		<g class="st3">
			<g>
				<defs>
					<rect id="SVGID_9_" x="29.1" y="1" width="387" height="428"/>
				</defs>
				<clipPath id="SVGID_10_">
					<use xlink:href="#SVGID_9_"  style="overflow:visible;"/>
				</clipPath>
				<g class="st4">
					<defs>
						<rect id="SVGID_11_" x="34.4" y="113.5" width="332" height="8.5"/>
					</defs>
					<clipPath id="SVGID_12_">
						<use xlink:href="#SVGID_11_"  style="overflow:visible;"/>
					</clipPath>
					<rect x="29.4" y="108.5" class="st5" width="342" height="18.5"/>
				</g>
				<g class="st4">
					<defs>
						<path id="SVGID_13_" d="M86.7,104.1H44.6v-6.8h42.1V104.1z M130.5,113.5h-10.1V59h10.1V113.5z M288.9,113.5h-10.1V59h10.1
							V113.5z M245.1,113.5h-18.5V60.7h18.5V113.5z M309.1,113.5h-18.5v-46h18.5V113.5z"/>
					</defs>
					<clipPath id="SVGID_14_">
						<use xlink:href="#SVGID_13_"  style="overflow:visible;"/>
					</clipPath>
					<g class="st6">
						<defs>
							<rect id="SVGID_15_" x="34.4" y="33" width="332" height="89"/>
						</defs>
						<clipPath id="SVGID_16_">
							<use xlink:href="#SVGID_15_"  style="overflow:visible;"/>
						</clipPath>
						<rect x="39.6" y="54" class="st7" width="274.6" height="64.5"/>
					</g>
				</g>
				<g class="st4">
					<defs>
						<path id="SVGID_17_" d="M86.7,113.5H44.6V105h42.1V113.5z M118.7,113.5h-18.5v-46h18.5V113.5z M277.1,113.5h-18.5v-46h18.5
							V113.5z"/>
					</defs>
					<clipPath id="SVGID_18_">
						<use xlink:href="#SVGID_17_"  style="overflow:visible;"/>
					</clipPath>
					<g class="st8">
						<defs>
							<rect id="SVGID_19_" x="34.4" y="33" width="332" height="89"/>
						</defs>
						<clipPath id="SVGID_20_">
							<use xlink:href="#SVGID_19_"  style="overflow:visible;"/>
						</clipPath>
						<rect x="39.6" y="62.5" class="st9" width="242.6" height="56"/>
					</g>
				</g>
				<g class="st4">
					<defs>
						<path id="SVGID_21_" d="M149,113.5h-16.9V55.6H149V113.5z M256.9,113.5h-10.1V55.6h10.1V113.5z"/>
					</defs>
					<clipPath id="SVGID_22_">
						<use xlink:href="#SVGID_21_"  style="overflow:visible;"/>
					</clipPath>
					<g class="st10">
						<defs>
							<rect id="SVGID_23_" x="34.4" y="33" width="332" height="89"/>
						</defs>
						<clipPath id="SVGID_24_">
							<use xlink:href="#SVGID_23_"  style="overflow:visible;"/>
						</clipPath>
						<rect x="127.2" y="50.6" class="st11" width="134.7" height="67.9"/>
					</g>
				</g>
				<g class="st4">
					<defs>
						<path id="SVGID_25_" d="M192.6,40.3c0.4,0,0.6,0.3,0.6,0.6v11.2c0,1.5-0.1,3.2-0.4,5.5c-0.1,1.3-0.8,6.2-0.9,7
							c-0.1,0.5-0.1,1-0.2,1.5c0,0.3-0.4,0.6-0.7,0.6c-0.3,0-0.6-0.4-0.6-0.7c0.1-0.5,0.1-1,0.2-1.5c0.1-0.8,0.7-5.8,0.9-7
							c0.3-2.3,0.4-4,0.4-5.4V40.9C192,40.6,192.2,40.3,192.6,40.3z M193.7,81c4.6-4.5,2.1-17.6,5.7-25.3c3.7-7.7,2.2-21.5-6.2-22.1
							c-9.6,0-10.7,13.7-9.1,23.3c1.7,9.6-0.1,12.6-2.2,15.3c-2.1,2.7-10.1,13-3.1,22.9c4.7,6.6,9,6.6,12.9,0
							C190,88.6,190.6,84,193.7,81z"/>
					</defs>
					<clipPath id="SVGID_26_">
						<use xlink:href="#SVGID_25_"  style="overflow:visible;"/>
					</clipPath>
					<g class="st12">
						<defs>
							<rect id="SVGID_27_" x="34.4" y="33" width="332" height="89"/>
						</defs>
						<clipPath id="SVGID_28_">
							<use xlink:href="#SVGID_27_"  style="overflow:visible;"/>
						</clipPath>
						<rect x="171" y="28.5" class="st13" width="35.3" height="76.4"/>
					</g>
				</g>
				<g class="st4">
					<defs>
						<path id="SVGID_29_" d="M171.8,57.6c-0.4,0-0.6,0.3-0.6,0.7c0.3,8.5,2.9,15.6,7.8,21.2c0.2,0.3,0.6,0.3,0.9,0.1
							c0.3-0.2,0.3-0.6,0.1-0.9c-4.7-5.4-7.2-12.2-7.5-20.4C172.5,57.9,172.2,57.6,171.8,57.6z M171.1,81.5
							c-4.7-4.5-6.9-12.3-8.2-18.8c-1.3-6.6,0.8-15.6,7.2-17.1c6.4-1.4,11,6.3,11,15.8c0,9.5,2.6,9.5,5.7,12.4
							c3.2,2.9,10.1,10.8,3,20.7c-4.8,6.6-9.3,7.2-13.6,1.7C175.9,89.4,174.2,84.5,171.1,81.5z"/>
					</defs>
					<clipPath id="SVGID_30_">
						<use xlink:href="#SVGID_29_"  style="overflow:visible;"/>
					</clipPath>
					<g class="st14">
						<defs>
							<rect id="SVGID_31_" x="34.4" y="33" width="332" height="89"/>
						</defs>
						<clipPath id="SVGID_32_">
							<use xlink:href="#SVGID_31_"  style="overflow:visible;"/>
						</clipPath>
						<rect x="157.5" y="40.4" class="st15" width="40.3" height="64.5"/>
					</g>
				</g>
				<g class="st4">
					<defs>
						<path id="SVGID_33_" d="M209.2,62.9c-0.3-0.1-0.7,0.1-0.8,0.4c-2.1,7.3-7.2,14.1-11.3,17.4c-0.3,0.2-0.3,0.6-0.1,0.9
							c0.2,0.3,0.6,0.3,0.9,0.1c4.3-3.5,9.6-10.5,11.7-18C209.7,63.3,209.6,63,209.2,62.9z M189.5,93.4c-2.6-8.4-2.7-15.6,3.6-20.1
							c2.6-1.9,5.8-4.7,7.3-12.4c1.5-7.7,8.9-10.4,14.5-7.6c5.6,2.8,7.6,6.7,6.3,13.2s-11.5,13.9-16,18.5c-3,3-4.6,6.5-4.8,10.3
							C194.8,99.7,191.2,99,189.5,93.4z"/>
					</defs>
					<clipPath id="SVGID_34_">
						<use xlink:href="#SVGID_33_"  style="overflow:visible;"/>
					</clipPath>
					<g class="st16">
						<defs>
							<rect id="SVGID_35_" x="34.4" y="33" width="332" height="89"/>
						</defs>
						<clipPath id="SVGID_36_">
							<use xlink:href="#SVGID_35_"  style="overflow:visible;"/>
						</clipPath>
						<rect x="182.8" y="47.2" class="st17" width="43.7" height="56"/>
					</g>
				</g>
				<g class="st4">
					<defs>
						<polygon id="SVGID_37_" points="208,86.3 209.7,86.3 209.7,79.4 169.3,79.4 169.3,86.3 170.9,86.3 176,113.5 203,113.5 						
							"/>
					</defs>
					<clipPath id="SVGID_38_">
						<use xlink:href="#SVGID_37_"  style="overflow:visible;"/>
					</clipPath>
					<g class="st18">
						<defs>
							<rect id="SVGID_39_" x="34.4" y="33" width="332" height="89"/>
						</defs>
						<clipPath id="SVGID_40_">
							<use xlink:href="#SVGID_39_"  style="overflow:visible;"/>
						</clipPath>
						<rect x="164.3" y="74.4" class="st19" width="50.4" height="44"/>
					</g>
				</g>
				<g class="st4">
					<defs>
						<rect id="SVGID_41_" x="169.3" y="79.4" width="40.4" height="6.8"/>
					</defs>
					<clipPath id="SVGID_42_">
						<use xlink:href="#SVGID_41_"  style="overflow:visible;"/>
					</clipPath>
					<rect x="164.3" y="74.4" class="st20" width="50.4" height="16.8"/>
				</g>
				<g class="st4">
					<defs>
						<ellipse id="SVGID_43_" cx="339.5" cy="82.9" rx="20.2" ry="20.4"/>
					</defs>
					<clipPath id="SVGID_44_">
						<use xlink:href="#SVGID_43_"  style="overflow:visible;"/>
					</clipPath>
					<g class="st21">
						<defs>
							<rect id="SVGID_45_" x="34.4" y="33" width="332" height="89"/>
						</defs>
						<clipPath id="SVGID_46_">
							<use xlink:href="#SVGID_45_"  style="overflow:visible;"/>
						</clipPath>
						<rect x="314.3" y="57.4" class="st22" width="50.4" height="50.9"/>
					</g>
				</g>
				<g class="st4">
					<defs>
						<polygon id="SVGID_47_" points="351.3,99.9 327.7,99.9 324.3,113.5 354.6,113.5 						"/>
					</defs>
					<clipPath id="SVGID_48_">
						<use xlink:href="#SVGID_47_"  style="overflow:visible;"/>
					</clipPath>
					<g class="st23">
						<defs>
							<rect id="SVGID_49_" x="34.4" y="33" width="332" height="89"/>
						</defs>
						<clipPath id="SVGID_50_">
							<use xlink:href="#SVGID_49_"  style="overflow:visible;"/>
						</clipPath>
						<rect x="319.3" y="94.9" class="st24" width="40.3" height="23.6"/>
					</g>
				</g>
				<g class="st4">
					<defs>
						<path id="SVGID_51_" d="M258.1,72.2C256,65.4,253.8,50.3,274,46c18.5-4,22.6,16.5,22.6,16.5c0.2,0.9,0.5,1.8,0.6,2.7
							c0.1,1,0.1,1.9,0.2,2.9c0.2,1.9,0.5,3.8,1.1,5.6c0.6,1.7,1.4,3.3,2.4,4.7c0.8,1.1,2.5,2.8,2.1,4.3c-0.3,0.9-1.4,1.1-2.3,1
							c-2-0.2-3-0.1-3.5,2c-0.4,1.5-0.2,3.1-0.7,4.5c-0.6,1.8-1.5,3.5-2.8,4.9c-2.7,3-6.6,4-10.5,3.5c-1.5-0.2-3-0.4-4.3-0.8
							c-4.4,15.8,8.2,11.4,11.9,16c0.4,3.8,1,10.6-2,14c-3.1,3.4-8.2,4.1-17,3.5s-9.7-3-12.3-6.9c-1.7-2.6-1.8-7.2-0.1-13.7
							c11.3,0,9.4-12.6,7.7-19.3c-3.9-3.7-5.7-7.8-6.6-10.1c-1.9,1.8-5.8-0.6-7.2-2.4c-0.9-1.2-1.4-2.8-1.2-4.3c0.1-1,0.6-2,1.4-2.6
							c0.8-0.6,1.8-0.7,2.7-0.5C256.9,71.7,257.5,71.9,258.1,72.2z"/>
					</defs>
					<clipPath id="SVGID_52_">
						<use xlink:href="#SVGID_51_"  style="overflow:visible;"/>
					</clipPath>
					<g class="st25">
						<defs>
							<rect id="SVGID_53_" x="194.1" y="31.5" width="128" height="121"/>
						</defs>
						<clipPath id="SVGID_54_">
							<use xlink:href="#SVGID_53_"  style="overflow:visible;"/>
						</clipPath>
						<rect x="247.1" y="40.5" class="st26" width="61" height="96.2"/>
					</g>
				</g>
				<g class="st4">
					<defs>
						<path id="SVGID_55_" d="M247.5,49.1c4.4-5.1,11.2-9.2,20.6-9.2c17.3,0,24,7.1,27.6,19.5c-1.1-3-2.6-3-4.9-3.3
							c-2.4-0.3-6.3,0-9.8,1.6c-3,1.4-5.9,5.4-6.3,8.7c-0.2,1.4-0.4,3-0.7,4.7c-1,6.1-3.3,14.2-5.9,14.7c0-4.4-2.9-8-4.6-9.6
							c-1.7-1.7-1.9-2.3-5.3-4.1c-0.6-0.3-1.2-0.5-1.8-0.5c-0.9-0.1-2,0-2.7,0.5c-0.8,0.6-1.2,1.6-1.4,2.6c-0.2,1.5,0.2,3.1,1.2,4.3
							c1.4,1.8,5.2,4.2,7.2,2.4c0.8,2.3,5.9,4.2,7.6,10.8c1.7,6.6-13,1.8-17.9-3.7c-4.9-5.5-10-9.5-8.7-26c0.2-2.5,1.1-5.5,2.6-8.4
							c-11.5-7.6-26.8-8-22.6-1c4.6,7.7,15.5,8.3,8,17.9c-6.1,7.8-24,15.8-13.5,23.6c10.1,7.4,22.4,5,26.6,23.8
							c2.5,11.5-9.1,35.5-24.1,32.9c-25.6-4.4,4.8-35.4,3.2-41.3c-2.9-10.7-31.3-7.5-26.9-21.8c4.4-14.3,19-12.8,22-20.5
							c3-7.7-9.2-12.6-11.4-17.3c-3.2-7,9.3-10.9,12.5-11.6C230.3,36.2,239.1,41.8,247.5,49.1z"/>
					</defs>
					<clipPath id="SVGID_56_">
						<use xlink:href="#SVGID_55_"  style="overflow:visible;"/>
					</clipPath>
					<g class="st27">
						<defs>
							<rect id="SVGID_57_" x="194.1" y="31.5" width="128" height="121"/>
						</defs>
						<clipPath id="SVGID_58_">
							<use xlink:href="#SVGID_57_"  style="overflow:visible;"/>
						</clipPath>
						<rect x="189.3" y="33.3" class="st28" width="111.4" height="123.4"/>
					</g>
				</g>
				<g class="st4">
					<defs>
						<path id="SVGID_59_" d="M277.3,278.1c-3,14-5.7,27-6.9,35.4c-3.3,22.3-15.4,79.6-19,107c-4.3,0.1-11.1-0.1-15.5,0
							c0.1-1.1,0-1.7,0-2.4c-2.3-32.5,0.6-93.2,3.5-129.5c1.1-13.9,3.3-56.1,6.2-72.1h12.1H304l10.4,77.3l9.8,125.7
							c0,0-7.3-0.1-14.7,0c-7.4-40.5-15.5-77.9-24.3-112.3C282.4,296.8,279.8,287,277.3,278.1z"/>
					</defs>
					<clipPath id="SVGID_60_">
						<use xlink:href="#SVGID_59_"  style="overflow:visible;"/>
					</clipPath>
					<g class="st29">
						<defs>
							<rect id="SVGID_61_" x="125.1" y="216.5" width="290" height="115.5"/>
						</defs>
						<clipPath id="SVGID_62_">
							<use xlink:href="#SVGID_61_"  style="overflow:visible;"/>
						</clipPath>
						<rect x="230.1" y="211.5" class="st30" width="99" height="214"/>
					</g>
				</g>
				<g class="st4">
					<defs>
						<path id="SVGID_63_" d="M243.2,228.5c10.6,1.8,21.2,2.7,31.8,2.7c10.7,0,21.3-0.9,32-2.7l1.1,14c-11.2,1.8-22.3,2.7-33.5,2.7
							c-11.2,0-22.3-0.9-33.5-2.7L243.2,228.5z"/>
					</defs>
					<clipPath id="SVGID_64_">
						<use xlink:href="#SVGID_63_"  style="overflow:visible;"/>
					</clipPath>
					<g class="st31">
						<defs>
							<rect id="SVGID_65_" x="125.1" y="216.5" width="290" height="115.5"/>
						</defs>
						<clipPath id="SVGID_66_">
							<use xlink:href="#SVGID_65_"  style="overflow:visible;"/>
						</clipPath>
						<rect x="236.1" y="223.5" class="st32" width="77" height="26.7"/>
					</g>
				</g>
				<g class="st4">
					<defs>
						<path id="SVGID_67_" d="M305.5,146.5c0.4-6.8,1.6-16.1-1-22.1c-1.3-3-2.7-6.2-5.4-8.2c-1.5-1.1-3.8-1.6-5.5-2.2
							c-1.8-0.6-5.1-2.4-7.1-2.1c-1.4,0.2-1.4,2.4-2,3.7c-0.8,2-1.3,2.9-2.5,4.7c-0.6,0.9,0.2,5.6-7.6,5.6s-11.3-8.2-15.3-15.4
							c-1.5,0.1-2.9,0.5-4.4,0.9c-1,0.3-1.9,0.5-2.9,0.8c-1.8,0.6-3.6,1.3-5,2.6c-1.1,0.9-1.9,2.1-2.4,3.4
							c-1.7,4.1-1.3,8.9-1.2,13.2c0.5,14.4-0.6,25.3-1.4,39.9c-0.8,14.6-7,45.5-7.7,51c0,0,44.4,13.8,81.5-1.8
							c0.5-9-7.7-15.7-10.2-59.4C305.6,157.7,305.6,152.8,305.5,146.5z"/>
					</defs>
					<clipPath id="SVGID_68_">
						<use xlink:href="#SVGID_67_"  style="overflow:visible;"/>
					</clipPath>
					<g class="st33">
						<defs>
							<rect id="SVGID_69_" x="125.1" y="108.5" width="290" height="202"/>
						</defs>
						<clipPath id="SVGID_70_">
							<use xlink:href="#SVGID_69_"  style="overflow:visible;"/>
						</clipPath>
						
							<rect x="214.3" y="124.2" transform="matrix(5.233597e-02 -0.9986 0.9986 5.233597e-02 93.57 438.3357)" class="st34" width="126.8" height="91.3"/>
					</g>
				</g>
				<g class="st4">
					<defs>
						<path id="SVGID_71_" d="M347.5,140.9c12.6,0,27.7-2.2,45.3-6.7c13.7,1.1,18.9-1.4,20.6-3.2c2.3-2.3,1.9-3.9,1.1-7.6
							s-1.9-5.6-3.7-5.5c-5.1,0.6-10,1.5-17.8,6c-17.9,3.4-32.8,4.9-44.6,4.5C348.2,132.1,347.6,136.9,347.5,140.9z M226.2,200
							c-0.3,13.8-2.4,25.8-3.6,35.1c-0.6,4.8-3.2,12.6-3.6,17.3c-0.7,9.9,1.4,15.3,3.6,15.5c4.1,0.1,2.5-7.4,2.6-12.2
							c0.7-12.9,3.3,1.5,9.1,0c-2.8-4.3-3.4-12.3-2-18.4c0.6-2.7,3.5-26.8,8.7-72.3l-10.1,3C228,176.7,226.5,187.3,226.2,200z"/>
					</defs>
					<clipPath id="SVGID_72_">
						<use xlink:href="#SVGID_71_"  style="overflow:visible;"/>
					</clipPath>
					<g class="st35">
						<defs>
							<rect id="SVGID_73_" x="125.1" y="108.5" width="290" height="202"/>
						</defs>
						<clipPath id="SVGID_74_">
							<use xlink:href="#SVGID_73_"  style="overflow:visible;"/>
						</clipPath>
						<rect x="213.8" y="112.9" class="st36" width="206.2" height="160"/>
					</g>
				</g>
				<g class="st4">
					<defs>
						<path id="SVGID_75_" d="M299.2,116.2c-1.5-1.1-3.8-1.6-5.5-2.2c-1.8-0.6-6.1-2.8-8.1-2.5c-1.2,2.9-2.9,6.7-6.4,10.1l0.9,106.3
							v5.7c11.5-0.4,25.8-0.8,37.5-5.7c0.5-9-8.2-22.3-12-66.7c0.1-3.5,0.1-8.4,0-14.7c0.1-2.3,0.3-4.8,0.5-7.4
							c11.9,3.4,24.3,5.2,37.3,5.5c1.4-6.8,2.1-11.2,1.7-17.6c-12.5-0.3-27.6-3.7-45.2-10.2C299.7,116.6,299.4,116.4,299.2,116.2z
							 M242,171.4c-0.8,14.6-8.8,51-9.5,56.4c0,0,16.4,4.8,35.7,5.8v-5.8l1.3-106.2c-4.7-3.4-7.7-6.6-10.2-11.1
							c-1.5,0.1-2.9,0.5-4.4,0.9c-1,0.3-1.9,0.5-2.9,0.8c-0.9,0.3-1.8,0.6-2.6,1c-3.8,0.9-7.2,2-10.2,3.4c-4,2.8-6.6,7.6-7.9,14.5
							l-5.8,48.1l14.9,2.5l1.1-16.2l1.4-10C242.6,160.6,242.3,165.7,242,171.4z"/>
					</defs>
					<clipPath id="SVGID_76_">
						<use xlink:href="#SVGID_75_"  style="overflow:visible;"/>
					</clipPath>
					<g class="st37">
						<defs>
							<rect id="SVGID_77_" x="125.1" y="108.5" width="290" height="202"/>
						</defs>
						<clipPath id="SVGID_78_">
							<use xlink:href="#SVGID_77_"  style="overflow:visible;"/>
						</clipPath>
						<rect x="220.5" y="105.5" class="st38" width="129.7" height="133.1"/>
					</g>
				</g>
				<g class="st4">
					<defs>
						<path id="SVGID_79_" d="M242,171.4c-0.8,14.6-7,45.5-7.7,51c0,0,11.3,2.9,20.1,4.1c-1.7-24.4-8.9-55.7-11.6-69.2
							C242.6,160.3,242.2,167.8,242,171.4z"/>
					</defs>
					<clipPath id="SVGID_80_">
						<use xlink:href="#SVGID_79_"  style="overflow:visible;"/>
					</clipPath>
					<g class="st39">
						<defs>
							<rect id="SVGID_81_" x="125.1" y="108.5" width="290" height="202"/>
						</defs>
						<clipPath id="SVGID_82_">
							<use xlink:href="#SVGID_81_"  style="overflow:visible;"/>
						</clipPath>
						
							<rect x="206.8" y="176.6" transform="matrix(5.233724e-02 -0.9986 0.9986 5.233724e-02 41.6979 427.4524)" class="st40" width="78.5" height="30.3"/>
					</g>
				</g>
				<g class="st4">
					<defs>
						<path id="SVGID_83_" d="M222.5,181.4l20.9,2.9l0.8-6l-2.5-0.4l-18.8-2.4L222.5,181.4z M341.2,144.1l-0.1,2.5l6.1,0.3l1.1-21.1
							l-5.8-0.6L341.2,144.1z M279.2,121.6l5.9,4.9l0.5-15L279.2,121.6z M264.2,125.6l5.2-3.9l-10.2-11.1L264.2,125.6z"/>
					</defs>
					<clipPath id="SVGID_84_">
						<use xlink:href="#SVGID_83_"  style="overflow:visible;"/>
					</clipPath>
					<g class="st41">
						<defs>
							<rect id="SVGID_85_" x="125.1" y="108.5" width="290" height="202"/>
						</defs>
						<clipPath id="SVGID_86_">
							<use xlink:href="#SVGID_85_"  style="overflow:visible;"/>
						</clipPath>
						<rect x="217.5" y="105.5" class="st42" width="135.8" height="83.8"/>
					</g>
				</g>
				<g class="st4">
					<defs>
						<path id="SVGID_87_" d="M93.1,79.7C91,72.9,88.8,57.8,109,53.5c18.5-4,22.6,16.5,22.6,16.5c0.2,0.9,0.5,1.8,0.6,2.7
							c0.1,1,0.1,1.9,0.2,2.9c0.2,1.9,0.5,3.8,1.1,5.6c0.6,1.7,1.4,3.3,2.4,4.7c0.8,1.1,2.5,2.8,2.1,4.3c-0.3,0.9-1.4,1.1-2.3,1
							c-2-0.2-3-0.1-3.5,2c-0.4,1.5-0.2,3.1-0.7,4.5c-0.6,1.8-1.5,3.5-2.8,4.9c-2.7,3-6.6,4-10.5,3.5c-1.5-0.2-3-0.4-4.3-0.8
							c-4.4,15.8,8.2,11.4,11.9,16c0.4,3.8,1,10.6-2,14c-3.1,3.4-8.2,4.1-17,3.5s-9.7-3-12.3-6.9c-1.7-2.6-1.8-7.2-0.1-13.7
							c11.3,0,9.4-12.6,7.7-19.3c-3.9-3.7-5.7-7.8-6.6-10.1c-1.9,1.8-5.8-0.6-7.2-2.4c-0.9-1.2-1.4-2.8-1.2-4.3c0.1-1,0.6-2,1.4-2.6
							c0.8-0.6,1.8-0.7,2.7-0.5C91.9,79.2,92.5,79.4,93.1,79.7z"/>
					</defs>
					<clipPath id="SVGID_88_">
						<use xlink:href="#SVGID_87_"  style="overflow:visible;"/>
					</clipPath>
					<g class="st43">
						<defs>
							<rect id="SVGID_89_" x="60.1" y="39" width="97" height="101"/>
						</defs>
						<clipPath id="SVGID_90_">
							<use xlink:href="#SVGID_89_"  style="overflow:visible;"/>
						</clipPath>
						<rect x="82.1" y="48" class="st44" width="61" height="96.2"/>
					</g>
				</g>
				<g class="st4">
					<defs>
						<path id="SVGID_91_" d="M91.8,46.3c11.6-7.3,27.9-0.7,34.3,2.9c2.6,1.5,6.7,13.2-4.8,8.5c-2.8-1.4-9.5-0.1-11.1,1.7
							c-1.6,1.9-0.6,3.4-4.2,6.4c-3.6,3-6.8,1.9-5.6,8.8c1.1,14.5,10.1,21.5,14.5,21.5c6.7,0,14.9-4.2,17.9-4.2
							c-0.7,1.6-1,2.7-1.1,3.3c-5.4,1.6-8,3.2-8,4.9c0,1.2,1.2,1.9,2.4,1.6c1.4-0.3,2.5-0.4,4.3-1.6c-2.5,4.1-4.3,6.3-9.8,6.3
							c-8,0-13.4-3.6-17.2-12.1c-3.9-8.4-9.9-14.5-10.2-14.6c-3.5-1.3-6.1,0-6.1,3.4c0.1,5.3,6.8,7.2,8.4,5.9
							c0.8,2.7,4,7.3,6.5,10.1c-14.3-0.8-21.5-11.3-22.6-24.6C78.7,65.9,80.2,53.5,91.8,46.3z"/>
					</defs>
					<clipPath id="SVGID_92_">
						<use xlink:href="#SVGID_91_"  style="overflow:visible;"/>
					</clipPath>
					<g class="st45">
						<defs>
							<rect id="SVGID_93_" x="60.1" y="39" width="97" height="101"/>
						</defs>
						<clipPath id="SVGID_94_">
							<use xlink:href="#SVGID_93_"  style="overflow:visible;"/>
						</clipPath>
						<rect x="74.3" y="38" class="st46" width="63.5" height="73.4"/>
					</g>
				</g>
				<g class="st4">
					<defs>
						<path id="SVGID_95_" d="M112.3,285.6c-3,14-5.7,27-6.9,35.4c-3.3,22.3-15.4,79.6-19,107c-4.3,0.1-11.1-0.1-15.5,0
							c0.1-1.1,0-1.7,0-2.4c-2.3-32.5,0.6-93.2,3.5-129.5c1.1-13.9,3.3-56.1,6.2-72.1h12.1H139l10.4,77.3l9.8,125.7
							c0,0-7.3-0.1-14.7,0c-7.4-40.5-15.5-77.9-24.3-112.3C117.4,304.3,114.8,294.5,112.3,285.6z"/>
					</defs>
					<clipPath id="SVGID_96_">
						<use xlink:href="#SVGID_95_"  style="overflow:visible;"/>
					</clipPath>
					<g class="st47">
						<defs>
							<rect id="SVGID_97_" x="11.1" y="224" width="249" height="108"/>
						</defs>
						<clipPath id="SVGID_98_">
							<use xlink:href="#SVGID_97_"  style="overflow:visible;"/>
						</clipPath>
						<rect x="65.1" y="219" class="st48" width="99" height="214"/>
					</g>
				</g>
				<g class="st4">
					<defs>
						<path id="SVGID_99_" d="M78.2,236c10.6,1.8,21.2,2.7,31.8,2.7c10.7,0,21.3-0.9,32-2.7l1.1,14c-11.2,1.8-22.3,2.7-33.5,2.7
							s-22.3-0.9-33.5-2.7L78.2,236z"/>
					</defs>
					<clipPath id="SVGID_100_">
						<use xlink:href="#SVGID_99_"  style="overflow:visible;"/>
					</clipPath>
					<g class="st49">
						<defs>
							<rect id="SVGID_101_" x="11.1" y="224" width="249" height="108"/>
						</defs>
						<clipPath id="SVGID_102_">
							<use xlink:href="#SVGID_101_"  style="overflow:visible;"/>
						</clipPath>
						<rect x="71.1" y="231" class="st50" width="77" height="26.7"/>
					</g>
				</g>
				<g class="st4">
					<defs>
						<path id="SVGID_103_" d="M140.5,154c0.4-6.8,1.6-16.1-1-22.1c-1.3-3-2.7-6.2-5.4-8.2c-1.5-1.1-3.8-1.6-5.5-2.2
							c-1.8-0.6-5.1-2.4-7.1-2.1c-1.4,0.2-1.4,2.4-2,3.7c-0.8,2-1.3,2.9-2.5,4.7c-0.6,0.9,0.2,5.6-7.6,5.6s-11.3-8.2-15.3-15.4
							c-1.5,0.1-2.9,0.5-4.4,0.9c-1,0.3-1.9,0.5-2.9,0.8c-1.8,0.6-3.6,1.3-5,2.6c-1.1,0.9-1.9,2.1-2.4,3.4
							c-1.7,4.1-1.3,8.9-1.2,13.2c0.5,14.4-0.6,25.3-1.4,39.9c-0.8,14.6-7,45.5-7.7,51c0,0,44.4,13.8,81.5-1.8
							c0.5-9-7.7-15.7-10.2-59.4C140.6,165.2,140.6,160.3,140.5,154z"/>
					</defs>
					<clipPath id="SVGID_104_">
						<use xlink:href="#SVGID_103_"  style="overflow:visible;"/>
					</clipPath>
					<g class="st51">
						<defs>
							<rect id="SVGID_105_" x="11.1" y="1" width="249" height="317"/>
						</defs>
						<clipPath id="SVGID_106_">
							<use xlink:href="#SVGID_105_"  style="overflow:visible;"/>
						</clipPath>
						
							<rect x="49.3" y="131.7" transform="matrix(5.233598e-02 -0.9986 0.9986 5.233598e-02 -70.2843 280.6693)" class="st52" width="126.8" height="91.3"/>
					</g>
				</g>
				<g class="st4">
					<defs>
						<path id="SVGID_107_" d="M158.2,29.9c-2.6-8.8-5.8-16.2-9.5-22c-1.3-1.4-3.9-3-3.3,2.9c0.6,5.8,1,12-0.9,12.9
							c-1.9,0.9-4.4-2.6-7-0.8c-1.7,1.2,2.9,6.1,13.8,15c14.3,28.6,22.5,49.2,24.7,61.7c7.6-4.8,3.7-16.4,6-18.8
							C176.4,64.8,168.4,47.9,158.2,29.9z M46.2,93.3c2.6-12.4,11.5-32.6,26.6-60.7C84,24.2,88.8,19.4,87.1,18.2
							c-2.5-1.8-5.1,1.5-7,0.6c-1.9-1-1.3-7.1-0.5-12.9c0.8-5.8-1.8-4.3-3.2-3c-3.9,5.7-7.3,12.9-10.2,21.7
							c-13.3,20.3-23.7,38.3-31,53.9C37.4,80.9,38.8,88.2,46.2,93.3z"/>
					</defs>
					<clipPath id="SVGID_108_">
						<use xlink:href="#SVGID_107_"  style="overflow:visible;"/>
					</clipPath>
					<g class="st53">
						<defs>
							<rect id="SVGID_109_" x="11.1" y="1" width="249" height="317"/>
						</defs>
						<clipPath id="SVGID_110_">
							<use xlink:href="#SVGID_109_"  style="overflow:visible;"/>
						</clipPath>
						<rect x="30.2" y="-3.4" class="st54" width="156.8" height="107.8"/>
					</g>
				</g>
				<g class="st4">
					<defs>
						<path id="SVGID_111_" d="M134.2,123.7c-1.5-1.1-3.8-1.6-5.5-2.2c-1.8-0.6-6.1-2.8-8.1-2.5c-1.2,2.9-2.9,6.7-6.4,10.1
							l0.9,106.3v5.7c11.5-0.4,25.8-0.8,37.5-5.7c0.5-9-8.2-22.3-12-66.7c0.1-2.7,0.1-6.2,0.1-10.6c0.4-0.1,0.8-0.3,1.2-0.6
							c25.3-16.6,48-64.8,43.8-76.3c-4.2-11.5-5.7-13-8.4-16.9c-5.8-0.3-16.5,6.8-15.9,9.9c1,5.2,4.1,6.4,2.3,12
							c-1.7,5.4-7.3,25.3-27.6,39.1C135.4,124.7,134.8,124.2,134.2,123.7z M77,178.9c-0.8,14.6-8.8,51-9.5,56.4
							c0,0,16.4,4.8,35.7,5.8v-5.8l1.3-106.2c-4.7-3.4-7.7-6.6-10.2-11.1c-1.5,0.1-2.9,0.5-4.4,0.9c-1,0.3-1.9,0.5-2.9,0.8
							c-1.6,0.5-3.2,1.2-4.5,2.2c-19.3-13.8-24.8-33-26.5-38.3c-1.8-5.6,1.3-6.8,2.3-12c0.6-3.1-10.1-9.2-16-8.9
							c-3.2,2.5-4.1,4.3-8.4,15.8c-4.2,11.5,18.5,59.7,43.8,76.3c0.2,0.1,0.3,0.2,0.5,0.3C78,162.8,77.4,170.2,77,178.9z"/>
					</defs>
					<clipPath id="SVGID_112_">
						<use xlink:href="#SVGID_111_"  style="overflow:visible;"/>
					</clipPath>
					<g class="st55">
						<defs>
							<rect id="SVGID_113_" x="11.1" y="1" width="249" height="317"/>
						</defs>
						<clipPath id="SVGID_114_">
							<use xlink:href="#SVGID_113_"  style="overflow:visible;"/>
						</clipPath>
						<rect x="28.5" y="57.7" class="st56" width="162.6" height="188.5"/>
					</g>
				</g>
				<g class="st4">
					<defs>
						<path id="SVGID_115_" d="M77,178.9c-0.8,14.6-7,45.5-7.7,51c0,0,11.3,2.9,20.1,4.1c-1.7-24.4-8.9-55.7-11.6-69.2
							C77.6,167.8,77.2,175.3,77,178.9z"/>
					</defs>
					<clipPath id="SVGID_116_">
						<use xlink:href="#SVGID_115_"  style="overflow:visible;"/>
					</clipPath>
					<g class="st57">
						<defs>
							<rect id="SVGID_117_" x="11.1" y="1" width="249" height="317"/>
						</defs>
						<clipPath id="SVGID_118_">
							<use xlink:href="#SVGID_117_"  style="overflow:visible;"/>
						</clipPath>
						
							<rect x="41.8" y="184.1" transform="matrix(5.233724e-02 -0.9986 0.9986 5.233724e-02 -122.1561 269.786)" class="st58" width="78.5" height="30.3"/>
					</g>
				</g>
				<g class="st4">
					<defs>
						<path id="SVGID_119_" d="M39.9,62.9L58,73.8l3.1-5.2l-2.2-1.3l-16.3-9.6L39.9,62.9z M177.6,67l2.2-1.2l-2.9-5.4l-18.6,9.9
							l2.5,5.3L177.6,67z M114.1,129.1l5.9,4.9l0.7-15L114.1,129.1z M99.1,133l5.2-3.9L94.1,118L99.1,133z"/>
					</defs>
					<clipPath id="SVGID_120_">
						<use xlink:href="#SVGID_119_"  style="overflow:visible;"/>
					</clipPath>
					<g class="st59">
						<defs>
							<rect id="SVGID_121_" x="11.1" y="1" width="249" height="317"/>
						</defs>
						<clipPath id="SVGID_122_">
							<use xlink:href="#SVGID_121_"  style="overflow:visible;"/>
						</clipPath>
						<rect x="34.9" y="52.7" class="st60" width="149.9" height="86.3"/>
					</g>
				</g>
			</g>
		</g>
	</g>
</g>
</svg>
