<?xml version="1.0" encoding="utf-8"?>
<!-- Generator: Adobe Illustrator 23.0.4, SVG Export Plug-In . SVG Version: 6.00 Build 0)  -->
<svg version="1.1" id="Layer_1" xmlns="http://www.w3.org/2000/svg" xmlns:xlink="http://www.w3.org/1999/xlink" x="0px" y="0px"
	 viewBox="0 0 570 309.7" style="enable-background:new 0 0 570 309.7;" xml:space="preserve">
<style type="text/css">
	.st0{clip-path:url(#SVGID_2_);}
	.st1{clip-path:url(#SVGID_4_);enable-background:new    ;}
	.st2{clip-path:url(#SVGID_6_);}
	.st3{clip-path:url(#SVGID_8_);}
	.st4{clip-path:url(#SVGID_10_);fill:#051C2C;}
	.st5{clip-path:url(#SVGID_12_);}
	.st6{clip-path:url(#SVGID_14_);fill:#00A9F4;}
	.st7{clip-path:url(#SVGID_16_);}
	.st8{clip-path:url(#SVGID_18_);fill:#FFFFFF;}
	.st9{clip-path:url(#SVGID_20_);}
	.st10{clip-path:url(#SVGID_22_);fill:#FFFFFF;}
	.st11{clip-path:url(#SVGID_24_);}
	.st12{clip-path:url(#SVGID_26_);fill:#FFFFFF;}
	.st13{clip-path:url(#SVGID_28_);}
	.st14{clip-path:url(#SVGID_30_);fill:#FFFFFF;}
	.st15{clip-path:url(#SVGID_32_);}
	.st16{clip-path:url(#SVGID_34_);}
	.st17{clip-path:url(#SVGID_36_);fill:#E6E6E6;}
	.st18{clip-path:url(#SVGID_38_);}
	.st19{clip-path:url(#SVGID_40_);}
	.st20{clip-path:url(#SVGID_42_);fill:#1F40E6;}
	.st21{clip-path:url(#SVGID_44_);}
	.st22{clip-path:url(#SVGID_46_);}
	.st23{clip-path:url(#SVGID_48_);fill:#00A9F4;}
	.st24{clip-path:url(#SVGID_50_);}
	.st25{clip-path:url(#SVGID_52_);fill:#D0D0D0;}
	.st26{clip-path:url(#SVGID_54_);}
	.st27{clip-path:url(#SVGID_56_);fill:#051C2C;}
	.st28{clip-path:url(#SVGID_58_);}
	.st29{clip-path:url(#SVGID_60_);fill:#FFFFFF;}
	.st30{clip-path:url(#SVGID_62_);}
	.st31{clip-path:url(#SVGID_64_);fill:#00A9F4;}
	.st32{clip-path:url(#SVGID_66_);}
	.st33{clip-path:url(#SVGID_68_);fill:#FFFFFF;}
	.st34{clip-path:url(#SVGID_70_);}
	.st35{clip-path:url(#SVGID_72_);fill:#7F7F7F;}
	.st36{clip-path:url(#SVGID_74_);}
	.st37{opacity:0.4;clip-path:url(#SVGID_76_);}
	.st38{clip-path:url(#SVGID_78_);}
	.st39{clip-path:url(#SVGID_80_);fill:#D0D0D0;}
	.st40{clip-path:url(#SVGID_82_);}
	.st41{clip-path:url(#SVGID_84_);fill:#1F40E6;}
	.st42{clip-path:url(#SVGID_86_);}
	.st43{opacity:0.2;clip-path:url(#SVGID_88_);}
	.st44{clip-path:url(#SVGID_90_);}
	.st45{clip-path:url(#SVGID_92_);fill:#D8D8D8;}
	.st46{clip-path:url(#SVGID_94_);}
	.st47{clip-path:url(#SVGID_96_);fill:#051C2C;}
	.st48{clip-path:url(#SVGID_98_);}
	.st49{clip-path:url(#SVGID_100_);fill:#FFFFFF;}
	.st50{clip-path:url(#SVGID_102_);}
	.st51{clip-path:url(#SVGID_104_);fill:#1F40E6;}
	.st52{clip-path:url(#SVGID_106_);}
	.st53{clip-path:url(#SVGID_108_);fill:#D0D0D0;}
	.st54{clip-path:url(#SVGID_110_);}
	.st55{clip-path:url(#SVGID_112_);fill:#FFFFFF;}
</style>
<g>
	<defs>
		<path id="SVGID_1_" d="M92,195.6C92.9,172,92.9,82.8,92-72h371c-1,149.8-1,235.5-0.1,256.9c1.8,43.1-21.4,90.7-60,107.3
			c-46.2,20-73.8-5.3-117.9-18c-48.1-13.8-101.3-4.3-148.3-21.4C104.2,241,91.2,218.6,92,195.6z"/>
	</defs>
	<clipPath id="SVGID_2_">
		<use xlink:href="#SVGID_1_"  style="overflow:visible;"/>
	</clipPath>
	<g class="st0">
		<defs>
			<rect id="SVGID_3_" x="23" y="-72" width="525" height="870"/>
		</defs>
		<clipPath id="SVGID_4_">
			<use xlink:href="#SVGID_3_"  style="overflow:visible;"/>
		</clipPath>
		<g class="st1">
			<g>
				<defs>
					<rect id="SVGID_5_" x="87" y="8" width="382" height="390"/>
				</defs>
				<clipPath id="SVGID_6_">
					<use xlink:href="#SVGID_5_"  style="overflow:visible;"/>
				</clipPath>
				<g class="st2">
					<defs>
						<path id="SVGID_7_" d="M136.8,252.9c-83-30.2-38.7-129.2,36.5-129.8c41.1-0.3,78.8,33.2,121.5,24.7c44.5-8.9,67.2-56,118.2-37
							c77.9,28.9,57.3,152.5-10,181.5c-46.2,20-73.8-5.3-117.9-18C236.9,260.4,183.7,270,136.8,252.9"/>
					</defs>
					<clipPath id="SVGID_8_">
						<use xlink:href="#SVGID_7_"  style="overflow:visible;"/>
					</clipPath>
					<g class="st3">
						<defs>
							<rect id="SVGID_9_" x="92" y="12" width="371" height="288"/>
						</defs>
						<clipPath id="SVGID_10_">
							<use xlink:href="#SVGID_9_"  style="overflow:visible;"/>
						</clipPath>
						<rect x="87" y="101.2" class="st4" width="381" height="203.4"/>
					</g>
				</g>
				<g class="st2">
					<defs>
						<path id="SVGID_11_" d="M138.5,179h93c3,0,5.5,2.5,5.5,5.5s-2.5,5.5-5.5,5.5h-93c-3,0-5.5-2.5-5.5-5.5S135.5,179,138.5,179z"
							/>
					</defs>
					<clipPath id="SVGID_12_">
						<use xlink:href="#SVGID_11_"  style="overflow:visible;"/>
					</clipPath>
					<g class="st5">
						<defs>
							<rect id="SVGID_13_" x="92" y="12" width="371" height="288"/>
						</defs>
						<clipPath id="SVGID_14_">
							<use xlink:href="#SVGID_13_"  style="overflow:visible;"/>
						</clipPath>
						<rect x="128" y="174" class="st6" width="114" height="21"/>
					</g>
				</g>
				<g class="st2">
					<defs>
						<path id="SVGID_15_" d="M135.5,202h171c1.4,0,2.5,1.1,2.5,2.5s-1.1,2.5-2.5,2.5h-171c-1.4,0-2.5-1.1-2.5-2.5
							S134.1,202,135.5,202z"/>
					</defs>
					<clipPath id="SVGID_16_">
						<use xlink:href="#SVGID_15_"  style="overflow:visible;"/>
					</clipPath>
					<g class="st7">
						<defs>
							<rect id="SVGID_17_" x="92" y="12" width="371" height="288"/>
						</defs>
						<clipPath id="SVGID_18_">
							<use xlink:href="#SVGID_17_"  style="overflow:visible;"/>
						</clipPath>
						<rect x="128" y="197" class="st8" width="186" height="15"/>
					</g>
				</g>
				<g class="st2">
					<defs>
						<path id="SVGID_19_" d="M135.5,214h171c1.4,0,2.5,1.1,2.5,2.5s-1.1,2.5-2.5,2.5h-171c-1.4,0-2.5-1.1-2.5-2.5
							S134.1,214,135.5,214z"/>
					</defs>
					<clipPath id="SVGID_20_">
						<use xlink:href="#SVGID_19_"  style="overflow:visible;"/>
					</clipPath>
					<g class="st9">
						<defs>
							<rect id="SVGID_21_" x="92" y="12" width="371" height="288"/>
						</defs>
						<clipPath id="SVGID_22_">
							<use xlink:href="#SVGID_21_"  style="overflow:visible;"/>
						</clipPath>
						<rect x="128" y="209" class="st10" width="186" height="15"/>
					</g>
				</g>
				<g class="st2">
					<defs>
						<path id="SVGID_23_" d="M135.5,226h171c1.4,0,2.5,1.1,2.5,2.5s-1.1,2.5-2.5,2.5h-171c-1.4,0-2.5-1.1-2.5-2.5
							S134.1,226,135.5,226z"/>
					</defs>
					<clipPath id="SVGID_24_">
						<use xlink:href="#SVGID_23_"  style="overflow:visible;"/>
					</clipPath>
					<g class="st11">
						<defs>
							<rect id="SVGID_25_" x="92" y="12" width="371" height="288"/>
						</defs>
						<clipPath id="SVGID_26_">
							<use xlink:href="#SVGID_25_"  style="overflow:visible;"/>
						</clipPath>
						<rect x="128" y="221" class="st12" width="186" height="15"/>
					</g>
				</g>
				<g class="st2">
					<defs>
						<path id="SVGID_27_" d="M135.5,238h171c1.4,0,2.5,1.1,2.5,2.5s-1.1,2.5-2.5,2.5h-171c-1.4,0-2.5-1.1-2.5-2.5
							S134.1,238,135.5,238z"/>
					</defs>
					<clipPath id="SVGID_28_">
						<use xlink:href="#SVGID_27_"  style="overflow:visible;"/>
					</clipPath>
					<g class="st13">
						<defs>
							<rect id="SVGID_29_" x="92" y="12" width="371" height="288"/>
						</defs>
						<clipPath id="SVGID_30_">
							<use xlink:href="#SVGID_29_"  style="overflow:visible;"/>
						</clipPath>
						<rect x="128" y="233" class="st14" width="186" height="15"/>
					</g>
				</g>
				<g class="st2">
					<defs>
						
							<rect id="SVGID_31_" x="189" y="61" transform="matrix(0.9744 -0.225 0.225 0.9744 -14.7154 48.8465)" width="36" height="56"/>
					</defs>
					<clipPath id="SVGID_32_">
						<use xlink:href="#SVGID_31_"  style="overflow:visible;"/>
					</clipPath>
					<g class="st15">
						<defs>
							<path id="SVGID_33_" d="M198.7,117.3L198.7,117.3c1.6,0.3,3.2-0.8,3.4-2.4l5.1-30.3l-5.9-1l-5.1,30.3
								C196,115.5,197.1,117,198.7,117.3"/>
						</defs>
						<clipPath id="SVGID_34_">
							<use xlink:href="#SVGID_33_"  style="overflow:visible;"/>
						</clipPath>
						<g class="st16">
							<defs>
								<rect id="SVGID_35_" x="92" y="12" width="371" height="288"/>
							</defs>
							<clipPath id="SVGID_36_">
								<use xlink:href="#SVGID_35_"  style="overflow:visible;"/>
							</clipPath>
							
								<rect x="188.1" y="78.9" transform="matrix(0.9744 -0.225 0.225 0.9744 -17.3531 47.9738)" class="st17" width="27.5" height="42.5"/>
						</g>
					</g>
				</g>
				<g class="st2">
					<defs>
						
							<rect id="SVGID_37_" x="189" y="61" transform="matrix(0.9744 -0.225 0.225 0.9744 -14.7154 48.8465)" width="36" height="56"/>
					</defs>
					<clipPath id="SVGID_38_">
						<use xlink:href="#SVGID_37_"  style="overflow:visible;"/>
					</clipPath>
					<g class="st18">
						<defs>
							<path id="SVGID_39_" d="M189.6,76.2c-1.5,8.6,4.4,16.8,13,18.2c8.6,1.5,16.8-4.4,18.2-13c1.5-8.6-4.4-16.8-13-18.2
								C199.2,61.7,191.1,67.5,189.6,76.2"/>
						</defs>
						<clipPath id="SVGID_40_">
							<use xlink:href="#SVGID_39_"  style="overflow:visible;"/>
						</clipPath>
						<g class="st19">
							<defs>
								<rect id="SVGID_41_" x="92" y="12" width="371" height="288"/>
							</defs>
							<clipPath id="SVGID_42_">
								<use xlink:href="#SVGID_41_"  style="overflow:visible;"/>
							</clipPath>
							
								<rect x="184.4" y="58" transform="matrix(0.9744 -0.225 0.225 0.9744 -12.4658 48.1801)" class="st20" width="41.7" height="41.7"/>
						</g>
					</g>
				</g>
				<g class="st2">
					<defs>
						
							<rect id="SVGID_43_" x="189" y="61" transform="matrix(0.9744 -0.225 0.225 0.9744 -14.7154 48.8465)" width="36" height="56"/>
					</defs>
					<clipPath id="SVGID_44_">
						<use xlink:href="#SVGID_43_"  style="overflow:visible;"/>
					</clipPath>
					<g class="st21">
						<defs>
							<path id="SVGID_45_" d="M193.3,76.8c-1.1,6.6,3.3,12.8,9.9,13.9c6.6,1.1,12.8-3.3,13.9-9.9c1.1-6.6-3.3-12.8-9.9-13.9
								C200.6,65.8,194.4,70.2,193.3,76.8"/>
						</defs>
						<clipPath id="SVGID_46_">
							<use xlink:href="#SVGID_45_"  style="overflow:visible;"/>
						</clipPath>
						<g class="st22">
							<defs>
								<rect id="SVGID_47_" x="92" y="12" width="371" height="288"/>
							</defs>
							<clipPath id="SVGID_48_">
								<use xlink:href="#SVGID_47_"  style="overflow:visible;"/>
							</clipPath>
							
								<rect x="188.1" y="61.7" transform="matrix(0.9744 -0.225 0.225 0.9744 -12.4659 48.1808)" class="st23" width="34.2" height="34.2"/>
						</g>
					</g>
				</g>
				<g class="st2">
					<defs>
						<path id="SVGID_49_" d="M351,48.7c2.1-6.8,4.3-21.8-15.9-26.2c-18.5-4-22.6,16.5-22.6,16.5c-0.2,0.9-0.5,1.8-0.6,2.7
							c-0.1,1-0.1,1.9-0.2,2.9c-0.2,1.9-0.5,3.8-1.1,5.6c-0.6,1.7-1.4,3.3-2.4,4.7c-0.8,1.1-2.5,2.8-2.1,4.3c0.3,0.9,1.4,1.1,2.3,1
							c2-0.2,3-0.1,3.5,2c0.4,1.5,0.2,3.1,0.7,4.5c0.6,1.8,1.5,3.5,2.8,4.9c2.7,3,6.6,4,10.5,3.5c1.5-0.2,3-0.4,4.3-0.8
							c4.4,15.8-8.2,11.4-11.9,16c-0.4,3.8-1,10.6,2,14c3.1,3.4,8.2,4.1,17,3.5s9.7-3,12.3-6.9c1.7-2.6,1.8-7.2,0.1-13.7
							c-11.3,0-9.4-12.6-7.7-19.3c3.9-3.7,5.7-7.8,6.6-10.1c1.9,1.8,5.8-0.6,7.2-2.4c0.9-1.2,1.4-2.8,1.2-4.3c-0.1-1-0.6-2-1.4-2.6
							c-0.8-0.6-1.8-0.7-2.7-0.5C352.2,48.2,351.6,48.4,351,48.7z"/>
					</defs>
					<clipPath id="SVGID_50_">
						<use xlink:href="#SVGID_49_"  style="overflow:visible;"/>
					</clipPath>
					<g class="st24">
						<defs>
							<rect id="SVGID_51_" x="287" y="12" width="97" height="97"/>
						</defs>
						<clipPath id="SVGID_52_">
							<use xlink:href="#SVGID_51_"  style="overflow:visible;"/>
						</clipPath>
						<rect x="301" y="17" class="st25" width="61" height="96.2"/>
					</g>
				</g>
				<g class="st2">
					<defs>
						<path id="SVGID_53_" d="M352.3,15.3c-11.6-7.3-27.9-0.7-34.3,2.9c-2.6,1.5-6.7,13.2,4.8,8.5c2.8-1.4,9.5-0.1,11.1,1.7
							c1.6,1.9,0.6,3.4,4.2,6.4c3.6,3,6.8,1.9,5.6,8.8c-1.1,14.5-10.1,21.5-14.5,21.5c-6.7,0-14.9-4.2-17.9-4.2
							c0.7,1.6,1,2.7,1.1,3.3c5.4,1.6,8,3.2,8,4.9c0,1.2-1.2,1.9-2.4,1.6c-1.4-0.3-2.5-0.4-4.3-1.6c2.5,4.1,4.3,6.3,9.8,6.3
							c8,0,13.4-3.6,17.2-12.1c3.9-8.4,9.9-14.5,10.2-14.6c3.5-1.3,6.1,0,6.1,3.4c-0.1,5.3-6.8,7.2-8.4,5.9c-0.8,2.7-4,7.3-6.5,10.1
							c14.3-0.8,21.5-11.3,22.6-24.6C365.4,34.9,363.9,22.5,352.3,15.3z"/>
					</defs>
					<clipPath id="SVGID_54_">
						<use xlink:href="#SVGID_53_"  style="overflow:visible;"/>
					</clipPath>
					<g class="st26">
						<defs>
							<rect id="SVGID_55_" x="287" y="12" width="97" height="97"/>
						</defs>
						<clipPath id="SVGID_56_">
							<use xlink:href="#SVGID_55_"  style="overflow:visible;"/>
						</clipPath>
						<rect x="306.3" y="7" class="st27" width="63.5" height="73.4"/>
					</g>
				</g>
				<g class="st2">
					<defs>
						<path id="SVGID_57_" d="M331.8,254.6c3,14,5.7,27,6.9,35.4c3.3,22.3,15.4,79.6,19,107c4.3,0.1,11.1-0.1,15.5,0
							c-0.1-1.1,0-1.7,0-2.4c2.3-32.5-0.6-93.2-3.5-129.5c-1.1-13.9-3.3-56.1-6.2-72.1h-12.1h-46.2l-10.4,77.3L285,396.1
							c0,0,7.3-0.1,14.7,0c7.4-40.5,15.5-77.9,24.3-112.3C326.8,273.3,329.3,263.5,331.8,254.6z"/>
					</defs>
					<clipPath id="SVGID_58_">
						<use xlink:href="#SVGID_57_"  style="overflow:visible;"/>
					</clipPath>
					<g class="st28">
						<defs>
							<rect id="SVGID_59_" x="184" y="193" width="279" height="107"/>
						</defs>
						<clipPath id="SVGID_60_">
							<use xlink:href="#SVGID_59_"  style="overflow:visible;"/>
						</clipPath>
						<rect x="280" y="188" class="st29" width="99" height="214"/>
					</g>
				</g>
				<g class="st2">
					<defs>
						<path id="SVGID_61_" d="M365.9,205c-10.6,1.8-21.2,2.7-31.8,2.7c-10.7,0-21.3-0.9-32-2.7l-1.1,14c11.2,1.8,22.3,2.7,33.5,2.7
							s22.3-0.9,33.5-2.7L365.9,205z"/>
					</defs>
					<clipPath id="SVGID_62_">
						<use xlink:href="#SVGID_61_"  style="overflow:visible;"/>
					</clipPath>
					<g class="st30">
						<defs>
							<rect id="SVGID_63_" x="184" y="193" width="279" height="107"/>
						</defs>
						<clipPath id="SVGID_64_">
							<use xlink:href="#SVGID_63_"  style="overflow:visible;"/>
						</clipPath>
						<rect x="296" y="200" class="st31" width="77" height="26.7"/>
					</g>
				</g>
				<g class="st2">
					<defs>
						<path id="SVGID_65_" d="M303.6,119.7c-0.4-6.8-1.6-12.8,1-18.9c1.3-3,2.7-6.2,5.4-8.2c1.5-1.1,3.8-1.6,5.5-2.2
							c1.8-0.6,5.1-2.4,7.1-2.1c1.4,0.2,3.9,10,11.5,9.7c7.6-0.4,11.9-3.8,15.9-11c1.5,0.1,6.3,1.4,7.2,1.7c1.8,0.6,3.6,1.3,5,2.6
							c1.1,0.9,1.9,2.1,2.4,3.4c1.7,4.1,1.3,8.9,1.2,13.2c-0.5,14.4,0.6,25.3,1.4,39.9c0.8,14.6,4,45.5,4.7,51
							c0,0-35.4,13.8-72.5-1.8c-0.5-9,1.7-15.7,4.2-59.4C303.5,134.2,303.5,128.2,303.6,119.7z"/>
					</defs>
					<clipPath id="SVGID_66_">
						<use xlink:href="#SVGID_65_"  style="overflow:visible;"/>
					</clipPath>
					<g class="st32">
						<defs>
							<rect id="SVGID_67_" x="184" y="85" width="279" height="202"/>
						</defs>
						<clipPath id="SVGID_68_">
							<use xlink:href="#SVGID_67_"  style="overflow:visible;"/>
						</clipPath>
						<rect x="294.3" y="82" class="st33" width="82.5" height="127.5"/>
					</g>
				</g>
				<g class="st2">
					<defs>
						<path id="SVGID_69_" d="M323.5,89.5c-1,3.3,0.9,8.7,5.6,16.1c0.8-2.6,1.7-6.4,6.1-7.7C331.8,97,327.9,94.2,323.5,89.5z
							 M348.6,89.5c-4.4,4.7-8.3,7.5-11.7,8.5c4.4,1.2,5.2,5.1,6.1,7.7C347.7,98.2,349.6,92.9,348.6,89.5z"/>
					</defs>
					<clipPath id="SVGID_70_">
						<use xlink:href="#SVGID_69_"  style="overflow:visible;"/>
					</clipPath>
					<g class="st34">
						<defs>
							<rect id="SVGID_71_" x="184" y="85" width="279" height="202"/>
						</defs>
						<clipPath id="SVGID_72_">
							<use xlink:href="#SVGID_71_"  style="overflow:visible;"/>
						</clipPath>
						<rect x="318.2" y="84.5" class="st35" width="35.7" height="26.1"/>
					</g>
				</g>
				<g class="st2">
					<defs>
						<path id="SVGID_73_" d="M334.5,134.1c0.7,0,1.3-0.5,1.3-1.1s-0.6-1.1-1.3-1.1s-1.3,0.5-1.3,1.1S333.8,134.1,334.5,134.1z
							 M334.3,141c0.7,0,1.3-0.5,1.3-1.1c0-0.6-0.6-1.1-1.3-1.1s-1.3,0.5-1.3,1.1C333,140.5,333.6,141,334.3,141z M334.7,113.3
							c0.7,0,1.3-0.5,1.3-1.1c0-0.6-0.6-1.1-1.3-1.1s-1.3,0.5-1.3,1.1C333.4,112.8,334,113.3,334.7,113.3z M334.7,120.3
							c0.7,0,1.3-0.5,1.3-1.1c0-0.6-0.6-1.1-1.3-1.1s-1.3,0.5-1.3,1.1C333.4,119.8,334,120.3,334.7,120.3z M334.7,127.3
							c0.7,0,1.3-0.5,1.3-1.1c0-0.6-0.6-1.1-1.3-1.1s-1.3,0.5-1.3,1.1C333.4,126.8,334,127.3,334.7,127.3z"/>
					</defs>
					<clipPath id="SVGID_74_">
						<use xlink:href="#SVGID_73_"  style="overflow:visible;"/>
					</clipPath>
					<g class="st36">
						<defs>
							<rect id="SVGID_75_" x="184" y="85" width="279" height="202"/>
						</defs>
						<clipPath id="SVGID_76_">
							<use xlink:href="#SVGID_75_"  style="overflow:visible;"/>
						</clipPath>
						<rect x="328" y="106" class="st37" width="13" height="40"/>
					</g>
				</g>
				<g class="st2">
					<defs>
						<path id="SVGID_77_" d="M253.4,107.4l-37.3-7c-7.8-4.5-12.7-5.4-17.8-6c-1.9-0.1-2.9,1.8-3.7,5.5s-1.2,5.3,1.1,7.6
							c1.8,1.8,6.9,4.3,20.6,3.2c16.4,5.3,27.9,7.7,34.5,6.9C252.1,116.1,252.9,112.7,253.4,107.4z M378.3,144.7l-10.1-3
							c5.2,45.5,8.1,69.6,8.7,72.3c1.4,6,0.8,14-2,18.4c5.8,1.5,8.4-12.9,9.1,0c0.1,4.9-1.5,12.3,2.6,12.2c2.1-0.2,4.3-5.6,3.6-15.5
							c-0.4-4.7-3-12.5-3.6-17.3c-1.2-9.4-3.3-21.3-3.6-35.1C382.6,163.8,381.1,153.2,378.3,144.7z"/>
					</defs>
					<clipPath id="SVGID_78_">
						<use xlink:href="#SVGID_77_"  style="overflow:visible;"/>
					</clipPath>
					<g class="st38">
						<defs>
							<rect id="SVGID_79_" x="184" y="85" width="279" height="202"/>
						</defs>
						<clipPath id="SVGID_80_">
							<use xlink:href="#SVGID_79_"  style="overflow:visible;"/>
						</clipPath>
						<rect x="189" y="89.4" class="st39" width="206.2" height="160"/>
					</g>
				</g>
				<g class="st2">
					<defs>
						<path id="SVGID_81_" d="M370.8,189.2c-1.2-12-3.1-30.4-3.6-41.3c-0.3-5.7-0.6-10.8-0.9-15.8l1.4,10L370.8,189.2z M373.8,212
							l16.4-1.9l-12.3-102.4c-1.3-6.9-3.9-11.8-7.9-14.5c-2.3-1-4.9-2-7.7-2.7c0,0-0.1-0.1-0.1-0.1c-1.4-1.3-3.2-2-5-2.6
							c-1-0.3-5.8-1.7-7.2-1.7c-0.9,1.6-1.8,3.1-2.7,4.4c-1.1,1.5-9.8,49.9-13.3,85.2c-2.5-36.2-11-66.5-9-84.4
							c-1.1-2-1.8-3.8-2.4-3.8c-1.9-0.3-5.3,1.5-7.1,2.1c-1.7,0.6-4.1,1.1-5.5,2.2c-0.8,0.6-1.5,1.5-2.2,2.4
							c-19.5,9.3-48.6,11.1-87.4,5.5c0,4.3,0,9.2,0,14.8c30.2,6.4,57.7,6.2,82.7-0.4c0.1,3.2,0.4,6.3,0.6,9.1
							c-0.1,6.4-0.1,11.3,0,14.7c-0.9,14.8-2.6,29.1-5.1,46.4c-4.4,30.3-9.1,43.9-7.5,58.3c14.3,6.6,22.5,5.8,33.9,4.3
							c5.1-3.2,7.4-2.4,8.7-21.4c1.4,12.8,4.3,18.8,9.2,20.3c10.1,3.3,28.3,1,32.1-3.2C377.3,237.9,375.5,223.7,373.8,212z"/>
					</defs>
					<clipPath id="SVGID_82_">
						<use xlink:href="#SVGID_81_"  style="overflow:visible;"/>
					</clipPath>
					<g class="st40">
						<defs>
							<rect id="SVGID_83_" x="184" y="85" width="279" height="202"/>
						</defs>
						<clipPath id="SVGID_84_">
							<use xlink:href="#SVGID_83_"  style="overflow:visible;"/>
						</clipPath>
						<rect x="215.3" y="81" class="st41" width="179.8" height="171.6"/>
					</g>
				</g>
				<g class="st2">
					<defs>
						<path id="SVGID_85_" d="M367.5,156.3c0.8,14.6,5.9,53.9,6.6,59.4c0,0,2.6,18.2,1.2,25.3c-5.8,4.8-9.9,4.6-17.1,4.6
							c1.7-24.4,0.3-99,7.9-112.3C366.3,136.2,367.5,146.5,367.5,156.3z"/>
					</defs>
					<clipPath id="SVGID_86_">
						<use xlink:href="#SVGID_85_"  style="overflow:visible;"/>
					</clipPath>
					<g class="st42">
						<defs>
							<rect id="SVGID_87_" x="184" y="85" width="279" height="202"/>
						</defs>
						<clipPath id="SVGID_88_">
							<use xlink:href="#SVGID_87_"  style="overflow:visible;"/>
						</clipPath>
						
							<rect x="350.2" y="128.5" transform="matrix(0.9986 -5.233717e-02 5.233717e-02 0.9986 -9.4136 19.3255)" class="st43" width="28.1" height="121.9"/>
					</g>
				</g>
				<g class="st2">
					<defs>
						<path id="SVGID_89_" d="M320.1,85.8l-5.3,4.3l5.8,3.8l-4.5,3.9l13.6,41.8l-3.3-34.3c-0.5-7.5-1-12.2-1.5-14.1
							c-0.5-1.9-1.6-3.7-3.2-5.3L320.1,85.8z M351.1,85.9h-1.6l-2.3,4.5c-1.8,6.3-3.1,12-4,17.1c-0.9,5.1-2.5,15.8-4.8,32.1
							l16.4-41.8l-4.6-3.9l6-3.5L351.1,85.9z"/>
					</defs>
					<clipPath id="SVGID_90_">
						<use xlink:href="#SVGID_89_"  style="overflow:visible;"/>
					</clipPath>
					<g class="st44">
						<defs>
							<rect id="SVGID_91_" x="184" y="85" width="279" height="202"/>
						</defs>
						<clipPath id="SVGID_92_">
							<use xlink:href="#SVGID_91_"  style="overflow:visible;"/>
						</clipPath>
						<rect x="309.7" y="80.8" class="st45" width="51.5" height="63.8"/>
					</g>
				</g>
				<g class="st2">
					<defs>
						<path id="SVGID_93_" d="M365.9,205.3c-6.4,1.4-12.5,1.8-18.3,1.4c-0.4,4.9-0.4,11.6,0,20.3c5.9,1.1,12.5,0.3,19.9-2.3
							C367.5,218.1,366.9,211.7,365.9,205.3z"/>
					</defs>
					<clipPath id="SVGID_94_">
						<use xlink:href="#SVGID_93_"  style="overflow:visible;"/>
					</clipPath>
					<g class="st46">
						<defs>
							<rect id="SVGID_95_" x="184" y="85" width="279" height="202"/>
						</defs>
						<clipPath id="SVGID_96_">
							<use xlink:href="#SVGID_95_"  style="overflow:visible;"/>
						</clipPath>
						<rect x="342.3" y="200.3" class="st47" width="30.2" height="32.1"/>
					</g>
				</g>
				<g class="st2">
					<defs>
						<path id="SVGID_97_" d="M365.9,205.3c-6.4,1.4-12.5,1.8-18.3,1.4c-0.2,2.3-0.3,4.9-0.3,8c6.2,1.1,15.2,0.2,19.6-1.7
							C366.7,211.2,366.4,208.7,365.9,205.3z"/>
					</defs>
					<clipPath id="SVGID_98_">
						<use xlink:href="#SVGID_97_"  style="overflow:visible;"/>
					</clipPath>
					<g class="st48">
						<defs>
							<rect id="SVGID_99_" x="184" y="85" width="279" height="202"/>
						</defs>
						<clipPath id="SVGID_100_">
							<use xlink:href="#SVGID_99_"  style="overflow:visible;"/>
						</clipPath>
						<rect x="342.3" y="200.3" class="st49" width="29.6" height="19.9"/>
					</g>
				</g>
				<g class="st2">
					<defs>
						<path id="SVGID_101_" d="M417.9,185.5l20.3-6.2c3.4,11.1-3,23.1-14.1,26.5c-7.2,2.2-15.1,0.4-20.7-4.8L417.9,185.5z"/>
					</defs>
					<clipPath id="SVGID_102_">
						<use xlink:href="#SVGID_101_"  style="overflow:visible;"/>
					</clipPath>
					<g class="st50">
						<defs>
							<rect id="SVGID_103_" x="393" y="162" width="48" height="45"/>
						</defs>
						<clipPath id="SVGID_104_">
							<use xlink:href="#SVGID_103_"  style="overflow:visible;"/>
						</clipPath>
						<rect x="398.4" y="174.3" class="st51" width="45.7" height="37.4"/>
					</g>
				</g>
				<g class="st2">
					<defs>
						<path id="SVGID_105_" d="M417.9,185.5L403.4,201c-2.7-2.5-4.7-5.8-5.8-9.3c-3.4-11.1,3-23.1,14.1-26.5c3.6-1.1,7.4-1.2,11-0.4
							L417.9,185.5z"/>
					</defs>
					<clipPath id="SVGID_106_">
						<use xlink:href="#SVGID_105_"  style="overflow:visible;"/>
					</clipPath>
					<g class="st52">
						<defs>
							<rect id="SVGID_107_" x="393" y="162" width="48" height="45"/>
						</defs>
						<clipPath id="SVGID_108_">
							<use xlink:href="#SVGID_107_"  style="overflow:visible;"/>
						</clipPath>
						<rect x="391.7" y="159.2" class="st53" width="36" height="46.7"/>
					</g>
				</g>
				<g class="st2">
					<defs>
						<path id="SVGID_109_" d="M417.9,185.5l4.8-20.7c3.6,0.8,7,2.6,9.7,5.2c2.7,2.5,4.7,5.8,5.8,9.3L417.9,185.5z"/>
					</defs>
					<clipPath id="SVGID_110_">
						<use xlink:href="#SVGID_109_"  style="overflow:visible;"/>
					</clipPath>
					<g class="st54">
						<defs>
							<rect id="SVGID_111_" x="393" y="162" width="48" height="45"/>
						</defs>
						<clipPath id="SVGID_112_">
							<use xlink:href="#SVGID_111_"  style="overflow:visible;"/>
						</clipPath>
						<rect x="412.9" y="159.8" class="st55" width="30.3" height="30.7"/>
					</g>
				</g>
			</g>
		</g>
	</g>
</g>
</svg>
