<?xml version="1.0" encoding="utf-8"?>
<!-- Generator: Adobe Illustrator 23.0.4, SVG Export Plug-In . SVG Version: 6.00 Build 0)  -->
<svg version="1.1" id="Layer_1" xmlns="http://www.w3.org/2000/svg" xmlns:xlink="http://www.w3.org/1999/xlink" x="0px" y="0px"
	 viewBox="0 0 570 309.7" style="enable-background:new 0 0 570 309.7;" xml:space="preserve">
<style type="text/css">
	.st0{clip-path:url(#SVGID_2_);}
	.st1{clip-path:url(#SVGID_4_);enable-background:new    ;}
	.st2{clip-path:url(#SVGID_6_);}
	.st3{clip-path:url(#SVGID_8_);}
	.st4{clip-path:url(#SVGID_10_);fill:#D0D0D0;}
	.st5{clip-path:url(#SVGID_12_);}
	.st6{clip-path:url(#SVGID_14_);fill:#00A9F4;}
	.st7{clip-path:url(#SVGID_16_);}
	.st8{clip-path:url(#SVGID_18_);fill:#1F40E6;}
	.st9{clip-path:url(#SVGID_20_);}
	.st10{clip-path:url(#SVGID_22_);fill:#1F40E6;}
	.st11{clip-path:url(#SVGID_24_);}
	.st12{clip-path:url(#SVGID_26_);fill:#00A9F4;}
	.st13{clip-path:url(#SVGID_28_);}
	.st14{clip-path:url(#SVGID_30_);fill:#D0D0D0;}
	.st15{clip-path:url(#SVGID_32_);}
	.st16{clip-path:url(#SVGID_34_);fill:#1F40E6;}
	.st17{clip-path:url(#SVGID_36_);}
	.st18{clip-path:url(#SVGID_38_);fill:#051C2C;}
	.st19{clip-path:url(#SVGID_40_);}
	.st20{clip-path:url(#SVGID_42_);fill:#00A9F4;}
	.st21{clip-path:url(#SVGID_44_);}
	.st22{clip-path:url(#SVGID_46_);fill:#00A9F4;}
	.st23{clip-path:url(#SVGID_48_);}
	.st24{clip-path:url(#SVGID_50_);fill:#1F40E6;}
	.st25{clip-path:url(#SVGID_52_);}
	.st26{clip-path:url(#SVGID_54_);fill:#00A9F4;}
	.st27{clip-path:url(#SVGID_56_);}
	.st28{opacity:0.2;clip-path:url(#SVGID_58_);}
	.st29{clip-path:url(#SVGID_60_);}
	.st30{clip-path:url(#SVGID_62_);fill:#D0D0D0;}
	.st31{clip-path:url(#SVGID_64_);}
	.st32{clip-path:url(#SVGID_66_);fill:#051C2C;}
</style>
<g>
	<defs>
		<path id="SVGID_1_" d="M98-79c0.3,157,0.3,243.2,0,258.5C96.6,264.5,134,295.3,165.5,297c53.7,3,72.7-22.8,98.4-24.1
			c23.4-1.2,45.3,9.9,66.5,19.9c24.6,11.6,45.8,17.2,72.8,13.6c59.7-7.9,67.2-47.9,66.1-74.6C469,226,469.6,122.3,471-79H98z"/>
	</defs>
	<clipPath id="SVGID_2_">
		<use xlink:href="#SVGID_1_"  style="overflow:visible;"/>
	</clipPath>
	<g class="st0">
		<defs>
			<rect id="SVGID_3_" x="23" y="-79" width="525" height="870"/>
		</defs>
		<clipPath id="SVGID_4_">
			<use xlink:href="#SVGID_3_"  style="overflow:visible;"/>
		</clipPath>
		<g class="st1">
			<g>
				<defs>
					<rect id="SVGID_5_" x="93" y="-3" width="382" height="388"/>
				</defs>
				<clipPath id="SVGID_6_">
					<use xlink:href="#SVGID_5_"  style="overflow:visible;"/>
				</clipPath>
				<g class="st2">
					<defs>
						<path id="SVGID_7_" d="M108.6,98.4C76,245.9,125.5,294.8,165.5,297c53.7,3,72.7-22.8,98.4-24.1c23.4-1.2,45.3,9.9,66.5,19.9
							c24.6,11.6,45.8,17.2,72.8,13.6c79.6-10.5,66.4-78.2,63.7-95.1c-3.3-20.7-18.6-44.3-36.1-52.1c-48.8-21.7-85.8,11.3-107.9,7.9
							c-26.8-4.2-54.1-15.8-68.4-39.6C238.5,101.2,234,48.7,206,35C149,7,118.1,55.2,108.6,98.4"/>
					</defs>
					<clipPath id="SVGID_8_">
						<use xlink:href="#SVGID_7_"  style="overflow:visible;"/>
					</clipPath>
					<g class="st3">
						<defs>
							<rect id="SVGID_9_" x="98" y="1" width="372" height="307"/>
						</defs>
						<clipPath id="SVGID_10_">
							<use xlink:href="#SVGID_9_"  style="overflow:visible;"/>
						</clipPath>
						<rect x="93" y="21.7" class="st4" width="381.3" height="290.9"/>
					</g>
				</g>
				<g class="st2">
					<defs>
						<path id="SVGID_11_" d="M350.4,184.7l-25.2,104.1c-0.8,3.5,1.8,6.8,5.4,6.8h25.2H381c3.6,0,6.2-3.4,5.4-6.8l-25.2-104.1
							C359.8,179.1,351.8,179.1,350.4,184.7"/>
					</defs>
					<clipPath id="SVGID_12_">
						<use xlink:href="#SVGID_11_"  style="overflow:visible;"/>
					</clipPath>
					<g class="st5">
						<defs>
							<rect id="SVGID_13_" x="325" y="180" width="62" height="128"/>
						</defs>
						<clipPath id="SVGID_14_">
							<use xlink:href="#SVGID_13_"  style="overflow:visible;"/>
						</clipPath>
						<rect x="320" y="175.5" class="st6" width="71.5" height="125.2"/>
					</g>
				</g>
				<g class="st2">
					<defs>
						<polygon id="SVGID_15_" points="354.6,283.2 354.8,270 338.8,263.7 354.8,268.1 355,258.1 338.8,252 355,256.6 355.2,244.9 
							345.4,241.1 355.3,243.8 355.8,216 356.3,243.8 366.2,241.1 356.3,244.9 356.5,256.6 372.7,252 356.5,258.1 356.7,268.1 
							372.7,263.7 356.8,270 357,283.2 377.6,277.5 357,285.5 357.5,311.6 354,311.6 354.5,285.5 333.9,277.5 						"/>
					</defs>
					<clipPath id="SVGID_16_">
						<use xlink:href="#SVGID_15_"  style="overflow:visible;"/>
					</clipPath>
					<g class="st7">
						<defs>
							<rect id="SVGID_17_" x="325" y="180" width="62" height="128"/>
						</defs>
						<clipPath id="SVGID_18_">
							<use xlink:href="#SVGID_17_"  style="overflow:visible;"/>
						</clipPath>
						<rect x="328.9" y="211" class="st8" width="53.7" height="105.6"/>
					</g>
				</g>
				<g class="st2">
					<defs>
						<path id="SVGID_19_" d="M458.9,246.2c0,31.1-19,56.2-42.4,56.2c-23.4,0-42.4-25.2-42.4-56.2s19-56.2,42.4-56.2
							C439.9,190,458.9,215.2,458.9,246.2"/>
					</defs>
					<clipPath id="SVGID_20_">
						<use xlink:href="#SVGID_19_"  style="overflow:visible;"/>
					</clipPath>
					<g class="st9">
						<defs>
							<rect id="SVGID_21_" x="374" y="189" width="85" height="119"/>
						</defs>
						<clipPath id="SVGID_22_">
							<use xlink:href="#SVGID_21_"  style="overflow:visible;"/>
						</clipPath>
						<rect x="369" y="185" class="st10" width="94.9" height="122.4"/>
					</g>
				</g>
				<g class="st2">
					<defs>
						<polygon id="SVGID_23_" points="414.4,285.1 414.7,272.1 393.9,264.2 414.7,270.1 415.1,255 402.4,250.1 415.1,253.5 
							415.9,217.6 416.7,253.5 429.4,250.1 416.7,255 417,270.1 437.9,264.2 417.1,272.1 417.4,285.1 437.9,279.5 417.4,287.5 
							418.1,320.9 413.6,320.9 414.4,287.5 393.9,279.5 						"/>
					</defs>
					<clipPath id="SVGID_24_">
						<use xlink:href="#SVGID_23_"  style="overflow:visible;"/>
					</clipPath>
					<g class="st11">
						<defs>
							<rect id="SVGID_25_" x="374" y="189" width="85" height="119"/>
						</defs>
						<clipPath id="SVGID_26_">
							<use xlink:href="#SVGID_25_"  style="overflow:visible;"/>
						</clipPath>
						<rect x="388.9" y="212.6" class="st12" width="54" height="113.4"/>
					</g>
				</g>
				<g class="st2">
					<defs>
						<path id="SVGID_27_" d="M224,35.7c-2.1-6.8-4.3-21.8,15.9-26.2c18.5-4,22.6,16.5,22.6,16.5c0.2,0.9,0.5,1.8,0.6,2.7
							c0.1,1,0.1,1.9,0.2,2.9c0.2,1.9,0.5,3.8,1.1,5.6c0.6,1.7,1.4,3.3,2.4,4.7c0.8,1.1,2.5,2.8,2.1,4.3c-0.3,0.9-1.4,1.1-2.3,1
							c-2-0.2-3-0.1-3.5,2c-0.4,1.5-0.2,3.1-0.7,4.5c-0.6,1.8-1.5,3.5-2.8,4.9c-2.7,3-6.6,4-10.5,3.5c-1.5-0.2-3-0.4-4.3-0.8
							c-4.4,15.8,8.2,11.4,11.9,16c0.4,3.8,1,10.6-2,14c-3.1,3.4-8.2,4.1-17,3.5c-8.7-0.6-9.7-3-12.3-6.9c-1.7-2.6-1.8-7.2-0.1-13.7
							c11.3,0,9.4-12.6,7.7-19.3c-3.9-3.7-5.7-7.8-6.6-10.1c-1.9,1.8-5.8-0.6-7.2-2.4c-0.9-1.2-1.4-2.8-1.2-4.3c0.1-1,0.6-2,1.4-2.6
							c0.8-0.6,1.8-0.7,2.7-0.5C222.8,35.2,223.4,35.4,224,35.7z"/>
					</defs>
					<clipPath id="SVGID_28_">
						<use xlink:href="#SVGID_27_"  style="overflow:visible;"/>
					</clipPath>
					<g class="st13">
						<defs>
							<rect id="SVGID_29_" x="163" y="1" width="125" height="171"/>
						</defs>
						<clipPath id="SVGID_30_">
							<use xlink:href="#SVGID_29_"  style="overflow:visible;"/>
						</clipPath>
						<rect x="213" y="4" class="st14" width="61" height="96.2"/>
					</g>
				</g>
				<g class="st2">
					<defs>
						<path id="SVGID_31_" d="M247.8,101c1.1,2.7,3.1,4.9,5.4,6.7c2.5,2,5.7,3.9,6.1,7.1c0.4,3.1-2,5.8-4.6,7.4
							c-4.7,2.9-10.8,4.1-13.8,8.7c-2.2,3.4-1.9,8.1,0.2,11.6c1.9,3,5.2,5.4,5.8,8.9c0.8,4.9-4,8.8-8.6,10.6
							c-4.7,1.9-9.8,2.9-14.9,2.9c-3.3,0-6.7-0.4-9.8,0.6c-3.4,1.1-6,3.8-9.1,5.6c-7.8,4.4-28.7-6.4-26.2-16.9c0.7-3,1.9-6.5,0-8.9
							c-2.5-3.2-8.2-1.7-10.8-4.9c-2.2-2.7,0.2-5,0.5-7.8c0.3-2.8-0.7-5.7-2.7-7.6c-0.7-0.7-1.5-1.2-1.9-2.1
							c-0.8-1.5-0.4-3.4,0.4-4.9c1.6-3.1,5.1-4.4,6.2-7.8c0.8-2.4,0.3-5.3-1.7-6.9c-1-0.9-2.4-1.3-3.2-2.4c-1.3-1.8-0.3-4.4,1.2-5.9
							c1.6-1.5,3.7-2.4,5.4-3.8c0.5-0.4,1-1,1.1-1.6c0-0.8-0.6-1.5-1.3-2c-5.2-4.4-8.9-8.3-5.3-15.5c1.6-3.2,4.3-5.6,7.2-7.6
							c5-3.5,11.7-4.3,15.5-9.5c2.3-3.1,2.8-7.7,0.6-10.8c-1.4-2-4-3.6-3.7-6.1c0.2-1.8,1.9-3,3.4-4c3.3-2.1,6.6-4.1,9.8-6.2
							c2-1.2,4.1-2.8,4.3-5.1c0.2-2.6-2.1-4.9-1.9-7.5c0.2-2.3,2.3-3.9,4.3-5.1c14.8-8.8,33.5-12.2,49.8-6c5.2,2,10.2,5,13.3,9.6
							c2.2,3.4,2.6,7,3.8,10.7c1.1,3.5,3.3,6.4,5.3,9.4c2.7,4,5.1,8.9,3.9,13.6c-0.8,3.1,0.7,1.4-5,7.9c-5.8,6.4-17.3,4.3-17.3,20.8
							c0,3.9-0.8,7.2-2.5,9.8c0.4-3,0.1-6.2-0.2-8.4c-3.6-4.7-16.3-0.2-11.9-16c1.3,0.3,2.8,0.6,4.3,0.8c3.9,0.4,7.8-0.5,10.5-3.5
							c1.2-1.4,2.1-3.1,2.8-4.9c0.5-1.4,0.4-3,0.7-4.5c0.5-2.1,1.5-2.2,3.5-2c0.9,0.1,2.1-0.2,2.3-1c0.4-1.5-1.3-3.2-2.1-4.3
							c-1-1.4-1.8-3-2.4-4.7c-0.6-1.8-0.9-3.7-1.1-5.6c-0.1-1-0.1-1.9-0.2-2.9c-0.1-0.9-0.4-1.8-0.6-2.7c0,0-4.6-9.9-16.7-7.3
							c-5.3,1.1-4.1,8.9-6.3,13c-2.2,4.1-7.3,7.4-10.7,8.5c-2.4,0.8-2.6-0.6-3.4-1.7c-1.2-1.6-1.7-3.5-1.4-2.8
							c-0.6-0.3-1.2-0.5-1.8-0.5c-0.9-0.1-2,0-2.7,0.5c-0.8,0.6-1.2,1.6-1.4,2.6c-0.2,1.5,0.2,3.1,1.2,4.3c1.4,1.8,5.2,4.2,7.2,2.4
							c0.8,2.3,2.7,6.4,6.6,10.1c1.7,6.6,3.6,19.3-7.7,19.3c-1.6,6.6-1.6,11.1,0.1,13.7c2.6,3.9,3.5,6.3,12.3,6.9
							c3.9,0.3,7,0.3,9.6-0.1C246.8,96.9,247.1,99.1,247.8,101z"/>
					</defs>
					<clipPath id="SVGID_32_">
						<use xlink:href="#SVGID_31_"  style="overflow:visible;"/>
					</clipPath>
					<g class="st15">
						<defs>
							<rect id="SVGID_33_" x="163" y="1" width="125" height="171"/>
						</defs>
						<clipPath id="SVGID_34_">
							<use xlink:href="#SVGID_33_"  style="overflow:visible;"/>
						</clipPath>
						<rect x="158" y="-4" class="st16" width="129" height="181"/>
					</g>
				</g>
				<g class="st2">
					<defs>
						<path id="SVGID_35_" d="M243.2,241.6c-3,14-5.7,27-6.9,35.4c-3.3,22.3-15.4,79.6-19,107c-4.3,0.1-11.1-0.1-15.5,0
							c0.1-1.1,0-1.7,0-2.4c-2.3-32.5,0.6-93.2,3.5-129.5c1.1-13.9,3.3-56.1,6.2-72.1h12.1h46.2l10.4,77.3l9.8,125.7
							c0,0-7.3-0.1-14.7,0c-7.4-40.5-15.5-77.9-24.3-112.3C248.2,260.3,245.7,250.5,243.2,241.6z"/>
					</defs>
					<clipPath id="SVGID_36_">
						<use xlink:href="#SVGID_35_"  style="overflow:visible;"/>
					</clipPath>
					<g class="st17">
						<defs>
							<rect id="SVGID_37_" x="98" y="180" width="293" height="128"/>
						</defs>
						<clipPath id="SVGID_38_">
							<use xlink:href="#SVGID_37_"  style="overflow:visible;"/>
						</clipPath>
						<rect x="196" y="175" class="st18" width="99" height="214"/>
					</g>
				</g>
				<g class="st2">
					<defs>
						<path id="SVGID_39_" d="M209.1,192c10.6,1.8,21.2,2.7,31.8,2.7c10.7,0,21.3-0.9,32-2.7l1.1,14c-11.2,1.8-22.3,2.7-33.5,2.7
							s-22.3-0.9-33.5-2.7L209.1,192z"/>
					</defs>
					<clipPath id="SVGID_40_">
						<use xlink:href="#SVGID_39_"  style="overflow:visible;"/>
					</clipPath>
					<g class="st19">
						<defs>
							<rect id="SVGID_41_" x="98" y="180" width="293" height="128"/>
						</defs>
						<clipPath id="SVGID_42_">
							<use xlink:href="#SVGID_41_"  style="overflow:visible;"/>
						</clipPath>
						<rect x="202" y="187" class="st20" width="77" height="26.7"/>
					</g>
				</g>
				<g class="st2">
					<defs>
						<path id="SVGID_43_" d="M271.4,110c0.4-6.8,1.6-16.1-1-22.1c-1.3-3-2.7-6.2-5.4-8.2c-1.5-1.1-4.1-2.2-5.8-2.8
							c-1.2-0.4-4-1.2-8.3-2.4c0,1.6-0.2,3.1-0.5,4.6c-0.5,2.2-1.2,10.3-10.1,10.3s-12.3-8.1-15.3-15.4c-1.5,0.1-2.9,0.5-4.4,0.9
							c-1,0.3-1.9,0.5-2.9,0.8c-1.8,0.6-3.6,1.3-5,2.6c-1.1,0.9-1.9,2.1-2.4,3.4c-1.7,4.1-1.3,8.9-1.2,13.2
							c0.5,14.4-0.6,25.3-1.4,39.9c-0.8,14.6-2.9,45.4-3.7,50.9c0,0,36.8,10.9,70.9,0c0.5-9-1.1-17.5-3.7-61.1
							c0.1-2.4,0.1-5.5,0.1-9.3C271.5,114.3,271.5,112.5,271.4,110z"/>
					</defs>
					<clipPath id="SVGID_44_">
						<use xlink:href="#SVGID_43_"  style="overflow:visible;"/>
					</clipPath>
					<g class="st21">
						<defs>
							<rect id="SVGID_45_" x="98" y="64" width="293" height="210"/>
						</defs>
						<clipPath id="SVGID_46_">
							<use xlink:href="#SVGID_45_"  style="overflow:visible;"/>
						</clipPath>
						
							<rect x="179" y="92" transform="matrix(5.233540e-02 -0.9986 0.9986 5.233540e-02 97.392 367.6136)" class="st22" width="126.7" height="80.9"/>
					</g>
				</g>
				<g class="st2">
					<defs>
						<path id="SVGID_47_" d="M251,75.4c0-0.3,0-0.6,0-0.9c1,0.3,2,0.5,2.9,0.8C252.9,75.3,251.9,75.3,251,75.4z M220.2,75.1
							c0.2-0.1,0.4-0.1,0.6-0.2c1.4-0.4,2.9-0.8,4.4-0.9c0.2,0.4,0.3,0.8,0.5,1.3C223.8,75.2,222,75.2,220.2,75.1z M260.9,77.5
							c-3.4,0.2-6.8,0.3-10.2,0.4c0.1-0.4,0.1-0.8,0.1-1.2c2.4-0.1,4.7-0.1,7.1-0.2c0.6,0.2,1,0.3,1.3,0.4
							C259.7,77,260.3,77.3,260.9,77.5z M214.3,77.3c0.7-0.4,1.5-0.8,2.2-1.1c3.2,0.2,6.4,0.3,9.6,0.4c0.2,0.4,0.3,0.8,0.5,1.2
							C222.6,77.7,218.4,77.5,214.3,77.3z M265.8,80.3c-5.2,0.3-10.4,0.5-15.6,0.6c0.1-0.7,0.2-1.3,0.3-1.7c4.3-0.1,8.7-0.3,13-0.5
							c0.6,0.3,1.1,0.6,1.6,1C265.3,79.9,265.5,80.1,265.8,80.3z M211.3,80.1c0.4-0.6,0.8-1.1,1.4-1.6c4.9,0.3,9.8,0.5,14.7,0.6
							c0.3,0.6,0.6,1.2,0.9,1.7C222.6,80.7,216.9,80.5,211.3,80.1z M268.1,83.1c-6.3,0.4-12.6,0.7-18.9,0.8c0.3-0.6,0.5-1.2,0.6-1.7
							c5.7-0.1,11.4-0.4,17.1-0.7C267.4,82,267.7,82.6,268.1,83.1z M210,83c0.1-0.4,0.3-0.9,0.5-1.3c0-0.1,0.1-0.2,0.1-0.3
							c6.1,0.4,12.2,0.7,18.3,0.8c0.4,0.6,0.7,1.2,1.1,1.7C223.4,83.8,216.7,83.5,210,83z M269.6,86c-7.5,0.5-15,0.8-22.5,0.9
							c0.5-0.5,1-1.1,1.4-1.7c6.8-0.1,13.5-0.4,20.3-0.8C269.1,84.9,269.4,85.5,269.6,86z M209.4,86c0.1-0.6,0.2-1.1,0.3-1.7
							c7.2,0.5,14.3,0.8,21.5,0.9c0.6,0.6,1.2,1.2,1.8,1.7C225.1,86.8,217.3,86.5,209.4,86z M209.2,89c0-0.6,0-1.1,0.1-1.7
							c8.6,0.6,17.3,0.9,25.9,1c1.5,0.7,3.2,1.1,5.2,1.1c2.1,0,3.7-0.4,5-1.1c8.3-0.1,16.6-0.4,24.9-1c0.1,0.2,0.2,0.4,0.2,0.5
							c0.2,0.4,0.3,0.7,0.4,1.1C250.3,90.4,229.7,90.4,209.2,89z M209.2,92c0-0.6,0-1.1,0-1.7c20.7,1.4,41.4,1.4,62.1-0.1
							c0.1,0.5,0.3,1.1,0.4,1.7C250.8,93.4,230,93.4,209.2,92z M209.3,95C209.3,95,209.3,95,209.3,95c0-0.6,0-1.1-0.1-1.7
							c20.8,1.4,41.7,1.4,62.6-0.1c0.1,0.5,0.1,1.1,0.2,1.7C251.1,96.3,230.1,96.4,209.3,95z M209.3,98c0-0.6,0-1.1,0-1.7
							c20.9,1.4,41.8,1.4,62.7-0.1c0,0.6,0,1.1,0,1.7C251.2,99.3,230.2,99.4,209.3,98z M209.4,101c0-0.6,0-1.1,0-1.7
							c20.9,1.4,41.8,1.4,62.7-0.1c0,0.6,0,1.1,0,1.7C251.1,102.3,230.2,102.4,209.4,101z M209.4,104c0-0.6,0-1.1,0-1.7
							c20.8,1.4,41.7,1.4,62.6-0.1c0,0.6-0.1,1.1-0.1,1.7C251,105.3,230.2,105.4,209.4,104z M209.3,107c0-0.6,0-1.1,0-1.7
							c20.8,1.4,41.6,1.4,62.4-0.1c0,0.6-0.1,1.1-0.1,1.7C250.9,108.3,230.1,108.4,209.3,107z M209.2,110c0-0.6,0-1.1,0.1-1.7
							c20.7,1.4,41.5,1.4,62.3-0.1c0,0.6-0.1,1.1-0.1,1.7C250.7,111.3,229.9,111.4,209.2,110z M209.1,113c0-0.6,0-1.1,0.1-1.7
							c20.7,1.4,41.5,1.4,62.3-0.1c0,0.6,0,1.2,0,1.7C250.7,114.4,229.9,114.4,209.1,113z M209,116c0-0.6,0.1-1.1,0.1-1.7
							c20.8,1.4,41.6,1.4,62.4-0.1c0,0.5,0,0.9,0,1.2c0,0.2,0,0.3,0,0.5C250.7,117.4,229.8,117.4,209,116z M208.8,119
							c0-0.6,0.1-1.1,0.1-1.7c20.8,1.4,41.8,1.4,62.6-0.1c0,0.6,0,1.1,0,1.7C250.6,120.4,229.7,120.4,208.8,119z M208.6,121.9
							c0-0.6,0.1-1.1,0.1-1.7c20.9,1.4,41.9,1.4,62.8-0.1c0,0.6,0,1.1,0,1.7C250.6,123.4,229.6,123.4,208.6,121.9z M208.4,124.9
							c0-0.6,0.1-1.1,0.1-1.7c20.9,1.4,42,1.4,62.9,0c0,0.5,0,1,0,1.5c0,0.1,0,0.1,0,0.2C250.5,126.4,229.4,126.4,208.4,124.9z
							 M208.3,127.9c0-0.6,0.1-1.1,0.1-1.7c21,1.5,42.1,1.4,63.2,0c0,0.6,0.1,1.1,0.1,1.7C250.5,129.4,229.4,129.4,208.3,127.9z
							 M208.1,130.9c0-0.6,0.1-1.1,0.1-1.7c21.1,1.5,42.4,1.5,63.5,0c0,0.6,0.1,1.1,0.1,1.7C250.6,132.4,229.3,132.4,208.1,130.9z
							 M207.9,133.9c0-0.6,0.1-1.1,0.1-1.7c21.3,1.5,42.6,1.5,63.9,0c0,0.6,0.1,1.1,0.1,1.7C250.6,135.4,229.2,135.4,207.9,133.9z
							 M207.8,136.9c0-0.6,0.1-1.1,0.1-1.7c21.4,1.5,42.8,1.5,64.2,0c0,0.6,0.1,1.1,0.1,1.7C250.7,138.4,229.2,138.4,207.8,136.9z
							 M207.6,139.9c0-0.6,0.1-1.1,0.1-1.7c21.5,1.5,43.1,1.5,64.6,0c0,0.6,0.1,1.1,0.1,1.7C250.8,141.4,229.1,141.4,207.6,139.9z
							 M207.4,142.9c0-0.6,0.1-1.1,0.1-1.7c21.6,1.5,43.3,1.5,64.9,0c0,0.6,0.1,1.1,0.1,1.7C250.9,144.4,229.1,144.4,207.4,142.9z
							 M207.2,145.8c0-0.6,0.1-1.1,0.1-1.7c21.7,1.6,43.6,1.5,65.3,0c0,0.6,0.1,1.1,0.1,1.7C250.9,147.4,229,147.4,207.2,145.8z
							 M207,148.8c0-0.6,0.1-1.1,0.1-1.7c21.9,1.6,43.8,1.6,65.7,0c0,0.6,0.1,1.1,0.1,1.7C251,150.4,229,150.4,207,148.8z
							 M206.8,151.8c0-0.6,0.1-1.1,0.1-1.7c22,1.6,44.1,1.6,66.1,0c0,0.6,0.1,1.1,0.1,1.7C251.1,153.4,228.9,153.4,206.8,151.8z
							 M206.6,154.8c0-0.6,0.1-1.1,0.1-1.7c22.1,1.6,44.4,1.6,66.5,0c0,0.6,0.1,1.1,0.1,1.7C251.2,156.4,228.9,156.4,206.6,154.8z
							 M206.4,157.8c0-0.6,0.1-1.1,0.1-1.7c22.3,1.6,44.6,1.6,66.9,0c0,0.6,0.1,1.1,0.1,1.7C251.2,159.4,228.8,159.4,206.4,157.8z
							 M206.2,160.8c0-0.6,0.1-1.1,0.1-1.7c22.4,1.7,44.9,1.6,67.3,0c0,0.6,0.1,1.1,0.1,1.7C251.3,162.4,228.7,162.4,206.2,160.8z
							 M206,163.8c0-0.6,0.1-1.1,0.1-1.7c22.6,1.7,45.2,1.7,67.8,0c0,0.6,0.1,1.1,0.1,1.7C251.4,165.4,228.7,165.4,206,163.8z
							 M205.8,166.7c0-0.6,0.1-1.1,0.1-1.7c22.7,1.7,45.5,1.7,68.2-0.1c0,0.6,0.1,1.1,0.1,1.7C251.5,168.4,228.6,168.4,205.8,166.7z
							 M205.6,169.7c0-0.6,0.1-1.1,0.1-1.7c22.9,1.7,45.8,1.7,68.7-0.1c0,0.6,0.1,1.1,0.1,1.7C251.6,171.4,228.5,171.5,205.6,169.7z
							 M205.4,172.7c0-0.5,0.1-1.1,0.1-1.7c23,1.7,46.1,1.7,69.1-0.1c0,0.6,0.1,1.1,0.1,1.7C251.6,174.4,228.4,174.5,205.4,172.7z
							 M205.1,175.7c0-0.5,0.1-1.1,0.1-1.7c23.2,1.8,46.4,1.7,69.6-0.1c0,0.6,0.1,1.1,0.1,1.7C251.7,177.4,228.4,177.5,205.1,175.7z
							 M204.9,178.7c0-0.5,0.1-1.1,0.1-1.7c23.3,1.8,46.7,1.8,70,0c0,0.6,0.1,1.1,0.1,1.7C251.7,180.5,228.2,180.5,204.9,178.7z
							 M204.6,181.6c0-0.5,0.1-1.1,0.1-1.7c23.4,1.8,46.9,1.8,70.4,0c0,0.6,0,1.1,0,1.7C251.7,183.5,228.1,183.5,204.6,181.6z
							 M204.3,184.6c0.1-0.5,0.1-1,0.2-1.7c23.5,1.8,47.2,1.8,70.7,0c0,0.6,0,1.1,0,1.7C251.6,186.5,227.9,186.5,204.3,184.6z
							 M230,190.2c8,0.2,16,0.1,24-0.1C245.4,190.9,237.2,190.8,230,190.2z M215.5,188.4c-5.8-1-9.7-2.1-10.9-2.4
							c23.3,1.8,46.8,1.8,70.1,0c-2.9,0.9-5.8,1.7-8.7,2.3C249.2,189.2,232.4,189.3,215.5,188.4z"/>
					</defs>
					<clipPath id="SVGID_48_">
						<use xlink:href="#SVGID_47_"  style="overflow:visible;"/>
					</clipPath>
					<g class="st23">
						<defs>
							<rect id="SVGID_49_" x="98" y="64" width="293" height="210"/>
						</defs>
						<clipPath id="SVGID_50_">
							<use xlink:href="#SVGID_49_"  style="overflow:visible;"/>
						</clipPath>
						<rect x="199.3" y="69" class="st24" width="80.8" height="126.7"/>
					</g>
				</g>
				<g class="st2">
					<defs>
						<path id="SVGID_51_" d="M215,77l-1.7,20.3l-1.4,21.5h51.7v15.1c-30.3,4-52.5,6.4-66.7,7.4c-1.1-0.6-2.2-2.2-3.3-4.8l5.2-41.4
							c0.8-6.6,4.9-12.4,10.9-15.4L215,77z M261.1,77.7c21.9,0,58.4,5,100.8-8.7l1.9,14.2c-22.3,8-53.1,16.2-92.4,24.5
							c-1.9-6-3.1-11-3.6-15C267,86.7,265,79.8,261.1,77.7z"/>
					</defs>
					<clipPath id="SVGID_52_">
						<use xlink:href="#SVGID_51_"  style="overflow:visible;"/>
					</clipPath>
					<g class="st25">
						<defs>
							<rect id="SVGID_53_" x="98" y="64" width="293" height="210"/>
						</defs>
						<clipPath id="SVGID_54_">
							<use xlink:href="#SVGID_53_"  style="overflow:visible;"/>
						</clipPath>
						<rect x="188.6" y="64" class="st26" width="180.2" height="82.2"/>
					</g>
				</g>
				<g class="st2">
					<defs>
						<path id="SVGID_55_" d="M213.5,99.2c1.7,5.7,3.3,11.9,3.5,19.5h-5l1.1-19.5H213.5z M262.6,134c0.5,1.1,0.9,2.5,1,4
							c-10.1,1.8-56.7,6.4-56.7,6.4c0.2-1.8,0.4-3.1,0.5-4.2C221.1,139.1,239.5,137,262.6,134z"/>
					</defs>
					<clipPath id="SVGID_56_">
						<use xlink:href="#SVGID_55_"  style="overflow:visible;"/>
					</clipPath>
					<g class="st27">
						<defs>
							<rect id="SVGID_57_" x="98" y="64" width="293" height="210"/>
						</defs>
						<clipPath id="SVGID_58_">
							<use xlink:href="#SVGID_57_"  style="overflow:visible;"/>
						</clipPath>
						<rect x="202" y="94.2" class="st28" width="66.7" height="55.2"/>
					</g>
				</g>
				<g class="st2">
					<defs>
						<path id="SVGID_59_" d="M263.6,129.1c0-3.8,0-5.9,0.1-8.6c1.5,0,3.7,0,6.7,0c8.4-2.4,16.1-5.8,16.2-4.1c0.2,2.6-4.9,3.4-5,5.4
							c0.1,3.6,6,3.2,10.5,5.1c4.4,1.8,2.2,3.1,0.7,3.5c-6.1-0.7-12.8-1.5-20.4-2.1C268.5,128.7,265.6,129,263.6,129.1z M362.5,73
							c7.1-2.9,13.5-5.9,19.1-8.4c1.6-0.1,4,0.4,0.4,3.6c-3.6,3.1-9.4,4.6-8.4,8.1c0.7,1.8,5.8,1.1,6.5,3.6c0.4,1.7-7.7,0.7-16.5,1
							L362.5,73z"/>
					</defs>
					<clipPath id="SVGID_60_">
						<use xlink:href="#SVGID_59_"  style="overflow:visible;"/>
					</clipPath>
					<g class="st29">
						<defs>
							<rect id="SVGID_61_" x="98" y="64" width="293" height="210"/>
						</defs>
						<clipPath id="SVGID_62_">
							<use xlink:href="#SVGID_61_"  style="overflow:visible;"/>
						</clipPath>
						<rect x="258.6" y="59.6" class="st30" width="130.2" height="75.8"/>
					</g>
				</g>
			</g>
		</g>
	</g>
</g>
<g>
	<defs>
		<path id="SVGID_63_" d="M333.8,140.8h-30.4c-2.4,0-4.4-2-4.4-4.4v-13.1c0-2.4,2-4.4,4.4-4.4h30.4V88.2c0-2.4,2-4.4,4.4-4.4h13
			c2.4,0,4.4,2,4.4,4.4v30.7H386c2.4,0,4.4,2,4.4,4.4v13.1c0,2.4-2,4.4-4.4,4.4h-30.4v30.7c0,2.4-2,4.4-4.4,4.4h-13
			c-2.4,0-4.4-2-4.4-4.4V140.8z"/>
	</defs>
	<clipPath id="SVGID_64_">
		<use xlink:href="#SVGID_63_"  style="overflow:visible;"/>
	</clipPath>
	<g class="st31">
		<defs>
			<rect id="SVGID_65_" x="299" y="83" width="92" height="93"/>
		</defs>
		<clipPath id="SVGID_66_">
			<use xlink:href="#SVGID_65_"  style="overflow:visible;"/>
		</clipPath>
		<rect x="294" y="78.8" class="st32" width="101.4" height="102.2"/>
	</g>
</g>
</svg>
