<?xml version="1.0" encoding="utf-8"?>
<!-- Generator: Adobe Illustrator 24.0.1, SVG Export Plug-In . SVG Version: 6.00 Build 0)  -->
<svg version="1.1" id="Layer_1" xmlns="http://www.w3.org/2000/svg" xmlns:xlink="http://www.w3.org/1999/xlink" x="0px" y="0px"
	 viewBox="0 0 425 330.3" style="enable-background:new 0 0 425 330.3;" xml:space="preserve">
<style type="text/css">
	.st0{clip-path:url(#SVGID_2_);}
	.st1{clip-path:url(#SVGID_4_);fill:#1F40E6;}
	.st2{clip-path:url(#SVGID_6_);}
	.st3{clip-path:url(#SVGID_8_);enable-background:new    ;}
	.st4{clip-path:url(#SVGID_10_);}
	.st5{clip-path:url(#SVGID_12_);fill:#E6E6E6;}
	.st6{clip-path:url(#SVGID_14_);}
	.st7{clip-path:url(#SVGID_16_);fill:#00A9F4;}
	.st8{clip-path:url(#SVGID_18_);}
	.st9{clip-path:url(#SVGID_20_);fill:#051C2C;}
	.st10{clip-path:url(#SVGID_22_);}
	.st11{clip-path:url(#SVGID_24_);fill:#1F40E6;}
	.st12{clip-path:url(#SVGID_26_);}
	.st13{clip-path:url(#SVGID_28_);fill:#00A9F4;}
	.st14{clip-path:url(#SVGID_30_);}
	.st15{clip-path:url(#SVGID_32_);fill:#F0F0F0;}
	.st16{clip-path:url(#SVGID_34_);}
	.st17{clip-path:url(#SVGID_36_);fill:#D8D8D8;}
	.st18{clip-path:url(#SVGID_38_);}
	.st19{clip-path:url(#SVGID_40_);fill:#B3B3B3;}
	.st20{opacity:0.2;clip-path:url(#SVGID_42_);}
	.st21{clip-path:url(#SVGID_44_);}
	.st22{clip-path:url(#SVGID_46_);fill:#1F40E6;}
	.st23{clip-path:url(#SVGID_48_);}
	.st24{clip-path:url(#SVGID_50_);fill:#F0F0F0;}
	.st25{clip-path:url(#SVGID_52_);}
	.st26{clip-path:url(#SVGID_54_);fill:#D0D0D0;}
	.st27{clip-path:url(#SVGID_56_);}
	.st28{clip-path:url(#SVGID_58_);fill:#00A9F4;}
	.st29{clip-path:url(#SVGID_60_);}
	.st30{clip-path:url(#SVGID_62_);fill:#F0F0F0;}
	.st31{clip-path:url(#SVGID_64_);}
	.st32{clip-path:url(#SVGID_66_);fill:#00A9F4;}
	.st33{clip-path:url(#SVGID_68_);}
	.st34{clip-path:url(#SVGID_70_);fill:#00A9F4;}
	.st35{clip-path:url(#SVGID_72_);}
	.st36{clip-path:url(#SVGID_74_);fill:#D0D0D0;}
	.st37{clip-path:url(#SVGID_76_);}
	.st38{clip-path:url(#SVGID_78_);fill:#051C2C;}
	.st39{clip-path:url(#SVGID_80_);}
	.st40{opacity:0.2;clip-path:url(#SVGID_82_);}
	.st41{clip-path:url(#SVGID_84_);}
	.st42{clip-path:url(#SVGID_86_);fill:#1F40E6;}
	.st43{clip-path:url(#SVGID_88_);}
	.st44{clip-path:url(#SVGID_90_);fill:#D0D0D0;}
	.st45{clip-path:url(#SVGID_92_);}
	.st46{clip-path:url(#SVGID_94_);fill:#1F40E6;}
	.st47{clip-path:url(#SVGID_96_);}
	.st48{clip-path:url(#SVGID_98_);fill:#051C2C;}
	.st49{clip-path:url(#SVGID_100_);}
	.st50{clip-path:url(#SVGID_102_);fill:#00A9F4;}
	.st51{clip-path:url(#SVGID_104_);}
	.st52{clip-path:url(#SVGID_106_);fill:#00A9F4;}
	.st53{clip-path:url(#SVGID_108_);}
	.st54{clip-path:url(#SVGID_110_);fill:#E6E6E6;}
	.st55{clip-path:url(#SVGID_112_);}
	.st56{clip-path:url(#SVGID_114_);fill:#051C2C;}
	.st57{clip-path:url(#SVGID_116_);}
	.st58{opacity:0.2;clip-path:url(#SVGID_118_);}
	.st59{clip-path:url(#SVGID_120_);}
	.st60{clip-path:url(#SVGID_122_);fill:#1F40E6;}
</style>
<g>
	<defs>
		<path id="SVGID_1_" d="M412.8,210.3c0,102.6-83.1,121-185.5,121c-102.4,0-185.5-18.4-185.5-121c0-102.6,83.1-137.6,185.5-137.6
			C329.7,72.7,412.8,107.7,412.8,210.3"/>
	</defs>
	<clipPath id="SVGID_2_">
		<use xlink:href="#SVGID_1_"  style="overflow:visible;"/>
	</clipPath>
	<g class="st0">
		<defs>
			<rect id="SVGID_3_" x="-166.2" y="-210" width="750" height="750"/>
		</defs>
		<clipPath id="SVGID_4_">
			<use xlink:href="#SVGID_3_"  style="overflow:visible;"/>
		</clipPath>
		<rect x="36.8" y="67.7" class="st1" width="381" height="268.6"/>
	</g>
</g>
<g>
	<defs>
		<path id="SVGID_5_" d="M227.3,331.3c-102.4,0-192.9-18.4-234.1-121C-13,194.9-47.3,101.1-107.3-71h681.5
			c-47.8,119.1-85.4,212.9-112.9,281.3C420.1,312.9,329.7,331.3,227.3,331.3z"/>
	</defs>
	<clipPath id="SVGID_6_">
		<use xlink:href="#SVGID_5_"  style="overflow:visible;"/>
	</clipPath>
	<g class="st2">
		<defs>
			<rect id="SVGID_7_" x="-166.2" y="-210" width="750" height="750"/>
		</defs>
		<clipPath id="SVGID_8_">
			<use xlink:href="#SVGID_7_"  style="overflow:visible;"/>
		</clipPath>
		<g class="st3">
			<g>
				<defs>
					<rect id="SVGID_9_" x="7.8" y="1" width="387" height="428"/>
				</defs>
				<clipPath id="SVGID_10_">
					<use xlink:href="#SVGID_9_"  style="overflow:visible;"/>
				</clipPath>
				<g class="st4">
					<defs>
						<rect id="SVGID_11_" x="57.4" y="113.5" width="332" height="8.5"/>
					</defs>
					<clipPath id="SVGID_12_">
						<use xlink:href="#SVGID_11_"  style="overflow:visible;"/>
					</clipPath>
					<rect x="52.4" y="108.5" class="st5" width="342" height="18.5"/>
				</g>
				<g class="st4">
					<defs>
						<path id="SVGID_13_" d="M337.2,97.3h42.1v6.8h-42.1V97.3z M293.4,59h10.1v54.5h-10.1V59z M135,59h10.1v54.5H135V59z
							 M178.8,60.7h18.5v52.8h-18.5V60.7z M114.7,67.5h18.5v46h-18.5V67.5z"/>
					</defs>
					<clipPath id="SVGID_14_">
						<use xlink:href="#SVGID_13_"  style="overflow:visible;"/>
					</clipPath>
					<g class="st6">
						<defs>
							<rect id="SVGID_15_" x="57.4" y="33" width="332" height="89"/>
						</defs>
						<clipPath id="SVGID_16_">
							<use xlink:href="#SVGID_15_"  style="overflow:visible;"/>
						</clipPath>
						<rect x="109.7" y="54" class="st7" width="274.6" height="64.5"/>
					</g>
				</g>
				<g class="st4">
					<defs>
						<path id="SVGID_17_" d="M337.2,105h42.1v8.5h-42.1V105z M305.2,67.5h18.5v46h-18.5V67.5z M146.8,67.5h18.5v46h-18.5V67.5z"/>
					</defs>
					<clipPath id="SVGID_18_">
						<use xlink:href="#SVGID_17_"  style="overflow:visible;"/>
					</clipPath>
					<g class="st8">
						<defs>
							<rect id="SVGID_19_" x="57.4" y="33" width="332" height="89"/>
						</defs>
						<clipPath id="SVGID_20_">
							<use xlink:href="#SVGID_19_"  style="overflow:visible;"/>
						</clipPath>
						<rect x="141.8" y="62.5" class="st9" width="242.6" height="56"/>
					</g>
				</g>
				<g class="st4">
					<defs>
						<path id="SVGID_21_" d="M274.8,55.6h16.9v57.9h-16.9V55.6z M167,55.6h10.1v57.9H167V55.6z"/>
					</defs>
					<clipPath id="SVGID_22_">
						<use xlink:href="#SVGID_21_"  style="overflow:visible;"/>
					</clipPath>
					<g class="st10">
						<defs>
							<rect id="SVGID_23_" x="57.4" y="33" width="332" height="89"/>
						</defs>
						<clipPath id="SVGID_24_">
							<use xlink:href="#SVGID_23_"  style="overflow:visible;"/>
						</clipPath>
						<rect x="162" y="50.6" class="st11" width="134.7" height="67.9"/>
					</g>
				</g>
				<g class="st4">
					<defs>
						<path id="SVGID_25_" d="M231.9,40.9v11.2c0,1.4,0.1,3.1,0.4,5.4c0.1,1.3,0.8,6.2,0.9,7c0.1,0.5,0.1,1,0.2,1.5
							c0,0.3-0.2,0.7-0.6,0.7c-0.3,0-0.7-0.2-0.7-0.6c-0.1-0.5-0.1-1-0.2-1.5c-0.1-0.8-0.7-5.8-0.9-7c-0.3-2.4-0.4-4.1-0.4-5.5V40.9
							c0-0.4,0.3-0.6,0.6-0.6C231.6,40.3,231.9,40.6,231.9,40.9z M232.2,94.9c3.9,6.6,8.2,6.6,12.9,0c7-9.9-1-20.2-3.1-22.9
							c-2.1-2.7-3.9-5.7-2.2-15.3c1.7-9.6,0.6-23.3-9.1-23.3c-8.5,0.7-9.9,14.4-6.2,22.1c3.7,7.7,1.1,20.8,5.7,25.3
							C233.3,84,233.9,88.6,232.2,94.9z"/>
					</defs>
					<clipPath id="SVGID_26_">
						<use xlink:href="#SVGID_25_"  style="overflow:visible;"/>
					</clipPath>
					<g class="st12">
						<defs>
							<rect id="SVGID_27_" x="57.4" y="33" width="332" height="89"/>
						</defs>
						<clipPath id="SVGID_28_">
							<use xlink:href="#SVGID_27_"  style="overflow:visible;"/>
						</clipPath>
						<rect x="217.6" y="28.5" class="st13" width="35.3" height="76.4"/>
					</g>
				</g>
				<g class="st4">
					<defs>
						<path id="SVGID_29_" d="M251.4,58.2c-0.3,8.2-2.8,15-7.5,20.4c-0.2,0.3-0.2,0.7,0.1,0.9c0.3,0.2,0.7,0.2,0.9-0.1
							c4.9-5.6,7.5-12.7,7.8-21.2c0-0.4-0.3-0.6-0.6-0.7C251.7,57.6,251.4,57.9,251.4,58.2z M247.8,96.2c-4.3,5.5-8.8,4.9-13.6-1.7
							c-7.2-9.9-0.2-17.8,3-20.7c3.2-2.9,5.7-2.9,5.7-12.4c0-9.5,4.6-17.2,11-15.8c6.4,1.4,8.5,10.5,7.2,17.1
							c-1.3,6.6-3.6,14.3-8.2,18.8C249.6,84.5,248,89.4,247.8,96.2z"/>
					</defs>
					<clipPath id="SVGID_30_">
						<use xlink:href="#SVGID_29_"  style="overflow:visible;"/>
					</clipPath>
					<g class="st14">
						<defs>
							<rect id="SVGID_31_" x="57.4" y="33" width="332" height="89"/>
						</defs>
						<clipPath id="SVGID_32_">
							<use xlink:href="#SVGID_31_"  style="overflow:visible;"/>
						</clipPath>
						<rect x="226" y="40.4" class="st15" width="40.3" height="64.5"/>
					</g>
				</g>
				<g class="st4">
					<defs>
						<path id="SVGID_33_" d="M214.2,63.7c2.1,7.5,7.4,14.5,11.7,18c0.3,0.2,0.7,0.2,0.9-0.1c0.2-0.3,0.2-0.7-0.1-0.9
							c-4-3.3-9.2-10.1-11.3-17.4c-0.1-0.3-0.4-0.5-0.8-0.4C214.3,63,214.1,63.3,214.2,63.7z M223.5,95.3c-0.2-3.8-1.8-7.3-4.8-10.3
							c-4.5-4.6-14.7-11.9-16-18.5s0.7-10.5,6.3-13.2c5.6-2.8,12.9-0.1,14.5,7.6c1.5,7.7,4.7,10.5,7.3,12.4
							c6.3,4.5,6.1,11.7,3.6,20.1C232.7,99,229.1,99.7,223.5,95.3z"/>
					</defs>
					<clipPath id="SVGID_34_">
						<use xlink:href="#SVGID_33_"  style="overflow:visible;"/>
					</clipPath>
					<g class="st16">
						<defs>
							<rect id="SVGID_35_" x="57.4" y="33" width="332" height="89"/>
						</defs>
						<clipPath id="SVGID_36_">
							<use xlink:href="#SVGID_35_"  style="overflow:visible;"/>
						</clipPath>
						<rect x="197.4" y="47.2" class="st17" width="43.7" height="56"/>
					</g>
				</g>
				<g class="st4">
					<defs>
						<polygon id="SVGID_37_" points="215.9,86.3 214.2,86.3 214.2,79.4 254.6,79.4 254.6,86.3 252.9,86.3 247.9,113.5 220.9,113.5 
													"/>
					</defs>
					<clipPath id="SVGID_38_">
						<use xlink:href="#SVGID_37_"  style="overflow:visible;"/>
					</clipPath>
					<g class="st18">
						<defs>
							<rect id="SVGID_39_" x="57.4" y="33" width="332" height="89"/>
						</defs>
						<clipPath id="SVGID_40_">
							<use xlink:href="#SVGID_39_"  style="overflow:visible;"/>
						</clipPath>
						<rect x="209.2" y="74.4" class="st19" width="50.4" height="44"/>
					</g>
				</g>
				<g class="st4">
					<defs>
						<rect id="SVGID_41_" x="214.2" y="79.4" width="40.4" height="6.8"/>
					</defs>
					<clipPath id="SVGID_42_">
						<use xlink:href="#SVGID_41_"  style="overflow:visible;"/>
					</clipPath>
					<rect x="209.2" y="74.4" class="st20" width="50.4" height="16.8"/>
				</g>
				<g class="st4">
					<defs>
						<ellipse id="SVGID_43_" cx="84.4" cy="82.9" rx="20.2" ry="20.4"/>
					</defs>
					<clipPath id="SVGID_44_">
						<use xlink:href="#SVGID_43_"  style="overflow:visible;"/>
					</clipPath>
					<g class="st21">
						<defs>
							<rect id="SVGID_45_" x="57.4" y="33" width="332" height="89"/>
						</defs>
						<clipPath id="SVGID_46_">
							<use xlink:href="#SVGID_45_"  style="overflow:visible;"/>
						</clipPath>
						<rect x="59.2" y="57.4" class="st22" width="50.4" height="50.9"/>
					</g>
				</g>
				<g class="st4">
					<defs>
						<polygon id="SVGID_47_" points="72.6,99.9 96.2,99.9 99.6,113.5 69.2,113.5 						"/>
					</defs>
					<clipPath id="SVGID_48_">
						<use xlink:href="#SVGID_47_"  style="overflow:visible;"/>
					</clipPath>
					<g class="st23">
						<defs>
							<rect id="SVGID_49_" x="57.4" y="33" width="332" height="89"/>
						</defs>
						<clipPath id="SVGID_50_">
							<use xlink:href="#SVGID_49_"  style="overflow:visible;"/>
						</clipPath>
						<rect x="64.2" y="94.9" class="st24" width="40.3" height="23.6"/>
					</g>
				</g>
				<g class="st4">
					<defs>
						<path id="SVGID_51_" d="M165.8,72.2c2.1-6.8,4.3-21.8-15.9-26.2c-18.5-4-22.6,16.5-22.6,16.5c-0.2,0.9-0.5,1.8-0.6,2.7
							c-0.1,1-0.1,1.9-0.2,2.9c-0.2,1.9-0.5,3.8-1.1,5.6c-0.6,1.7-1.4,3.3-2.4,4.7c-0.8,1.1-2.5,2.8-2.1,4.3c0.3,0.9,1.4,1.1,2.3,1
							c2-0.2,3-0.1,3.5,2c0.4,1.5,0.2,3.1,0.7,4.5c0.6,1.8,1.5,3.5,2.8,4.9c2.7,3,6.6,4,10.5,3.5c1.5-0.2,3-0.4,4.3-0.8
							c4.4,15.8-8.2,11.4-11.9,16c-0.4,3.8-1,10.6,2,14c3.1,3.4,8.2,4.1,17,3.5s9.7-3,12.3-6.9c1.7-2.6,1.8-7.2,0.1-13.7
							c-11.3,0-9.4-12.6-7.7-19.3c3.9-3.7,5.7-7.8,6.6-10.1c1.9,1.8,5.8-0.6,7.2-2.4c0.9-1.2,1.4-2.8,1.2-4.3c-0.1-1-0.6-2-1.4-2.6
							c-0.8-0.6-1.8-0.7-2.7-0.5C167,71.7,166.4,71.9,165.8,72.2z"/>
					</defs>
					<clipPath id="SVGID_52_">
						<use xlink:href="#SVGID_51_"  style="overflow:visible;"/>
					</clipPath>
					<g class="st25">
						<defs>
							<rect id="SVGID_53_" x="101.8" y="31.5" width="128" height="121"/>
						</defs>
						<clipPath id="SVGID_54_">
							<use xlink:href="#SVGID_53_"  style="overflow:visible;"/>
						</clipPath>
						<rect x="115.8" y="40.5" class="st26" width="61" height="96.2"/>
					</g>
				</g>
				<g class="st4">
					<defs>
						<path id="SVGID_55_" d="M176.4,49.1c-4.4-5.1-11.2-9.2-20.6-9.2c-17.3,0-24,7.1-27.6,19.5c1.1-3,2.6-3,4.9-3.3
							c2.4-0.3,6.3,0,9.8,1.6c3,1.4,5.9,5.4,6.3,8.7c0.2,1.4,0.4,3,0.7,4.7c1,6.1,3.3,14.2,5.9,14.7c0-4.4,2.9-8,4.6-9.6
							c1.7-1.7,1.9-2.3,5.3-4.1c0.6-0.3,1.2-0.5,1.8-0.5c0.9-0.1,2,0,2.7,0.5c0.8,0.6,1.2,1.6,1.4,2.6c0.2,1.5-0.2,3.1-1.2,4.3
							c-1.4,1.8-5.2,4.2-7.2,2.4c-0.8,2.3-5.9,4.2-7.6,10.8c-1.7,6.6,13,1.8,17.9-3.7c4.9-5.5,10-9.5,8.7-26
							c-0.2-2.5-1.1-5.5-2.6-8.4c11.5-7.6,26.8-8,22.6-1c-4.6,7.7-15.5,8.3-8,17.9c6.1,7.8,24,15.8,13.5,23.6
							c-10.1,7.4-22.4,5-26.6,23.8c-2.5,11.5,9.1,35.5,24.1,32.9c25.6-4.4-4.8-35.4-3.2-41.3c2.9-10.7,31.3-7.5,26.9-21.8
							c-4.4-14.3-19-12.8-22-20.5c-3-7.7,9.2-12.6,11.4-17.3c3.2-7-9.3-10.9-12.5-11.6C193.6,36.2,184.8,41.8,176.4,49.1z"/>
					</defs>
					<clipPath id="SVGID_56_">
						<use xlink:href="#SVGID_55_"  style="overflow:visible;"/>
					</clipPath>
					<g class="st27">
						<defs>
							<rect id="SVGID_57_" x="101.8" y="31.5" width="128" height="121"/>
						</defs>
						<clipPath id="SVGID_58_">
							<use xlink:href="#SVGID_57_"  style="overflow:visible;"/>
						</clipPath>
						<rect x="123.2" y="33.3" class="st28" width="111.4" height="123.4"/>
					</g>
				</g>
				<g class="st4">
					<defs>
						<path id="SVGID_59_" d="M146.6,278.1c3,14,5.7,27,6.9,35.4c3.3,22.3,15.4,79.6,19,107c4.3,0.1,11.1-0.1,15.5,0
							c-0.1-1.1,0-1.7,0-2.4c2.3-32.5-0.6-93.2-3.5-129.5c-1.1-13.9-3.3-56.1-6.2-72.1h-12.1h-46.2l-10.4,77.3l-9.8,125.7
							c0,0,7.3-0.1,14.7,0c7.4-40.5,15.5-77.9,24.3-112.3C141.5,296.8,144.1,287,146.6,278.1z"/>
					</defs>
					<clipPath id="SVGID_60_">
						<use xlink:href="#SVGID_59_"  style="overflow:visible;"/>
					</clipPath>
					<g class="st29">
						<defs>
							<rect id="SVGID_61_" x="8.8" y="216.5" width="290" height="115.5"/>
						</defs>
						<clipPath id="SVGID_62_">
							<use xlink:href="#SVGID_61_"  style="overflow:visible;"/>
						</clipPath>
						<rect x="94.8" y="211.5" class="st30" width="99" height="214"/>
					</g>
				</g>
				<g class="st4">
					<defs>
						<path id="SVGID_63_" d="M180.6,228.5c-10.6,1.8-21.2,2.7-31.8,2.7c-10.7,0-21.3-0.9-32-2.7l-1.1,14
							c11.2,1.8,22.3,2.7,33.5,2.7c11.2,0,22.3-0.9,33.5-2.7L180.6,228.5z"/>
					</defs>
					<clipPath id="SVGID_64_">
						<use xlink:href="#SVGID_63_"  style="overflow:visible;"/>
					</clipPath>
					<g class="st31">
						<defs>
							<rect id="SVGID_65_" x="8.8" y="216.5" width="290" height="115.5"/>
						</defs>
						<clipPath id="SVGID_66_">
							<use xlink:href="#SVGID_65_"  style="overflow:visible;"/>
						</clipPath>
						<rect x="110.8" y="223.5" class="st32" width="77" height="26.7"/>
					</g>
				</g>
				<g class="st4">
					<defs>
						<path id="SVGID_67_" d="M118.3,146.5c-0.4-6.8-1.6-16.1,1-22.1c1.3-3,2.7-6.2,5.4-8.2c1.5-1.1,3.8-1.6,5.5-2.2
							c1.8-0.6,5.1-2.4,7.1-2.1c1.4,0.2,1.4,2.4,2,3.7c0.8,2,1.3,2.9,2.5,4.7c0.6,0.9-0.2,5.6,7.6,5.6s11.3-8.2,15.3-15.4
							c1.5,0.1,2.9,0.5,4.4,0.9c1,0.3,1.9,0.5,2.9,0.8c1.8,0.6,3.6,1.3,5,2.6c1.1,0.9,1.9,2.1,2.4,3.4c1.7,4.1,1.3,8.9,1.2,13.2
							c-0.5,14.4,0.6,25.3,1.4,39.9c0.8,14.6,7,45.5,7.7,51c0,0-44.4,13.8-81.5-1.8c-0.5-9,7.7-15.7,10.2-59.4
							C118.2,157.7,118.2,152.8,118.3,146.5z"/>
					</defs>
					<clipPath id="SVGID_68_">
						<use xlink:href="#SVGID_67_"  style="overflow:visible;"/>
					</clipPath>
					<g class="st33">
						<defs>
							<rect id="SVGID_69_" x="8.8" y="108.5" width="290" height="202"/>
						</defs>
						<clipPath id="SVGID_70_">
							<use xlink:href="#SVGID_69_"  style="overflow:visible;"/>
						</clipPath>
						
							<rect x="100.5" y="106.5" transform="matrix(0.9986 -5.233597e-02 5.233597e-02 0.9986 -8.6899 7.8813)" class="st34" width="91.3" height="126.8"/>
					</g>
				</g>
				<g class="st4">
					<defs>
						<path id="SVGID_71_" d="M75.6,128.4c-11.8,0.4-26.7-1.1-44.6-4.5c-7.8-4.5-12.7-5.4-17.8-6c-1.9-0.1-2.9,1.8-3.7,5.5
							s-1.2,5.3,1.1,7.6c1.8,1.8,6.9,4.3,20.6,3.2c17.6,4.5,32.7,6.7,45.3,6.7C76.2,136.9,75.7,132.1,75.6,128.4z M193,168.2
							l-10.1-3c5.2,45.5,8.1,69.6,8.7,72.3c1.4,6,0.8,14-2,18.4c5.8,1.5,8.4-12.9,9.1,0c0.1,4.9-1.5,12.3,2.6,12.2
							c2.1-0.2,4.3-5.6,3.6-15.5c-0.4-4.7-3-12.5-3.6-17.3c-1.2-9.4-3.3-21.3-3.6-35.1C197.4,187.3,195.9,176.7,193,168.2z"/>
					</defs>
					<clipPath id="SVGID_72_">
						<use xlink:href="#SVGID_71_"  style="overflow:visible;"/>
					</clipPath>
					<g class="st35">
						<defs>
							<rect id="SVGID_73_" x="8.8" y="108.5" width="290" height="202"/>
						</defs>
						<clipPath id="SVGID_74_">
							<use xlink:href="#SVGID_73_"  style="overflow:visible;"/>
						</clipPath>
						<rect x="3.8" y="112.9" class="st36" width="206.2" height="160"/>
					</g>
				</g>
				<g class="st4">
					<defs>
						<path id="SVGID_75_" d="M124,116.8c-17.6,6.5-32.7,9.9-45.2,10.2c-0.3,6.4,0.4,10.7,1.7,17.6c13-0.2,25.5-2.1,37.3-5.5
							c0.1,2.6,0.4,5.2,0.5,7.4c-0.1,6.4-0.1,11.3,0,14.7c-3.8,44.4-12.5,57.7-12,66.7c11.7,4.9,25.9,5.3,37.5,5.7v-5.7l0.9-106.3
							c-3.5-3.4-5.2-7.2-6.4-10.1c-1.9-0.3-6.3,1.9-8.1,2.5c-1.7,0.6-4.1,1.1-5.5,2.2C124.5,116.4,124.2,116.6,124,116.8z
							 M181,155.6l1.4,10l1.1,16.2l14.9-2.5l-5.8-48.1c-1.3-6.9-3.9-11.8-7.9-14.5c-3-1.3-6.4-2.5-10.2-3.4c-0.8-0.4-1.7-0.7-2.6-1
							c-1-0.3-1.9-0.6-2.9-0.8c-1.4-0.4-2.9-0.8-4.4-0.9c-2.5,4.5-5.5,7.7-10.2,11.1l1.3,106.2v5.8c19.3-1,35.7-5.8,35.7-5.8
							c-0.7-5.5-8.8-41.8-9.5-56.4C181.6,165.7,181.3,160.6,181,155.6z"/>
					</defs>
					<clipPath id="SVGID_76_">
						<use xlink:href="#SVGID_75_"  style="overflow:visible;"/>
					</clipPath>
					<g class="st37">
						<defs>
							<rect id="SVGID_77_" x="8.8" y="108.5" width="290" height="202"/>
						</defs>
						<clipPath id="SVGID_78_">
							<use xlink:href="#SVGID_77_"  style="overflow:visible;"/>
						</clipPath>
						<rect x="73.7" y="105.5" class="st38" width="129.7" height="133.1"/>
					</g>
				</g>
				<g class="st4">
					<defs>
						<path id="SVGID_79_" d="M181.9,171.4c0.8,14.6,7,45.5,7.7,51c0,0-11.3,2.9-20.1,4.1c1.7-24.4,8.9-55.7,11.6-69.2
							C181.3,160.3,181.6,167.8,181.9,171.4z"/>
					</defs>
					<clipPath id="SVGID_80_">
						<use xlink:href="#SVGID_79_"  style="overflow:visible;"/>
					</clipPath>
					<g class="st39">
						<defs>
							<rect id="SVGID_81_" x="8.8" y="108.5" width="290" height="202"/>
						</defs>
						<clipPath id="SVGID_82_">
							<use xlink:href="#SVGID_81_"  style="overflow:visible;"/>
						</clipPath>
						
							<rect x="162.7" y="152.5" transform="matrix(0.9986 -5.233724e-02 5.233724e-02 0.9986 -9.7923 9.569)" class="st40" width="30.3" height="78.5"/>
					</g>
				</g>
				<g class="st4">
					<defs>
						<path id="SVGID_83_" d="M200.9,175.6l-18.8,2.4l-2.5,0.4l0.8,6l20.9-2.9L200.9,175.6z M81.4,125.2l-5.8,0.6l1.1,21.1l6.1-0.3
							l-0.1-2.5L81.4,125.2z M138.3,111.5l0.5,15l5.9-4.9L138.3,111.5z M164.7,110.5l-10.2,11.1l5.2,3.9L164.7,110.5z"/>
					</defs>
					<clipPath id="SVGID_84_">
						<use xlink:href="#SVGID_83_"  style="overflow:visible;"/>
					</clipPath>
					<g class="st41">
						<defs>
							<rect id="SVGID_85_" x="8.8" y="108.5" width="290" height="202"/>
						</defs>
						<clipPath id="SVGID_86_">
							<use xlink:href="#SVGID_85_"  style="overflow:visible;"/>
						</clipPath>
						<rect x="70.6" y="105.5" class="st42" width="135.8" height="83.8"/>
					</g>
				</g>
				<g class="st4">
					<defs>
						<path id="SVGID_87_" d="M330.8,79.7c2.1-6.8,4.3-21.8-15.9-26.2c-18.5-4-22.6,16.5-22.6,16.5c-0.2,0.9-0.5,1.8-0.6,2.7
							c-0.1,1-0.1,1.9-0.2,2.9c-0.2,1.9-0.5,3.8-1.1,5.6c-0.6,1.7-1.4,3.3-2.4,4.7c-0.8,1.1-2.5,2.8-2.1,4.3c0.3,0.9,1.4,1.1,2.3,1
							c2-0.2,3-0.1,3.5,2c0.4,1.5,0.2,3.1,0.7,4.5c0.6,1.8,1.5,3.5,2.8,4.9c2.7,3,6.6,4,10.5,3.5c1.5-0.2,3-0.4,4.3-0.8
							c4.4,15.8-8.2,11.4-11.9,16c-0.4,3.8-1,10.6,2,14c3.1,3.4,8.2,4.1,17,3.5s9.7-3,12.3-6.9c1.7-2.6,1.8-7.2,0.1-13.7
							c-11.3,0-9.4-12.6-7.7-19.3c3.9-3.7,5.7-7.8,6.6-10.1c1.9,1.8,5.8-0.6,7.2-2.4c0.9-1.2,1.4-2.8,1.2-4.3c-0.1-1-0.6-2-1.4-2.6
							c-0.8-0.6-1.8-0.7-2.7-0.5C332,79.2,331.4,79.4,330.8,79.7z"/>
					</defs>
					<clipPath id="SVGID_88_">
						<use xlink:href="#SVGID_87_"  style="overflow:visible;"/>
					</clipPath>
					<g class="st43">
						<defs>
							<rect id="SVGID_89_" x="266.8" y="39" width="97" height="101"/>
						</defs>
						<clipPath id="SVGID_90_">
							<use xlink:href="#SVGID_89_"  style="overflow:visible;"/>
						</clipPath>
						<rect x="280.8" y="48" class="st44" width="61" height="96.2"/>
					</g>
				</g>
				<g class="st4">
					<defs>
						<path id="SVGID_91_" d="M332.1,46.3c-11.6-7.3-27.9-0.7-34.3,2.9c-2.6,1.5-6.7,13.2,4.8,8.5c2.8-1.4,9.5-0.1,11.1,1.7
							c1.6,1.9,0.6,3.4,4.2,6.4c3.6,3,6.8,1.9,5.6,8.8c-1.1,14.5-10.1,21.5-14.5,21.5c-6.7,0-14.9-4.2-17.9-4.2
							c0.7,1.6,1,2.7,1.1,3.3c5.4,1.6,8,3.2,8,4.9c0,1.2-1.2,1.9-2.4,1.6c-1.4-0.3-2.5-0.4-4.3-1.6c2.5,4.1,4.3,6.3,9.8,6.3
							c8,0,13.4-3.6,17.2-12.1c3.9-8.4,9.9-14.5,10.2-14.6c3.5-1.3,6.1,0,6.1,3.4c-0.1,5.3-6.8,7.2-8.4,5.9c-0.8,2.7-4,7.3-6.5,10.1
							c14.3-0.8,21.5-11.3,22.6-24.6C345.1,65.9,343.7,53.5,332.1,46.3z"/>
					</defs>
					<clipPath id="SVGID_92_">
						<use xlink:href="#SVGID_91_"  style="overflow:visible;"/>
					</clipPath>
					<g class="st45">
						<defs>
							<rect id="SVGID_93_" x="266.8" y="39" width="97" height="101"/>
						</defs>
						<clipPath id="SVGID_94_">
							<use xlink:href="#SVGID_93_"  style="overflow:visible;"/>
						</clipPath>
						<rect x="286.1" y="38" class="st46" width="63.5" height="73.4"/>
					</g>
				</g>
				<g class="st4">
					<defs>
						<path id="SVGID_95_" d="M311.6,285.6c3,14,5.7,27,6.9,35.4c3.3,22.3,15.4,79.6,19,107c4.3,0.1,11.1-0.1,15.5,0
							c-0.1-1.1,0-1.7,0-2.4c2.3-32.5-0.6-93.2-3.5-129.5c-1.1-13.9-3.3-56.1-6.2-72.1h-12.1h-46.2l-10.4,77.3l-9.8,125.7
							c0,0,7.3-0.1,14.7,0c7.4-40.5,15.5-77.9,24.3-112.3C306.5,304.3,309.1,294.5,311.6,285.6z"/>
					</defs>
					<clipPath id="SVGID_96_">
						<use xlink:href="#SVGID_95_"  style="overflow:visible;"/>
					</clipPath>
					<g class="st47">
						<defs>
							<rect id="SVGID_97_" x="163.8" y="224" width="249" height="108"/>
						</defs>
						<clipPath id="SVGID_98_">
							<use xlink:href="#SVGID_97_"  style="overflow:visible;"/>
						</clipPath>
						<rect x="259.8" y="219" class="st48" width="99" height="214"/>
					</g>
				</g>
				<g class="st4">
					<defs>
						<path id="SVGID_99_" d="M345.6,236c-10.6,1.8-21.2,2.7-31.8,2.7c-10.7,0-21.3-0.9-32-2.7l-1.1,14c11.2,1.8,22.3,2.7,33.5,2.7
							s22.3-0.9,33.5-2.7L345.6,236z"/>
					</defs>
					<clipPath id="SVGID_100_">
						<use xlink:href="#SVGID_99_"  style="overflow:visible;"/>
					</clipPath>
					<g class="st49">
						<defs>
							<rect id="SVGID_101_" x="163.8" y="224" width="249" height="108"/>
						</defs>
						<clipPath id="SVGID_102_">
							<use xlink:href="#SVGID_101_"  style="overflow:visible;"/>
						</clipPath>
						<rect x="275.8" y="231" class="st50" width="77" height="26.7"/>
					</g>
				</g>
				<g class="st4">
					<defs>
						<path id="SVGID_103_" d="M283.3,154c-0.4-6.8-1.6-16.1,1-22.1c1.3-3,2.7-6.2,5.4-8.2c1.5-1.1,3.8-1.6,5.5-2.2
							c1.8-0.6,5.1-2.4,7.1-2.1c1.4,0.2,1.4,2.4,2,3.7c0.8,2,1.3,2.9,2.5,4.7c0.6,0.9-0.2,5.6,7.6,5.6s11.3-8.2,15.3-15.4
							c1.5,0.1,2.9,0.5,4.4,0.9c1,0.3,1.9,0.5,2.9,0.8c1.8,0.6,3.6,1.3,5,2.6c1.1,0.9,1.9,2.1,2.4,3.4c1.7,4.1,1.3,8.9,1.2,13.2
							c-0.5,14.4,0.6,25.3,1.4,39.9c0.8,14.6,7,45.5,7.7,51c0,0-44.4,13.8-81.5-1.8c-0.5-9,7.7-15.7,10.2-59.4
							C283.2,165.2,283.2,160.3,283.3,154z"/>
					</defs>
					<clipPath id="SVGID_104_">
						<use xlink:href="#SVGID_103_"  style="overflow:visible;"/>
					</clipPath>
					<g class="st51">
						<defs>
							<rect id="SVGID_105_" x="163.8" y="1" width="249" height="317"/>
						</defs>
						<clipPath id="SVGID_106_">
							<use xlink:href="#SVGID_105_"  style="overflow:visible;"/>
						</clipPath>
						
							<rect x="265.5" y="114" transform="matrix(0.9986 -5.233598e-02 5.233598e-02 0.9986 -8.8563 16.527)" class="st52" width="91.3" height="126.8"/>
					</g>
				</g>
				<g class="st4">
					<defs>
						<path id="SVGID_107_" d="M241.9,80.7c2.3,2.4-1.6,13.9,6,18.8c2.2-12.5,10.4-33,24.7-61.7c10.9-8.8,15.5-13.8,13.8-15
							c-2.6-1.7-5,1.7-7,0.8c-1.9-0.9-1.5-7.1-0.9-12.9c0.6-5.8-2-4.2-3.3-2.9c-3.7,5.9-6.9,13.2-9.5,22
							C255.4,47.9,247.5,64.8,241.9,80.7z M388.7,78.4c-7.4-15.6-17.7-33.6-31-53.9c-2.9-8.7-6.3-15.9-10.2-21.7
							c-1.4-1.3-4-2.8-3.2,3c0.8,5.8,1.4,12-0.5,12.9c-1.9,1-4.5-2.4-7-0.6c-1.7,1.2,3.1,6,14.2,14.4c15.2,28.1,24,48.3,26.6,60.7
							C385.1,88.2,386.5,80.9,388.7,78.4z"/>
					</defs>
					<clipPath id="SVGID_108_">
						<use xlink:href="#SVGID_107_"  style="overflow:visible;"/>
					</clipPath>
					<g class="st53">
						<defs>
							<rect id="SVGID_109_" x="163.8" y="1" width="249" height="317"/>
						</defs>
						<clipPath id="SVGID_110_">
							<use xlink:href="#SVGID_109_"  style="overflow:visible;"/>
						</clipPath>
						<rect x="236.9" y="-3.4" class="st54" width="156.8" height="107.8"/>
					</g>
				</g>
				<g class="st4">
					<defs>
						<path id="SVGID_111_" d="M287.9,125.4c-20.2-13.8-25.8-33.7-27.6-39.1c-1.8-5.6,1.3-6.8,2.3-12c0.6-3.1-10.1-10.2-15.9-9.9
							c-2.7,3.8-4.2,5.4-8.4,16.9c-4.2,11.5,18.5,59.7,43.8,76.3c0.4,0.3,0.8,0.5,1.2,0.6c0,4.4,0,8,0.1,10.6
							c-3.8,44.4-12.5,57.7-12,66.7c11.7,4.9,25.9,5.3,37.5,5.7v-5.7l0.9-106.3c-3.5-3.4-5.2-7.2-6.4-10.1c-1.9-0.3-6.3,1.9-8.1,2.5
							c-1.7,0.6-4.1,1.1-5.5,2.2C289,124.2,288.5,124.7,287.9,125.4z M345.6,155.1c0.2-0.1,0.3-0.2,0.5-0.3
							c25.3-16.6,48-64.8,43.8-76.3c-4.2-11.5-5.2-13.4-8.4-15.8c-5.8-0.3-16.6,5.8-16,8.9c1,5.2,4.1,6.4,2.3,12
							c-1.7,5.3-7.1,24.6-26.5,38.3c-1.3-1-2.9-1.6-4.5-2.2c-1-0.3-1.9-0.6-2.9-0.8c-1.4-0.4-2.9-0.8-4.4-0.9
							c-2.5,4.5-5.5,7.7-10.2,11.1l1.3,106.2v5.8c19.3-1,35.7-5.8,35.7-5.8c-0.7-5.5-8.8-41.8-9.5-56.4
							C346.5,170.2,345.9,162.8,345.6,155.1z"/>
					</defs>
					<clipPath id="SVGID_112_">
						<use xlink:href="#SVGID_111_"  style="overflow:visible;"/>
					</clipPath>
					<g class="st55">
						<defs>
							<rect id="SVGID_113_" x="163.8" y="1" width="249" height="317"/>
						</defs>
						<clipPath id="SVGID_114_">
							<use xlink:href="#SVGID_113_"  style="overflow:visible;"/>
						</clipPath>
						<rect x="232.8" y="57.7" class="st56" width="162.6" height="188.5"/>
					</g>
				</g>
				<g class="st4">
					<defs>
						<path id="SVGID_115_" d="M346.9,178.9c0.8,14.6,7,45.5,7.7,51c0,0-11.3,2.9-20.1,4.1c1.7-24.4,8.9-55.7,11.6-69.2
							C346.3,167.8,346.6,175.3,346.9,178.9z"/>
					</defs>
					<clipPath id="SVGID_116_">
						<use xlink:href="#SVGID_115_"  style="overflow:visible;"/>
					</clipPath>
					<g class="st57">
						<defs>
							<rect id="SVGID_117_" x="163.8" y="1" width="249" height="317"/>
						</defs>
						<clipPath id="SVGID_118_">
							<use xlink:href="#SVGID_117_"  style="overflow:visible;"/>
						</clipPath>
						
							<rect x="327.7" y="160" transform="matrix(0.9986 -5.233724e-02 5.233724e-02 0.9986 -9.9587 18.2149)" class="st58" width="30.3" height="78.5"/>
					</g>
				</g>
				<g class="st4">
					<defs>
						<path id="SVGID_119_" d="M381.3,57.7l-16.3,9.6l-2.2,1.3l3.1,5.2L384,62.9L381.3,57.7z M263.1,75.6l2.5-5.3l-18.6-9.9
							l-2.9,5.4l2.2,1.2L263.1,75.6z M303.2,119l0.7,15l5.9-4.9L303.2,119z M329.8,118l-10.2,11.1l5.2,3.9L329.8,118z"/>
					</defs>
					<clipPath id="SVGID_120_">
						<use xlink:href="#SVGID_119_"  style="overflow:visible;"/>
					</clipPath>
					<g class="st59">
						<defs>
							<rect id="SVGID_121_" x="163.8" y="1" width="249" height="317"/>
						</defs>
						<clipPath id="SVGID_122_">
							<use xlink:href="#SVGID_121_"  style="overflow:visible;"/>
						</clipPath>
						<rect x="239.1" y="52.7" class="st60" width="149.9" height="86.3"/>
					</g>
				</g>
			</g>
		</g>
	</g>
</g>
</svg>
