<?xml version="1.0" encoding="utf-8"?>
<!-- Generator: Adobe Illustrator 23.0.6, SVG Export Plug-In . SVG Version: 6.00 Build 0)  -->
<svg version="1.1" id="Layer_1" xmlns="http://www.w3.org/2000/svg" xmlns:xlink="http://www.w3.org/1999/xlink" x="0px" y="0px"
	 viewBox="0 0 2486 1898.6" style="enable-background:new 0 0 2486 1898.6;" xml:space="preserve">
<style type="text/css">
	.st0{clip-path:url(#SVGID_2_);}
	.st1{clip-path:url(#SVGID_4_);enable-background:new    ;}
	.st2{clip-path:url(#SVGID_6_);}
	.st3{clip-path:url(#SVGID_8_);}
	.st4{clip-path:url(#SVGID_10_);fill:#D0D0D0;}
	.st5{clip-path:url(#SVGID_12_);}
	.st6{clip-path:url(#SVGID_14_);fill:#00A9F4;}
	.st7{clip-path:url(#SVGID_16_);}
	.st8{clip-path:url(#SVGID_18_);fill:#1F40E6;}
	.st9{clip-path:url(#SVGID_20_);}
	.st10{clip-path:url(#SVGID_22_);fill:#1F40E6;}
	.st11{clip-path:url(#SVGID_24_);}
	.st12{clip-path:url(#SVGID_26_);fill:#00A9F4;}
	.st13{clip-path:url(#SVGID_28_);}
	.st14{clip-path:url(#SVGID_30_);fill:#00A9F4;}
	.st15{clip-path:url(#SVGID_32_);}
	.st16{clip-path:url(#SVGID_34_);fill:#FFFFFF;}
	.st17{clip-path:url(#SVGID_36_);}
	.st18{clip-path:url(#SVGID_38_);fill:#051C2C;}
	.st19{clip-path:url(#SVGID_40_);}
	.st20{opacity:0.2;clip-path:url(#SVGID_42_);}
	.st21{clip-path:url(#SVGID_44_);}
	.st22{clip-path:url(#SVGID_46_);fill:#1F40E6;}
	.st23{clip-path:url(#SVGID_48_);}
	.st24{clip-path:url(#SVGID_50_);fill:#00A9F4;}
	.st25{clip-path:url(#SVGID_52_);}
	.st26{clip-path:url(#SVGID_54_);fill:#F0F0F0;}
	.st27{clip-path:url(#SVGID_56_);}
	.st28{clip-path:url(#SVGID_58_);fill:#00A9F4;}
	.st29{clip-path:url(#SVGID_60_);}
	.st30{clip-path:url(#SVGID_62_);fill:#00A9F4;}
	.st31{clip-path:url(#SVGID_64_);}
	.st32{clip-path:url(#SVGID_66_);fill:#1F40E6;}
	.st33{clip-path:url(#SVGID_68_);}
	.st34{clip-path:url(#SVGID_70_);fill:#051C2C;}
</style>
<g>
	<defs>
		<path id="SVGID_1_" d="M59.5-581.9c1.7,993.4,1.7,1538.4,0,1635.1c-9.2,538.1,227.3,732.4,426.7,743.4
			c339.9,18.7,459.8-144,622.3-152.3c147.8-7.6,286.9,62.8,420.6,126.1c155.4,73.5,290,108.7,460.7,86.2
			c377.6-49.8,425-303.1,417.8-471.7c-1.6-37.5,2.1-693.1,11.1-1966.8H59.5z"/>
	</defs>
	<clipPath id="SVGID_2_">
		<use xlink:href="#SVGID_1_"  style="overflow:visible;"/>
	</clipPath>
	<g class="st0">
		<defs>
			<rect id="SVGID_3_" x="-415.2" y="-657.8" width="3321" height="5503.4"/>
		</defs>
		<clipPath id="SVGID_4_">
			<use xlink:href="#SVGID_3_"  style="overflow:visible;"/>
		</clipPath>
		<g class="st1">
			<g>
				<defs>
					<rect id="SVGID_5_" x="27.6" y="25.4" width="2416.5" height="2486"/>
				</defs>
				<clipPath id="SVGID_6_">
					<use xlink:href="#SVGID_5_"  style="overflow:visible;"/>
				</clipPath>
				<g class="st2">
					<defs>
						<path id="SVGID_7_" d="M126,540.1c-205.9,933.1,107.1,1242.6,360.2,1256.6c339.9,18.7,459.8-144,622.3-152.3
							c147.8-7.6,286.9,62.8,420.6,126.1c155.4,73.5,290,108.7,460.7,86.2c503.6-66.4,419.8-495,402.7-601.5
							c-21-131.2-117.4-280.5-228.4-329.8c-308.9-137.4-542.8,71.4-682.8,49.7c-169.8-26.4-342.3-100.2-433-250.6
							C948.1,558,919.5,226.2,742.2,139C382.1-37.9,186.2,267.2,126,540.1"/>
					</defs>
					<clipPath id="SVGID_8_">
						<use xlink:href="#SVGID_7_"  style="overflow:visible;"/>
					</clipPath>
					<g class="st3">
						<defs>
							<rect id="SVGID_9_" x="59.2" y="25.4" width="2353.2" height="1840.8"/>
						</defs>
						<clipPath id="SVGID_10_">
							<use xlink:href="#SVGID_9_"  style="overflow:visible;"/>
						</clipPath>
						<rect x="27.6" y="54.9" class="st4" width="2412.3" height="1840.1"/>
					</g>
				</g>
				<g class="st2">
					<defs>
						<path id="SVGID_11_" d="M577.8,301.7c-13.2-42.8-26.9-138.2,100.5-165.5C795.5,111,821.5,240.8,821.5,240.8
							c1.2,5.8,3.1,11.5,3.7,17.4c0.6,6.1,0.9,12.1,1.5,18.2c1.3,12.1,3.2,24.1,7.1,35.7c3.5,10.6,8.7,20.6,15.2,29.7
							c4.8,6.7,16,17.6,13.2,26.9c-1.7,5.6-9,7.2-14.8,6.6c-12.5-1.1-18.9-0.5-22.2,12.8c-2.3,9.4-1.3,19.4-4.7,28.5
							c-4.1,11.1-9.5,21.9-17.4,30.8c-17.1,19.2-41.7,25.3-66.6,22.5c-9.6-1.1-18.7-2.7-27.1-4.8c-28,100.2,52,71.8,75.1,101.4
							c2.6,24,6.6,66.7-12.7,88.5c-19.3,21.7-52.1,25.8-107.4,22.1c-55.3-3.7-61.5-19-77.7-43.7c-10.8-16.4-11.1-45.4-0.9-86.9
							c71.3,0,59.7-79.9,48.8-121.8c-24.4-23.3-36.3-49.4-41.5-64c-12.1,11.4-36.5-4-45.3-15.2c-6-7.7-8.7-17.8-7.4-27.5
							c0.8-6.3,3.5-12.6,8.7-16.3c4.9-3.5,11.3-4.2,17.3-3.4C570.3,298.8,574.2,299.9,577.8,301.7z"/>
					</defs>
					<clipPath id="SVGID_12_">
						<use xlink:href="#SVGID_11_"  style="overflow:visible;"/>
					</clipPath>
					<g class="st5">
						<defs>
							<rect id="SVGID_13_" x="369.2" y="25.4" width="613.6" height="657.9"/>
						</defs>
						<clipPath id="SVGID_14_">
							<use xlink:href="#SVGID_13_"  style="overflow:visible;"/>
						</clipPath>
						<rect x="508.4" y="101.3" class="st6" width="385.9" height="608.5"/>
					</g>
				</g>
				<g class="st2">
					<defs>
						<path id="SVGID_15_" d="M508.6,186.8c-10.3-33.9-19.4-65.2,4.3-88.1c23.7-22.8,37.6-3.4,65.5-22.9
							c27.9-19.5,20.3-43.7,45.8-48.6c25.5-4.9,38.8,24.5,83.2,24.5c44.5,0,37.3-30.7,68.3-24.5c31,6.2,20.1,42.1,45.3,54.8
							c25.2,12.7,24.3-24.2,47.6-6.2c9.9,7.7,16.5,29.4,14.3,42c-4.2,24-53.7,74.5-126.3,44.4c-18-9-27-10.8-41.4-11.5
							c-10.9-0.5-21.9,3.5-29.8,10.9c-8.4,7.9-13.7,27.5-21.1,36.3c-7.4,8.8-47.6,27.9-40.1,71.3c6.7,91.7,63.7,136.2,92,136.2
							c42.6,0,94.3-26.7,113-26.7c-4.3,9.9-6.3,18.8-6.1,26.7c-34.4,6.1-51.6,14.5-51.6,25.3c0,7.7,7.3,12,15.2,10.4
							c8.7-1.8,15.9-2.7,27.5-10.4c27.2,35.3,25.7,99.4-42.7,101.7c-45.4,6.3-110.1-20.8-116.7-91.3
							c-6.6-70.5-74.6-138.9-76.4-139.6c-22.1-8.4-38.4,0-38.4,21.5c0.7,33.4,43.3,45.4,53.1,37.4c5.3,17.4,25.3,46.1,41,64.1
							c-90.3-5.2-136-71.7-142.7-155.4C487.1,214.5,518.9,220.8,508.6,186.8z"/>
					</defs>
					<clipPath id="SVGID_16_">
						<use xlink:href="#SVGID_15_"  style="overflow:visible;"/>
					</clipPath>
					<g class="st7">
						<defs>
							<rect id="SVGID_17_" x="369.2" y="25.4" width="613.6" height="657.9"/>
						</defs>
						<clipPath id="SVGID_18_">
							<use xlink:href="#SVGID_17_"  style="overflow:visible;"/>
						</clipPath>
						<rect x="459.4" y="-5.2" class="st8" width="455.4" height="570.3"/>
					</g>
				</g>
				<g class="st2">
					<defs>
						<path id="SVGID_19_" d="M699.5,1604.6c-19.2,88.6-35.8,170.7-43.6,223.7c-20.7,140.8-97.4,503.6-120.4,676.8
							c-27.4,0.6-70.4-0.6-97.8,0c0.4-7,0.3-10.9,0-15.3c-14.4-205.9,3.6-589.8,22-819.2c7-87.8,21-354.9,39.4-456h76.8H868
							l65.5,489.3l62,795.4c0,0-46-0.3-93.1,0c-46.9-256.1-98.2-492.9-154-710.2C731.3,1722.4,715,1660.9,699.5,1604.6z"/>
					</defs>
					<clipPath id="SVGID_20_">
						<use xlink:href="#SVGID_19_"  style="overflow:visible;"/>
					</clipPath>
					<g class="st9">
						<defs>
							<rect id="SVGID_21_" x="59.2" y="1214.6" width="1575.1" height="651.6"/>
						</defs>
						<clipPath id="SVGID_22_">
							<use xlink:href="#SVGID_21_"  style="overflow:visible;"/>
						</clipPath>
						<rect x="400.8" y="1183" class="st10" width="626.3" height="1353.9"/>
					</g>
				</g>
				<g class="st2">
					<defs>
						<path id="SVGID_23_" d="M483.9,1290.6c66.7,11.4,133.8,17.1,201.3,17.1c67.4,0,134.9-5.7,202.4-17.1l6.7,88.6
							c-70.6,11.4-141.3,17.1-211.9,17.1c-70.6,0-141.3-5.7-211.9-17.1L483.9,1290.6z"/>
					</defs>
					<clipPath id="SVGID_24_">
						<use xlink:href="#SVGID_23_"  style="overflow:visible;"/>
					</clipPath>
					<g class="st11">
						<defs>
							<rect id="SVGID_25_" x="59.2" y="1214.6" width="1575.1" height="651.6"/>
						</defs>
						<clipPath id="SVGID_26_">
							<use xlink:href="#SVGID_25_"  style="overflow:visible;"/>
						</clipPath>
						<rect x="438.8" y="1258.9" class="st12" width="487.1" height="168.9"/>
					</g>
				</g>
				<g class="st2">
					<defs>
						<path id="SVGID_27_" d="M1226.5,496.1l-52.2-46.4l145.5-166.5c30.4-81.7,57.8-118.9,67.8-110.8c15.1,12.1-25,57.7-8.7,62.2
							c7.7-3.7,21.2-27.9,54.1-54.3c24.9-20.6,46.3,5.1,40.9,15.5c-15.3,34.1-48.6,81.1-95,113.7L1226.5,496.1z M405.5,908.9
							l63.7-19.1c-32.9,287.8-51.3,440.1-55.2,457.1c-8.8,38.1-4.8,88.8,12.9,116.1c-36.5,9.7-53.1-81.9-57.5,0
							c-0.4,30.8,9.5,77.7-16.3,77.3c-13.5-1.5-27-35.6-22.7-98c2.4-29.7,18.8-79.3,22.7-109.5c7.7-59.3,21-134.7,22.9-222.3
							C377.8,1029.8,387.6,962.6,405.5,908.9z"/>
					</defs>
					<clipPath id="SVGID_28_">
						<use xlink:href="#SVGID_27_"  style="overflow:visible;"/>
					</clipPath>
					<g class="st13">
						<defs>
							<rect id="SVGID_29_" x="59.2" y="170.9" width="1575.1" height="1638.4"/>
						</defs>
						<clipPath id="SVGID_30_">
							<use xlink:href="#SVGID_29_"  style="overflow:visible;"/>
						</clipPath>
						<rect x="298" y="139.6" class="st14" width="1208.4" height="1432.3"/>
					</g>
				</g>
				<g class="st2">
					<defs>
						<path id="SVGID_31_" d="M871.7,724.6c2.2-42.8,0-54.6,0-93c0-24.3-17.3-39.1-34-51.6c-9.2-6.9-69.8-37.5-82-35.7
							c-8.6,1.3-36.3,49.3-76.6,48.7c-34.9,0.6-55.5-11-94.1-48.7c-9.3,0.5-53.3,10.5-72.8,23.4c-19.4,12.9-16.6,17.2-19.9,25.4
							c-10.4,26.1-8.5,56.2-7.6,83.7c2.9,90.8-4.1,160.2-8.9,252.7c-4.8,92.5-11.9,258.2-10.1,333.1c48.5,0,209.2,45.6,427.9,0
							C880.4,1143.7,869.5,767.4,871.7,724.6z"/>
					</defs>
					<clipPath id="SVGID_32_">
						<use xlink:href="#SVGID_31_"  style="overflow:visible;"/>
					</clipPath>
					<g class="st15">
						<defs>
							<rect id="SVGID_33_" x="59.2" y="170.9" width="1575.1" height="1638.4"/>
						</defs>
						<clipPath id="SVGID_34_">
							<use xlink:href="#SVGID_33_"  style="overflow:visible;"/>
						</clipPath>
						
							<rect x="288.1" y="659.9" transform="matrix(5.233572e-02 -0.9986 0.9986 5.233572e-02 -256.4155 1554.5192)" class="st16" width="805.5" height="504.9"/>
					</g>
				</g>
				<g class="st2">
					<defs>
						<path id="SVGID_35_" d="M450.4,1228c9.3-110,22.5-241.5,25.5-298.5c1.9-36,4.1-68.4,5.9-100L473,893L450.4,1228z
							 M442.5,1335.9L330.4,1323l77.8-647.8c8-43.7,24.6-74.4,49.8-91.9c19.3-8.6,41.1-15.8,65.4-21.6l0,0.1
							c21.7-9.9,53.9-17,61.6-17.4c17.3,9.9,42.4,21,59.5,27.9c24,171.4,39.4,311.2,46.3,419.3c10.6,166.5,0,289.4-32,368.8
							l-14.4,35.6c-110.8,9.4-159.8,0-203.4-10.7C440.8,1373.4,441.4,1356.5,442.5,1335.9z M832.2,576.5
							c92.1-22.3,171-47.8,236.5-76.5c75-56,131.9-117.7,215.4-200.2c17.3,23.8,36.9,46.8,58.9,69.2
							c-89.1,100.8-155.7,172.6-199.8,215.3c-91.8,50.1-183.3,79-270.9,104.8c-0.2,10.2-0.3,21.9-0.6,35.5
							c-2.8,171.1,59.1,441.9,59.1,671.2c-59.7,8.3-51.2-1.6-99.8,0h-75.3c-21.4-102.1-32-187.8-32-256.9
							c0-181.6-3.4-372.5-10.3-572.7c16-13.4,37.4-21.2,42.3-21.9C766.4,542.7,814.3,566,832.2,576.5z"/>
					</defs>
					<clipPath id="SVGID_36_">
						<use xlink:href="#SVGID_35_"  style="overflow:visible;"/>
					</clipPath>
					<g class="st17">
						<defs>
							<rect id="SVGID_37_" x="59.2" y="170.9" width="1575.1" height="1638.4"/>
						</defs>
						<clipPath id="SVGID_38_">
							<use xlink:href="#SVGID_37_"  style="overflow:visible;"/>
						</clipPath>
						<rect x="298.8" y="268.1" class="st18" width="1075.8" height="1163.2"/>
					</g>
				</g>
				<g class="st2">
					<defs>
						<path id="SVGID_39_" d="M464.1,1086c-4.8,92.5-19,245.4-23.1,298.3c0,0,54.7,15.5,111,15c-43.9-167-51.8-470.8-68.9-556.1
							C481.6,861.8,465.8,1063,464.1,1086z"/>
					</defs>
					<clipPath id="SVGID_40_">
						<use xlink:href="#SVGID_39_"  style="overflow:visible;"/>
					</clipPath>
					<g class="st19">
						<defs>
							<rect id="SVGID_41_" x="59.2" y="170.9" width="1575.1" height="1638.4"/>
						</defs>
						<clipPath id="SVGID_42_">
							<use xlink:href="#SVGID_41_"  style="overflow:visible;"/>
						</clipPath>
						
							<rect x="202.9" y="1033.6" transform="matrix(5.233660e-02 -0.9986 0.9986 5.233660e-02 -635.5581 1572.3712)" class="st20" width="615.6" height="174.9"/>
					</g>
				</g>
				<g class="st2">
					<defs>
						<path id="SVGID_43_" d="M1425.2,713.5l-226.4,928.6c-4.8,19.7,10.2,38.6,30.6,38.6h226.4h226.4c20.4,0,35.4-19,30.6-38.6
							l-226.4-928.6C1478.6,681.6,1433,681.6,1425.2,713.5"/>
					</defs>
					<clipPath id="SVGID_44_">
						<use xlink:href="#SVGID_43_"  style="overflow:visible;"/>
					</clipPath>
					<g class="st21">
						<defs>
							<rect id="SVGID_45_" x="1191.6" y="689.6" width="525" height="1094.4"/>
						</defs>
						<clipPath id="SVGID_46_">
							<use xlink:href="#SVGID_45_"  style="overflow:visible;"/>
						</clipPath>
						<rect x="1166.3" y="658" class="st22" width="579.1" height="1054.4"/>
					</g>
				</g>
				<g class="st2">
					<defs>
						<polygon id="SVGID_47_" points="1445.3,1578.2 1447.4,1469.7 1315.9,1418.5 1447.7,1454.2 1449.2,1372.1 1315.9,1321.8 
							1449.5,1359.5 1451.3,1264 1370,1232.4 1451.5,1254.5 1455.8,1026.7 1460.1,1254.5 1541.6,1232.4 1460.3,1264 1462.1,1359.5 
							1595.7,1321.8 1462.3,1372.1 1463.9,1454.2 1595.7,1418.5 1464.2,1469.7 1466.3,1578.2 1636,1531.5 1466.6,1596.9 
							1470.1,1781.4 1441.5,1781.4 1445,1596.9 1275.6,1531.5 						"/>
					</defs>
					<clipPath id="SVGID_48_">
						<use xlink:href="#SVGID_47_"  style="overflow:visible;"/>
					</clipPath>
					<g class="st23">
						<defs>
							<rect id="SVGID_49_" x="1191.6" y="689.6" width="525" height="1094.4"/>
						</defs>
						<clipPath id="SVGID_50_">
							<use xlink:href="#SVGID_49_"  style="overflow:visible;"/>
						</clipPath>
						<rect x="1243.9" y="995.1" class="st24" width="423.7" height="818"/>
					</g>
				</g>
				<g class="st2">
					<defs>
						<path id="SVGID_51_" d="M1928.5,942.6L1928.5,942.6c131,0,237.2,106.2,237.2,237.2V1746c0,24.5-19.8,44.3-44.3,44.3h-385.9
							c-24.5,0-44.3-19.8-44.3-44.3v-566.2C1691.3,1048.8,1797.5,942.6,1928.5,942.6z"/>
					</defs>
					<clipPath id="SVGID_52_">
						<use xlink:href="#SVGID_51_"  style="overflow:visible;"/>
					</clipPath>
					<g class="st25">
						<defs>
							<rect id="SVGID_53_" x="1691.3" y="942.6" width="474.4" height="923.6"/>
						</defs>
						<clipPath id="SVGID_54_">
							<use xlink:href="#SVGID_53_"  style="overflow:visible;"/>
						</clipPath>
						<rect x="1659.7" y="911" class="st26" width="537.7" height="910.9"/>
					</g>
				</g>
				<g class="st2">
					<defs>
						<polygon id="SVGID_55_" points="1918.1,1701.4 1920.1,1593.3 1788.6,1542.1 1920.4,1577.7 1922,1495.9 1788.6,1445.7 
							1922.2,1483.3 1924,1388 1842.7,1356.5 1924.2,1378.6 1928.5,1151.4 1932.8,1378.6 2014.4,1356.5 1933,1388 1934.8,1483.3 
							2068.5,1445.7 1935.1,1495.9 1936.6,1577.7 2068.5,1542.1 1936.9,1593.3 1939,1701.4 2108.8,1654.9 1939.3,1720.1 
							1942.8,1904.2 1914.2,1904.2 1917.7,1720.1 1748.2,1654.9 						"/>
					</defs>
					<clipPath id="SVGID_56_">
						<use xlink:href="#SVGID_55_"  style="overflow:visible;"/>
					</clipPath>
					<g class="st27">
						<defs>
							<rect id="SVGID_57_" x="1691.3" y="942.6" width="474.4" height="923.6"/>
						</defs>
						<clipPath id="SVGID_58_">
							<use xlink:href="#SVGID_57_"  style="overflow:visible;"/>
						</clipPath>
						<rect x="1716.6" y="1119.8" class="st28" width="423.8" height="816"/>
					</g>
				</g>
			</g>
		</g>
	</g>
</g>
<g>
	<defs>
		<polygon id="SVGID_59_" points="1872.8,267.1 2104.5,107.6 1735.7,105 		"/>
	</defs>
	<clipPath id="SVGID_60_">
		<use xlink:href="#SVGID_59_"  style="overflow:visible;"/>
	</clipPath>
	<g class="st29">
		<defs>
			<rect id="SVGID_61_" x="1716.6" y="76" width="404.9" height="215.1"/>
		</defs>
		<clipPath id="SVGID_62_">
			<use xlink:href="#SVGID_61_"  style="overflow:visible;"/>
		</clipPath>
		<rect x="1704.1" y="73.3" class="st30" width="432" height="225.4"/>
	</g>
</g>
<g>
	<defs>
		<polygon id="SVGID_63_" points="1820.8,205.5 2104.5,107.6 1779.4,156.6 1779.4,249 		"/>
	</defs>
	<clipPath id="SVGID_64_">
		<use xlink:href="#SVGID_63_"  style="overflow:visible;"/>
	</clipPath>
	<g class="st31">
		<defs>
			<rect id="SVGID_65_" x="1716.6" y="76" width="404.9" height="215.1"/>
		</defs>
		<clipPath id="SVGID_66_">
			<use xlink:href="#SVGID_65_"  style="overflow:visible;"/>
		</clipPath>
		<rect x="1747.7" y="76" class="st32" width="388.4" height="204.6"/>
	</g>
</g>
<g>
	<defs>
		<polygon id="SVGID_67_" points="1779.4,249 1843.6,232.5 1820.8,205.5 		"/>
	</defs>
	<clipPath id="SVGID_68_">
		<use xlink:href="#SVGID_67_"  style="overflow:visible;"/>
	</clipPath>
	<g class="st33">
		<defs>
			<rect id="SVGID_69_" x="1716.6" y="76" width="404.9" height="215.1"/>
		</defs>
		<clipPath id="SVGID_70_">
			<use xlink:href="#SVGID_69_"  style="overflow:visible;"/>
		</clipPath>
		<rect x="1747.7" y="173.9" class="st34" width="127.5" height="106.7"/>
	</g>
</g>
</svg>
