<?xml version="1.0" encoding="utf-8"?>
<!-- Generator: Adobe Illustrator 22.1.0, SVG Export Plug-In . SVG Version: 6.00 Build 0)  -->
<svg version="1.1" id="Layer_1" xmlns="http://www.w3.org/2000/svg" xmlns:xlink="http://www.w3.org/1999/xlink" x="0px" y="0px"
	 viewBox="0 0 25 25" style="enable-background:new 0 0 25 25;" xml:space="preserve">
<style type="text/css">
	.st0{fill:#FFFFFF;}
</style>
<g id="_x37_74-sound-3_x40_2x.png">
	<path class="st0" d="M21.4,12.5L21.4,12.5c0-2.5-1.5-4.7-3.7-5.7l0,0c-0.1,0-0.2-0.1-0.2-0.1c-0.2,0-0.4,0.2-0.4,0.4
		c0,0.2,0.1,0.3,0.2,0.4l0,0c1.9,0.8,3.2,2.7,3.2,4.9l0,0c0,2.2-1.3,4.1-3.2,4.9l0,0c-0.1,0.1-0.2,0.2-0.2,0.4
		c0,0.2,0.2,0.4,0.4,0.4c0.1,0,0.2,0,0.2-0.1l0,0C19.9,17.2,21.4,15,21.4,12.5z M19.9,3.9L19.9,3.9c-0.1,0-0.1-0.1-0.2-0.1
		c-0.2,0-0.4,0.2-0.4,0.4c0,0.3,0.1,0.3,0.1,0.3c2.8,1.5,4.7,4.5,4.7,7.9l0,0c0,3.4-1.9,6.4-4.7,7.9c0,0-0.1,0.1-0.1,0.3
		c0,0.2,0.2,0.4,0.4,0.4c0.1,0,0.1,0,0.2-0.1l0,0c3-1.7,5.1-4.9,5.1-8.6l0,0C25,8.8,22.9,5.6,19.9,3.9z M12.1,0
		c-0.3,0-0.6,0.1-0.9,0.3l0,0L4,6.2H1.8C0.8,6.2,0,7,0,8v9c0,1,0.8,1.8,1.8,1.8H4l7.2,5.9l0,0c0.2,0.2,0.5,0.3,0.9,0.3
		c0.7,0,1.3-0.6,1.3-1.3V1.3C13.4,0.6,12.8,0,12.1,0z M3.6,17.9H1.8c-0.5,0-0.9-0.4-0.9-0.9V8c0-0.5,0.4-0.9,0.9-0.9h1.8V17.9z
		 M12.5,23.7c0,0.2-0.2,0.4-0.4,0.4c-0.1,0-0.2,0-0.3-0.1l0,0l0,0l0,0l-7.3-6V7l7.3-6l0,0l0,0l0,0c0.1-0.1,0.2-0.1,0.3-0.1
		c0.2,0,0.4,0.2,0.4,0.4V23.7z M17.9,12.5c0-1.5-1.2-2.7-2.7-2.7c-0.2,0-0.4,0.2-0.4,0.4s0.2,0.4,0.4,0.4c1,0,1.8,0.8,1.8,1.8l0,0
		c0,1-0.8,1.8-1.8,1.8c-0.2,0-0.4,0.2-0.4,0.4S15,15,15.2,15C16.7,15.2,17.9,14,17.9,12.5L17.9,12.5z"/>
</g>
</svg>
